<?xml version="1.0" encoding="utf-8"?>
<!-- Generator: Adobe Illustrator 24.3.0, SVG Export Plug-In . SVG Version: 6.00 Build 0)  -->
<svg version="1.1" id="Layer_1" xmlns="http://www.w3.org/2000/svg" xmlns:xlink="http://www.w3.org/1999/xlink" x="0px" y="0px"
	 viewBox="0 0 256 300" style="enable-background:new 0 0 256 300;" xml:space="preserve">
<style type="text/css">
	.st0{fill:#FFFFFF;}
	.st1{fill:#242938;}
	.st2{fill:#231F20;}
</style>
<path class="st0" d="M27.5,162.6h201c15.2,0,27.5,12.3,27.5,27.5v82.4c0,15.2-12.3,27.5-27.5,27.5h-201C12.3,300,0,287.7,0,272.5
	v-82.4C0,174.9,12.3,162.6,27.5,162.6z"/>
<path class="st1" d="M60,0h136c33.1,0,60,26.9,60,60v136c0,33.1-26.9,60-60,60H60c-33.1,0-60-26.9-60-60V60C0,26.9,26.8,0,60,0z"/>
<g>
	<path class="st2" d="M57.8,291.1c0.1,0.2,0.1,0.4,0.1,0.5c0,0.2-0.1,0.4-0.2,0.6c-0.1,0.2-0.3,0.2-0.5,0.2h-4.2
		c-0.4,0-0.7-0.1-0.9-0.3c-0.2-0.2-0.3-0.4-0.4-0.6l-0.9-3H42l-0.9,3c-0.1,0.2-0.2,0.5-0.4,0.6c-0.2,0.2-0.5,0.3-0.9,0.3h-4.2
		c-0.2,0-0.4-0.1-0.5-0.2c-0.1-0.2-0.2-0.3-0.2-0.6c0-0.1,0-0.3,0.1-0.5l7.3-22.7c0.1-0.3,0.3-0.6,0.5-0.8c0.2-0.2,0.6-0.3,1-0.3
		h5.4c0.4,0,0.7,0.1,1,0.3c0.2,0.2,0.4,0.5,0.5,0.8L57.8,291.1z M49.1,283l-2.7-8.6l-2.7,8.6H49.1z"/>
	<path class="st2" d="M74.9,292.2c-0.2-0.2-0.4-0.4-0.5-0.6l-7.6-12.3v12.2c0,0.3-0.1,0.5-0.3,0.7c-0.2,0.2-0.4,0.3-0.6,0.3h-4.4
		c-0.2,0-0.5-0.1-0.6-0.3c-0.2-0.2-0.3-0.4-0.3-0.7v-23.3c0-0.3,0.1-0.5,0.3-0.7c0.2-0.2,0.4-0.3,0.6-0.3H65c0.3,0,0.6,0.1,0.9,0.3
		c0.2,0.2,0.4,0.4,0.5,0.6l7.6,12.3v-12.2c0-0.3,0.1-0.5,0.3-0.7c0.2-0.2,0.4-0.3,0.6-0.3h4.4c0.2,0,0.5,0.1,0.6,0.3
		c0.2,0.2,0.3,0.4,0.3,0.7v23.3c0,0.3-0.1,0.5-0.3,0.7c-0.2,0.2-0.4,0.3-0.6,0.3h-3.5C75.5,292.5,75.2,292.4,74.9,292.2z"/>
	<path class="st2" d="M105.1,279.9c0,0.4,0,1.2-0.1,2.5c-0.1,2-0.5,3.7-1.4,5.2c-0.9,1.5-2.1,2.7-3.6,3.5c-1.5,0.9-3.3,1.3-5.3,1.3
		h-9c-0.2,0-0.5-0.1-0.6-0.3c-0.2-0.2-0.3-0.4-0.3-0.7v-23.3c0-0.3,0.1-0.5,0.3-0.7c0.2-0.2,0.4-0.3,0.6-0.3h8.8
		c2,0,3.8,0.4,5.4,1.3c1.6,0.9,2.8,2,3.7,3.6c0.9,1.5,1.4,3.3,1.4,5.2C105.1,278.7,105.1,279.5,105.1,279.9z M91,273v13.7h3.6
		c2.8,0,4.2-1.4,4.4-4.1c0-1.4,0.1-2.3,0.1-2.7c0-0.5,0-1.4-0.1-2.7c-0.1-1.4-0.5-2.4-1.2-3.1c-0.8-0.7-1.9-1-3.3-1H91z"/>
	<path class="st2" d="M115,286.7h10.5c0.2,0,0.5,0.1,0.6,0.3c0.2,0.2,0.3,0.4,0.3,0.7v3.8c0,0.3-0.1,0.5-0.3,0.7
		c-0.2,0.2-0.4,0.3-0.6,0.3h-15.8c-0.2,0-0.5-0.1-0.6-0.3c-0.2-0.2-0.3-0.4-0.3-0.7v-23.3c0-0.3,0.1-0.5,0.3-0.7
		c0.2-0.2,0.4-0.3,0.6-0.3h15.5c0.2,0,0.5,0.1,0.6,0.3c0.2,0.2,0.3,0.4,0.3,0.7v3.8c0,0.3-0.1,0.5-0.3,0.7c-0.2,0.2-0.4,0.3-0.6,0.3
		H115v3.9h9.5c0.2,0,0.5,0.1,0.6,0.3c0.2,0.2,0.3,0.4,0.3,0.7v3.8c0,0.3-0.1,0.5-0.3,0.7c-0.2,0.2-0.4,0.3-0.6,0.3H115V286.7z"/>
	<path class="st2" d="M147.1,269.3c1.6,1.4,2.5,3.4,2.5,6.2c0,3.5-1.3,5.9-4,7.2l4.1,8.6c0.1,0.1,0.1,0.3,0.1,0.4
		c0,0.2-0.1,0.4-0.2,0.6c-0.1,0.2-0.3,0.2-0.5,0.2h-4.5c-0.4,0-0.7-0.1-0.9-0.3c-0.2-0.2-0.4-0.4-0.5-0.7l-3.7-7.7h-3.1v7.7
		c0,0.3-0.1,0.5-0.3,0.7c-0.2,0.2-0.4,0.3-0.6,0.3h-4.4c-0.2,0-0.5-0.1-0.6-0.3c-0.2-0.2-0.3-0.4-0.3-0.7v-23.3
		c0-0.3,0.1-0.5,0.3-0.7c0.2-0.2,0.4-0.3,0.6-0.3h9C143.2,267.3,145.5,268,147.1,269.3z M140.2,278.2c2.2,0,3.2-0.9,3.2-2.7
		c0-1.8-1.1-2.7-3.2-2.7h-3.8v5.3H140.2z"/>
	<path class="st2" d="M171.6,274.6c-0.1,0.2-0.3,0.2-0.5,0.2h-4.4c-0.3,0-0.6,0-0.7-0.1c-0.2-0.1-0.4-0.2-0.6-0.5
		c0,0-0.2-0.2-0.4-0.5c-0.2-0.3-0.6-0.5-1.1-0.7c-0.5-0.2-1.1-0.3-1.8-0.3c-1,0-1.7,0.1-2.3,0.4c-0.6,0.3-0.9,0.8-0.9,1.4
		c0,0.5,0.2,0.9,0.6,1.1c0.4,0.3,1,0.5,1.7,0.7c0.8,0.2,2.2,0.5,4.1,1c2.5,0.6,4.3,1.4,5.5,2.6c1.2,1.2,1.8,2.9,1.8,5
		c0,1.6-0.4,3-1.3,4.2c-0.9,1.2-2.1,2.1-3.7,2.7s-3.3,1-5.3,1c-1.9,0-3.6-0.4-5.2-1.1c-1.6-0.7-2.8-1.7-3.7-2.8
		c-0.9-1.2-1.4-2.3-1.4-3.6c0-0.2,0.1-0.4,0.2-0.6c0.1-0.2,0.3-0.2,0.5-0.2h4.4c0.5,0,0.9,0.2,1.3,0.5c0.1,0.1,0.2,0.3,0.5,0.6
		c0.3,0.3,0.7,0.7,1.3,0.9c0.6,0.3,1.3,0.4,2.1,0.4c2.8,0,4.1-0.6,4.1-1.9c0-0.4-0.2-0.8-0.6-1c-0.4-0.3-0.9-0.5-1.6-0.7
		c-0.7-0.2-1.8-0.5-3.4-0.8l-1.5-0.3c-2.3-0.5-3.9-1.4-5-2.6c-1.1-1.2-1.6-2.9-1.6-5c0-1.4,0.4-2.7,1.2-3.9c0.8-1.2,1.9-2.1,3.3-2.8
		s3.1-1.1,4.9-1.1c1.8,0,3.4,0.4,4.9,1.1c1.5,0.7,2.7,1.7,3.5,2.8c0.9,1.1,1.3,2.2,1.3,3.2C171.8,274.2,171.8,274.4,171.6,274.6z"/>
	<path class="st2" d="M190.9,268.2c1.5,0.9,2.7,2,3.5,3.5c0.8,1.5,1.3,3.1,1.4,5c0,0.7,0.1,1.8,0.1,3.2c0,1.5,0,2.5-0.1,3.2
		c-0.1,1.8-0.5,3.5-1.4,5c-0.8,1.5-2,2.6-3.5,3.5c-1.5,0.9-3.4,1.3-5.5,1.3c-2.1,0-3.9-0.4-5.5-1.3c-1.5-0.9-2.7-2-3.5-3.5
		c-0.8-1.5-1.3-3.1-1.4-5c0-1.3-0.1-2.4-0.1-3.2c0-0.8,0-1.9,0.1-3.2c0.1-1.8,0.5-3.5,1.4-5c0.8-1.5,2-2.6,3.5-3.5
		c1.5-0.9,3.3-1.3,5.5-1.3C187.6,266.9,189.4,267.3,190.9,268.2z M188.5,273.8c-0.7-0.8-1.7-1.1-3-1.1c-1.3,0-2.3,0.4-3,1.1
		c-0.7,0.8-1.1,1.8-1.2,3c-0.1,0.8-0.1,1.8-0.1,3c0,1.2,0,2.2,0.1,3.1c0.1,1.3,0.5,2.3,1.2,3c0.7,0.8,1.7,1.1,3,1.1
		c1.3,0,2.3-0.4,3-1.1c0.7-0.8,1.1-1.8,1.2-3c0.1-0.9,0.1-1.9,0.1-3.1c0-1.2,0-2.2-0.1-3C189.6,275.6,189.2,274.6,188.5,273.8z"/>
	<path class="st2" d="M214,292.2c-0.2-0.2-0.4-0.4-0.5-0.6l-7.6-12.3v12.2c0,0.3-0.1,0.5-0.3,0.7c-0.2,0.2-0.4,0.3-0.6,0.3h-4.4
		c-0.2,0-0.5-0.1-0.6-0.3c-0.2-0.2-0.3-0.4-0.3-0.7v-23.3c0-0.3,0.1-0.5,0.3-0.7c0.2-0.2,0.4-0.3,0.6-0.3h3.5c0.3,0,0.6,0.1,0.9,0.3
		c0.2,0.2,0.4,0.4,0.5,0.6l7.6,12.3v-12.2c0-0.3,0.1-0.5,0.3-0.7c0.2-0.2,0.4-0.3,0.6-0.3h4.4c0.2,0,0.5,0.1,0.6,0.3
		c0.2,0.2,0.3,0.4,0.3,0.7v23.3c0,0.3-0.1,0.5-0.3,0.7c-0.2,0.2-0.4,0.3-0.6,0.3h-3.5C214.5,292.5,214.2,292.4,214,292.2z"/>
</g>
<image style="overflow:visible;" width="447" height="428" xlink:href="B99E0284.jpg"  transform="matrix(0.4635 0 0 0.4635 22.8682 27.825)">
</image>
</svg>
