<?xml version="1.0" encoding="utf-8"?>
<!-- Generator: Adobe Illustrator 24.3.0, SVG Export Plug-In . SVG Version: 6.00 Build 0)  -->
<svg version="1.1" id="Layer_1" xmlns="http://www.w3.org/2000/svg" xmlns:xlink="http://www.w3.org/1999/xlink" x="0px" y="0px"
	 viewBox="0 0 256 300" style="enable-background:new 0 0 256 300;" xml:space="preserve">
<style type="text/css">
	.st0{fill:#FFFFFF;}
	.st1{fill:#231F20;}
	.st2{fill:url(#SVGID_1_);}
	.st3{fill-rule:evenodd;clip-rule:evenodd;fill:#31274A;}
	.st4{fill-rule:evenodd;clip-rule:evenodd;fill:#FF5D01;}
	.st5{fill-rule:evenodd;clip-rule:evenodd;fill:url(#SVGID_2_);}
</style>
<path class="st0" d="M27.5,162.6h201c15.2,0,27.5,12.3,27.5,27.5v82.4c0,15.2-12.3,27.5-27.5,27.5h-201C12.3,300,0,287.7,0,272.5
	v-82.4C0,174.9,12.3,162.6,27.5,162.6z"/>
<g>
	<path class="st1" d="M94.1,291.1c0.1,0.2,0.1,0.4,0.1,0.5c0,0.2-0.1,0.4-0.2,0.6c-0.1,0.2-0.3,0.2-0.5,0.2h-4.2
		c-0.4,0-0.7-0.1-0.9-0.3c-0.2-0.2-0.3-0.4-0.4-0.6l-0.9-3h-8.9l-0.9,3c-0.1,0.2-0.2,0.5-0.4,0.6c-0.2,0.2-0.5,0.3-0.9,0.3h-4.2
		c-0.2,0-0.4-0.1-0.5-0.2c-0.1-0.2-0.2-0.3-0.2-0.6c0-0.1,0-0.3,0.1-0.5l7.3-22.7c0.1-0.3,0.3-0.6,0.5-0.8c0.2-0.2,0.6-0.3,1-0.3
		h5.4c0.4,0,0.7,0.1,1,0.3c0.2,0.2,0.4,0.5,0.5,0.8L94.1,291.1z M85.4,283l-2.7-8.6L80,283H85.4z"/>
	<path class="st1" d="M114.9,274.6c-0.1,0.2-0.3,0.2-0.5,0.2h-4.4c-0.3,0-0.6,0-0.7-0.1c-0.2-0.1-0.4-0.2-0.6-0.5
		c0,0-0.2-0.2-0.4-0.5c-0.2-0.3-0.6-0.5-1.1-0.7c-0.5-0.2-1.1-0.3-1.8-0.3c-1,0-1.7,0.1-2.3,0.4c-0.6,0.3-0.9,0.8-0.9,1.4
		c0,0.5,0.2,0.9,0.6,1.1c0.4,0.3,1,0.5,1.7,0.7c0.8,0.2,2.2,0.5,4.1,1c2.5,0.6,4.3,1.4,5.5,2.6c1.2,1.2,1.8,2.9,1.8,5
		c0,1.6-0.4,3-1.3,4.2c-0.9,1.2-2.1,2.1-3.7,2.7c-1.6,0.6-3.3,1-5.3,1c-1.9,0-3.6-0.4-5.2-1.1c-1.6-0.7-2.8-1.7-3.7-2.8
		c-0.9-1.2-1.4-2.3-1.4-3.6c0-0.2,0.1-0.4,0.2-0.6c0.1-0.2,0.3-0.2,0.5-0.2h4.4c0.5,0,0.9,0.2,1.3,0.5c0.1,0.1,0.2,0.3,0.5,0.6
		c0.3,0.3,0.7,0.7,1.3,0.9c0.6,0.3,1.3,0.4,2.1,0.4c2.8,0,4.1-0.6,4.1-1.9c0-0.4-0.2-0.8-0.6-1c-0.4-0.3-0.9-0.5-1.6-0.7
		c-0.7-0.2-1.8-0.5-3.4-0.8l-1.5-0.3c-2.3-0.5-3.9-1.4-5-2.6c-1.1-1.2-1.6-2.9-1.6-5c0-1.4,0.4-2.7,1.2-3.9c0.8-1.2,1.9-2.1,3.3-2.8
		s3.1-1.1,4.9-1.1c1.8,0,3.4,0.4,4.9,1.1c1.5,0.7,2.7,1.7,3.5,2.8c0.9,1.1,1.3,2.2,1.3,3.2C115.2,274.2,115.1,274.4,114.9,274.6z"/>
	<path class="st1" d="M136.9,267.6c0.2,0.2,0.3,0.4,0.3,0.7v3.8c0,0.3-0.1,0.5-0.3,0.7s-0.4,0.3-0.6,0.3h-5.9v18.5
		c0,0.3-0.1,0.5-0.3,0.7c-0.2,0.2-0.4,0.3-0.6,0.3h-4.4c-0.2,0-0.5-0.1-0.6-0.3c-0.2-0.2-0.3-0.4-0.3-0.7V273h-5.9
		c-0.2,0-0.5-0.1-0.6-0.3c-0.2-0.2-0.3-0.4-0.3-0.7v-3.8c0-0.3,0.1-0.5,0.3-0.7c0.2-0.2,0.4-0.3,0.6-0.3h17.9
		C136.5,267.3,136.7,267.4,136.9,267.6z"/>
	<path class="st1" d="M157,269.3c1.6,1.4,2.5,3.4,2.5,6.2c0,3.5-1.3,5.9-4,7.2l4.1,8.6c0.1,0.1,0.1,0.3,0.1,0.4
		c0,0.2-0.1,0.4-0.2,0.6c-0.1,0.2-0.3,0.2-0.5,0.2h-4.5c-0.4,0-0.7-0.1-0.9-0.3c-0.2-0.2-0.4-0.4-0.5-0.7l-3.7-7.7h-3.1v7.7
		c0,0.3-0.1,0.5-0.3,0.7c-0.2,0.2-0.4,0.3-0.6,0.3H141c-0.2,0-0.5-0.1-0.6-0.3c-0.2-0.2-0.3-0.4-0.3-0.7v-23.3
		c0-0.3,0.1-0.5,0.3-0.7c0.2-0.2,0.4-0.3,0.6-0.3h9C153,267.3,155.3,268,157,269.3z M150.1,278.2c2.2,0,3.2-0.9,3.2-2.7
		c0-1.8-1.1-2.7-3.2-2.7h-3.8v5.3H150.1z"/>
	<path class="st1" d="M178.3,268.2c1.5,0.9,2.7,2,3.5,3.5c0.8,1.5,1.3,3.1,1.4,5c0,0.7,0.1,1.8,0.1,3.2c0,1.5,0,2.5-0.1,3.2
		c-0.1,1.8-0.5,3.5-1.4,5c-0.8,1.5-2,2.6-3.5,3.5c-1.5,0.9-3.3,1.3-5.5,1.3s-3.9-0.4-5.5-1.3c-1.5-0.9-2.7-2-3.5-3.5
		c-0.8-1.5-1.3-3.1-1.4-5c0-1.3-0.1-2.4-0.1-3.2c0-0.8,0-1.9,0.1-3.2c0.1-1.8,0.5-3.5,1.4-5c0.8-1.5,2-2.6,3.5-3.5
		c1.5-0.9,3.3-1.3,5.5-1.3S176.8,267.3,178.3,268.2z M175.9,273.8c-0.7-0.8-1.7-1.1-3-1.1s-2.3,0.4-3,1.1c-0.7,0.8-1.1,1.8-1.2,3
		c-0.1,0.8-0.1,1.8-0.1,3c0,1.2,0,2.2,0.1,3.1c0.1,1.3,0.5,2.3,1.2,3c0.7,0.8,1.7,1.1,3,1.1s2.3-0.4,3-1.1c0.7-0.8,1.1-1.8,1.2-3
		c0.1-0.9,0.1-1.9,0.1-3.1c0-1.2,0-2.2-0.1-3C177,275.6,176.6,274.6,175.9,273.8z"/>
</g>
<linearGradient id="SVGID_1_" gradientUnits="userSpaceOnUse" x1="128" y1="300.5354" x2="128" y2="44.5354" gradientTransform="matrix(1 0 0 -1 0 300.5354)">
	<stop  offset="0.1927" style="stop-color:#FCB3B2"/>
	<stop  offset="1" style="stop-color:#C587EE"/>
</linearGradient>
<path class="st2" d="M60,0h136c33.1,0,60,26.9,60,60v136c0,33.1-26.9,60-60,60H60c-33.1,0-60-26.9-60-60V60C0,26.9,26.9,0,60,0z"/>
<path class="st3" d="M157.7,33c1.6,2,2.5,4.8,4.1,10.2l36.4,119.6c-13.7-7.1-28.3-12.1-43.5-14.7L131,68c-0.2-0.6-0.6-1.2-1.1-1.6
	s-1.2-0.6-1.8-0.6c-0.7,0-1.3,0.2-1.8,0.6c-0.5,0.4-0.9,1-1.1,1.6l-23.4,80c-15.2,2.7-30,7.6-43.7,14.8L94.6,43.2
	c1.7-5.5,2.5-8.2,4.1-10.2c1.4-1.8,3.3-3.2,5.4-4c2.4-1,5.3-1,11-1h26.1c5.7,0,8.6,0,11,1C154.4,29.8,156.3,31.2,157.7,33z"/>
<path class="st4" d="M162.1,168.5c-6,5.1-18,8.6-31.8,8.6c-16.9,0-31.1-5.3-34.9-12.4c-1.3,4.1-1.6,8.7-1.6,11.7
	c0,0-0.9,14.6,9.3,24.7c0-5.3,4.3-9.5,9.5-9.5c9,0,9,7.9,9,14.3v0.6c0,9.7,5.9,18,14.4,21.5c-1.3-2.7-2-5.6-2-8.6
	c0-9.3,5.4-12.7,11.7-16.7c5-3.2,10.6-6.7,14.4-13.8c2.1-3.8,3.2-8.1,3.1-12.5C163.3,173.7,162.9,171,162.1,168.5z"/>
<linearGradient id="SVGID_2_" gradientUnits="userSpaceOnUse" x1="158.6669" y1="188.3026" x2="123.1429" y2="113.9356" gradientTransform="matrix(1 0 0 -1 0 300.5354)">
	<stop  offset="0" style="stop-color:#FF1639"/>
	<stop  offset="1" style="stop-color:#FF1639;stop-opacity:0"/>
</linearGradient>
<path class="st5" d="M162.1,168.5c-6,5.1-18,8.6-31.8,8.6c-16.9,0-31.1-5.3-34.9-12.4c-1.3,4.1-1.6,8.7-1.6,11.7
	c0,0-0.9,14.6,9.3,24.7c0-5.3,4.3-9.5,9.5-9.5c9,0,9,7.9,9,14.3v0.6c0,9.7,5.9,18,14.4,21.5c-1.3-2.7-2-5.6-2-8.6
	c0-9.3,5.4-12.7,11.7-16.7c5-3.2,10.6-6.7,14.4-13.8c2.1-3.8,3.2-8.1,3.1-12.5C163.3,173.7,162.9,171,162.1,168.5z"/>
</svg>
