<?xml version="1.0" encoding="utf-8"?>
<!-- Generator: Adobe Illustrator 24.3.0, SVG Export Plug-In . SVG Version: 6.00 Build 0)  -->
<svg version="1.1" id="Layer_1" xmlns="http://www.w3.org/2000/svg" xmlns:xlink="http://www.w3.org/1999/xlink" x="0px" y="0px"
	 viewBox="0 0 256 300" style="enable-background:new 0 0 256 300;" xml:space="preserve">
<style type="text/css">
	.st0{fill:#FFFFFF;}
	.st1{fill:#231F20;}
	.st2{fill:url(#SVGID_1_);}
</style>
<path class="st0" d="M27.5,162.6h201c15.2,0,27.5,12.3,27.5,27.5v82.4c0,15.2-12.3,27.5-27.5,27.5h-201C12.3,300,0,287.7,0,272.5
	v-82.4C0,174.9,12.3,162.6,27.5,162.6z"/>
<g>
	<path class="st1" d="M84.2,291.1c0.1,0.2,0.1,0.4,0.1,0.5c0,0.2-0.1,0.4-0.2,0.6c-0.1,0.2-0.3,0.2-0.5,0.2h-4.2
		c-0.4,0-0.7-0.1-0.9-0.3c-0.2-0.2-0.3-0.4-0.4-0.6l-0.9-3h-8.9l-0.9,3c-0.1,0.2-0.2,0.5-0.4,0.6c-0.2,0.2-0.5,0.3-0.9,0.3H62
		c-0.2,0-0.4-0.1-0.5-0.2c-0.1-0.2-0.2-0.3-0.2-0.6c0-0.1,0-0.3,0.1-0.5l7.3-22.7c0.1-0.3,0.3-0.6,0.5-0.8c0.2-0.2,0.6-0.3,1-0.3
		h5.4c0.4,0,0.7,0.1,1,0.3c0.2,0.2,0.4,0.5,0.5,0.8L84.2,291.1z M75.5,283l-2.7-8.6l-2.7,8.6H75.5z"/>
	<path class="st1" d="M104.3,269.4c1.6,1.4,2.4,3.5,2.4,6.3c0,2.8-0.8,4.9-2.4,6.3c-1.6,1.4-3.9,2.2-6.8,2.2h-4.3v7.3
		c0,0.3-0.1,0.5-0.3,0.7c-0.2,0.2-0.4,0.3-0.6,0.3H88c-0.2,0-0.5-0.1-0.6-0.3c-0.2-0.2-0.3-0.4-0.3-0.7v-23.3c0-0.3,0.1-0.5,0.3-0.7
		c0.2-0.2,0.4-0.3,0.6-0.3h9.5C100.4,267.3,102.6,268,104.3,269.4z M97.3,278.5c1,0,1.8-0.2,2.3-0.7c0.6-0.5,0.9-1.2,0.9-2.1
		c0-1-0.3-1.7-0.9-2.1c-0.6-0.5-1.4-0.7-2.3-0.7h-4.1v5.7H97.3z"/>
	<path class="st1" d="M125,268.2c1.5,0.9,2.7,2,3.5,3.5c0.8,1.5,1.3,3.1,1.4,5c0,0.7,0.1,1.8,0.1,3.2c0,1.5,0,2.5-0.1,3.2
		c-0.1,1.8-0.5,3.5-1.4,5c-0.8,1.5-2,2.6-3.5,3.5c-1.5,0.9-3.4,1.3-5.5,1.3c-2.1,0-3.9-0.4-5.5-1.3c-1.5-0.9-2.7-2-3.5-3.5
		c-0.8-1.5-1.3-3.1-1.4-5c0-1.3-0.1-2.4-0.1-3.2c0-0.8,0-1.9,0.1-3.2c0.1-1.8,0.5-3.5,1.4-5c0.8-1.5,2-2.6,3.5-3.5
		c1.5-0.9,3.3-1.3,5.5-1.3C121.6,266.9,123.4,267.3,125,268.2z M122.5,273.8c-0.7-0.8-1.7-1.1-3-1.1c-1.3,0-2.3,0.4-3,1.1
		s-1.1,1.8-1.2,3c-0.1,0.8-0.1,1.8-0.1,3c0,1.2,0,2.2,0.1,3.1c0.1,1.3,0.5,2.3,1.2,3s1.7,1.1,3,1.1c1.3,0,2.3-0.4,3-1.1
		s1.1-1.8,1.2-3c0.1-0.9,0.1-1.9,0.1-3.1c0-1.2,0-2.2-0.1-3C123.6,275.6,123.2,274.6,122.5,273.8z"/>
	<path class="st1" d="M150.7,287c0.2,0.2,0.3,0.4,0.3,0.7v3.8c0,0.3-0.1,0.5-0.3,0.7c-0.2,0.2-0.4,0.3-0.6,0.3h-15.4
		c-0.2,0-0.5-0.1-0.6-0.3c-0.2-0.2-0.3-0.4-0.3-0.7v-23.3c0-0.3,0.1-0.5,0.3-0.7c0.2-0.2,0.4-0.3,0.6-0.3h4.4c0.2,0,0.5,0.1,0.6,0.3
		c0.2,0.2,0.3,0.4,0.3,0.7v18.5h10.1C150.3,286.7,150.5,286.8,150.7,287z"/>
	<path class="st1" d="M170.5,287c0.2,0.2,0.3,0.4,0.3,0.7v3.8c0,0.3-0.1,0.5-0.3,0.7c-0.2,0.2-0.4,0.3-0.6,0.3h-15.4
		c-0.2,0-0.5-0.1-0.6-0.3c-0.2-0.2-0.3-0.4-0.3-0.7v-23.3c0-0.3,0.1-0.5,0.3-0.7c0.2-0.2,0.4-0.3,0.6-0.3h4.4c0.2,0,0.5,0.1,0.6,0.3
		c0.2,0.2,0.3,0.4,0.3,0.7v18.5h10.1C170.1,286.7,170.3,286.8,170.5,287z"/>
	<path class="st1" d="M188.7,268.2c1.5,0.9,2.7,2,3.5,3.5c0.8,1.5,1.3,3.1,1.4,5c0,0.7,0.1,1.8,0.1,3.2c0,1.5,0,2.5-0.1,3.2
		c-0.1,1.8-0.5,3.5-1.4,5c-0.8,1.5-2,2.6-3.5,3.5c-1.5,0.9-3.4,1.3-5.5,1.3c-2.1,0-3.9-0.4-5.5-1.3c-1.5-0.9-2.7-2-3.5-3.5
		c-0.8-1.5-1.3-3.1-1.4-5c0-1.3-0.1-2.4-0.1-3.2c0-0.8,0-1.9,0.1-3.2c0.1-1.8,0.5-3.5,1.4-5c0.8-1.5,2-2.6,3.5-3.5
		c1.5-0.9,3.3-1.3,5.5-1.3C185.3,266.9,187.1,267.3,188.7,268.2z M186.2,273.8c-0.7-0.8-1.7-1.1-3-1.1c-1.3,0-2.3,0.4-3,1.1
		c-0.7,0.8-1.1,1.8-1.2,3c-0.1,0.8-0.1,1.8-0.1,3c0,1.2,0,2.2,0.1,3.1c0.1,1.3,0.5,2.3,1.2,3c0.7,0.8,1.7,1.1,3,1.1
		c1.3,0,2.3-0.4,3-1.1c0.7-0.8,1.1-1.8,1.2-3c0.1-0.9,0.1-1.9,0.1-3.1c0-1.2,0-2.2-0.1-3C187.3,275.6,186.9,274.6,186.2,273.8z"/>
</g>
<linearGradient id="SVGID_1_" gradientUnits="userSpaceOnUse" x1="0" y1="300.5354" x2="256" y2="44.5354" gradientTransform="matrix(1 0 0 -1 0 300.5354)">
	<stop  offset="0" style="stop-color:#4010AC"/>
	<stop  offset="1" style="stop-color:#D540A8"/>
</linearGradient>
<path class="st2" d="M60,0h136c33.1,0,60,26.9,60,60v136c0,33.1-26.9,60-60,60H60c-33.1,0-60-26.9-60-60V60C0,26.9,26.9,0,60,0z"/>
<path class="st0" d="M140.3,73l-26.7,0l-36.9,97.9l24.1,0l6-16.6l36.4,0.1l-6.9-18.4l-23.9,0l14.9-42.1l28.9,77.1l24.1,0L140.3,73z"
	/>
<path class="st0" d="M233.1,99.1c-0.1-0.3-0.2-0.7-0.3-1c0-0.1-0.1-0.3-0.1-0.3c-0.5-0.9-1.2-1.7-2.1-2.3c-0.9-0.6-1.9-0.9-3-0.9
	c-1.5,0-2.8,0.6-3.9,1.6c-1,1-1.6,2.4-1.5,3.8c0,0.6,0.1,1.2,0.3,1.7l0,0c2.6,8.6,4,17.5,4.1,26.4c0.4,25.9-9.5,50.3-27.9,68.6
	c-18.4,18.3-43.1,28.3-69.5,28.3c-26.4,0-51.5-10.2-70.4-28.5c-19-18.4-29.7-42.7-30.1-68.7c-0.4-25.9,9.5-50.3,27.9-68.6
	C75,41,99.7,30.9,126.1,31c23.6,0,46.1,8.1,64.1,22.9c-0.6,1.5-0.9,3.2-0.9,4.8c0.1,7.3,6.2,13.2,13.7,13.2
	c7.4,0,13.3-5.9,13.2-13.2c-0.1-7.3-6.2-13.2-13.7-13.2c-1.6,0-3.2,0.3-4.6,0.8c-19.5-16.3-44.7-26.1-72.1-26.2
	C65.2,20.1,16.8,68.3,17.7,127.8c0.9,59.5,50.9,107.9,111.7,108c60.7,0.1,109.2-48.1,108.3-107.6
	C237.5,118.1,235.9,108.4,233.1,99.1L233.1,99.1z"/>
</svg>
