<?xml version="1.0" encoding="utf-8"?>
<!-- Generator: Adobe Illustrator 24.3.0, SVG Export Plug-In . SVG Version: 6.00 Build 0)  -->
<svg version="1.1" id="Layer_1" xmlns="http://www.w3.org/2000/svg" xmlns:xlink="http://www.w3.org/1999/xlink" x="0px" y="0px"
	 viewBox="0 0 256 300" style="enable-background:new 0 0 256 300;" xml:space="preserve">
<style type="text/css">
	.st0{fill:#FFFFFF;}
	.st1{fill:#0D1117;}
	.st2{fill:#242938;}
	.st3{fill-rule:evenodd;clip-rule:evenodd;fill:#FF9900;}
</style>
<path class="st0" d="M27.5,162.6h201c15.2,0,27.5,12.3,27.5,27.5v82.4c0,15.2-12.3,27.5-27.5,27.5h-201C12.3,300,0,287.7,0,272.5
	v-82.4C0,174.9,12.3,162.6,27.5,162.6z"/>
<g>
	<path class="st1" d="M111.1,291.2c0.1,0.2,0.1,0.4,0.1,0.5c0,0.2-0.1,0.4-0.2,0.6s-0.3,0.2-0.5,0.2h-3.9c-0.4,0-0.6-0.1-0.8-0.3
		c-0.2-0.2-0.3-0.4-0.4-0.6l-0.9-3h-8.3l-0.9,3c-0.1,0.2-0.2,0.4-0.4,0.6s-0.5,0.3-0.8,0.3h-3.9c-0.2,0-0.3-0.1-0.5-0.2
		s-0.2-0.3-0.2-0.6c0-0.1,0-0.3,0.1-0.5l6.8-22.5c0.1-0.3,0.3-0.6,0.5-0.8c0.2-0.2,0.5-0.3,0.9-0.3h5c0.4,0,0.7,0.1,0.9,0.3
		c0.2,0.2,0.4,0.5,0.5,0.8L111.1,291.2z M103,283.1l-2.5-8.6l-2.5,8.6H103z"/>
	<path class="st1" d="M133,268.4c0.1-0.3,0.2-0.6,0.4-0.7c0.2-0.2,0.4-0.2,0.6-0.2h4.1c0.2,0,0.3,0.1,0.5,0.2
		c0.1,0.2,0.2,0.3,0.2,0.6v0.3l-4,22.6c0,0.3-0.2,0.6-0.5,0.9s-0.6,0.4-1,0.4h-2.6c-0.4,0-0.7-0.1-1-0.4s-0.5-0.6-0.6-0.9l-2.3-8.1
		l-2.3,8.1c-0.1,0.4-0.3,0.7-0.6,0.9c-0.3,0.3-0.6,0.4-1,0.4h-2.6c-0.4,0-0.7-0.1-1-0.4s-0.5-0.6-0.5-0.9l-4-22.6v-0.3
		c0-0.2,0.1-0.4,0.2-0.6s0.3-0.2,0.5-0.2h4.1c0.2,0,0.4,0.1,0.6,0.2c0.2,0.2,0.3,0.4,0.4,0.7l2,12.1l1.8-6.5c0.2-0.7,0.6-1,1.1-1
		h2.9c0.5,0,0.8,0.3,1.1,1l1.8,6.5L133,268.4z"/>
	<path class="st1" d="M161.1,274.7c-0.1,0.2-0.3,0.2-0.5,0.2h-4.1c-0.3,0-0.5,0-0.7-0.1s-0.4-0.2-0.6-0.4c0,0-0.2-0.2-0.4-0.5
		s-0.6-0.5-1.1-0.7s-1.1-0.3-1.7-0.3c-0.9,0-1.6,0.1-2.2,0.4s-0.9,0.7-0.9,1.4c0,0.5,0.2,0.9,0.5,1.1c0.4,0.3,0.9,0.5,1.6,0.7
		c0.7,0.2,2,0.5,3.8,1c2.3,0.5,4.1,1.4,5.2,2.6s1.6,2.8,1.6,5c0,1.6-0.4,3-1.2,4.1c-0.8,1.2-2,2.1-3.4,2.7s-3.1,0.9-5,0.9
		c-1.8,0-3.4-0.4-4.8-1.1c-1.4-0.7-2.6-1.6-3.4-2.8c-0.8-1.1-1.3-2.3-1.3-3.5c0-0.2,0.1-0.4,0.2-0.6c0.1-0.2,0.3-0.2,0.5-0.2h4.1
		c0.5,0,0.8,0.2,1.2,0.5c0.1,0.1,0.2,0.3,0.5,0.6c0.3,0.3,0.7,0.7,1.2,0.9c0.5,0.3,1.2,0.4,1.9,0.4c2.6,0,3.8-0.6,3.8-1.9
		c0-0.4-0.2-0.7-0.5-1s-0.9-0.5-1.5-0.7c-0.7-0.2-1.7-0.5-3.2-0.8l-1.4-0.3c-2.1-0.5-3.7-1.4-4.7-2.6s-1.5-2.9-1.5-4.9
		c0-1.4,0.4-2.7,1.1-3.8c0.7-1.2,1.8-2.1,3.1-2.8s2.9-1.1,4.6-1.1c1.7,0,3.2,0.4,4.6,1.1c1.4,0.7,2.5,1.6,3.3,2.7s1.2,2.2,1.3,3.2
		C161.4,274.4,161.3,274.5,161.1,274.7z"/>
</g>
<path class="st2" d="M60,0h136c33.1,0,60,26.9,60,60v136c0,33.1-26.9,60-60,60H60c-33.1,0-60-26.9-60-60V60C0,26.9,26.8,0,60,0z"/>
<path class="st0" d="M84.7,112c0,2.4,0.3,4.4,0.7,5.9c0.5,1.4,1.2,3,2.1,4.7c0.3,0.5,0.5,1.1,0.5,1.5c0,0.7-0.4,1.3-1.2,2l-4.1,2.8
	c-0.6,0.4-1.2,0.6-1.7,0.6c-0.7,0-1.3-0.3-2-0.9c-0.9-1-1.7-2-2.4-3.1s-1.3-2.4-2-3.9c-5.1,6.1-11.6,9.1-19.3,9.1
	c-5.5,0-9.9-1.6-13.2-4.7c-3.2-3.2-4.9-7.4-4.9-12.6c0-5.6,2-10.1,6-13.6c4-3.4,9.3-5.1,16.1-5.1c2.2,0,4.5,0.2,7,0.5
	c2.4,0.3,4.9,0.9,7.6,1.4v-4.8c0-5-1.1-8.5-3.1-10.5c-2.1-2-5.7-3-10.7-3c-2.3,0-4.7,0.3-7.1,0.9s-4.8,1.3-7.1,2.2
	c-1.1,0.5-1.8,0.7-2.3,0.9c-0.5,0.1-0.8,0.2-1.1,0.2c-0.9,0-1.4-0.7-1.4-2V77c0-1.1,0.1-1.8,0.5-2.3c0.3-0.5,0.9-0.9,1.8-1.4
	c2.3-1.2,5.1-2.2,8.3-3c3.2-0.9,6.6-1.2,10.3-1.2c7.8,0,13.6,1.8,17.2,5.3c3.6,3.6,5.5,8.9,5.5,16.2V112L84.7,112z M58,122
	c2.2,0,4.4-0.4,6.8-1.2c2.4-0.8,4.5-2.2,6.2-4.2c1.1-1.2,1.8-2.6,2.2-4.2s0.7-3.5,0.7-5.7v-2.8c-1.9-0.5-3.9-0.9-6.1-1.1
	c-2.1-0.3-4.1-0.4-6.2-0.4c-4.4,0-7.6,0.9-9.8,2.6c-2.2,1.8-3.2,4.3-3.2,7.6c0,3.1,0.8,5.4,2.4,7C52.7,121.2,55,122,58,122z
	 M110.8,129.1c-1.2,0-2-0.2-2.5-0.7c-0.5-0.4-1-1.3-1.4-2.6L91.5,75c-0.4-1.3-0.6-2.2-0.6-2.6c0-1.1,0.5-1.6,1.6-1.6h6.4
	c1.2,0,2.1,0.2,2.6,0.7c0.5,0.4,0.9,1.3,1.3,2.6l11.1,43.6l10.2-43.8c0.3-1.3,0.7-2.2,1.2-2.6s1.4-0.7,2.6-0.7h5.3
	c1.2,0,2.1,0.2,2.6,0.7c0.5,0.4,1,1.3,1.2,2.6l10.4,44.1l11.4-44.1c0.4-1.3,0.9-2.2,1.3-2.6c0.5-0.4,1.4-0.7,2.6-0.7h6.1
	c1.1,0,1.6,0.5,1.6,1.6c0,0.3-0.1,0.7-0.1,1.1c-0.1,0.4-0.2,0.9-0.5,1.6l-15.9,50.9c-0.4,1.3-0.9,2.2-1.4,2.6
	c-0.5,0.4-1.4,0.7-2.5,0.7h-5.7c-1.2,0-2.1-0.2-2.6-0.7s-1-1.3-1.2-2.6l-10.2-42.4l-10.1,42.4c-0.3,1.3-0.7,2.2-1.2,2.6
	c-0.5,0.5-1.4,0.7-2.6,0.7L110.8,129.1L110.8,129.1z M195.4,130.8c-3.4,0-6.8-0.4-10.1-1.2s-5.9-1.6-7.6-2.6c-1.1-0.6-1.8-1.2-2-1.8
	c-0.3-0.6-0.4-1.2-0.4-1.8V120c0-1.4,0.5-2,1.5-2c0.4,0,0.8,0.1,1.2,0.2s1,0.4,1.6,0.7c2.2,1,4.7,1.8,7.2,2.3
	c2.6,0.5,5.2,0.8,7.8,0.8c4.1,0,7.4-0.7,9.6-2.2c2.2-1.4,3.4-3.6,3.4-6.2c0-1.8-0.6-3.4-1.8-4.6s-3.4-2.4-6.6-3.4l-9.5-3
	c-4.8-1.5-8.4-3.8-10.5-6.7c-2.2-2.9-3.3-6.1-3.3-9.5c0-2.8,0.6-5.2,1.8-7.3c1.2-2.1,2.8-3.9,4.7-5.4c2-1.5,4.2-2.6,6.8-3.4
	s5.4-1.1,8.3-1.1c1.4,0,3,0.1,4.4,0.3c1.5,0.2,2.9,0.5,4.3,0.7c1.3,0.3,2.6,0.7,3.8,1.1s2.1,0.8,2.8,1.2c0.9,0.5,1.6,1.1,2,1.6
	s0.6,1.2,0.6,2.2v3.1c0,1.4-0.5,2.1-1.5,2.1c-0.5,0-1.4-0.3-2.5-0.8c-3.8-1.7-8-2.6-12.6-2.6c-3.8,0-6.7,0.6-8.8,1.8
	c-2,1.2-3.1,3.2-3.1,5.9c0,1.8,0.7,3.4,2,4.7c1.3,1.2,3.8,2.5,7.2,3.6l9.3,3c4.7,1.5,8.2,3.6,10.2,6.3c2,2.7,3,5.8,3,9.2
	c0,2.8-0.6,5.4-1.7,7.6c-1.2,2.2-2.8,4.2-4.8,5.8c-2,1.6-4.5,2.8-7.3,3.7C201.8,130.4,198.7,130.8,195.4,130.8z"/>
<path class="st3" d="M207.8,162.8c-21.6,16-53.1,24.5-80.1,24.5c-37.9,0-72-14-97.8-37.3c-2-1.8-0.2-4.3,2.2-2.9
	c27.9,16.2,62.3,26,97.9,26c24,0,50.4-5,74.7-15.3C208.2,156.2,211.3,160.2,207.8,162.8z"/>
<path class="st3" d="M216.8,152.6c-2.8-3.6-18.3-1.7-25.3-0.9c-2.1,0.3-2.4-1.6-0.5-3c12.4-8.7,32.7-6.2,35.1-3.3
	c2.4,3-0.7,23.3-12.2,33c-1.8,1.5-3.5,0.7-2.7-1.2C213.7,170.7,219.6,156,216.8,152.6z"/>
</svg>
