<?xml version="1.0" encoding="utf-8"?>
<!-- Generator: Adobe Illustrator 24.3.0, SVG Export Plug-In . SVG Version: 6.00 Build 0)  -->
<svg version="1.1" id="Layer_1" xmlns="http://www.w3.org/2000/svg" xmlns:xlink="http://www.w3.org/1999/xlink" x="0px" y="0px"
	 viewBox="0 0 256 300" style="enable-background:new 0 0 256 300;" xml:space="preserve">
<style type="text/css">
	.st0{display:none;fill:#0D1117;}
	.st1{fill:#FFFFFF;}
	.st2{fill:#0D1117;}
	.st3{fill:#330000;}
	.st4{fill:#FF9A00;}
	.st5{fill:#242938;}
	.st6{fill-rule:evenodd;clip-rule:evenodd;fill:#242938;}
	.st7{fill-rule:evenodd;clip-rule:evenodd;fill:#FFFFFF;}
	.st8{fill-rule:evenodd;clip-rule:evenodd;fill:#47B353;}
	.st9{fill:#ECEFF1;}
	.st10{fill:#263238;}
	.st11{fill:#212121;}
	.st12{fill:#FFC107;}
	.st13{fill:#634703;}
	.st14{fill:#455A64;}
	.st15{fill:#F03C2E;}
	.st16{clip-path:url(#SVGID_2_);}
	.st17{fill:#0277BD;}
	.st18{fill:#EBEBEB;}
	.st19{fill:#E14E1D;}
	.st20{clip-path:url(#SVGID_4_);}
	.st21{fill:#0ACF83;}
	.st22{fill:#A259FF;}
	.st23{fill:#F24E1E;}
	.st24{fill:#FF7262;}
	.st25{fill:#1ABCFE;}
	.st26{fill:#F0DB4F;}
	.st27{fill:#323330;}
	.st28{fill:#00D8FF;}
	.st29{fill:none;stroke:#00D8FF;stroke-width:8.911;}
	.st30{fill:#764ABC;}
	.st31{fill:#81CD39;}
	.st32{fill:#99424F;}
	.st33{fill:url(#SVGID_5_);}
	.st34{fill:url(#SVGID_6_);}
	.st35{fill:none;stroke:#FFFFFF;stroke-width:2;}
	.st36{fill:#2489CA;}
	.st37{fill:#1070B3;}
	.st38{fill:#0877B9;}
	.st39{fill:#3C99D4;}
	.st40{clip-path:url(#SVGID_8_);}
	.st41{fill:#023430;}
	.st42{fill:#10AA50;}
	.st43{fill:#B8C4C2;}
	.st44{fill:#12924F;}
	.st45{fill:#F58219;}
	.st46{fill:#2396ED;}
	.st47{fill:#007ACC;}
	.st48{fill:url(#SVGID_9_);}
	.st49{fill:url(#SVGID_10_);}
	.st50{fill:#001E36;}
	.st51{fill:#31A8FF;}
	.st52{fill:#E43717;}
	.st53{clip-path:url(#SVGID_12_);}
	.st54{fill-rule:evenodd;clip-rule:evenodd;fill:url(#SVGID_13_);}
	.st55{fill-rule:evenodd;clip-rule:evenodd;fill:url(#SVGID_14_);}
	.st56{fill-rule:evenodd;clip-rule:evenodd;fill:url(#SVGID_15_);}
	.st57{fill-rule:evenodd;clip-rule:evenodd;fill:url(#SVGID_16_);}
	.st58{fill-rule:evenodd;clip-rule:evenodd;fill:url(#SVGID_17_);}
	.st59{fill-rule:evenodd;clip-rule:evenodd;fill:url(#SVGID_18_);}
	.st60{fill-rule:evenodd;clip-rule:evenodd;fill:url(#SVGID_19_);}
	.st61{fill-rule:evenodd;clip-rule:evenodd;fill:url(#SVGID_20_);}
	.st62{fill-rule:evenodd;clip-rule:evenodd;fill:url(#SVGID_21_);}
	.st63{fill-rule:evenodd;clip-rule:evenodd;fill:url(#SVGID_22_);}
	.st64{fill-rule:evenodd;clip-rule:evenodd;fill:url(#SVGID_23_);}
	.st65{fill-rule:evenodd;clip-rule:evenodd;fill:url(#SVGID_24_);}
	.st66{fill-rule:evenodd;clip-rule:evenodd;fill:#9E1209;}
	.st67{fill-rule:evenodd;clip-rule:evenodd;fill:url(#SVGID_25_);}
	.st68{fill-rule:evenodd;clip-rule:evenodd;fill:url(#SVGID_26_);}
	.st69{fill-rule:evenodd;clip-rule:evenodd;fill:url(#SVGID_27_);}
	.st70{fill-rule:evenodd;clip-rule:evenodd;fill:url(#SVGID_28_);}
	.st71{fill:#092E20;}
	.st72{fill-rule:evenodd;clip-rule:evenodd;fill:#FF9900;}
	.st73{fill:#E23237;}
	.st74{fill:#B52E31;}
	.st75{fill:#2F406A;}
	.st76{fill:#2379BD;}
	.st77{fill:#03AFEF;}
	.st78{fill:#953CAD;}
</style>
<g>
	<rect y="162.6" class="st1" width="256" height="137.4"/>
	<g>
		<path class="st2" d="M65.3,291.2c0.1,0.2,0.1,0.4,0.1,0.5c0,0.2-0.1,0.4-0.2,0.6s-0.3,0.2-0.5,0.2h-3.9c-0.4,0-0.6-0.1-0.8-0.3
			c-0.2-0.2-0.3-0.4-0.4-0.6l-0.9-3h-8.3l-0.9,3c-0.1,0.2-0.2,0.4-0.4,0.6s-0.5,0.3-0.8,0.3h-3.9c-0.2,0-0.3-0.1-0.5-0.2
			s-0.2-0.3-0.2-0.6c0-0.1,0-0.3,0.1-0.5l6.8-22.5c0.1-0.3,0.3-0.6,0.5-0.8c0.2-0.2,0.5-0.3,0.9-0.3h5c0.4,0,0.7,0.1,0.9,0.3
			c0.2,0.2,0.4,0.5,0.5,0.8L65.3,291.2z M57.1,283.1l-2.5-8.6l-2.5,8.6H57.1z"/>
		<path class="st2" d="M83.6,292.2c-0.2-0.2-0.4-0.4-0.5-0.6L76,279.4v12.1c0,0.3-0.1,0.5-0.2,0.7c-0.2,0.2-0.4,0.3-0.6,0.3h-4.1
			c-0.2,0-0.4-0.1-0.6-0.3c-0.2-0.2-0.2-0.4-0.2-0.7v-23.1c0-0.3,0.1-0.5,0.2-0.7c0.2-0.2,0.4-0.3,0.6-0.3h3.2
			c0.3,0,0.6,0.1,0.8,0.3c0.2,0.2,0.4,0.4,0.5,0.6l7.1,12.2v-12.1c0-0.3,0.1-0.5,0.2-0.7c0.2-0.2,0.4-0.3,0.6-0.3h4.1
			c0.2,0,0.4,0.1,0.6,0.3c0.2,0.2,0.2,0.4,0.2,0.7v23.1c0,0.3-0.1,0.5-0.2,0.7c-0.2,0.2-0.4,0.3-0.6,0.3h-3.2
			C84.1,292.5,83.9,292.4,83.6,292.2z"/>
		<path class="st2" d="M100.2,279.7c0,1.5,0,2.6,0.1,3.3c0.1,1.2,0.4,2.2,1.1,3c0.6,0.8,1.6,1.2,2.9,1.2c1.2,0,2.1-0.3,2.8-0.9
			s1.1-1.6,1.1-3h-2.6c-0.2,0-0.4-0.1-0.6-0.3c-0.2-0.2-0.2-0.4-0.2-0.7v-3.8c0-0.3,0.1-0.5,0.2-0.7c0.2-0.2,0.4-0.3,0.6-0.3h7.5
			c0.2,0,0.4,0.1,0.6,0.3c0.2,0.2,0.2,0.4,0.2,0.7v4.6c0,2-0.4,3.7-1.3,5.2c-0.8,1.5-2,2.6-3.5,3.4s-3.1,1.2-4.9,1.2
			c-1.9,0-3.6-0.4-5-1.3s-2.5-2-3.3-3.5s-1.2-3.1-1.3-4.9c0-1.1-0.1-2.1-0.1-2.8c0-0.9,0-2.1,0.1-3.5c0.1-1.8,0.5-3.4,1.3-4.9
			s1.9-2.6,3.3-3.5c1.4-0.9,3.1-1.3,5-1.3c1.8,0,3.5,0.4,4.9,1.2s2.5,1.8,3.3,3s1.2,2.4,1.3,3.5c0,0.2,0,0.4-0.2,0.6
			c-0.1,0.2-0.3,0.2-0.5,0.2h-4.1c-0.3,0-0.5-0.1-0.6-0.2s-0.4-0.4-0.6-0.7c-0.4-0.5-0.8-0.9-1.3-1.3c-0.5-0.3-1.2-0.5-2.1-0.5
			c-2.3,0-3.6,1.4-3.9,4.2C100.2,277.5,100.2,278.5,100.2,279.7z"/>
		<path class="st2" d="M138.1,267.7c0.2,0.2,0.2,0.4,0.2,0.7v14.3c0,2.1-0.4,4-1.2,5.5s-1.9,2.7-3.3,3.5c-1.4,0.8-3.1,1.2-5,1.2
			s-3.6-0.4-5-1.2s-2.5-1.9-3.3-3.5c-0.8-1.5-1.2-3.4-1.2-5.5v-14.3c0-0.3,0.1-0.5,0.2-0.7c0.2-0.2,0.4-0.3,0.6-0.3h4.1
			c0.2,0,0.4,0.1,0.6,0.3c0.2,0.2,0.2,0.4,0.2,0.7v14.1c0,1.5,0.3,2.6,0.9,3.4s1.5,1.2,2.7,1.2s2.1-0.4,2.7-1.2s0.9-1.9,0.9-3.4
			v-14.1c0-0.3,0.1-0.5,0.2-0.7c0.2-0.2,0.4-0.3,0.6-0.3h4.1C137.8,267.5,138,267.6,138.1,267.7z"/>
		<path class="st2" d="M160.7,287.1c0.2,0.2,0.2,0.4,0.2,0.7v3.8c0,0.3-0.1,0.5-0.2,0.7c-0.2,0.2-0.4,0.3-0.6,0.3h-14.4
			c-0.2,0-0.4-0.1-0.6-0.3c-0.2-0.2-0.2-0.4-0.2-0.7v-23.1c0-0.3,0.1-0.5,0.2-0.7c0.2-0.2,0.4-0.3,0.6-0.3h4.1
			c0.2,0,0.4,0.1,0.6,0.3c0.2,0.2,0.2,0.4,0.2,0.7v18.4h9.5C160.3,286.8,160.5,286.9,160.7,287.1z"/>
		<path class="st2" d="M185.6,291.2c0.1,0.2,0.1,0.4,0.1,0.5c0,0.2-0.1,0.4-0.2,0.6s-0.3,0.2-0.5,0.2h-3.9c-0.4,0-0.6-0.1-0.8-0.3
			c-0.2-0.2-0.3-0.4-0.4-0.6l-0.9-3h-8.3l-0.9,3c-0.1,0.2-0.2,0.4-0.4,0.6c-0.2,0.2-0.5,0.3-0.8,0.3h-3.9c-0.2,0-0.3-0.1-0.5-0.2
			s-0.2-0.3-0.2-0.6c0-0.1,0-0.3,0.1-0.5l6.8-22.5c0.1-0.3,0.3-0.6,0.5-0.8c0.2-0.2,0.5-0.3,0.9-0.3h5c0.4,0,0.7,0.1,0.9,0.3
			c0.2,0.2,0.4,0.5,0.5,0.8L185.6,291.2z M177.5,283.1l-2.5-8.6l-2.5,8.6H177.5z"/>
		<path class="st2" d="M206.4,269.5c1.5,1.4,2.3,3.4,2.3,6.1c0,3.5-1.2,5.8-3.7,7.2l3.8,8.5c0.1,0.1,0.1,0.3,0.1,0.4
			c0,0.2-0.1,0.4-0.2,0.6s-0.3,0.2-0.5,0.2H204c-0.4,0-0.7-0.1-0.8-0.3c-0.2-0.2-0.3-0.4-0.5-0.7l-3.4-7.7h-2.9v7.7
			c0,0.3-0.1,0.5-0.2,0.7c-0.2,0.2-0.4,0.3-0.6,0.3h-4.1c-0.2,0-0.4-0.1-0.6-0.3c-0.2-0.2-0.2-0.4-0.2-0.7v-23.1
			c0-0.3,0.1-0.5,0.2-0.7c0.2-0.2,0.4-0.3,0.6-0.3h8.4C202.7,267.5,204.8,268.1,206.4,269.5z M199.9,278.3c2,0,3-0.9,3-2.6
			s-1-2.6-3-2.6h-3.5v5.3L199.9,278.3L199.9,278.3z"/>
	</g>
	<path class="st5" d="M60,0h136c33.1,0,60,26.9,60,60v136c0,33.1-26.9,60-60,60H60c-33.1,0-60-26.9-60-60V60C0,26.9,26.8,0,60,0z"/>
	<path class="st73" d="M34.2,61.1L127.3,28l95.5,32.6l-15.4,123.1L127.3,228l-78.8-43.7L34.2,61.1z"/>
	<path class="st74" d="M222.8,60.6L127.3,28v200l80.1-44.3L222.8,60.6z"/>
	<path class="st1" d="M127.4,51.4l-58,129L91,180l11.7-29.1h51.9l12.7,29.4l20.6,0.4L127.4,51.4z M127.6,92.8l19.6,41h-36.7
		L127.6,92.8L127.6,92.8z"/>
</g>
</svg>
