<?xml version="1.0" encoding="utf-8"?>
<!-- Generator: Adobe Illustrator 24.3.0, SVG Export Plug-In . SVG Version: 6.00 Build 0)  -->
<svg version="1.1" id="Layer_1" xmlns="http://www.w3.org/2000/svg" xmlns:xlink="http://www.w3.org/1999/xlink" x="0px" y="0px"
	 viewBox="0 0 256 300" style="enable-background:new 0 0 256 300;" xml:space="preserve">
<style type="text/css">
	.st0{fill:#FFFFFF;}
	.st1{fill:#0D1117;}
	.st2{fill:#330000;}
	.st3{fill:#FF9A00;}
</style>
<path class="st0" d="M27.5,162.6h201c15.2,0,27.5,12.3,27.5,27.5v82.4c0,15.2-12.3,27.5-27.5,27.5h-201C12.3,300,0,287.7,0,272.5
	v-82.4C0,174.9,12.3,162.6,27.5,162.6z"/>
<g>
	<path class="st1" d="M9.9,292.1c-0.2-0.2-0.2-0.4-0.2-0.7v-23.1c0-0.3,0.1-0.5,0.2-0.7c0.2-0.2,0.4-0.3,0.6-0.3h4.1
		c0.2,0,0.4,0.1,0.6,0.3c0.2,0.2,0.2,0.4,0.2,0.7v23.1c0,0.3-0.1,0.5-0.2,0.7c-0.2,0.2-0.4,0.3-0.6,0.3h-4.1
		C10.2,292.5,10,292.4,9.9,292.1z"/>
	<path class="st1" d="M37.9,287c0.2,0.2,0.2,0.4,0.2,0.7v3.8c0,0.3-0.1,0.5-0.2,0.7c-0.2,0.2-0.4,0.3-0.6,0.3H22.9
		c-0.2,0-0.4-0.1-0.6-0.3c-0.2-0.2-0.2-0.4-0.2-0.7v-23.1c0-0.3,0.1-0.5,0.2-0.7c0.2-0.2,0.4-0.3,0.6-0.3H27c0.2,0,0.4,0.1,0.6,0.3
		c0.2,0.2,0.2,0.4,0.2,0.7v18.4h9.5C37.5,286.8,37.7,286.9,37.9,287z"/>
	<path class="st1" d="M58.6,287c0.2,0.2,0.2,0.4,0.2,0.7v3.8c0,0.3-0.1,0.5-0.2,0.7c-0.2,0.2-0.4,0.3-0.6,0.3H43.6
		c-0.2,0-0.4-0.1-0.6-0.3c-0.2-0.2-0.2-0.4-0.2-0.7v-23.1c0-0.3,0.1-0.5,0.2-0.7c0.2-0.2,0.4-0.3,0.6-0.3h4.1c0.2,0,0.4,0.1,0.6,0.3
		c0.2,0.2,0.2,0.4,0.2,0.7v18.4H58C58.2,286.8,58.4,286.9,58.6,287z"/>
	<path class="st1" d="M82.3,267.8c0.2,0.2,0.2,0.4,0.2,0.7v14.3c0,2.1-0.4,4-1.2,5.5s-1.9,2.7-3.3,3.5s-3.1,1.2-5,1.2
		s-3.6-0.4-5-1.2s-2.5-1.9-3.3-3.5c-0.8-1.5-1.2-3.4-1.2-5.5v-14.3c0-0.3,0.1-0.5,0.2-0.7c0.2-0.2,0.4-0.3,0.6-0.3h4.1
		c0.2,0,0.4,0.1,0.6,0.3c0.2,0.2,0.2,0.4,0.2,0.7v14.1c0,1.5,0.3,2.6,0.9,3.4s1.5,1.2,2.7,1.2s2.1-0.4,2.7-1.2
		c0.6-0.8,0.9-1.9,0.9-3.4v-14.1c0-0.3,0.1-0.5,0.2-0.7c0.2-0.2,0.4-0.3,0.6-0.3h4.1C81.9,267.5,82.1,267.5,82.3,267.8z"/>
	<path class="st1" d="M105.8,274.6c-0.1,0.2-0.3,0.2-0.5,0.2h-4.1c-0.3,0-0.5,0-0.7-0.1s-0.4-0.2-0.6-0.4c0,0-0.2-0.2-0.4-0.5
		s-0.6-0.5-1.1-0.7s-1.1-0.3-1.7-0.3c-0.9,0-1.6,0.1-2.2,0.4s-0.9,0.7-0.9,1.4c0,0.5,0.2,0.9,0.5,1.1c0.4,0.3,0.9,0.5,1.6,0.7
		s2,0.5,3.8,1c2.3,0.5,4.1,1.4,5.2,2.6s1.6,2.8,1.6,5c0,1.6-0.4,3-1.2,4.1c-0.8,1.2-2,2.1-3.4,2.7s-3.1,0.9-5,0.9
		c-1.8,0-3.4-0.4-4.8-1.1s-2.6-1.6-3.4-2.8c-0.8-1.1-1.3-2.3-1.3-3.5c0-0.2,0.1-0.4,0.2-0.6s0.3-0.2,0.4-0.2h4.1
		c0.5,0,0.8,0.2,1.2,0.5c0.1,0.1,0.2,0.3,0.5,0.6c0.3,0.3,0.7,0.7,1.2,0.9c0.5,0.3,1.2,0.4,1.9,0.4c2.6,0,3.8-0.6,3.8-1.9
		c0-0.4-0.2-0.7-0.5-1c-0.4-0.3-0.9-0.5-1.5-0.7c-0.7-0.2-1.7-0.5-3.2-0.8l-1.4-0.3c-2.1-0.5-3.7-1.4-4.7-2.6s-1.5-2.9-1.5-4.9
		c0-1.4,0.4-2.7,1.1-3.8c0.7-1.2,1.8-2.1,3.1-2.8c1.3-0.7,2.9-1.1,4.6-1.1s3.2,0.4,4.6,1.1s2.5,1.6,3.3,2.7s1.2,2.2,1.3,3.2
		C106,274.4,106,274.5,105.8,274.6z"/>
	<path class="st1" d="M128.7,267.8c0.2,0.2,0.2,0.4,0.2,0.7v3.8c0,0.3-0.1,0.5-0.2,0.7c-0.2,0.2-0.4,0.3-0.6,0.3h-5.5v18.4
		c0,0.3-0.1,0.5-0.2,0.7c-0.2,0.2-0.4,0.3-0.6,0.3h-4.1c-0.2,0-0.4-0.1-0.6-0.3c-0.2-0.2-0.2-0.4-0.2-0.7v-18.4h-5.5
		c-0.2,0-0.4-0.1-0.6-0.3c-0.2-0.2-0.2-0.4-0.2-0.7v-3.8c0-0.3,0.1-0.5,0.2-0.7c0.2-0.2,0.4-0.3,0.6-0.3h16.7
		C128.3,267.5,128.5,267.5,128.7,267.8z"/>
	<path class="st1" d="M149.7,269.5c1.5,1.4,2.3,3.4,2.3,6.1c0,3.5-1.2,5.8-3.7,7.2l3.8,8.5c0.1,0.1,0.1,0.3,0.1,0.4
		c0,0.2-0.1,0.4-0.2,0.6s-0.3,0.2-0.5,0.2h-4.2c-0.4,0-0.7-0.1-0.8-0.3c-0.2-0.2-0.3-0.4-0.5-0.7l-3.4-7.7h-2.9v7.7
		c0,0.3-0.1,0.5-0.2,0.7c-0.2,0.2-0.4,0.3-0.6,0.3h-4.1c-0.2,0-0.4-0.1-0.6-0.3c-0.2-0.2-0.2-0.4-0.2-0.7v-23.1
		c0-0.3,0.1-0.5,0.2-0.7c0.2-0.2,0.4-0.3,0.6-0.3h8.4C146,267.5,148.1,268.1,149.7,269.5z M143.2,278.3c2,0,3-0.9,3-2.6
		s-1-2.6-3-2.6h-3.5v5.3L143.2,278.3L143.2,278.3z"/>
	<path class="st1" d="M175.4,291.1c0.1,0.2,0.1,0.4,0.1,0.5c0,0.2-0.1,0.4-0.2,0.6c-0.1,0.2-0.3,0.2-0.5,0.2h-3.9
		c-0.4,0-0.6-0.1-0.8-0.3c-0.2-0.2-0.3-0.4-0.4-0.6l-0.9-3h-8.3l-0.9,3c-0.1,0.2-0.2,0.4-0.4,0.6s-0.5,0.3-0.8,0.3h-3.9
		c-0.2,0-0.3-0.1-0.5-0.2s-0.2-0.3-0.2-0.6c0-0.1,0-0.3,0.1-0.5l6.8-22.5c0.1-0.3,0.3-0.6,0.5-0.8c0.2-0.2,0.5-0.3,0.9-0.3h5
		c0.4,0,0.7,0.1,0.9,0.3c0.2,0.2,0.4,0.5,0.5,0.8L175.4,291.1z M167.2,283l-2.5-8.6l-2.5,8.6H167.2z"/>
	<path class="st1" d="M196.6,267.8c0.2,0.2,0.2,0.4,0.2,0.7v3.8c0,0.3-0.1,0.5-0.2,0.7c-0.2,0.2-0.4,0.3-0.6,0.3h-5.5v18.4
		c0,0.3-0.1,0.5-0.2,0.7c-0.2,0.2-0.4,0.3-0.6,0.3h-4.1c-0.2,0-0.4-0.1-0.6-0.3c-0.2-0.2-0.2-0.4-0.2-0.7v-18.4h-5.5
		c-0.2,0-0.4-0.1-0.6-0.3c-0.2-0.2-0.2-0.4-0.2-0.7v-3.8c0-0.3,0.1-0.5,0.2-0.7c0.2-0.2,0.4-0.3,0.6-0.3H196
		C196.2,267.5,196.4,267.5,196.6,267.8z"/>
	<path class="st1" d="M216.1,268.4c1.4,0.9,2.5,2,3.3,3.5s1.2,3.1,1.3,4.9c0,0.7,0.1,1.7,0.1,3.2s0,2.5-0.1,3.1
		c-0.1,1.8-0.5,3.5-1.3,4.9c-0.8,1.5-1.9,2.6-3.3,3.5s-3.1,1.3-5.1,1.3s-3.7-0.4-5.1-1.3s-2.5-2-3.3-3.5s-1.2-3.1-1.3-4.9
		c0-1.3-0.1-2.3-0.1-3.1c0-0.8,0-1.9,0.1-3.2c0.1-1.8,0.5-3.5,1.3-4.9c0.8-1.5,1.9-2.6,3.3-3.5s3.1-1.3,5.1-1.3
		S214.7,267.5,216.1,268.4z M213.8,274c-0.7-0.8-1.6-1.1-2.8-1.1s-2.2,0.4-2.8,1.1c-0.7,0.8-1,1.8-1.1,3c-0.1,0.8-0.1,1.8-0.1,3
		s0,2.2,0.1,3c0.1,1.3,0.5,2.3,1.1,3c0.7,0.8,1.6,1.1,2.8,1.1s2.2-0.4,2.8-1.1c0.7-0.8,1-1.8,1.1-3c0.1-0.9,0.1-1.9,0.1-3
		c0-1.2,0-2.2-0.1-3C214.8,275.6,214.5,274.6,213.8,274z"/>
	<path class="st1" d="M242.4,269.5c1.5,1.4,2.3,3.4,2.3,6.1c0,3.5-1.2,5.8-3.7,7.2l3.8,8.5c0.1,0.1,0.1,0.3,0.1,0.4
		c0,0.2-0.1,0.4-0.2,0.6c-0.1,0.2-0.3,0.2-0.5,0.2H240c-0.4,0-0.7-0.1-0.8-0.3c-0.2-0.2-0.3-0.4-0.5-0.7l-3.4-7.7h-2.9v7.7
		c0,0.3-0.1,0.5-0.2,0.7c-0.2,0.2-0.4,0.3-0.6,0.3h-4.1c-0.2,0-0.4-0.1-0.6-0.3c-0.2-0.2-0.2-0.4-0.2-0.7v-23.1
		c0-0.3,0.1-0.5,0.2-0.7c0.2-0.2,0.4-0.3,0.6-0.3h8.4C238.7,267.5,240.9,268.1,242.4,269.5z M236,278.3c2,0,3-0.9,3-2.6
		s-1-2.6-3-2.6h-3.5v5.3L236,278.3L236,278.3z"/>
</g>
<path class="st2" d="M60,0h136c33.1,0,60,26.9,60,60v136c0,33.1-26.9,60-60,60H60c-33.1,0-60-27-60-60V60C0,26.9,26.8,0,60,0z"/>
<path class="st3" d="M123.7,152.4H84l-8.1,25.1c-0.2,1-1.1,1.6-2,1.5H53.8c-1.2,0-1.5-0.6-1.2-1.9l34.3-98.9
	c0.3-1.1,0.6-2.2,1.1-3.5c0.4-2.2,0.6-4.6,0.6-6.9c-0.1-0.5,0.3-1.1,0.9-1.2h0.3h27.3c0.9,0,1.3,0.3,1.4,0.9l38.9,109.9
	c0.3,1.2,0,1.7-1.1,1.7H134c-0.7,0.1-1.5-0.4-1.7-1.2L123.7,152.4L123.7,152.4z M90.2,130.6h27.1c-0.6-2.2-1.5-4.9-2.5-7.7
	c-1-2.9-1.9-6-2.9-9.2c-1.1-3.3-2-6.5-3.1-9.8s-2-6.4-2.9-9.5c-0.9-3-1.6-5.8-2.3-8.3h-0.2c-1,4.6-2.1,9.2-3.6,13.8
	c-1.6,5.1-3.2,10.5-4.9,15.8C93.4,121.1,91.8,126.1,90.2,130.6L90.2,130.6z"/>
<path class="st3" d="M181.3,85.1c-3.5,0.1-6.9-1.3-9.5-3.7c-2.5-2.7-3.7-6.2-3.6-9.8c-0.1-3.6,1.3-7,3.8-9.5c2.6-2.5,6-3.7,9.5-3.7
	c4.2,0,7.4,1.3,9.7,3.7c2.3,2.6,3.6,6,3.5,9.5c0.1,3.6-1.2,7.1-3.7,9.8C188.6,84,184.9,85.4,181.3,85.1z M169.4,177.6V95.5
	c0-1.1,0.4-1.5,1.4-1.5h21.1c1,0,1.4,0.5,1.4,1.5v82.1c0,1.2-0.4,1.7-1.4,1.7H171C169.9,179.4,169.4,178.8,169.4,177.6L169.4,177.6z
	"/>
</svg>
