<?xml version="1.0" encoding="utf-8"?>
<!-- Generator: Adobe Illustrator 24.3.0, SVG Export Plug-In . SVG Version: 6.00 Build 0)  -->
<svg version="1.1" id="Layer_1" xmlns="http://www.w3.org/2000/svg" xmlns:xlink="http://www.w3.org/1999/xlink" x="0px" y="0px"
	 viewBox="0 0 256 300" style="enable-background:new 0 0 256 300;" xml:space="preserve">
<style type="text/css">
	.st0{fill:#FFFFFF;}
	.st1{fill:#0D1117;}
	.st2{fill:#242938;}
	.st3{fill-rule:evenodd;clip-rule:evenodd;fill:#242938;}
	.st4{fill-rule:evenodd;clip-rule:evenodd;fill:#FFFFFF;}
	.st5{fill-rule:evenodd;clip-rule:evenodd;fill:#47B353;}
</style>
<path class="st0" d="M27.5,162.6h201c15.2,0,27.5,12.3,27.5,27.5v82.4c0,15.2-12.3,27.5-27.5,27.5h-201C12.3,300,0,287.7,0,272.5
	v-82.4C0,174.9,12.3,162.6,27.5,162.6z"/>
<g>
	<path class="st1" d="M81.6,292.2c-0.2-0.2-0.2-0.4-0.2-0.7v-23.1c0-0.3,0.1-0.5,0.2-0.7c0.2-0.2,0.4-0.3,0.6-0.3h10
		c1.8,0,3.2,0.4,4.3,1.1c1.1,0.7,1.9,1.6,2.4,2.7s0.7,2.3,0.7,3.6c0,1.1-0.2,2.1-0.4,2.8c0,0.1-0.1,0.2-0.1,0.3
		c-0.1,0.1-0.1,0.3-0.2,0.4c-0.4,0.7-0.4,1.5,0.1,2.2c0.2,0.3,0.5,0.7,0.6,1c0,0.1,0.1,0.2,0.1,0.3c0.3,0.8,0.5,1.8,0.5,3
		c0,2.2-0.6,4.1-1.7,5.5c-1.2,1.5-3,2.2-5.4,2.2H82.4C81.9,292.5,81.8,292.4,81.6,292.2z M87.1,273v2.2c0,1,0.8,1.9,1.9,1.9h2.9
		c0.1,0,0.3,0,0.4,0c0.7-0.1,1.3-0.7,1.5-1.5c0-0.2,0.1-0.3,0.1-0.5c0-0.6-0.2-1.1-0.5-1.5s-0.8-0.5-1.4-0.5L87.1,273L87.1,273z
		 M92.2,286.9c0.6,0,1.1-0.2,1.5-0.6s0.6-0.9,0.6-1.6c0-0.6-0.2-1.2-0.6-1.6s-0.9-0.6-1.5-0.6H89c-1,0-1.9,0.8-1.9,1.9v0.6
		c0,1,0.8,1.9,1.9,1.9L92.2,286.9L92.2,286.9z"/>
	<path class="st1" d="M125.1,291.1c0.1,0.2,0.1,0.4,0.1,0.5c0,0.2-0.1,0.4-0.2,0.6s-0.3,0.2-0.5,0.2h-3.9c-0.4,0-0.6-0.1-0.8-0.3
		s-0.3-0.4-0.4-0.6l-0.5-1.7c-0.2-0.8-1-1.3-1.8-1.3h-5.5c-0.8,0-1.6,0.5-1.8,1.3l-0.5,1.7c-0.1,0.2-0.2,0.4-0.4,0.6
		s-0.5,0.3-0.8,0.3h-3.9c-0.2,0-0.3-0.1-0.5-0.2s-0.2-0.3-0.2-0.6c0-0.1,0-0.3,0.1-0.5l6.8-22.5c0.1-0.3,0.3-0.6,0.5-0.8
		s0.5-0.3,0.9-0.3h5c0.4,0,0.7,0.1,0.9,0.3s0.4,0.5,0.5,0.8L125.1,291.1z M116.2,280.7L116.2,280.7c-0.5-1.8-3.1-1.8-3.6,0h0
		c-0.3,1.2,0.6,2.4,1.8,2.4l0,0C115.7,283.1,116.6,281.9,116.2,280.7z"/>
	<path class="st1" d="M147.1,274.7c-0.1,0.2-0.3,0.2-0.5,0.2h-4.1c-0.3,0-0.5,0-0.7-0.1s-0.4-0.2-0.6-0.4c0,0-0.2-0.2-0.4-0.5
		s-0.6-0.5-1.1-0.7s-1.1-0.3-1.7-0.3c-0.9,0-1.6,0.1-2.2,0.4s-0.9,0.7-0.9,1.4c0,0.5,0.2,0.9,0.5,1.1c0.4,0.3,0.9,0.5,1.6,0.7
		c0.7,0.2,2,0.5,3.8,1c2.3,0.5,4.1,1.4,5.2,2.6s1.6,2.8,1.6,5c0,1.6-0.4,3-1.2,4.1c-0.8,1.2-2,2.1-3.4,2.7s-3.1,0.9-5,0.9
		c-1.8,0-3.4-0.4-4.8-1.1c-1.4-0.7-2.6-1.6-3.4-2.8c-0.8-1.1-1.3-2.3-1.3-3.5c0-0.2,0.1-0.4,0.2-0.6c0.1-0.2,0.3-0.2,0.4-0.2h4.1
		c0.5,0,0.8,0.2,1.2,0.5c0.1,0.1,0.2,0.3,0.5,0.6s0.7,0.7,1.2,0.9c0.5,0.3,1.2,0.4,1.9,0.4c2.6,0,3.8-0.6,3.8-1.9
		c0-0.4-0.2-0.7-0.5-1s-0.9-0.5-1.5-0.7c-0.7-0.2-1.7-0.5-3.2-0.8l-1.4-0.3c-2.1-0.5-3.7-1.4-4.7-2.6s-1.5-2.9-1.5-4.9
		c0-1.4,0.4-2.7,1.1-3.8c0.7-1.2,1.8-2.1,3.1-2.8s2.9-1.1,4.6-1.1c1.7,0,3.2,0.4,4.6,1.1c1.4,0.7,2.5,1.6,3.3,2.7s1.2,2.2,1.3,3.2
		C147.3,274.3,147.2,274.5,147.1,274.7z"/>
	<path class="st1" d="M171.5,267.7c0.2,0.2,0.2,0.4,0.2,0.7v23.1c0,0.3-0.1,0.5-0.2,0.7c-0.2,0.2-0.4,0.3-0.6,0.3h-4.1
		c-0.2,0-0.4-0.1-0.6-0.3c-0.2-0.2-0.2-0.4-0.2-0.7v-6.9c0-1-0.8-1.9-1.9-1.9H161c-1,0-1.9,0.8-1.9,1.9v6.9c0,0.3-0.1,0.5-0.2,0.7
		c-0.2,0.2-0.4,0.3-0.6,0.3h-4.1c-0.2,0-0.4-0.1-0.6-0.3s-0.2-0.4-0.2-0.7v-23.1c0-0.3,0.1-0.5,0.2-0.7c0.2-0.2,0.4-0.3,0.6-0.3h4.1
		c0.2,0,0.4,0.1,0.6,0.3c0.2,0.2,0.2,0.4,0.2,0.7v6.7c0,1,0.8,1.9,1.9,1.9h3.1c1,0,1.9-0.8,1.9-1.9v-6.7c0-0.3,0.1-0.5,0.2-0.7
		c0.2-0.2,0.4-0.3,0.6-0.3h4.1C171.2,267.4,171.4,267.5,171.5,267.7z"/>
</g>
<path class="st2" d="M61.9,0h132.2C228.3,0,256,27.7,256,61.9v132.2c0,34.2-27.7,61.9-61.9,61.9H61.9C27.7,256,0,228.3,0,194.1V61.9
	C0,27.7,27.7,0,61.9,0z"/>
<path class="st3" d="M203.8,68.8l-63.1-37.5c-7.5-4.5-16.8-4.5-24.4,0L53.2,68.8C45.7,73.3,41,81.5,41,90.5v75
	c0,8.9,4.6,17.2,12.2,21.7l63.1,37.5c3.8,2.2,8,3.4,12.2,3.4s8.4-1.1,12.2-3.4l63.1-37.5c7.5-4.5,12.2-12.7,12.2-21.7v-75
	C216,81.5,211.3,73.3,203.8,68.8z"/>
<path class="st4" d="M118.5,220.8l-63.1-37.5c-6.2-3.7-10-10.5-10-17.9v-75c0-7.3,3.8-14.2,10-17.9L118.5,35c3-1.8,6.5-2.7,10-2.7
	s6.9,1,10,2.7l63.1,37.5c3.1,1.9,5.6,4.5,7.4,7.6c0.8,1.5-0.5,3.2-2.1,2.7c-2.2-0.6-4.9-0.2-7.8,1.5l-59.7,36.9
	c-7.4,4.4-12.9,9.2-12.9,18.2v73.6c0,5.4,2.2,8.9,5.5,9.9c-1.1,0.2-2.2,0.3-3.3,0.3C125,223.5,121.5,222.6,118.5,220.8z M203.8,68.8
	l-63.1-37.5c-3.8-2.2-8-3.4-12.2-3.4s-8.4,1.1-12.2,3.4L53.2,68.8C45.7,73.3,41,81.5,41,90.5v75c0,8.9,4.6,17.2,12.2,21.7l63.1,37.5
	c3.8,2.2,8,3.4,12.2,3.4s8.4-1.1,12.2-3.4l63.1-37.5c7.5-4.5,12.2-12.7,12.2-21.7v-75C216,81.5,211.3,73.3,203.8,68.8z"/>
<path class="st5" d="M187.2,172.7l-15.7,9.4c-0.4,0.2-0.7,0.5-0.7,1v4.1c0,0.5,0.3,0.7,0.8,0.5l16-9.7c0.4-0.2,0.5-0.7,0.5-1.2v-3.6
	C188,172.7,187.7,172.4,187.2,172.7z"/>
<path class="st3" d="M153.8,138.1c0.5-0.3,0.9,0.1,0.9,0.7l0.1,2.9c0,1.2,1.1,2,2.3,1.8c1.4-0.3,2.6-0.3,3.8,0
	c0.4,0.1,0.6,0.6,0.4,1.3l-1.2,4.8c-0.1,0.4-0.3,0.7-0.5,1c-0.1,0.1-0.2,0.2-0.3,0.2c-0.2,0.1-0.3,0.1-0.5,0.1
	c-0.8-0.2-2.8-0.6-5.8,0.9c-3.2,1.6-4.3,4.4-4.3,6.5c0,2.5,1.3,3.2,5.7,3.3c5.8,0.1,8.4,2.6,8.4,8.5c0.1,5.5-2.7,11.4-7,15.2
	c-0.4,0.4-0.7,0.9-0.7,1.5l0.1,4.5c0,0.6-0.4,1.4-0.9,1.6l-3.2,1.8c-0.5,0.3-0.9-0.1-0.9-0.7l-0.1-2.8c0-1.2-1.2-2.1-2.3-1.8
	c-1.9,0.5-3.7,0.5-5,0c-0.3-0.1-0.5-0.6-0.3-1.2l1.2-4.9c0.1-0.4,0.3-0.8,0.6-1c0.1-0.1,0.2-0.2,0.3-0.2c0.2-0.1,0.4-0.1,0.5-0.1
	c1.9,0.6,4.3,0.3,6.7-0.8c3-1.5,5-4.5,4.9-7.6c0-2.7-1.5-3.9-5.1-3.9c-4.6,0-8.9-0.9-8.9-7.6c-0.1-5.3,2.5-10.7,6.7-14.4
	c0.4-0.4,0.7-0.9,0.7-1.5l-0.1-4.5c0-0.7,0.4-1.4,0.9-1.7L153.8,138.1z"/>
</svg>
