<?xml version="1.0" encoding="utf-8"?>
<!-- Generator: Adobe Illustrator 24.3.0, SVG Export Plug-In . SVG Version: 6.00 Build 0)  -->
<svg version="1.1" id="Layer_1" xmlns="http://www.w3.org/2000/svg" xmlns:xlink="http://www.w3.org/1999/xlink" x="0px" y="0px"
	 viewBox="0 0 256 300" style="enable-background:new 0 0 256 300;" xml:space="preserve">
<style type="text/css">
	.st0{fill:#FFFFFF;}
	.st1{fill:#0D1117;}
	.st2{fill:url(#SVGID_1_);}
	.st3{fill:url(#SVGID_2_);}
	.st4{fill:none;stroke:#FFFFFF;stroke-width:2;}
</style>
<path class="st0" d="M27.5,162.6h201c15.2,0,27.5,12.3,27.5,27.5v82.4c0,15.2-12.3,27.5-27.5,27.5h-201C12.3,300,0,287.7,0,272.5
	v-82.4C0,174.9,12.3,162.6,27.5,162.6z"/>
<path class="st1" d="M24.4,292.2c-0.2-0.2-0.2-0.4-0.2-0.7v-23.1c0-0.3,0.1-0.5,0.2-0.7c0.2-0.2,0.4-0.3,0.6-0.3h10
	c1.8,0,3.2,0.4,4.3,1.1s1.9,1.6,2.4,2.7s0.7,2.3,0.7,3.6c0,1.2-0.2,2.2-0.5,2.9c-0.4,0.7-0.8,1.3-1.2,1.7c0.8,0.6,1.3,1.4,1.7,2.2
	c0.3,0.8,0.5,1.9,0.5,3.1c0,2.2-0.6,4.1-1.7,5.5c-1.2,1.5-3,2.2-5.4,2.2H25.2C24.8,292.5,24.6,292.4,24.4,292.2z M29.9,273v4.1h4.8
	c0.6,0,1.1-0.2,1.4-0.5c0.3-0.4,0.5-0.9,0.5-1.5s-0.2-1.1-0.5-1.5s-0.8-0.5-1.4-0.5L29.9,273L29.9,273z M35,287
	c0.6,0,1.1-0.2,1.5-0.6s0.6-0.9,0.6-1.6c0-0.6-0.2-1.2-0.6-1.6c-0.4-0.4-0.9-0.6-1.5-0.6h-5.1v4.4L35,287L35,287z"/>
<path class="st1" d="M62.7,268.4c1.4,0.9,2.5,2,3.3,3.5s1.2,3.1,1.3,4.9c0,0.7,0.1,1.7,0.1,3.2s0,2.5-0.1,3.1
	c-0.1,1.8-0.5,3.5-1.3,4.9c-0.8,1.5-1.9,2.6-3.3,3.5c-1.4,0.9-3.1,1.3-5.1,1.3s-3.7-0.4-5.1-1.3c-1.4-0.9-2.5-2-3.3-3.5
	s-1.2-3.1-1.3-4.9c0-1.3-0.1-2.3-0.1-3.1c0-0.8,0-1.9,0.1-3.2c0.1-1.8,0.5-3.5,1.3-4.9c0.8-1.5,1.9-2.6,3.3-3.5
	c1.4-0.9,3.1-1.3,5.1-1.3C59.6,267,61.3,267.5,62.7,268.4z M60.4,274c-0.7-0.8-1.6-1.1-2.8-1.1s-2.2,0.4-2.8,1.1s-1,1.8-1.1,3
	c-0.1,0.8-0.1,1.8-0.1,3s0,2.2,0.1,3c0.1,1.3,0.5,2.3,1.1,3s1.6,1.1,2.8,1.1s2.2-0.4,2.8-1.1s1-1.8,1.1-3c0.1-0.9,0.1-1.9,0.1-3
	c0-1.2,0-2.2-0.1-3C61.4,275.7,61.1,274.7,60.4,274z"/>
<path class="st1" d="M87,268.4c1.4,0.9,2.5,2,3.3,3.5s1.2,3.1,1.3,4.9c0,0.7,0.1,1.7,0.1,3.2s0,2.5-0.1,3.1
	c-0.1,1.8-0.5,3.5-1.3,4.9c-0.8,1.5-1.9,2.6-3.3,3.5s-3.1,1.3-5.1,1.3s-3.7-0.4-5.1-1.3s-2.5-2-3.3-3.5s-1.2-3.1-1.3-4.9
	c0-1.3-0.1-2.3-0.1-3.1c0-0.8,0-1.9,0.1-3.2c0.1-1.8,0.5-3.5,1.3-4.9c0.8-1.5,1.9-2.6,3.3-3.5s3.1-1.3,5.1-1.3
	C83.9,267,85.6,267.5,87,268.4z M84.7,274c-0.7-0.8-1.6-1.1-2.8-1.1c-1.2,0-2.2,0.4-2.8,1.1s-1,1.8-1.1,3c-0.1,0.8-0.1,1.8-0.1,3
	s0,2.2,0.1,3c0.1,1.3,0.5,2.3,1.1,3s1.6,1.1,2.8,1.1c1.2,0,2.2-0.4,2.8-1.1s1-1.8,1.1-3c0.1-0.9,0.1-1.9,0.1-3c0-1.2,0-2.2-0.1-3
	C85.7,275.7,85.4,274.7,84.7,274z"/>
<path class="st1" d="M114.2,267.7c0.2,0.2,0.2,0.4,0.2,0.7v3.8c0,0.3-0.1,0.5-0.2,0.7c-0.2,0.2-0.4,0.3-0.6,0.3h-5.5v18.4
	c0,0.3-0.1,0.5-0.2,0.7c-0.2,0.2-0.4,0.3-0.6,0.3h-4.1c-0.2,0-0.4-0.1-0.6-0.3s-0.2-0.4-0.2-0.7v-18.4h-5.5c-0.2,0-0.4-0.1-0.6-0.3
	c-0.2-0.2-0.2-0.4-0.2-0.7v-3.8c0-0.3,0.1-0.5,0.2-0.7c0.2-0.2,0.4-0.3,0.6-0.3h16.7C113.8,267.5,114,267.5,114.2,267.7z"/>
<path class="st1" d="M136.4,274.7c-0.1,0.2-0.3,0.2-0.5,0.2h-4c-0.3,0-0.5,0-0.7-0.1s-0.4-0.2-0.6-0.4c0,0-0.2-0.2-0.4-0.5
	s-0.6-0.5-1.1-0.7s-1-0.3-1.7-0.3c-0.9,0-1.6,0.1-2.2,0.4s-0.9,0.7-0.9,1.4c0,0.5,0.2,0.9,0.5,1.1c0.4,0.3,0.9,0.5,1.6,0.7
	s2,0.5,3.8,1c2.3,0.5,4.1,1.4,5.2,2.6s1.6,2.8,1.6,5c0,1.6-0.4,3-1.2,4.1c-0.8,1.2-2,2.1-3.4,2.7s-3.1,0.9-5,0.9
	c-1.8,0-3.4-0.4-4.8-1.1s-2.6-1.6-3.4-2.8c-0.8-1.1-1.3-2.3-1.3-3.5c0-0.2,0.1-0.4,0.2-0.6s0.3-0.2,0.4-0.2h4.1
	c0.5,0,0.8,0.2,1.2,0.5c0.1,0.1,0.2,0.3,0.5,0.6s0.7,0.7,1.2,0.9c0.5,0.3,1.2,0.4,1.9,0.4c2.6,0,3.8-0.6,3.8-1.9
	c0-0.4-0.2-0.7-0.5-1s-0.9-0.5-1.5-0.7c-0.7-0.2-1.7-0.5-3.2-0.8l-1.4-0.3c-2.1-0.5-3.7-1.4-4.7-2.6s-1.5-2.9-1.5-4.9
	c0-1.4,0.4-2.7,1.1-3.8c0.7-1.2,1.8-2.1,3.1-2.8c1.3-0.7,2.9-1.1,4.6-1.1s3.2,0.4,4.6,1.1s2.5,1.6,3.3,2.7s1.2,2.2,1.3,3.2
	C136.6,274.4,136.5,274.5,136.4,274.7z"/>
<path class="st1" d="M159.2,267.7c0.2,0.2,0.2,0.4,0.2,0.7v3.8c0,0.3-0.1,0.5-0.2,0.7c-0.2,0.2-0.4,0.3-0.6,0.3h-5.5v18.4
	c0,0.3-0.1,0.5-0.2,0.7c-0.2,0.2-0.4,0.3-0.6,0.3h-4.1c-0.2,0-0.4-0.1-0.6-0.3s-0.2-0.4-0.2-0.7v-18.4h-5.5c-0.2,0-0.4-0.1-0.6-0.3
	c-0.2-0.2-0.2-0.4-0.2-0.7v-3.8c0-0.3,0.1-0.5,0.2-0.7c0.2-0.2,0.4-0.3,0.6-0.3h16.7C158.9,267.5,159.1,267.5,159.2,267.7z"/>
<path class="st1" d="M180.2,269.5c1.5,1.4,2.3,3.4,2.3,6.1c0,3.5-1.2,5.8-3.7,7.2l3.8,8.5c0.1,0.1,0.1,0.3,0.1,0.4
	c0,0.2-0.1,0.4-0.2,0.6s-0.3,0.2-0.5,0.2h-4.1c-0.4,0-0.7-0.1-0.8-0.3c-0.2-0.2-0.3-0.4-0.5-0.7l-3.4-7.7h-2.9v7.7
	c0,0.3-0.1,0.5-0.2,0.7c-0.2,0.2-0.4,0.3-0.6,0.3h-4.1c-0.2,0-0.4-0.1-0.6-0.3s-0.2-0.4-0.2-0.7v-23.1c0-0.3,0.1-0.5,0.2-0.7
	c0.2-0.2,0.4-0.3,0.6-0.3h8.4C176.5,267.5,178.7,268,180.2,269.5z M173.8,278.2c2,0,3-0.9,3-2.6s-1-2.6-3-2.6h-3.5v5.3L173.8,278.2
	L173.8,278.2z"/>
<path class="st1" d="M208.1,291.2c0.1,0.2,0.1,0.4,0.1,0.5c0,0.2-0.1,0.4-0.2,0.6s-0.3,0.2-0.5,0.2h-3.9c-0.4,0-0.6-0.1-0.8-0.3
	c-0.2-0.2-0.3-0.4-0.4-0.6l-0.9-3h-8.3l-0.9,3c-0.1,0.2-0.2,0.4-0.4,0.6s-0.5,0.3-0.8,0.3h-3.9c-0.2,0-0.3-0.1-0.5-0.2
	s-0.2-0.3-0.2-0.6c0-0.1,0-0.3,0.1-0.5l6.8-22.5c0.1-0.3,0.3-0.6,0.5-0.8c0.2-0.2,0.5-0.3,0.9-0.3h5c0.4,0,0.7,0.1,0.9,0.3
	c0.2,0.2,0.4,0.5,0.5,0.8L208.1,291.2z M200,283l-2.5-8.6L195,283H200z"/>
<path class="st1" d="M228.5,269.5c1.5,1.4,2.3,3.5,2.3,6.2s-0.8,4.8-2.3,6.3c-1.5,1.4-3.6,2.1-6.3,2.1h-4v7.3c0,0.3-0.1,0.5-0.2,0.7
	c-0.2,0.2-0.4,0.3-0.6,0.3h-4.1c-0.2,0-0.4-0.1-0.6-0.3c-0.2-0.2-0.2-0.4-0.2-0.7v-23.1c0-0.3,0.1-0.5,0.2-0.7
	c0.2-0.2,0.4-0.3,0.6-0.3h8.9C224.9,267.5,227,268.2,228.5,269.5z M222.1,278.7c0.9,0,1.6-0.2,2.2-0.7c0.5-0.5,0.8-1.2,0.8-2.1
	c0-1-0.3-1.7-0.8-2.1c-0.5-0.5-1.3-0.7-2.2-0.7h-3.8v5.7L222.1,278.7L222.1,278.7z"/>
<linearGradient id="SVGID_1_" gradientUnits="userSpaceOnUse" x1="2.182255e-02" y1="-2493.7942" x2="256.0218" y2="-2749.7942" gradientTransform="matrix(1 0 0 -1 0 -2493.8723)">
	<stop  offset="0" style="stop-color:#9013FE"/>
	<stop  offset="1" style="stop-color:#6B11F4"/>
</linearGradient>
<path class="st2" d="M60-0.1h136c33.1,0,60,26.9,60,60v136c0,33.1-26.9,60-60,60H60c-33.1,0-60-26.9-60-60v-136
	C0,26.9,26.8-0.1,60-0.1z"/>
<linearGradient id="SVGID_2_" gradientUnits="userSpaceOnUse" x1="83.0383" y1="-2564.4128" x2="145.7862" y2="-2670.5349" gradientTransform="matrix(1 0 0 -1 0 -2493.8723)">
	<stop  offset="0" style="stop-color:#FFFFFF"/>
	<stop  offset="1" style="stop-color:#F1E5FC"/>
</linearGradient>
<path class="st3" d="M132,196.2c29.7,0,47.6-14.5,47.6-38.5c0-18.1-12.8-31.2-31.7-33.3v-0.8c13.9-2.3,24.8-15.2,24.8-29.6
	c0-20.6-16.2-34-41-34H76v136.2L132,196.2L132,196.2z M97.6,77.2h28.8c15.7,0,24.6,7,24.6,19.6c0,13.5-10.3,21-29.1,21H97.6V77.2
	L97.6,77.2z M97.6,178.9v-44.8h28.6c20.5,0,31.1,7.5,31.1,22.3c0,14.7-10.3,22.6-29.9,22.6H97.6V178.9z"/>
<path class="st4" d="M132,196.2c29.7,0,47.6-14.5,47.6-38.5c0-18.1-12.8-31.2-31.7-33.3v-0.8c13.9-2.3,24.8-15.2,24.8-29.6
	c0-20.6-16.2-34-41-34H76v136.2L132,196.2L132,196.2z M97.6,77.2h28.8c15.7,0,24.6,7,24.6,19.6c0,13.5-10.3,21-29.1,21H97.6V77.2
	L97.6,77.2z M97.6,178.9v-44.8h28.6c20.5,0,31.1,7.5,31.1,22.3c0,14.7-10.3,22.6-29.9,22.6H97.6V178.9z"/>
</svg>
