<?xml version="1.0" encoding="utf-8"?>
<!-- Generator: Adobe Illustrator 24.3.0, SVG Export Plug-In . SVG Version: 6.00 Build 0)  -->
<svg version="1.1" id="Layer_1" xmlns="http://www.w3.org/2000/svg" xmlns:xlink="http://www.w3.org/1999/xlink" x="0px" y="0px"
	 viewBox="0 0 256 300" style="enable-background:new 0 0 256 300;" xml:space="preserve">
<style type="text/css">
	.st0{display:none;fill:#0D1117;}
	.st1{fill:#FFFFFF;}
	.st2{fill:#0D1117;}
	.st3{fill:#330000;}
	.st4{fill:#FF9A00;}
	.st5{fill:#242938;}
	.st6{fill-rule:evenodd;clip-rule:evenodd;fill:#242938;}
	.st7{fill-rule:evenodd;clip-rule:evenodd;fill:#FFFFFF;}
	.st8{fill-rule:evenodd;clip-rule:evenodd;fill:#47B353;}
	.st9{fill:#ECEFF1;}
	.st10{fill:#263238;}
	.st11{fill:#212121;}
	.st12{fill:#FFC107;}
	.st13{fill:#634703;}
	.st14{fill:#455A64;}
	.st15{fill:#F03C2E;}
	.st16{clip-path:url(#SVGID_2_);}
	.st17{fill:#0277BD;}
	.st18{fill:#EBEBEB;}
	.st19{fill:#E14E1D;}
	.st20{clip-path:url(#SVGID_4_);}
	.st21{fill:#0ACF83;}
	.st22{fill:#A259FF;}
	.st23{fill:#F24E1E;}
	.st24{fill:#FF7262;}
	.st25{fill:#1ABCFE;}
	.st26{fill:#F0DB4F;}
	.st27{fill:#323330;}
	.st28{fill:#00D8FF;}
	.st29{fill:none;stroke:#00D8FF;stroke-width:8.911;}
	.st30{fill:#764ABC;}
	.st31{fill:#81CD39;}
	.st32{fill:#99424F;}
	.st33{fill:url(#SVGID_5_);}
	.st34{fill:url(#SVGID_6_);}
	.st35{fill:none;stroke:#FFFFFF;stroke-width:2;}
	.st36{fill:#2489CA;}
	.st37{fill:#1070B3;}
	.st38{fill:#0877B9;}
	.st39{fill:#3C99D4;}
	.st40{clip-path:url(#SVGID_8_);}
	.st41{fill:#023430;}
	.st42{fill:#10AA50;}
	.st43{fill:#B8C4C2;}
	.st44{fill:#12924F;}
	.st45{fill:#F58219;}
	.st46{fill:#2396ED;}
	.st47{fill:#007ACC;}
	.st48{fill:url(#SVGID_9_);}
	.st49{fill:url(#SVGID_10_);}
	.st50{fill:#001E36;}
	.st51{fill:#31A8FF;}
	.st52{fill:#E43717;}
	.st53{clip-path:url(#SVGID_12_);}
	.st54{fill-rule:evenodd;clip-rule:evenodd;fill:url(#SVGID_13_);}
	.st55{fill-rule:evenodd;clip-rule:evenodd;fill:url(#SVGID_14_);}
	.st56{fill-rule:evenodd;clip-rule:evenodd;fill:url(#SVGID_15_);}
	.st57{fill-rule:evenodd;clip-rule:evenodd;fill:url(#SVGID_16_);}
	.st58{fill-rule:evenodd;clip-rule:evenodd;fill:url(#SVGID_17_);}
	.st59{fill-rule:evenodd;clip-rule:evenodd;fill:url(#SVGID_18_);}
	.st60{fill-rule:evenodd;clip-rule:evenodd;fill:url(#SVGID_19_);}
	.st61{fill-rule:evenodd;clip-rule:evenodd;fill:url(#SVGID_20_);}
	.st62{fill-rule:evenodd;clip-rule:evenodd;fill:url(#SVGID_21_);}
	.st63{fill-rule:evenodd;clip-rule:evenodd;fill:url(#SVGID_22_);}
	.st64{fill-rule:evenodd;clip-rule:evenodd;fill:url(#SVGID_23_);}
	.st65{fill-rule:evenodd;clip-rule:evenodd;fill:url(#SVGID_24_);}
	.st66{fill-rule:evenodd;clip-rule:evenodd;fill:#9E1209;}
	.st67{fill-rule:evenodd;clip-rule:evenodd;fill:url(#SVGID_25_);}
	.st68{fill-rule:evenodd;clip-rule:evenodd;fill:url(#SVGID_26_);}
	.st69{fill-rule:evenodd;clip-rule:evenodd;fill:url(#SVGID_27_);}
	.st70{fill-rule:evenodd;clip-rule:evenodd;fill:url(#SVGID_28_);}
	.st71{fill:#092E20;}
	.st72{fill-rule:evenodd;clip-rule:evenodd;fill:#FF9900;}
	.st73{fill:#E23237;}
	.st74{fill:#B52E31;}
	.st75{fill:#2F406A;}
	.st76{fill:#2379BD;}
	.st77{fill:#03AFEF;}
	.st78{fill:#953CAD;}
</style>
<g>
	<rect y="162.6" class="st1" width="256" height="137.4"/>
	<g>
		<path class="st2" d="M81.6,292.2c-0.2-0.2-0.2-0.4-0.2-0.7v-23.1c0-0.3,0.1-0.5,0.2-0.7c0.2-0.2,0.4-0.3,0.6-0.3h10
			c1.8,0,3.2,0.4,4.3,1.1c1.1,0.7,1.9,1.6,2.4,2.7c0.5,1.1,0.7,2.3,0.7,3.6c0,1.2-0.2,2.2-0.5,2.9c-0.4,0.7-0.8,1.3-1.2,1.7
			c0.8,0.6,1.3,1.4,1.7,2.2c0.3,0.8,0.5,1.9,0.5,3.1c0,2.2-0.6,4.1-1.7,5.5c-1.2,1.5-3,2.2-5.4,2.2H82.4
			C81.9,292.5,81.8,292.4,81.6,292.2z M87.1,273v4.1h4.8c0.6,0,1.1-0.2,1.4-0.5c0.3-0.4,0.5-0.9,0.5-1.5s-0.2-1.1-0.5-1.5
			s-0.8-0.5-1.4-0.5L87.1,273L87.1,273z M92.2,286.9c0.6,0,1.1-0.2,1.5-0.6c0.4-0.4,0.6-0.9,0.6-1.6c0-0.6-0.2-1.2-0.6-1.6
			c-0.4-0.4-0.9-0.6-1.5-0.6h-5.1v4.4L92.2,286.9L92.2,286.9z"/>
		<path class="st2" d="M125.1,291.1c0.1,0.2,0.1,0.4,0.1,0.5c0,0.2-0.1,0.4-0.2,0.6s-0.3,0.2-0.5,0.2h-3.9c-0.4,0-0.6-0.1-0.8-0.3
			s-0.3-0.4-0.4-0.6l-0.9-3h-8.3l-0.9,3c-0.1,0.2-0.2,0.4-0.4,0.6s-0.5,0.3-0.8,0.3h-3.9c-0.2,0-0.3-0.1-0.5-0.2s-0.2-0.3-0.2-0.6
			c0-0.1,0-0.3,0.1-0.5l6.8-22.5c0.1-0.3,0.3-0.6,0.5-0.8s0.5-0.3,0.9-0.3h5c0.4,0,0.7,0.1,0.9,0.3s0.4,0.5,0.5,0.8L125.1,291.1z
			 M116.9,283.1l-2.5-8.6l-2.5,8.6H116.9z"/>
		<path class="st2" d="M147.1,274.7c-0.1,0.2-0.3,0.2-0.5,0.2h-4.1c-0.3,0-0.5,0-0.7-0.1s-0.4-0.2-0.6-0.4c0,0-0.2-0.2-0.4-0.5
			s-0.6-0.5-1.1-0.7s-1.1-0.3-1.7-0.3c-0.9,0-1.6,0.1-2.2,0.4s-0.9,0.7-0.9,1.4c0,0.5,0.2,0.9,0.5,1.1c0.4,0.3,0.9,0.5,1.6,0.7
			c0.7,0.2,2,0.5,3.8,1c2.3,0.5,4.1,1.4,5.2,2.6s1.6,2.8,1.6,5c0,1.6-0.4,3-1.2,4.1c-0.8,1.2-2,2.1-3.4,2.7s-3.1,0.9-5,0.9
			c-1.8,0-3.4-0.4-4.8-1.1c-1.4-0.7-2.6-1.6-3.4-2.8c-0.8-1.1-1.3-2.3-1.3-3.5c0-0.2,0.1-0.4,0.2-0.6c0.1-0.2,0.3-0.2,0.4-0.2h4.1
			c0.5,0,0.8,0.2,1.2,0.5c0.1,0.1,0.2,0.3,0.5,0.6s0.7,0.7,1.2,0.9c0.5,0.3,1.2,0.4,1.9,0.4c2.6,0,3.8-0.6,3.8-1.9
			c0-0.4-0.2-0.7-0.5-1s-0.9-0.5-1.5-0.7c-0.7-0.2-1.7-0.5-3.2-0.8l-1.4-0.3c-2.1-0.5-3.7-1.4-4.7-2.6c-1-1.2-1.5-2.9-1.5-4.9
			c0-1.4,0.4-2.7,1.1-3.8c0.7-1.2,1.8-2.1,3.1-2.8s2.9-1.1,4.6-1.1c1.7,0,3.2,0.4,4.6,1.1c1.4,0.7,2.5,1.6,3.3,2.7
			c0.8,1.1,1.2,2.2,1.3,3.2C147.3,274.3,147.2,274.5,147.1,274.7z"/>
		<path class="st2" d="M171.5,267.7c0.2,0.2,0.2,0.4,0.2,0.7v23.1c0,0.3-0.1,0.5-0.2,0.7c-0.2,0.2-0.4,0.3-0.6,0.3h-4.1
			c-0.2,0-0.4-0.1-0.6-0.3c-0.2-0.2-0.2-0.4-0.2-0.7v-8.8h-6.9v8.8c0,0.3-0.1,0.5-0.2,0.7c-0.2,0.2-0.4,0.3-0.6,0.3h-4.1
			c-0.2,0-0.4-0.1-0.6-0.3s-0.2-0.4-0.2-0.7v-23.1c0-0.3,0.1-0.5,0.2-0.7c0.2-0.2,0.4-0.3,0.6-0.3h4.1c0.2,0,0.4,0.1,0.6,0.3
			c0.2,0.2,0.2,0.4,0.2,0.7v8.6h6.9v-8.6c0-0.3,0.1-0.5,0.2-0.7c0.2-0.2,0.4-0.3,0.6-0.3h4.1C171.2,267.4,171.4,267.5,171.5,267.7z"
			/>
	</g>
	<path class="st5" d="M60,0h136c33.1,0,60,26.9,60,60v136c0,33.1-26.9,60-60,60H60c-33.1,0-60-26.9-60-60V60C0,26.8,26.8,0,60,0z"/>
	<path class="st6" d="M203.8,68.8l-63.1-37.5c-7.5-4.5-16.8-4.5-24.4,0L53.2,68.8C45.7,73.3,41,81.5,41,90.5v75
		c0,8.9,4.6,17.2,12.2,21.7l63.1,37.5c3.8,2.2,8,3.4,12.2,3.4s8.4-1.1,12.2-3.4l63.1-37.5c7.5-4.5,12.2-12.7,12.2-21.7v-75
		C216,81.5,211.3,73.3,203.8,68.8z"/>
	<path class="st7" d="M118.5,220.8l-63.1-37.5c-6.2-3.7-10-10.5-10-17.9v-75c0-7.3,3.8-14.2,10-17.9L118.5,35c3-1.8,6.5-2.7,10-2.7
		s6.9,1,10,2.7l63.1,37.5c5.2,3.1,8.7,8.4,9.7,14.4c-2.1-4.5-6.8-5.7-12.3-2.5l-59.7,36.9c-7.4,4.4-12.9,9.2-12.9,18.2v73.6
		c0,5.4,2.2,8.9,5.5,9.9c-1.1,0.2-2.2,0.3-3.3,0.3C125,223.5,121.5,222.6,118.5,220.8z M203.8,68.8l-63.1-37.5
		c-3.8-2.2-8-3.4-12.2-3.4s-8.4,1.1-12.2,3.4L53.2,68.8C45.7,73.3,41,81.5,41,90.5v75c0,8.9,4.6,17.2,12.2,21.7l63.1,37.5
		c3.8,2.2,8,3.4,12.2,3.4s8.4-1.1,12.2-3.4l63.1-37.5c7.5-4.5,12.2-12.7,12.2-21.7v-75C216,81.5,211.3,73.3,203.8,68.8z"/>
	<path class="st8" d="M187.2,172.7l-15.7,9.4c-0.4,0.2-0.7,0.5-0.7,1v4.1c0,0.5,0.3,0.7,0.8,0.5l16-9.7c0.4-0.2,0.5-0.7,0.5-1.2
		v-3.6C188,172.7,187.7,172.4,187.2,172.7z"/>
	<path class="st6" d="M153.8,138.1c0.5-0.3,0.9,0.1,0.9,0.7l0.1,5.4c2.3-0.9,4.3-1.1,6-0.7c0.4,0.1,0.6,0.6,0.4,1.3l-1.2,4.8
		c-0.1,0.4-0.3,0.7-0.5,1c-0.1,0.1-0.2,0.2-0.3,0.2c-0.2,0.1-0.3,0.1-0.5,0.1c-0.8-0.2-2.8-0.6-5.8,0.9c-3.2,1.6-4.3,4.4-4.3,6.5
		c0,2.5,1.3,3.2,5.7,3.3c5.8,0.1,8.4,2.6,8.4,8.5c0.1,5.8-3,12-7.7,15.8l0.1,5.4c0,0.6-0.4,1.4-0.9,1.6l-3.2,1.8
		c-0.5,0.3-0.9-0.1-0.9-0.7l-0.1-5.3c-2.7,1.1-5.5,1.4-7.3,0.7c-0.3-0.1-0.5-0.6-0.3-1.2l1.2-4.9c0.1-0.4,0.3-0.8,0.6-1
		c0.1-0.1,0.2-0.2,0.3-0.2c0.2-0.1,0.4-0.1,0.5-0.1c1.9,0.6,4.3,0.3,6.7-0.8c3-1.5,5-4.5,4.9-7.6c0-2.7-1.5-3.9-5.1-3.9
		c-4.6,0-8.9-0.9-8.9-7.6c-0.1-5.6,2.8-11.3,7.4-15l-0.1-5.4c0-0.7,0.4-1.4,0.9-1.7L153.8,138.1z"/>
</g>
</svg>
