<?xml version="1.0" encoding="utf-8"?>
<!-- Generator: Adobe Illustrator 24.3.0, SVG Export Plug-In . SVG Version: 6.00 Build 0)  -->
<svg version="1.1" id="Layer_1" xmlns="http://www.w3.org/2000/svg" xmlns:xlink="http://www.w3.org/1999/xlink" x="0px" y="0px"
	 viewBox="0 0 256 300" style="enable-background:new 0 0 256 300;" xml:space="preserve">
<style type="text/css">
	.st0{fill:#FFFFFF;}
	.st1{fill:#231F20;}
	.st2{fill:#3B3C37;}
	.st3{fill:#F9DC3E;}
</style>
<path class="st0" d="M27.5,162.6h201c15.2,0,27.5,12.3,27.5,27.5v82.4c0,15.2-12.3,27.5-27.5,27.5h-201C12.3,300,0,287.7,0,272.5
	v-82.4C0,174.9,12.3,162.6,27.5,162.6z"/>
<g>
	<path class="st1" d="M74.4,292.2c-0.2-0.2-0.3-0.4-0.3-0.7v-23.3c0-0.3,0.1-0.5,0.3-0.7c0.2-0.2,0.4-0.3,0.6-0.3h10.7
		c1.9,0,3.4,0.4,4.6,1.1c1.2,0.7,2,1.6,2.5,2.8c0.5,1.1,0.8,2.3,0.8,3.7c0,1.2-0.2,2.2-0.6,2.9c-0.4,0.7-0.8,1.3-1.3,1.7
		c0.8,0.6,1.4,1.4,1.8,2.2c0.4,0.9,0.5,1.9,0.5,3.1c0,2.2-0.6,4.1-1.9,5.6c-1.2,1.5-3.2,2.2-5.8,2.2H75
		C74.8,292.5,74.6,292.4,74.4,292.2z M80.3,272.8v4.1h5.2c0.7,0,1.2-0.2,1.5-0.5c0.3-0.4,0.5-0.9,0.5-1.5c0-0.6-0.2-1.2-0.5-1.5
		c-0.3-0.4-0.8-0.5-1.5-0.5H80.3z M85.8,286.9c0.7,0,1.2-0.2,1.6-0.6c0.4-0.4,0.6-0.9,0.6-1.6c0-0.6-0.2-1.2-0.6-1.6
		c-0.4-0.4-0.9-0.6-1.6-0.6h-5.5v4.4H85.8z"/>
	<path class="st1" d="M118.9,291.1c0.1,0.2,0.1,0.4,0.1,0.5c0,0.2-0.1,0.4-0.2,0.6c-0.1,0.2-0.3,0.2-0.5,0.2h-4.2
		c-0.4,0-0.7-0.1-0.9-0.3c-0.2-0.2-0.3-0.4-0.4-0.6l-0.9-3H103l-0.9,3c-0.1,0.2-0.2,0.5-0.4,0.6c-0.2,0.2-0.5,0.3-0.9,0.3h-4.2
		c-0.2,0-0.4-0.1-0.5-0.2c-0.1-0.2-0.2-0.3-0.2-0.6c0-0.1,0-0.3,0.1-0.5l7.3-22.7c0.1-0.3,0.3-0.6,0.5-0.8c0.2-0.2,0.6-0.3,1-0.3
		h5.4c0.4,0,0.7,0.1,1,0.3c0.2,0.2,0.4,0.5,0.5,0.8L118.9,291.1z M110.1,283l-2.7-8.6l-2.7,8.6H110.1z"/>
	<path class="st1" d="M122,292.2c-0.2-0.2-0.3-0.4-0.3-0.7v-23.3c0-0.3,0.1-0.5,0.3-0.7c0.2-0.2,0.4-0.3,0.6-0.3h10.7
		c1.9,0,3.4,0.4,4.6,1.1s2,1.6,2.5,2.8c0.5,1.1,0.8,2.3,0.8,3.7c0,1.2-0.2,2.2-0.6,2.9c-0.4,0.7-0.8,1.3-1.3,1.7
		c0.8,0.6,1.4,1.4,1.8,2.2c0.4,0.9,0.5,1.9,0.5,3.1c0,2.2-0.6,4.1-1.9,5.6c-1.2,1.5-3.2,2.2-5.8,2.2h-11.4
		C122.4,292.5,122.2,292.4,122,292.2z M127.9,272.8v4.1h5.2c0.7,0,1.2-0.2,1.5-0.5c0.3-0.4,0.5-0.9,0.5-1.5c0-0.6-0.2-1.2-0.5-1.5
		c-0.3-0.4-0.8-0.5-1.5-0.5H127.9z M133.4,286.9c0.7,0,1.2-0.2,1.6-0.6c0.4-0.4,0.6-0.9,0.6-1.6c0-0.6-0.2-1.2-0.6-1.6
		c-0.4-0.4-0.9-0.6-1.6-0.6h-5.5v4.4H133.4z"/>
	<path class="st1" d="M151.6,286.7h10.5c0.2,0,0.5,0.1,0.6,0.3s0.3,0.4,0.3,0.7v3.8c0,0.3-0.1,0.5-0.3,0.7c-0.2,0.2-0.4,0.3-0.6,0.3
		h-15.8c-0.2,0-0.5-0.1-0.6-0.3c-0.2-0.2-0.3-0.4-0.3-0.7v-23.3c0-0.3,0.1-0.5,0.3-0.7c0.2-0.2,0.4-0.3,0.6-0.3h15.5
		c0.2,0,0.5,0.1,0.6,0.3c0.2,0.2,0.3,0.4,0.3,0.7v3.8c0,0.3-0.1,0.5-0.3,0.7c-0.2,0.2-0.4,0.3-0.6,0.3h-10.2v3.9h9.5
		c0.2,0,0.5,0.1,0.6,0.3s0.3,0.4,0.3,0.7v3.8c0,0.3-0.1,0.5-0.3,0.7c-0.2,0.2-0.4,0.3-0.6,0.3h-9.5V286.7z"/>
	<path class="st1" d="M182.9,287c0.2,0.2,0.3,0.4,0.3,0.7v3.8c0,0.3-0.1,0.5-0.3,0.7c-0.2,0.2-0.4,0.3-0.6,0.3h-15.4
		c-0.2,0-0.5-0.1-0.6-0.3c-0.2-0.2-0.3-0.4-0.3-0.7v-23.3c0-0.3,0.1-0.5,0.3-0.7c0.2-0.2,0.4-0.3,0.6-0.3h4.4c0.2,0,0.5,0.1,0.6,0.3
		c0.2,0.2,0.3,0.4,0.3,0.7v18.5h10.1C182.5,286.7,182.8,286.8,182.9,287z"/>
</g>
<path class="st2" d="M60,0h136c33.1,0,60,26.9,60,60v136c0,33.1-26.9,60-60,60H60c-33.1,0-60-26.9-60-60V60C0,26.9,26.9,0,60,0z"/>
<path d="M165.2,95.9l0-0.4l-0.7,0.1l0,0.4L165.2,95.9z M169.8,107.1l0,0.2l0.5,0c0-0.1,0-0.4,0.1-0.7l0-0.4
	C170.2,106.2,170,106.5,169.8,107.1z M151.6,121.3c0-0.4-1.3-2-3.7-4.7c0-0.5,0.8-1.3,2.5-2.2l4.9-4.3c1.1-1.4,1.8-3.7,1.9-6.8
	l-0.1-0.7c-0.2-2.2-1.8-3.9-4.8-5.3c-1.8-1.2-5-1.9-9.6-2c-3.8,0.3-8.8,1.7-14.9,4.1c-1.7,1.2-3.6,2.4-5.8,3.6l0,0.4
	c0.1,0,0.3-0.1,0.6-0.3c0.3,0,0.4,0.1,0.4,0.3l0.4-0.2l0.2,0l0,0.2c0,0.2-1.3,1.2-4,3.1l0.2,0.4l-0.2,0l-0.4-0.2
	c0,0.1-0.2,0.2-0.5,0.3l0,0.2l0.4,0.5c-0.1,0-0.3,0-0.6-0.1c-0.6,0.1-1.2,0.4-1.8,1l0.3-1.1c0.9-3.9,1.5-7.3,1.8-10.3l0-0.2
	c-0.6-0.4-1.2-1-1.8-1.7c0-0.5,0-0.7,0-0.8l0-0.2l-0.2,0c-1.9,2.9-5.7,7.9-11.3,15c-4.2,5-6.4,7.8-6.6,8.4c-1.7,1.8-2.6,2.9-2.5,3.2
	c-0.5,0.3-0.6,0.6-0.6,0.9c-0.1,0-0.2,0-0.3-0.1c-0.7,1.2-1.8,2-3.3,2.3l-1.5,0.4c-0.2,0-0.3,0.2-0.3,0.4l0,0.2l0.6-0.1l0,0.2
	l-1.3,0.5l-2.3,0.5l-1.2,0.1c-0.2,0.2,1,0,0.5,0.1l-1.5,0.4c-0.9,0.2-1.4,0.1-1.5-0.2l-0.2,0c0,0.2,0,0.3,0,0.4l-0.1-0.4l-1.2,0.3
	c-0.1-0.6-1.7-2.6-4.9-6.1c-0.1-0.7,1.1-1.7,3.4-3l6.5-5.7c1.4-1.9,2.3-4.8,2.6-9l-0.1-1c-0.3-2.9-2.3-5.2-6.3-7
	c-2.3-1.6-6.5-2.4-12.6-2.6c-5,0.4-11.6,2.2-19.6,5.3c-2.2,1.6-4.7,3.2-7.6,4.8l0,0.5c0.2,0,0.4-0.1,0.8-0.3c0.3,0,0.5,0.1,0.5,0.4
	l0.5-0.3l0.3,0l0,0.2c0,0.2-1.7,1.6-5.3,4.1l0.3,0.4l-0.3,0l-0.5-0.2c0,0.1-0.2,0.3-0.8,0.3l0,0.3l0.6,0.7c-0.2,0-0.5,0-0.8-0.2
	c-1.2,0.1-2.3,0.9-3.4,2.5l0.3,0.4c1-0.9,1.5-1.3,1.7-1.3l0.1,0.7c-0.2,0-0.4,0.1-0.8,0.3l0.6,0.9c1.2-1.3,2.5-2.3,3.9-3.2
	c0.7,0.2,1.1,0.4,1.1,0.6l0.5,0c3.8-2.8,7.6-4.9,11.3-6.1l0,0.5c-0.7,1-1.2,1.6-1.4,1.6c0,0.4,0.1,0.7,0.4,0.9
	c0.1,0.6-1.6,4.9-5.1,12.8c-7.8,18.4-14.4,32-19.7,40.8c0,0.2,0.1,0.4,0.3,0.7c1.3-0.3,2.1-0.6,2.5-0.9l0.3,0l0,0.5l0.5,0l0.5-0.3
	c0,0.1,0.2,0.2,0.5,0.2l0,0.5c0,0.5-0.2,1.2-0.8,2.2c-0.5,0.6-1.1,1.9-1.7,3.8l0,0.2l0.5,0c2.1-2.4,3.7-4.7,4.8-7
	c6.2-1.8,10.9-3.6,14.2-5.4c3.3-0.3,5.8-1.2,7.5-2.6l0-0.3l-1.2,0.4l-0.3,0l0-0.3c2.4-0.4,4.1-0.9,5-1.6c4.7-3.6,8.3-6.2,10.7-7.7
	c4.9-3.6,8.2-7.2,9.6-10.6c0.3-0.1,0.5-0.1,0.8-0.2c0.7,0,1.1,0,1.2-0.1c0-0.1,0-0.2,0.2-0.2c1.1-0.1,0.6,0.1,1.3-0.1l1.9-0.4
	c-0.1,0-0.2,0.1-0.1,0.2l0.3-0.2c-0.1,0-0.1,0-0.1,0l0.3-0.1l-0.1,0.1c0.2,0,0.4,0,0.7,0l0.1,0.5l-8.5,13.5l-1.9,2.3l-0.9,3.1l0.2,0
	l0.9-0.4l-0.3,1.2l0.1,0.4l0.3,0.3c-0.1,0-0.2,0.1-0.1,0.2l0,0.2l0.4-0.1c0.6-0.5,0.8-0.9,0.7-1.3c0.6,0.1,1,0.1,1.2,0.1l0,0.2
	c-0.4,0.1-0.6,0.4-0.6,0.9l0,0.2l0.2,0c3.1-3.4,10.6-14.8,16.6-22.6c-0.2-0.8,3-2,9.5-3.5l0.2,0c0.2,1-0.3,3.5-1.5,7.4
	c-0.8,2.4-1.2,3.7-1.1,3.9c-1,3.1-1.5,4.8-1.5,5.1l-2.3,7.5c-1.5,3.9-2.6,7.9-3.4,12.2c0.1,0,0.3,0,0.6,0.1l0.3-0.3
	c0,0.1,0.1,0.2,0.3,0.1l-0.1-0.5l1,0c0.3-0.1,0.5-0.4,0.8-1.1c0-1,0.2-1.6,0.6-1.7c0.6-2.4,1-3.6,1.1-3.7c0.6-2.4,1-3.8,1.3-4.1
	c0.9-3.1,1.5-4.7,1.9-4.8l0.1,0.4l-0.6,1.6c-1.1,4.9-2.2,8.8-3.4,11.7l0.3,1.4l0.2,0c2.7-5.9,6.7-17.6,11.9-35.1
	c0.1-1.5,0.9-2.7,2.2-3.6l-0.3-0.3l0-0.2c0.6-0.1,1-0.4,1.2-0.7c0-0.1-0.5-0.3-1.6-0.6l2.6-11c0.6-0.5,0.9-0.8,1-0.8l0,0.6
	c-0.1,0-0.3,0.1-0.6,0.3l0.5,0.7c0.9-1,1.8-1.8,2.9-2.5c0.5,0.1,0.8,0.3,0.8,0.5l0.4,0c2.9-2.1,5.8-3.7,8.6-4.6l0,0.4
	c-0.5,0.8-0.9,1.2-1.1,1.2c0,0.3,0.1,0.5,0.2,0.7c0,0.5-1.2,3.7-3.8,9.8c-5.9,14-10.9,24.3-15,31c0,0.1,0.1,0.3,0.3,0.5
	c1-0.2,1.6-0.5,1.9-0.7l0.2,0l0,0.4l0.4,0l0.4-0.2c0,0.1,0.1,0.1,0.4,0.1l0,0.4c0,0.4-0.2,0.9-0.6,1.7c-0.4,0.5-0.9,1.4-1.3,2.9
	l0,0.2l0.4,0c1.6-1.8,2.8-3.6,3.7-5.3c4.7-1.4,8.3-2.7,10.8-4.1c2.5-0.2,4.4-0.9,5.7-2l0-0.2l-1,0.3l-0.2,0l0-0.2
	c1.8-0.3,3.1-0.7,3.8-1.2c3.6-2.7,6.3-4.7,8.1-5.9C149.3,129.1,151.9,125.1,151.6,121.3z M150.6,121.5l0.1,1.5
	c-0.2,0.4-0.4,0.6-0.5,0.6l-0.2-2.5C150.4,121.2,150.6,121.3,150.6,121.5z M38.8,109.5l-0.3,0l0-0.5l1-0.1l0,0.2
	C39.4,109.2,39.1,109.3,38.8,109.5z M33.8,159.3c-0.6-0.3-1.1-0.4-1.6-0.3l-0.1-0.7c0-0.3,0.1-0.5,0.5-0.5c0.3,0,0.5,0.2,0.5,0.7
	c0.9-1,1.3-1.6,1.4-1.6l0.5,0.2C35,158.5,34.5,159.2,33.8,159.3z M87,103.7c-0.3,0-0.8-0.8-1.5-2.3l0-0.5c0.5,0,1,0.7,1.5,2.3
	L87,103.7z M86.3,98.1l-0.2,0.5l-7.2-3C83.7,95.8,86.2,96.6,86.3,98.1z M55.8,124.3l-1,0.1l0-0.5l1-0.1L55.8,124.3z M55,108.6l0.3,0
	l0.1,0.7c-0.2,0-0.5,0.4-0.9,1l0-0.5C54.8,109.3,55,108.9,55,108.6z M52.8,113.7l0.1,1l-0.3,0l-0.1-1L52.8,113.7z M51.7,115.5l0.5,0
	c0,0.8-0.3,1.2-0.7,1.3l-0.3,0C51.6,116.1,51.7,115.7,51.7,115.5z M50.9,118l0.3,0l0,0.2l-0.5,0.8l-0.5,0l0-0.2
	C50.7,118.7,50.9,118.5,50.9,118z M50,120.2l-0.1,1.2l-0.3,0l-0.1-1.2L50,120.2z M41.8,143.8c-0.3,1.7-0.7,2.5-1,2.5l0-0.2
	C40.6,145.3,41,144.5,41.8,143.8z M40.2,147.1l0,0.2c0,0.3-0.1,0.5-0.4,0.5l0-0.2C39.8,147.3,39.9,147.2,40.2,147.1z M39.8,153.9
	l0.8-0.1l0,0.3c-0.2,0-0.4,0.1-0.8,0.3l-0.5,0C39.3,154.2,39.5,154,39.8,153.9z M61.6,147.2c-4.3,2.1-6.9,3.6-7.6,4.3
	c-4.7,1.6-7,2.6-6.9,3c-4.2,1.6-6.9,2.9-8.2,3.6c-0.3,0-0.8-0.1-1.3-0.4c-0.1-0.8,0.3-1.5,1.1-2.1c0.7-0.1,1.4,0,2.1,0.3
	c0.8-0.4,2.1-0.8,4-1.3l0-0.5l-1.5,0.1c0.2-0.3,1.7-1,4.4-2.1l0.8-0.1l0,0.2c-1.3,0.1-2,0.5-2.2,1.2c0,0.3,0.2,0.4,0.5,0.4
	c1-0.6,1.5-1,1.5-1.1c1.9-0.4,7.1-3.1,15.6-8.1l0,0.5C63.8,145.5,63.1,146.1,61.6,147.2z M48.6,151.5c1.2-0.1,2.3-0.6,3.2-1.5
	c0.4,0,0.5,0.1,0.6,0.4c-0.6,0.1-1.8,0.6-3.5,1.5l-0.3,0L48.6,151.5z M69.6,135.3l-6.5,5.2c-4.8,3.2-7.4,4.8-7.8,4.8
	c-7.7,4.2-12.5,6.4-14.4,6.6l-0.3,0c0.2-0.9,3.7-7.9,10.3-21.1c2.9-0.3,7.5-1.6,13.8-4.1l1.5-0.1c3.2-0.3,5.6,0.3,7.1,1.8l0.1,1
	C72.3,132.8,71,134.7,69.6,135.3z M56.9,128.1l1-0.1l0,0.2l-1,0.1L56.9,128.1z M71.6,125.6l0.8-0.1c0.7,0.3,1.1,0.6,1.1,0.9l0,0.2
	C72.8,126.8,72.2,126.4,71.6,125.6z M73.7,113.8c-0.7,0.8-2.5,2.2-5.6,4.1c-1,0.1-4.7,1.5-11.2,4.4c-0.3-0.1-0.7-0.2-1-0.2l0-0.5
	c-0.1-0.9,0.3-2.1,1.3-3.5c0.5-2.7,1-4.2,1.7-4.5l5.4-12.1c-0.1-0.8,1.1-1.3,3.5-1.7l0.8-0.1l0.1,0.7c2.3-0.4,3.8-0.6,4.3-0.6
	c4.3-0.4,6.5,0.5,6.7,2.6l0.5,0l-0.1-1.2l0.5,0c1.3,0.7,1.9,1.5,2,2.5c0.1,0.7-0.3,1.5-1.1,2.5c-0.3,0-0.5-0.2-0.5-0.7l-0.5,0
	l-0.1,1.5c-2.2,3.2-3.8,4.9-4.7,5C74.5,113.2,73.9,113.8,73.7,113.8z M77,122.3c-0.4-0.3-0.8-0.4-1.1-0.4l-0.1-0.7l0.5,0l1.1,0.6
	C77.5,122.1,77.4,122.2,77,122.3z M80.5,126.3c0.5,0.2,0.8,0.4,0.8,0.6L81,127l0,0c0,0-0.1,0-0.1,0l-0.4,0.3L80.5,126.3z
	 M80.8,128.4l0-0.2l0.6-0.1l0,0.2L80.8,128.4z M82.3,130c0.6-0.1,0.9-0.1,2.1-0.4l0,0.2l-2.2,0.5C82.2,130.2,82.3,130.1,82.3,130z
	 M84.5,131c-0.9,0.1-0.7,0-2.2,0.3l0-0.2l1.9-0.6l0.9-0.2l0.1,0.4C84.6,130.7,84.9,130.7,84.5,131z M86.4,130.5
	c-0.2,0.1-0.4,0-0.5-0.3l0.6-0.1c0.3-0.1,0.4,0,0.5,0.3L86.4,130.5z M91.9,124.7l0-0.2l0.9-0.2l0.1,0.4L91.9,124.7z M97.6,160.1
	c0.1-0.3,0.1-0.5,0-0.6l0.2,0c0.3-0.1,0.4,0,0.5,0.3l0,0.2L97.6,160.1z M101.7,126.2l-0.4-0.1c-0.7,0.3-1.2,0.5-1.7,0.6l-0.4,0.1
	c-0.2,0.1-0.4,0-0.5-0.3l2.7-0.6l0.9-0.4l0.3,0.3C102.2,125.9,101.9,126,101.7,126.2z M103.8,125.5l0-0.2c0.1,0,0.3-0.1,0.5-0.3
	l1.9-0.4l0,0.2C105.2,125,104.4,125.3,103.8,125.5z M104.1,121.7c-0.1,0-0.3,0.1-0.5,0.3c0-0.1-0.3-0.1-0.8,0
	c-0.1-0.4,1.3-0.9,4.3-1.6l0.4-0.1l0.1,0.4C105.4,121.3,104.3,121.6,104.1,121.7z M109.2,116.1c-0.2,2.3-1,3.7-2.5,4l0-0.2l-1.3,0.5
	l-0.6,0.1c-0.3,0.1-0.6,0.1-0.8,0l-0.1-0.5c0-0.2,1.8-2.8,5.6-7.8l0.4,0.1C110.1,113,109.9,114.2,109.2,116.1z M118.4,108.2l-0.2,0
	l0-0.4l0.8-0.1l0,0.2C118.8,108,118.6,108.1,118.4,108.2z M114.6,146.1c-0.4-0.2-0.8-0.3-1.2-0.3l0-0.6c0-0.2,0.1-0.3,0.4-0.4
	c0.3,0,0.4,0.1,0.4,0.5c0.6-0.8,1-1.2,1.1-1.2l0.4,0.2C115.5,145.4,115.1,146,114.6,146.1z M155,103.8c-0.2,0-0.6-0.6-1.1-1.8l0-0.4
	c0.4,0,0.8,0.5,1.1,1.7L155,103.8z M154.5,99.6l-0.2,0.4l-5.5-2.3C152.5,97.8,154.4,98.5,154.5,99.6z M131.3,119.5l-0.8,0.1l0-0.4
	l0.8-0.1L131.3,119.5z M130.6,107.6l0.2,0l0,0.6c-0.2,0-0.4,0.3-0.7,0.8l0-0.4C130.5,108.1,130.7,107.8,130.6,107.6z M129,111.4
	l0.1,0.7l-0.2,0l-0.1-0.7L129,111.4z M128.2,112.8l0.4,0c0,0.6-0.2,0.9-0.5,1l-0.2,0C128.1,113.3,128.2,113,128.2,112.8z
	 M127.5,114.7l0.2,0l0,0.2l-0.3,0.6l-0.4,0l0-0.2C127.4,115.2,127.6,115,127.5,114.7z M126.9,116.4l-0.1,0.9l-0.2,0l-0.1-0.9
	L126.9,116.4z M120.6,134.3c-0.3,1.2-0.5,1.9-0.8,1.9l0-0.2C119.8,135.4,120,134.8,120.6,134.3z M119.4,136.8l0,0.2
	c0,0.3-0.1,0.4-0.4,0.4l0-0.2C119.1,137,119.2,136.9,119.4,136.8z M119.1,142l0.6,0l0,0.2c-0.1,0-0.3,0.1-0.6,0.2l-0.4,0
	C118.8,142.2,118.9,142,119.1,142z M135.7,136.9c-3.2,1.6-5.2,2.7-5.8,3.3c-3.5,1.2-5.3,2-5.3,2.3c-3.1,1.3-5.2,2.2-6.2,2.7
	c-0.2,0-0.6-0.1-1-0.3c-0.1-0.6,0.2-1.2,0.9-1.5c0.6,0,1.1,0,1.6,0.2c0.6-0.3,1.6-0.6,3.1-1l0-0.4l-1.2,0.1c0.1-0.2,1.3-0.7,3.4-1.6
	l0.6,0l0,0.2c-1,0.1-1.6,0.4-1.7,0.9c0,0.2,0.2,0.4,0.4,0.3c0.7-0.5,1.1-0.8,1.1-0.9c1.4-0.3,5.3-2.3,11.8-6.2l0,0.4
	C137.4,135.6,136.8,136,135.7,136.9z M125.8,140.1c1-0.1,1.8-0.5,2.5-1.1c0.3,0,0.4,0.1,0.4,0.3c-0.4,0-1.3,0.4-2.6,1.1l-0.2,0
	L125.8,140.1z M141.8,127.8l-4.9,4c-3.7,2.4-5.7,3.6-6,3.6c-5.8,3.2-9.5,4.9-10.9,5l-0.2,0c0.2-0.7,2.8-6,7.8-16
	c2.2-0.2,5.7-1.2,10.5-3.1l1.2-0.1c2.4-0.2,4.2,0.3,5.4,1.4l0.1,0.7C143.8,125.9,142.9,127.4,141.8,127.8z M132.1,122.4l0.8-0.1
	l0,0.2l-0.8,0.1L132.1,122.4z M143.3,120.5l0.6,0c0.5,0.3,0.8,0.5,0.8,0.7l0,0.2C144.2,121.3,143.8,121.1,143.3,120.5z M144.9,111.5
	c-0.5,0.6-1.9,1.7-4.2,3.2c-0.8,0.1-3.6,1.2-8.5,3.3c-0.2-0.1-0.5-0.1-0.8-0.1l0-0.4c-0.1-0.7,0.3-1.6,0.9-2.7
	c0.4-2,0.8-3.2,1.3-3.4l4.1-9.2c0-0.5,0.8-1,2.6-1.3l0.6,0l0,0.6c1.7-0.3,2.8-0.4,3.3-0.5c3.2-0.3,4.9,0.4,5.1,2l0.4,0l-0.1-0.9
	l0.4,0c0.9,0.5,1.4,1.1,1.5,1.9c0,0.5-0.2,1.2-0.8,1.9c-0.3,0-0.4-0.1-0.4-0.5l-0.4,0l-0.1,1.1c-1.6,2.5-2.8,3.8-3.6,3.8
	C145.5,111,145.1,111.5,144.9,111.5z M146.6,117.6l0-0.6l0.4,0l0.8,0.5c0,0.2-0.1,0.4-0.4,0.4C147.1,117.7,146.8,117.6,146.6,117.6z
	 M77.8,153.5l-0.4,0.1l-0.3,0.3c0.1,0.2,0.2,0.3,0.5,0.3c0.3-0.1,0.4-0.2,0.3-0.4L77.8,153.5z M76.4,150.6l0,0.2
	c0.3-0.1,0.4-0.2,0.3-0.4l0-0.2C76.4,150.2,76.3,150.4,76.4,150.6z M86.8,125.9l0.4-0.1l-0.1-0.4l-0.4,0.1L86.8,125.9z M220.8,137.1
	c-4.5,1-5.1,0.8-6,0.9l0,0.4l0.4,0l0.2,0l-0.1,0l0.5-0.2c4.4-0.5,5-0.3,4.9-0.8L220.8,137.1z M196.6,140.3l0,0.4h0.1L196.6,140.3
	L196.6,140.3z M193.8,130.6l-0.4-0.1c-0.3,0.9-0.5,1.4-0.5,1.5l0,0.2C193.3,132.1,193.6,131.6,193.8,130.6z M221.7,137.1l0,0.4
	l0.6,0.1l0-0.4L221.7,137.1z M191.2,140.8l-1-0.1l-0.2,0.4l0,0.2l6-0.5l0-0.4L191.2,140.8z M188.4,127.7l0-0.2l-0.2,0l-0.4,0.2
	l0.2,0.4C188.3,128.1,188.5,127.9,188.4,127.7z M224.6,134.3l0.3,0c0.2,0,0.2-0.1,0.2-0.4l-0.2-0.4c-1,0.1-1.5,0.1-2.3,0.6l0-0.2
	l-1.2,0.1c0-0.4-0.1-0.6-0.3-0.5l-0.6,0.1c-0.7,0.1-1.1,0-1.5,0.3c0-0.1-0.1-0.2-0.1-0.2l-0.7,0.1l-0.4,0.2c0-0.1-0.1-0.2-0.1-0.2
	l-0.3,0.2l0-0.2l-1-0.1l-0.2,0l0,0.4l0.5,0.1l0.5,0c0.2,0.1,0.3,0.1,0.5,0.1l0.4-0.2l0,0.2c-2.3,0.6-2.3,0.5-3.9,0.7
	c-0.2-0.1-0.3-0.2-0.4-0.2l0,0c-0.2,0-0.3-0.1-0.3-0.3l0.8-0.1c0.1,0,0.1,0.1,0.6,0.1c0.7-0.3,0.7-0.5,1-0.5l0-0.4
	c-2.3,0.4-1.4,0.1-4.2,0.4l-0.1,0l0-0.4c3.7-0.4,2.4-0.2,3.7-0.5c0,0.1,0.1,0.2,0.1,0.2c0.1-0.1,0.3-0.2,0.5-0.3l0.3,0
	c1.3-0.1,1.7,0.1,4.3-0.6l0,0.2l0.4-0.2l0.4,0c0-0.4,0.5-0.4,0.7-0.4l0-0.4c-4.5,0.9-5.6,0.7-6.9,1l0-0.2c-1.2,0.2-1.2,0.1-1.5,0.1
	c-0.1,0-0.2,0.1-0.4,0.2c0-0.1-0.1-0.2-0.1-0.2c0,0-0.1,0-0.1,0l-3.8,0.6c0-0.1-0.1-0.2-0.1-0.1c-2,0.4-1.4,0.5-4.1,0.7
	c-0.1,0-0.3,0.1-0.5,0.2c0-0.1-0.1-0.2-0.2-0.1l-1.6,0.1l-1.1,0.3c0-0.1-0.1-0.2-0.2-0.1c-0.6,0.2-1.1,0.3-1.6,0.3h0
	c-0.3,0,0.1-0.1-0.1-0.2l-0.3,0.2c-0.5,0-0.2,0-1.8,0c-2.9,0.4-2.5,0.4-2.9,0.4l-1.1-0.1c0,0.1,0,0.2-0.2,0.2
	c-1.2-0.2-1.8-0.4-1.8-0.6c0.2-1.2,0.4-1.7,0.8-1.8l0.2,0l-0.2,0.4l0.2,0c0.4-0.2,0.6-0.4,0.5-0.6l0-0.4l-0.4,0l0-0.4
	c0-0.3,0-0.5,0.1-0.7l0.9-1.4l0,0.4l0.4,0l0-0.4l-0.2-0.3c0.3-0.3,0.5-0.4,0.7-0.4l0-0.2l-0.6,0l0-0.6c1.1-2.3,1.7-3.7,1.6-4.1
	l0.4,0.2c0.3,0,0.4-0.2,0.4-0.4l-0.4,0l0-0.2c0-0.3,0-0.5,0.1-0.8c0.6-0.6,0.9-1.3,0.8-1.9c0.1,0,0.2,0,0.2,0.2
	c0.5-0.3,0.9-1.1,1.2-2.4c0.9-1.7,2.2-5,3.9-9.9c3.2-8.7,3.1-9.7,3.6-11.7l-0.4,0c0,0.3,0,0.5-0.1,0.8c-0.3-0.1-0.5-0.2-0.6-0.1
	l0-0.2c-0.1-0.8,0.3-1.7,1-2.7l0.2,0l0.3,1.3l0.4,0c0-0.1,0.1-0.6,0.3-1.5c0-0.2-0.2-0.3-0.5-0.3l-0.4,0.2c0-0.3,0-1,0-2.1l-0.2,0
	c-0.3-0.3-0.5-0.6-0.5-0.8l-2.1,0.2c0-0.1-0.1-0.4-0.2-0.6c0-0.2,0.5-0.4,1.4-0.6l0.4,0.2l0.4-0.2c0,0.1,0.1,0.2,0.2,0.2l0.4-0.2
	c0,0.1,0.1,0.2,0.2,0.2l0.2,0l0-0.4c-0.3,0-1.1,0-2.3,0l-0.4,0.3l0-0.2c-9.9,0.8-15.5,1.3-16.9,1.4c-0.2,0-0.9,0-2.1,0
	c0,0.2-0.1,0.3-0.4,0.3l-0.4-0.2l-1.4,0.4c-0.3,0-0.9,0-1.7-0.1c-0.2,0.2-0.5,0.3-0.8,0.3c-0.2,0,2.1-0.1,4.2-0.3
	c-0.2,0.2-0.6,0.3-1,0.3c-0.3,0-0.6,0-0.8-0.1c-0.3,0.1-1.4,0.4-3.1,0.7l-0.4-0.2l-6.9,1.1c-0.3-0.1-0.6-0.2-0.9-0.1
	c-0.4,0-1,0.2-1.8,0.4l-3.3,1.4l0.3,0.4c0.2,0,0.4-0.1,0.7-0.3l1.2,0.1l-0.1,1.1c-1.1,0.5-1.7,1.2-1.9,2.1c-1.6,0.7-2.5,1.2-2.5,1.6
	l0,0.2l0.3,0l0.4-0.2l0.5,0.6l0.1,0.9c0,0.3-2.7,6.1-8.3,17.4c-4.8,10.9-7.3,16.9-7.5,18c-1.6,0.5-2.6,1.1-2.9,2
	c0,0.3,0.5,0.5,1.5,0.5l0,0.4l-0.4,0.7l0.1,0.9c0,0.4,1.2,0.8,3.6,1c0-0.1,0.1-0.2,0.2-0.3c0,0.5-0.1,1.6-0.4,3.1l0.3,0
	c1-1.3,1.4-2.2,1.4-2.7l0.2,0c0.2,0,0.5,0.3,0.8,0.8c-0.3,0.1-1.3,2.5-3.1,7.1l0.3,0.4l0.3,0c2.2-5.5,3.5-8.5,4.1-9.1
	c2.8-0.3,7.8-0.8,14.8-1.5l0.4-0.3c0,0.1,0.1,0.2,0.3,0.2l0.5,0l0.4-0.3c0,0.1,0.1,0.2,0.3,0.2l5.3-0.5c1.4-0.1,2.1-0.5,2-1.3
	c0-0.2,0.8-0.4,2.5-0.6c0.2,0,0.4,0,0.7,0.1c0-0.1,0.8-0.3,2.5-0.4c0-0.9,0.3-1.4,0.8-1.4l0-0.4c-0.5,0-1,0.2-1.6,0.4
	c-1.1-0.1-1.8-0.1-2.1-0.3c-0.3,0.2-0.5,0.3-0.7,0.3l-3.7,0.1l-0.4,0.2c0-0.1-0.1-0.2-0.3-0.2l-0.2,0l-0.5,0.2
	c0-0.1-0.4-0.2-1.2-0.3l-0.5,0.3l-0.9,0.1l0-0.2c4.8-0.5,7.1-1.2,7-1.9c0.3,0,0.5,0.1,0.5,0.4l1.4-0.4l0-0.4l-11.4,0.3
	c0,0.1-0.1,0.2-0.2,0.3l-1.4-0.1c-0.4,0-0.6,0.1-0.9,0.3l-0.5-0.2c-1.4,0.1-2.5,0.3-3.2,0.5c-1-0.1-2.1-0.1-3.2,0l-2.6,0.2l-1.2-0.1
	c-0.1-0.8,1.4-4.5,4.4-11.1c0.9-2.2,1.7-3.6,2.4-4.2c0.2,0,0.4,0,0.7,0.2l1.8-0.6l0.9,0.1c1.6-0.1,3.4-0.6,5.5-1.3
	c0.5,0,0.9,0,1.2,0.1l1.4-0.3l4.1-0.4c1.8-0.1,3.7-0.5,5.7-1.2l0-0.4c-0.8,0.1-1.2-0.1-1.2-0.4c0-0.6-0.6-0.8-1.7-0.7l0-0.4l1.1-0.3
	l3-0.3l0-0.4c-0.1,0-0.7,0-1.8,0l0-0.5l1.2-0.1c0.3,0,0.4-0.2,0.4-0.5c-1.6,0-2.3,0-2.3-0.2c-10.8,0.5-16.2,0.6-16.3,0.3
	c-0.2,0-0.4,0.1-0.7,0.3l-0.3-0.4c2.9-6.1,4.6-9.2,5-9.2c0,0.2-0.1,0.6-0.4,1.1l0,0.2l0.5,0c1.1-2.7,2.1-4.1,2.9-4.2
	c3.4-0.3-0.5-0.5,6.8-1.7c0.3,0.1,0.5,0.2,0.6,0.2c2.9-0.6,6.8-1.2,11.9-1.8l0-0.4l-2.7,0.3l0-0.4c0.3,0,0.6-0.1,0.8-0.3l0,0.2
	c0.1,0,0.4-0.1,0.6-0.3c0.5,0,0.8,0,1.1,0.1c0.9-0.3,1.7-0.4,2.3-0.5l1.7-0.2c0.4-0.3,0.6-0.5,0.6-0.7l0-0.2c-0.4,0-0.9,0-1.5-0.1
	c0-0.2,0.1-0.4,0.4-0.5l3.2-0.3l1.4-0.4c0,0.2,0.1,0.2,0.2,0.2c0.1,0,0.4-0.1,0.6-0.3c0.1,0,0.2,0,0.2,0c-0.2,0.4-0.4,1-0.6,1.7
	l-0.4,0c0-0.3-0.1-0.5-0.2-0.8l-0.2,0c-3.8,10.7-5.6,15.7-9.1,23.9c-0.6,2.1-1.2,3.3-1.7,3.5c0,0.2,0.2,0.4,0.4,0.3
	c0.1,1-0.1,2.1-0.7,3.1c-1.6,4.7-2.7,7.3-3.3,7.8l0.4,2.2c0,0.2-0.1,0.4-0.4,0.4l-0.4,0c-0.1-0.6-0.3-0.9-0.7-0.9l-0.2,0
	c-0.5,0.8-0.9,1.7-1.1,2.7l0.4,0c0.5-0.3,0.8-0.7,0.7-1.2l0.8-0.1l0.4,0.2c-0.4,0.6-0.5,1-0.5,1.3l0.2,0.4l-0.5,1.2l0,0.2
	c0.4,0,0.9,0.1,1.4,0.4c0.4,0,0.7-0.2,1.2-0.5c0.4,0,2.1-0.1,4.9-0.1l1.4-0.5c1.7,0,2,0,3.5-0.1l0.6-0.1l0.3-0.2l0,0.2
	c1.6-0.1,1.7,0,2.9,0.1l0,0.2l-0.9,0.1l0,0.4c0.3,0,0.5-0.1,0.7-0.3c0.2,0,0.4,0.1,0.4,0.4c-0.4,0-0.8,0.1-1.2,0.3l-0.4-0.1
	c-0.6,0.2-0.5,0.2-0.9,0.2l-0.6-0.1c0,0.1,0,0.2-0.1,0.2c0,0.2,0.1,0.4,0.4,0.3l0.6-0.1l3.2-0.3l1.2-0.3c0,0.1,0.1,0.2,0.2,0.1
	l0.6-0.2l1.1-0.1c0.9-0.1,0.8-0.1,2.7-0.4c0-0.1,0-0.2,0.1-0.2l0,0.2c3-0.5,3.2-0.5,3.7-0.7l0,0.1c0.8-0.2,0.3-0.1,0.5-0.3
	c0,0.1,0.1,0.2,0.1,0.2l0.5,0l0-0.4l-1.1,0l0,0c0,0-0.1,0-0.1,0h-0.1v0c-0.7,0.1-0.7,0-1.2,0.1l-2.7,0.1l0-0.2l1.5-0.2l0.5,0
	l0.3-0.2l0,0.2c2.1-0.2,2.9,0.4,12.7-1.7c0.5,0,0.5-0.5,0.8-1.4c-0.2,0-0.4,0-0.5-0.1c-0.8,0.3-1.2,0.2-2.8,0.4
	c-0.1,0-0.2-0.1-0.3-0.3l0-0.2l1.5,0c0.3,0,0.8-0.1,1.6-0.5C224.7,134.3,224.4,134.3,224.6,134.3z M151.8,135.5l-0.7,0.1
	c0-0.3,0.3-1.3,1.1-3.2l0.5,0C152.7,132.8,152.4,133.8,151.8,135.5z M152.7,132.1l0-0.2c0-0.2,0.1-0.4,0.5-0.5l0,0.2
	C153.1,131.9,153,132.1,152.7,132.1z M161.9,139.3l0,0.2l-1.2,0.1l0-0.2L161.9,139.3z M160.5,139.1c0,0.2-0.3,0.5-1.1,0.8l-1.4-0.1
	l-0.5,0l0-0.4L160.5,139.1z M169.8,96.2l-0.7,0.1l0-0.2c0-0.2,0.1-0.4,0.4-0.5l0.3,0l0.5,0.2C170.3,96,170.2,96.1,169.8,96.2z
	 M180.4,94.1l0.2,0l0,0.4l-0.6,0.1C180,94.3,180.1,94.2,180.4,94.1z M177.7,95l-1-0.1l0-0.2c1.4-0.1,1.8-0.3,2.7-0.5
	c0,0.2,0.2,0.2,0.4,0.2l0,0.4l-0.4,0c-0.3,0-0.6,0-0.8-0.1C178.3,94.9,178,95,177.7,95z M179.1,98.9l0-0.2l1.7-0.2l0,0.2L179.1,98.9
	z M180.9,97.4l0-0.2l0.8-0.1l0,0.2L180.9,97.4z M181.1,94.5l-0.2,0l0.2-0.5l1.9-0.2l0,0.2C182.5,94.2,181.8,94.3,181.1,94.5z
	 M182,98.6l0-0.4l0.8-0.1c0.3,0,0.4,0.1,0.4,0.4L182,98.6z M187,91.7L186,92l-0.2,0c-0.5,0-1.2,0-1.9,0
	C185.2,91.9,186.6,91.8,187,91.7z M185.9,96.5l0,0.2l-1.5,0.1l0-0.2L185.9,96.5z M188.3,97.6c0-0.2-0.3-0.3-0.9-0.4l-1.5,0.4l-1.1,0
	c-0.3-0.2-0.4-0.3-0.4-0.4l1.3,0.1l2.9-0.5l1.5,0.1l0,0.2C189.4,97.3,188.8,97.4,188.3,97.6z M203.3,93.7c0.2,0,0.3,0,0.3,0
	c0.5-0.5,1.1-0.9,1.8-1.2c-0.5,2.3-1.4,4.1-2.5,5.2l-0.8-0.5C202.8,95.5,203.2,94.3,203.3,93.7z M200.8,98.1l0.2,0
	c-0.3,0.5-0.5,0.8-0.7,0.8l0-0.6C200.4,98.3,200.6,98.2,200.8,98.1z M199.2,102c0.4-1.6,0.8-2.5,1.1-2.7l0,0.2
	c-0.2,1.5-0.5,2.3-1,2.3l0.1,0.9c-0.4,0.5-0.5,0.9-0.5,1.2l-0.2,0l-0.1-1.3C198.8,102.6,199,102.4,199.2,102z M198.5,104.1
	c0,0.2-0.1,0.7-0.4,1.5l-0.2,0l0-0.6C198.1,104.5,198.4,104.1,198.5,104.1z M186.6,138.7l0-0.2l0.4,0l0,0.6
	C186.8,139.1,186.7,139,186.6,138.7z M203.6,139.2c0-0.1-0.1-0.2-0.2-0.2l-1,0.1l0-0.2h0.1l2.3-0.2l0,0.2
	C204.2,138.9,203.8,139,203.6,139.2z M202.5,138.7c0.1,0,0,0.1,0,0.1C202.5,138.8,202.4,138.7,202.5,138.7z M202.6,136l-1.3,0.1
	l0-0.2l1.2-0.1l1-0.3c0,0.1,0.1,0.2,0.2,0.1c1.2-0.2,1.1-0.3,1.7-0.3c0.2,0,0.3,0.1,0.3,0.3L202.6,136z M207.1,135.6
	c-0.7-0.1-0.8-0.1-1.3-0.1l0-0.2l1.1-0.1l0,0.2C206.8,135.5,207.3,135.5,207.1,135.6z M207.2,135.4l0-0.2l0.6-0.1l0,0.2L207.2,135.4
	z M208.5,135.3l0-0.2c0.1,0,0.3-0.1,0.4-0.2c0.3,0,0.5,0.2,0.5,0.4L208.5,135.3z M210.3,135.1l0-0.2l0.8-0.1l0,0.2L210.3,135.1z
	 M211.3,135c0-0.2,0.1-0.4,0.3-0.4l0.3,0.3c0-0.1,0-0.2,0.1-0.2l0.2,0.4L211.3,135z M200.2,139.8l0-0.4l-0.1,0l0,0.4L200.2,139.8z
	 M226.1,133.1c0.1-0.1,0.2-0.1-0.1-0.2c-0.1,0.1,0.1,0.2-0.1,0.2l0,0.1C225.9,133.2,226,133.2,226.1,133.1l-0.2,0.2v0l-0.3,0.4
	l0.6-0.2h0.1l0-0.4L226.1,133.1z M227.2,133.9l-0.1,0l0,0.4l0.9-0.1C228,134,227.4,133.9,227.2,133.9z M225.9,133.3L225.9,133.3
	L225.9,133.3C225.9,133.3,225.9,133.3,225.9,133.3z"/>
<path class="st3" d="M169.2,106l0,0.2l0.5,0c0-0.1,0-0.4,0.1-0.7l0-0.4C169.6,105.1,169.4,105.4,169.2,106z M164.5,94.7l0-0.4
	l-0.7,0.1l0,0.4L164.5,94.7z M151,120.1c0-0.4-1.3-2-3.7-4.7c0-0.5,0.8-1.3,2.5-2.2l4.9-4.3c1.1-1.4,1.8-3.7,2-6.8l-0.1-0.7
	c-0.2-2.2-1.8-3.9-4.8-5.3c-1.8-1.2-5-1.9-9.6-2c-3.8,0.3-8.8,1.7-14.9,4.1c-1.7,1.2-3.6,2.4-5.8,3.6l0,0.4c0.1,0,0.3-0.1,0.6-0.3
	c0.3,0,0.4,0.1,0.4,0.3l0.4-0.2l0.2,0l0,0.2c0,0.2-1.3,1.2-4,3.1l0.2,0.4l-0.2,0l-0.4-0.2c0,0.1-0.2,0.2-0.5,0.3l0,0.2l0.4,0.5
	c-0.1,0-0.3,0-0.6-0.1c-0.6,0.1-1.2,0.4-1.8,1l0.3-1.1c0.9-3.9,1.5-7.3,1.8-10.3l0-0.2c-0.6-0.4-1.2-1-1.8-1.7c0-0.5,0-0.7,0-0.8
	l0-0.2l-0.2,0c-1.9,2.9-5.7,7.9-11.3,15c-4.2,5-6.4,7.8-6.6,8.4c-1.7,1.8-2.6,2.9-2.5,3.2c-0.5,0.3-0.6,0.6-0.6,0.9
	c-0.1,0-0.2,0-0.3-0.1c-0.7,1.2-1.8,2-3.3,2.3l-1.5,0.4c-0.2,0-0.3,0.2-0.3,0.4l0,0.2l0.6-0.1l0,0.2l-1.3,0.5l-2.3,0.5l-1.2,0.1
	c-0.2,0.2,1,0,0.5,0.1l-1.5,0.4c-0.9,0.2-1.4,0.1-1.5-0.2l-0.2,0c0,0.2,0,0.3,0,0.4l-0.1-0.4l-1.2,0.3c-0.1-0.6-1.7-2.6-4.9-6.1
	c-0.1-0.7,1.1-1.7,3.4-3l6.5-5.7c1.4-1.9,2.3-4.8,2.6-9l-0.1-1c-0.3-2.9-2.3-5.2-6.3-7c-2.3-1.6-6.5-2.4-12.6-2.6
	c-5,0.4-11.6,2.2-19.6,5.3c-2.2,1.6-4.7,3.2-7.6,4.8l0,0.5c0.2,0,0.4-0.1,0.8-0.3c0.3,0,0.5,0.1,0.5,0.4l0.5-0.3l0.3,0l0,0.2
	c0,0.2-1.7,1.6-5.3,4.1l0.3,0.4l-0.3,0l-0.5-0.2c0,0.1-0.2,0.3-0.8,0.3l0,0.3l0.6,0.7c-0.2,0-0.5,0-0.8-0.2
	c-1.2,0.1-2.3,0.9-3.4,2.5l0.3,0.4c1-0.9,1.5-1.3,1.7-1.3l0.1,0.7c-0.2,0-0.4,0.1-0.8,0.3l0.6,0.9c1.2-1.3,2.5-2.3,3.9-3.2
	c0.7,0.2,1.1,0.4,1.1,0.6l0.5,0c3.8-2.8,7.6-4.9,11.3-6.1l0,0.5c-0.7,1-1.2,1.6-1.4,1.6c0,0.4,0.1,0.7,0.4,0.9
	c0.1,0.6-1.6,4.9-5.1,12.8c-7.8,18.4-14.4,32-19.7,40.8c0,0.2,0.1,0.4,0.3,0.7c1.3-0.3,2.1-0.6,2.5-0.9l0.3,0l0,0.5l0.5,0l0.5-0.3
	c0,0.1,0.2,0.2,0.5,0.2l0,0.5c0,0.5-0.2,1.2-0.8,2.2c-0.5,0.6-1.1,1.9-1.7,3.8l0,0.2l0.5,0c2.1-2.4,3.7-4.7,4.8-7
	c6.2-1.8,10.9-3.6,14.2-5.4c3.3-0.3,5.8-1.2,7.5-2.6l0-0.3l-1.2,0.4l-0.3,0l0-0.3c2.4-0.4,4.1-0.9,5-1.6c4.7-3.6,8.3-6.2,10.7-7.7
	c4.9-3.6,8.2-7.2,9.6-10.6c0.3-0.1,0.5-0.1,0.8-0.2c0.7,0,1.1,0,1.2-0.1c0-0.1,0-0.2,0.2-0.2c1.1-0.1,0.6,0.1,1.3-0.1l1.9-0.4
	l0.3-0.1l-0.1,0.1c0.2,0,0.4,0,0.7,0l0.1,0.5l-8.5,13.5l-1.9,2.3L76,149l0.2,0l0.9-0.4l-0.3,1.2l0.1,0.4l0.3,0.3
	c-0.1,0-0.2,0.1-0.1,0.2l0,0.2l0.4-0.1c0.6-0.5,0.8-0.9,0.7-1.3c0.6,0.1,1,0.1,1.2,0.1l0,0.2c-0.4,0.1-0.6,0.4-0.6,0.9l0,0.2l0.2,0
	c3.1-3.4,10.6-14.8,16.6-22.6c-0.2-0.8,3-2,9.5-3.5l0.2,0c0.2,1-0.3,3.5-1.5,7.4c-0.8,2.4-1.2,3.7-1.1,3.9c-1,3.1-1.5,4.8-1.5,5.1
	l-2.3,7.5c-1.5,3.9-2.6,7.9-3.4,12.2c0.1,0,0.3,0,0.6,0.1l0.3-0.3c0,0.1,0.1,0.2,0.3,0.1l-0.1-0.5l1,0c0.3-0.1,0.5-0.4,0.8-1.1
	c0-1,0.2-1.6,0.6-1.7c0.6-2.4,1-3.6,1.1-3.7c0.6-2.4,1-3.8,1.3-4.1c0.9-3.1,1.5-4.7,1.9-4.8l0.1,0.4l-0.6,1.6
	c-1.1,4.9-2.2,8.8-3.4,11.7l0.3,1.4l0.2,0c2.7-5.9,6.7-17.6,11.9-35.1c0.1-1.5,0.9-2.7,2.2-3.6l-0.3-0.3l0-0.2
	c0.6-0.1,1-0.4,1.2-0.7c0-0.1-0.5-0.3-1.6-0.6l2.6-11c0.6-0.5,0.9-0.8,1-0.8l0,0.6c-0.1,0-0.3,0.1-0.6,0.3l0.5,0.7
	c0.9-1,1.8-1.8,2.9-2.5c0.5,0.1,0.8,0.3,0.8,0.5l0.4,0c2.9-2.1,5.8-3.7,8.6-4.6l0,0.4c-0.5,0.8-0.9,1.2-1.1,1.2
	c0,0.3,0.1,0.5,0.2,0.7c0,0.5-1.2,3.7-3.8,9.8c-5.9,14-10.9,24.3-15,31c0,0.1,0.1,0.3,0.3,0.5c1-0.2,1.6-0.5,1.9-0.7l0.2,0l0,0.4
	l0.4,0l0.4-0.2c0,0.1,0.1,0.1,0.4,0.1l0,0.4c0,0.4-0.2,0.9-0.6,1.7c-0.4,0.5-0.9,1.4-1.3,2.9l0,0.2l0.4,0c1.6-1.8,2.8-3.6,3.7-5.3
	c4.7-1.4,8.3-2.7,10.8-4.1c2.5-0.2,4.4-0.9,5.7-2l0-0.2l-1,0.3l-0.2,0l0-0.2c1.8-0.3,3.1-0.7,3.8-1.2c3.6-2.7,6.3-4.7,8.1-5.9
	C148.6,127.9,151.3,123.9,151,120.1z M150,120.3l0.1,1.5c-0.2,0.4-0.4,0.6-0.5,0.6l-0.2-2.5C149.8,120,150,120.2,150,120.3z
	 M38.1,108.3l-0.3,0l0-0.5l1-0.1l0,0.2C38.7,108,38.5,108.1,38.1,108.3z M33.2,158.1c-0.6-0.3-1.1-0.4-1.6-0.3l-0.1-0.7
	c0-0.3,0.1-0.5,0.5-0.5c0.3,0,0.5,0.2,0.5,0.7c0.9-1,1.3-1.6,1.4-1.6l0.5,0.2C34.3,157.3,33.9,158.1,33.2,158.1z M86.3,102.5
	c-0.3,0-0.8-0.8-1.5-2.3l0-0.5c0.5,0,1,0.7,1.5,2.3L86.3,102.5z M85.6,97l-0.2,0.5l-7.2-3C83,94.6,85.5,95.4,85.6,97z M55.1,123.2
	l-1,0.1l0-0.5l1-0.1L55.1,123.2z M54.3,107.4l0.3,0l0.1,0.7c-0.2,0-0.5,0.4-0.9,1l0-0.5C54.1,108.1,54.3,107.7,54.3,107.4z
	 M52.2,112.5l0.1,1l-0.3,0l-0.1-1L52.2,112.5z M51,114.3l0.5,0c0,0.8-0.3,1.2-0.7,1.3l-0.3,0C50.9,115,51.1,114.6,51,114.3z
	 M50.2,116.8l0.3,0l0,0.2l-0.5,0.8l-0.5,0l0-0.2C50,117.5,50.2,117.3,50.2,116.8z M49.4,119l-0.1,1.2l-0.3,0l-0.1-1.2L49.4,119z
	 M41.1,142.6c-0.3,1.7-0.7,2.5-1,2.5l0-0.2C39.9,144.1,40.3,143.3,41.1,142.6z M39.6,145.9l0,0.2c0,0.3-0.1,0.5-0.4,0.5l0-0.2
	C39.1,146.1,39.2,146,39.6,145.9z M39.1,152.7l0.8-0.1l0,0.3c-0.2,0-0.4,0.1-0.8,0.3l-0.5,0C38.6,153,38.8,152.8,39.1,152.7z
	 M61,146c-4.3,2.1-6.9,3.6-7.6,4.3c-4.7,1.6-7,2.6-6.9,3c-4.2,1.6-6.9,2.9-8.2,3.6c-0.3,0-0.8-0.1-1.3-0.4c-0.1-0.8,0.3-1.5,1.1-2.1
	c0.7-0.1,1.4,0,2.1,0.3c0.8-0.4,2.1-0.8,4-1.3l0-0.5l-1.5,0.1c0.2-0.3,1.7-1,4.4-2.1l0.8-0.1l0,0.2c-1.3,0.1-2,0.5-2.2,1.2
	c0,0.3,0.2,0.4,0.5,0.4c1-0.6,1.5-1,1.5-1.1c1.9-0.4,7.1-3.1,15.6-8.1l0,0.5C63.2,144.3,62.4,144.9,61,146z M48,150.3
	c1.2-0.1,2.3-0.6,3.2-1.5c0.4,0,0.5,0.1,0.6,0.4c-0.6,0.1-1.8,0.6-3.5,1.5l-0.3,0L48,150.3z M69,134.1l-6.5,5.2
	c-4.8,3.2-7.4,4.8-7.8,4.8c-7.7,4.2-12.5,6.4-14.4,6.6l-0.3,0c0.2-0.9,3.7-7.9,10.3-21.1c2.9-0.3,7.5-1.6,13.8-4.1l1.5-0.1
	c3.2-0.3,5.6,0.3,7.1,1.8l0.1,1C71.7,131.6,70.4,133.5,69,134.1z M56.2,127l1-0.1l0,0.2l-1,0.1L56.2,127z M71,124.5l0.8-0.1
	c0.7,0.3,1.1,0.6,1.1,0.9l0,0.2C72.2,125.6,71.5,125.2,71,124.5z M73.1,112.6c-0.7,0.8-2.5,2.2-5.6,4.2c-1,0.1-4.7,1.5-11.2,4.4
	c-0.3-0.1-0.7-0.2-1-0.2l0-0.5c-0.1-0.9,0.3-2.1,1.3-3.5c0.5-2.7,1-4.2,1.7-4.5l5.4-12.1c-0.1-0.8,1.1-1.3,3.5-1.7l0.8-0.1l0.1,0.7
	c2.3-0.4,3.8-0.6,4.3-0.6c4.3-0.4,6.5,0.5,6.7,2.6l0.5,0l-0.1-1.2l0.5,0c1.3,0.7,1.9,1.5,2,2.5c0.1,0.7-0.3,1.5-1.1,2.5
	c-0.3,0-0.5-0.2-0.5-0.7l-0.5,0l-0.1,1.5c-2.2,3.2-3.8,4.9-4.7,5C73.8,112,73.3,112.6,73.1,112.6z M76.4,121.1
	c-0.4-0.3-0.8-0.4-1.1-0.4l-0.1-0.7l0.5,0l1.1,0.6C76.8,120.9,76.7,121.1,76.4,121.1z M79.8,125.2c0.5,0.2,0.8,0.4,0.8,0.6l-0.2,0.1
	l0,0c0,0-0.1,0-0.1,0l-0.4,0.3L79.8,125.2z M80.1,127.2l0-0.2l0.6-0.1l0,0.2L80.1,127.2z M81.6,128.9c0.6-0.1,0.9-0.1,2.1-0.4l0,0.2
	l-2.2,0.5C81.6,129.1,81.6,129,81.6,128.9z M83.8,129.8c-0.9,0.1-0.7,0-2.2,0.3l0-0.2l1.9-0.6l0.9-0.2l0.1,0.4
	C84,129.5,84.3,129.5,83.8,129.8z M85.8,129.3c-0.2,0.1-0.4,0-0.5-0.3l0.6-0.1c0.3-0.1,0.4,0,0.5,0.3L85.8,129.3z M91.2,123.5l0-0.2
	l0.9-0.2l0.1,0.4L91.2,123.5z M97,158.9c0.1-0.3,0.1-0.5,0-0.6l0.2,0c0.3-0.1,0.4,0,0.5,0.3l0,0.2L97,158.9z M101,125l-0.4-0.1
	c-0.7,0.3-1.2,0.5-1.7,0.6l-0.4,0.1c-0.2,0.1-0.4,0-0.5-0.3l2.7-0.6l0.9-0.4l0.3,0.3C101.5,124.7,101.2,124.9,101,125z M103.1,124.4
	l0-0.2c0.1,0,0.3-0.1,0.5-0.3l1.9-0.4l0,0.2C104.5,123.8,103.7,124.1,103.1,124.4z M103.4,120.5c-0.1,0-0.3,0.1-0.5,0.3
	c0-0.1-0.3-0.1-0.8,0c-0.1-0.4,1.3-0.9,4.3-1.6l0.4-0.1l0.1,0.4C104.8,120.1,103.6,120.4,103.4,120.5z M108.6,114.9
	c-0.2,2.3-1,3.7-2.5,4l0-0.2l-1.3,0.5l-0.6,0.1c-0.3,0.1-0.6,0.1-0.8,0l-0.1-0.5c0-0.2,1.8-2.8,5.6-7.8l0.4,0.1
	C109.5,111.8,109.2,113,108.6,114.9z M117.7,107.1l-0.2,0l0-0.4l0.8-0.1l0,0.2C118.1,106.9,118,106.9,117.7,107.1z M113.9,144.9
	c-0.4-0.2-0.8-0.3-1.2-0.3l0-0.6c0-0.2,0.1-0.3,0.4-0.4c0.3,0,0.4,0.1,0.4,0.5c0.6-0.8,1-1.2,1.1-1.2l0.4,0.2
	C114.8,144.3,114.5,144.8,113.9,144.9z M154.3,102.6c-0.2,0-0.6-0.6-1.1-1.8l0-0.4c0.4,0,0.8,0.5,1.1,1.7L154.3,102.6z M153.8,98.4
	l-0.2,0.4l-5.5-2.3C151.8,96.6,153.7,97.3,153.8,98.4z M130.6,118.3l-0.8,0.1l0-0.4l0.8-0.1L130.6,118.3z M130,106.4l0.2,0l0,0.6
	c-0.2,0-0.4,0.3-0.7,0.8l0-0.4C129.8,106.9,130,106.6,130,106.4z M128.4,110.2l0.1,0.7l-0.2,0l-0.1-0.7L128.4,110.2z M127.5,111.6
	l0.4,0c0,0.6-0.2,0.9-0.5,1l-0.2,0C127.4,112.1,127.5,111.8,127.5,111.6z M126.9,113.5l0.2,0l0,0.2l-0.3,0.6l-0.4,0l0-0.2
	C126.7,114.1,126.9,113.8,126.9,113.5z M126.3,115.2l-0.1,0.9l-0.2,0l-0.1-0.9L126.3,115.2z M119.9,133.1c-0.3,1.2-0.5,1.9-0.8,1.9
	l0-0.2C119.1,134.2,119.4,133.6,119.9,133.1z M118.8,135.6l0,0.2c0,0.3-0.1,0.4-0.4,0.4l0-0.2C118.4,135.8,118.5,135.7,118.8,135.6z
	 M118.5,140.8l0.6,0l0,0.2c-0.1,0-0.3,0.1-0.6,0.2l-0.4,0C118.1,141,118.2,140.9,118.5,140.8z M135,135.7c-3.2,1.6-5.2,2.7-5.8,3.3
	c-3.5,1.2-5.3,2-5.3,2.3c-3.1,1.3-5.2,2.2-6.2,2.7c-0.2,0-0.6-0.1-1-0.3c-0.1-0.6,0.2-1.2,0.9-1.5c0.6,0,1.1,0,1.6,0.2
	c0.6-0.3,1.6-0.6,3.1-1l0-0.4l-1.2,0.1c0.1-0.2,1.3-0.7,3.4-1.6l0.6,0l0,0.2c-1,0.1-1.6,0.4-1.7,0.9c0,0.2,0.2,0.4,0.4,0.3
	c0.7-0.5,1.1-0.8,1.1-0.9c1.4-0.3,5.3-2.3,11.8-6.2l0,0.4C136.7,134.4,136.2,134.9,135,135.7z M125.1,138.9c1-0.1,1.8-0.5,2.5-1.1
	c0.3,0,0.4,0.1,0.4,0.3c-0.4,0-1.3,0.4-2.6,1.1l-0.2,0L125.1,138.9z M141.1,126.7l-4.9,4c-3.7,2.4-5.7,3.6-6,3.6
	c-5.8,3.2-9.5,4.9-10.9,5l-0.2,0c0.2-0.7,2.8-6,7.8-16c2.2-0.2,5.7-1.2,10.5-3.1l1.2-0.1c2.4-0.2,4.2,0.3,5.4,1.4l0.1,0.7
	C143.2,124.7,142.2,126.2,141.1,126.7z M131.5,121.2l0.8-0.1l0,0.2l-0.8,0.1L131.5,121.2z M142.7,119.3l0.6,0
	c0.5,0.3,0.8,0.5,0.8,0.7l0,0.2C143.6,120.2,143.1,119.9,142.7,119.3z M144.2,110.3c-0.5,0.6-1.9,1.7-4.2,3.2
	c-0.8,0.1-3.6,1.2-8.5,3.3c-0.2-0.1-0.5-0.1-0.8-0.1l0-0.4c-0.1-0.7,0.3-1.6,0.9-2.7c0.4-2,0.8-3.2,1.3-3.4l4.1-9.2
	c0-0.5,0.8-1,2.6-1.3l0.6,0l0,0.6c1.7-0.3,2.8-0.4,3.3-0.5c3.2-0.3,4.9,0.4,5.1,2l0.4,0l-0.1-0.9l0.4,0c0.9,0.5,1.4,1.1,1.5,1.9
	c0,0.5-0.2,1.2-0.8,1.9c-0.3,0-0.4-0.1-0.4-0.5l-0.4,0l-0.1,1.1c-1.6,2.5-2.8,3.8-3.6,3.8C144.8,109.8,144.4,110.3,144.2,110.3z
	 M145.9,116.5l0-0.6l0.4,0l0.8,0.5c0,0.2-0.1,0.4-0.4,0.4C146.4,116.5,146.1,116.4,145.9,116.5z M77.2,152.3l-0.4,0.1l-0.3,0.3
	c0.1,0.2,0.2,0.3,0.5,0.3c0.3-0.1,0.4-0.2,0.3-0.4L77.2,152.3z M75.7,149.4l0,0.2c0.3-0.1,0.4-0.2,0.3-0.4l0-0.2
	C75.8,149,75.7,149.2,75.7,149.4z M86.2,129.8l0.3-0.2c-0.1,0-0.1,0-0.1,0C86.2,129.6,86.2,129.7,86.2,129.8z M86.1,124.7l0.4-0.1
	l-0.1-0.4l-0.4,0.1L86.1,124.7z M190.5,139.6l-1-0.1l-0.2,0.4l0,0.2l6-0.5l0-0.4L190.5,139.6z M196,139.1l0,0.4h0.1L196,139.1
	L196,139.1z M221.1,135.9l0,0.4l0.6,0.1l0-0.4L221.1,135.9z M220.1,135.9c-4.5,1-5.1,0.8-6,0.9l0,0.4l0.4,0l0.2,0l-0.1,0l0.5-0.2
	c4.4-0.5,5-0.3,4.9-0.8L220.1,135.9z M193.2,129.4l-0.4-0.1c-0.3,0.9-0.5,1.4-0.5,1.5l0,0.2C192.6,131,192.9,130.4,193.2,129.4z
	 M187.8,126.5l0-0.2l-0.2,0l-0.4,0.2l0.2,0.4C187.7,126.9,187.8,126.8,187.8,126.5z M199.5,138.6l0-0.4l-0.1,0l0,0.4L199.5,138.6z
	 M223.9,133.2l0.3,0c0.2,0,0.2-0.1,0.2-0.4l-0.2-0.4c-1,0.1-1.5,0.1-2.3,0.6l0-0.2l-1.2,0.1c0-0.4-0.1-0.6-0.3-0.5l-0.6,0.1
	c-0.7,0.1-1.1,0-1.5,0.3c0-0.1-0.1-0.2-0.1-0.2l-0.7,0.1l-0.4,0.2c0-0.1-0.1-0.2-0.1-0.2l-0.3,0.2l0-0.2l-1-0.1l-0.2,0l0,0.4
	l0.5,0.1l0.5,0c0.2,0.1,0.3,0.1,0.5,0.1l0.4-0.2l0,0.2c-2.3,0.6-2.3,0.5-3.9,0.7c-0.2-0.1-0.3-0.2-0.4-0.2l0,0
	c-0.2,0-0.3-0.1-0.3-0.3l0.8-0.1c0.1,0,0.1,0.1,0.6,0.1c0.7-0.3,0.7-0.5,1-0.5l0-0.4c-2.3,0.4-1.4,0.1-4.2,0.4l-0.1,0l0-0.4
	c3.7-0.4,2.4-0.2,3.7-0.5c0,0.1,0.1,0.2,0.1,0.2c0.1-0.1,0.3-0.2,0.5-0.3l0.3,0c1.3-0.1,1.7,0.1,4.3-0.6l0,0.2l0.4-0.2l0.4,0
	c0-0.4,0.5-0.4,0.7-0.4l0-0.4c-4.5,0.9-5.6,0.7-6.9,1l0-0.2c-1.2,0.2-1.2,0.1-1.5,0.1c-0.1,0-0.2,0.1-0.4,0.2c0-0.1-0.1-0.2-0.1-0.2
	c0,0-0.1,0-0.1,0l-3.8,0.6c0-0.1-0.1-0.2-0.1-0.1c-2,0.4-1.4,0.5-4.1,0.7c-0.1,0-0.3,0.1-0.5,0.2c0-0.1-0.1-0.2-0.2-0.1l-1.6,0.1
	l-1.1,0.3c0-0.1-0.1-0.2-0.2-0.1c-0.6,0.2-1.1,0.3-1.6,0.3h0c-0.3,0,0.1-0.1-0.1-0.2l-0.3,0.2c-0.5,0-0.2,0-1.8,0
	c-2.9,0.4-2.5,0.4-2.9,0.4l-1.1-0.1c0,0.1,0,0.2-0.2,0.2c-1.2-0.2-1.8-0.4-1.8-0.6c0.2-1.2,0.4-1.7,0.8-1.8l0.2,0l-0.2,0.4l0.2,0
	c0.4-0.2,0.6-0.4,0.5-0.6l0-0.4l-0.4,0l0-0.4c0-0.3,0-0.5,0.1-0.7l0.9-1.4l0,0.4l0.4,0l0-0.4l-0.2-0.3c0.3-0.3,0.5-0.4,0.7-0.4
	l0-0.2l-0.6,0l0-0.6c1.1-2.3,1.7-3.7,1.6-4.1l0.4,0.2c0.3,0,0.4-0.2,0.4-0.4l-0.4,0l0-0.2c0-0.3,0-0.5,0.1-0.8
	c0.6-0.6,0.9-1.3,0.8-1.9c0.1,0,0.2,0,0.2,0.2c0.5-0.3,0.9-1.1,1.2-2.4c0.9-1.7,2.2-5,3.9-9.9c3.2-8.7,3.1-9.7,3.6-11.7l-0.4,0
	c0,0.3,0,0.5-0.1,0.8c-0.3-0.1-0.5-0.2-0.6-0.1l0-0.2c-0.1-0.8,0.3-1.7,1-2.7l0.2,0l0.3,1.3l0.4,0c0-0.1,0.1-0.6,0.3-1.5
	c0-0.2-0.2-0.3-0.5-0.3l-0.4,0.2c0-0.3,0-1,0-2.1l-0.2,0c-0.3-0.3-0.5-0.6-0.5-0.8l-2.1,0.2c0-0.1-0.1-0.4-0.2-0.6
	c0-0.2,0.5-0.4,1.4-0.6l0.4,0.2l0.4-0.2c0,0.1,0.1,0.2,0.2,0.2l0.4-0.2c0,0.1,0.1,0.2,0.2,0.2l0.2,0l0-0.4c-0.3,0-1.1,0-2.3,0
	l-0.4,0.3l0-0.2c-9.9,0.8-15.5,1.3-16.9,1.4c-0.2,0-0.9,0-2.1,0c0,0.2-0.1,0.3-0.4,0.3l-0.4-0.2l-1.4,0.4c-0.3,0-0.9,0-1.7-0.1
	c-0.2,0.2-0.5,0.3-0.8,0.3c-0.2,0,2.1-0.1,4.2-0.3c-0.2,0.2-0.6,0.3-1,0.3c-0.3,0-0.6,0-0.8-0.1c-0.3,0.1-1.4,0.4-3.1,0.7l-0.4-0.2
	l-6.9,1.1c-0.3-0.1-0.6-0.2-0.9-0.1c-0.4,0-1,0.2-1.8,0.4l-3.3,1.4l0.3,0.4c0.2,0,0.4-0.1,0.7-0.3l1.2,0.1l-0.1,1.1
	c-1.1,0.5-1.7,1.2-1.9,2.1c-1.6,0.7-2.5,1.2-2.5,1.6l0,0.2l0.3,0l0.4-0.2l0.5,0.6l0.1,0.9c0,0.3-2.7,6.1-8.3,17.4
	c-4.8,10.9-7.3,16.9-7.5,18c-1.6,0.5-2.6,1.1-2.9,2c0,0.3,0.5,0.5,1.5,0.5l0,0.4l-0.4,0.7l0.1,0.9c0,0.4,1.2,0.8,3.6,1
	c0-0.1,0.1-0.2,0.2-0.3c0,0.5-0.1,1.6-0.4,3.1l0.3,0c1-1.3,1.4-2.2,1.4-2.7l0.2,0c0.2,0,0.5,0.3,0.8,0.8c-0.3,0.1-1.3,2.5-3.1,7.1
	l0.3,0.4l0.3,0c2.2-5.5,3.5-8.5,4.1-9.1c2.9-0.3,7.8-0.8,14.8-1.5l0.4-0.3c0,0.1,0.1,0.2,0.3,0.2l0.5,0l0.4-0.3
	c0,0.1,0.1,0.2,0.3,0.2l5.3-0.5c1.4-0.1,2.1-0.5,2-1.3c0-0.2,0.8-0.4,2.5-0.6c0.2,0,0.4,0,0.7,0.1c0-0.1,0.8-0.3,2.5-0.4
	c0-0.9,0.3-1.4,0.8-1.4l0-0.4c-0.5,0-1,0.2-1.6,0.4c-1.1-0.1-1.8-0.1-2.1-0.3c-0.3,0.2-0.5,0.3-0.7,0.3l-3.7,0.1l-0.4,0.2
	c0-0.1-0.1-0.2-0.3-0.2l-0.2,0l-0.5,0.2c0-0.1-0.4-0.2-1.2-0.3l-0.5,0.3l-0.9,0.1l0-0.2c4.8-0.5,7.1-1.2,7-1.9
	c0.3,0,0.5,0.1,0.5,0.4l1.4-0.4l0-0.4l-11.4,0.3c0,0.1-0.1,0.2-0.2,0.3l-1.4-0.1c-0.4,0-0.6,0.1-0.9,0.3l-0.5-0.2
	c-1.4,0.1-2.5,0.3-3.2,0.5c-1-0.1-2.1-0.1-3.2,0l-2.6,0.2l-1.2-0.1c-0.1-0.8,1.4-4.5,4.4-11.1c0.9-2.2,1.7-3.6,2.4-4.2
	c0.2,0,0.4,0,0.7,0.2l1.8-0.6l0.9,0.1c1.6-0.1,3.4-0.6,5.5-1.3c0.5,0,0.9,0,1.2,0.1l1.4-0.3l4.1-0.4c1.8-0.1,3.7-0.5,5.7-1.2l0-0.4
	c-0.8,0.1-1.2-0.1-1.2-0.4c0-0.6-0.6-0.8-1.7-0.7l0-0.4l1.1-0.3l3-0.3l0-0.4c-0.1,0-0.7,0-1.8,0l0-0.5l1.2-0.1
	c0.3,0,0.4-0.2,0.4-0.5c-1.6,0-2.3,0-2.3-0.2c-10.8,0.5-16.2,0.6-16.3,0.3c-0.2,0-0.4,0.1-0.7,0.3l-0.3-0.4c2.9-6.1,4.5-9.2,5-9.2
	c0,0.2-0.1,0.6-0.4,1.1l0,0.2l0.5,0c1.1-2.7,2.1-4.1,2.9-4.2c3.4-0.3-0.5-0.5,6.8-1.7c0.3,0.1,0.5,0.2,0.7,0.2
	c2.9-0.6,6.8-1.2,11.9-1.8l0-0.4l-2.7,0.3l0-0.4c0.3,0,0.6-0.1,0.8-0.3l0,0.2c0.1,0,0.4-0.1,0.6-0.3c0.5,0,0.8,0,1.1,0.1
	c0.9-0.3,1.7-0.4,2.3-0.5l1.7-0.2c0.4-0.3,0.6-0.5,0.6-0.7l0-0.2c-0.4,0-0.9,0-1.5-0.1c0-0.2,0.1-0.4,0.4-0.5l3.2-0.3l1.4-0.4
	c0,0.2,0.1,0.2,0.2,0.2c0.1,0,0.4-0.1,0.6-0.3c0.1,0,0.2,0,0.2,0c-0.2,0.4-0.4,1-0.6,1.7l-0.4,0c0-0.3-0.1-0.5-0.2-0.8l-0.2,0
	c-3.8,10.7-5.6,15.7-9.1,23.9c-0.7,2.1-1.2,3.3-1.7,3.5c0,0.2,0.2,0.4,0.4,0.3c0.1,1-0.1,2.1-0.7,3.1c-1.6,4.7-2.7,7.3-3.3,7.8
	l0.4,2.2c0,0.2-0.1,0.4-0.4,0.4l-0.4,0c-0.1-0.6-0.3-0.9-0.7-0.9l-0.2,0c-0.5,0.8-0.9,1.7-1.1,2.7l0.4,0c0.5-0.3,0.8-0.7,0.7-1.2
	l0.8-0.1l0.4,0.2c-0.4,0.6-0.5,1-0.5,1.3l0.2,0.4l-0.5,1.2l0,0.2c0.4,0,0.9,0.1,1.4,0.4c0.4,0,0.7-0.2,1.2-0.5
	c0.4,0,2.1-0.1,4.9-0.1l1.4-0.5c1.7,0,2,0,3.5-0.1l0.6-0.1l0.3-0.2l0,0.2c1.6-0.1,1.7,0,2.9,0.1l0,0.2l-0.9,0.1l0,0.4
	c0.3,0,0.5-0.1,0.7-0.3c0.2,0,0.4,0.1,0.4,0.4c-0.4,0-0.8,0.1-1.2,0.3l-0.4-0.1c-0.6,0.2-0.5,0.2-0.9,0.2l-0.6-0.1
	c0,0.1,0,0.2-0.1,0.2c0,0.2,0.1,0.4,0.4,0.3l0.6-0.1l3.2-0.3l1.2-0.3c0,0.1,0.1,0.2,0.2,0.1l0.6-0.2l1.1-0.1
	c0.9-0.1,0.8-0.1,2.7-0.4c0-0.1,0-0.2,0.1-0.2l0,0.2c3-0.5,3.2-0.5,3.7-0.7l0,0.1c0.8-0.2,0.3-0.1,0.5-0.3c0,0.1,0.1,0.2,0.1,0.2
	l0.5,0l0-0.4l-1.1,0l0,0c0,0-0.1,0-0.1,0h-0.1v0c-0.7,0.1-0.7,0-1.2,0.1l-2.7,0.1l0-0.2l1.5-0.2l0.5,0l0.3-0.2l0,0.2
	c2.1-0.2,2.9,0.4,12.7-1.7c0.5,0,0.5-0.5,0.8-1.4c-0.2,0-0.4,0-0.5-0.1c-0.8,0.3-1.2,0.2-2.8,0.4c-0.1,0-0.2-0.1-0.3-0.3l0-0.2
	l1.5,0c0.3,0,0.8-0.1,1.6-0.5C224,133.1,223.7,133.2,223.9,133.2z M151.2,134.3l-0.7,0.1c0-0.3,0.3-1.3,1.1-3.2l0.5,0
	C152,131.6,151.8,132.6,151.2,134.3z M152,130.9l0-0.2c0-0.2,0.1-0.4,0.5-0.5l0,0.2C152.5,130.8,152.3,130.9,152,130.9z
	 M161.2,138.1l0,0.2l-1.2,0.1l0-0.2L161.2,138.1z M159.8,138c0,0.2-0.3,0.5-1.1,0.8l-1.4-0.1l-0.5,0l0-0.4L159.8,138z M169.2,95
	l-0.7,0.1l0-0.2c0-0.2,0.1-0.4,0.4-0.5l0.3,0l0.5,0.2C169.6,94.8,169.5,95,169.2,95z M179.7,92.9l0.2,0l0,0.4l-0.6,0.1
	C179.3,93.2,179.5,93,179.7,92.9z M177.1,93.9l-1-0.1l0-0.2c1.4-0.1,1.8-0.3,2.7-0.5c0,0.2,0.2,0.2,0.4,0.2l0,0.4l-0.4,0
	c-0.3,0-0.6,0-0.8-0.1C177.6,93.7,177.4,93.8,177.1,93.9z M178.4,97.7l0-0.2l1.7-0.2l0,0.2L178.4,97.7z M180.2,96.2l0-0.2l0.8-0.1
	l0,0.2L180.2,96.2z M180.4,93.3l-0.2,0l0.2-0.5l1.9-0.2l0,0.2C181.8,93,181.2,93.1,180.4,93.3z M181.4,97.4l0-0.4l0.8-0.1
	c0.3,0,0.4,0.1,0.4,0.4L181.4,97.4z M186.4,90.6l-1.1,0.3l-0.2,0c-0.5,0-1.2,0-1.9,0C184.6,90.7,185.9,90.6,186.4,90.6z M185.2,95.3
	l0,0.2l-1.5,0.1l0-0.2L185.2,95.3z M187.6,96.4c0-0.2-0.3-0.3-0.9-0.4l-1.5,0.4l-1.1,0c-0.3-0.2-0.4-0.3-0.4-0.4l1.3,0.1l2.9-0.5
	l1.5,0.1l0,0.2C188.8,96.1,188.1,96.3,187.6,96.4z M202.7,92.5c0.2,0,0.3,0,0.3,0c0.5-0.5,1.1-0.9,1.8-1.2c-0.5,2.3-1.4,4.1-2.5,5.2
	l-0.8-0.5C202.2,94.3,202.6,93.1,202.7,92.5z M200.1,96.9l0.2,0c-0.3,0.5-0.5,0.8-0.7,0.8l0-0.6C199.7,97.2,199.9,97.1,200.1,96.9z
	 M198.5,100.8c0.4-1.6,0.8-2.5,1.1-2.7l0,0.2c-0.2,1.5-0.5,2.3-1,2.3l0.1,0.9c-0.4,0.5-0.5,0.9-0.5,1.2l-0.2,0l-0.1-1.3
	C198.2,101.4,198.4,101.2,198.5,100.8z M197.9,102.9c0,0.2-0.1,0.7-0.4,1.5l-0.2,0l0-0.6C197.5,103.3,197.7,103,197.9,102.9z
	 M185.9,137.5l0-0.2l0.4,0l0,0.6C186.2,137.9,186,137.8,185.9,137.5z M203,138c0-0.1-0.1-0.2-0.2-0.2l-1,0.1l0-0.2h0.1l2.3-0.2
	l0,0.2C203.5,137.7,203.1,137.8,203,138z M201.8,137.5c0.1,0,0,0.1,0,0.1C201.8,137.6,201.7,137.6,201.8,137.5z M202,134.8l-1.3,0.1
	l0-0.2l1.2-0.1l1-0.3c0,0.1,0.1,0.2,0.2,0.1c1.2-0.2,1.1-0.3,1.7-0.3c0.2,0,0.3,0.1,0.3,0.3L202,134.8z M206.4,134.5
	c-0.7-0.1-0.8-0.1-1.3-0.1l0-0.2l1.1-0.1l0,0.2C206.2,134.3,206.6,134.3,206.4,134.5z M206.5,134.3l0-0.2l0.6-0.1l0,0.2L206.5,134.3
	z M207.9,134.1l0-0.2c0.1,0,0.3-0.1,0.4-0.2c0.3,0,0.5,0.2,0.5,0.4L207.9,134.1z M209.6,133.9l0-0.2l0.8-0.1l0,0.2L209.6,133.9z
	 M210.7,133.8c0-0.2,0.1-0.4,0.3-0.4l0.3,0.3c0-0.1,0-0.2,0.1-0.2l0.2,0.4L210.7,133.8z M225.2,132.1L225.2,132.1L225.2,132.1
	C225.2,132.1,225.2,132.1,225.2,132.1z M225.5,131.9c0.1-0.1,0.2-0.1-0.1-0.2c-0.1,0.1,0.1,0.2-0.1,0.2l0,0.1
	C225.3,132,225.3,132,225.5,131.9l-0.2,0.2v0l-0.3,0.4l0.6-0.2h0.1l0-0.4L225.5,131.9z M226.6,132.8l-0.1,0l0,0.4l0.9-0.1
	C227.3,132.8,226.7,132.8,226.6,132.8z"/>
</svg>
