<?xml version="1.0" encoding="utf-8"?>
<!-- Generator: Adobe Illustrator 24.3.0, SVG Export Plug-In . SVG Version: 6.00 Build 0)  -->
<svg version="1.1" id="Layer_1" xmlns="http://www.w3.org/2000/svg" xmlns:xlink="http://www.w3.org/1999/xlink" x="0px" y="0px"
	 viewBox="0 0 256 300" style="enable-background:new 0 0 256 300;" xml:space="preserve">
<style type="text/css">
	.st0{fill:#FFFFFF;}
	.st1{fill:#0D1117;}
	.st2{fill:#953CAD;}
</style>
<path class="st0" d="M27.5,162.6h201c15.2,0,27.5,12.3,27.5,27.5v82.4c0,15.2-12.3,27.5-27.5,27.5h-201C12.3,300,0,287.7,0,272.5
	v-82.4C0,174.9,12.3,162.6,27.5,162.6z"/>
<g>
	<path class="st1" d="M112.2,286c0.6,0.8,1.6,1.1,2.9,1.1c1.2,0,2.1-0.3,2.7-0.8s1-1.2,1.2-2c0.1-0.4,0.2-0.7,0.4-0.8
		c0.1-0.1,0.4-0.2,0.7-0.2h4.1c0.2,0,0.3,0.1,0.5,0.2c0.1,0.2,0.2,0.3,0.2,0.6c0,1.6-0.5,3.1-1.3,4.4c-0.9,1.3-2,2.4-3.5,3.2
		s-3.1,1.2-4.9,1.2c-1.9,0-3.6-0.4-5-1.3s-2.5-2-3.3-3.5s-1.2-3.1-1.3-4.9c0-1.1-0.1-2.1-0.1-2.8c0-0.9,0-2.1,0.1-3.5
		c0.1-1.8,0.5-3.4,1.3-4.9s1.9-2.6,3.3-3.5s3.1-1.3,5-1.3c1.8,0,3.4,0.4,4.9,1.2s2.6,1.9,3.5,3.2c0.9,1.3,1.3,2.8,1.3,4.4
		c0,0.2-0.1,0.4-0.2,0.6s-0.3,0.2-0.5,0.2H120c-0.3,0-0.6-0.1-0.7-0.2s-0.2-0.4-0.4-0.8c-0.2-0.8-0.6-1.5-1.2-2s-1.5-0.8-2.7-0.8
		c-1.3,0-2.3,0.4-2.9,1.1s-1,1.8-1,3c0,0.8-0.1,1.8-0.1,3c0,1.1,0,2.1,0.1,3C111.3,284.2,111.6,285.2,112.2,286z"/>
	<path class="st1" d="M147.3,272.9c0.2,0,0.4,0.1,0.6,0.3c0.2,0.2,0.2,0.4,0.2,0.7v3.4c0,0.3-0.1,0.5-0.2,0.7s-0.4,0.3-0.6,0.3H145
		l-0.5,3.7h2c0.2,0,0.4,0.1,0.6,0.3s0.2,0.4,0.2,0.7v3.4c0,0.3-0.1,0.5-0.2,0.7c-0.2,0.2-0.4,0.3-0.6,0.3h-2.7l-0.4,3
		c0,0.2-0.1,0.4-0.3,0.5c-0.1,0.1-0.3,0.2-0.5,0.2h-3.3c-0.2,0-0.3-0.1-0.5-0.2c-0.1-0.2-0.2-0.3-0.2-0.6v-0.1l0.4-2.9h-2.3l-0.4,3
		c0,0.2-0.1,0.4-0.3,0.5c-0.1,0.1-0.3,0.2-0.5,0.2h-3.3c-0.2,0-0.3-0.1-0.5-0.2c-0.1-0.2-0.2-0.3-0.2-0.6v-0.1l0.4-2.9h-1.6
		c-0.2,0-0.4-0.1-0.6-0.3c-0.2-0.2-0.2-0.4-0.2-0.7v-3.4c0-0.3,0.1-0.5,0.2-0.7c0.2-0.2,0.4-0.3,0.6-0.3h2.3l0.5-3.7h-2
		c-0.2,0-0.4-0.1-0.6-0.3c-0.2-0.2-0.2-0.4-0.2-0.7v-3.4c0-0.3,0.1-0.5,0.2-0.7c0.2-0.2,0.4-0.3,0.6-0.3h2.7l0.4-3
		c0-0.2,0.1-0.4,0.3-0.5c0.1-0.1,0.3-0.2,0.5-0.2h3.3c0.2,0,0.3,0.1,0.5,0.2c0.1,0.2,0.2,0.3,0.2,0.6v0.1l-0.4,2.9h2.3l0.4-3
		c0-0.2,0.1-0.4,0.3-0.5c0.1-0.1,0.3-0.2,0.5-0.2h3.3c0.2,0,0.3,0.1,0.5,0.2c0.1,0.2,0.2,0.3,0.2,0.6v0.1l-0.4,2.9H147.3z
		 M139.8,281.9l0.5-3.7H138l-0.5,3.7H139.8z"/>
</g>
<path class="st2" d="M60,0h136c33.1,0,60,26.9,60,60v136c0,33.1-26.9,60-60,60H60c-33.1,0-60-26.9-60-60V60C0,26.9,26.9,0,60,0z"/>
<path class="st0" d="M195.4,100.7v13.5h13.5v-13.5h6.7v13.5h13.5v6.7h-13.5v13.5h13.5v6.7h-13.5v13.5h-6.7v-13.5h-13.5v13.5h-6.7
	v-13.5h-13.5v-6.7h13.5v-13.5h-13.5v-6.7h13.5v-13.5H195.4z M208.9,120.9h-13.5v13.5h13.5V120.9z"/>
<path class="st0" d="M122,33c35.1,0,65.8,19.1,82.3,47.5l-0.2-0.3L162.8,104c-8.1-13.8-23.1-23.1-40.2-23.3h-0.5
	c-26.1,0-47.3,21.2-47.3,47.3c0,8.5,2.3,16.6,6.2,23.5c8.2,14.2,23.5,23.8,41.1,23.8c17.7,0,33.1-9.7,41.2-24.1l-0.2,0.3l41.3,23.9
	c-16.3,28.1-46.5,47.2-81.3,47.5H122c-35.3,0-66-19.2-82.4-47.7c-8-13.8-12.6-30-12.6-47.2C27,75.5,69.5,33,122,33z"/>
</svg>
