<?xml version="1.0" encoding="utf-8"?>
<!-- Generator: Adobe Illustrator 24.3.0, SVG Export Plug-In . SVG Version: 6.00 Build 0)  -->
<svg version="1.1" id="Layer_1" xmlns="http://www.w3.org/2000/svg" xmlns:xlink="http://www.w3.org/1999/xlink" x="0px" y="0px"
	 viewBox="0 0 256 300" style="enable-background:new 0 0 256 300;" xml:space="preserve">
<style type="text/css">
	.st0{fill:#FFFFFF;}
	.st1{fill:#231F20;}
	.st2{fill:#242938;}
</style>
<path class="st0" d="M27.5,162.6h201c15.2,0,27.5,12.3,27.5,27.5v82.4c0,15.2-12.3,27.5-27.5,27.5h-201C12.3,300,0,287.7,0,272.5
	v-82.4C0,174.9,12.3,162.6,27.5,162.6z"/>
<g>
	<path class="st1" d="M56.3,285.9c0.7,0.8,1.7,1.2,3.1,1.2c1.3,0,2.3-0.3,2.9-0.8c0.6-0.6,1-1.2,1.3-2c0.1-0.4,0.3-0.7,0.4-0.8
		c0.1-0.1,0.4-0.2,0.7-0.2H69c0.2,0,0.4,0.1,0.5,0.2c0.1,0.2,0.2,0.3,0.2,0.6c0,1.6-0.5,3.1-1.4,4.4c-0.9,1.4-2.2,2.4-3.7,3.2
		c-1.6,0.8-3.3,1.2-5.2,1.2c-2.1,0-3.9-0.4-5.4-1.3c-1.5-0.9-2.7-2.1-3.6-3.5c-0.8-1.5-1.3-3.1-1.4-4.9c0-1.2-0.1-2.1-0.1-2.8
		c0-0.9,0-2.1,0.1-3.6c0.1-1.8,0.5-3.4,1.4-4.9c0.8-1.5,2-2.7,3.6-3.5c1.5-0.9,3.3-1.3,5.4-1.3c1.9,0,3.6,0.4,5.2,1.2
		c1.6,0.8,2.8,1.9,3.7,3.2c0.9,1.4,1.4,2.8,1.4,4.4c0,0.2-0.1,0.4-0.2,0.6c-0.1,0.2-0.3,0.2-0.5,0.2h-4.4c-0.4,0-0.6-0.1-0.7-0.2
		c-0.1-0.1-0.3-0.4-0.4-0.8c-0.2-0.8-0.7-1.5-1.3-2c-0.6-0.6-1.6-0.8-2.9-0.8c-1.4,0-2.4,0.4-3.1,1.2c-0.7,0.8-1,1.8-1.1,3
		c0,0.8-0.1,1.8-0.1,3c0,1.2,0,2.2,0.1,3C55.2,284.1,55.6,285.2,56.3,285.9z"/>
	<path class="st1" d="M88.2,268.2c1.5,0.9,2.7,2,3.5,3.5c0.8,1.5,1.3,3.1,1.4,5c0,0.7,0.1,1.8,0.1,3.2c0,1.5,0,2.5-0.1,3.2
		c-0.1,1.8-0.5,3.5-1.4,5c-0.8,1.5-2,2.6-3.5,3.5c-1.5,0.9-3.4,1.3-5.5,1.3c-2.1,0-3.9-0.4-5.5-1.3c-1.5-0.9-2.7-2-3.5-3.5
		c-0.8-1.5-1.3-3.1-1.4-5c0-1.3-0.1-2.4-0.1-3.2c0-0.8,0-1.9,0.1-3.2c0.1-1.8,0.5-3.5,1.4-5c0.8-1.5,2-2.6,3.5-3.5
		c1.5-0.9,3.3-1.3,5.5-1.3C84.9,266.9,86.7,267.3,88.2,268.2z M85.8,273.8c-0.7-0.8-1.7-1.1-3-1.1c-1.3,0-2.3,0.4-3,1.1
		s-1.1,1.8-1.2,3c-0.1,0.8-0.1,1.8-0.1,3c0,1.2,0,2.2,0.1,3.1c0.1,1.3,0.5,2.3,1.2,3s1.7,1.1,3,1.1c1.3,0,2.3-0.4,3-1.1
		s1.1-1.8,1.2-3c0.1-0.9,0.1-1.9,0.1-3.1c0-1.2,0-2.2-0.1-3C86.9,275.6,86.5,274.6,85.8,273.8z"/>
	<path class="st1" d="M117.3,279.9c0,0.4,0,1.2-0.1,2.5c-0.1,2-0.5,3.7-1.4,5.2c-0.9,1.5-2.1,2.7-3.6,3.5c-1.5,0.9-3.3,1.3-5.3,1.3
		h-9c-0.2,0-0.5-0.1-0.6-0.3c-0.2-0.2-0.3-0.4-0.3-0.7v-23.3c0-0.3,0.1-0.5,0.3-0.7c0.2-0.2,0.4-0.3,0.6-0.3h8.8
		c2,0,3.8,0.4,5.4,1.3c1.6,0.9,2.8,2,3.7,3.6c0.9,1.5,1.4,3.3,1.4,5.2C117.3,278.7,117.3,279.5,117.3,279.9z M103.2,273v13.7h3.6
		c2.8,0,4.2-1.4,4.4-4.1c0-1.4,0.1-2.3,0.1-2.7c0-0.5,0-1.4-0.1-2.7c-0.1-1.4-0.5-2.4-1.2-3.1c-0.8-0.7-1.9-1-3.3-1H103.2z"/>
	<path class="st1" d="M127.3,286.7h10.5c0.2,0,0.5,0.1,0.6,0.3c0.2,0.2,0.3,0.4,0.3,0.7v3.8c0,0.3-0.1,0.5-0.3,0.7
		c-0.2,0.2-0.4,0.3-0.6,0.3H122c-0.2,0-0.5-0.1-0.6-0.3c-0.2-0.2-0.3-0.4-0.3-0.7v-23.3c0-0.3,0.1-0.5,0.3-0.7
		c0.2-0.2,0.4-0.3,0.6-0.3h15.5c0.2,0,0.5,0.1,0.6,0.3c0.2,0.2,0.3,0.4,0.3,0.7v3.8c0,0.3-0.1,0.5-0.3,0.7s-0.4,0.3-0.6,0.3h-10.2
		v3.9h9.5c0.2,0,0.5,0.1,0.6,0.3c0.2,0.2,0.3,0.4,0.3,0.7v3.8c0,0.3-0.1,0.5-0.3,0.7c-0.2,0.2-0.4,0.3-0.6,0.3h-9.5V286.7z"/>
	<path class="st1" d="M159.7,269.4c1.6,1.4,2.4,3.5,2.4,6.3c0,2.8-0.8,4.9-2.4,6.3c-1.6,1.4-3.9,2.2-6.8,2.2h-4.3v7.3
		c0,0.3-0.1,0.5-0.3,0.7c-0.2,0.2-0.4,0.3-0.6,0.3h-4.4c-0.2,0-0.5-0.1-0.6-0.3c-0.2-0.2-0.3-0.4-0.3-0.7v-23.3
		c0-0.3,0.1-0.5,0.3-0.7c0.2-0.2,0.4-0.3,0.6-0.3h9.5C155.8,267.3,158,268,159.7,269.4z M152.7,278.5c1,0,1.8-0.2,2.3-0.7
		c0.6-0.5,0.9-1.2,0.9-2.1c0-1-0.3-1.7-0.9-2.1c-0.6-0.5-1.4-0.7-2.3-0.7h-4.1v5.7H152.7z"/>
	<path class="st1" d="M171.5,286.7H182c0.2,0,0.5,0.1,0.6,0.3s0.3,0.4,0.3,0.7v3.8c0,0.3-0.1,0.5-0.3,0.7c-0.2,0.2-0.4,0.3-0.6,0.3
		h-15.8c-0.2,0-0.5-0.1-0.6-0.3c-0.2-0.2-0.3-0.4-0.3-0.7v-23.3c0-0.3,0.1-0.5,0.3-0.7c0.2-0.2,0.4-0.3,0.6-0.3h15.5
		c0.2,0,0.5,0.1,0.6,0.3c0.2,0.2,0.3,0.4,0.3,0.7v3.8c0,0.3-0.1,0.5-0.3,0.7c-0.2,0.2-0.4,0.3-0.6,0.3h-10.2v3.9h9.5
		c0.2,0,0.5,0.1,0.6,0.3s0.3,0.4,0.3,0.7v3.8c0,0.3-0.1,0.5-0.3,0.7c-0.2,0.2-0.4,0.3-0.6,0.3h-9.5V286.7z"/>
	<path class="st1" d="M201,292.2c-0.2-0.2-0.4-0.4-0.5-0.6l-7.6-12.3v12.2c0,0.3-0.1,0.5-0.3,0.7c-0.2,0.2-0.4,0.3-0.6,0.3h-4.4
		c-0.2,0-0.5-0.1-0.6-0.3c-0.2-0.2-0.3-0.4-0.3-0.7v-23.3c0-0.3,0.1-0.5,0.3-0.7c0.2-0.2,0.4-0.3,0.6-0.3h3.5c0.3,0,0.6,0.1,0.9,0.3
		c0.2,0.2,0.4,0.4,0.5,0.6l7.6,12.3v-12.2c0-0.3,0.1-0.5,0.3-0.7c0.2-0.2,0.4-0.3,0.6-0.3h4.4c0.2,0,0.5,0.1,0.6,0.3
		c0.2,0.2,0.3,0.4,0.3,0.7v23.3c0,0.3-0.1,0.5-0.3,0.7c-0.2,0.2-0.4,0.3-0.6,0.3h-3.5C201.5,292.5,201.2,292.4,201,292.2z"/>
</g>
<path class="st2" d="M60,0h136c33.1,0,60,26.9,60,60v136c0,33.1-26.9,60-60,60H60c-33.1,0-60-26.9-60-60V60C0,26.9,26.9,0,60,0z"/>
<path class="st0" d="M229,88.5l-96-64c-3.3-2-6.8-2-10.1,0l-96,64c-2.5,1.6-4,4.6-4,7.5v64c0,2.9,1.5,5.9,4,7.5l96,64
	c3.3,2,6.8,2,10.1,0l96-64c2.5-1.6,4-4.6,4-7.5V96C233,93.1,231.5,90.1,229,88.5z M137,48.9L207.7,96l-31.5,21.1L137,91L137,48.9
	L137,48.9z M119,48.9V91l-39.1,26.1L48.3,96L119,48.9z M41,112.9L63.7,128L41,143.1V112.9z M119,207.1L48.3,160l31.5-21.1L119,165
	V207.1z M128,149.3L96.1,128l31.9-21.3l31.9,21.3L128,149.3z M137,207.1V165l39.1-26.1l31.5,21.1L137,207.1L137,207.1z M215,143.1
	L192.3,128l22.6-15.1V143.1z"/>
</svg>
