<?xml version="1.0" encoding="utf-8"?>
<!-- Generator: Adobe Illustrator 24.3.0, SVG Export Plug-In . SVG Version: 6.00 Build 0)  -->
<svg version="1.1" id="Layer_1" xmlns="http://www.w3.org/2000/svg" xmlns:xlink="http://www.w3.org/1999/xlink" x="0px" y="0px"
	 viewBox="0 0 256 300" style="enable-background:new 0 0 256 300;" xml:space="preserve">
<style type="text/css">
	.st0{display:none;fill:#0D1117;}
	.st1{fill:#FFFFFF;}
	.st2{fill:#0D1117;}
	.st3{fill:#330000;}
	.st4{fill:#FF9A00;}
	.st5{fill:#242938;}
	.st6{fill-rule:evenodd;clip-rule:evenodd;fill:#242938;}
	.st7{fill-rule:evenodd;clip-rule:evenodd;fill:#FFFFFF;}
	.st8{fill-rule:evenodd;clip-rule:evenodd;fill:#47B353;}
	.st9{fill:#ECEFF1;}
	.st10{fill:#263238;}
	.st11{fill:#212121;}
	.st12{fill:#FFC107;}
	.st13{fill:#634703;}
	.st14{fill:#455A64;}
	.st15{fill:#F03C2E;}
	.st16{clip-path:url(#SVGID_2_);}
	.st17{fill:#0277BD;}
	.st18{fill:#EBEBEB;}
	.st19{fill:#E14E1D;}
	.st20{clip-path:url(#SVGID_4_);}
	.st21{fill:#0ACF83;}
	.st22{fill:#A259FF;}
	.st23{fill:#F24E1E;}
	.st24{fill:#FF7262;}
	.st25{fill:#1ABCFE;}
	.st26{fill:#F0DB4F;}
	.st27{fill:#323330;}
	.st28{fill:#00D8FF;}
	.st29{fill:none;stroke:#00D8FF;stroke-width:8.911;}
	.st30{fill:#764ABC;}
	.st31{fill:#81CD39;}
	.st32{fill:#99424F;}
	.st33{fill:url(#SVGID_5_);}
	.st34{fill:url(#SVGID_6_);}
	.st35{fill:none;stroke:#FFFFFF;stroke-width:2;}
	.st36{fill:#2489CA;}
	.st37{fill:#1070B3;}
	.st38{fill:#0877B9;}
	.st39{fill:#3C99D4;}
	.st40{clip-path:url(#SVGID_8_);}
	.st41{fill:#023430;}
	.st42{fill:#10AA50;}
	.st43{fill:#B8C4C2;}
	.st44{fill:#12924F;}
	.st45{fill:#F58219;}
	.st46{fill:#2396ED;}
	.st47{fill:#007ACC;}
	.st48{fill:url(#SVGID_9_);}
	.st49{fill:url(#SVGID_10_);}
	.st50{fill:#001E36;}
	.st51{fill:#31A8FF;}
	.st52{fill:#E43717;}
	.st53{clip-path:url(#SVGID_12_);}
	.st54{fill-rule:evenodd;clip-rule:evenodd;fill:url(#SVGID_13_);}
	.st55{fill-rule:evenodd;clip-rule:evenodd;fill:url(#SVGID_14_);}
	.st56{fill-rule:evenodd;clip-rule:evenodd;fill:url(#SVGID_15_);}
	.st57{fill-rule:evenodd;clip-rule:evenodd;fill:url(#SVGID_16_);}
	.st58{fill-rule:evenodd;clip-rule:evenodd;fill:url(#SVGID_17_);}
	.st59{fill-rule:evenodd;clip-rule:evenodd;fill:url(#SVGID_18_);}
	.st60{fill-rule:evenodd;clip-rule:evenodd;fill:url(#SVGID_19_);}
	.st61{fill-rule:evenodd;clip-rule:evenodd;fill:url(#SVGID_20_);}
	.st62{fill-rule:evenodd;clip-rule:evenodd;fill:url(#SVGID_21_);}
	.st63{fill-rule:evenodd;clip-rule:evenodd;fill:url(#SVGID_22_);}
	.st64{fill-rule:evenodd;clip-rule:evenodd;fill:url(#SVGID_23_);}
	.st65{fill-rule:evenodd;clip-rule:evenodd;fill:url(#SVGID_24_);}
	.st66{fill-rule:evenodd;clip-rule:evenodd;fill:#9E1209;}
	.st67{fill-rule:evenodd;clip-rule:evenodd;fill:url(#SVGID_25_);}
	.st68{fill-rule:evenodd;clip-rule:evenodd;fill:url(#SVGID_26_);}
	.st69{fill-rule:evenodd;clip-rule:evenodd;fill:url(#SVGID_27_);}
	.st70{fill-rule:evenodd;clip-rule:evenodd;fill:url(#SVGID_28_);}
	.st71{fill:#092E20;}
	.st72{fill-rule:evenodd;clip-rule:evenodd;fill:#FF9900;}
	.st73{fill:#E23237;}
	.st74{fill:#B52E31;}
	.st75{fill:#2F406A;}
	.st76{fill:#2379BD;}
	.st77{fill:#03AFEF;}
	.st78{fill:#953CAD;}
</style>
<g>
	<rect y="162.6" class="st1" width="256" height="137.4"/>
	<g>
		<path class="st2" d="M89.1,286c0.6,0.8,1.6,1.1,2.9,1.1c1.2,0,2.1-0.3,2.7-0.8s1-1.2,1.2-2c0.1-0.4,0.2-0.7,0.4-0.8
			c0.1-0.1,0.4-0.2,0.7-0.2h4.1c0.2,0,0.3,0.1,0.5,0.2s0.2,0.3,0.2,0.6c0,1.6-0.5,3.1-1.3,4.4c-0.9,1.3-2,2.4-3.5,3.2
			s-3.1,1.2-4.9,1.2c-1.9,0-3.6-0.4-5-1.3c-1.4-0.9-2.5-2-3.3-3.5s-1.2-3.1-1.3-4.9c0-1.1-0.1-2.1-0.1-2.8c0-0.9,0-2.1,0.1-3.5
			c0.1-1.8,0.5-3.4,1.3-4.9s1.9-2.6,3.3-3.5s3.1-1.3,5-1.3c1.8,0,3.4,0.4,4.9,1.2s2.6,1.9,3.5,3.2s1.3,2.8,1.3,4.4
			c0,0.2-0.1,0.4-0.2,0.6s-0.3,0.2-0.5,0.2H97c-0.3,0-0.6-0.1-0.7-0.2c-0.1-0.1-0.2-0.4-0.4-0.8c-0.2-0.8-0.6-1.5-1.2-2
			S93.2,273,92,273c-1.3,0-2.3,0.4-2.9,1.1c-0.6,0.8-1,1.8-1,3c0,0.8-0.1,1.8-0.1,3c0,1.1,0,2.1,0.1,3
			C88.2,284.2,88.5,285.2,89.1,286z"/>
		<path class="st2" d="M124.2,274.7c-0.1,0.2-0.3,0.2-0.5,0.2h-4.1c-0.3,0-0.5,0-0.7-0.1s-0.4-0.2-0.6-0.4c0,0-0.2-0.2-0.4-0.5
			c-0.2-0.3-0.6-0.5-1.1-0.7s-1-0.3-1.7-0.3c-0.9,0-1.6,0.1-2.2,0.4s-0.9,0.7-0.9,1.4c0,0.5,0.2,0.9,0.5,1.1
			c0.4,0.3,0.9,0.5,1.6,0.7s2,0.5,3.8,1c2.3,0.5,4.1,1.4,5.2,2.6s1.6,2.8,1.6,5c0,1.6-0.4,3-1.2,4.1c-0.8,1.2-2,2.1-3.4,2.7
			s-3.1,0.9-5,0.9c-1.8,0-3.4-0.4-4.8-1.1s-2.6-1.6-3.4-2.8c-0.8-1.1-1.3-2.3-1.3-3.5c0-0.2,0.1-0.4,0.2-0.6
			c0.1-0.2,0.3-0.2,0.4-0.2h4.1c0.5,0,0.8,0.2,1.2,0.5c0.1,0.1,0.2,0.3,0.5,0.6s0.7,0.7,1.2,0.9s1.2,0.4,1.9,0.4
			c2.6,0,3.8-0.6,3.8-1.9c0-0.4-0.2-0.7-0.5-1s-0.9-0.5-1.5-0.7c-0.7-0.2-1.7-0.5-3.2-0.8l-1.4-0.3c-2.1-0.5-3.7-1.4-4.7-2.6
			c-1-1.2-1.5-2.9-1.5-4.9c0-1.4,0.4-2.7,1.1-3.8c0.7-1.2,1.8-2.1,3.1-2.8s2.9-1.1,4.6-1.1s3.2,0.4,4.6,1.1c1.4,0.7,2.5,1.6,3.3,2.7
			c0.8,1.1,1.2,2.2,1.3,3.2C124.5,274.3,124.4,274.5,124.2,274.7z"/>
		<path class="st2" d="M147.6,274.7c-0.1,0.2-0.3,0.2-0.5,0.2H143c-0.3,0-0.5,0-0.7-0.1s-0.4-0.2-0.6-0.4c0,0-0.2-0.2-0.4-0.5
			c-0.2-0.3-0.6-0.5-1.1-0.7s-1.1-0.3-1.7-0.3c-0.9,0-1.6,0.1-2.2,0.4c-0.6,0.3-0.9,0.7-0.9,1.4c0,0.5,0.2,0.9,0.5,1.1
			c0.4,0.3,0.9,0.5,1.6,0.7s2,0.5,3.8,1c2.3,0.5,4.1,1.4,5.2,2.6c1.1,1.2,1.6,2.8,1.6,5c0,1.6-0.4,3-1.2,4.1c-0.8,1.2-2,2.1-3.4,2.7
			s-3.1,0.9-5,0.9c-1.8,0-3.4-0.4-4.8-1.1c-1.4-0.7-2.6-1.6-3.4-2.8c-0.8-1.1-1.3-2.3-1.3-3.5c0-0.2,0.1-0.4,0.2-0.6
			s0.3-0.2,0.5-0.2h4.1c0.5,0,0.8,0.2,1.2,0.5c0.1,0.1,0.2,0.3,0.5,0.6s0.7,0.7,1.2,0.9c0.5,0.3,1.2,0.4,1.9,0.4
			c2.6,0,3.8-0.6,3.8-1.9c0-0.4-0.2-0.7-0.5-1c-0.4-0.3-0.9-0.5-1.5-0.7c-0.7-0.2-1.7-0.5-3.2-0.8l-1.4-0.3
			c-2.1-0.5-3.7-1.4-4.7-2.6c-1-1.2-1.5-2.9-1.5-4.9c0-1.4,0.4-2.7,1.1-3.8c0.7-1.2,1.8-2.1,3.1-2.8c1.3-0.7,2.9-1.1,4.6-1.1
			s3.2,0.4,4.6,1.1c1.4,0.7,2.5,1.6,3.3,2.7c0.8,1.1,1.2,2.2,1.3,3.2C147.8,274.3,147.7,274.5,147.6,274.7z"/>
		<path class="st2" d="M170,267.7c0.2,0.2,0.2,0.4,0.2,0.7v3.8c0,0.4-0.2,0.8-0.6,1.3l-3.8,4.4c1.7,0.5,3,1.3,4,2.5s1.5,2.6,1.5,4.4
			c0,2.6-0.8,4.7-2.4,6s-3.9,2.1-6.8,2.1c-1.9,0-3.5-0.3-4.9-1s-2.5-1.5-3.2-2.6s-1.1-2.2-1.2-3.5c0-0.2,0.1-0.4,0.2-0.6
			s0.3-0.2,0.5-0.2h3.9c0.3,0,0.6,0.1,0.8,0.2c0.2,0.1,0.4,0.3,0.7,0.6c0.4,0.4,0.8,0.8,1.3,1c0.4,0.2,1.1,0.3,1.9,0.3
			c1,0,1.9-0.2,2.5-0.6c0.6-0.4,0.9-1,0.9-1.8s-0.3-1.4-0.9-1.8c-0.6-0.4-1.5-0.6-2.5-0.6h-2.6c-0.2,0-0.4-0.1-0.6-0.3
			s-0.2-0.4-0.2-0.7v-3.1c0-0.2,0.1-0.5,0.2-0.6c0.1-0.2,0.3-0.4,0.5-0.6l3.3-3.8h-8.1c-0.2,0-0.4-0.1-0.6-0.3s-0.2-0.4-0.2-0.7
			v-3.8c0-0.3,0.1-0.5,0.2-0.7c0.2-0.2,0.4-0.3,0.6-0.3h14.8C169.6,267.4,169.8,267.5,170,267.7z"/>
	</g>
	<path class="st17" d="M60,0h136c33.1,0,60,26.9,60,60v136c0,33.1-26.9,60-60,60H60c-33.1,0-60-26.9-60-60V60C0,26.8,26.9,0,60,0z"
		/>
	<path class="st18" d="M53.7,102.6l2.9,31.9h71.5v-31.9H53.7z"/>
	<path class="st18" d="M128.1,38L128.1,38H48l2.9,31.9h77.2V38z"/>
	<path class="st18" d="M128.1,218.8v-33.2H128L92.4,176l-2.3-25.5H72.8H58l4.5,50.2l65.4,18.2L128.1,218.8z"/>
	<path class="st1" d="M167.3,134.6l-3.7,41.4l-35.6,9.6v33.2l65.5-18.1l0.5-5.4l7.5-84.1l0.8-8.6l5.8-64.7h-80v31.9h45l-2.9,32.7
		h-42.1v31.9h39.2V134.6z"/>
</g>
</svg>
