<?xml version="1.0" encoding="utf-8"?>
<!-- Generator: Adobe Illustrator 24.3.0, SVG Export Plug-In . SVG Version: 6.00 Build 0)  -->
<svg version="1.1" id="Layer_1" xmlns="http://www.w3.org/2000/svg" xmlns:xlink="http://www.w3.org/1999/xlink" x="0px" y="0px"
	 viewBox="0 0 256 300" style="enable-background:new 0 0 256 300;" xml:space="preserve">
<style type="text/css">
	.st0{fill:#FFFFFF;}
	.st1{fill:#0D1117;}
	.st2{fill:#0277BD;}
	.st3{fill:#EBEBEB;}
</style>
<path class="st0" d="M27.5,162.6h201c15.2,0,27.5,12.3,27.5,27.5v82.4c0,15.2-12.3,27.5-27.5,27.5h-201C12.3,300,0,287.7,0,272.5
	v-82.4C0,174.9,12.3,162.6,27.5,162.6z"/>
<path class="st1" d="M89.1,286c0.6,0.8,1.6,1.1,2.9,1.1c1.2,0,2.1-0.3,2.7-0.8s1-1.2,1.2-2c0.1-0.4,0.2-0.7,0.4-0.8
	c0.1-0.1,0.4-0.2,0.7-0.2h4.1c0.2,0,0.3,0.1,0.5,0.2s0.2,0.3,0.2,0.6c0,1.6-0.5,3.1-1.3,4.4c-0.9,1.3-2,2.4-3.5,3.2
	s-3.1,1.2-4.9,1.2c-1.9,0-3.6-0.4-5-1.3s-2.5-2-3.3-3.5s-1.2-3.1-1.3-4.9c0-1.1-0.1-2.1-0.1-2.8c0-0.9,0-2.1,0.1-3.5
	c0.1-1.8,0.5-3.4,1.3-4.9s1.9-2.6,3.3-3.5s3.1-1.3,5-1.3c1.8,0,3.4,0.4,4.9,1.2s2.6,1.9,3.5,3.2s1.3,2.8,1.3,4.4
	c0,0.2-0.1,0.4-0.2,0.6s-0.3,0.2-0.5,0.2H97c-0.3,0-0.6-0.1-0.7-0.2s-0.2-0.4-0.4-0.8c-0.2-0.8-0.6-1.5-1.2-2S93.2,273,92,273
	c-1.3,0-2.3,0.4-2.9,1.1c-0.6,0.8-1,1.8-1,3c0,0.8-0.1,1.8-0.1,3c0,1.1,0,2.1,0.1,3C88.2,284.2,88.5,285.2,89.1,286z"/>
<path class="st1" d="M124.2,274.7c-0.1,0.2-0.3,0.2-0.5,0.2h-4.1c-0.3,0-0.5,0-0.7-0.1s-0.4-0.2-0.6-0.4c0,0-0.2-0.2-0.4-0.5
	c-0.2-0.3-0.6-0.5-1.1-0.7s-1-0.3-1.7-0.3c-0.9,0-1.6,0.1-2.2,0.4s-0.9,0.7-0.9,1.4c0,0.5,0.2,0.9,0.5,1.1c0.4,0.3,0.9,0.5,1.6,0.7
	s2,0.5,3.8,1c2.3,0.5,4.1,1.4,5.2,2.6s1.6,2.8,1.6,5c0,1.6-0.4,3-1.2,4.1c-0.8,1.2-2,2.1-3.4,2.7s-3.1,0.9-5,0.9
	c-1.8,0-3.4-0.4-4.8-1.1s-2.6-1.6-3.4-2.8c-0.8-1.1-1.3-2.3-1.3-3.5c0-0.2,0.1-0.4,0.2-0.6s0.3-0.2,0.4-0.2h4.1
	c0.5,0,0.8,0.2,1.2,0.5c0.1,0.1,0.2,0.3,0.5,0.6s0.7,0.7,1.2,0.9s1.2,0.4,1.9,0.4c2.6,0,3.8-0.6,3.8-1.9c0-0.4-0.2-0.7-0.5-1
	s-0.9-0.5-1.5-0.7c-0.7-0.2-1.7-0.5-3.2-0.8l-1.4-0.3c-2.1-0.5-3.7-1.4-4.7-2.6s-1.5-2.9-1.5-4.9c0-1.4,0.4-2.7,1.1-3.8
	c0.7-1.2,1.8-2.1,3.1-2.8s2.9-1.1,4.6-1.1s3.2,0.4,4.6,1.1s2.5,1.6,3.3,2.7s1.2,2.2,1.3,3.2C124.5,274.3,124.4,274.5,124.2,274.7z"
	/>
<path class="st1" d="M147.6,274.7c-0.1,0.2-0.3,0.2-0.5,0.2H143c-0.3,0-0.5,0-0.7-0.1s-0.4-0.2-0.6-0.4c0,0-0.2-0.2-0.4-0.5
	s-0.6-0.5-1.1-0.7s-1.1-0.3-1.7-0.3c-0.9,0-1.6,0.1-2.2,0.4c-0.6,0.3-0.9,0.7-0.9,1.4c0,0.5,0.2,0.9,0.5,1.1
	c0.4,0.3,0.9,0.5,1.6,0.7s2,0.5,3.8,1c2.3,0.5,4.1,1.4,5.2,2.6c1.1,1.2,1.6,2.8,1.6,5c0,1.6-0.4,3-1.2,4.1c-0.8,1.2-2,2.1-3.4,2.7
	s-3.1,0.9-5,0.9c-1.8,0-3.4-0.4-4.8-1.1c-1.4-0.7-2.6-1.6-3.4-2.8c-0.8-1.1-1.3-2.3-1.3-3.5c0-0.2,0.1-0.4,0.2-0.6s0.3-0.2,0.5-0.2
	h4.1c0.5,0,0.8,0.2,1.2,0.5c0.1,0.1,0.2,0.3,0.5,0.6s0.7,0.7,1.2,0.9c0.5,0.3,1.2,0.4,1.9,0.4c2.6,0,3.8-0.6,3.8-1.9
	c0-0.4-0.2-0.7-0.5-1c-0.4-0.3-0.9-0.5-1.5-0.7c-0.7-0.2-1.7-0.5-3.2-0.8l-1.4-0.3c-2.1-0.5-3.7-1.4-4.7-2.6s-1.5-2.9-1.5-4.9
	c0-1.4,0.4-2.7,1.1-3.8c0.7-1.2,1.8-2.1,3.1-2.8c1.3-0.7,2.9-1.1,4.6-1.1s3.2,0.4,4.6,1.1c1.4,0.7,2.5,1.6,3.3,2.7s1.2,2.2,1.3,3.2
	C147.8,274.3,147.7,274.5,147.6,274.7z"/>
<path class="st1" d="M170,267.7c0.2,0.2,0.2,0.4,0.2,0.7v3.8c0,0.4-0.2,0.8-0.6,1.3l-3.8,4.4c1.7,0.5,3,1.3,4,2.5s1.5,2.6,1.5,4.4
	c0,2.6-0.8,4.7-2.4,6s-3.9,2.1-6.8,2.1c-1.9,0-3.5-0.3-4.9-1s-2.5-1.5-3.2-2.6s-1.1-2.2-1.2-3.5c0-0.2,0.1-0.4,0.2-0.6
	s0.3-0.2,0.5-0.2h3.9c0.3,0,0.6,0.1,0.8,0.2s0.4,0.3,0.7,0.6c0.4,0.4,0.8,0.8,1.3,1c0.4,0.2,1.1,0.3,1.9,0.3c1,0,1.9-0.2,2.5-0.6
	s0.9-1,0.9-1.8s-0.3-1.4-0.9-1.8c-0.6-0.4-1.5-0.6-2.5-0.6h-2.6c-0.2,0-0.4-0.1-0.6-0.3s-0.2-0.4-0.2-0.7v-3.1
	c0-0.2,0.1-0.5,0.2-0.6c0.1-0.2,0.3-0.4,0.5-0.6l3.3-3.8h-8.1c-0.2,0-0.4-0.1-0.6-0.3s-0.2-0.4-0.2-0.7v-3.8c0-0.3,0.1-0.5,0.2-0.7
	c0.2-0.2,0.4-0.3,0.6-0.3h14.8C169.6,267.4,169.8,267.5,170,267.7z"/>
<path class="st2" d="M60,0h136c33.1,0,60,26.9,60,60v136c0,33.1-26.9,60-60,60H60c-33.1,0-60-26.9-60-60V60C0,26.8,26.9,0,60,0z"/>
<path class="st3" d="M53.7,102.6l2.9,31.9h71.5v-31.9H53.7z"/>
<path class="st3" d="M128.1,38L128.1,38H48l2.9,31.9h77.2V38z"/>
<path class="st3" d="M128.1,218.8v-33.2H128L92.4,176l-2.3-25.5H72.8H58l4.5,50.2l65.4,18.2L128.1,218.8z"/>
<path class="st0" d="M167.3,134.6l-3.7,41.4l-35.6,9.6v33.2l65.5-18.1l0.5-5.4l7.5-84.1l0.8-8.6l5.8-64.7h-80v31.9h45l-2.9,32.7
	h-42.1v31.9h39.2V134.6z"/>
</svg>
