<?xml version="1.0" encoding="utf-8"?>
<!-- Generator: Adobe Illustrator 24.3.0, SVG Export Plug-In . SVG Version: 6.00 Build 0)  -->
<svg version="1.1" id="Layer_1" xmlns="http://www.w3.org/2000/svg" xmlns:xlink="http://www.w3.org/1999/xlink" x="0px" y="0px"
	 viewBox="0 0 256 300" style="enable-background:new 0 0 256 300;" xml:space="preserve">
<style type="text/css">
	.st0{fill:#FFFFFF;}
	.st1{fill:#812420;}
	.st2{enable-background:new    ;}
	.st3{fill:#0D1117;}
	.st4{fill:#F5F5F5;}
</style>
<path class="st0" d="M27.5,162.6h201c15.2,0,27.5,12.3,27.5,27.5v82.4c0,15.2-12.3,27.5-27.5,27.5h-201C12.3,300,0,287.7,0,272.5
	v-82.4C0,174.9,12.3,162.6,27.5,162.6z"/>
<path class="st1" d="M60,0h136c33.1,0,60,26.9,60,60v136c0,33.1-26.9,60-60,60H60c-33.1,0-60-26.9-60-60V60C0,26.9,26.8,0,60,0z"/>
<g class="st2">
	<path class="st3" d="M95.3,286.2c0.6,0.8,1.6,1.1,2.9,1.1c1.3,0,2.2-0.3,2.7-0.8c0.6-0.5,1-1.2,1.2-2c0.1-0.4,0.3-0.7,0.4-0.8
		c0.1-0.1,0.4-0.2,0.7-0.2h4.1c0.2,0,0.4,0.1,0.5,0.2c0.1,0.2,0.2,0.3,0.2,0.5c0,1.6-0.5,3-1.3,4.4c-0.9,1.3-2.1,2.4-3.5,3.2
		c-1.5,0.8-3.1,1.2-5,1.2c-2,0-3.7-0.4-5.1-1.3c-1.5-0.9-2.6-2-3.4-3.5c-0.8-1.4-1.2-3.1-1.3-4.8c0-1.1-0.1-2.1-0.1-2.8
		c0-0.9,0-2,0.1-3.5c0.1-1.8,0.5-3.4,1.3-4.8s1.9-2.6,3.4-3.5c1.5-0.9,3.2-1.3,5.1-1.3c1.8,0,3.5,0.4,5,1.2s2.7,1.8,3.5,3.2
		c0.9,1.3,1.3,2.8,1.3,4.4c0,0.2-0.1,0.4-0.2,0.5c-0.1,0.2-0.3,0.2-0.5,0.2h-4.1c-0.3,0-0.6-0.1-0.7-0.2c-0.1-0.1-0.3-0.4-0.4-0.8
		c-0.2-0.8-0.6-1.4-1.2-2c-0.6-0.5-1.5-0.8-2.7-0.8c-1.3,0-2.3,0.4-2.9,1.1c-0.6,0.8-1,1.7-1.1,3c0,0.8-0.1,1.8-0.1,3
		c0,1.1,0,2.1,0.1,3C94.4,284.5,94.7,285.5,95.3,286.2z"/>
	<path class="st3" d="M130.7,268.2c0.2,0.2,0.3,0.4,0.3,0.7v22.8c0,0.3-0.1,0.5-0.3,0.7c-0.2,0.2-0.4,0.3-0.6,0.3H126
		c-0.2,0-0.4-0.1-0.6-0.3c-0.2-0.2-0.3-0.4-0.3-0.7v-8.7h-7v8.7c0,0.3-0.1,0.5-0.3,0.7c-0.2,0.2-0.4,0.3-0.6,0.3h-4.1
		c-0.2,0-0.4-0.1-0.6-0.3c-0.2-0.2-0.3-0.4-0.3-0.7v-22.8c0-0.3,0.1-0.5,0.3-0.7c0.2-0.2,0.4-0.3,0.6-0.3h4.1c0.2,0,0.4,0.1,0.6,0.3
		c0.2,0.2,0.3,0.4,0.3,0.7v8.5h7v-8.5c0-0.3,0.1-0.5,0.3-0.7c0.2-0.2,0.4-0.3,0.6-0.3h4.1C130.4,267.9,130.6,268,130.7,268.2z"/>
	<path class="st3" d="M156.3,291.4c0.1,0.2,0.1,0.4,0.1,0.5c0,0.2-0.1,0.4-0.2,0.5s-0.3,0.2-0.5,0.2h-4c-0.4,0-0.6-0.1-0.8-0.3
		c-0.2-0.2-0.3-0.4-0.4-0.6l-0.9-2.9h-8.4l-0.9,2.9c-0.1,0.2-0.2,0.4-0.4,0.6c-0.2,0.2-0.5,0.3-0.8,0.3h-4c-0.2,0-0.4-0.1-0.5-0.2
		s-0.2-0.3-0.2-0.5c0-0.1,0-0.3,0.1-0.5l6.9-22.3c0.1-0.3,0.3-0.6,0.5-0.8c0.2-0.2,0.5-0.3,0.9-0.3h5.1c0.4,0,0.7,0.1,0.9,0.3
		c0.2,0.2,0.4,0.5,0.5,0.8L156.3,291.4z M148,283.4l-2.6-8.5l-2.6,8.5H148z"/>
	<path class="st3" d="M160.2,292.4c-0.2-0.2-0.3-0.4-0.3-0.7v-22.8c0-0.3,0.1-0.5,0.3-0.7c0.2-0.2,0.4-0.3,0.6-0.3h4.1
		c0.2,0,0.4,0.1,0.6,0.3c0.2,0.2,0.3,0.4,0.3,0.7v22.8c0,0.3-0.1,0.5-0.3,0.7c-0.2,0.2-0.4,0.3-0.6,0.3h-4.1
		C160.6,292.7,160.4,292.6,160.2,292.4z"/>
</g>
<g>
	<path class="st4" d="M224.5,68.8l-94.3-54.4c-1.3-0.8-3-0.8-4.4,0L31.5,68.8c-1.3,0.8-2.2,2.2-2.2,3.8v108.9c0,1.6,0.8,3,2.2,3.8
		l94.3,54.4c1.3,0.8,3,0.8,4.4,0l94.3-54.4c1.3-0.8,2.2-2.2,2.2-3.8V72.6C226.6,71,225.8,69.6,224.5,68.8z M218.5,179.3L128,231.5
		l-90.5-52.3V74.7L128,22.5l90.5,52.3V179.3z M121.4,91c3.7-2.6,7.5-4.7,11.5-6.2s8-2.3,11.9-2.3c2.4,0,4.7,0.4,6.9,1.1
		s4,1.7,5.5,3.1s2.8,3,3.7,5c0.9,2,1.3,4.3,1.3,6.9c0,3.1-0.6,6.2-1.8,9.2c-1.2,3.1-2.9,5.9-4.9,8.5c-2.1,2.6-4.4,4.9-7.1,6.9
		s-5.5,3.4-8.4,4.2l-1.3-2.1c1.7-0.9,3.3-2,4.7-3.3c1.4-1.3,2.7-2.9,3.7-4.6c1-1.7,1.8-3.5,2.4-5.4c0.5-1.9,0.8-3.8,0.8-5.8
		c0-2.2-0.3-4.4-1-6.4s-1.6-3.7-2.9-5.2c-1.3-1.5-2.8-2.7-4.7-3.5c-1.9-0.9-4-1.3-6.4-1.3c-2.9,0-5.6,0.6-8.1,1.7
		c-2.4,1.1-4.7,2.7-6.6,4.6c-2,1.9-3.7,4.2-5.1,6.7c-1.5,2.5-2.7,5.2-3.6,7.9c-1,2.7-1.7,5.5-2.2,8.4c-0.5,2.8-0.7,5.5-0.7,8
		c0,2.5,0.3,5.1,0.8,7.8s1.3,5.3,2.3,8c1,2.6,2.3,5.1,3.8,7.4s3.3,4.4,5.2,6.1c2,1.7,4.2,3.2,6.6,4.2c2.4,1,5.1,1.6,7.9,1.6
		c2,0,3.9-0.3,5.7-0.8c1.9-0.5,3.6-1.2,5.4-2.1c1.7-0.9,3.4-2,4.9-3.2c1.5-1.2,2.9-2.5,4.3-4l2,2c-1.8,2.4-3.9,4.6-6.4,6.8
		c-2.5,2.2-5.1,4.1-8,5.8c-2.8,1.7-5.8,3-9,4c-3.1,1-6.2,1.5-9.3,1.5c-3,0-5.8-0.5-8.4-1.6c-2.6-1-5.1-2.4-7.3-4.2
		c-2.2-1.8-4.2-3.9-5.9-6.2c-1.7-2.4-3.2-4.9-4.4-7.6c-1.2-2.7-2.1-5.5-2.8-8.3c-0.6-2.9-1-5.7-1-8.4c0-4,0.7-8,2-12.2
		c1.3-4.2,3.2-8.2,5.5-12.2c2.3-3.9,5.1-7.7,8.2-11.2C114.3,96.7,117.7,93.6,121.4,91z"/>
</g>
</svg>
