<?xml version="1.0" encoding="utf-8"?>
<!-- Generator: Adobe Illustrator 24.3.0, SVG Export Plug-In . SVG Version: 6.00 Build 0)  -->
<svg version="1.1" id="Layer_1" xmlns="http://www.w3.org/2000/svg" xmlns:xlink="http://www.w3.org/1999/xlink" x="0px" y="0px"
	 viewBox="0 0 256 300" style="enable-background:new 0 0 256 300;" xml:space="preserve">
<style type="text/css">
	.st0{fill:#FFFFFF;}
	.st1{fill:#372923;}
	.st2{fill-rule:evenodd;clip-rule:evenodd;fill:#372923;}
	.st3{fill-rule:evenodd;clip-rule:evenodd;fill:#E2D8CC;}
	.st4{fill:#897363;}
	.st5{fill-rule:evenodd;clip-rule:evenodd;fill:#FDFDFC;}
	.st6{fill:#231F20;}
</style>
<path class="st0" d="M27.5,162.6h201c15.2,0,27.5,12.3,27.5,27.5v82.4c0,15.2-12.3,27.5-27.5,27.5h-201C12.3,300,0,287.7,0,272.5
	v-82.4C0,174.9,12.3,162.6,27.5,162.6z"/>
<path class="st1" d="M60,0h136c33.1,0,60,26.9,60,60v136c0,33.1-26.9,60-60,60H60c-33.1,0-60-26.9-60-60V60C0,26.9,26.8,0,60,0z"/>
<circle class="st2" cx="128" cy="128" r="107.5"/>
<g id="Layer_x0020_1">
	<g id="_2025167837424">
		<path class="st3" d="M128,28.9c54.8,0,99.1,44.4,99.1,99.1c0,31.8-15,60.2-38.3,78.3c-3.5-9.9-1.7-16.9,4.6-28.3
			c6.7-10.3,10.1-14.9,12.4-33.5c0.3-2.6,0.6-5.1,0.6-7.6c0.1-2,0-4-0.1-6c-0.3-4.9-0.3-3.2-0.9-8.1c-0.5-4.3-1.2-8.4-2.4-12.3
			c-0.7-2.4-1.6-4.9-2.6-7.1c-0.9-1.8-3-5.1-3.1-6.5c2.7-12.5,1.3-13.8-11.9-13.6c-2.1-5.9-16-18-16.1-18.1c-0.6-0.3-1.8-1.4-2.6-2
			c-0.9-0.6-1.6-1.1-2.7-1.8c-1.9-1.1-3.7-2.2-5.8-3.1c-14.8-6.2-29.3-5-42.7,2.7c-9.4,5.6-22.5,15-29.8,23.4
			c-2.7,3.1-5.5,6-8.1,9.6c-1.3,1.8-2,4-4.5,4.4c-9.5,1.4-19-2.2-23.7,2.1c-9.7,8.8,9.8,29.8,8.6,39.3c-0.3,2.9-0.8,5.2-0.9,8.2
			c-0.1,3.9-0.5,3.5-2.3,6.4l-5.1,9c-3,5.2-5.3,9.5-7.6,14.1C33.7,162.9,28.9,146,28.9,128C28.9,73.2,73.2,28.9,128,28.9L128,28.9z"
			/>
		<g>
			<path class="st4" d="M99.6,223c0.9-4.6,2.3-9.2,4-13.4c3.7-9.1,9-18.6,12.5-24.5c9.2-15.8-3-36.3-3.5-43.8l9.3,7.5
				c8.4,6.6,23.1,14.4,33.9,16.5c17.9,3.4,23.9-7.7,27.8-21.6c1.8-6.4,1.7-10.4,2.6-13.9c0.3,0,0.4-0.8,1.4,2.2
				c1.8,5.5,1.3,11.7,0.4,17.4c-0.3,2.2-1,4.5-1.2,6.6c1-0.5,0.2,0,1.1-0.6c7.6-5.1,11.2-10.9,14.7-19.6c0.8-1.8,2.2-7.2,3.2-8.5
				c-0.4-5.8-1.2-11.5-2.8-16.7c-0.7-2.4-1.6-4.9-2.6-7.1c-0.9-1.8-3-5.1-3.1-6.5c-0.5,0.6-2.8,6.5-4.3,9c-1.8,3-3.4,5.3-5.6,7.7
				c-2.3,2.4-4.2,4.4-9.2,3.6c-3.8-0.6-6.8-1.7-9.8-3.2c-5.4-2.7-11.6-7.3-14.3-11.8c-2.4-4-1.5-6.2,1.1-9.1s5.1-3.4,7.4-4.7
				c0.1,0,0.2-0.1,0.3-0.2c0-0.1,0.2-0.1,0.3-0.2c-4.4,0.4-8.2,0.5-12.6,0.5c-4,0-7.8,0.7-11.5,0.2l0.3,0.8
				c-3.7,0.4-13.2,4.4-16,5.9c-4.2,2.3-8.4,6.7-12,9.3l-7.8,8c-2.8,2.2-3.8,4.2-5.6,6.1l-15.5,18.8c-2.9,4.3-9.4,15.7-7.4,22.5
				c2.2,7.5,10.9,9.4,19.6,11.1c-4.4,5.2-20.4,1-25.2-2.1c-1.1,0.9-3.1,4.5-5,8.5c-3,6.1-5.9,12.3-8.3,18.7
				C67.9,208.7,82.8,218,99.6,223z"/>
			<path class="st1" d="M206.4,136.9c0.1-2,0-4-0.1-6c-0.3-4.9-0.3-3.2-0.9-8.1c0.2,1.5,0.3,2.9,0.4,4.4c-1,1.3-2.5,6.6-3.2,8.5
				c-3.6,8.6-7.1,14.4-14.7,19.6c-1,0.7-0.1,0.2-1.1,0.6c0.2-2.1,0.9-4.4,1.2-6.6c0.9-5.6,1.3-11.8-0.4-17.4
				c-0.9-2.9-1.1-2.1-1.4-2.2c-0.9,3.5-0.8,7.5-2.6,13.9c-3.9,13.9-9.9,25-27.8,21.6c-10.9-2-25.6-9.9-33.9-16.5l-9.3-7.5
				c0.5,7.6,12.7,28,3.5,43.8c-3.5,6-8.8,15.4-12.5,24.5c-1.7,4.2-3.1,8.8-4,13.4c9,2.7,18.5,4.1,28.4,4.1c22.9,0,44-7.8,60.8-20.9
				c-3.5-9.9-1.7-16.9,4.6-28.3c6.7-10.3,10.1-14.9,12.4-33.5C206.1,141.9,206.4,139.5,206.4,136.9L206.4,136.9z M47.5,185.8
				c2.3-5.5,4.8-11.1,7.2-16.4c2-4.2,3.8-7.8,4.7-8.6c1.6,3.4,4.6,6.8,8.9,7.7c-2.1-2.8-4.1-4.3-5.4-9.2c-1-4-1.1-8.8-0.5-13.1
				c1.1-8.1,3.8-15.2,6.7-22c5.2-12.6,17.2-32.3,26.9-40.9c0.7-0.6,1.2-1.2,1.8-1.8l5.6-5.3c10.9-9.6,27.8-17.2,43.6-16.5
				c11.4,0.5,14.9,3.4,22.5,5.4c-0.6-0.3-1.8-1.4-2.6-2c-0.9-0.6-1.6-1.1-2.7-1.8c-1.9-1.1-3.7-2.2-5.8-3.1
				c-14.8-6.2-29.3-5-42.7,2.7c-9.6,5.7-22.7,15.1-30,23.5c-2.7,3.1-5.5,6-8.1,9.6c-1.3,1.8-2,4-4.5,4.4c-9.5,1.4-19-2.2-23.7,2.1
				c-9.7,8.8,9.8,29.8,8.6,39.3c-0.3,2.9-0.8,5.2-0.9,8.2c-0.1,3.9-0.5,3.5-2.3,6.4l-5.1,9c-3,5.2-5.3,9.5-7.6,14.1
				C43.7,180.4,45.5,183.2,47.5,185.8L47.5,185.8z"/>
			<path class="st2" d="M179.6,174.7l-0.9-0.1c-0.3,3.5-2.1,8.1-3.3,11.2c-2.3,5.8-2.7,6.6-7.5,7c-5.9,0.5-6.5-1.9-7.5-7
				c-0.8-4.2-1.2-8.8-1.3-13.2c7.5,0,13.1-0.4,19.1-3.4c7.9-3.9,10.1-8.1,12.7-10c-0.8,5-6.1,19.6-8.6,24.9c-1.4,3-2.2,5-5.5,5.8
				C177.9,184.6,179.6,180.8,179.6,174.7L179.6,174.7z"/>
			<path class="st5" d="M196.1,99.5c-3-7.7-12.3-16.1-10.6-16.2c-2.1-5.9-16-18-16.1-18.1c-7.6-2-11.1-4.9-22.5-5.4
				c-15.8-0.7-32.7,6.9-43.6,16.5l-5.6,5.3c-0.7,0.7-1.2,1.2-1.8,1.8C86.3,92,74.2,111.7,69,124.3c-2.8,6.8-5.6,13.9-6.7,22
				c-0.6,4.3-0.5,9,0.5,13.1c1.3,4.9,3.2,6.5,5.4,9.2c-4.2-0.9-7.3-4.3-8.9-7.7c-0.9,0.7-2.7,4.3-4.7,8.6
				c-2.5,5.3-4.9,10.8-7.2,16.4c2.6,3.7,5.5,7.2,8.6,10.4c2.5-6.4,5.3-12.6,8.3-18.7c2-4,3.9-7.6,5-8.5c4.8,3.1,20.8,7.3,25.2,2.1
				c-8.7-1.7-17.4-3.6-19.6-11.1c-2-6.8,4.5-18.1,7.4-22.5l15.5-18.8c1.8-1.8,2.9-3.9,5.6-6.1l7.8-8c3.6-2.7,7.8-7,12-9.3
				c2.8-1.5,12.3-5.6,16-5.9l-0.3-0.8c3.7,0.5,7.4-0.2,11.5-0.2c4.5,0,8.2-0.2,12.6-0.5c-0.1,0.1-0.2,0.1-0.3,0.2
				c0,0.1-0.2,0.2-0.3,0.2c-2.4,1.4-4.8,1.9-7.4,4.7c-2.6,2.8-3.5,5.1-1.1,9.1c2.7,4.5,8.9,9.2,14.3,11.8c3,1.5,6,2.6,9.8,3.2
				c5,0.8,6.9-1.2,9.2-3.6s3.8-4.6,5.6-7.7C193.9,104.3,195.1,101.6,196.1,99.5L196.1,99.5z"/>
			<path class="st2" d="M163.1,87.9c-0.1,0.1-0.2,0.1-0.3,0.2c0,0.1-0.2,0.2-0.3,0.2c-2.4,1.4-4.8,1.9-7.4,4.7
				c-2.6,2.8-3.5,5.1-1.1,9.1c2.7,4.5,8.9,9.2,14.3,11.8c3,1.5,6,2.6,9.8,3.2c5,0.8,6.9-1.2,9.2-3.6s3.8-4.6,5.6-7.7
				c1.5-2.5,3.8-8.4,4.3-9c2.7-12.5,1.3-13.8-11.9-13.6c-4.1,0.3-7.9,0.7-11.8,1.6C169.7,85.7,166.6,87,163.1,87.9L163.1,87.9z"/>
			<path class="st5" d="M178.7,174.6c0.3-0.7-0.1-0.4,0.5-0.7l0.3,0.8c0.1,6.1-1.7,9.9-2.9,15.3c3.3-0.8,4.1-2.7,5.5-5.8
				c2.5-5.4,7.8-19.9,8.6-24.9c-2.6,1.9-4.7,6-12.7,10c-6.1,3-11.6,3.4-19.1,3.4c0.1,4.4,0.5,9,1.3,13.2c1,5.1,1.6,7.5,7.5,7
				c4.8-0.4,5.2-1.2,7.5-7C176.6,182.7,178.4,178.1,178.7,174.6L178.7,174.6z"/>
			<path class="st2" d="M111.3,104.8c3.6-2.7,7.8-7,12-9.3c2.2-1.2,8.5-4,12.9-5.3c1.2-0.4,6-1.3,6.8-1.3c-2.5,0-3,0-5.2-0.3
				c-6.4-0.6-7-3.2-9.9-5.1c-7.3-4.9-20.4-3.6-17.9,8.1C111.5,98.1,113.5,96.6,111.3,104.8z"/>
		</g>
	</g>
</g>
<g>
	<path class="st6" d="M71.1,279.9c0,0.4,0,1.2-0.1,2.5c-0.1,2-0.5,3.7-1.4,5.2c-0.9,1.5-2.1,2.7-3.6,3.5c-1.5,0.9-3.3,1.3-5.3,1.3
		h-9c-0.2,0-0.5-0.1-0.6-0.3c-0.2-0.2-0.3-0.4-0.3-0.7v-23.3c0-0.3,0.1-0.5,0.3-0.7c0.2-0.2,0.4-0.3,0.6-0.3h8.8
		c2,0,3.8,0.4,5.4,1.3c1.6,0.9,2.8,2,3.7,3.6c0.9,1.5,1.4,3.3,1.4,5.2C71.1,278.7,71.1,279.5,71.1,279.9z M57,273v13.7h3.6
		c2.8,0,4.2-1.4,4.4-4.1c0-1.4,0.1-2.3,0.1-2.7c0-0.5,0-1.4-0.1-2.7c-0.1-1.4-0.5-2.4-1.2-3.1c-0.8-0.7-1.9-1-3.3-1H57z"/>
	<path class="st6" d="M75.2,292.2c-0.2-0.2-0.3-0.4-0.3-0.7v-23.3c0-0.3,0.1-0.5,0.3-0.7c0.2-0.2,0.4-0.3,0.6-0.3h10.7
		c1.9,0,3.4,0.4,4.6,1.1c1.2,0.7,2,1.6,2.5,2.8c0.5,1.1,0.8,2.3,0.8,3.7c0,1.2-0.2,2.2-0.6,2.9c-0.4,0.7-0.8,1.3-1.3,1.7
		c0.8,0.6,1.4,1.4,1.8,2.2c0.4,0.9,0.5,1.9,0.5,3.1c0,2.2-0.6,4.1-1.9,5.6c-1.2,1.5-3.2,2.2-5.8,2.2H75.8
		C75.6,292.5,75.3,292.4,75.2,292.2z M81.1,272.8v4.1h5.2c0.7,0,1.2-0.2,1.5-0.5c0.3-0.4,0.5-0.9,0.5-1.5c0-0.6-0.2-1.2-0.5-1.5
		c-0.3-0.4-0.8-0.5-1.5-0.5H81.1z M86.5,286.9c0.7,0,1.2-0.2,1.6-0.6c0.4-0.4,0.6-0.9,0.6-1.6c0-0.6-0.2-1.2-0.6-1.6
		c-0.4-0.4-0.9-0.6-1.6-0.6h-5.5v4.4H86.5z"/>
	<path class="st6" d="M104.7,286.7h10.5c0.2,0,0.5,0.1,0.6,0.3c0.2,0.2,0.3,0.4,0.3,0.7v3.8c0,0.3-0.1,0.5-0.3,0.7
		c-0.2,0.2-0.4,0.3-0.6,0.3H99.5c-0.2,0-0.5-0.1-0.6-0.3c-0.2-0.2-0.3-0.4-0.3-0.7v-23.3c0-0.3,0.1-0.5,0.3-0.7
		c0.2-0.2,0.4-0.3,0.6-0.3H115c0.2,0,0.5,0.1,0.6,0.3c0.2,0.2,0.3,0.4,0.3,0.7v3.8c0,0.3-0.1,0.5-0.3,0.7c-0.2,0.2-0.4,0.3-0.6,0.3
		h-10.2v3.9h9.5c0.2,0,0.5,0.1,0.6,0.3c0.2,0.2,0.3,0.4,0.3,0.7v3.8c0,0.3-0.1,0.5-0.3,0.7c-0.2,0.2-0.4,0.3-0.6,0.3h-9.5V286.7z"/>
	<path class="st6" d="M139.3,291.1c0.1,0.2,0.1,0.4,0.1,0.5c0,0.2-0.1,0.4-0.2,0.6c-0.1,0.2-0.3,0.2-0.5,0.2h-4.2
		c-0.4,0-0.7-0.1-0.9-0.3c-0.2-0.2-0.3-0.4-0.4-0.6l-0.9-3h-8.9l-0.9,3c-0.1,0.2-0.2,0.5-0.4,0.6c-0.2,0.2-0.5,0.3-0.9,0.3H117
		c-0.2,0-0.4-0.1-0.5-0.2c-0.1-0.2-0.2-0.3-0.2-0.6c0-0.1,0-0.3,0.1-0.5l7.3-22.7c0.1-0.3,0.3-0.6,0.5-0.8c0.2-0.2,0.6-0.3,1-0.3
		h5.4c0.4,0,0.7,0.1,1,0.3c0.2,0.2,0.4,0.5,0.5,0.8L139.3,291.1z M130.6,283l-2.7-8.6l-2.7,8.6H130.6z"/>
	<path class="st6" d="M147.4,291l-6.8-22.5c-0.1-0.2-0.1-0.4-0.1-0.5c0-0.2,0.1-0.4,0.2-0.6c0.1-0.2,0.3-0.2,0.5-0.2h4.2
		c0.4,0,0.7,0.1,0.9,0.3c0.2,0.2,0.3,0.4,0.4,0.6l4.6,15.8l4.6-15.8c0.1-0.2,0.2-0.5,0.4-0.6c0.2-0.2,0.5-0.3,0.9-0.3h4.2
		c0.2,0,0.4,0.1,0.5,0.2c0.1,0.2,0.2,0.3,0.2,0.6c0,0.1,0,0.3-0.1,0.5l-6.8,22.5c-0.3,1-0.9,1.4-1.8,1.4h-4.4
		C148.3,292.5,147.7,292,147.4,291z"/>
	<path class="st6" d="M171.5,286.7H182c0.2,0,0.5,0.1,0.6,0.3s0.3,0.4,0.3,0.7v3.8c0,0.3-0.1,0.5-0.3,0.7c-0.2,0.2-0.4,0.3-0.6,0.3
		h-15.8c-0.2,0-0.5-0.1-0.6-0.3c-0.2-0.2-0.3-0.4-0.3-0.7v-23.3c0-0.3,0.1-0.5,0.3-0.7c0.2-0.2,0.4-0.3,0.6-0.3h15.5
		c0.2,0,0.5,0.1,0.6,0.3c0.2,0.2,0.3,0.4,0.3,0.7v3.8c0,0.3-0.1,0.5-0.3,0.7c-0.2,0.2-0.4,0.3-0.6,0.3h-10.2v3.9h9.5
		c0.2,0,0.5,0.1,0.6,0.3s0.3,0.4,0.3,0.7v3.8c0,0.3-0.1,0.5-0.3,0.7c-0.2,0.2-0.4,0.3-0.6,0.3h-9.5V286.7z"/>
	<path class="st6" d="M203.5,269.3c1.6,1.4,2.5,3.4,2.5,6.2c0,3.5-1.3,5.9-4,7.2l4.1,8.6c0.1,0.1,0.1,0.3,0.1,0.4
		c0,0.2-0.1,0.4-0.2,0.6c-0.1,0.2-0.3,0.2-0.5,0.2H201c-0.4,0-0.7-0.1-0.9-0.3c-0.2-0.2-0.4-0.4-0.5-0.7l-3.7-7.7h-3.1v7.7
		c0,0.3-0.1,0.5-0.3,0.7c-0.2,0.2-0.4,0.3-0.6,0.3h-4.4c-0.2,0-0.5-0.1-0.6-0.3c-0.2-0.2-0.3-0.4-0.3-0.7v-23.3
		c0-0.3,0.1-0.5,0.3-0.7c0.2-0.2,0.4-0.3,0.6-0.3h9C199.6,267.3,201.9,268,203.5,269.3z M196.6,278.2c2.2,0,3.2-0.9,3.2-2.7
		c0-1.8-1.1-2.7-3.2-2.7h-3.8v5.3H196.6z"/>
</g>
</svg>
