<?xml version="1.0" encoding="utf-8"?>
<!-- Generator: Adobe Illustrator 24.3.0, SVG Export Plug-In . SVG Version: 6.00 Build 0)  -->
<svg version="1.1" id="Layer_1" xmlns="http://www.w3.org/2000/svg" xmlns:xlink="http://www.w3.org/1999/xlink" x="0px" y="0px"
	 viewBox="0 0 256 300" style="enable-background:new 0 0 256 300;" xml:space="preserve">
<style type="text/css">
	.st0{fill:#FFFFFF;}
	.st1{fill:#231F20;}
	.st2{fill:#5865F2;}
	.st3{clip-path:url(#SVGID_1_);}
</style>
<path class="st0" d="M27.5,162.6h201c15.2,0,27.5,12.3,27.5,27.5v82.4c0,15.2-12.3,27.5-27.5,27.5h-201C12.3,300,0,287.7,0,272.5
	v-82.4C0,174.9,12.3,162.6,27.5,162.6z"/>
<g>
	<path class="st1" d="M74.8,279.9c0,0.4,0,1.2-0.1,2.5c-0.1,2-0.5,3.7-1.4,5.2c-0.9,1.5-2.1,2.7-3.6,3.5c-1.5,0.9-3.3,1.3-5.3,1.3
		h-9c-0.2,0-0.5-0.1-0.6-0.3c-0.2-0.2-0.3-0.4-0.3-0.7v-23.3c0-0.3,0.1-0.5,0.3-0.7c0.2-0.2,0.4-0.3,0.6-0.3h8.8
		c2,0,3.8,0.4,5.4,1.3c1.6,0.9,2.8,2,3.7,3.6c0.9,1.5,1.4,3.3,1.4,5.2C74.7,278.7,74.8,279.5,74.8,279.9z M60.6,273v13.7h3.6
		c2.8,0,4.2-1.4,4.4-4.1c0-1.4,0.1-2.3,0.1-2.7c0-0.5,0-1.4-0.1-2.7c-0.1-1.4-0.5-2.4-1.2-3.1c-0.8-0.7-1.9-1-3.3-1H60.6z"/>
	<path class="st1" d="M78.8,292.2c-0.2-0.2-0.3-0.4-0.3-0.7v-23.3c0-0.3,0.1-0.5,0.3-0.7c0.2-0.2,0.4-0.3,0.6-0.3h4.4
		c0.2,0,0.5,0.1,0.6,0.3c0.2,0.2,0.3,0.4,0.3,0.7v23.3c0,0.3-0.1,0.5-0.3,0.7c-0.2,0.2-0.4,0.3-0.6,0.3h-4.4
		C79.2,292.5,79,292.4,78.8,292.2z"/>
	<path class="st1" d="M107.6,274.6c-0.1,0.2-0.3,0.2-0.5,0.2h-4.4c-0.3,0-0.6,0-0.7-0.1c-0.2-0.1-0.4-0.2-0.6-0.5
		c0,0-0.2-0.2-0.4-0.5c-0.2-0.3-0.6-0.5-1.1-0.7c-0.5-0.2-1.1-0.3-1.8-0.3c-1,0-1.7,0.1-2.3,0.4c-0.6,0.3-0.9,0.8-0.9,1.4
		c0,0.5,0.2,0.9,0.6,1.1c0.4,0.3,1,0.5,1.7,0.7c0.8,0.2,2.2,0.5,4.1,1c2.5,0.6,4.3,1.4,5.5,2.6c1.2,1.2,1.8,2.9,1.8,5
		c0,1.6-0.4,3-1.3,4.2c-0.9,1.2-2.1,2.1-3.7,2.7c-1.6,0.6-3.3,1-5.3,1c-1.9,0-3.6-0.4-5.2-1.1c-1.6-0.7-2.8-1.7-3.7-2.8
		c-0.9-1.2-1.4-2.3-1.4-3.6c0-0.2,0.1-0.4,0.2-0.6c0.1-0.2,0.3-0.2,0.5-0.2H93c0.5,0,0.9,0.2,1.3,0.5c0.1,0.1,0.2,0.3,0.5,0.6
		c0.3,0.3,0.7,0.7,1.3,0.9c0.6,0.3,1.3,0.4,2.1,0.4c2.8,0,4.1-0.6,4.1-1.9c0-0.4-0.2-0.8-0.6-1c-0.4-0.3-0.9-0.5-1.6-0.7
		c-0.7-0.2-1.8-0.5-3.4-0.8l-1.5-0.3c-2.3-0.5-3.9-1.4-5-2.6c-1.1-1.2-1.6-2.9-1.6-5c0-1.4,0.4-2.7,1.2-3.9c0.8-1.2,1.9-2.1,3.3-2.8
		s3.1-1.1,4.9-1.1c1.8,0,3.4,0.4,4.9,1.1c1.5,0.7,2.7,1.7,3.5,2.8c0.9,1.1,1.3,2.2,1.3,3.2C107.8,274.2,107.7,274.4,107.6,274.6z"/>
	<path class="st1" d="M118.2,285.9c0.7,0.8,1.7,1.2,3.1,1.2c1.3,0,2.3-0.3,2.9-0.8c0.6-0.6,1-1.2,1.3-2c0.1-0.4,0.3-0.7,0.4-0.8
		c0.1-0.1,0.4-0.2,0.7-0.2h4.4c0.2,0,0.4,0.1,0.5,0.2s0.2,0.3,0.2,0.6c0,1.6-0.5,3.1-1.4,4.4c-0.9,1.4-2.2,2.4-3.7,3.2
		c-1.6,0.8-3.3,1.2-5.2,1.2c-2.1,0-3.9-0.4-5.4-1.3c-1.5-0.9-2.7-2.1-3.6-3.5c-0.8-1.5-1.3-3.1-1.4-4.9c0-1.2-0.1-2.1-0.1-2.8
		c0-0.9,0-2.1,0.1-3.6c0.1-1.8,0.5-3.4,1.4-4.9c0.8-1.5,2-2.7,3.6-3.5c1.5-0.9,3.3-1.3,5.4-1.3c1.9,0,3.6,0.4,5.2,1.2
		c1.6,0.8,2.8,1.9,3.7,3.2c0.9,1.4,1.4,2.8,1.4,4.4c0,0.2-0.1,0.4-0.2,0.6c-0.1,0.2-0.3,0.2-0.5,0.2h-4.4c-0.4,0-0.6-0.1-0.7-0.2
		c-0.1-0.1-0.3-0.4-0.4-0.8c-0.2-0.8-0.7-1.5-1.3-2c-0.6-0.6-1.6-0.8-2.9-0.8c-1.4,0-2.4,0.4-3.1,1.2c-0.7,0.8-1,1.8-1.1,3
		c0,0.8-0.1,1.8-0.1,3c0,1.2,0,2.2,0.1,3C117.2,284.1,117.6,285.2,118.2,285.9z"/>
	<path class="st1" d="M150.2,268.2c1.5,0.9,2.7,2,3.5,3.5c0.8,1.5,1.3,3.1,1.4,5c0,0.7,0.1,1.8,0.1,3.2c0,1.5,0,2.5-0.1,3.2
		c-0.1,1.8-0.5,3.5-1.4,5c-0.8,1.5-2,2.6-3.5,3.5c-1.5,0.9-3.4,1.3-5.5,1.3c-2.1,0-3.9-0.4-5.5-1.3c-1.5-0.9-2.7-2-3.5-3.5
		c-0.8-1.5-1.3-3.1-1.4-5c0-1.3-0.1-2.4-0.1-3.2c0-0.8,0-1.9,0.1-3.2c0.1-1.8,0.5-3.5,1.4-5c0.8-1.5,2-2.6,3.5-3.5
		c1.5-0.9,3.3-1.3,5.5-1.3C146.8,266.9,148.7,267.3,150.2,268.2z M147.7,273.8c-0.7-0.8-1.7-1.1-3-1.1c-1.3,0-2.3,0.4-3,1.1
		c-0.7,0.8-1.1,1.8-1.2,3c-0.1,0.8-0.1,1.8-0.1,3c0,1.2,0,2.2,0.1,3.1c0.1,1.3,0.5,2.3,1.2,3c0.7,0.8,1.7,1.1,3,1.1
		c1.3,0,2.3-0.4,3-1.1c0.7-0.8,1.1-1.8,1.2-3c0.1-0.9,0.1-1.9,0.1-3.1c0-1.2,0-2.2-0.1-3C148.9,275.6,148.4,274.6,147.7,273.8z"/>
	<path class="st1" d="M175.8,269.3c1.6,1.4,2.5,3.4,2.5,6.2c0,3.5-1.3,5.9-4,7.2l4.1,8.6c0.1,0.1,0.1,0.3,0.1,0.4
		c0,0.2-0.1,0.4-0.2,0.6c-0.1,0.2-0.3,0.2-0.5,0.2h-4.5c-0.4,0-0.7-0.1-0.9-0.3c-0.2-0.2-0.4-0.4-0.5-0.7l-3.7-7.7h-3.1v7.7
		c0,0.3-0.1,0.5-0.3,0.7c-0.2,0.2-0.4,0.3-0.6,0.3h-4.4c-0.2,0-0.5-0.1-0.6-0.3c-0.2-0.2-0.3-0.4-0.3-0.7v-23.3
		c0-0.3,0.1-0.5,0.3-0.7c0.2-0.2,0.4-0.3,0.6-0.3h9C171.9,267.3,174.2,268,175.8,269.3z M168.9,278.2c2.2,0,3.2-0.9,3.2-2.7
		c0-1.8-1.1-2.7-3.2-2.7h-3.8v5.3H168.9z"/>
	<path class="st1" d="M202.4,279.9c0,0.4,0,1.2-0.1,2.5c-0.1,2-0.5,3.7-1.4,5.2c-0.9,1.5-2.1,2.7-3.6,3.5c-1.5,0.9-3.3,1.3-5.3,1.3
		h-9c-0.2,0-0.5-0.1-0.6-0.3c-0.2-0.2-0.3-0.4-0.3-0.7v-23.3c0-0.3,0.1-0.5,0.3-0.7c0.2-0.2,0.4-0.3,0.6-0.3h8.8
		c2,0,3.8,0.4,5.4,1.3c1.6,0.9,2.8,2,3.7,3.6c0.9,1.5,1.4,3.3,1.4,5.2C202.4,278.7,202.4,279.5,202.4,279.9z M188.3,273v13.7h3.6
		c2.8,0,4.2-1.4,4.4-4.1c0-1.4,0.1-2.3,0.1-2.7c0-0.5,0-1.4-0.1-2.7c-0.1-1.4-0.5-2.4-1.2-3.1c-0.8-0.7-1.9-1-3.3-1H188.3z"/>
</g>
<path class="st2" d="M60,0h136c33.1,0,60,26.9,60,60v136c0,33.1-26.9,60-60,60H60c-33.1,0-60-26.9-60-60V60C0,26.9,26.9,0,60,0z"/>
<g>
	<defs>
		<rect id="SVGID_3_" x="28" y="51" width="200" height="154.9"/>
	</defs>
	<clipPath id="SVGID_1_">
		<use xlink:href="#SVGID_3_"  style="overflow:visible;"/>
	</clipPath>
	<g class="st3">
		<path class="st0" d="M197.3,64.8c-12.7-5.8-26.4-10.2-40.7-12.6c-0.3,0-0.5,0.1-0.7,0.3c-1.8,3.1-3.7,7.2-5.1,10.4
			c-15.4-2.3-30.7-2.3-45.7,0c-1.4-3.3-3.4-7.3-5.1-10.4c-0.1-0.2-0.4-0.3-0.7-0.3c-14.3,2.5-28,6.8-40.7,12.6
			c-0.1,0-0.2,0.1-0.3,0.2c-25.9,38.7-33,76.5-29.5,113.8c0,0.2,0.1,0.4,0.3,0.5c17.1,12.6,33.7,20.2,49.9,25.2
			c0.3,0.1,0.5,0,0.7-0.2c3.8-5.3,7.3-10.8,10.2-16.6c0.2-0.3,0-0.7-0.3-0.9c-5.4-2.1-10.6-4.6-15.6-7.4c-0.4-0.2-0.4-0.8-0.1-1.1
			c1-0.8,2.1-1.6,3.1-2.4c0.2-0.2,0.4-0.2,0.6-0.1c32.7,14.9,68.2,14.9,100.5,0c0.2-0.1,0.5-0.1,0.7,0.1c1,0.8,2,1.7,3.1,2.4
			c0.4,0.3,0.3,0.8-0.1,1.1c-5,2.9-10.2,5.4-15.6,7.4c-0.4,0.1-0.5,0.5-0.3,0.9c3,5.8,6.4,11.4,10.2,16.6c0.2,0.2,0.4,0.3,0.7,0.2
			c16.3-5.1,32.9-12.7,50-25.2c0.1-0.1,0.2-0.3,0.3-0.5c4.2-43.1-7-80.6-29.6-113.8C197.5,64.9,197.4,64.8,197.3,64.8z M94.8,156.1
			c-9.9,0-18-9-18-20.2c0-11.1,8-20.2,18-20.2c10.1,0,18.1,9.1,18,20.2C112.8,147.1,104.8,156.1,94.8,156.1z M161.3,156.1
			c-9.9,0-18-9-18-20.2c0-11.1,8-20.2,18-20.2c10.1,0,18.1,9.1,18,20.2C179.3,147.1,171.4,156.1,161.3,156.1z"/>
	</g>
</g>
</svg>
