<?xml version="1.0" encoding="utf-8"?>
<!-- Generator: Adobe Illustrator 24.3.0, SVG Export Plug-In . SVG Version: 6.00 Build 0)  -->
<svg version="1.1" id="Layer_1" xmlns="http://www.w3.org/2000/svg" xmlns:xlink="http://www.w3.org/1999/xlink" x="0px" y="0px"
	 viewBox="0 0 256 300" style="enable-background:new 0 0 256 300;" xml:space="preserve">
<style type="text/css">
	.st0{fill:#FFFFFF;}
	.st1{fill:#372923;}
	.st2{fill-rule:evenodd;clip-rule:evenodd;fill:#DCD5C9;}
	.st3{fill:#897363;}
	.st4{fill-rule:evenodd;clip-rule:evenodd;fill:#372923;}
	.st5{fill-rule:evenodd;clip-rule:evenodd;fill:#FDFDFC;}
	.st6{fill:#231F20;}
</style>
<path class="st0" d="M27.5,162.6h201c15.2,0,27.5,12.3,27.5,27.5v82.4c0,15.2-12.3,27.5-27.5,27.5h-201C12.3,300,0,287.7,0,272.5
	v-82.4C0,174.9,12.3,162.6,27.5,162.6z"/>
<path class="st1" d="M60,0h136c33.1,0,60,26.9,60,60v136c0,33.1-26.9,60-60,60H60c-33.1,0-60-26.9-60-60V60C0,26.9,26.8,0,60,0z"/>
<g>
	<circle class="st2" cx="128" cy="128" r="107.5"/>
	<g>
		<path class="st0" d="M126.4,176c-0.3-0.3-0.7-0.4-1-0.8C125.8,175.5,126.1,175.8,126.4,176L126.4,176z"/>
		<path class="st3" d="M108.6,119.6c-1.7,5.2-2.9,10.1-4.2,15.4c-4.8,20.4-3.4,39.7,4.3,55.4c1,2.1,1.8,4,1.9,4.6
			c0,0.3,0.1,0.4,0.3,0.8l0,0c0.3,0.3,0.5,0.5,0.9,0.9c0.3,0.3,0.9,0,0.6-0.3c-2.4-7.5-4-15.1-4.8-23c-0.4-5.5,0.3-11,2-16.1
			c0.1-0.3,0.6-0.3,0.8-0.1c1.2,2.7,5.3,10.6,15.3,18.3c12.4,9.5,11.6,3.9,12.2,2.9c0.5-1-0.2-7.3-2.8-14.1c0,0,0,0,0-0.1
			c-3.5-7.6-5.4-15.8-5.4-24.1c-0.1-2.1-0.1-4.2,0-6.1c0.3-3.7,1.1-7.6,2.5-11c1.7-4.4,4.3-9,5.9-11.8c4.4-7.6-1.4-17.5-1.6-21.1
			l4.4,3.6c4,3.2,10.9,7,16,7.9c8.4,1.6,11.3-3.7,13.1-10.4c0.9-3.1,0.8-5,1.2-6.7c0.1,0,0.2-0.4,0.6,1c0.8,2.7,0.6,5.6,0.2,8.4
			c-0.2,1.1-0.5,2.2-0.6,3.2c0.5-0.2,0.1,0,0.5-0.3c3.6-2.5,5.3-5.3,6.9-9.4c0.4-0.9,1-3.5,1.5-4.1c-0.2-2.8-0.6-5.6-1.3-8.1
			c-0.3-1.2-0.7-2.4-1.2-3.4c-0.4-0.9-1.4-2.5-1.5-3.1c-0.2,0.3-1.3,3.1-2,4.3c-0.9,1.5-1.6,2.5-2.7,3.7c-1.1,1.2-2,2.1-4.3,1.7
			c-1.8-0.3-3.2-0.8-4.6-1.5c-2.5-1.3-5.5-3.5-6.8-5.7c-1.1-1.9-0.7-3,0.5-4.4s2.4-1.6,3.5-2.3c0,0,0.1,0,0.1-0.1s0.1-0.1,0.1-0.1
			c-2.1,0.2-3.8,0.2-6,0.3c-1.9,0-3.7,0.4-5.4,0.1L149,65c-1.8,0.2-6.2,2.1-7.5,2.9c-2,1.1-4,3.2-5.7,4.5l-3.7,3.9
			c-1.3,1.1-1.8,2-2.7,2.9l-7.3,9.1c-1.4,2.1-4.4,7.6-3.5,10.8c1,3.6,5.2,4.5,9.2,5.4c-2.1,2.5-9.6,0.5-11.9-1
			c-0.5,0.4-1.5,2.2-2.4,4.1C111.8,111.4,110,115.5,108.6,119.6L108.6,119.6z"/>
		<path class="st1" d="M180.7,87.8c0-1,0-1.9,0-2.9c-0.1-2.3-0.2-1.6-0.4-3.9c0.1,0.7,0.1,1.4,0.2,2.1c-0.5,0.6-1.2,3.2-1.5,4.1
			c-1.7,4.2-3.3,7-6.9,9.4c-0.5,0.3,0,0.1-0.5,0.3c0.1-1,0.4-2.1,0.6-3.2c0.4-2.7,0.6-5.7-0.2-8.4c-0.4-1.4-0.5-1-0.6-1
			c-0.4,1.7-0.4,3.6-1.2,6.7c-1.9,6.7-4.7,12-13.1,10.4c-5.1-1-12.1-4.8-16-7.9l-4.4-3.6c0.2,3.6,6,13.5,1.6,21.1
			c-1.6,2.9-4.2,7.4-5.9,11.8c-1.4,3.4-2.2,7.3-2.5,11c-0.1,2-0.1,4,0,6.1c0,8.3,1.9,16.5,5.4,24.1c0,0.1,0,0.1,0,0.1
			c2.6,6.8,3.3,13.1,2.8,14.1c-0.6,1,0.2,6.6-12.2-2.9c-10.1-7.7-14.1-15.6-15.3-18.3c0-0.1-0.1-0.1-0.2-0.1c0.1,0.2,0,0.1-0.1,0
			c-0.2-0.1-0.5,0-0.5,0.3c-1.7,5.1-2.4,10.6-2,16.1c0.8,7.8,2.4,15.5,4.8,23c0.3,0.3-0.3,0.6-0.6,0.3c-0.3-0.3-0.6-0.6-0.9-0.9l0,0
			c0-0.1-0.1-0.1-0.1-0.2c-4.2-4.4-14.6-17.3-15.3-38.6c-0.5-13.8,3.7-28.7,7.9-40c1.7-4.5,3.6-9.1,5.6-13.5c0.9-2,1.8-3.8,2.2-4.1
			c0.7,1.6,2.2,3.3,4.2,3.7c-1-1.3-1.9-2.1-2.5-4.5c-0.5-1.9-0.5-4.3-0.2-6.3c0.5-3.9,1.8-7.3,3.1-10.6c2.4-6.1,8.1-15.6,12.7-19.7
			c0.3-0.3,0.5-0.6,0.9-0.9l2.6-2.6c5.1-4.6,13.1-8.3,20.6-7.9c5.4,0.2,7.1,1.7,10.6,2.6c-0.3-0.2-0.9-0.7-1.2-1
			c-0.4-0.3-0.7-0.5-1.3-0.8c-0.9-0.5-1.7-1-2.7-1.5c-7-3-13.8-2.4-20.2,1.3c-4.5,2.6-10.6,7.2-14.1,11.3c-1.3,1.5-2.6,2.9-3.8,4.6
			c-0.6,0.9-0.9,1.9-2.1,2.1c-4.5,0.7-9-1.1-11.2,1c-4.6,4.3,4.6,14.4,4.1,18.9c-0.2,1.4-0.4,2.5-0.4,4c0,1.9-0.3,1.7-1.1,3.1
			l-2.4,4.3c-2.3,4.1-3.8,7.1-5.7,11.3c-1.5,3.3-2.9,6.7-3.9,10c-0.2,0.4-0.9,0.3-0.9-0.2c0.9-13,2.2-52.1-11.4-59.8
			c-16.5-9.4-29.6-1.9-34,10.4c-9.4,26.3,4.5,67.3,24.2,100.5s38.4,39.1,51.7,39.7c22.2,1,15.7-3.8,23.6-4.4c7.9-0.4,6.8,4.4,20,2.5
			c9.7-1.5,11.3-8,7.7-11c-3.7-3-2.4-10.1,1-25.5c3.5-15.3-1.4-42.3-5-49.3c-3.5-7-3.1-10.5,0.6-17.3c3.2-5,4.8-7.2,5.8-16.1
			C180.6,90.3,180.7,89.1,180.7,87.8L180.7,87.8z"/>
		<path class="st4" d="M168,106.1h-0.4c-0.1,1.7-1,3.9-1.6,5.4c-1.1,2.8-1.3,3.2-3.5,3.4c-2.8,0.2-3.1-0.9-3.5-3.4
			c-0.4-2-0.6-4.2-0.6-6.3c3.5,0,6.2-0.2,9-1.6c3.7-1.9,4.8-3.9,6-4.8c-0.4,2.4-2.9,9.4-4.1,12c-0.7,1.5-1.1,2.4-2.6,2.8
			C167.2,110.9,168.1,109.1,168,106.1z"/>
		<path class="st5" d="M175.8,69.8c-1.4-3.7-5.8-7.8-5-7.8c-1-2.9-7.6-8.7-7.6-8.7c-3.6-0.9-5.2-2.4-10.6-2.6
			c-7.4-0.3-15.4,3.3-20.6,7.9l-2.6,2.6c-0.3,0.3-0.5,0.6-0.9,0.9c-4.5,4.1-10.2,13.7-12.7,19.7c-1.3,3.3-2.6,6.7-3.1,10.6
			c-0.3,2-0.3,4.4,0.2,6.3c0.6,2.4,1.5,3.1,2.5,4.5c-2-0.4-3.4-2.1-4.2-3.7c-0.4,0.4-1.3,2.1-2.2,4.1c-2,4.3-3.9,9-5.6,13.5
			c-4.2,11.3-8.4,26.3-7.9,40c0.6,21.3,11,34.1,15.3,38.6c-0.1-0.2-0.2-0.4-0.2-0.6c-0.1-0.6-0.9-2.5-1.9-4.6
			c-7.7-15.7-9.1-34.9-4.3-55.4c1.2-5.3,2.4-10.3,4.2-15.4c1.4-4.1,3.2-8.2,5.1-12.2c0.9-1.9,1.8-3.6,2.4-4.1
			c2.3,1.5,9.8,3.5,11.9,1c-4.1-0.8-8.2-1.7-9.2-5.4c-1-3.3,2.1-8.7,3.5-10.8l7.3-9.1c0.9-0.9,1.4-1.9,2.7-2.9l3.7-3.9
			c1.7-1.3,3.7-3.4,5.7-4.5c1.3-0.7,5.8-2.7,7.5-2.9l-0.1-0.4c1.7,0.2,3.5-0.1,5.4-0.1c2.1,0,3.9-0.1,6-0.3c0,0-0.1,0-0.1,0.1
			s-0.1,0.1-0.1,0.1c-1.1,0.7-2.3,0.9-3.5,2.3s-1.7,2.5-0.5,4.4c1.3,2.2,4.2,4.4,6.8,5.7c1.4,0.7,2.8,1.2,4.6,1.5
			c2.3,0.4,3.3-0.6,4.3-1.7c1.1-1.1,1.8-2.2,2.7-3.7C174.8,72.2,175.4,70.8,175.8,69.8L175.8,69.8z"/>
		<path class="st4" d="M160.3,64.2c0,0-0.1,0-0.1,0.1s-0.1,0.1-0.1,0.1c-1.1,0.7-2.3,0.9-3.5,2.3s-1.7,2.5-0.5,4.4
			c1.3,2.2,4.2,4.4,6.8,5.7c1.4,0.7,2.8,1.2,4.6,1.5c2.3,0.4,3.3-0.6,4.3-1.7c1.1-1.1,1.8-2.2,2.7-3.7c0.7-1.2,1.8-4,2-4.3
			c1.3-6,0.6-6.7-5.6-6.5c-1.9,0.2-3.7,0.4-5.6,0.8C163.4,63.2,161.9,63.8,160.3,64.2L160.3,64.2z"/>
		<path class="st5" d="M167.6,106.1c0.1-0.4,0-0.2,0.2-0.3l0.2,0.4c0,3-0.8,4.8-1.4,7.4c1.6-0.4,2-1.3,2.6-2.8
			c1.2-2.6,3.7-9.6,4.1-12c-1.2,0.9-2.2,2.9-6,4.8c-2.9,1.5-5.5,1.6-9,1.6c0.1,2.1,0.3,4.3,0.6,6.3c0.5,2.5,0.8,3.6,3.5,3.4
			c2.3-0.2,2.5-0.6,3.5-3.4C166.6,110,167.5,107.7,167.6,106.1L167.6,106.1z"/>
		<path class="st4" d="M135.8,72.4c1.7-1.3,3.7-3.4,5.7-4.5c1-0.6,4-1.9,6.1-2.5c0.6-0.2,2.8-0.6,3.2-0.6c-1.2,0-1.4,0-2.5-0.1
			c-3-0.3-3.3-1.5-4.7-2.5c-3.5-2.4-9.6-1.7-8.4,3.9C135.9,69.2,136.8,68.4,135.8,72.4z"/>
	</g>
</g>
<g>
	<path class="st6" d="M71.1,279.9c0,0.4,0,1.2-0.1,2.5c-0.1,2-0.5,3.7-1.4,5.2c-0.9,1.5-2.1,2.7-3.6,3.5c-1.5,0.9-3.3,1.3-5.3,1.3
		h-9c-0.2,0-0.5-0.1-0.6-0.3c-0.2-0.2-0.3-0.4-0.3-0.7v-23.3c0-0.3,0.1-0.5,0.3-0.7c0.2-0.2,0.4-0.3,0.6-0.3h8.8
		c2,0,3.8,0.4,5.4,1.3c1.6,0.9,2.8,2,3.7,3.6c0.9,1.5,1.4,3.3,1.4,5.2C71.1,278.7,71.1,279.5,71.1,279.9z M57,273v13.7h3.6
		c2.8,0,4.2-1.4,4.4-4.1c0-1.4,0.1-2.3,0.1-2.7c0-0.5,0-1.4-0.1-2.7c-0.1-1.4-0.5-2.4-1.2-3.1c-0.8-0.7-1.9-1-3.3-1H57z"/>
	<path class="st6" d="M75.2,292.2c-0.2-0.2-0.3-0.4-0.3-0.7v-23.3c0-0.3,0.1-0.5,0.3-0.7c0.2-0.2,0.4-0.3,0.6-0.3h10.7
		c1.9,0,3.4,0.4,4.6,1.1c1.2,0.7,2,1.6,2.5,2.8c0.5,1.1,0.8,2.3,0.8,3.7c0,1.2-0.2,2.2-0.6,2.9c-0.4,0.7-0.8,1.3-1.3,1.7
		c0.8,0.6,1.4,1.4,1.8,2.2c0.4,0.9,0.5,1.9,0.5,3.1c0,2.2-0.6,4.1-1.9,5.6c-1.2,1.5-3.2,2.2-5.8,2.2H75.8
		C75.6,292.5,75.3,292.4,75.2,292.2z M81.1,272.8v4.1h5.2c0.7,0,1.2-0.2,1.5-0.5c0.3-0.4,0.5-0.9,0.5-1.5c0-0.6-0.2-1.2-0.5-1.5
		c-0.3-0.4-0.8-0.5-1.5-0.5H81.1z M86.5,286.9c0.7,0,1.2-0.2,1.6-0.6c0.4-0.4,0.6-0.9,0.6-1.6c0-0.6-0.2-1.2-0.6-1.6
		c-0.4-0.4-0.9-0.6-1.6-0.6h-5.5v4.4H86.5z"/>
	<path class="st6" d="M104.7,286.7h10.5c0.2,0,0.5,0.1,0.6,0.3c0.2,0.2,0.3,0.4,0.3,0.7v3.8c0,0.3-0.1,0.5-0.3,0.7
		c-0.2,0.2-0.4,0.3-0.6,0.3H99.5c-0.2,0-0.5-0.1-0.6-0.3c-0.2-0.2-0.3-0.4-0.3-0.7v-23.3c0-0.3,0.1-0.5,0.3-0.7
		c0.2-0.2,0.4-0.3,0.6-0.3H115c0.2,0,0.5,0.1,0.6,0.3c0.2,0.2,0.3,0.4,0.3,0.7v3.8c0,0.3-0.1,0.5-0.3,0.7c-0.2,0.2-0.4,0.3-0.6,0.3
		h-10.2v3.9h9.5c0.2,0,0.5,0.1,0.6,0.3c0.2,0.2,0.3,0.4,0.3,0.7v3.8c0,0.3-0.1,0.5-0.3,0.7c-0.2,0.2-0.4,0.3-0.6,0.3h-9.5V286.7z"/>
	<path class="st6" d="M139.3,291.1c0.1,0.2,0.1,0.4,0.1,0.5c0,0.2-0.1,0.4-0.2,0.6c-0.1,0.2-0.3,0.2-0.5,0.2h-4.2
		c-0.4,0-0.7-0.1-0.9-0.3c-0.2-0.2-0.3-0.4-0.4-0.6l-0.9-3h-8.9l-0.9,3c-0.1,0.2-0.2,0.5-0.4,0.6c-0.2,0.2-0.5,0.3-0.9,0.3H117
		c-0.2,0-0.4-0.1-0.5-0.2c-0.1-0.2-0.2-0.3-0.2-0.6c0-0.1,0-0.3,0.1-0.5l7.3-22.7c0.1-0.3,0.3-0.6,0.5-0.8c0.2-0.2,0.6-0.3,1-0.3
		h5.4c0.4,0,0.7,0.1,1,0.3c0.2,0.2,0.4,0.5,0.5,0.8L139.3,291.1z M130.6,283l-2.7-8.6l-2.7,8.6H130.6z"/>
	<path class="st6" d="M147.4,291l-6.8-22.5c-0.1-0.2-0.1-0.4-0.1-0.5c0-0.2,0.1-0.4,0.2-0.6c0.1-0.2,0.3-0.2,0.5-0.2h4.2
		c0.4,0,0.7,0.1,0.9,0.3c0.2,0.2,0.3,0.4,0.4,0.6l4.6,15.8l4.6-15.8c0.1-0.2,0.2-0.5,0.4-0.6c0.2-0.2,0.5-0.3,0.9-0.3h4.2
		c0.2,0,0.4,0.1,0.5,0.2c0.1,0.2,0.2,0.3,0.2,0.6c0,0.1,0,0.3-0.1,0.5l-6.8,22.5c-0.3,1-0.9,1.4-1.8,1.4h-4.4
		C148.3,292.5,147.7,292,147.4,291z"/>
	<path class="st6" d="M171.5,286.7H182c0.2,0,0.5,0.1,0.6,0.3s0.3,0.4,0.3,0.7v3.8c0,0.3-0.1,0.5-0.3,0.7c-0.2,0.2-0.4,0.3-0.6,0.3
		h-15.8c-0.2,0-0.5-0.1-0.6-0.3c-0.2-0.2-0.3-0.4-0.3-0.7v-23.3c0-0.3,0.1-0.5,0.3-0.7c0.2-0.2,0.4-0.3,0.6-0.3h15.5
		c0.2,0,0.5,0.1,0.6,0.3c0.2,0.2,0.3,0.4,0.3,0.7v3.8c0,0.3-0.1,0.5-0.3,0.7c-0.2,0.2-0.4,0.3-0.6,0.3h-10.2v3.9h9.5
		c0.2,0,0.5,0.1,0.6,0.3s0.3,0.4,0.3,0.7v3.8c0,0.3-0.1,0.5-0.3,0.7c-0.2,0.2-0.4,0.3-0.6,0.3h-9.5V286.7z"/>
	<path class="st6" d="M203.5,269.3c1.6,1.4,2.5,3.4,2.5,6.2c0,3.5-1.3,5.9-4,7.2l4.1,8.6c0.1,0.1,0.1,0.3,0.1,0.4
		c0,0.2-0.1,0.4-0.2,0.6c-0.1,0.2-0.3,0.2-0.5,0.2H201c-0.4,0-0.7-0.1-0.9-0.3c-0.2-0.2-0.4-0.4-0.5-0.7l-3.7-7.7h-3.1v7.7
		c0,0.3-0.1,0.5-0.3,0.7c-0.2,0.2-0.4,0.3-0.6,0.3h-4.4c-0.2,0-0.5-0.1-0.6-0.3c-0.2-0.2-0.3-0.4-0.3-0.7v-23.3
		c0-0.3,0.1-0.5,0.3-0.7c0.2-0.2,0.4-0.3,0.6-0.3h9C199.6,267.3,201.9,268,203.5,269.3z M196.6,278.2c2.2,0,3.2-0.9,3.2-2.7
		c0-1.8-1.1-2.7-3.2-2.7h-3.8v5.3H196.6z"/>
</g>
</svg>
