<?xml version="1.0" encoding="utf-8"?>
<!-- Generator: Adobe Illustrator 24.3.0, SVG Export Plug-In . SVG Version: 6.00 Build 0)  -->
<svg version="1.1" id="Layer_1" xmlns="http://www.w3.org/2000/svg" xmlns:xlink="http://www.w3.org/1999/xlink" x="0px" y="0px"
	 viewBox="0 0 256 300" style="enable-background:new 0 0 256 300;" xml:space="preserve">
<style type="text/css">
	.st0{fill:#FFFFFF;}
	.st1{fill:#0D1117;}
	.st2{fill:#2396ED;}
</style>
<path class="st0" d="M27.5,162.6h201c15.2,0,27.5,12.3,27.5,27.5v82.4c0,15.2-12.3,27.5-27.5,27.5h-201C12.3,300,0,287.7,0,272.5
	v-82.4C0,174.9,12.3,162.6,27.5,162.6z"/>
<g>
	<path class="st1" d="M77.4,280c0,0.4,0,1.2-0.1,2.5c-0.1,2-0.5,3.7-1.3,5.2s-1.9,2.7-3.4,3.5c-1.4,0.8-3.1,1.3-5,1.3h-8.4
		c-0.2,0-0.4-0.1-0.6-0.3c-0.2-0.2-0.2-0.4-0.2-0.7v-23.1c0-0.3,0.1-0.5,0.2-0.7c0.2-0.2,0.4-0.3,0.6-0.3h8.2c1.9,0,3.6,0.4,5,1.3
		c1.5,0.8,2.6,2,3.4,3.5s1.3,3.2,1.4,5.2C77.4,278.8,77.4,279.6,77.4,280z M64.2,273.2v13.6h3.3c2.6,0,4-1.4,4.1-4.1
		c0-1.4,0.1-2.3,0.1-2.7c0-0.5,0-1.4-0.1-2.6c-0.1-1.4-0.4-2.4-1.2-3.1c-0.7-0.7-1.7-1-3.1-1L64.2,273.2
		C64.2,273.3,64.2,273.2,64.2,273.2z"/>
	<path class="st1" d="M97.4,268.4c1.4,0.9,2.5,2,3.3,3.5s1.2,3.1,1.3,4.9c0,0.7,0.1,1.7,0.1,3.2s0,2.5-0.1,3.1
		c-0.1,1.8-0.5,3.5-1.3,4.9c-0.8,1.5-1.9,2.6-3.3,3.5s-3.1,1.3-5.1,1.3s-3.7-0.4-5.1-1.3s-2.5-2-3.3-3.5s-1.2-3.1-1.3-4.9
		c0-1.3-0.1-2.3-0.1-3.1c0-0.8,0-1.9,0.1-3.2c0.1-1.8,0.5-3.5,1.3-4.9c0.8-1.5,1.9-2.6,3.3-3.5s3.1-1.3,5.1-1.3S96,267.5,97.4,268.4
		z M95.1,274c-0.7-0.8-1.6-1.1-2.8-1.1s-2.2,0.4-2.8,1.1c-0.6,0.7-1,1.8-1.1,3c-0.1,0.8-0.1,1.8-0.1,3s0,2.2,0.1,3
		c0.1,1.3,0.5,2.3,1.1,3s1.6,1.1,2.8,1.1s2.2-0.4,2.8-1.1c0.6-0.7,1-1.8,1.1-3c0.1-0.9,0.1-1.9,0.1-3c0-1.2,0-2.2-0.1-3
		C96.1,275.7,95.8,274.7,95.1,274z"/>
	<path class="st1" d="M114,286c0.6,0.8,1.6,1.1,2.9,1.1c1.2,0,2.1-0.3,2.7-0.8s1-1.2,1.2-2c0.1-0.4,0.2-0.7,0.4-0.8
		c0.1-0.1,0.4-0.2,0.7-0.2h4.1c0.2,0,0.3,0.1,0.5,0.2c0.1,0.2,0.2,0.3,0.2,0.6c0,1.6-0.5,3.1-1.3,4.4c-0.9,1.3-2,2.4-3.5,3.2
		s-3.1,1.2-4.9,1.2c-1.9,0-3.6-0.4-5-1.3s-2.5-2-3.3-3.5s-1.2-3.1-1.3-4.9c0-1.1-0.1-2.1-0.1-2.8c0-0.9,0-2.1,0.1-3.5
		c0.1-1.8,0.5-3.4,1.3-4.9s1.9-2.6,3.3-3.5s3.1-1.3,5-1.3c1.8,0,3.4,0.4,4.9,1.2c1.5,0.8,2.6,1.9,3.5,3.2c0.9,1.3,1.3,2.8,1.3,4.4
		c0,0.2-0.1,0.4-0.2,0.6s-0.3,0.2-0.5,0.2h-4.1c-0.3,0-0.6-0.1-0.7-0.2s-0.2-0.4-0.4-0.8c-0.2-0.8-0.6-1.5-1.2-2s-1.5-0.8-2.7-0.8
		c-1.3,0-2.3,0.4-2.9,1.1c-0.6,0.8-1,1.8-1,3c0,0.8-0.1,1.8-0.1,3c0,1.1,0,2.1,0.1,3C113.1,284.2,113.4,285.2,114,286z"/>
	<path class="st1" d="M150.7,291.7c0,0.2-0.1,0.4-0.2,0.6c-0.1,0.2-0.3,0.2-0.5,0.2h-4.9c-0.3,0-0.5-0.1-0.7-0.2s-0.4-0.3-0.6-0.6
		l-5.9-8.5v8.4c0,0.3-0.1,0.5-0.2,0.7c-0.2,0.2-0.4,0.3-0.6,0.3H133c-0.2,0-0.4-0.1-0.6-0.3c-0.2-0.2-0.2-0.4-0.2-0.7v-23.1
		c0-0.3,0.1-0.5,0.2-0.7c0.2-0.2,0.4-0.3,0.6-0.3h4.1c0.2,0,0.4,0.1,0.6,0.3c0.2,0.2,0.2,0.4,0.2,0.7v7.6l5.5-7.7
		c0.2-0.2,0.3-0.4,0.5-0.6c0.2-0.1,0.4-0.2,0.7-0.2h4.8c0.2,0,0.3,0.1,0.5,0.2c0.1,0.2,0.2,0.3,0.2,0.6c0,0.1,0,0.3-0.1,0.4
		l-7.7,10.8l8.2,11.9C150.7,291.4,150.7,291.6,150.7,291.7z"/>
	<path class="st1" d="M161.2,286.8h9.8c0.2,0,0.4,0.1,0.6,0.3c0.2,0.2,0.2,0.4,0.2,0.7v3.8c0,0.3-0.1,0.5-0.2,0.7
		c-0.2,0.2-0.4,0.3-0.6,0.3h-14.7c-0.2,0-0.4-0.1-0.6-0.3c-0.2-0.2-0.2-0.4-0.2-0.7v-23.1c0-0.3,0.1-0.5,0.2-0.7
		c0.2-0.2,0.4-0.3,0.6-0.3h14.5c0.2,0,0.4,0.1,0.6,0.3c0.2,0.2,0.2,0.4,0.2,0.7v3.8c0,0.3-0.1,0.5-0.2,0.7c-0.2,0.2-0.4,0.3-0.6,0.3
		h-9.6v3.9h8.9c0.2,0,0.4,0.1,0.6,0.3c0.2,0.2,0.2,0.4,0.2,0.7v3.8c0,0.3-0.1,0.5-0.2,0.7c-0.2,0.2-0.4,0.3-0.6,0.3h-8.9V286.8z"/>
	<path class="st1" d="M193.5,269.5c1.5,1.4,2.3,3.4,2.3,6.1c0,3.5-1.2,5.8-3.7,7.2l3.8,8.5c0.1,0.1,0.1,0.3,0.1,0.4
		c0,0.2-0.1,0.4-0.2,0.6c-0.1,0.2-0.3,0.2-0.5,0.2h-4.2c-0.4,0-0.7-0.1-0.8-0.3c-0.2-0.2-0.3-0.4-0.5-0.7l-3.4-7.7h-2.9v7.7
		c0,0.3-0.1,0.5-0.2,0.7c-0.2,0.2-0.4,0.3-0.6,0.3h-4.1c-0.2,0-0.4-0.1-0.6-0.3s-0.2-0.4-0.2-0.7v-23.1c0-0.3,0.1-0.5,0.2-0.7
		c0.2-0.2,0.4-0.3,0.6-0.3h8.4C189.8,267.5,192,268.1,193.5,269.5z M187.1,278.3c2,0,3-0.9,3-2.6s-1-2.6-3-2.6h-3.5v5.3L187.1,278.3
		L187.1,278.3z"/>
</g>
<path class="st2" d="M60,0h136c33.1,0,60,26.9,60,60v136c0,33.1-26.9,60-60,60H60c-33.1,0-60-26.9-60-60V60C0,26.9,26.8,0,60,0z"/>
<path class="st0" d="M141.2,122.1h20.7v-18.7h-20.7V122.1z M116.5,122.1h20.7v-18.7h-20.7V122.1z M92.3,122.1H113v-18.7H92.3V122.1z
	 M68.2,122.1h20.2v-18.7H68.2V122.1z M43.5,122.1h20.7v-18.7H43.5V122.1z M68.2,99.4h20.2V80.7H68.2V99.4z M92.3,99.4H113V80.7H92.3
	V99.4z M116.5,99.4h20.7V80.7h-20.7V99.4z M116.5,76.7h20.7V58h-20.7V76.7z M228,113.7c0,0-8.9-8.4-27.1-5.4
	c-2-14.3-17.3-22.7-17.3-22.7s-14.3,17.3-3.9,36.5c-3,1.5-7.9,3.5-15.3,3.5H28.8c-2.5,9.4-2.5,71.5,65.6,71.5
	c48.8,0,85.3-22.7,102.6-64.1C222.5,135,228,113.7,228,113.7z"/>
</svg>
