<?xml version="1.0" encoding="utf-8"?>
<!-- Generator: Adobe Illustrator 24.3.0, SVG Export Plug-In . SVG Version: 6.00 Build 0)  -->
<svg version="1.1" id="Layer_1" xmlns="http://www.w3.org/2000/svg" xmlns:xlink="http://www.w3.org/1999/xlink" x="0px" y="0px"
	 viewBox="0 0 256 300" style="enable-background:new 0 0 256 300;" xml:space="preserve">
<style type="text/css">
	.st0{fill:#FFFFFF;}
	.st1{fill:#231F20;}
	.st2{fill:#242938;}
	.st3{fill:#2C2255;}
	.st4{fill:#F7941E;}
	.st5{fill:url(#SVGID_1_);}
	.st6{fill:url(#SVGID_2_);}
	.st7{fill:url(#SVGID_3_);}
</style>
<path class="st0" d="M27.5,162.6h201c15.2,0,27.5,12.3,27.5,27.5v82.4c0,15.2-12.3,27.5-27.5,27.5h-201C12.3,300,0,287.7,0,272.5
	v-82.4C0,174.9,12.3,162.6,27.5,162.6z"/>
<g>
	<path class="st1" d="M65.2,286.7h10.5c0.2,0,0.5,0.1,0.6,0.3c0.2,0.2,0.3,0.4,0.3,0.7v3.8c0,0.3-0.1,0.5-0.3,0.7
		c-0.2,0.2-0.4,0.3-0.6,0.3H60c-0.2,0-0.5-0.1-0.6-0.3c-0.2-0.2-0.3-0.4-0.3-0.7v-23.3c0-0.3,0.1-0.5,0.3-0.7
		c0.2-0.2,0.4-0.3,0.6-0.3h15.5c0.2,0,0.5,0.1,0.6,0.3c0.2,0.2,0.3,0.4,0.3,0.7v3.8c0,0.3-0.1,0.5-0.3,0.7c-0.2,0.2-0.4,0.3-0.6,0.3
		H65.2v3.9h9.5c0.2,0,0.5,0.1,0.6,0.3c0.2,0.2,0.3,0.4,0.3,0.7v3.8c0,0.3-0.1,0.5-0.3,0.7c-0.2,0.2-0.4,0.3-0.6,0.3h-9.5V286.7z"/>
	<path class="st1" d="M86.9,285.9c0.7,0.8,1.7,1.2,3.1,1.2c1.3,0,2.3-0.3,2.9-0.8c0.6-0.6,1-1.2,1.3-2c0.1-0.4,0.3-0.7,0.4-0.8
		c0.1-0.1,0.4-0.2,0.7-0.2h4.4c0.2,0,0.4,0.1,0.5,0.2c0.1,0.2,0.2,0.3,0.2,0.6c0,1.6-0.5,3.1-1.4,4.4c-0.9,1.4-2.2,2.4-3.7,3.2
		c-1.6,0.8-3.3,1.2-5.2,1.2c-2.1,0-3.9-0.4-5.4-1.3c-1.5-0.9-2.7-2.1-3.6-3.5c-0.8-1.5-1.3-3.1-1.4-4.9c0-1.2-0.1-2.1-0.1-2.8
		c0-0.9,0-2.1,0.1-3.6c0.1-1.8,0.5-3.4,1.4-4.9c0.8-1.5,2-2.7,3.6-3.5c1.5-0.9,3.3-1.3,5.4-1.3c1.9,0,3.6,0.4,5.2,1.2
		c1.6,0.8,2.8,1.9,3.7,3.2c0.9,1.4,1.4,2.8,1.4,4.4c0,0.2-0.1,0.4-0.2,0.6c-0.1,0.2-0.3,0.2-0.5,0.2h-4.4c-0.4,0-0.6-0.1-0.7-0.2
		c-0.1-0.1-0.3-0.4-0.4-0.8c-0.2-0.8-0.7-1.5-1.3-2c-0.6-0.6-1.6-0.8-2.9-0.8c-1.4,0-2.4,0.4-3.1,1.2c-0.7,0.8-1,1.8-1.1,3
		c0,0.8-0.1,1.8-0.1,3c0,1.2,0,2.2,0.1,3C85.9,284.1,86.3,285.2,86.9,285.9z"/>
	<path class="st1" d="M120.8,287c0.2,0.2,0.3,0.4,0.3,0.7v3.8c0,0.3-0.1,0.5-0.3,0.7c-0.2,0.2-0.4,0.3-0.6,0.3h-15.4
		c-0.2,0-0.5-0.1-0.6-0.3c-0.2-0.2-0.3-0.4-0.3-0.7v-23.3c0-0.3,0.1-0.5,0.3-0.7c0.2-0.2,0.4-0.3,0.6-0.3h4.4c0.2,0,0.5,0.1,0.6,0.3
		c0.2,0.2,0.3,0.4,0.3,0.7v18.5h10.1C120.4,286.7,120.6,286.8,120.8,287z"/>
	<path class="st1" d="M124.2,292.2c-0.2-0.2-0.3-0.4-0.3-0.7v-23.3c0-0.3,0.1-0.5,0.3-0.7c0.2-0.2,0.4-0.3,0.6-0.3h4.4
		c0.2,0,0.5,0.1,0.6,0.3c0.2,0.2,0.3,0.4,0.3,0.7v23.3c0,0.3-0.1,0.5-0.3,0.7c-0.2,0.2-0.4,0.3-0.6,0.3h-4.4
		C124.5,292.5,124.3,292.4,124.2,292.2z"/>
	<path class="st1" d="M151.9,269.4c1.6,1.4,2.4,3.5,2.4,6.3c0,2.8-0.8,4.9-2.4,6.3c-1.6,1.4-3.9,2.2-6.8,2.2h-4.3v7.3
		c0,0.3-0.1,0.5-0.3,0.7c-0.2,0.2-0.4,0.3-0.6,0.3h-4.4c-0.2,0-0.5-0.1-0.6-0.3c-0.2-0.2-0.3-0.4-0.3-0.7v-23.3
		c0-0.3,0.1-0.5,0.3-0.7c0.2-0.2,0.4-0.3,0.6-0.3h9.5C148,267.3,150.3,268,151.9,269.4z M145,278.5c1,0,1.8-0.2,2.3-0.7
		c0.6-0.5,0.9-1.2,0.9-2.1c0-1-0.3-1.7-0.9-2.1c-0.6-0.5-1.4-0.7-2.3-0.7h-4.1v5.7H145z"/>
	<path class="st1" d="M175.7,274.6c-0.1,0.2-0.3,0.2-0.5,0.2h-4.4c-0.3,0-0.6,0-0.7-0.1c-0.2-0.1-0.4-0.2-0.6-0.5
		c0,0-0.2-0.2-0.4-0.5c-0.2-0.3-0.6-0.5-1.1-0.7c-0.5-0.2-1.1-0.3-1.8-0.3c-1,0-1.7,0.1-2.3,0.4c-0.6,0.3-0.9,0.8-0.9,1.4
		c0,0.5,0.2,0.9,0.6,1.1c0.4,0.3,1,0.5,1.7,0.7c0.8,0.2,2.2,0.5,4.1,1c2.5,0.6,4.3,1.4,5.5,2.6c1.2,1.2,1.8,2.9,1.8,5
		c0,1.6-0.4,3-1.3,4.2c-0.9,1.2-2.1,2.1-3.7,2.7s-3.3,1-5.3,1c-1.9,0-3.6-0.4-5.2-1.1c-1.6-0.7-2.8-1.7-3.7-2.8
		c-0.9-1.2-1.4-2.3-1.4-3.6c0-0.2,0.1-0.4,0.2-0.6c0.1-0.2,0.3-0.2,0.5-0.2h4.4c0.5,0,0.9,0.2,1.3,0.5c0.1,0.1,0.2,0.3,0.5,0.6
		c0.3,0.3,0.7,0.7,1.3,0.9c0.6,0.3,1.3,0.4,2.1,0.4c2.8,0,4.1-0.6,4.1-1.9c0-0.4-0.2-0.8-0.6-1c-0.4-0.3-0.9-0.5-1.6-0.7
		c-0.7-0.2-1.8-0.5-3.4-0.8l-1.5-0.3c-2.3-0.5-3.9-1.4-5-2.6c-1.1-1.2-1.6-2.9-1.6-5c0-1.4,0.4-2.7,1.2-3.9c0.8-1.2,1.9-2.1,3.3-2.8
		s3.1-1.1,4.9-1.1c1.8,0,3.4,0.4,4.9,1.1c1.5,0.7,2.7,1.7,3.5,2.8c0.9,1.1,1.3,2.2,1.3,3.2C176,274.2,175.9,274.4,175.7,274.6z"/>
	<path class="st1" d="M186.1,286.7h10.5c0.2,0,0.5,0.1,0.6,0.3c0.2,0.2,0.3,0.4,0.3,0.7v3.8c0,0.3-0.1,0.5-0.3,0.7
		c-0.2,0.2-0.4,0.3-0.6,0.3h-15.8c-0.2,0-0.5-0.1-0.6-0.3c-0.2-0.2-0.3-0.4-0.3-0.7v-23.3c0-0.3,0.1-0.5,0.3-0.7
		c0.2-0.2,0.4-0.3,0.6-0.3h15.5c0.2,0,0.5,0.1,0.6,0.3c0.2,0.2,0.3,0.4,0.3,0.7v3.8c0,0.3-0.1,0.5-0.3,0.7s-0.4,0.3-0.6,0.3h-10.2
		v3.9h9.5c0.2,0,0.5,0.1,0.6,0.3c0.2,0.2,0.3,0.4,0.3,0.7v3.8c0,0.3-0.1,0.5-0.3,0.7c-0.2,0.2-0.4,0.3-0.6,0.3h-9.5V286.7z"/>
</g>
<path class="st2" d="M60,0h136c33.1,0,60,26.9,60,60v136c0,33.1-26.9,60-60,60H60c-33.1,0-60-26.9-60-60V60C0,26.9,26.9,0,60,0z"/>
<path class="st3" d="M83,153.4H52.4c4.1,13.9,11.6,26.4,22.6,37.4c17.6,17.6,38.7,26.4,63.5,26.4c4.9,0,9.7-0.4,14.4-1.1
	c18.6-2.8,34.9-11.2,48.9-25.3c11.1-11,18.7-23.5,22.8-37.4h-12.4h-18.2H83z"/>
<path class="st3" d="M66.1,111.8h-16c-0.6,3.5-1,7.1-1.2,10.8h19h9.6h137.9H228c-0.2-3.7-0.6-7.3-1.2-10.8"/>
<path class="st3" d="M48.9,132.6c0.2,3.7,0.6,7.3,1.2,10.8h16.7h12.6h134.9h12.5c0.6-3.5,1-7.1,1.2-10.8"/>
<path class="st3" d="M224.5,101.8c-4.1-14-11.7-26.5-22.8-37.6C187.8,50.2,171.6,41.8,153,39c-4.7-0.7-9.5-1.1-14.5-1.1
	c-24.7,0-45.9,8.7-63.5,26.2c-11,11.1-18.6,23.7-22.6,37.6"/>
<path class="st4" d="M43.6,127.6c0-47.3,35.5-86.6,81.7-93.5c-1.1,0-2.3-0.1-3.5-0.1C70,34,28,75.9,28,127.6
	c0,51.7,42,93.6,93.9,93.6c1.2,0,2.3,0,3.5-0.1C79.1,214.2,43.6,174.9,43.6,127.6z"/>
<linearGradient id="SVGID_1_" gradientUnits="userSpaceOnUse" x1="138.4683" y1="72.58" x2="138.4683" y2="207.442" gradientTransform="matrix(1 0 0 -1 0 302)">
	<stop  offset="0.303" style="stop-color:#473788"/>
	<stop  offset="0.872" style="stop-color:#2C2255"/>
</linearGradient>
<path class="st5" d="M199.4,122.6c-0.3-3.7-0.9-7.3-1.9-10.8H79.4c-0.9,3.5-1.6,7.1-1.9,10.8H199.4z"/>
<linearGradient id="SVGID_2_" gradientUnits="userSpaceOnUse" x1="138.4691" y1="72.578" x2="138.4691" y2="207.44" gradientTransform="matrix(1 0 0 -1 0 302)">
	<stop  offset="0.303" style="stop-color:#473788"/>
	<stop  offset="0.872" style="stop-color:#2C2255"/>
</linearGradient>
<path class="st6" d="M199.4,132.6H77.5c0.3,3.7,0.9,7.3,1.9,10.8h118.2C198.5,139.9,199.1,136.3,199.4,132.6z"/>
<linearGradient id="SVGID_3_" gradientUnits="userSpaceOnUse" x1="138.4693" y1="72.583" x2="138.4693" y2="207.436" gradientTransform="matrix(1 0 0 -1 0 302)">
	<stop  offset="0.303" style="stop-color:#473788"/>
	<stop  offset="0.863" style="stop-color:#2C2255"/>
</linearGradient>
<path class="st7" d="M138.5,188.7c24.5,0,45.7-14.5,55.4-35.3H83C92.8,174.3,113.9,188.7,138.5,188.7z"/>
<path class="st0" d="M68.5,132.6h8.9h122.2h16h12.2c0.1-1.6,0.1-3.2,0.1-4.8c0-1.7-0.1-3.5-0.2-5.2h-12.2h-16H77.5h-9.6H48.9
	c-0.1,1.7-0.2,3.5-0.2,5.2c0,1.6,0,3.2,0.1,4.8H68.5z"/>
<path class="st0" d="M82.7,101.8H52.4c-1,3.3-1.6,6.6-2.3,10h15.6H79h118.5h16.8h12c-0.6-3.4-1.4-6.8-2.4-10"/>
<path class="st0" d="M214.7,143.4H198H79.5H66.8H50.1c0.6,3.4,1.3,6.8,2.3,10h30.8h111.1h18.2h11.9c1-3.3,1.8-6.6,2.4-10H214.7z"/>
</svg>
