<?xml version="1.0" encoding="utf-8"?>
<!-- Generator: Adobe Illustrator 24.3.0, SVG Export Plug-In . SVG Version: 6.00 Build 0)  -->
<svg version="1.1" id="Layer_1" xmlns="http://www.w3.org/2000/svg" xmlns:xlink="http://www.w3.org/1999/xlink" x="0px" y="0px"
	 viewBox="0 0 256 300" style="enable-background:new 0 0 256 300;" xml:space="preserve">
<style type="text/css">
	.st0{fill:#FFFFFF;}
	.st1{fill:#0D1117;}
	.st2{fill:#242938;}
</style>
<path class="st0" d="M27.5,162.6h201c15.2,0,27.5,12.3,27.5,27.5v82.4c0,15.2-12.3,27.5-27.5,27.5h-201C12.3,300,0,287.7,0,272.5
	v-82.4C0,174.9,12.3,162.6,27.5,162.6z"/>
<g>
	<path class="st1" d="M54.2,286.8H64c0.2,0,0.4,0.1,0.6,0.3s0.2,0.4,0.2,0.7v3.8c0,0.3-0.1,0.5-0.2,0.7c-0.2,0.2-0.4,0.3-0.6,0.3
		H49.3c-0.2,0-0.4-0.1-0.6-0.3c-0.2-0.2-0.2-0.4-0.2-0.7v-23.1c0-0.3,0.1-0.5,0.2-0.7c0.2-0.2,0.4-0.3,0.6-0.3h14.5
		c0.2,0,0.4,0.1,0.6,0.3c0.2,0.2,0.2,0.4,0.2,0.7v3.8c0,0.3-0.1,0.5-0.2,0.7c-0.2,0.2-0.4,0.3-0.6,0.3h-9.6v3.9h8.9
		c0.2,0,0.4,0.1,0.6,0.3c0.2,0.2,0.2,0.4,0.2,0.7v3.8c0,0.3-0.1,0.5-0.2,0.7c-0.2,0.2-0.4,0.3-0.6,0.3h-8.9L54.2,286.8L54.2,286.8z"
		/>
	<path class="st1" d="M75.6,291.7c-0.2,0.3-0.3,0.5-0.5,0.6s-0.4,0.2-0.8,0.2h-4.7c-0.2,0-0.3-0.1-0.5-0.2c-0.1-0.2-0.2-0.3-0.2-0.6
		c0-0.1,0-0.3,0.1-0.4l7.2-11.6l-6.8-11.1c-0.1-0.1-0.1-0.3-0.1-0.4c0-0.2,0.1-0.4,0.2-0.6s0.3-0.2,0.5-0.2h4.7
		c0.4,0,0.6,0.1,0.8,0.2c0.2,0.2,0.3,0.4,0.5,0.6l3.8,6l3.6-6c0.2-0.3,0.3-0.5,0.5-0.6c0.2-0.2,0.4-0.2,0.8-0.2h4.7
		c0.2,0,0.3,0.1,0.5,0.2c0.1,0.2,0.2,0.3,0.2,0.6c0,0.1,0,0.2-0.1,0.4l-6.9,11.3l7.1,11.4c0.1,0.1,0.1,0.2,0.1,0.4
		c0,0.2-0.1,0.4-0.2,0.6s-0.3,0.2-0.5,0.2h-4.7c-0.4,0-0.6-0.1-0.8-0.2c-0.2-0.1-0.3-0.3-0.5-0.6l-4-6.4L75.6,291.7z"/>
	<path class="st1" d="M111.3,269.6c1.5,1.4,2.3,3.5,2.3,6.2s-0.8,4.8-2.3,6.3s-3.6,2.1-6.3,2.1h-4v7.3c0,0.3-0.1,0.5-0.2,0.7
		c-0.2,0.2-0.4,0.3-0.6,0.3h-4.1c-0.2,0-0.4-0.1-0.6-0.3c-0.2-0.2-0.2-0.4-0.2-0.7v-23.1c0-0.3,0.1-0.5,0.2-0.7
		c0.2-0.2,0.4-0.3,0.6-0.3h8.9C107.7,267.5,109.8,268.2,111.3,269.6z M104.8,278.7c0.9,0,1.6-0.2,2.2-0.7c0.5-0.5,0.8-1.2,0.8-2.1
		s-0.3-1.7-0.8-2.1c-0.5-0.5-1.3-0.7-2.2-0.7H101v5.7L104.8,278.7L104.8,278.7z"/>
	<path class="st1" d="M134.6,269.5c1.5,1.4,2.3,3.4,2.3,6.1c0,3.5-1.2,5.8-3.7,7.2l3.8,8.5c0.1,0.1,0.1,0.3,0.1,0.4
		c0,0.2-0.1,0.4-0.2,0.6c-0.1,0.2-0.3,0.2-0.5,0.2h-4.2c-0.4,0-0.7-0.1-0.8-0.3c-0.2-0.2-0.3-0.4-0.5-0.7l-3.4-7.7h-2.9v7.7
		c0,0.3-0.1,0.5-0.2,0.7c-0.2,0.2-0.4,0.3-0.6,0.3h-4.1c-0.2,0-0.4-0.1-0.6-0.3s-0.2-0.4-0.2-0.7v-23.1c0-0.3,0.1-0.5,0.2-0.7
		c0.2-0.2,0.4-0.3,0.6-0.3h8.4C131,267.5,133.1,268.1,134.6,269.5z M128.2,278.3c2,0,3-0.9,3-2.6s-1-2.6-3-2.6h-3.5v5.3L128.2,278.3
		L128.2,278.3z"/>
	<path class="st1" d="M148.6,286.8h9.8c0.2,0,0.4,0.1,0.6,0.3s0.2,0.4,0.2,0.7v3.8c0,0.3-0.1,0.5-0.2,0.7c-0.2,0.2-0.4,0.3-0.6,0.3
		h-14.7c-0.2,0-0.4-0.1-0.6-0.3c-0.2-0.2-0.2-0.4-0.2-0.7v-23.1c0-0.3,0.1-0.5,0.2-0.7c0.2-0.2,0.4-0.3,0.6-0.3h14.5
		c0.2,0,0.4,0.1,0.6,0.3c0.2,0.2,0.2,0.4,0.2,0.7v3.8c0,0.3-0.1,0.5-0.2,0.7c-0.2,0.2-0.4,0.3-0.6,0.3h-9.6v3.9h8.9
		c0.2,0,0.4,0.1,0.6,0.3c0.2,0.2,0.2,0.4,0.2,0.7v3.8c0,0.3-0.1,0.5-0.2,0.7c-0.2,0.2-0.4,0.3-0.6,0.3h-8.9V286.8L148.6,286.8z"/>
	<path class="st1" d="M182.2,274.7c-0.1,0.2-0.3,0.2-0.5,0.2h-4.1c-0.3,0-0.5,0-0.7-0.1s-0.4-0.2-0.6-0.4c0,0-0.2-0.2-0.4-0.5
		s-0.6-0.5-1.1-0.7s-1.1-0.3-1.7-0.3c-0.9,0-1.6,0.1-2.2,0.4c-0.6,0.3-0.9,0.7-0.9,1.4c0,0.5,0.2,0.9,0.5,1.1
		c0.4,0.3,0.9,0.5,1.6,0.7c0.7,0.2,2,0.5,3.8,1c2.3,0.5,4.1,1.4,5.2,2.6c1.1,1.2,1.6,2.8,1.6,5c0,1.6-0.4,3-1.2,4.1s-2,2.1-3.4,2.7
		c-1.5,0.6-3.1,0.9-5,0.9c-1.8,0-3.4-0.4-4.8-1.1c-1.4-0.7-2.6-1.6-3.4-2.8c-0.8-1.1-1.3-2.3-1.3-3.5c0-0.2,0.1-0.4,0.2-0.6
		c0.1-0.2,0.3-0.2,0.5-0.2h4.1c0.5,0,0.8,0.2,1.2,0.5c0.1,0.1,0.2,0.3,0.5,0.6s0.7,0.7,1.2,0.9c0.5,0.3,1.2,0.4,1.9,0.4
		c2.6,0,3.8-0.6,3.8-1.9c0-0.4-0.2-0.7-0.5-1c-0.4-0.3-0.9-0.5-1.5-0.7c-0.7-0.2-1.7-0.5-3.2-0.8l-1.4-0.3c-2.1-0.5-3.7-1.4-4.7-2.6
		s-1.5-2.9-1.5-4.9c0-1.4,0.4-2.7,1.1-3.8c0.7-1.1,1.8-2.1,3.1-2.8c1.3-0.7,2.9-1.1,4.6-1.1s3.2,0.4,4.6,1.1s2.5,1.6,3.3,2.7
		s1.2,2.2,1.3,3.2C182.4,274.4,182.4,274.6,182.2,274.7z"/>
	<path class="st1" d="M205.5,274.7c-0.1,0.2-0.3,0.2-0.5,0.2h-4c-0.3,0-0.5,0-0.7-0.1s-0.4-0.2-0.6-0.4c0,0-0.2-0.2-0.4-0.5
		s-0.6-0.5-1.1-0.7s-1.1-0.3-1.7-0.3c-0.9,0-1.6,0.1-2.2,0.4c-0.6,0.3-0.9,0.7-0.9,1.4c0,0.5,0.2,0.9,0.5,1.1
		c0.4,0.3,0.9,0.5,1.6,0.7c0.7,0.2,2,0.5,3.8,1c2.3,0.5,4.1,1.4,5.2,2.6c1.1,1.2,1.6,2.8,1.6,5c0,1.6-0.4,3-1.2,4.1s-2,2.1-3.4,2.7
		c-1.5,0.6-3.1,0.9-5,0.9c-1.8,0-3.4-0.4-4.8-1.1c-1.4-0.7-2.6-1.6-3.4-2.8c-0.8-1.1-1.3-2.3-1.3-3.5c0-0.2,0.1-0.4,0.2-0.6
		c0.1-0.2,0.3-0.2,0.5-0.2h4.1c0.5,0,0.8,0.2,1.2,0.5c0.1,0.1,0.2,0.3,0.5,0.6s0.7,0.7,1.2,0.9c0.5,0.3,1.2,0.4,1.9,0.4
		c2.6,0,3.8-0.6,3.8-1.9c0-0.4-0.2-0.7-0.5-1c-0.4-0.3-0.9-0.5-1.5-0.7c-0.7-0.2-1.7-0.5-3.2-0.8l-1.4-0.3c-2.1-0.5-3.7-1.4-4.7-2.6
		s-1.5-2.9-1.5-4.9c0-1.4,0.4-2.7,1.1-3.8c0.7-1.1,1.8-2.1,3.1-2.8c1.3-0.7,2.9-1.1,4.6-1.1s3.2,0.4,4.6,1.1s2.5,1.6,3.3,2.7
		s1.2,2.2,1.3,3.2C205.8,274.4,205.7,274.6,205.5,274.7z"/>
</g>
<path class="st2" d="M60,0h136c33.1,0,60,26.9,60,60v136c0,33.1-26.9,60-60,60H60c-33.1,0-60-26.9-60-60V60C0,26.9,26.8,0,60,0z"/>
<path class="st0" d="M228,182.9c-2.9,1.1-6.1,1.1-9,0s-5.3-3.2-6.8-6c-9.1-13.6-19.1-26.5-28.7-39.8l-4.2-5.6
	c-11.5,15.3-22.9,30.1-33.4,45.4c-1.4,2.6-3.6,4.7-6.4,5.8s-5.8,1.1-8.6,0.1l43-57.7l-40-52.1c2.9-1,6-1.1,8.9,0s5.3,3,6.9,5.6
	c9.3,13.6,19.6,26.5,29.8,40.3c10.3-13.6,20.5-26.6,30-40.1c1.4-2.6,3.6-4.6,6.4-5.6c2.7-1,5.8-1,8.5,0.1L209,93.9
	c-6.9,9.2-13.8,18.4-21,27.4c-0.6,0.5-1,1.2-1.4,1.9s-0.5,1.5-0.5,2.3s0.2,1.6,0.5,2.3s0.8,1.4,1.4,1.9
	C201.2,147.1,214.4,164.8,228,182.9L228,182.9z"/>
<path class="st0" d="M28,124.5c1.2-5.6,1.9-11.6,3.5-17.3C41.1,73,80.3,58.8,107.3,80c15.8,12.4,19.7,30,19,49.8h-89
	c-1.4,35.4,24.1,56.7,56.7,45.8c5.3-1.9,10-5.1,13.8-9.3s6.4-9.2,7.7-14.7c1.7-5.6,4.5-6.5,9.8-4.9c-0.9,6.8-3.3,13.3-7,19
	s-8.7,10.5-14.6,14c-9.7,5.3-20.8,7.4-31.7,6s-21.1-6.2-29.2-13.8c-7.9-8.9-12.7-20.2-13.7-32.1c0-1.9-0.7-3.8-1.1-5.6
	C28,130.9,28,127.7,28,124.5z M37.4,122.1h80.5c-0.5-25.6-16.7-43.8-38.3-44C55.6,77.8,38.4,95.6,37.4,122.1L37.4,122.1z"/>
</svg>
