<?xml version="1.0" encoding="utf-8"?>
<!-- Generator: Adobe Illustrator 24.3.0, SVG Export Plug-In . SVG Version: 6.00 Build 0)  -->
<svg version="1.1" id="Layer_1" xmlns="http://www.w3.org/2000/svg" xmlns:xlink="http://www.w3.org/1999/xlink" x="0px" y="0px"
	 viewBox="0 0 256 300" style="enable-background:new 0 0 256 300;" xml:space="preserve">
<style type="text/css">
	.st0{fill:#FFFFFF;}
	.st1{fill:#242938;}
	.st2{fill:#231F20;}
	.st3{fill:#9FEAF9;}
</style>
<path class="st0" d="M27.5,162.6h201c15.2,0,27.5,12.3,27.5,27.5v82.4c0,15.2-12.3,27.5-27.5,27.5h-201C12.3,300,0,287.7,0,272.5
	v-82.4C0,174.9,12.3,162.6,27.5,162.6z"/>
<path class="st1" d="M60,0h136c33.1,0,60,26.9,60,60v136c0,33.1-26.9,60-60,60H60c-33.1,0-60-26.9-60-60V60C0,26.9,26.8,0,60,0z"/>
<g>
	<path class="st2" d="M47.4,286.7h10.5c0.2,0,0.5,0.1,0.6,0.3c0.2,0.2,0.3,0.4,0.3,0.7v3.8c0,0.3-0.1,0.5-0.3,0.7
		c-0.2,0.2-0.4,0.3-0.6,0.3H42.2c-0.2,0-0.5-0.1-0.6-0.3c-0.2-0.2-0.3-0.4-0.3-0.7v-23.3c0-0.3,0.1-0.5,0.3-0.7
		c0.2-0.2,0.4-0.3,0.6-0.3h15.5c0.2,0,0.5,0.1,0.6,0.3c0.2,0.2,0.3,0.4,0.3,0.7v3.8c0,0.3-0.1,0.5-0.3,0.7c-0.2,0.2-0.4,0.3-0.6,0.3
		H47.4v3.9h9.5c0.2,0,0.5,0.1,0.6,0.3c0.2,0.2,0.3,0.4,0.3,0.7v3.8c0,0.3-0.1,0.5-0.3,0.7c-0.2,0.2-0.4,0.3-0.6,0.3h-9.5V286.7z"/>
	<path class="st2" d="M79.6,287c0.2,0.2,0.3,0.4,0.3,0.7v3.8c0,0.3-0.1,0.5-0.3,0.7c-0.2,0.2-0.4,0.3-0.6,0.3H63.5
		c-0.2,0-0.5-0.1-0.6-0.3c-0.2-0.2-0.3-0.4-0.3-0.7v-23.3c0-0.3,0.1-0.5,0.3-0.7c0.2-0.2,0.4-0.3,0.6-0.3h4.4c0.2,0,0.5,0.1,0.6,0.3
		c0.2,0.2,0.3,0.4,0.3,0.7v18.5H79C79.2,286.7,79.4,286.8,79.6,287z"/>
	<path class="st2" d="M88.6,286.7h10.5c0.2,0,0.5,0.1,0.6,0.3c0.2,0.2,0.3,0.4,0.3,0.7v3.8c0,0.3-0.1,0.5-0.3,0.7
		c-0.2,0.2-0.4,0.3-0.6,0.3H83.4c-0.2,0-0.5-0.1-0.6-0.3c-0.2-0.2-0.3-0.4-0.3-0.7v-23.3c0-0.3,0.1-0.5,0.3-0.7
		c0.2-0.2,0.4-0.3,0.6-0.3h15.5c0.2,0,0.5,0.1,0.6,0.3c0.2,0.2,0.3,0.4,0.3,0.7v3.8c0,0.3-0.1,0.5-0.3,0.7c-0.2,0.2-0.4,0.3-0.6,0.3
		H88.6v3.9h9.5c0.2,0,0.5,0.1,0.6,0.3c0.2,0.2,0.3,0.4,0.3,0.7v3.8c0,0.3-0.1,0.5-0.3,0.7c-0.2,0.2-0.4,0.3-0.6,0.3h-9.5V286.7z"/>
	<path class="st2" d="M110.3,285.9c0.7,0.8,1.7,1.2,3.1,1.2c1.3,0,2.3-0.3,2.9-0.8c0.6-0.6,1-1.2,1.3-2c0.1-0.4,0.3-0.7,0.4-0.8
		c0.1-0.1,0.4-0.2,0.7-0.2h4.4c0.2,0,0.4,0.1,0.5,0.2c0.1,0.2,0.2,0.3,0.2,0.6c0,1.6-0.5,3.1-1.4,4.4c-0.9,1.4-2.2,2.4-3.7,3.2
		c-1.6,0.8-3.3,1.2-5.2,1.2c-2.1,0-3.9-0.4-5.4-1.3c-1.5-0.9-2.7-2.1-3.6-3.5c-0.8-1.5-1.3-3.1-1.4-4.9c0-1.2-0.1-2.1-0.1-2.8
		c0-0.9,0-2.1,0.1-3.6c0.1-1.8,0.5-3.4,1.4-4.9c0.8-1.5,2-2.7,3.6-3.5c1.5-0.9,3.3-1.3,5.4-1.3c1.9,0,3.6,0.4,5.2,1.2
		c1.6,0.8,2.8,1.9,3.7,3.2c0.9,1.4,1.4,2.8,1.4,4.4c0,0.2-0.1,0.4-0.2,0.6c-0.1,0.2-0.3,0.2-0.5,0.2h-4.4c-0.4,0-0.6-0.1-0.7-0.2
		c-0.1-0.1-0.3-0.4-0.4-0.8c-0.2-0.8-0.7-1.5-1.3-2c-0.6-0.6-1.6-0.8-2.9-0.8c-1.4,0-2.4,0.4-3.1,1.2c-0.7,0.8-1,1.8-1.1,3
		c0,0.8-0.1,1.8-0.1,3c0,1.2,0,2.2,0.1,3C109.3,284.1,109.7,285.2,110.3,285.9z"/>
	<path class="st2" d="M145,267.6c0.2,0.2,0.3,0.4,0.3,0.7v3.8c0,0.3-0.1,0.5-0.3,0.7c-0.2,0.2-0.4,0.3-0.6,0.3h-5.9v18.5
		c0,0.3-0.1,0.5-0.3,0.7c-0.2,0.2-0.4,0.3-0.6,0.3h-4.4c-0.2,0-0.5-0.1-0.6-0.3c-0.2-0.2-0.3-0.4-0.3-0.7V273h-5.9
		c-0.2,0-0.5-0.1-0.6-0.3c-0.2-0.2-0.3-0.4-0.3-0.7v-3.8c0-0.3,0.1-0.5,0.3-0.7c0.2-0.2,0.4-0.3,0.6-0.3h17.9
		C144.6,267.3,144.8,267.4,145,267.6z"/>
	<path class="st2" d="M165.1,269.3c1.6,1.4,2.5,3.4,2.5,6.2c0,3.5-1.3,5.9-4,7.2l4.1,8.6c0.1,0.1,0.1,0.3,0.1,0.4
		c0,0.2-0.1,0.4-0.2,0.6c-0.1,0.2-0.3,0.2-0.5,0.2h-4.5c-0.4,0-0.7-0.1-0.9-0.3c-0.2-0.2-0.4-0.4-0.5-0.7l-3.7-7.7h-3.1v7.7
		c0,0.3-0.1,0.5-0.3,0.7c-0.2,0.2-0.4,0.3-0.6,0.3h-4.4c-0.2,0-0.5-0.1-0.6-0.3c-0.2-0.2-0.3-0.4-0.3-0.7v-23.3
		c0-0.3,0.1-0.5,0.3-0.7c0.2-0.2,0.4-0.3,0.6-0.3h9C161.1,267.3,163.4,268,165.1,269.3z M158.1,278.2c2.2,0,3.2-0.9,3.2-2.7
		c0-1.8-1.1-2.7-3.2-2.7h-3.8v5.3H158.1z"/>
	<path class="st2" d="M186.4,268.2c1.5,0.9,2.7,2,3.5,3.5c0.8,1.5,1.3,3.1,1.4,5c0,0.7,0.1,1.8,0.1,3.2c0,1.5,0,2.5-0.1,3.2
		c-0.1,1.8-0.5,3.5-1.4,5c-0.8,1.5-2,2.6-3.5,3.5c-1.5,0.9-3.4,1.3-5.5,1.3c-2.1,0-3.9-0.4-5.5-1.3c-1.5-0.9-2.7-2-3.5-3.5
		c-0.8-1.5-1.3-3.1-1.4-5c0-1.3-0.1-2.4-0.1-3.2c0-0.8,0-1.9,0.1-3.2c0.1-1.8,0.5-3.5,1.4-5c0.8-1.5,2-2.6,3.5-3.5
		c1.5-0.9,3.3-1.3,5.5-1.3C183.1,266.9,184.9,267.3,186.4,268.2z M184,273.8c-0.7-0.8-1.7-1.1-3-1.1c-1.3,0-2.3,0.4-3,1.1
		c-0.7,0.8-1.1,1.8-1.2,3c-0.1,0.8-0.1,1.8-0.1,3c0,1.2,0,2.2,0.1,3.1c0.1,1.3,0.5,2.3,1.2,3c0.7,0.8,1.7,1.1,3,1.1
		c1.3,0,2.3-0.4,3-1.1c0.7-0.8,1.1-1.8,1.2-3c0.1-0.9,0.1-1.9,0.1-3.1c0-1.2,0-2.2-0.1-3C185.1,275.6,184.7,274.6,184,273.8z"/>
	<path class="st2" d="M209.5,292.2c-0.2-0.2-0.4-0.4-0.5-0.6l-7.6-12.3v12.2c0,0.3-0.1,0.5-0.3,0.7c-0.2,0.2-0.4,0.3-0.6,0.3h-4.4
		c-0.2,0-0.5-0.1-0.6-0.3c-0.2-0.2-0.3-0.4-0.3-0.7v-23.3c0-0.3,0.1-0.5,0.3-0.7c0.2-0.2,0.4-0.3,0.6-0.3h3.5c0.3,0,0.6,0.1,0.9,0.3
		c0.2,0.2,0.4,0.4,0.5,0.6l7.6,12.3v-12.2c0-0.3,0.1-0.5,0.3-0.7c0.2-0.2,0.4-0.3,0.6-0.3h4.4c0.2,0,0.5,0.1,0.6,0.3
		c0.2,0.2,0.3,0.4,0.3,0.7v23.3c0,0.3-0.1,0.5-0.3,0.7c-0.2,0.2-0.4,0.3-0.6,0.3h-3.5C210.1,292.5,209.8,292.4,209.5,292.2z"/>
</g>
<path class="st3" d="M100.8,70.8C74.8,66,54.2,71,46,85.2c-6.1,10.6-4.4,24.6,4.2,39.6c0.2,0.3,0.4,0.6,0.7,0.8
	c0.3,0.2,0.6,0.4,0.9,0.5c0.3,0.1,0.7,0.1,1.1,0.1c0.4,0,0.7-0.2,1-0.3c0.3-0.2,0.6-0.4,0.8-0.7c0.2-0.3,0.4-0.6,0.5-0.9
	c0.1-0.3,0.1-0.7,0.1-1.1c-0.1-0.4-0.2-0.7-0.4-1c-7.8-13.5-9.3-25.6-4.2-34.3C57.4,76.1,75.8,71.6,99.8,76c0.7,0.1,1.4,0,2-0.4
	c0.6-0.4,1-1,1.1-1.7c0.1-0.7,0-1.4-0.4-2C102.1,71.3,101.5,70.9,100.8,70.8L100.8,70.8z M63.8,143.1c10.5,11.6,24.2,22.4,39.8,31.4
	c37.7,21.8,77.9,27.6,97.7,14.1c0.3-0.2,0.6-0.4,0.7-0.7c0.2-0.3,0.3-0.6,0.4-1s0.1-0.7,0-1.1s-0.2-0.7-0.4-1
	c-0.2-0.3-0.5-0.5-0.8-0.7c-0.3-0.2-0.6-0.3-1-0.4c-0.3-0.1-0.7-0.1-1.1,0c-0.3,0.1-0.7,0.2-1,0.4c-17.7,12.1-55.9,6.5-92-14.3
	c-15.1-8.7-28.3-19.2-38.5-30.4c-0.2-0.3-0.5-0.5-0.8-0.6c-0.3-0.1-0.7-0.2-1-0.3c-0.4,0-0.7,0-1,0.2c-0.3,0.1-0.6,0.3-0.9,0.5
	c-0.3,0.2-0.5,0.5-0.6,0.8c-0.1,0.3-0.2,0.7-0.2,1c0,0.4,0,0.7,0.2,1C63.3,142.5,63.5,142.8,63.8,143.1L63.8,143.1z"/>
<path class="st3" d="M194.9,139.8c17-20.1,23-40.3,14.8-54.5c-6-10.4-18.7-15.9-35.6-16.1c-0.7,0-1.4,0.3-1.9,0.8
	c-0.5,0.5-0.8,1.2-0.8,1.9s0.3,1.4,0.7,1.9c0.5,0.5,1.2,0.8,1.9,0.8c15.2,0.2,26.2,4.9,31.1,13.5c6.8,11.8,1.5,29.8-14.2,48.4
	c-0.2,0.3-0.4,0.6-0.5,0.9c-0.1,0.3-0.2,0.7-0.1,1c0,0.4,0.1,0.7,0.3,1c0.2,0.3,0.4,0.6,0.7,0.8c0.3,0.2,0.6,0.4,0.9,0.5
	c0.3,0.1,0.7,0.1,1,0.1c0.4,0,0.7-0.1,1-0.3C194.4,140.3,194.7,140.1,194.9,139.8L194.9,139.8z M151.1,71.7
	c-15.4,3.3-31.8,9.7-47.5,18.8c-38.9,22.5-64.3,55.6-60.8,79.7c0,0.4,0.2,0.7,0.3,1c0.2,0.3,0.4,0.6,0.7,0.8
	c0.3,0.2,0.6,0.4,0.9,0.5c0.3,0.1,0.7,0.1,1,0.1c0.3-0.1,0.7-0.2,1-0.4c0.3-0.2,0.6-0.4,0.8-0.7c0.2-0.3,0.4-0.6,0.4-1
	c0.1-0.3,0.1-0.7,0-1c-3.1-21.3,20.9-52.8,58.2-74.3c15.3-8.8,31.1-15.1,46-18.2c0.3-0.1,0.7-0.2,1-0.4c0.3-0.2,0.5-0.5,0.7-0.7
	c0.2-0.3,0.3-0.6,0.4-1c0.1-0.3,0.1-0.7,0-1.1c-0.1-0.3-0.2-0.7-0.4-1c-0.2-0.3-0.5-0.5-0.8-0.7c-0.3-0.2-0.6-0.3-1-0.4
	C151.8,71.6,151.5,71.6,151.1,71.7z"/>
<path class="st3" d="M88,186.8c8.9,24.9,23.5,40.2,39.8,40.2c11.9,0,23-8.1,31.6-22.5c0.2-0.3,0.3-0.6,0.4-1c0.1-0.3,0-0.7,0-1
	c-0.1-0.3-0.2-0.7-0.4-1c-0.2-0.3-0.5-0.5-0.8-0.7c-0.3-0.2-0.6-0.3-1-0.4c-0.4-0.1-0.7,0-1,0.1c-0.3,0.1-0.7,0.2-0.9,0.5
	c-0.3,0.2-0.5,0.5-0.7,0.8c-7.7,12.9-17.3,19.9-27,19.9c-13.6,0-26.6-13.7-34.8-36.6c-0.1-0.3-0.3-0.6-0.5-0.9
	c-0.2-0.3-0.5-0.5-0.8-0.6c-0.3-0.2-0.7-0.2-1-0.3s-0.7,0-1,0.2c-0.3,0.1-0.6,0.3-0.9,0.5c-0.3,0.2-0.5,0.5-0.6,0.9
	c-0.1,0.3-0.2,0.7-0.2,1C87.9,186.1,87.9,186.5,88,186.8L88,186.8z M169.4,182c4.6-14.7,7.1-31.7,7.1-49.4c0-44.2-15.5-82.3-37.5-92
	c-0.6-0.3-1.4-0.3-2,0c-0.6,0.3-1.2,0.8-1.5,1.4c-0.3,0.6-0.3,1.4-0.1,2c0.2,0.7,0.7,1.2,1.4,1.5c19.6,8.7,34.3,44.9,34.3,87.2
	c0,17.2-2.4,33.6-6.8,47.8c-0.1,0.3-0.2,0.7-0.1,1c0,0.4,0.1,0.7,0.3,1c0.2,0.3,0.4,0.6,0.7,0.8c0.3,0.2,0.6,0.4,0.9,0.5
	c0.3,0.1,0.7,0.1,1,0.1c0.4,0,0.7-0.1,1-0.3s0.6-0.4,0.8-0.7C169.1,182.6,169.3,182.3,169.4,182L169.4,182z M219.6,179.4
	c0-7-5.7-12.8-12.8-12.8s-12.8,5.7-12.8,12.8s5.7,12.8,12.8,12.8S219.6,186.4,219.6,179.4z M214.2,179.4c0,1-0.2,1.9-0.6,2.8
	c-0.4,0.9-0.9,1.7-1.6,2.4s-1.5,1.2-2.4,1.6c-0.9,0.4-1.9,0.6-2.8,0.6s-1.9-0.2-2.8-0.6c-0.9-0.4-1.7-0.9-2.4-1.6s-1.2-1.5-1.6-2.4
	c-0.4-0.9-0.6-1.9-0.6-2.8c0-2,0.8-3.9,2.2-5.3c1.4-1.4,3.3-2.2,5.3-2.2s3.9,0.8,5.3,2.2C213.5,175.5,214.2,177.4,214.2,179.4z
	 M48.8,192.1c7,0,12.8-5.7,12.8-12.8s-5.7-12.8-12.8-12.8c-7,0-12.8,5.7-12.8,12.8S41.7,192.1,48.8,192.1z M48.8,186.8
	c-2,0-3.9-0.8-5.3-2.2c-1.4-1.4-2.2-3.3-2.2-5.3c0-2,0.8-3.9,2.2-5.3c1.4-1.4,3.3-2.2,5.3-2.2s3.9,0.8,5.3,2.2
	c1.4,1.4,2.2,3.3,2.2,5.3c0,2-0.8,3.9-2.2,5.3S50.7,186.8,48.8,186.8L48.8,186.8z"/>
<path class="st3" d="M127.9,53.5c7,0,12.8-5.7,12.8-12.8S134.9,28,127.9,28s-12.8,5.7-12.8,12.8S120.8,53.5,127.9,53.5L127.9,53.5z
	 M127.9,48.2c-2,0-3.9-0.8-5.3-2.2c-1.4-1.4-2.2-3.3-2.2-5.3s0.8-3.9,2.2-5.3c1.4-1.4,3.3-2.2,5.3-2.2s3.9,0.8,5.3,2.2
	c1.4,1.4,2.2,3.3,2.2,5.3s-0.8,3.9-2.2,5.3C131.7,47.4,129.9,48.2,127.9,48.2L127.9,48.2z M129.8,141.6c-5,1.1-9.9-2.1-11-7.1
	c-0.5-2.4-0.1-4.9,1.3-7c1.3-2.1,3.4-3.5,5.8-4c5-1.1,9.9,2.1,11,7.1C138,135.6,134.8,140.5,129.8,141.6z"/>
</svg>
