<?xml version="1.0" encoding="utf-8"?>
<!-- Generator: Adobe Illustrator 24.3.0, SVG Export Plug-In . SVG Version: 6.00 Build 0)  -->
<svg version="1.1" id="Layer_1" xmlns="http://www.w3.org/2000/svg" xmlns:xlink="http://www.w3.org/1999/xlink" x="0px" y="0px"
	 viewBox="0 0 256 300" style="enable-background:new 0 0 256 300;" xml:space="preserve">
<style type="text/css">
	.st0{fill:#FFFFFF;}
	.st1{fill:#0D1117;}
	.st2{fill:#242938;}
	.st3{clip-path:url(#SVGID_2_);}
	.st4{fill:#0ACF83;}
	.st5{fill:#A259FF;}
	.st6{fill:#F24E1E;}
	.st7{fill:#FF7262;}
	.st8{fill:#1ABCFE;}
</style>
<path class="st0" d="M27.5,162.6h201c15.2,0,27.5,12.3,27.5,27.5v82.4c0,15.2-12.3,27.5-27.5,27.5h-201C12.3,300,0,287.7,0,272.5
	v-82.4C0,174.9,12.3,162.6,27.5,162.6z"/>
<g>
	<path class="st1" d="M90.4,267.7c0.2,0.2,0.2,0.4,0.2,0.7v3.8c0,0.3-0.1,0.5-0.2,0.7c-0.2,0.2-0.4,0.3-0.6,0.3h-9.3v4.9h8.7
		c0.2,0,0.4,0.1,0.6,0.3s0.2,0.4,0.2,0.7v3.8c0,0.3-0.1,0.5-0.2,0.7c-0.2,0.2-0.4,0.3-0.6,0.3h-8.7v7.7c0,0.3-0.1,0.5-0.2,0.7
		c-0.2,0.2-0.4,0.3-0.6,0.3h-4.1c-0.2,0-0.4-0.1-0.6-0.3s-0.2-0.4-0.2-0.7v-23.1c0-0.3,0.1-0.5,0.2-0.7c0.2-0.2,0.4-0.3,0.6-0.3
		h14.2C90,267.4,90.2,267.5,90.4,267.7z"/>
	<path class="st1" d="M96.6,292.2c-0.2-0.2-0.2-0.4-0.2-0.7v-23.1c0-0.3,0.1-0.5,0.2-0.7c0.2-0.2,0.4-0.3,0.6-0.3h4.1
		c0.2,0,0.4,0.1,0.6,0.3s0.2,0.4,0.2,0.7v23.1c0,0.3-0.1,0.5-0.2,0.7c-0.2,0.2-0.4,0.3-0.6,0.3h-4.1
		C96.9,292.5,96.7,292.4,96.6,292.2z"/>
	<path class="st1" d="M113.7,279.7c0,1.5,0,2.6,0.1,3.3c0.1,1.2,0.4,2.2,1.1,3c0.6,0.8,1.6,1.2,2.9,1.2c1.2,0,2.1-0.3,2.8-0.9
		c0.7-0.6,1.1-1.6,1.1-3h-2.6c-0.2,0-0.4-0.1-0.6-0.3s-0.2-0.4-0.2-0.7v-3.8c0-0.3,0.1-0.5,0.2-0.7c0.2-0.2,0.4-0.3,0.6-0.3h7.5
		c0.2,0,0.4,0.1,0.6,0.3s0.2,0.4,0.2,0.7v4.6c0,2-0.4,3.7-1.3,5.2c-0.8,1.5-2,2.6-3.5,3.4s-3.1,1.2-4.9,1.2c-1.9,0-3.6-0.4-5-1.3
		s-2.5-2-3.3-3.5s-1.2-3.1-1.3-4.9c0-1.1-0.1-2.1-0.1-2.8c0-0.9,0-2.1,0.1-3.5c0.1-1.8,0.5-3.4,1.3-4.9s1.9-2.6,3.3-3.5
		s3.1-1.3,5-1.3c1.8,0,3.5,0.4,4.9,1.2s2.5,1.8,3.3,3s1.2,2.4,1.3,3.5c0,0.2,0,0.4-0.2,0.6c-0.1,0.2-0.3,0.2-0.5,0.2h-4.1
		c-0.3,0-0.5-0.1-0.6-0.2s-0.4-0.4-0.6-0.7c-0.4-0.5-0.8-0.9-1.3-1.3c-0.5-0.3-1.2-0.5-2.1-0.5c-2.3,0-3.6,1.4-3.9,4.2
		C113.7,277.5,113.7,278.4,113.7,279.7z"/>
	<path class="st1" d="M139,279.7v11.8c0,0.3-0.1,0.5-0.2,0.7c-0.2,0.2-0.4,0.3-0.6,0.3h-4.1c-0.2,0-0.4-0.1-0.6-0.3
		s-0.2-0.4-0.2-0.7v-23.1c0-0.3,0.1-0.5,0.2-0.7c0.2-0.2,0.4-0.3,0.6-0.3h3.6c0.6,0,1,0.3,1.3,1l5,9.9l5-9.9c0.3-0.6,0.8-1,1.3-1
		h3.6c0.2,0,0.4,0.1,0.6,0.3s0.2,0.4,0.2,0.7v23.1c0,0.3-0.1,0.5-0.2,0.7c-0.2,0.2-0.4,0.3-0.6,0.3h-4.1c-0.2,0-0.4-0.1-0.6-0.3
		s-0.2-0.4-0.2-0.7v-11.8l-2.9,5.9c-0.1,0.3-0.3,0.5-0.5,0.6c-0.2,0.2-0.4,0.3-0.7,0.3h-2c-0.3,0-0.5-0.1-0.7-0.3s-0.3-0.4-0.5-0.6
		L139,279.7z"/>
	<path class="st1" d="M180.5,291.1c0.1,0.2,0.1,0.4,0.1,0.5c0,0.2-0.1,0.4-0.2,0.6c-0.1,0.2-0.3,0.2-0.5,0.2H176
		c-0.4,0-0.6-0.1-0.8-0.3c-0.2-0.2-0.3-0.4-0.4-0.6l-0.9-3h-8.3l-0.9,3c-0.1,0.2-0.2,0.4-0.4,0.6s-0.5,0.3-0.8,0.3h-3.9
		c-0.2,0-0.3-0.1-0.5-0.2s-0.2-0.3-0.2-0.6c0-0.1,0-0.3,0.1-0.5l6.8-22.5c0.1-0.3,0.3-0.6,0.5-0.8s0.5-0.3,0.9-0.3h5
		c0.4,0,0.7,0.1,0.9,0.3c0.2,0.2,0.4,0.5,0.5,0.8L180.5,291.1z M172.3,283.1l-2.5-8.6l-2.5,8.6H172.3z"/>
</g>
<path class="st2" d="M60,0h136c33.1,0,60,26.9,60,60v136c0,33.1-26.9,60-60,60H60c-33.1,0-60-26.9-60-60V60C0,26.8,26.8,0,60,0z"/>
<g>
	<g>
		<g>
			<defs>
				<rect id="SVGID_1_" x="61" y="28" width="133.4" height="200"/>
			</defs>
			<clipPath id="SVGID_2_">
				<use xlink:href="#SVGID_1_"  style="overflow:visible;"/>
			</clipPath>
			<g class="st3">
				<path class="st4" d="M94.3,228c18.4,0,33.3-14.9,33.3-33.3v-33.3H94.3c-18.4,0-33.3,14.9-33.3,33.3S75.9,228,94.3,228z"/>
				<path class="st5" d="M61,128c0-18.4,14.9-33.3,33.3-33.3h33.3v66.7H94.3C75.9,161.3,61,146.4,61,128z"/>
				<path class="st6" d="M61,61.3C61,42.9,75.9,28,94.3,28h33.3v66.7H94.3C75.9,94.6,61,79.7,61,61.3z"/>
				<path class="st7" d="M127.7,28H161c18.4,0,33.3,14.9,33.3,33.3S179.4,94.6,161,94.6h-33.3V28z"/>
				<path class="st8" d="M194.3,128c0,18.4-14.9,33.3-33.3,33.3s-33.3-14.9-33.3-33.3s14.9-33.3,33.3-33.3
					C179.4,94.6,194.3,109.6,194.3,128z"/>
			</g>
		</g>
	</g>
</g>
</svg>
