<?xml version="1.0" encoding="utf-8"?>
<!-- Generator: Adobe Illustrator 24.3.0, SVG Export Plug-In . SVG Version: 6.00 Build 0)  -->
<svg version="1.1" id="Layer_1" xmlns="http://www.w3.org/2000/svg" xmlns:xlink="http://www.w3.org/1999/xlink" x="0px" y="0px"
	 viewBox="0 0 256 300" style="enable-background:new 0 0 256 300;" xml:space="preserve">
<style type="text/css">
	.st0{fill:#FFFFFF;}
	.st1{fill:#231F20;}
	.st2{fill:#242938;}
	.st3{fill:#FFFFFF;filter:url(#Adobe_OpacityMaskFilter);}
	.st4{mask:url(#mask0_147_896_2_);}
	.st5{fill:url(#SVGID_1_);}
	.st6{fill:#FFA000;}
	.st7{fill:none;}
	.st8{fill:#F57C00;}
	.st9{fill:#FFCA28;}
	.st10{fill:#FFFFFF;fill-opacity:0.2;}
	.st11{opacity:0.2;fill:#A52714;enable-background:new    ;}
	.st12{fill:url(#SVGID_2_);}
</style>
<path class="st0" d="M27.5,162.6h201c15.2,0,27.5,12.3,27.5,27.5v82.4c0,15.2-12.3,27.5-27.5,27.5h-201C12.3,300,0,287.7,0,272.5
	v-82.4C0,174.9,12.3,162.6,27.5,162.6z"/>
<g>
	<path class="st1" d="M63.9,267.6c0.2,0.2,0.3,0.4,0.3,0.7v3.8c0,0.3-0.1,0.5-0.3,0.7c-0.2,0.2-0.4,0.3-0.6,0.3h-9.9v4.9h9.3
		c0.2,0,0.5,0.1,0.6,0.3c0.2,0.2,0.3,0.4,0.3,0.7v3.8c0,0.3-0.1,0.5-0.3,0.7c-0.2,0.2-0.4,0.3-0.6,0.3h-9.3v7.8
		c0,0.3-0.1,0.5-0.3,0.7c-0.2,0.2-0.4,0.3-0.6,0.3H48c-0.2,0-0.5-0.1-0.6-0.3c-0.2-0.2-0.3-0.4-0.3-0.7v-23.3c0-0.3,0.1-0.5,0.3-0.7
		c0.2-0.2,0.4-0.3,0.6-0.3h15.2C63.5,267.3,63.7,267.4,63.9,267.6z"/>
	<path class="st1" d="M67.9,292.2c-0.2-0.2-0.3-0.4-0.3-0.7v-23.3c0-0.3,0.1-0.5,0.3-0.7c0.2-0.2,0.4-0.3,0.6-0.3h4.4
		c0.2,0,0.5,0.1,0.6,0.3c0.2,0.2,0.3,0.4,0.3,0.7v23.3c0,0.3-0.1,0.5-0.3,0.7c-0.2,0.2-0.4,0.3-0.6,0.3h-4.4
		C68.3,292.5,68.1,292.4,67.9,292.2z"/>
	<path class="st1" d="M95.3,269.3c1.6,1.4,2.5,3.4,2.5,6.2c0,3.5-1.3,5.9-4,7.2l4.1,8.6c0.1,0.1,0.1,0.3,0.1,0.4
		c0,0.2-0.1,0.4-0.2,0.6c-0.1,0.2-0.3,0.2-0.5,0.2h-4.5c-0.4,0-0.7-0.1-0.9-0.3c-0.2-0.2-0.4-0.4-0.5-0.7l-3.7-7.7h-3.1v7.7
		c0,0.3-0.1,0.5-0.3,0.7c-0.2,0.2-0.4,0.3-0.6,0.3h-4.4c-0.2,0-0.5-0.1-0.6-0.3c-0.2-0.2-0.3-0.4-0.3-0.7v-23.3
		c0-0.3,0.1-0.5,0.3-0.7c0.2-0.2,0.4-0.3,0.6-0.3h9C91.4,267.3,93.7,268,95.3,269.3z M88.4,278.2c2.2,0,3.2-0.9,3.2-2.7
		c0-1.8-1.1-2.7-3.2-2.7h-3.8v5.3H88.4z"/>
	<path class="st1" d="M107.8,286.7h10.5c0.2,0,0.5,0.1,0.6,0.3c0.2,0.2,0.3,0.4,0.3,0.7v3.8c0,0.3-0.1,0.5-0.3,0.7
		c-0.2,0.2-0.4,0.3-0.6,0.3h-15.8c-0.2,0-0.5-0.1-0.6-0.3c-0.2-0.2-0.3-0.4-0.3-0.7v-23.3c0-0.3,0.1-0.5,0.3-0.7
		c0.2-0.2,0.4-0.3,0.6-0.3H118c0.2,0,0.5,0.1,0.6,0.3c0.2,0.2,0.3,0.4,0.3,0.7v3.8c0,0.3-0.1,0.5-0.3,0.7c-0.2,0.2-0.4,0.3-0.6,0.3
		h-10.2v3.9h9.5c0.2,0,0.5,0.1,0.6,0.3c0.2,0.2,0.3,0.4,0.3,0.7v3.8c0,0.3-0.1,0.5-0.3,0.7c-0.2,0.2-0.4,0.3-0.6,0.3h-9.5V286.7z"/>
	<path class="st1" d="M122.8,292.2c-0.2-0.2-0.3-0.4-0.3-0.7v-23.3c0-0.3,0.1-0.5,0.3-0.7c0.2-0.2,0.4-0.3,0.6-0.3h10.7
		c1.9,0,3.4,0.4,4.6,1.1c1.2,0.7,2,1.6,2.5,2.8c0.5,1.1,0.8,2.3,0.8,3.7c0,1.2-0.2,2.2-0.6,2.9c-0.4,0.7-0.8,1.3-1.3,1.7
		c0.8,0.6,1.4,1.4,1.8,2.2c0.4,0.9,0.5,1.9,0.5,3.1c0,2.2-0.6,4.1-1.9,5.6c-1.2,1.5-3.2,2.2-5.8,2.2h-11.4
		C123.2,292.5,123,292.4,122.8,292.2z M128.7,272.8v4.1h5.2c0.7,0,1.2-0.2,1.5-0.5c0.3-0.4,0.5-0.9,0.5-1.5c0-0.6-0.2-1.2-0.5-1.5
		s-0.8-0.5-1.5-0.5H128.7z M134.2,286.9c0.7,0,1.2-0.2,1.6-0.6c0.4-0.4,0.6-0.9,0.6-1.6c0-0.6-0.2-1.2-0.6-1.6
		c-0.4-0.4-0.9-0.6-1.6-0.6h-5.5v4.4H134.2z"/>
	<path class="st1" d="M166.9,291.1c0.1,0.2,0.1,0.4,0.1,0.5c0,0.2-0.1,0.4-0.2,0.6c-0.1,0.2-0.3,0.2-0.5,0.2h-4.2
		c-0.4,0-0.7-0.1-0.9-0.3c-0.2-0.2-0.3-0.4-0.4-0.6l-0.9-3H151l-0.9,3c-0.1,0.2-0.2,0.5-0.4,0.6c-0.2,0.2-0.5,0.3-0.9,0.3h-4.2
		c-0.2,0-0.4-0.1-0.5-0.2c-0.1-0.2-0.2-0.3-0.2-0.6c0-0.1,0-0.3,0.1-0.5l7.3-22.7c0.1-0.3,0.3-0.6,0.5-0.8c0.2-0.2,0.6-0.3,1-0.3
		h5.4c0.4,0,0.7,0.1,1,0.3c0.2,0.2,0.4,0.5,0.5,0.8L166.9,291.1z M158.1,283l-2.7-8.6l-2.7,8.6H158.1z"/>
	<path class="st1" d="M187.9,274.6c-0.1,0.2-0.3,0.2-0.5,0.2h-4.4c-0.3,0-0.6,0-0.7-0.1c-0.2-0.1-0.4-0.2-0.6-0.5
		c0,0-0.2-0.2-0.4-0.5c-0.2-0.3-0.6-0.5-1.1-0.7c-0.5-0.2-1.1-0.3-1.8-0.3c-1,0-1.7,0.1-2.3,0.4c-0.6,0.3-0.9,0.8-0.9,1.4
		c0,0.5,0.2,0.9,0.6,1.1c0.4,0.3,1,0.5,1.7,0.7c0.8,0.2,2.2,0.5,4.1,1c2.5,0.6,4.3,1.4,5.5,2.6c1.2,1.2,1.8,2.9,1.8,5
		c0,1.6-0.4,3-1.3,4.2c-0.9,1.2-2.1,2.1-3.7,2.7s-3.3,1-5.3,1c-1.9,0-3.6-0.4-5.2-1.1c-1.6-0.7-2.8-1.7-3.7-2.8
		c-0.9-1.2-1.4-2.3-1.4-3.6c0-0.2,0.1-0.4,0.2-0.6c0.1-0.2,0.3-0.2,0.5-0.2h4.4c0.5,0,0.9,0.2,1.3,0.5c0.1,0.1,0.2,0.3,0.5,0.6
		c0.3,0.3,0.7,0.7,1.3,0.9c0.6,0.3,1.3,0.4,2.1,0.4c2.8,0,4.1-0.6,4.1-1.9c0-0.4-0.2-0.8-0.6-1c-0.4-0.3-0.9-0.5-1.6-0.7
		c-0.7-0.2-1.8-0.5-3.4-0.8l-1.5-0.3c-2.3-0.5-3.9-1.4-5-2.6c-1.1-1.2-1.6-2.9-1.6-5c0-1.4,0.4-2.7,1.2-3.9c0.8-1.2,1.9-2.1,3.3-2.8
		s3.1-1.1,4.9-1.1c1.8,0,3.4,0.4,4.9,1.1c1.5,0.7,2.7,1.7,3.5,2.8c0.9,1.1,1.3,2.2,1.3,3.2C188.1,274.2,188.1,274.4,187.9,274.6z"/>
	<path class="st1" d="M198.3,286.7h10.5c0.2,0,0.5,0.1,0.6,0.3s0.3,0.4,0.3,0.7v3.8c0,0.3-0.1,0.5-0.3,0.7c-0.2,0.2-0.4,0.3-0.6,0.3
		H193c-0.2,0-0.5-0.1-0.6-0.3c-0.2-0.2-0.3-0.4-0.3-0.7v-23.3c0-0.3,0.1-0.5,0.3-0.7c0.2-0.2,0.4-0.3,0.6-0.3h15.5
		c0.2,0,0.5,0.1,0.6,0.3c0.2,0.2,0.3,0.4,0.3,0.7v3.8c0,0.3-0.1,0.5-0.3,0.7c-0.2,0.2-0.4,0.3-0.6,0.3h-10.2v3.9h9.5
		c0.2,0,0.5,0.1,0.6,0.3s0.3,0.4,0.3,0.7v3.8c0,0.3-0.1,0.5-0.3,0.7c-0.2,0.2-0.4,0.3-0.6,0.3h-9.5V286.7z"/>
</g>
<path class="st2" d="M60,0h136c33.1,0,60,26.9,60,60v136c0,33.1-26.9,60-60,60H60c-33.1,0-60-26.9-60-60V60C0,26.9,26.9,0,60,0z"/>
<defs>
	<filter id="Adobe_OpacityMaskFilter" filterUnits="userSpaceOnUse" x="45.9" y="28" width="164.2" height="205.7">
		<feColorMatrix  type="matrix" values="1 0 0 0 0  0 1 0 0 0  0 0 1 0 0  0 0 0 1 0"/>
	</filter>
</defs>
<mask maskUnits="userSpaceOnUse" x="45.9" y="28" width="164.2" height="205.7" id="mask0_147_896_2_">
	<path class="st3" d="M182,72.7c-0.3-1.7-1.5-3.1-3.1-3.6c-1.6-0.5-3.4-0.1-4.6,1.1l-23.6,23.7L132,58.6c-0.8-1.5-2.3-2.5-4-2.5
		c-1.7,0-3.2,1-4,2.5l-10.1,19.3L88.2,30.4c-2.1-3.9-7.9-2.8-8.6,1.5L55,189.4l66,36.9c4.2,2.3,9.2,2.3,13.3,0l66.6-36.9L182,72.7z"
		/>
</mask>
<g class="st4">
	
		<linearGradient id="SVGID_1_" gradientUnits="userSpaceOnUse" x1="36.4649" y1="214.5993" x2="218.0909" y2="118.2024" gradientTransform="matrix(1 0 0 -1 0 302)">
		<stop  offset="0" style="stop-color:#FFFFFF;stop-opacity:0.1"/>
		<stop  offset="1" style="stop-color:#FFFFFF;stop-opacity:0"/>
	</linearGradient>
	<path class="st5" d="M182,72.7c-0.3-1.7-1.5-3.1-3.1-3.6c-1.6-0.5-3.4-0.1-4.6,1.1l-23.6,23.7L132,58.6c-0.8-1.5-2.3-2.5-4-2.5
		c-1.7,0-3.2,1-4,2.5l-10.1,19.3L88.2,30.4c-2.1-3.9-7.9-2.8-8.6,1.5L55,189.4l66,36.9c4.2,2.3,9.2,2.3,13.3,0l66.6-36.9L182,72.7z"
		/>
	<path class="st6" d="M55,189.4L79.7,31.9c0.7-4.3,6.5-5.3,8.6-1.5l25.5,47.5L124,58.6c0.8-1.5,2.3-2.5,4-2.5c1.7,0,3.3,0.9,4,2.5
		L201,189.4H55z"/>
	<rect x="45.9" y="67.8" class="st7" width="99.2" height="126.1"/>
	<path class="st8" d="M140.3,128l-26.6-50.1L55,189.4L140.3,128z"/>
	<rect x="50.4" y="58.7" class="st7" width="159.6" height="175"/>
	<path class="st9" d="M201,189.4L182,72.7c-0.3-1.7-1.5-3.1-3.1-3.6c-1.6-0.5-3.4-0.1-4.6,1.1L55,189.4l66,36.9
		c4.2,2.3,9.2,2.3,13.3,0L201,189.4z"/>
	<path class="st10" d="M182,72.7c-0.3-1.7-1.5-3.1-3.1-3.6c-1.6-0.5-3.4-0.1-4.6,1.1l-23.6,23.7L132,58.6c-0.8-1.5-2.3-2.5-4-2.5
		c-1.7,0-3.2,1-4,2.5l-10.1,19.3L88.2,30.4c-2.1-3.9-7.9-2.8-8.6,1.5L55,189.4h-0.1l0.1,0.1l0.7,0.3l94.9-94.8l23.7-23.6
		c1.2-1.2,3-1.6,4.6-1.1c1.6,0.5,2.8,1.9,3.1,3.6l18.7,115.6l0.2-0.1L182,72.7z M55.2,189.1L79.7,33c0.7-4.3,6.5-5.3,8.6-1.5
		L113.8,79L124,59.7c0.8-1.5,2.3-2.5,4-2.5c1.7,0,3.3,0.9,4,2.5l18.2,34.5L55.2,189.1z"/>
	<path class="st11" d="M134.4,225.2c-4.2,2.3-9.2,2.3-13.3,0l-65.9-36.8l-0.1,1l66,36.9c4.2,2.3,9.2,2.3,13.3,0l66.6-36.9l-0.1-1
		L134.4,225.2z"/>
	
		<linearGradient id="SVGID_2_" gradientUnits="userSpaceOnUse" x1="36.4649" y1="214.5993" x2="218.0909" y2="118.2024" gradientTransform="matrix(1 0 0 -1 0 302)">
		<stop  offset="0" style="stop-color:#FFFFFF;stop-opacity:0.1"/>
		<stop  offset="1" style="stop-color:#FFFFFF;stop-opacity:0"/>
	</linearGradient>
	<path class="st12" d="M182,72.7c-0.3-1.7-1.5-3.1-3.1-3.6c-1.6-0.5-3.4-0.1-4.6,1.1l-23.6,23.7L132,58.6c-0.8-1.5-2.3-2.5-4-2.5
		c-1.7,0-3.2,1-4,2.5l-10.1,19.3L88.2,30.4c-2.1-3.9-7.9-2.8-8.6,1.5L55,189.4l66,36.9c4.2,2.3,9.2,2.3,13.3,0l66.6-36.9L182,72.7z"
		/>
</g>
</svg>
