<?xml version="1.0" encoding="utf-8"?>
<!-- Generator: Adobe Illustrator 24.3.0, SVG Export Plug-In . SVG Version: 6.00 Build 0)  -->
<svg version="1.1" id="Layer_1" xmlns="http://www.w3.org/2000/svg" xmlns:xlink="http://www.w3.org/1999/xlink" x="0px" y="0px"
	 viewBox="0 0 256 300" style="enable-background:new 0 0 256 300;" xml:space="preserve">
<style type="text/css">
	.st0{fill:#FFFFFF;}
	.st1{fill:#0D1117;}
	.st2{fill:#F03C2E;}
	.st3{clip-path:url(#SVGID_2_);}
</style>
<path class="st0" d="M27.5,162.6h201c15.2,0,27.5,12.3,27.5,27.5v82.4c0,15.2-12.3,27.5-27.5,27.5h-201C12.3,300,0,287.7,0,272.5
	v-82.4C0,174.9,12.3,162.6,27.5,162.6z"/>
<g>
	<path class="st1" d="M106,279.7c0,1.5,0,2.6,0.1,3.3c0.1,1.2,0.4,2.2,1.1,3c0.6,0.8,1.6,1.2,2.9,1.2c1.2,0,2.1-0.3,2.8-0.9
		c0.7-0.6,1.1-1.6,1.1-3h-2.6c-0.2,0-0.4-0.1-0.6-0.3s-0.2-0.4-0.2-0.7v-3.8c0-0.3,0.1-0.5,0.2-0.7c0.2-0.2,0.4-0.3,0.6-0.3h7.5
		c0.2,0,0.4,0.1,0.6,0.3s0.2,0.4,0.2,0.7v4.6c0,2-0.4,3.7-1.3,5.2c-0.8,1.5-2,2.6-3.5,3.4s-3.1,1.2-4.9,1.2c-1.9,0-3.6-0.4-5-1.3
		s-2.5-2-3.3-3.5s-1.2-3.1-1.3-4.9c0-1.1-0.1-2.1-0.1-2.8c0-0.9,0-2.1,0.1-3.5c0.1-1.8,0.5-3.4,1.3-4.9s1.9-2.6,3.3-3.5
		s3.1-1.3,5-1.3c1.8,0,3.5,0.4,4.9,1.2s2.5,1.8,3.3,3s1.2,2.4,1.3,3.5c0,0.2,0,0.4-0.2,0.6c-0.1,0.2-0.3,0.2-0.5,0.2h-4.1
		c-0.3,0-0.5-0.1-0.6-0.2s-0.4-0.4-0.6-0.7c-0.4-0.5-0.8-0.9-1.3-1.3c-0.5-0.3-1.2-0.5-2.1-0.5c-2.3,0-3.6,1.4-3.9,4.2
		C106,277.5,106,278.4,106,279.7z"/>
	<path class="st1" d="M125.8,292.2c-0.2-0.2-0.2-0.4-0.2-0.7v-23.1c0-0.3,0.1-0.5,0.2-0.7c0.2-0.2,0.4-0.3,0.6-0.3h4.1
		c0.2,0,0.4,0.1,0.6,0.3s0.2,0.4,0.2,0.7v23.1c0,0.3-0.1,0.5-0.2,0.7c-0.2,0.2-0.4,0.3-0.6,0.3h-4.1
		C126.1,292.5,125.9,292.4,125.8,292.2z"/>
	<path class="st1" d="M153.8,267.7c0.2,0.2,0.2,0.4,0.2,0.7v3.8c0,0.3-0.1,0.5-0.2,0.7c-0.2,0.2-0.4,0.3-0.6,0.3h-5.5v18.4
		c0,0.3-0.1,0.5-0.2,0.7c-0.2,0.2-0.4,0.3-0.6,0.3h-4c-0.2,0-0.4-0.1-0.6-0.3s-0.2-0.4-0.2-0.7v-18.4h-5.5c-0.2,0-0.4-0.1-0.6-0.3
		s-0.2-0.4-0.2-0.7v-3.8c0-0.3,0.1-0.5,0.2-0.7c0.2-0.2,0.4-0.3,0.6-0.3h16.7C153.4,267.4,153.6,267.5,153.8,267.7z"/>
</g>
<path class="st2" d="M60,0h136c33.1,0,60,26.9,60,60v136c0,33.1-26.9,60-60,60H60c-33.1,0-60-26.9-60-60V60C0,26.8,26.8,0,60,0z"/>
<g>
	<g>
		<g>
			<defs>
				<rect id="SVGID_1_" x="28" y="28" width="200" height="200"/>
			</defs>
			<clipPath id="SVGID_2_">
				<use xlink:href="#SVGID_1_"  style="overflow:visible;"/>
			</clipPath>
			<g class="st3">
				<path class="st0" d="M224.2,119.1l-87.3-87.4c-1.2-1.2-2.6-2.1-4.2-2.8c-1.6-0.6-3.2-1-4.9-1c-1.7,0-3.4,0.3-4.9,1
					c-1.6,0.6-3,1.6-4.2,2.8l-18.1,18.2l23,23c5.4-1.9,11.5-0.6,15.7,3.7c2,2,3.4,4.6,4.1,7.4s0.5,5.7-0.5,8.4l22.2,22.2
					c5.4-1.8,11.6-0.7,15.8,3.6c1.4,1.4,2.6,3.1,3.3,5c0.8,1.9,1.2,3.9,1.2,5.9s-0.4,4-1.2,5.9s-1.9,3.5-3.3,5
					c-1.4,1.4-3.1,2.6-5,3.3c-1.9,0.8-3.9,1.2-5.9,1.2s-4-0.4-5.9-1.2s-3.6-1.9-5-3.3c-4.5-4.5-5.6-11.1-3.3-16.7l-20.7-20.7V157
					c1.5,0.7,2.9,1.7,4.1,2.9c1.4,1.4,2.6,3.1,3.3,5c0.8,1.9,1.2,3.9,1.2,5.9s-0.4,4-1.2,5.9s-1.9,3.5-3.3,5c-1.4,1.4-3.1,2.6-5,3.3
					c-1.9,0.8-3.9,1.2-5.9,1.2s-4-0.4-5.9-1.2s-3.6-1.9-5-3.3c-1.4-1.4-2.6-3.1-3.3-5c-0.8-1.9-1.2-3.9-1.2-5.9s0.4-4,1.2-5.9
					c0.8-1.9,1.9-3.5,3.3-5c1.5-1.5,3.1-2.6,5-3.3v-54.9c-1.8-0.8-3.5-1.9-5-3.3c-2.2-2.1-3.6-4.9-4.2-7.9s-0.3-6.1,0.9-8.9
					L91.4,58.9l-59.9,59.8c-1.2,1.2-2.1,2.6-2.8,4.2c-0.6,1.6-1,3.2-1,4.9s0.3,3.4,1,4.9c0.6,1.6,1.6,3,2.8,4.2l87.3,87.3
					c1.2,1.2,2.6,2.1,4.2,2.8c1.6,0.6,3.2,1,4.9,1s3.4-0.3,4.9-1c1.6-0.6,3-1.6,4.2-2.8l86.9-86.8c1.2-1.2,2.1-2.6,2.8-4.2
					s1-3.2,1-4.9s-0.3-3.4-1-4.9C226.4,121.7,225.4,120.3,224.2,119.1"/>
			</g>
		</g>
	</g>
</g>
</svg>
