<?xml version="1.0" encoding="utf-8"?>
<!-- Generator: Adobe Illustrator 24.3.0, SVG Export Plug-In . SVG Version: 6.00 Build 0)  -->
<svg version="1.1" id="Layer_1" xmlns="http://www.w3.org/2000/svg" xmlns:xlink="http://www.w3.org/1999/xlink" x="0px" y="0px"
	 viewBox="0 0 256 300" style="enable-background:new 0 0 256 300;" xml:space="preserve">
<style type="text/css">
	.st0{display:none;fill:#0D1117;}
	.st1{fill:#FFFFFF;}
	.st2{fill:#0D1117;}
	.st3{fill:#330000;}
	.st4{fill:#FF9A00;}
	.st5{fill:#242938;}
	.st6{fill-rule:evenodd;clip-rule:evenodd;fill:#242938;}
	.st7{fill-rule:evenodd;clip-rule:evenodd;fill:#FFFFFF;}
	.st8{fill-rule:evenodd;clip-rule:evenodd;fill:#47B353;}
	.st9{fill:#ECEFF1;}
	.st10{fill:#263238;}
	.st11{fill:#212121;}
	.st12{fill:#FFC107;}
	.st13{fill:#634703;}
	.st14{fill:#455A64;}
	.st15{fill:#F03C2E;}
	.st16{clip-path:url(#SVGID_2_);}
	.st17{fill:#0277BD;}
	.st18{fill:#EBEBEB;}
	.st19{fill:#E14E1D;}
	.st20{clip-path:url(#SVGID_4_);}
	.st21{fill:#0ACF83;}
	.st22{fill:#A259FF;}
	.st23{fill:#F24E1E;}
	.st24{fill:#FF7262;}
	.st25{fill:#1ABCFE;}
	.st26{fill:#F0DB4F;}
	.st27{fill:#323330;}
	.st28{fill:#00D8FF;}
	.st29{fill:none;stroke:#00D8FF;stroke-width:8.911;}
	.st30{fill:#764ABC;}
	.st31{fill:#81CD39;}
	.st32{fill:#99424F;}
	.st33{fill:url(#SVGID_5_);}
	.st34{fill:url(#SVGID_6_);}
	.st35{fill:none;stroke:#FFFFFF;stroke-width:2;}
	.st36{fill:#2489CA;}
	.st37{fill:#1070B3;}
	.st38{fill:#0877B9;}
	.st39{fill:#3C99D4;}
	.st40{clip-path:url(#SVGID_8_);}
	.st41{fill:#023430;}
	.st42{fill:#10AA50;}
	.st43{fill:#B8C4C2;}
	.st44{fill:#12924F;}
	.st45{fill:#F58219;}
	.st46{fill:#2396ED;}
	.st47{fill:#007ACC;}
	.st48{fill:url(#SVGID_9_);}
	.st49{fill:url(#SVGID_10_);}
	.st50{fill:#001E36;}
	.st51{fill:#31A8FF;}
	.st52{fill:#E43717;}
	.st53{clip-path:url(#SVGID_12_);}
	.st54{fill-rule:evenodd;clip-rule:evenodd;fill:url(#SVGID_13_);}
	.st55{fill-rule:evenodd;clip-rule:evenodd;fill:url(#SVGID_14_);}
	.st56{fill-rule:evenodd;clip-rule:evenodd;fill:url(#SVGID_15_);}
	.st57{fill-rule:evenodd;clip-rule:evenodd;fill:url(#SVGID_16_);}
	.st58{fill-rule:evenodd;clip-rule:evenodd;fill:url(#SVGID_17_);}
	.st59{fill-rule:evenodd;clip-rule:evenodd;fill:url(#SVGID_18_);}
	.st60{fill-rule:evenodd;clip-rule:evenodd;fill:url(#SVGID_19_);}
	.st61{fill-rule:evenodd;clip-rule:evenodd;fill:url(#SVGID_20_);}
	.st62{fill-rule:evenodd;clip-rule:evenodd;fill:url(#SVGID_21_);}
	.st63{fill-rule:evenodd;clip-rule:evenodd;fill:url(#SVGID_22_);}
	.st64{fill-rule:evenodd;clip-rule:evenodd;fill:url(#SVGID_23_);}
	.st65{fill-rule:evenodd;clip-rule:evenodd;fill:url(#SVGID_24_);}
	.st66{fill-rule:evenodd;clip-rule:evenodd;fill:#9E1209;}
	.st67{fill-rule:evenodd;clip-rule:evenodd;fill:url(#SVGID_25_);}
	.st68{fill-rule:evenodd;clip-rule:evenodd;fill:url(#SVGID_26_);}
	.st69{fill-rule:evenodd;clip-rule:evenodd;fill:url(#SVGID_27_);}
	.st70{fill-rule:evenodd;clip-rule:evenodd;fill:url(#SVGID_28_);}
	.st71{fill:#092E20;}
	.st72{fill-rule:evenodd;clip-rule:evenodd;fill:#FF9900;}
	.st73{fill:#E23237;}
	.st74{fill:#B52E31;}
	.st75{fill:#2F406A;}
	.st76{fill:#2379BD;}
	.st77{fill:#03AFEF;}
	.st78{fill:#953CAD;}
</style>
<g>
	<rect y="162.6" class="st1" width="256" height="137.4"/>
	<g>
		<path class="st2" d="M68.2,279.7c0,1.5,0,2.6,0.1,3.3c0.1,1.2,0.4,2.2,1.1,3c0.6,0.8,1.6,1.2,2.9,1.2c1.2,0,2.1-0.3,2.8-0.9
			c0.7-0.6,1.1-1.6,1.1-3h-2.6c-0.2,0-0.4-0.1-0.6-0.3c-0.2-0.2-0.2-0.4-0.2-0.7v-3.8c0-0.3,0.1-0.5,0.2-0.7
			c0.2-0.2,0.4-0.3,0.6-0.3h7.5c0.2,0,0.4,0.1,0.6,0.3c0.2,0.2,0.2,0.4,0.2,0.7v4.6c0,2-0.4,3.7-1.3,5.2c-0.8,1.5-2,2.6-3.5,3.4
			s-3.1,1.2-4.9,1.2c-1.9,0-3.6-0.4-5-1.3c-1.4-0.9-2.5-2-3.3-3.5s-1.2-3.1-1.3-4.9c0-1.1-0.1-2.1-0.1-2.8c0-0.9,0-2.1,0.1-3.5
			c0.1-1.8,0.5-3.4,1.3-4.9s1.9-2.6,3.3-3.5c1.4-0.9,3.1-1.3,5-1.3c1.8,0,3.5,0.4,4.9,1.2s2.5,1.8,3.3,3s1.2,2.4,1.3,3.5
			c0,0.2,0,0.4-0.2,0.6s-0.3,0.2-0.5,0.2h-4.1c-0.3,0-0.5-0.1-0.6-0.2s-0.4-0.4-0.6-0.7c-0.4-0.5-0.8-0.9-1.3-1.3
			c-0.5-0.3-1.2-0.5-2.1-0.5c-2.3,0-3.6,1.4-3.9,4.2C68.3,277.5,68.2,278.4,68.2,279.7z"/>
		<path class="st2" d="M88.1,292.2c-0.2-0.2-0.2-0.4-0.2-0.7v-23.1c0-0.3,0.1-0.5,0.2-0.7c0.2-0.2,0.4-0.3,0.6-0.3h4.1
			c0.2,0,0.4,0.1,0.6,0.3c0.2,0.2,0.2,0.4,0.2,0.7v23.1c0,0.3-0.1,0.5-0.2,0.7c-0.2,0.2-0.4,0.3-0.6,0.3h-4.1
			C88.4,292.5,88.2,292.4,88.1,292.2z"/>
		<path class="st2" d="M116.8,267.7c0.2,0.2,0.2,0.4,0.2,0.7v3.8c0,0.3-0.1,0.5-0.2,0.7c-0.2,0.2-0.4,0.3-0.6,0.3h-5.5v18.4
			c0,0.3-0.1,0.5-0.2,0.7c-0.2,0.2-0.4,0.3-0.6,0.3h-4.1c-0.2,0-0.4-0.1-0.6-0.3c-0.2-0.2-0.2-0.4-0.2-0.7v-18.4h-5.5
			c-0.2,0-0.4-0.1-0.6-0.3c-0.2-0.2-0.2-0.4-0.2-0.7v-3.8c0-0.3,0.1-0.5,0.2-0.7c0.2-0.2,0.4-0.3,0.6-0.3h16.7
			C116.5,267.4,116.7,267.5,116.8,267.7z"/>
		<path class="st2" d="M140.4,267.7c0.2,0.2,0.2,0.4,0.2,0.7v23.1c0,0.3-0.1,0.5-0.2,0.7c-0.2,0.2-0.4,0.3-0.6,0.3h-4.1
			c-0.2,0-0.4-0.1-0.6-0.3c-0.2-0.2-0.2-0.4-0.2-0.7v-8.8H128v8.8c0,0.3-0.1,0.5-0.2,0.7c-0.2,0.2-0.4,0.3-0.6,0.3h-4.1
			c-0.2,0-0.4-0.1-0.6-0.3c-0.2-0.2-0.2-0.4-0.2-0.7v-23.1c0-0.3,0.1-0.5,0.2-0.7c0.2-0.2,0.4-0.3,0.6-0.3h4.1
			c0.2,0,0.4,0.1,0.6,0.3c0.2,0.2,0.2,0.4,0.2,0.7v8.6h6.9v-8.6c0-0.3,0.1-0.5,0.2-0.7c0.2-0.2,0.4-0.3,0.6-0.3h4.1
			C140,267.4,140.2,267.5,140.4,267.7z"/>
		<path class="st2" d="M165.8,267.7c0.2,0.2,0.2,0.4,0.2,0.7v14.3c0,2.1-0.4,4-1.2,5.5s-1.9,2.7-3.3,3.5c-1.4,0.8-3.1,1.2-5,1.2
			s-3.6-0.4-5-1.2s-2.5-1.9-3.3-3.5c-0.8-1.5-1.2-3.4-1.2-5.5v-14.3c0-0.3,0.1-0.5,0.2-0.7c0.2-0.2,0.4-0.3,0.6-0.3h4.1
			c0.2,0,0.4,0.1,0.6,0.3c0.2,0.2,0.2,0.4,0.2,0.7v14.1c0,1.5,0.3,2.6,0.9,3.4s1.5,1.2,2.7,1.2s2.1-0.4,2.7-1.2s0.9-1.9,0.9-3.4
			v-14.1c0-0.3,0.1-0.5,0.2-0.7c0.2-0.2,0.4-0.3,0.6-0.3h4.1C165.4,267.4,165.6,267.5,165.8,267.7z"/>
		<path class="st2" d="M172.8,292.2c-0.2-0.2-0.2-0.4-0.2-0.7v-23.1c0-0.3,0.1-0.5,0.2-0.7c0.2-0.2,0.4-0.3,0.6-0.3h10
			c1.8,0,3.2,0.4,4.3,1.1s1.9,1.6,2.4,2.7s0.7,2.3,0.7,3.6c0,1.2-0.2,2.2-0.5,2.9c-0.4,0.7-0.8,1.3-1.2,1.7c0.8,0.6,1.3,1.4,1.7,2.2
			s0.5,1.9,0.5,3.1c0,2.2-0.6,4.1-1.7,5.5s-3,2.2-5.4,2.2h-10.8C173.2,292.5,173,292.4,172.8,292.2z M178.3,273v4.1h4.8
			c0.6,0,1.1-0.2,1.4-0.5c0.3-0.4,0.5-0.9,0.5-1.5s-0.2-1.1-0.5-1.5s-0.8-0.5-1.4-0.5L178.3,273L178.3,273z M183.4,286.9
			c0.6,0,1.1-0.2,1.5-0.6c0.4-0.4,0.6-0.9,0.6-1.6c0-0.6-0.2-1.2-0.6-1.6c-0.4-0.4-0.9-0.6-1.5-0.6h-5.1v4.4L183.4,286.9
			L183.4,286.9z"/>
	</g>
	<path class="st5" d="M60,0h136c33.1,0,60,26.9,60,60v136c0,33.1-26.9,60-60,60H60c-33.1,0-60-26.9-60-60V60C0,26.8,26.9,0,60,0z"/>
	<path class="st1" d="M128,30C72.8,30,28,74.8,28,130c0,44.2,28.7,81.7,68.4,94.9c5,0.9,6.8-2.2,6.8-4.8c0-2.4-0.1-10.3-0.1-18.6
		c-27.8,6-33.7-11.8-33.7-11.8c-4.5-11.6-11.1-14.6-11.1-14.6c-9.1-6.2,0.7-6.1,0.7-6.1c10,0.7,15.3,10.3,15.3,10.3
		c8.9,15.3,23.4,10.9,29.1,8.3c0.9-6.5,3.5-10.9,6.3-13.4c-22.2-2.5-45.6-11.1-45.6-49.4c0-10.9,3.9-19.8,10.3-26.8
		c-1-2.5-4.5-12.7,1-26.5c0,0,8.4-2.7,27.5,10.3c8-2.2,16.5-3.3,25-3.4c8.5,0,17.1,1.1,25.1,3.4c19.1-12.9,27.5-10.3,27.5-10.3
		c5.4,13.8,2,23.9,1,26.5c6.4,7,10.3,15.9,10.3,26.8c0,38.4-23.4,46.9-45.7,49.3c3.6,3.1,6.8,9.2,6.8,18.5c0,13.4-0.1,24.1-0.1,27.4
		c0,2.7,1.8,5.8,6.9,4.8c39.7-13.2,68.3-50.7,68.3-94.9C228,74.7,183.2,30,128,30z M65.5,172.4c-0.2,0.5-1,0.6-1.7,0.3
		s-1.1-1-0.9-1.5c0.2-0.5,1-0.7,1.7-0.3C65.3,171.2,65.7,171.9,65.5,172.4z M70.4,176.8c-0.5,0.4-1.4,0.2-2-0.5
		c-0.7-0.7-0.8-1.6-0.3-2.1c0.5-0.4,1.4-0.2,2.1,0.5C70.8,175.4,70.9,176.4,70.4,176.8z M73.8,182.4c-0.6,0.4-1.6,0-2.2-0.9
		c-0.6-0.9-0.6-2,0-2.4s1.6,0,2.2,0.8C74.4,180.9,74.4,182,73.8,182.4z M79.5,188.9c-0.5,0.6-1.7,0.4-2.6-0.4
		c-0.9-0.8-1.1-2-0.6-2.6c0.6-0.6,1.7-0.4,2.6,0.4C79.8,187.2,80.1,188.3,79.5,188.9z M86.8,191.1c-0.2,0.8-1.4,1.1-2.5,0.8
		s-1.9-1.3-1.6-2.1c0.2-0.8,1.4-1.2,2.5-0.8C86.3,189.4,87.1,190.3,86.8,191.1z M95.2,192.1c0,0.8-0.9,1.5-2.1,1.5
		c-1.2,0-2.2-0.6-2.2-1.5c0-0.8,0.9-1.5,2.1-1.5C94.3,190.6,95.2,191.2,95.2,192.1z M103.5,191.7c0.1,0.8-0.7,1.6-1.9,1.9
		c-1.2,0.2-2.2-0.3-2.4-1.1c-0.1-0.8,0.7-1.7,1.9-1.9C102.3,190.4,103.3,190.9,103.5,191.7z"/>
</g>
</svg>
