<?xml version="1.0" encoding="utf-8"?>
<!-- Generator: Adobe Illustrator 24.3.0, SVG Export Plug-In . SVG Version: 6.00 Build 0)  -->
<svg version="1.1" id="Layer_1" xmlns="http://www.w3.org/2000/svg" xmlns:xlink="http://www.w3.org/1999/xlink" x="0px" y="0px"
	 viewBox="0 0 256 300" style="enable-background:new 0 0 256 300;" xml:space="preserve">
<style type="text/css">
	.st0{display:none;fill:#0D1117;}
	.st1{fill:#FFFFFF;}
	.st2{fill:#0D1117;}
	.st3{fill:#330000;}
	.st4{fill:#FF9A00;}
	.st5{fill:#242938;}
	.st6{fill-rule:evenodd;clip-rule:evenodd;fill:#242938;}
	.st7{fill-rule:evenodd;clip-rule:evenodd;fill:#FFFFFF;}
	.st8{fill-rule:evenodd;clip-rule:evenodd;fill:#47B353;}
	.st9{fill:#ECEFF1;}
	.st10{fill:#263238;}
	.st11{fill:#212121;}
	.st12{fill:#FFC107;}
	.st13{fill:#634703;}
	.st14{fill:#455A64;}
	.st15{fill:#F03C2E;}
	.st16{clip-path:url(#SVGID_2_);}
	.st17{fill:#0277BD;}
	.st18{fill:#EBEBEB;}
	.st19{fill:#E14E1D;}
	.st20{clip-path:url(#SVGID_4_);}
	.st21{fill:#0ACF83;}
	.st22{fill:#A259FF;}
	.st23{fill:#F24E1E;}
	.st24{fill:#FF7262;}
	.st25{fill:#1ABCFE;}
	.st26{fill:#F0DB4F;}
	.st27{fill:#323330;}
	.st28{fill:#00D8FF;}
	.st29{fill:none;stroke:#00D8FF;stroke-width:8.911;}
	.st30{fill:#764ABC;}
	.st31{fill:#81CD39;}
	.st32{fill:#99424F;}
	.st33{fill:url(#SVGID_5_);}
	.st34{fill:url(#SVGID_6_);}
	.st35{fill:none;stroke:#FFFFFF;stroke-width:2;}
	.st36{fill:#2489CA;}
	.st37{fill:#1070B3;}
	.st38{fill:#0877B9;}
	.st39{fill:#3C99D4;}
	.st40{clip-path:url(#SVGID_8_);}
	.st41{fill:#023430;}
	.st42{fill:#10AA50;}
	.st43{fill:#B8C4C2;}
	.st44{fill:#12924F;}
	.st45{fill:#F58219;}
	.st46{fill:#2396ED;}
	.st47{fill:#007ACC;}
	.st48{fill:url(#SVGID_9_);}
	.st49{fill:url(#SVGID_10_);}
	.st50{fill:#001E36;}
	.st51{fill:#31A8FF;}
	.st52{fill:#E43717;}
	.st53{clip-path:url(#SVGID_12_);}
	.st54{fill-rule:evenodd;clip-rule:evenodd;fill:url(#SVGID_13_);}
	.st55{fill-rule:evenodd;clip-rule:evenodd;fill:url(#SVGID_14_);}
	.st56{fill-rule:evenodd;clip-rule:evenodd;fill:url(#SVGID_15_);}
	.st57{fill-rule:evenodd;clip-rule:evenodd;fill:url(#SVGID_16_);}
	.st58{fill-rule:evenodd;clip-rule:evenodd;fill:url(#SVGID_17_);}
	.st59{fill-rule:evenodd;clip-rule:evenodd;fill:url(#SVGID_18_);}
	.st60{fill-rule:evenodd;clip-rule:evenodd;fill:url(#SVGID_19_);}
	.st61{fill-rule:evenodd;clip-rule:evenodd;fill:url(#SVGID_20_);}
	.st62{fill-rule:evenodd;clip-rule:evenodd;fill:url(#SVGID_21_);}
	.st63{fill-rule:evenodd;clip-rule:evenodd;fill:url(#SVGID_22_);}
	.st64{fill-rule:evenodd;clip-rule:evenodd;fill:url(#SVGID_23_);}
	.st65{fill-rule:evenodd;clip-rule:evenodd;fill:url(#SVGID_24_);}
	.st66{fill-rule:evenodd;clip-rule:evenodd;fill:#9E1209;}
	.st67{fill-rule:evenodd;clip-rule:evenodd;fill:url(#SVGID_25_);}
	.st68{fill-rule:evenodd;clip-rule:evenodd;fill:url(#SVGID_26_);}
	.st69{fill-rule:evenodd;clip-rule:evenodd;fill:url(#SVGID_27_);}
	.st70{fill-rule:evenodd;clip-rule:evenodd;fill:url(#SVGID_28_);}
	.st71{fill:#092E20;}
	.st72{fill-rule:evenodd;clip-rule:evenodd;fill:#FF9900;}
	.st73{fill:#E23237;}
	.st74{fill:#B52E31;}
	.st75{fill:#2F406A;}
	.st76{fill:#2379BD;}
	.st77{fill:#03AFEF;}
	.st78{fill:#953CAD;}
</style>
<g>
	<rect x="0" y="162.6" class="st1" width="256" height="137.4"/>
	<g>
		<path class="st2" d="M106,279.7c0,1.5,0,2.6,0.1,3.3c0.1,1.2,0.4,2.2,1.1,3c0.6,0.8,1.6,1.2,2.9,1.2c1.2,0,2.1-0.3,2.8-0.9
			c0.7-0.6,1.1-1.6,1.1-3h-2.6c-0.2,0-0.4-0.1-0.6-0.3s-0.2-0.4-0.2-0.7v-3.8c0-0.3,0.1-0.5,0.2-0.7c0.2-0.2,0.4-0.3,0.6-0.3h7.5
			c0.2,0,0.4,0.1,0.6,0.3s0.2,0.4,0.2,0.7v4.6c0,2-0.4,3.7-1.3,5.2c-0.8,1.5-2,2.6-3.5,3.4s-3.1,1.2-4.9,1.2c-1.9,0-3.6-0.4-5-1.3
			c-1.4-0.9-2.5-2-3.3-3.5s-1.2-3.1-1.3-4.9c0-1.1-0.1-2.1-0.1-2.8c0-0.9,0-2.1,0.1-3.5c0.1-1.8,0.5-3.4,1.3-4.9s1.9-2.6,3.3-3.5
			s3.1-1.3,5-1.3c1.8,0,3.5,0.4,4.9,1.2s2.5,1.8,3.3,3s1.2,2.4,1.3,3.5c0,0.2,0,0.4-0.2,0.6c-0.1,0.2-0.3,0.2-0.5,0.2h-4.1
			c-0.3,0-0.5-0.1-0.6-0.2s-0.4-0.4-0.6-0.7c-0.4-0.5-0.8-0.9-1.3-1.3c-0.5-0.3-1.2-0.5-2.1-0.5c-2.3,0-3.6,1.4-3.9,4.2
			C106,277.5,106,278.4,106,279.7z"/>
		<path class="st2" d="M125.8,292.2c-0.2-0.2-0.2-0.4-0.2-0.7v-23.1c0-0.3,0.1-0.5,0.2-0.7c0.2-0.2,0.4-0.3,0.6-0.3h4.1
			c0.2,0,0.4,0.1,0.6,0.3s0.2,0.4,0.2,0.7v23.1c0,0.3-0.1,0.5-0.2,0.7c-0.2,0.2-0.4,0.3-0.6,0.3h-4.1
			C126.1,292.5,125.9,292.4,125.8,292.2z"/>
		<path class="st2" d="M153.8,267.7c0.2,0.2,0.2,0.4,0.2,0.7v3.8c0,0.3-0.1,0.5-0.2,0.7c-0.2,0.2-0.4,0.3-0.6,0.3h-5.5v18.4
			c0,0.3-0.1,0.5-0.2,0.7c-0.2,0.2-0.4,0.3-0.6,0.3h-4c-0.2,0-0.4-0.1-0.6-0.3s-0.2-0.4-0.2-0.7v-18.4h-5.5c-0.2,0-0.4-0.1-0.6-0.3
			s-0.2-0.4-0.2-0.7v-3.8c0-0.3,0.1-0.5,0.2-0.7c0.2-0.2,0.4-0.3,0.6-0.3h16.7C153.4,267.4,153.6,267.5,153.8,267.7z"/>
	</g>
	<path class="st15" d="M60,0h136c33.1,0,60,26.9,60,60v136c0,33.1-26.9,60-60,60H60c-33.1,0-60-26.9-60-60V60C0,26.8,26.8,0,60,0z"
		/>
	<g>
		<g>
			<defs>
				<rect id="SVGID_1_" x="28" y="28" width="200" height="200"/>
			</defs>
			<clipPath id="SVGID_2_">
				<use xlink:href="#SVGID_1_"  style="overflow:visible;"/>
			</clipPath>
			<g class="st16">
				<path class="st1" d="M224.2,119.1l-87.3-87.4c-1.2-1.2-2.6-2.1-4.2-2.8c-1.6-0.6-3.2-1-4.9-1c-1.7,0-3.4,0.3-4.9,1
					c-1.6,0.6-3,1.6-4.2,2.8l-18.1,18.2l23,23c5.4-1.9,11.5-0.6,15.7,3.7c2,2,3.4,4.6,4.1,7.4s0.5,5.7-0.5,8.4l22.2,22.2
					c5.4-1.8,11.6-0.7,15.8,3.6c1.4,1.4,2.6,3.1,3.3,5c0.8,1.9,1.2,3.9,1.2,5.9s-0.4,4-1.2,5.9c-0.8,1.9-1.9,3.5-3.3,5
					c-1.4,1.4-3.1,2.6-5,3.3c-1.9,0.8-3.9,1.2-5.9,1.2s-4-0.4-5.9-1.2s-3.6-1.9-5-3.3c-4.5-4.5-5.6-11.1-3.3-16.7l-20.7-20.7V157
					c1.5,0.7,2.9,1.7,4.1,2.9c1.4,1.4,2.6,3.1,3.3,5c0.8,1.9,1.2,3.9,1.2,5.9s-0.4,4-1.2,5.9c-0.8,1.9-1.9,3.5-3.3,5
					c-1.4,1.4-3.1,2.6-5,3.3c-1.9,0.8-3.9,1.2-5.9,1.2s-4-0.4-5.9-1.2s-3.6-1.9-5-3.3c-1.4-1.4-2.6-3.1-3.3-5
					c-0.8-1.9-1.2-3.9-1.2-5.9s0.4-4,1.2-5.9c0.8-1.9,1.9-3.5,3.3-5c1.5-1.5,3.1-2.6,5-3.3v-54.9c-1.8-0.8-3.5-1.9-5-3.3
					c-2.2-2.1-3.6-4.9-4.2-7.9s-0.3-6.1,0.9-8.9L91.4,58.9l-59.9,59.8c-1.2,1.2-2.1,2.6-2.8,4.2c-0.6,1.6-1,3.2-1,4.9s0.3,3.4,1,4.9
					c0.6,1.6,1.6,3,2.8,4.2l87.3,87.3c1.2,1.2,2.6,2.1,4.2,2.8c1.6,0.6,3.2,1,4.9,1c1.7,0,3.4-0.3,4.9-1c1.6-0.6,3-1.6,4.2-2.8
					l86.9-86.8c1.2-1.2,2.1-2.6,2.8-4.2s1-3.2,1-4.9s-0.3-3.4-1-4.9C226.4,121.7,225.4,120.3,224.2,119.1"/>
			</g>
		</g>
	</g>
</g>
</svg>
