<?xml version="1.0" encoding="utf-8"?>
<!-- Generator: Adobe Illustrator 24.3.0, SVG Export Plug-In . SVG Version: 6.00 Build 0)  -->
<svg version="1.1" id="Layer_1" xmlns="http://www.w3.org/2000/svg" xmlns:xlink="http://www.w3.org/1999/xlink" x="0px" y="0px"
	 viewBox="0 0 256 300" style="enable-background:new 0 0 256 300;" xml:space="preserve">
<style type="text/css">
	.st0{fill:#FFFFFF;}
	.st1{fill:#242938;}
	.st2{fill:#231F20;}
	.st3{fill:#E24329;}
	.st4{fill:#FC6D26;}
	.st5{fill:#FCA326;}
</style>
<path class="st0" d="M27.5,162.6h201c15.2,0,27.5,12.3,27.5,27.5v82.4c0,15.2-12.3,27.5-27.5,27.5h-201C12.3,300,0,287.7,0,272.5
	v-82.4C0,174.9,12.3,162.6,27.5,162.6z"/>
<path class="st1" d="M60,0h136c33.1,0,60,26.9,60,60v136c0,33.1-26.9,60-60,60H60c-33.1,0-60-26.9-60-60V60C0,26.9,26.8,0,60,0z"/>
<g>
	<path class="st2" d="M74,279.6c0,1.5,0,2.6,0.1,3.3c0.1,1.2,0.5,2.2,1.1,3c0.7,0.8,1.7,1.2,3.1,1.2c1.3,0,2.3-0.3,3-1
		s1.1-1.6,1.1-3h-2.8c-0.2,0-0.5-0.1-0.6-0.3c-0.2-0.2-0.3-0.4-0.3-0.7v-3.8c0-0.3,0.1-0.5,0.3-0.7c0.2-0.2,0.4-0.3,0.6-0.3h8.1
		c0.2,0,0.5,0.1,0.6,0.3c0.2,0.2,0.3,0.4,0.3,0.7v4.6c0,2-0.5,3.7-1.4,5.2c-0.9,1.5-2.1,2.7-3.7,3.5c-1.6,0.8-3.3,1.2-5.3,1.2
		c-2.1,0-3.9-0.4-5.4-1.3c-1.5-0.9-2.7-2.1-3.6-3.5c-0.8-1.5-1.3-3.1-1.4-4.9c0-1.2-0.1-2.1-0.1-2.8c0-0.9,0-2.1,0.1-3.6
		c0.1-1.8,0.5-3.4,1.4-4.9c0.8-1.5,2-2.7,3.6-3.5c1.5-0.9,3.3-1.3,5.4-1.3c2,0,3.7,0.4,5.2,1.2s2.7,1.8,3.6,3
		c0.9,1.2,1.3,2.4,1.4,3.5c0,0.2,0,0.4-0.2,0.6c-0.2,0.2-0.3,0.2-0.5,0.2h-4.4c-0.3,0-0.5-0.1-0.7-0.2c-0.2-0.2-0.4-0.4-0.6-0.7
		c-0.4-0.5-0.9-0.9-1.4-1.3c-0.5-0.3-1.3-0.5-2.3-0.5c-2.5,0-3.9,1.4-4.2,4.2C74.1,277.4,74,278.3,74,279.6z"/>
	<path class="st2" d="M92.7,292.2c-0.2-0.2-0.3-0.4-0.3-0.7v-23.3c0-0.3,0.1-0.5,0.3-0.7c0.2-0.2,0.4-0.3,0.6-0.3h4.4
		c0.2,0,0.5,0.1,0.6,0.3c0.2,0.2,0.3,0.4,0.3,0.7v23.3c0,0.3-0.1,0.5-0.3,0.7c-0.2,0.2-0.4,0.3-0.6,0.3h-4.4
		C93.1,292.5,92.9,292.4,92.7,292.2z"/>
	<path class="st2" d="M121,267.6c0.2,0.2,0.3,0.4,0.3,0.7v3.8c0,0.3-0.1,0.5-0.3,0.7c-0.2,0.2-0.4,0.3-0.6,0.3h-5.9v18.5
		c0,0.3-0.1,0.5-0.3,0.7c-0.2,0.2-0.4,0.3-0.6,0.3h-4.4c-0.2,0-0.5-0.1-0.6-0.3c-0.2-0.2-0.3-0.4-0.3-0.7V273h-5.9
		c-0.2,0-0.5-0.1-0.6-0.3c-0.2-0.2-0.3-0.4-0.3-0.7v-3.8c0-0.3,0.1-0.5,0.3-0.7c0.2-0.2,0.4-0.3,0.6-0.3h17.9
		C120.6,267.3,120.8,267.4,121,267.6z"/>
	<path class="st2" d="M141.2,287c0.2,0.2,0.3,0.4,0.3,0.7v3.8c0,0.3-0.1,0.5-0.3,0.7c-0.2,0.2-0.4,0.3-0.6,0.3h-15.4
		c-0.2,0-0.5-0.1-0.6-0.3c-0.2-0.2-0.3-0.4-0.3-0.7v-23.3c0-0.3,0.1-0.5,0.3-0.7c0.2-0.2,0.4-0.3,0.6-0.3h4.4c0.2,0,0.5,0.1,0.6,0.3
		c0.2,0.2,0.3,0.4,0.3,0.7v18.5h10.1C140.8,286.7,141,286.8,141.2,287z"/>
	<path class="st2" d="M165.4,291.1c0.1,0.2,0.1,0.4,0.1,0.5c0,0.2-0.1,0.4-0.2,0.6c-0.1,0.2-0.3,0.2-0.5,0.2h-4.2
		c-0.4,0-0.7-0.1-0.9-0.3c-0.2-0.2-0.3-0.4-0.4-0.6l-0.9-3h-8.9l-0.9,3c-0.1,0.2-0.2,0.5-0.4,0.6c-0.2,0.2-0.5,0.3-0.9,0.3h-4.2
		c-0.2,0-0.4-0.1-0.5-0.2c-0.1-0.2-0.2-0.3-0.2-0.6c0-0.1,0-0.3,0.1-0.5l7.3-22.7c0.1-0.3,0.3-0.6,0.5-0.8c0.2-0.2,0.6-0.3,1-0.3
		h5.4c0.4,0,0.7,0.1,1,0.3c0.2,0.2,0.4,0.5,0.5,0.8L165.4,291.1z M156.6,283l-2.7-8.6l-2.7,8.6H156.6z"/>
	<path class="st2" d="M168.5,292.2c-0.2-0.2-0.3-0.4-0.3-0.7v-23.3c0-0.3,0.1-0.5,0.3-0.7c0.2-0.2,0.4-0.3,0.6-0.3h10.7
		c1.9,0,3.4,0.4,4.6,1.1c1.2,0.7,2,1.6,2.5,2.8c0.5,1.1,0.8,2.3,0.8,3.7c0,1.2-0.2,2.2-0.6,2.9c-0.4,0.7-0.8,1.3-1.3,1.7
		c0.8,0.6,1.4,1.4,1.8,2.2c0.4,0.9,0.5,1.9,0.5,3.1c0,2.2-0.6,4.1-1.9,5.6c-1.2,1.5-3.2,2.2-5.8,2.2h-11.4
		C168.8,292.5,168.6,292.4,168.5,292.2z M174.4,272.8v4.1h5.2c0.7,0,1.2-0.2,1.5-0.5c0.3-0.4,0.5-0.9,0.5-1.5c0-0.6-0.2-1.2-0.5-1.5
		s-0.8-0.5-1.5-0.5H174.4z M179.8,286.9c0.7,0,1.2-0.2,1.6-0.6c0.4-0.4,0.6-0.9,0.6-1.6c0-0.6-0.2-1.2-0.6-1.6
		c-0.4-0.4-0.9-0.6-1.6-0.6h-5.5v4.4H179.8z"/>
</g>
<path class="st3" d="M128,220l37.6-113.2H90.4L128,220L128,220z"/>
<path class="st4" d="M128,220L90.4,106.8H37.8L128,220L128,220z"/>
<path class="st5" d="M37.8,106.8l-11.4,34.4c-1,3.1,0.1,6.6,2.8,8.5L128,220L37.8,106.8L37.8,106.8z"/>
<path class="st3" d="M37.8,106.8h52.6L67.8,38.6c-1.2-3.5-6.2-3.5-7.4,0L37.8,106.8L37.8,106.8z"/>
<path class="st4" d="M128,220l37.6-113.2h52.6L128,220L128,220z"/>
<path class="st5" d="M218.2,106.8l11.4,34.4c1,3.1-0.1,6.6-2.8,8.5L128,220L218.2,106.8L218.2,106.8z"/>
<path class="st3" d="M218.2,106.8h-52.6l22.6-68.2c1.2-3.5,6.2-3.5,7.4,0L218.2,106.8L218.2,106.8z"/>
</svg>
