<?xml version="1.0" encoding="utf-8"?>
<!-- Generator: Adobe Illustrator 24.3.0, SVG Export Plug-In . SVG Version: 6.00 Build 0)  -->
<svg version="1.1" id="Layer_1" xmlns="http://www.w3.org/2000/svg" xmlns:xlink="http://www.w3.org/1999/xlink" x="0px" y="0px"
	 viewBox="0 0 256 300" style="enable-background:new 0 0 256 300;" xml:space="preserve">
<style type="text/css">
	.st0{fill:#FFFFFF;}
	.st1{fill:#231F20;}
	.st2{fill:#242938;}
</style>
<path class="st0" d="M27.5,162.6h201c15.2,0,27.5,12.3,27.5,27.5v82.4c0,15.2-12.3,27.5-27.5,27.5h-201C12.3,300,0,287.7,0,272.5
	v-82.4C0,174.9,12.3,162.6,27.5,162.6z"/>
<g>
	<path class="st1" d="M67.6,279.6c0,1.5,0,2.6,0.1,3.3c0.1,1.2,0.5,2.2,1.1,3c0.7,0.8,1.7,1.2,3.1,1.2c1.3,0,2.3-0.3,3-1
		s1.1-1.6,1.1-3h-2.8c-0.2,0-0.5-0.1-0.6-0.3c-0.2-0.2-0.3-0.4-0.3-0.7v-3.8c0-0.3,0.1-0.5,0.3-0.7c0.2-0.2,0.4-0.3,0.6-0.3h8.1
		c0.2,0,0.5,0.1,0.6,0.3c0.2,0.2,0.3,0.4,0.3,0.7v4.6c0,2-0.5,3.7-1.4,5.2c-0.9,1.5-2.1,2.7-3.7,3.5c-1.6,0.8-3.3,1.2-5.3,1.2
		c-2.1,0-3.9-0.4-5.4-1.3c-1.5-0.9-2.7-2.1-3.6-3.5c-0.8-1.5-1.3-3.1-1.4-4.9c0-1.2-0.1-2.1-0.1-2.8c0-0.9,0-2.1,0.1-3.6
		c0.1-1.8,0.5-3.4,1.4-4.9c0.8-1.5,2-2.7,3.6-3.5c1.5-0.9,3.3-1.3,5.4-1.3c2,0,3.7,0.4,5.2,1.2s2.7,1.8,3.6,3
		c0.9,1.2,1.3,2.4,1.4,3.5c0,0.2,0,0.4-0.2,0.6c-0.2,0.2-0.3,0.2-0.5,0.2h-4.4c-0.3,0-0.5-0.1-0.7-0.2c-0.2-0.2-0.4-0.4-0.6-0.7
		c-0.4-0.5-0.9-0.9-1.4-1.3c-0.5-0.3-1.3-0.5-2.3-0.5c-2.5,0-3.9,1.4-4.2,4.2C67.6,277.4,67.6,278.3,67.6,279.6z"/>
	<path class="st1" d="M102.6,269.3c1.6,1.4,2.5,3.4,2.5,6.2c0,3.5-1.3,5.9-4,7.2l4.1,8.6c0.1,0.1,0.1,0.3,0.1,0.4
		c0,0.2-0.1,0.4-0.2,0.6c-0.1,0.2-0.3,0.2-0.5,0.2h-4.5c-0.4,0-0.7-0.1-0.9-0.3c-0.2-0.2-0.4-0.4-0.5-0.7l-3.7-7.7H92v7.7
		c0,0.3-0.1,0.5-0.3,0.7c-0.2,0.2-0.4,0.3-0.6,0.3h-4.4c-0.2,0-0.5-0.1-0.6-0.3c-0.2-0.2-0.3-0.4-0.3-0.7v-23.3
		c0-0.3,0.1-0.5,0.3-0.7c0.2-0.2,0.4-0.3,0.6-0.3h9C98.7,267.3,101,268,102.6,269.3z M95.7,278.2c2.2,0,3.2-0.9,3.2-2.7
		c0-1.8-1.1-2.7-3.2-2.7H92v5.3H95.7z"/>
	<path class="st1" d="M130,291.1c0.1,0.2,0.1,0.4,0.1,0.5c0,0.2-0.1,0.4-0.2,0.6c-0.1,0.2-0.3,0.2-0.5,0.2h-4.2
		c-0.4,0-0.7-0.1-0.9-0.3c-0.2-0.2-0.3-0.4-0.4-0.6l-0.9-3h-8.9l-0.9,3c-0.1,0.2-0.2,0.5-0.4,0.6c-0.2,0.2-0.5,0.3-0.9,0.3h-4.2
		c-0.2,0-0.4-0.1-0.5-0.2c-0.1-0.2-0.2-0.3-0.2-0.6c0-0.1,0-0.3,0.1-0.5l7.3-22.7c0.1-0.3,0.3-0.6,0.5-0.8c0.2-0.2,0.6-0.3,1-0.3
		h5.4c0.4,0,0.7,0.1,1,0.3c0.2,0.2,0.4,0.5,0.5,0.8L130,291.1z M121.2,283l-2.7-8.6l-2.7,8.6H121.2z"/>
	<path class="st1" d="M153.1,279.9c0,0.4,0,1.2-0.1,2.5c-0.1,2-0.5,3.7-1.4,5.2c-0.9,1.5-2.1,2.7-3.6,3.5c-1.5,0.9-3.3,1.3-5.3,1.3
		h-9c-0.2,0-0.5-0.1-0.6-0.3c-0.2-0.2-0.3-0.4-0.3-0.7v-23.3c0-0.3,0.1-0.5,0.3-0.7c0.2-0.2,0.4-0.3,0.6-0.3h8.8
		c2,0,3.8,0.4,5.4,1.3c1.6,0.9,2.8,2,3.7,3.6c0.9,1.5,1.4,3.3,1.4,5.2C153.1,278.7,153.1,279.5,153.1,279.9z M139,273v13.7h3.6
		c2.8,0,4.2-1.4,4.4-4.1c0-1.4,0.1-2.3,0.1-2.7c0-0.5,0-1.4-0.1-2.7c-0.1-1.4-0.5-2.4-1.2-3.1c-0.8-0.7-1.9-1-3.3-1H139z"/>
	<path class="st1" d="M173.8,287c0.2,0.2,0.3,0.4,0.3,0.7v3.8c0,0.3-0.1,0.5-0.3,0.7c-0.2,0.2-0.4,0.3-0.6,0.3h-15.4
		c-0.2,0-0.5-0.1-0.6-0.3c-0.2-0.2-0.3-0.4-0.3-0.7v-23.3c0-0.3,0.1-0.5,0.3-0.7c0.2-0.2,0.4-0.3,0.6-0.3h4.4c0.2,0,0.5,0.1,0.6,0.3
		c0.2,0.2,0.3,0.4,0.3,0.7v18.5h10.1C173.4,286.7,173.6,286.8,173.8,287z"/>
	<path class="st1" d="M183.1,286.7h10.5c0.2,0,0.5,0.1,0.6,0.3c0.2,0.2,0.3,0.4,0.3,0.7v3.8c0,0.3-0.1,0.5-0.3,0.7
		c-0.2,0.2-0.4,0.3-0.6,0.3h-15.8c-0.2,0-0.5-0.1-0.6-0.3c-0.2-0.2-0.3-0.4-0.3-0.7v-23.3c0-0.3,0.1-0.5,0.3-0.7
		c0.2-0.2,0.4-0.3,0.6-0.3h15.5c0.2,0,0.5,0.1,0.6,0.3c0.2,0.2,0.3,0.4,0.3,0.7v3.8c0,0.3-0.1,0.5-0.3,0.7s-0.4,0.3-0.6,0.3h-10.2
		v3.9h9.5c0.2,0,0.5,0.1,0.6,0.3c0.2,0.2,0.3,0.4,0.3,0.7v3.8c0,0.3-0.1,0.5-0.3,0.7c-0.2,0.2-0.4,0.3-0.6,0.3h-9.5V286.7z"/>
</g>
<path class="st2" d="M60,0h136c33.1,0,60,26.9,60,60v136c0,33.1-26.9,60-60,60H60c-33.1,0-60-26.9-60-60V60C0,26.9,26.9,0,60,0z"/>
<path class="st0" d="M212.7,66.8c-5.5-5.5-13-8.7-20.8-8.8s-15.4,2.8-21.1,8.1c-0.3,0.3-0.5,0.6-0.7,0.9c-0.2,0.4-0.2,0.7-0.2,1.1
	c0,0.4,0.1,0.8,0.2,1.1s0.4,0.7,0.6,1l3.8,3.8c0.5,0.5,1.1,0.8,1.8,0.8c0.7,0,1.4-0.2,1.9-0.6c3.5-2.6,7.9-3.8,12.2-3.4
	c4.3,0.5,8.4,2.6,11.2,5.9c2.9,3.3,4.4,7.6,4.2,11.9c-0.2,4.4-2,8.5-5.1,11.6c-23.9,23.9-55.9-43.1-128.3-8.6
	c-1.2,0.6-2.3,1.4-3.2,2.4c-0.9,1-1.6,2.2-2,3.5c-0.4,1.3-0.6,2.7-0.4,4c0.1,1.4,0.6,2.7,1.2,3.8L80.6,127c1.3,2.2,3.4,3.9,5.9,4.6
	c2.5,0.7,5.1,0.4,7.4-0.9l0.3-0.2l-0.2,0.2l5.5-3.1c6.1-3.8,11.9-8.1,17.4-12.9c0.5-0.5,1.2-0.8,1.9-0.8c0.7,0,1.4,0.2,2,0.7
	c0.3,0.3,0.6,0.6,0.8,1c0.2,0.4,0.3,0.8,0.3,1.2c0,0.4-0.1,0.8-0.2,1.2c-0.2,0.4-0.4,0.7-0.7,1c-5.7,5.1-11.8,9.7-18.3,13.8h-0.2
	l-5.5,3.1c-3.6,2-7.9,2.5-11.8,1.4c-4-1.1-7.4-3.7-9.4-7.3l-11.8-20.3c-22.6,16-36.2,46.7-28.9,85.5c0.1,0.7,0.5,1.3,1,1.7
	c0.5,0.4,1.2,0.7,1.8,0.7h13.4c0.7,0,1.4-0.3,1.9-0.7c0.5-0.5,0.9-1.1,1-1.8c0.6-4.7,2.9-9.1,6.5-12.2c3.6-3.2,8.2-4.9,13-4.9
	c4.8,0,9.4,1.7,13,4.9c3.6,3.2,5.9,7.5,6.5,12.2c0.1,0.7,0.4,1.3,0.9,1.8c0.5,0.5,1.2,0.7,1.9,0.7h13c0.7,0,1.4-0.3,1.9-0.7
	c0.5-0.5,0.9-1.1,1-1.8c0.6-4.7,2.9-9.1,6.5-12.2c3.6-3.2,8.2-4.9,13-4.9c4.8,0,9.4,1.7,13,4.9c3.6,3.2,5.9,7.5,6.5,12.2
	c0.1,0.7,0.4,1.4,1,1.8c0.6,0.5,1.3,0.7,2,0.7h12.9c0.8,0,1.5-0.3,2-0.8c0.5-0.5,0.8-1.2,0.9-2c0.3-18.2,5.2-39,19.2-49.5
	C236.6,109,223.8,78,212.7,66.8z M163.4,121.4l-9.2-4.6c0-1,0.2-2,0.7-2.8c0.5-0.9,1.2-1.6,2-2.1c0.8-0.5,1.8-0.8,2.8-0.9
	c1,0,2,0.2,2.9,0.6c0.9,0.4,1.6,1.1,2.2,1.9s0.9,1.8,1,2.8c0.1,1-0.1,2-0.5,2.9C164.8,120.1,164.2,120.9,163.4,121.4L163.4,121.4z"
	/>
</svg>
