<?xml version="1.0" encoding="utf-8"?>
<!-- Generator: Adobe Illustrator 24.3.0, SVG Export Plug-In . SVG Version: 6.00 Build 0)  -->
<svg version="1.1" id="Layer_1" xmlns="http://www.w3.org/2000/svg" xmlns:xlink="http://www.w3.org/1999/xlink" x="0px" y="0px"
	 viewBox="0 0 256 300" style="enable-background:new 0 0 256 300;" xml:space="preserve">
<style type="text/css">
	.st0{fill:#FFFFFF;}
	.st1{fill:#0D1117;}
	.st2{fill:#E14E1D;}
	.st3{fill:#EBEBEB;}
</style>
<path class="st0" d="M27.5,162.6h201c15.2,0,27.5,12.3,27.5,27.5v82.4c0,15.2-12.3,27.5-27.5,27.5h-201C12.3,300,0,287.7,0,272.5
	v-82.4C0,174.9,12.3,162.6,27.5,162.6z"/>
<g>
	<path class="st1" d="M88.6,267.7c0.2,0.2,0.2,0.4,0.2,0.7v23.1c0,0.3-0.1,0.5-0.2,0.7c-0.2,0.2-0.4,0.3-0.6,0.3h-4
		c-0.2,0-0.4-0.1-0.6-0.3c-0.2-0.2-0.2-0.4-0.2-0.7v-8.8h-6.9v8.8c0,0.3-0.1,0.5-0.2,0.7c-0.2,0.2-0.4,0.3-0.6,0.3h-4.1
		c-0.2,0-0.4-0.1-0.6-0.3c-0.2-0.2-0.2-0.4-0.2-0.7v-23.1c0-0.3,0.1-0.5,0.2-0.7c0.2-0.2,0.4-0.3,0.6-0.3h4.1c0.2,0,0.4,0.1,0.6,0.3
		c0.2,0.2,0.2,0.4,0.2,0.7v8.6h6.9v-8.6c0-0.3,0.1-0.5,0.2-0.7c0.2-0.2,0.4-0.3,0.6-0.3h4.1C88.3,267.4,88.5,267.5,88.6,267.7z"/>
	<path class="st1" d="M112.2,267.7c0.2,0.2,0.2,0.4,0.2,0.7v3.8c0,0.3-0.1,0.5-0.2,0.7c-0.2,0.2-0.4,0.3-0.6,0.3h-5.5v18.4
		c0,0.3-0.1,0.5-0.2,0.7c-0.2,0.2-0.4,0.3-0.6,0.3h-4.1c-0.2,0-0.4-0.1-0.6-0.3c-0.2-0.2-0.2-0.4-0.2-0.7v-18.4h-5.5
		c-0.2,0-0.4-0.1-0.6-0.3c-0.2-0.2-0.2-0.4-0.2-0.7v-3.8c0-0.3,0.1-0.5,0.2-0.7c0.2-0.2,0.4-0.3,0.6-0.3h16.7
		C111.8,267.4,112,267.5,112.2,267.7z"/>
	<path class="st1" d="M123.3,279.7v11.8c0,0.3-0.1,0.5-0.2,0.7c-0.2,0.2-0.4,0.3-0.6,0.3h-4.1c-0.2,0-0.4-0.1-0.6-0.3
		c-0.2-0.2-0.2-0.4-0.2-0.7v-23.1c0-0.3,0.1-0.5,0.2-0.7c0.2-0.2,0.4-0.3,0.6-0.3h3.6c0.6,0,1,0.3,1.3,1l5,9.9l5-9.9
		c0.3-0.6,0.8-1,1.3-1h3.6c0.2,0,0.4,0.1,0.6,0.3c0.2,0.2,0.2,0.4,0.2,0.7v23.1c0,0.3-0.1,0.5-0.2,0.7c-0.2,0.2-0.4,0.3-0.6,0.3
		h-4.1c-0.2,0-0.4-0.1-0.6-0.3c-0.2-0.2-0.2-0.4-0.2-0.7v-11.8l-2.9,5.9c-0.1,0.3-0.3,0.5-0.5,0.6c-0.2,0.2-0.4,0.3-0.7,0.3h-2
		c-0.3,0-0.5-0.1-0.7-0.3s-0.3-0.4-0.5-0.6L123.3,279.7z"/>
	<path class="st1" d="M161.7,287c0.2,0.2,0.2,0.4,0.2,0.7v3.8c0,0.3-0.1,0.5-0.2,0.7c-0.2,0.2-0.4,0.3-0.6,0.3h-14.4
		c-0.2,0-0.4-0.1-0.6-0.3c-0.2-0.2-0.2-0.4-0.2-0.7v-23.1c0-0.3,0.1-0.5,0.2-0.7c0.2-0.2,0.4-0.3,0.6-0.3h4.1c0.2,0,0.4,0.1,0.6,0.3
		c0.2,0.2,0.2,0.4,0.2,0.7v18.4h9.5C161.4,286.7,161.6,286.8,161.7,287z"/>
	<path class="st1" d="M177.3,286.3c0.6-0.5,0.9-1.3,0.9-2.3c0-0.8-0.3-1.5-0.8-2c-0.6-0.5-1.3-0.8-2.2-0.8c-0.3,0-0.6,0-0.9,0.1
		s-0.6,0.2-0.9,0.4c-0.4,0.2-0.6,0.3-0.8,0.3h-4.8c-0.2,0-0.5-0.1-0.6-0.3c-0.2-0.2-0.2-0.4-0.2-0.7l0.9-12.8c0-0.3,0.1-0.5,0.3-0.7
		s0.3-0.3,0.6-0.3h13.3c0.2,0,0.4,0.1,0.6,0.3s0.2,0.4,0.2,0.7v3.8c0,0.3-0.1,0.5-0.2,0.7c-0.2,0.2-0.4,0.3-0.6,0.3h-9l-0.2,3.2
		c0.9-0.5,1.8-0.8,2.9-0.8c1.6,0,3.1,0.3,4.3,1s2.3,1.6,3,2.9s1.1,2.8,1.1,4.6c0,1.9-0.4,3.5-1.2,4.8s-1.9,2.3-3.2,3
		c-1.4,0.7-2.9,1-4.6,1c-1.8,0-3.4-0.4-4.7-1.1s-2.4-1.6-3.1-2.8c-0.7-1.2-1.1-2.4-1.1-3.7c0-0.2,0.1-0.4,0.2-0.6s0.3-0.2,0.5-0.2
		h3.9c0.5,0,0.8,0.2,1.1,0.6c0.4,0.6,0.9,1.2,1.3,1.5c0.4,0.4,1.1,0.6,1.9,0.6C175.9,287.1,176.7,286.8,177.3,286.3z"/>
</g>
<path class="st2" d="M60,0h136c33.1,0,60,26.9,60,60v136c0,33.1-26.9,60-60,60H60c-33.1,0-60-26.9-60-60V60C0,26.8,26.8,0,60,0z"/>
<path class="st0" d="M48,38l8.6,96.6h110.7l-3.7,41.4l-35.6,9.6L92.4,176L90,149.4H57.9l4.6,51.3l65.4,18.2l65.5-18.2l8.8-98.1H85.8
	l-2.9-32.7H205h0.1L208,38H48z"/>
<path class="st3" d="M128,38H48l8.6,96.6H128v-31.9H85.8L82.9,70H128V38z"/>
<path class="st3" d="M128,185.6L128,185.6L92.4,176L90,149.4H57.9l4.6,51.3l65.4,18.2l0,0L128,185.6L128,185.6z"/>
</svg>
