<?xml version="1.0" encoding="utf-8"?>
<!-- Generator: Adobe Illustrator 24.3.0, SVG Export Plug-In . SVG Version: 6.00 Build 0)  -->
<svg version="1.1" id="Layer_1" xmlns="http://www.w3.org/2000/svg" xmlns:xlink="http://www.w3.org/1999/xlink" x="0px" y="0px"
	 viewBox="0 0 256 300" style="enable-background:new 0 0 256 300;" xml:space="preserve">
<style type="text/css">
	.st0{display:none;fill:#0D1117;}
	.st1{fill:#FFFFFF;}
	.st2{fill:#0D1117;}
	.st3{fill:#330000;}
	.st4{fill:#FF9A00;}
	.st5{fill:#242938;}
	.st6{fill-rule:evenodd;clip-rule:evenodd;fill:#242938;}
	.st7{fill-rule:evenodd;clip-rule:evenodd;fill:#FFFFFF;}
	.st8{fill-rule:evenodd;clip-rule:evenodd;fill:#47B353;}
	.st9{fill:#ECEFF1;}
	.st10{fill:#263238;}
	.st11{fill:#212121;}
	.st12{fill:#FFC107;}
	.st13{fill:#634703;}
	.st14{fill:#455A64;}
	.st15{fill:#F03C2E;}
	.st16{clip-path:url(#SVGID_2_);}
	.st17{fill:#0277BD;}
	.st18{fill:#EBEBEB;}
	.st19{fill:#E14E1D;}
	.st20{clip-path:url(#SVGID_4_);}
	.st21{fill:#0ACF83;}
	.st22{fill:#A259FF;}
	.st23{fill:#F24E1E;}
	.st24{fill:#FF7262;}
	.st25{fill:#1ABCFE;}
	.st26{fill:#F0DB4F;}
	.st27{fill:#323330;}
	.st28{fill:#00D8FF;}
	.st29{fill:none;stroke:#00D8FF;stroke-width:8.911;}
	.st30{fill:#764ABC;}
	.st31{fill:#81CD39;}
	.st32{fill:#99424F;}
	.st33{fill:url(#SVGID_5_);}
	.st34{fill:url(#SVGID_6_);}
	.st35{fill:none;stroke:#FFFFFF;stroke-width:2;}
	.st36{fill:#2489CA;}
	.st37{fill:#1070B3;}
	.st38{fill:#0877B9;}
	.st39{fill:#3C99D4;}
	.st40{clip-path:url(#SVGID_8_);}
	.st41{fill:#023430;}
	.st42{fill:#10AA50;}
	.st43{fill:#B8C4C2;}
	.st44{fill:#12924F;}
	.st45{fill:#F58219;}
	.st46{fill:#2396ED;}
	.st47{fill:#007ACC;}
	.st48{fill:url(#SVGID_9_);}
	.st49{fill:url(#SVGID_10_);}
	.st50{fill:#001E36;}
	.st51{fill:#31A8FF;}
	.st52{fill:#E43717;}
	.st53{clip-path:url(#SVGID_12_);}
	.st54{fill-rule:evenodd;clip-rule:evenodd;fill:url(#SVGID_13_);}
	.st55{fill-rule:evenodd;clip-rule:evenodd;fill:url(#SVGID_14_);}
	.st56{fill-rule:evenodd;clip-rule:evenodd;fill:url(#SVGID_15_);}
	.st57{fill-rule:evenodd;clip-rule:evenodd;fill:url(#SVGID_16_);}
	.st58{fill-rule:evenodd;clip-rule:evenodd;fill:url(#SVGID_17_);}
	.st59{fill-rule:evenodd;clip-rule:evenodd;fill:url(#SVGID_18_);}
	.st60{fill-rule:evenodd;clip-rule:evenodd;fill:url(#SVGID_19_);}
	.st61{fill-rule:evenodd;clip-rule:evenodd;fill:url(#SVGID_20_);}
	.st62{fill-rule:evenodd;clip-rule:evenodd;fill:url(#SVGID_21_);}
	.st63{fill-rule:evenodd;clip-rule:evenodd;fill:url(#SVGID_22_);}
	.st64{fill-rule:evenodd;clip-rule:evenodd;fill:url(#SVGID_23_);}
	.st65{fill-rule:evenodd;clip-rule:evenodd;fill:url(#SVGID_24_);}
	.st66{fill-rule:evenodd;clip-rule:evenodd;fill:#9E1209;}
	.st67{fill-rule:evenodd;clip-rule:evenodd;fill:url(#SVGID_25_);}
	.st68{fill-rule:evenodd;clip-rule:evenodd;fill:url(#SVGID_26_);}
	.st69{fill-rule:evenodd;clip-rule:evenodd;fill:url(#SVGID_27_);}
	.st70{fill-rule:evenodd;clip-rule:evenodd;fill:url(#SVGID_28_);}
	.st71{fill:#092E20;}
	.st72{fill-rule:evenodd;clip-rule:evenodd;fill:#FF9900;}
	.st73{fill:#E23237;}
	.st74{fill:#B52E31;}
	.st75{fill:#2F406A;}
	.st76{fill:#2379BD;}
	.st77{fill:#03AFEF;}
	.st78{fill:#953CAD;}
</style>
<g>
	<rect y="162.6" class="st1" width="256" height="137.4"/>
	<g>
		<path class="st2" d="M88.6,267.7c0.2,0.2,0.2,0.4,0.2,0.7v23.1c0,0.3-0.1,0.5-0.2,0.7c-0.2,0.2-0.4,0.3-0.6,0.3h-4
			c-0.2,0-0.4-0.1-0.6-0.3c-0.2-0.2-0.2-0.4-0.2-0.7v-8.8h-6.9v8.8c0,0.3-0.1,0.5-0.2,0.7c-0.2,0.2-0.4,0.3-0.6,0.3h-4.1
			c-0.2,0-0.4-0.1-0.6-0.3c-0.2-0.2-0.2-0.4-0.2-0.7v-23.1c0-0.3,0.1-0.5,0.2-0.7c0.2-0.2,0.4-0.3,0.6-0.3h4.1
			c0.2,0,0.4,0.1,0.6,0.3c0.2,0.2,0.2,0.4,0.2,0.7v8.6h6.9v-8.6c0-0.3,0.1-0.5,0.2-0.7c0.2-0.2,0.4-0.3,0.6-0.3h4.1
			C88.3,267.4,88.5,267.5,88.6,267.7z"/>
		<path class="st2" d="M112.2,267.7c0.2,0.2,0.2,0.4,0.2,0.7v3.8c0,0.3-0.1,0.5-0.2,0.7c-0.2,0.2-0.4,0.3-0.6,0.3h-5.5v18.4
			c0,0.3-0.1,0.5-0.2,0.7c-0.2,0.2-0.4,0.3-0.6,0.3h-4.1c-0.2,0-0.4-0.1-0.6-0.3c-0.2-0.2-0.2-0.4-0.2-0.7v-18.4h-5.5
			c-0.2,0-0.4-0.1-0.6-0.3c-0.2-0.2-0.2-0.4-0.2-0.7v-3.8c0-0.3,0.1-0.5,0.2-0.7c0.2-0.2,0.4-0.3,0.6-0.3h16.7
			C111.8,267.4,112,267.5,112.2,267.7z"/>
		<path class="st2" d="M123.3,279.7v11.8c0,0.3-0.1,0.5-0.2,0.7c-0.2,0.2-0.4,0.3-0.6,0.3h-4.1c-0.2,0-0.4-0.1-0.6-0.3
			c-0.2-0.2-0.2-0.4-0.2-0.7v-23.1c0-0.3,0.1-0.5,0.2-0.7c0.2-0.2,0.4-0.3,0.6-0.3h3.6c0.6,0,1,0.3,1.3,1l5,9.9l5-9.9
			c0.3-0.6,0.8-1,1.3-1h3.6c0.2,0,0.4,0.1,0.6,0.3c0.2,0.2,0.2,0.4,0.2,0.7v23.1c0,0.3-0.1,0.5-0.2,0.7c-0.2,0.2-0.4,0.3-0.6,0.3
			h-4.1c-0.2,0-0.4-0.1-0.6-0.3c-0.2-0.2-0.2-0.4-0.2-0.7v-11.8l-2.9,5.9c-0.1,0.3-0.3,0.5-0.5,0.6c-0.2,0.2-0.4,0.3-0.7,0.3h-2
			c-0.3,0-0.5-0.1-0.7-0.3s-0.3-0.4-0.5-0.6L123.3,279.7z"/>
		<path class="st2" d="M161.7,287c0.2,0.2,0.2,0.4,0.2,0.7v3.8c0,0.3-0.1,0.5-0.2,0.7c-0.2,0.2-0.4,0.3-0.6,0.3h-14.4
			c-0.2,0-0.4-0.1-0.6-0.3c-0.2-0.2-0.2-0.4-0.2-0.7v-23.1c0-0.3,0.1-0.5,0.2-0.7c0.2-0.2,0.4-0.3,0.6-0.3h4.1
			c0.2,0,0.4,0.1,0.6,0.3c0.2,0.2,0.2,0.4,0.2,0.7v18.4h9.5C161.4,286.7,161.6,286.8,161.7,287z"/>
		<path class="st2" d="M177.3,286.3c0.6-0.5,0.9-1.3,0.9-2.3c0-0.8-0.3-1.5-0.8-2c-0.6-0.5-1.3-0.8-2.2-0.8c-0.3,0-0.6,0-0.9,0.1
			s-0.6,0.2-0.9,0.4c-0.4,0.2-0.6,0.3-0.8,0.3h-4.8c-0.2,0-0.5-0.1-0.6-0.3c-0.2-0.2-0.2-0.4-0.2-0.7l0.9-12.8
			c0-0.3,0.1-0.5,0.3-0.7c0.2-0.2,0.3-0.3,0.6-0.3h13.3c0.2,0,0.4,0.1,0.6,0.3s0.2,0.4,0.2,0.7v3.8c0,0.3-0.1,0.5-0.2,0.7
			c-0.2,0.2-0.4,0.3-0.6,0.3h-9l-0.2,3.2c0.9-0.5,1.8-0.8,2.9-0.8c1.6,0,3.1,0.3,4.3,1s2.3,1.6,3,2.9s1.1,2.8,1.1,4.6
			c0,1.9-0.4,3.5-1.2,4.8c-0.8,1.3-1.9,2.3-3.2,3c-1.4,0.7-2.9,1-4.6,1c-1.8,0-3.4-0.4-4.7-1.1c-1.3-0.7-2.4-1.6-3.1-2.8
			c-0.7-1.2-1.1-2.4-1.1-3.7c0-0.2,0.1-0.4,0.2-0.6s0.3-0.2,0.5-0.2h3.9c0.5,0,0.8,0.2,1.1,0.6c0.4,0.6,0.9,1.2,1.3,1.5
			c0.4,0.4,1.1,0.6,1.9,0.6C175.9,287.1,176.7,286.8,177.3,286.3z"/>
	</g>
	<path class="st19" d="M60,0h136c33.1,0,60,26.9,60,60v136c0,33.1-26.9,60-60,60H60c-33.1,0-60-26.9-60-60V60C0,26.8,26.8,0,60,0z"
		/>
	<path class="st1" d="M48,38l8.6,96.6h110.7l-3.7,41.4l-35.6,9.6L92.4,176L90,149.4H57.9l4.6,51.3l65.4,18.2l65.5-18.2l8.8-98.1
		H85.8l-2.9-32.7H205h0.1L208,38H48z"/>
	<path class="st18" d="M128,38H48l8.6,96.6H128v-31.9H85.8L82.9,70H128V38z"/>
	<path class="st18" d="M128,185.6L128,185.6L92.4,176L90,149.4H57.9l4.6,51.3l65.4,18.2l0,0L128,185.6L128,185.6z"/>
</g>
</svg>
