<?xml version="1.0" encoding="utf-8"?>
<!-- Generator: Adobe Illustrator 24.3.0, SVG Export Plug-In . SVG Version: 6.00 Build 0)  -->
<svg version="1.1" id="Layer_1" xmlns="http://www.w3.org/2000/svg" xmlns:xlink="http://www.w3.org/1999/xlink" x="0px" y="0px"
	 viewBox="0 0 256 300" style="enable-background:new 0 0 256 300;" xml:space="preserve">
<style type="text/css">
	.st0{fill:#FFFFFF;}
	.st1{enable-background:new    ;}
	.st2{fill:#231F20;}
	.st3{fill:#242938;}
	.st4{fill:#59666C;}
	.st5{fill:#BCAE79;}
</style>
<path class="st0" d="M27.5,162.6h201c15.2,0,27.5,12.3,27.5,27.5v82.4c0,15.2-12.3,27.5-27.5,27.5h-201C12.3,300,0,287.7,0,272.5
	v-82.4C0,174.9,12.3,162.6,27.5,162.6z"/>
<g>
	<g class="st1">
		<path class="st2" d="M53.1,267.7c0.2,0.2,0.3,0.4,0.3,0.7v23.2c0,0.3-0.1,0.5-0.3,0.7c-0.2,0.2-0.4,0.3-0.6,0.3h-4.2
			c-0.2,0-0.4-0.1-0.6-0.3c-0.2-0.2-0.3-0.4-0.3-0.7v-8.8h-7.1v8.8c0,0.3-0.1,0.5-0.3,0.7s-0.4,0.3-0.6,0.3h-4.2
			c-0.2,0-0.4-0.1-0.6-0.3s-0.3-0.4-0.3-0.7v-23.2c0-0.3,0.1-0.5,0.3-0.7s0.4-0.3,0.6-0.3h4.2c0.2,0,0.4,0.1,0.6,0.3
			s0.3,0.4,0.3,0.7v8.6h7.1v-8.6c0-0.3,0.1-0.5,0.3-0.7c0.2-0.2,0.4-0.3,0.6-0.3h4.2C52.7,267.4,52.9,267.5,53.1,267.7z"/>
		<path class="st2" d="M59,292.3c-0.2-0.2-0.3-0.4-0.3-0.7v-23.2c0-0.3,0.1-0.5,0.3-0.7s0.4-0.3,0.6-0.3h4.2c0.2,0,0.4,0.1,0.6,0.3
			s0.3,0.4,0.3,0.7v23.2c0,0.3-0.1,0.5-0.3,0.7s-0.4,0.3-0.6,0.3h-4.2C59.3,292.6,59.1,292.5,59,292.3z"/>
		<path class="st2" d="M70.3,292.3c-0.2-0.2-0.3-0.4-0.3-0.7v-23.2c0-0.3,0.1-0.5,0.3-0.7s0.4-0.3,0.6-0.3h10.2
			c1.8,0,3.3,0.4,4.4,1.1c1.1,0.7,1.9,1.6,2.4,2.7c0.5,1.1,0.7,2.3,0.7,3.6c0,1.2-0.2,2.2-0.6,2.9s-0.8,1.3-1.2,1.7
			c0.8,0.6,1.4,1.4,1.7,2.2c0.3,0.8,0.5,1.9,0.5,3.1c0,2.2-0.6,4.1-1.8,5.6c-1.2,1.5-3,2.2-5.6,2.2H70.9
			C70.6,292.6,70.4,292.5,70.3,292.3z M75.9,273v4.1h4.9c0.6,0,1.1-0.2,1.4-0.5s0.5-0.9,0.5-1.5s-0.2-1.1-0.5-1.5
			c-0.3-0.4-0.8-0.5-1.4-0.5H75.9z M81.1,287c0.6,0,1.1-0.2,1.5-0.6s0.6-0.9,0.6-1.6s-0.2-1.2-0.6-1.6c-0.4-0.4-0.9-0.6-1.5-0.6
			h-5.2v4.4H81.1z"/>
		<path class="st2" d="M99.5,286.8h10c0.2,0,0.4,0.1,0.6,0.3c0.2,0.2,0.3,0.4,0.3,0.7v3.8c0,0.3-0.1,0.5-0.3,0.7s-0.4,0.3-0.6,0.3
			H94.4c-0.2,0-0.4-0.1-0.6-0.3s-0.3-0.4-0.3-0.7v-23.2c0-0.3,0.1-0.5,0.3-0.7s0.4-0.3,0.6-0.3h14.8c0.2,0,0.4,0.1,0.6,0.3
			c0.2,0.2,0.3,0.4,0.3,0.7v3.8c0,0.3-0.1,0.5-0.3,0.7c-0.2,0.2-0.4,0.3-0.6,0.3h-9.8v3.9h9.1c0.2,0,0.4,0.1,0.6,0.3
			s0.3,0.4,0.3,0.7v3.8c0,0.3-0.1,0.5-0.3,0.7c-0.2,0.2-0.4,0.3-0.6,0.3h-9.1V286.8z"/>
		<path class="st2" d="M131,269.5c1.6,1.4,2.4,3.4,2.4,6.2c0,3.5-1.3,5.9-3.8,7.2l3.9,8.5c0.1,0.1,0.1,0.3,0.1,0.4
			c0,0.2-0.1,0.4-0.2,0.6c-0.1,0.2-0.3,0.2-0.5,0.2h-4.3c-0.4,0-0.7-0.1-0.9-0.3c-0.2-0.2-0.3-0.4-0.5-0.7l-3.5-7.7h-2.9v7.7
			c0,0.3-0.1,0.5-0.3,0.7s-0.4,0.3-0.6,0.3h-4.2c-0.2,0-0.4-0.1-0.6-0.3s-0.3-0.4-0.3-0.7v-23.2c0-0.3,0.1-0.5,0.3-0.7
			s0.4-0.3,0.6-0.3h8.6C127.3,267.4,129.5,268.1,131,269.5z M124.4,278.3c2.1,0,3.1-0.9,3.1-2.7c0-1.8-1-2.7-3.1-2.7h-3.6v5.3H124.4
			z"/>
		<path class="st2" d="M151.6,292.3c-0.2-0.2-0.4-0.4-0.5-0.6l-7.3-12.3v12.1c0,0.3-0.1,0.5-0.3,0.7c-0.2,0.2-0.4,0.3-0.6,0.3h-4.2
			c-0.2,0-0.4-0.1-0.6-0.3s-0.3-0.4-0.3-0.7v-23.2c0-0.3,0.1-0.5,0.3-0.7s0.4-0.3,0.6-0.3h3.3c0.3,0,0.6,0.1,0.8,0.3
			c0.2,0.2,0.4,0.4,0.5,0.6l7.3,12.3v-12.1c0-0.3,0.1-0.5,0.3-0.7c0.2-0.2,0.4-0.3,0.6-0.3h4.2c0.2,0,0.4,0.1,0.6,0.3
			c0.2,0.2,0.3,0.4,0.3,0.7v23.2c0,0.3-0.1,0.5-0.3,0.7c-0.2,0.2-0.4,0.3-0.6,0.3h-3.3C152.1,292.6,151.9,292.5,151.6,292.3z"/>
		<path class="st2" d="M179.9,291.2c0.1,0.2,0.1,0.4,0.1,0.5c0,0.2-0.1,0.4-0.2,0.6c-0.1,0.2-0.3,0.2-0.5,0.2h-4
			c-0.4,0-0.6-0.1-0.8-0.3c-0.2-0.2-0.3-0.4-0.4-0.6l-0.9-3h-8.5l-0.9,3c-0.1,0.2-0.2,0.4-0.4,0.6c-0.2,0.2-0.5,0.3-0.8,0.3h-4
			c-0.2,0-0.4-0.1-0.5-0.2c-0.1-0.2-0.2-0.3-0.2-0.6c0-0.1,0-0.3,0.1-0.5l6.9-22.6c0.1-0.3,0.3-0.6,0.5-0.8c0.2-0.2,0.5-0.3,0.9-0.3
			h5.1c0.4,0,0.7,0.1,0.9,0.3c0.2,0.2,0.4,0.5,0.5,0.8L179.9,291.2z M171.5,283.1l-2.6-8.6l-2.6,8.6H171.5z"/>
		<path class="st2" d="M200.5,267.7c0.2,0.2,0.3,0.4,0.3,0.7v3.8c0,0.3-0.1,0.5-0.3,0.7c-0.2,0.2-0.4,0.3-0.6,0.3h-5.6v18.4
			c0,0.3-0.1,0.5-0.3,0.7s-0.4,0.3-0.6,0.3h-4.2c-0.2,0-0.4-0.1-0.6-0.3c-0.2-0.2-0.3-0.4-0.3-0.7v-18.4h-5.6
			c-0.2,0-0.4-0.1-0.6-0.3c-0.2-0.2-0.3-0.4-0.3-0.7v-3.8c0-0.3,0.1-0.5,0.3-0.7c0.2-0.2,0.4-0.3,0.6-0.3h17.1
			C200.1,267.4,200.3,267.5,200.5,267.7z"/>
		<path class="st2" d="M210.4,286.8h10c0.2,0,0.4,0.1,0.6,0.3c0.2,0.2,0.3,0.4,0.3,0.7v3.8c0,0.3-0.1,0.5-0.3,0.7s-0.4,0.3-0.6,0.3
			h-15.1c-0.2,0-0.4-0.1-0.6-0.3s-0.3-0.4-0.3-0.7v-23.2c0-0.3,0.1-0.5,0.3-0.7s0.4-0.3,0.6-0.3h14.8c0.2,0,0.4,0.1,0.6,0.3
			c0.2,0.2,0.3,0.4,0.3,0.7v3.8c0,0.3-0.1,0.5-0.3,0.7c-0.2,0.2-0.4,0.3-0.6,0.3h-9.8v3.9h9.1c0.2,0,0.4,0.1,0.6,0.3
			s0.3,0.4,0.3,0.7v3.8c0,0.3-0.1,0.5-0.3,0.7c-0.2,0.2-0.4,0.3-0.6,0.3h-9.1V286.8z"/>
	</g>
</g>
<path class="st3" d="M60,0h136c33.1,0,60,26.9,60,60v136c0,33.1-26.9,60-60,60H60c-33.1,0-60-26.9-60-60V60C0,26.9,26.9,0,60,0z"/>
<path class="st4" d="M75.6,38l34.6,60l-34.6,60L41,98L75.6,38z"/>
<path class="st5" d="M144.9,38H75.6l34.6,60h69.3L144.9,38z"/>
<path class="st4" d="M179.5,218l-34.6-60l34.6-60l34.6,60L179.5,218z"/>
<path class="st5" d="M110.2,218h69.2l-34.6-60H75.6L110.2,218z"/>
</svg>
