<?xml version="1.0" encoding="utf-8"?>
<!-- Generator: Adobe Illustrator 24.3.0, SVG Export Plug-In . SVG Version: 6.00 Build 0)  -->
<svg version="1.1" id="Layer_1" xmlns="http://www.w3.org/2000/svg" xmlns:xlink="http://www.w3.org/1999/xlink" x="0px" y="0px"
	 viewBox="0 0 256 300" style="enable-background:new 0 0 256 300;" xml:space="preserve">
<style type="text/css">
	.st0{fill:#FFFFFF;}
	.st1{fill:#3A75DC;}
	.st2{fill:#231F20;}
</style>
<path class="st0" d="M27.5,162.6h201c15.2,0,27.5,12.3,27.5,27.5v82.4c0,15.2-12.3,27.5-27.5,27.5h-201C12.3,300,0,287.7,0,272.5
	v-82.4C0,174.9,12.3,162.6,27.5,162.6z"/>
<path class="st1" d="M60,0h136c33.1,0,60,26.9,60,60v136c0,33.1-26.9,60-60,60H60c-33.1,0-60-26.9-60-60V60C0,26.9,26.8,0,60,0z"/>
<g>
	<path class="st2" d="M84.1,292.2c-0.2-0.2-0.3-0.4-0.3-0.7v-23.3c0-0.3,0.1-0.5,0.3-0.7c0.2-0.2,0.4-0.3,0.6-0.3h4.4
		c0.2,0,0.5,0.1,0.6,0.3c0.2,0.2,0.3,0.4,0.3,0.7v23.3c0,0.3-0.1,0.5-0.3,0.7c-0.2,0.2-0.4,0.3-0.6,0.3h-4.4
		C84.5,292.5,84.3,292.4,84.1,292.2z"/>
	<path class="st2" d="M109.7,268.2c1.5,0.9,2.7,2,3.5,3.5s1.3,3.1,1.4,5c0,0.7,0.1,1.8,0.1,3.2c0,1.5,0,2.5-0.1,3.2
		c-0.1,1.8-0.5,3.5-1.4,5c-0.8,1.5-2,2.6-3.5,3.5s-3.4,1.3-5.5,1.3s-3.9-0.4-5.5-1.3c-1.5-0.9-2.7-2-3.5-3.5s-1.3-3.1-1.4-5
		c0-1.3-0.1-2.4-0.1-3.2c0-0.8,0-1.9,0.1-3.2c0.1-1.8,0.5-3.5,1.4-5c0.8-1.5,2-2.6,3.5-3.5s3.3-1.3,5.5-1.3
		C106.4,266.9,108.2,267.3,109.7,268.2z M107.3,273.8c-0.7-0.8-1.7-1.1-3-1.1s-2.3,0.4-3,1.1s-1.1,1.8-1.2,3c-0.1,0.8-0.1,1.8-0.1,3
		s0,2.2,0.1,3.1c0.1,1.3,0.5,2.3,1.2,3s1.7,1.1,3,1.1s2.3-0.4,3-1.1s1.1-1.8,1.2-3c0.1-0.9,0.1-1.9,0.1-3.1s0-2.2-0.1-3
		C108.4,275.6,108,274.6,107.3,273.8z"/>
	<path class="st2" d="M132.8,292.2c-0.2-0.2-0.4-0.4-0.5-0.6l-7.6-12.3v12.2c0,0.3-0.1,0.5-0.3,0.7c-0.2,0.2-0.4,0.3-0.6,0.3h-4.4
		c-0.2,0-0.5-0.1-0.6-0.3c-0.2-0.2-0.3-0.4-0.3-0.7v-23.3c0-0.3,0.1-0.5,0.3-0.7c0.2-0.2,0.4-0.3,0.6-0.3h3.5c0.3,0,0.6,0.1,0.9,0.3
		c0.2,0.2,0.4,0.4,0.5,0.6l7.6,12.3v-12.2c0-0.3,0.1-0.5,0.3-0.7s0.4-0.3,0.6-0.3h4.4c0.2,0,0.5,0.1,0.6,0.3
		c0.2,0.2,0.3,0.4,0.3,0.7v23.3c0,0.3-0.1,0.5-0.3,0.7s-0.4,0.3-0.6,0.3h-3.5C133.3,292.5,133,292.4,132.8,292.2z"/>
	<path class="st2" d="M142.9,292.2c-0.2-0.2-0.3-0.4-0.3-0.7v-23.3c0-0.3,0.1-0.5,0.3-0.7s0.4-0.3,0.6-0.3h4.4
		c0.2,0,0.5,0.1,0.6,0.3c0.2,0.2,0.3,0.4,0.3,0.7v23.3c0,0.3-0.1,0.5-0.3,0.7s-0.4,0.3-0.6,0.3h-4.4
		C143.3,292.5,143.1,292.4,142.9,292.2z"/>
	<path class="st2" d="M160,285.9c0.7,0.8,1.7,1.2,3.1,1.2c1.3,0,2.3-0.3,2.9-0.8c0.6-0.6,1-1.2,1.3-2c0.1-0.4,0.3-0.7,0.4-0.8
		c0.1-0.1,0.4-0.2,0.7-0.2h4.4c0.2,0,0.4,0.1,0.5,0.2s0.2,0.3,0.2,0.6c0,1.6-0.5,3.1-1.4,4.4c-0.9,1.4-2.2,2.4-3.7,3.2
		s-3.3,1.2-5.2,1.2c-2.1,0-3.9-0.4-5.4-1.3s-2.7-2.1-3.6-3.5c-0.8-1.5-1.3-3.1-1.4-4.9c0-1.2-0.1-2.1-0.1-2.8c0-0.9,0-2.1,0.1-3.6
		c0.1-1.8,0.5-3.4,1.4-4.9c0.8-1.5,2-2.7,3.6-3.5c1.5-0.9,3.3-1.3,5.4-1.3c1.9,0,3.6,0.4,5.2,1.2s2.8,1.9,3.7,3.2
		c0.9,1.4,1.4,2.8,1.4,4.4c0,0.2-0.1,0.4-0.2,0.6c-0.1,0.2-0.3,0.2-0.5,0.2h-4.4c-0.4,0-0.6-0.1-0.7-0.2c-0.1-0.1-0.3-0.4-0.4-0.8
		c-0.2-0.8-0.7-1.5-1.3-2c-0.6-0.6-1.6-0.8-2.9-0.8c-1.4,0-2.4,0.4-3.1,1.2c-0.7,0.8-1,1.8-1.1,3c0,0.8-0.1,1.8-0.1,3s0,2.2,0.1,3
		C158.9,284.1,159.3,285.2,160,285.9z"/>
</g>
<g>
	<path class="st0" d="M58.8,128c0-38.1,30.9-68.8,69.3-68.8c15.4,0,29.7,5,41.1,13.5c3-7.1,9.1-12.5,16.5-14.7
		C169.5,44.8,149,37.5,128,37.5c-50.3,0-91,40.5-91,90.4s40.8,90.4,91.2,90.4c50.2,0.1,90.9-40.6,91-90.7c0-10.1-1.7-20.1-4.9-29.7
		c-4.6,6.2-11.8,10-19.6,10.5c10.7,36.6-10.5,75-47.2,85.5c-6.3,1.8-12.8,2.7-19.3,2.7C89.9,196.9,59,166.2,58.8,128L58.8,128z"/>
	<path class="st0" d="M217.3,109.6c-0.8-3.9-1.9-7.7-3.2-11.5c-4.6,6.2-11.8,10-19.6,10.5c1.3,4.4,2.2,8.9,2.6,13.6
		C205.5,121.1,212.8,116.6,217.3,109.6L217.3,109.6z M128.1,167.6c22,0,39.9-17.8,39.9-39.6c-0.1-22-18-39.7-39.9-39.6l0,0
		c-22-0.1-39.8,17.7-39.9,39.6l0,0C88.4,150,106.2,167.6,128.1,167.6z M187.9,94c11,0,19.9-8.9,19.9-19.9s-8.9-19.9-19.9-19.9
		S168,63.2,168,74.1c0,0,0,0,0,0.1C168,85.2,176.9,94,187.9,94z"/>
</g>
</svg>
