<?xml version="1.0" encoding="utf-8"?>
<!-- Generator: Adobe Illustrator 24.3.0, SVG Export Plug-In . SVG Version: 6.00 Build 0)  -->
<svg version="1.1" id="Layer_1" xmlns="http://www.w3.org/2000/svg" xmlns:xlink="http://www.w3.org/1999/xlink" x="0px" y="0px"
	 viewBox="0 0 256 300" style="enable-background:new 0 0 256 300;" xml:space="preserve">
<style type="text/css">
	.st0{fill:#FFFFFF;}
	.st1{fill:#231F20;}
	.st2{fill:#242938;}
	.st3{fill:url(#SVGID_1_);}
	.st4{fill:url(#SVGID_2_);}
	.st5{fill:url(#SVGID_3_);}
	.st6{fill:url(#SVGID_4_);}
</style>
<path class="st0" d="M27.5,162.6h201c15.2,0,27.5,12.3,27.5,27.5v82.4c0,15.2-12.3,27.5-27.5,27.5h-201C12.3,300,0,287.7,0,272.5
	v-82.4C0,174.9,12.3,162.6,27.5,162.6z"/>
<g>
	<path class="st1" d="M55,292.2c-0.2-0.2-0.3-0.4-0.3-0.7v-23.3c0-0.3,0.1-0.5,0.3-0.7c0.2-0.2,0.4-0.3,0.6-0.3H60
		c0.2,0,0.5,0.1,0.6,0.3c0.2,0.2,0.3,0.4,0.3,0.7v23.3c0,0.3-0.1,0.5-0.3,0.7c-0.2,0.2-0.4,0.3-0.6,0.3h-4.4
		C55.4,292.5,55.2,292.4,55,292.2z"/>
	<path class="st1" d="M79.9,292.2c-0.2-0.2-0.4-0.4-0.5-0.6l-7.6-12.3v12.2c0,0.3-0.1,0.5-0.3,0.7c-0.2,0.2-0.4,0.3-0.6,0.3h-4.4
		c-0.2,0-0.5-0.1-0.6-0.3c-0.2-0.2-0.3-0.4-0.3-0.7v-23.3c0-0.3,0.1-0.5,0.3-0.7c0.2-0.2,0.4-0.3,0.6-0.3H70c0.3,0,0.6,0.1,0.9,0.3
		c0.2,0.2,0.4,0.4,0.5,0.6l7.6,12.3v-12.2c0-0.3,0.1-0.5,0.3-0.7c0.2-0.2,0.4-0.3,0.6-0.3h4.4c0.2,0,0.5,0.1,0.6,0.3
		c0.2,0.2,0.3,0.4,0.3,0.7v23.3c0,0.3-0.1,0.5-0.3,0.7c-0.2,0.2-0.4,0.3-0.6,0.3h-3.5C80.4,292.5,80.1,292.4,79.9,292.2z"/>
	<path class="st1" d="M107.5,267.6c0.2,0.2,0.3,0.4,0.3,0.7v3.8c0,0.3-0.1,0.5-0.3,0.7c-0.2,0.2-0.4,0.3-0.6,0.3H101v18.5
		c0,0.3-0.1,0.5-0.3,0.7c-0.2,0.2-0.4,0.3-0.6,0.3h-4.4c-0.2,0-0.5-0.1-0.6-0.3c-0.2-0.2-0.3-0.4-0.3-0.7V273H89
		c-0.2,0-0.5-0.1-0.6-0.3c-0.2-0.2-0.3-0.4-0.3-0.7v-3.8c0-0.3,0.1-0.5,0.3-0.7c0.2-0.2,0.4-0.3,0.6-0.3h17.9
		C107.1,267.3,107.3,267.4,107.5,267.6z"/>
	<path class="st1" d="M116.9,286.7h10.5c0.2,0,0.5,0.1,0.6,0.3c0.2,0.2,0.3,0.4,0.3,0.7v3.8c0,0.3-0.1,0.5-0.3,0.7
		c-0.2,0.2-0.4,0.3-0.6,0.3h-15.8c-0.2,0-0.5-0.1-0.6-0.3c-0.2-0.2-0.3-0.4-0.3-0.7v-23.3c0-0.3,0.1-0.5,0.3-0.7
		c0.2-0.2,0.4-0.3,0.6-0.3h15.5c0.2,0,0.5,0.1,0.6,0.3c0.2,0.2,0.3,0.4,0.3,0.7v3.8c0,0.3-0.1,0.5-0.3,0.7c-0.2,0.2-0.4,0.3-0.6,0.3
		h-10.2v3.9h9.5c0.2,0,0.5,0.1,0.6,0.3c0.2,0.2,0.3,0.4,0.3,0.7v3.8c0,0.3-0.1,0.5-0.3,0.7c-0.2,0.2-0.4,0.3-0.6,0.3h-9.5V286.7z"/>
	<path class="st1" d="M149.1,287c0.2,0.2,0.3,0.4,0.3,0.7v3.8c0,0.3-0.1,0.5-0.3,0.7c-0.2,0.2-0.4,0.3-0.6,0.3H133
		c-0.2,0-0.5-0.1-0.6-0.3c-0.2-0.2-0.3-0.4-0.3-0.7v-23.3c0-0.3,0.1-0.5,0.3-0.7c0.2-0.2,0.4-0.3,0.6-0.3h4.4c0.2,0,0.5,0.1,0.6,0.3
		c0.2,0.2,0.3,0.4,0.3,0.7v18.5h10.1C148.7,286.7,148.9,286.8,149.1,287z"/>
	<path class="st1" d="M169.1,287c0.2,0.2,0.3,0.4,0.3,0.7v3.8c0,0.3-0.1,0.5-0.3,0.7c-0.2,0.2-0.4,0.3-0.6,0.3h-15.4
		c-0.2,0-0.5-0.1-0.6-0.3c-0.2-0.2-0.3-0.4-0.3-0.7v-23.3c0-0.3,0.1-0.5,0.3-0.7c0.2-0.2,0.4-0.3,0.6-0.3h4.4c0.2,0,0.5,0.1,0.6,0.3
		c0.2,0.2,0.3,0.4,0.3,0.7v18.5h10.1C168.8,286.7,169,286.8,169.1,287z"/>
	<path class="st1" d="M172.5,292.2c-0.2-0.2-0.3-0.4-0.3-0.7v-23.3c0-0.3,0.1-0.5,0.3-0.7c0.2-0.2,0.4-0.3,0.6-0.3h4.4
		c0.2,0,0.5,0.1,0.6,0.3c0.2,0.2,0.3,0.4,0.3,0.7v23.3c0,0.3-0.1,0.5-0.3,0.7c-0.2,0.2-0.4,0.3-0.6,0.3h-4.4
		C172.9,292.5,172.7,292.4,172.5,292.2z"/>
	<path class="st1" d="M200.1,288.5c-0.9,1.4-2.1,2.5-3.6,3.2c-1.5,0.7-3.2,1.1-5,1.1c-1.9,0-3.6-0.3-5.1-1c-1.5-0.7-2.7-1.7-3.5-3
		c-0.9-1.3-1.3-2.8-1.3-4.5c0-0.2,0.1-0.4,0.2-0.6c0.1-0.2,0.3-0.2,0.5-0.2h4.3c0.4,0,0.7,0.1,0.8,0.2c0.1,0.1,0.3,0.4,0.4,0.8
		c0.3,0.8,0.7,1.5,1.3,1.9s1.4,0.6,2.4,0.6c1.2,0,2.2-0.3,2.8-1c0.6-0.7,1-1.7,1-3v-10h-11.4c-0.2,0-0.5-0.1-0.6-0.3
		c-0.2-0.2-0.3-0.4-0.3-0.7v-3.8c0-0.3,0.1-0.5,0.3-0.7c0.2-0.2,0.4-0.3,0.6-0.3h16.6c0.2,0,0.5,0.1,0.6,0.3
		c0.2,0.2,0.3,0.4,0.3,0.7v15C201.4,285.3,201,287.1,200.1,288.5z"/>
</g>
<path class="st2" d="M60,0h136c33.1,0,60,26.9,60,60v136c0,33.1-26.9,60-60,60H60c-33.1,0-60-26.9-60-60V60C0,26.9,26.9,0,60,0z"/>
<linearGradient id="SVGID_1_" gradientUnits="userSpaceOnUse" x1="30.2856" y1="159.4285" x2="123.143" y2="159.4285" gradientTransform="matrix(1 0 0 -1 0 302)">
	<stop  offset="0.258" style="stop-color:#F97A12"/>
	<stop  offset="0.459" style="stop-color:#B07B58"/>
	<stop  offset="0.724" style="stop-color:#577BAE"/>
	<stop  offset="0.91" style="stop-color:#1E7CE5"/>
	<stop  offset="1" style="stop-color:#087CFA"/>
</linearGradient>
<path class="st3" d="M78.6,184l-48.3-38.3l24-44.6l68.9,26.9L78.6,184z"/>
<linearGradient id="SVGID_2_" gradientUnits="userSpaceOnUse" x1="101.5872" y1="202.853" x2="254.8922" y2="118.025" gradientTransform="matrix(1 0 0 -1 0 302)">
	<stop  offset="0" style="stop-color:#F97A12"/>
	<stop  offset="7.200000e-02" style="stop-color:#CB7A3E"/>
	<stop  offset="0.154" style="stop-color:#9E7B6A"/>
	<stop  offset="0.242" style="stop-color:#757B91"/>
	<stop  offset="0.334" style="stop-color:#537BB1"/>
	<stop  offset="0.432" style="stop-color:#387CCC"/>
	<stop  offset="0.538" style="stop-color:#237CE0"/>
	<stop  offset="0.655" style="stop-color:#147CEF"/>
	<stop  offset="0.792" style="stop-color:#0B7CF7"/>
	<stop  offset="1" style="stop-color:#087CFA"/>
</linearGradient>
<path class="st4" d="M228,81.4l-3.7,115.7L147.4,228l-46.3-29.7l67.7-70.3l-29.7-64.9l26.6-32L228,81.4z"/>
<linearGradient id="SVGID_3_" gradientUnits="userSpaceOnUse" x1="208.6751" y1="151.3931" x2="165.9961" y2="278.9201" gradientTransform="matrix(1 0 0 -1 0 302)">
	<stop  offset="0" style="stop-color:#FE315D"/>
	<stop  offset="7.800000e-02" style="stop-color:#CB417E"/>
	<stop  offset="0.16" style="stop-color:#9E4E9B"/>
	<stop  offset="0.247" style="stop-color:#755BB4"/>
	<stop  offset="0.339" style="stop-color:#5365CA"/>
	<stop  offset="0.436" style="stop-color:#386DDB"/>
	<stop  offset="0.541" style="stop-color:#2374E9"/>
	<stop  offset="0.658" style="stop-color:#1478F3"/>
	<stop  offset="0.794" style="stop-color:#0B7BF8"/>
	<stop  offset="1" style="stop-color:#087CFA"/>
</linearGradient>
<path class="st5" d="M228,81.4l-60.9,72l-28-90.3l26.6-32L228,81.4z"/>
<linearGradient id="SVGID_4_" gradientUnits="userSpaceOnUse" x1="58.546" y1="226.8832" x2="186.555" y2="15.1492" gradientTransform="matrix(1 0 0 -1 0 302)">
	<stop  offset="0" style="stop-color:#FE315D"/>
	<stop  offset="4.000000e-02" style="stop-color:#F63462"/>
	<stop  offset="0.104" style="stop-color:#DF3A71"/>
	<stop  offset="0.167" style="stop-color:#C24383"/>
	<stop  offset="0.291" style="stop-color:#AD4A91"/>
	<stop  offset="0.55" style="stop-color:#755BB4"/>
	<stop  offset="0.917" style="stop-color:#1D76ED"/>
	<stop  offset="1" style="stop-color:#087CFA"/>
</linearGradient>
<path class="st6" d="M124.3,194L44,223.1L56.9,178l16.9-55.4L28,107.1L56.9,28l62.9,7.7l61.7,70.6L124.3,194z"/>
<path d="M190.6,66.6H67.1V190h123.4V66.6z"/>
<path class="st0" d="M124.9,166.9H78.6v7.7h46.3V166.9z"/>
<path class="st0" d="M112,92v-9.4H86.3V92h7.4v32.3h-7.4v9.4H112v-9.4h-7.1V92H112z"/>
<path class="st0" d="M136.6,134.6c-4,0-7.4-0.9-10-2.3c-2.6-1.4-4.9-3.4-6.6-5.4l7.1-8c1.4,1.7,2.9,2.9,4.3,3.7
	c1.4,0.9,3.1,1.4,4.9,1.4c2,0,3.7-0.6,5.1-2c1.1-1.4,1.7-3.4,1.7-6.6V82.6h11.4V116c0,3.1-0.3,5.7-1.1,8c-0.9,2.3-2,4-3.7,5.7
	c-1.4,1.4-3.4,2.9-5.7,3.4C141.7,134,139.4,134.6,136.6,134.6z"/>
</svg>
