<?xml version="1.0" encoding="utf-8"?>
<!-- Generator: Adobe Illustrator 24.3.0, SVG Export Plug-In . SVG Version: 6.00 Build 0)  -->
<svg version="1.1" id="Layer_1" xmlns="http://www.w3.org/2000/svg" xmlns:xlink="http://www.w3.org/1999/xlink" x="0px" y="0px"
	 viewBox="0 0 256 300" style="enable-background:new 0 0 256 300;" xml:space="preserve">
<style type="text/css">
	.st0{display:none;fill:#0D1117;}
	.st1{fill:#FFFFFF;}
	.st2{fill:#0D1117;}
	.st3{fill:#330000;}
	.st4{fill:#FF9A00;}
	.st5{fill:#242938;}
	.st6{fill-rule:evenodd;clip-rule:evenodd;fill:#242938;}
	.st7{fill-rule:evenodd;clip-rule:evenodd;fill:#FFFFFF;}
	.st8{fill-rule:evenodd;clip-rule:evenodd;fill:#47B353;}
	.st9{fill:#ECEFF1;}
	.st10{fill:#263238;}
	.st11{fill:#212121;}
	.st12{fill:#FFC107;}
	.st13{fill:#634703;}
	.st14{fill:#455A64;}
	.st15{fill:#F03C2E;}
	.st16{clip-path:url(#SVGID_2_);}
	.st17{fill:#0277BD;}
	.st18{fill:#EBEBEB;}
	.st19{fill:#E14E1D;}
	.st20{clip-path:url(#SVGID_4_);}
	.st21{fill:#0ACF83;}
	.st22{fill:#A259FF;}
	.st23{fill:#F24E1E;}
	.st24{fill:#FF7262;}
	.st25{fill:#1ABCFE;}
	.st26{fill:#F0DB4F;}
	.st27{fill:#323330;}
	.st28{fill:#00D8FF;}
	.st29{fill:none;stroke:#00D8FF;stroke-width:8.911;}
	.st30{fill:#764ABC;}
	.st31{fill:#81CD39;}
	.st32{fill:#99424F;}
	.st33{fill:url(#SVGID_5_);}
	.st34{fill:url(#SVGID_6_);}
	.st35{fill:none;stroke:#FFFFFF;stroke-width:2;}
	.st36{fill:#2489CA;}
	.st37{fill:#1070B3;}
	.st38{fill:#0877B9;}
	.st39{fill:#3C99D4;}
	.st40{clip-path:url(#SVGID_8_);}
	.st41{fill:#023430;}
	.st42{fill:#10AA50;}
	.st43{fill:#B8C4C2;}
	.st44{fill:#12924F;}
	.st45{fill:#F58219;}
	.st46{fill:#2396ED;}
	.st47{fill:#007ACC;}
	.st48{fill:url(#SVGID_9_);}
	.st49{fill:url(#SVGID_10_);}
	.st50{fill:#001E36;}
	.st51{fill:#31A8FF;}
	.st52{fill:#E43717;}
	.st53{clip-path:url(#SVGID_12_);}
	.st54{fill-rule:evenodd;clip-rule:evenodd;fill:url(#SVGID_13_);}
	.st55{fill-rule:evenodd;clip-rule:evenodd;fill:url(#SVGID_14_);}
	.st56{fill-rule:evenodd;clip-rule:evenodd;fill:url(#SVGID_15_);}
	.st57{fill-rule:evenodd;clip-rule:evenodd;fill:url(#SVGID_16_);}
	.st58{fill-rule:evenodd;clip-rule:evenodd;fill:url(#SVGID_17_);}
	.st59{fill-rule:evenodd;clip-rule:evenodd;fill:url(#SVGID_18_);}
	.st60{fill-rule:evenodd;clip-rule:evenodd;fill:url(#SVGID_19_);}
	.st61{fill-rule:evenodd;clip-rule:evenodd;fill:url(#SVGID_20_);}
	.st62{fill-rule:evenodd;clip-rule:evenodd;fill:url(#SVGID_21_);}
	.st63{fill-rule:evenodd;clip-rule:evenodd;fill:url(#SVGID_22_);}
	.st64{fill-rule:evenodd;clip-rule:evenodd;fill:url(#SVGID_23_);}
	.st65{fill-rule:evenodd;clip-rule:evenodd;fill:url(#SVGID_24_);}
	.st66{fill-rule:evenodd;clip-rule:evenodd;fill:#9E1209;}
	.st67{fill-rule:evenodd;clip-rule:evenodd;fill:url(#SVGID_25_);}
	.st68{fill-rule:evenodd;clip-rule:evenodd;fill:url(#SVGID_26_);}
	.st69{fill-rule:evenodd;clip-rule:evenodd;fill:url(#SVGID_27_);}
	.st70{fill-rule:evenodd;clip-rule:evenodd;fill:url(#SVGID_28_);}
	.st71{fill:#092E20;}
	.st72{fill-rule:evenodd;clip-rule:evenodd;fill:#FF9900;}
	.st73{fill:#E23237;}
	.st74{fill:#B52E31;}
	.st75{fill:#2F406A;}
	.st76{fill:#2379BD;}
	.st77{fill:#03AFEF;}
	.st78{fill:#953CAD;}
</style>
<g>
	<rect y="162.7" class="st1" width="256" height="137.4"/>
	<g>
		<path class="st2" d="M100.9,288.5c-0.8,1.4-1.9,2.5-3.4,3.2s-3,1.1-4.7,1.1c-1.8,0-3.3-0.3-4.7-1s-2.5-1.7-3.3-3s-1.2-2.8-1.2-4.4
			c0-0.2,0.1-0.4,0.2-0.6s0.3-0.2,0.5-0.2h4c0.4,0,0.6,0.1,0.8,0.2c0.1,0.1,0.3,0.4,0.4,0.8c0.2,0.8,0.6,1.5,1.2,1.9
			c0.5,0.4,1.3,0.6,2.3,0.6c1.2,0,2-0.3,2.6-1s0.9-1.7,0.9-3v-10H85.9c-0.2,0-0.4-0.1-0.6-0.3c-0.2-0.2-0.2-0.4-0.2-0.7v-3.8
			c0-0.3,0.1-0.5,0.2-0.7c0.2-0.2,0.4-0.3,0.6-0.3h15.5c0.2,0,0.4,0.1,0.6,0.3c0.2,0.2,0.2,0.4,0.2,0.7v15
			C102.1,285.4,101.7,287,100.9,288.5z"/>
		<path class="st2" d="M114.4,286.8h9.8c0.2,0,0.4,0.1,0.6,0.3c0.2,0.2,0.2,0.4,0.2,0.7v3.8c0,0.3-0.1,0.5-0.2,0.7
			c-0.2,0.2-0.4,0.3-0.6,0.3h-14.7c-0.2,0-0.4-0.1-0.6-0.3c-0.2-0.2-0.2-0.4-0.2-0.7v-23.1c0-0.3,0.1-0.5,0.2-0.7
			c0.2-0.2,0.4-0.3,0.6-0.3H124c0.2,0,0.4,0.1,0.6,0.3c0.2,0.2,0.2,0.4,0.2,0.7v3.8c0,0.3-0.1,0.5-0.2,0.7c-0.2,0.2-0.4,0.3-0.6,0.3
			h-9.6v3.9h8.9c0.2,0,0.4,0.1,0.6,0.3c0.2,0.2,0.2,0.4,0.2,0.7v3.8c0,0.3-0.1,0.5-0.2,0.7c-0.2,0.2-0.4,0.3-0.6,0.3h-8.9V286.8z"/>
		<path class="st2" d="M147.8,274.7c-0.1,0.2-0.3,0.2-0.5,0.2h-4.1c-0.3,0-0.5,0-0.7-0.1c-0.2-0.1-0.4-0.2-0.6-0.4
			c0,0-0.2-0.2-0.4-0.5s-0.6-0.5-1.1-0.7s-1.1-0.3-1.7-0.3c-0.9,0-1.6,0.1-2.2,0.4s-0.9,0.7-0.9,1.4c0,0.5,0.2,0.9,0.5,1.1
			c0.4,0.3,0.9,0.5,1.6,0.7c0.7,0.2,2,0.5,3.8,1c2.3,0.5,4.1,1.4,5.2,2.6s1.6,2.8,1.6,5c0,1.6-0.4,3-1.2,4.1c-0.8,1.2-2,2.1-3.4,2.7
			c-1.4,0.6-3.1,0.9-5,0.9c-1.8,0-3.4-0.4-4.8-1.1c-1.4-0.7-2.6-1.6-3.4-2.8c-0.8-1.1-1.3-2.3-1.3-3.5c0-0.2,0.1-0.4,0.2-0.6
			c0.1-0.2,0.3-0.2,0.5-0.2h4.1c0.5,0,0.8,0.2,1.2,0.5c0.1,0.1,0.2,0.3,0.5,0.6s0.7,0.7,1.2,0.9c0.5,0.3,1.2,0.4,1.9,0.4
			c2.6,0,3.8-0.6,3.8-1.9c0-0.4-0.2-0.7-0.5-1s-0.9-0.5-1.5-0.7c-0.7-0.2-1.7-0.5-3.2-0.8l-1.4-0.3c-2.1-0.5-3.7-1.4-4.7-2.6
			s-1.5-2.9-1.5-4.9c0-1.4,0.4-2.7,1.1-3.8c0.7-1.2,1.8-2.1,3.1-2.8c1.3-0.7,2.9-1.1,4.6-1.1c1.7,0,3.2,0.4,4.6,1.1
			c1.4,0.7,2.5,1.6,3.3,2.7c0.8,1.1,1.2,2.2,1.3,3.2C148,274.4,147.9,274.5,147.8,274.7z"/>
		<path class="st2" d="M169.9,267.7c0.2,0.2,0.2,0.4,0.2,0.7v3.8c0,0.3-0.1,0.5-0.2,0.7c-0.2,0.2-0.4,0.3-0.6,0.3h-5.5v18.4
			c0,0.3-0.1,0.5-0.2,0.7c-0.2,0.2-0.4,0.3-0.6,0.3h-4.1c-0.2,0-0.4-0.1-0.6-0.3c-0.2-0.2-0.2-0.4-0.2-0.7v-18.4h-5.5
			c-0.2,0-0.4-0.1-0.6-0.3c-0.2-0.2-0.2-0.4-0.2-0.7v-3.8c0-0.3,0.1-0.5,0.2-0.7c0.2-0.2,0.4-0.3,0.6-0.3h16.7
			C169.6,267.5,169.8,267.5,169.9,267.7z"/>
	</g>
	<path class="st32" d="M60-0.1h136c33.1,0,60,26.9,60,60v136c0,33.1-26.9,60-60,60H60c-33.1,0-60-26.9-60-60v-136
		C0,26.9,26.9-0.1,60-0.1z"/>
	<path class="st1" d="M213.4,126.4c0-12-8.3-22.2-19.4-25.1l24.9-73.4H95.5l25,73.7c-10.8,3.1-18.7,13.1-18.7,24.9
		c0,8.7,4.3,16.4,10.9,21.1c-2.6,3.7-5.6,7.1-9,10.4c-6.4,6-13.5,10.7-21.3,13.7c-6.9-4.7-10-13-7.2-20.4
		c10.6-3.2,18.3-13.1,18.3-24.8c0-14.3-11.6-25.9-25.9-25.9c-14.3,0-25.9,11.6-25.9,25.9c0,7.1,2.9,13.5,7.5,18.2
		c-0.4,0.8-0.8,1.6-1.2,2.5c-3.9,8-8.3,17-10,27.2c-3.4,20.3,2.1,36.5,15.4,45.7c7.5,5.2,15.7,7.8,24.6,7.8
		c15.2,0,30.7-7.6,45.6-15.1c10.7-5.3,21.7-10.8,32.5-13.4c4-1,8.2-1.6,12.6-2.2c8.9-1.3,18.1-2.6,26.4-7.4
		c9.7-5.6,16.3-15,18.2-25.8c1.4-8.3,0-16.6-3.7-23.9C212,136.2,213.4,131.4,213.4,126.4L213.4,126.4z M202.1,126.4
		c0,8-6.5,14.6-14.6,14.6c-8,0-14.6-6.5-14.6-14.6c0-2.6,0.7-5.1,1.9-7.2c0.5-0.8,1-1.6,1.6-2.3s1.3-1.3,2-1.9l0.1-0.1
		c0.5-0.3,1-0.7,1.5-1c0,0,0.1,0,0.1-0.1c0.2-0.1,0.5-0.3,0.7-0.4c0.1,0,0.1-0.1,0.2-0.1c0.2-0.1,0.5-0.2,0.8-0.3s0.6-0.2,0.8-0.3
		c0.1,0,0.1-0.1,0.2-0.1c0.2-0.1,0.5-0.2,0.7-0.2c0.1,0,0.2-0.1,0.2-0.1c0.3-0.1,0.5-0.1,0.8-0.2h0.1l0.9-0.2c0.1,0,0.2,0,0.2-0.1
		c0.2,0,0.5-0.1,0.7-0.1h0.3c0.3,0,0.6-0.1,0.9-0.1h0.8c0.2,0,0.4,0,0.6,0.1h0.1c0.5,0.1,0.9,0.1,1.4,0.2
		C197,113.4,202.1,119.4,202.1,126.4L202.1,126.4z M111.6,39.6h91.1l-20.9,61.7c-0.9,0.2-1.7,0.5-2.6,0.8l-22-44.9l-22.1,44.6
		c-0.9-0.3-1.8-0.5-2.7-0.6L111.6,39.6z M153,121.4c-1.1-5.4-3.9-10.3-7.8-13.9l12-24.2l12.1,24.7c-3.6,3.6-6.2,8.2-7.2,13.4H153z
		 M124,112.2c0.3-0.1,0.5-0.1,0.8-0.2h0.2c0.2-0.1,0.5-0.1,0.7-0.1h0.2c0.2,0,0.4-0.1,0.6-0.1h2.3c0.2,0,0.4,0.1,0.6,0.1
		c0.1,0,0.2,0,0.3,0.1c0.2,0.1,0.4,0.1,0.6,0.1c0.1,0,0.1,0,0.2,0.1c0.3,0.1,0.6,0.1,0.8,0.2h0.1c0.2,0.1,0.5,0.1,0.7,0.2
		c0.1,0,0.1,0.1,0.2,0.1c0.2,0.1,0.4,0.1,0.6,0.2c0.1,0,0.1,0.1,0.2,0.1c0.2,0.1,0.5,0.2,0.7,0.3h0.1c0.3,0.1,0.5,0.2,0.8,0.4h0.1
		c0.2,0.1,0.5,0.3,0.7,0.4c0.1,0,0.1,0.1,0.1,0.1c0.2,0.1,0.4,0.3,0.6,0.4l0.1,0.1c0.7,0.5,1.3,1.1,2,1.7l0.1,0.1
		c0.6,0.6,1.2,1.3,1.6,2.1c1.5,2.3,2.4,5,2.4,8c0,8-6.5,14.6-14.6,14.6c-8,0-14.6-6.5-14.6-14.6C113,119.7,117.7,113.9,124,112.2
		L124,112.2z M67,111.9c8,0,14.6,6.5,14.6,14.6c0,8-6.5,14.6-14.6,14.6c-8,0-14.6-6.5-14.6-14.6C52.5,118.4,59,111.9,67,111.9z
		 M201.7,162.1c-1.3,7.4-5.8,13.9-12.6,17.8c-6.3,3.6-14.1,4.8-22.2,6c-4.5,0.6-9.1,1.3-13.7,2.4c-12,3-23.6,8.7-34.9,14.3
		c-14.4,7.1-27.9,13.8-40.5,13.8c-6.5,0-12.4-1.9-18-5.7c-12.7-8.8-12.1-25.3-10.6-34.3c1.4-8.5,5.3-16.4,9-24
		c0.2-0.5,0.4-0.9,0.6-1.3c1.3,0.5,2.6,0.8,4,1c-2.2,12.3,4.1,25,16.2,31.2l2.2,1.2l2.4-0.9c10.1-3.6,19.5-9.4,27.8-17.3
		c4.7-4.4,8.7-9.1,12-14.3c1.3,0.2,2.7,0.3,4,0.3c12,0,22.2-8.3,25.1-19.4h9.7c2.9,11.2,13,19.4,25.1,19.4c4.8,0,9.3-1.3,13.1-3.6
		C202.1,153.1,202.5,157.6,201.7,162.1L201.7,162.1z"/>
</g>
</svg>
