<?xml version="1.0" encoding="utf-8"?>
<!-- Generator: Adobe Illustrator 24.3.0, SVG Export Plug-In . SVG Version: 6.00 Build 0)  -->
<svg version="1.1" id="Layer_1" xmlns="http://www.w3.org/2000/svg" xmlns:xlink="http://www.w3.org/1999/xlink" x="0px" y="0px"
	 viewBox="0 0 256 300" style="enable-background:new 0 0 256 300;" xml:space="preserve">
<style type="text/css">
	.st0{fill:#FFFFFF;}
	.st1{fill:#231F20;}
	.st2{fill:#242938;}
	.st3{clip-path:url(#SVGID_1_);}
	.st4{fill-rule:evenodd;clip-rule:evenodd;fill:#D33833;}
	.st5{fill:#EF3D3A;}
	.st6{fill-rule:evenodd;clip-rule:evenodd;fill:#F0D6B7;}
	.st7{fill-rule:evenodd;clip-rule:evenodd;fill:#335061;}
	.st8{fill-rule:evenodd;clip-rule:evenodd;fill:#6D6B6D;}
	.st9{fill-rule:evenodd;clip-rule:evenodd;fill:#DCD9D8;}
	.st10{fill-rule:evenodd;clip-rule:evenodd;fill:#F7E4CD;}
	.st11{fill:#F7E4CD;}
	.st12{fill-rule:evenodd;clip-rule:evenodd;fill:#49728B;}
	.st13{fill-rule:evenodd;clip-rule:evenodd;fill:#FFFFFF;}
	.st14{fill:none;stroke:#D33833;stroke-width:2.5;}
	.st15{fill-rule:evenodd;clip-rule:evenodd;fill:#EF3D3A;}
	.st16{fill-rule:evenodd;clip-rule:evenodd;fill:#231F20;}
	.st17{fill-rule:evenodd;clip-rule:evenodd;fill:#81B0C4;}
	.st18{fill-rule:evenodd;clip-rule:evenodd;fill:#1D1919;}
</style>
<path class="st0" d="M27.5,162.6h201c15.2,0,27.5,12.3,27.5,27.5v82.4c0,15.2-12.3,27.5-27.5,27.5h-201C12.3,300,0,287.7,0,272.5
	v-82.4C0,174.9,12.3,162.6,27.5,162.6z"/>
<g>
	<path class="st1" d="M73.3,288.5c-0.9,1.4-2.1,2.5-3.6,3.2c-1.5,0.7-3.2,1.1-5,1.1c-1.9,0-3.6-0.3-5.1-1c-1.5-0.7-2.7-1.7-3.5-3
		s-1.3-2.8-1.3-4.5c0-0.2,0.1-0.4,0.2-0.6c0.1-0.2,0.3-0.2,0.5-0.2h4.3c0.4,0,0.7,0.1,0.8,0.2c0.1,0.1,0.3,0.4,0.4,0.8
		c0.3,0.8,0.7,1.5,1.3,1.9c0.6,0.4,1.4,0.6,2.4,0.6c1.2,0,2.2-0.3,2.8-1c0.6-0.7,1-1.7,1-3v-10H57.1c-0.2,0-0.5-0.1-0.6-0.3
		c-0.2-0.2-0.3-0.4-0.3-0.7v-3.8c0-0.3,0.1-0.5,0.3-0.7c0.2-0.2,0.4-0.3,0.6-0.3h16.6c0.2,0,0.5,0.1,0.6,0.3
		c0.2,0.2,0.3,0.4,0.3,0.7v15C74.6,285.3,74.2,287.1,73.3,288.5z"/>
	<path class="st1" d="M85.2,286.7h10.5c0.2,0,0.5,0.1,0.6,0.3c0.2,0.2,0.3,0.4,0.3,0.7v3.8c0,0.3-0.1,0.5-0.3,0.7
		c-0.2,0.2-0.4,0.3-0.6,0.3H80c-0.2,0-0.5-0.1-0.6-0.3c-0.2-0.2-0.3-0.4-0.3-0.7v-23.3c0-0.3,0.1-0.5,0.3-0.7
		c0.2-0.2,0.4-0.3,0.6-0.3h15.5c0.2,0,0.5,0.1,0.6,0.3c0.2,0.2,0.3,0.4,0.3,0.7v3.8c0,0.3-0.1,0.5-0.3,0.7c-0.2,0.2-0.4,0.3-0.6,0.3
		H85.2v3.9h9.5c0.2,0,0.5,0.1,0.6,0.3c0.2,0.2,0.3,0.4,0.3,0.7v3.8c0,0.3-0.1,0.5-0.3,0.7c-0.2,0.2-0.4,0.3-0.6,0.3h-9.5V286.7z"/>
	<path class="st1" d="M114.7,292.2c-0.2-0.2-0.4-0.4-0.5-0.6l-7.6-12.3v12.2c0,0.3-0.1,0.5-0.3,0.7c-0.2,0.2-0.4,0.3-0.6,0.3h-4.4
		c-0.2,0-0.5-0.1-0.6-0.3c-0.2-0.2-0.3-0.4-0.3-0.7v-23.3c0-0.3,0.1-0.5,0.3-0.7c0.2-0.2,0.4-0.3,0.6-0.3h3.5c0.3,0,0.6,0.1,0.9,0.3
		c0.2,0.2,0.4,0.4,0.5,0.6l7.6,12.3v-12.2c0-0.3,0.1-0.5,0.3-0.7c0.2-0.2,0.4-0.3,0.6-0.3h4.4c0.2,0,0.5,0.1,0.6,0.3
		c0.2,0.2,0.3,0.4,0.3,0.7v23.3c0,0.3-0.1,0.5-0.3,0.7c-0.2,0.2-0.4,0.3-0.6,0.3h-3.5C115.3,292.5,115,292.4,114.7,292.2z"/>
	<path class="st1" d="M144.4,291.7c0,0.2-0.1,0.4-0.2,0.6c-0.1,0.2-0.3,0.2-0.5,0.2h-5.3c-0.3,0-0.5-0.1-0.7-0.2
		c-0.2-0.1-0.4-0.3-0.6-0.6l-6.3-8.6v8.4c0,0.3-0.1,0.5-0.3,0.7c-0.2,0.2-0.4,0.3-0.6,0.3h-4.4c-0.2,0-0.5-0.1-0.6-0.3
		c-0.2-0.2-0.3-0.4-0.3-0.7v-23.3c0-0.3,0.1-0.5,0.3-0.7c0.2-0.2,0.4-0.3,0.6-0.3h4.4c0.2,0,0.5,0.1,0.6,0.3
		c0.2,0.2,0.3,0.4,0.3,0.7v7.6l5.9-7.8c0.2-0.2,0.4-0.4,0.5-0.6c0.2-0.1,0.4-0.2,0.8-0.2h5.2c0.2,0,0.4,0.1,0.5,0.2s0.2,0.3,0.2,0.6
		c0,0.1,0,0.3-0.1,0.4l-8.2,10.9l8.8,12C144.4,291.4,144.4,291.5,144.4,291.7z"/>
	<path class="st1" d="M147.3,292.2c-0.2-0.2-0.3-0.4-0.3-0.7v-23.3c0-0.3,0.1-0.5,0.3-0.7c0.2-0.2,0.4-0.3,0.6-0.3h4.4
		c0.2,0,0.5,0.1,0.6,0.3c0.2,0.2,0.3,0.4,0.3,0.7v23.3c0,0.3-0.1,0.5-0.3,0.7c-0.2,0.2-0.4,0.3-0.6,0.3h-4.4
		C147.7,292.5,147.4,292.4,147.3,292.2z"/>
	<path class="st1" d="M172.1,292.2c-0.2-0.2-0.4-0.4-0.5-0.6l-7.6-12.3v12.2c0,0.3-0.1,0.5-0.3,0.7c-0.2,0.2-0.4,0.3-0.6,0.3h-4.4
		c-0.2,0-0.5-0.1-0.6-0.3c-0.2-0.2-0.3-0.4-0.3-0.7v-23.3c0-0.3,0.1-0.5,0.3-0.7c0.2-0.2,0.4-0.3,0.6-0.3h3.5c0.3,0,0.6,0.1,0.9,0.3
		c0.2,0.2,0.4,0.4,0.5,0.6l7.6,12.3v-12.2c0-0.3,0.1-0.5,0.3-0.7c0.2-0.2,0.4-0.3,0.6-0.3h4.4c0.2,0,0.5,0.1,0.6,0.3
		c0.2,0.2,0.3,0.4,0.3,0.7v23.3c0,0.3-0.1,0.5-0.3,0.7c-0.2,0.2-0.4,0.3-0.6,0.3H173C172.6,292.5,172.3,292.4,172.1,292.2z"/>
	<path class="st1" d="M200.2,274.6c-0.1,0.2-0.3,0.2-0.5,0.2h-4.4c-0.3,0-0.6,0-0.7-0.1s-0.4-0.2-0.6-0.5c0,0-0.2-0.2-0.4-0.5
		c-0.2-0.3-0.6-0.5-1.1-0.7c-0.5-0.2-1.1-0.3-1.8-0.3c-1,0-1.7,0.1-2.3,0.4c-0.6,0.3-0.9,0.8-0.9,1.4c0,0.5,0.2,0.9,0.6,1.1
		c0.4,0.3,1,0.5,1.7,0.7c0.8,0.2,2.2,0.5,4.1,1c2.5,0.6,4.3,1.4,5.5,2.6c1.2,1.2,1.8,2.9,1.8,5c0,1.6-0.4,3-1.3,4.2
		c-0.9,1.2-2.1,2.1-3.7,2.7c-1.6,0.6-3.3,1-5.3,1c-1.9,0-3.6-0.4-5.2-1.1c-1.6-0.7-2.8-1.7-3.7-2.8c-0.9-1.2-1.4-2.3-1.4-3.6
		c0-0.2,0.1-0.4,0.2-0.6c0.1-0.2,0.3-0.2,0.5-0.2h4.4c0.5,0,0.9,0.2,1.3,0.5c0.1,0.1,0.2,0.3,0.5,0.6c0.3,0.3,0.7,0.7,1.3,0.9
		c0.6,0.3,1.3,0.4,2.1,0.4c2.8,0,4.1-0.6,4.1-1.9c0-0.4-0.2-0.8-0.6-1c-0.4-0.3-0.9-0.5-1.6-0.7c-0.7-0.2-1.8-0.5-3.4-0.8l-1.5-0.3
		c-2.3-0.5-3.9-1.4-5-2.6c-1.1-1.2-1.6-2.9-1.6-5c0-1.4,0.4-2.7,1.2-3.9c0.8-1.2,1.9-2.1,3.3-2.8s3.1-1.1,4.9-1.1
		c1.8,0,3.4,0.4,4.9,1.1c1.5,0.7,2.7,1.7,3.5,2.8c0.9,1.1,1.3,2.2,1.3,3.2C200.4,274.2,200.3,274.4,200.2,274.6z"/>
</g>
<path class="st2" d="M60,0h136c33.1,0,60,26.9,60,60v136c0,33.1-26.9,60-60,60H60c-33.1,0-60-26.9-60-60V60C0,26.9,26.9,0,60,0z"/>
<g>
	<defs>
		<rect id="SVGID_3_" x="56" y="28" width="144.9" height="200"/>
	</defs>
	<clipPath id="SVGID_1_">
		<use xlink:href="#SVGID_3_"  style="overflow:visible;"/>
	</clipPath>
	<g class="st3">
		<path class="st4" d="M198.4,124.4c0,39.6-31.4,71.7-70.1,71.7c-38.7,0-70.1-32.1-70.1-71.7c0-39.6,31.4-71.7,70.1-71.7
			C167,52.7,198.4,84.8,198.4,124.4z"/>
		<path class="st5" d="M61,142.2c0,0-5.1-74.8,63.8-76.9l-4.8-8L82.7,69.8L72,82.1L62.6,100l-5.3,20.8l1.6,13.9"/>
		<path class="st1" d="M80.3,75.5c-12.3,12.6-19.9,30-19.9,49.2c0,19.2,7.6,36.6,19.9,49.2c12.3,12.6,29.3,20.3,48,20.3
			c18.8,0,35.7-7.8,48-20.3c12.3-12.6,19.9-30,19.9-49.2c0-19.2-7.6-36.6-19.9-49.2c-12.3-12.6-29.3-20.3-48-20.3
			C109.5,55.2,92.6,62.9,80.3,75.5z M77.2,176.9C64.1,163.6,56,145.1,56,124.7c0-20.4,8.1-38.9,21.2-52.2
			c13.1-13.4,31.2-21.7,51.1-21.7c20,0,38.1,8.3,51.1,21.7c13.1,13.4,21.2,31.8,21.2,52.2c0,20.4-8.1,38.9-21.2,52.2
			c-13.1,13.4-31.2,21.7-51.1,21.7C108.3,198.6,90.2,190.3,77.2,176.9"/>
		<path class="st6" d="M157.8,124.8l-10.7,1.6l-14.4,1.6l-9.3,0.3l-9.1-0.3l-6.9-2.1l-6.1-6.7l-4.8-13.6l-1.1-2.9l-6.4-2.1l-3.7-6.1
			l-2.7-8.8l2.9-7.7l6.9-2.4l5.6,2.7l2.7,5.9l3.2-0.5l1.1-1.3l-1.1-6.1l-0.3-7.7l1.6-10.7l-0.1-6.1l4.9-7.8l8.5-6.1l15-6.4l16.6,2.4
			l14.4,10.4l6.7,10.7l4.3,7.7l1.1,19.2l-3.2,16.6l-5.9,14.7l-5.6,7.7"/>
		<path class="st7" d="M148.7,171l-38.2,1.6v6.4l3.2,22.4l-1.6,1.9l-26.7-9.1l-1.9-3.2l-2.7-30.2l-6.1-18.2l-1.3-4.3l21.4-14.7
			l6.7-2.7l5.9,7.2l5.1,4.5l5.9,1.9l2.7,0.8l3.2,13.9l2.4,2.9l6.1-2.1l-4.3,8.3l23.2,11L148.7,171"/>
		<path class="st8" d="M85.4,77.8l6.9-2.4l5.6,2.7l2.7,5.9l3.2-0.5l0.8-3.2l-1.6-6.1l1.6-14.7l-1.3-8l4.8-5.6l10.4-8.3l-2.9-4
			l-14.7,7.2l-6.1,4.8L91.3,53L86,60.2l-1.6,8.5L85.4,77.8z"/>
		<path class="st9" d="M96.4,52.7c0,0,4-9.9,20-14.7s0.8-3.5,0.8-3.5l-17.4,6.7l-6.7,6.7l-2.9,5.3L96.4,52.7z"/>
		<path class="st9" d="M88.4,75.9c0,0-5.6-18.7,15.8-21.4l-0.8-3.2l-14.7,3.5l-4.3,13.9l1.1,9.1L88.4,75.9z"/>
		<path class="st10" d="M96.9,100.8l3.5-3.4c0,0,1.6,0.2,1.8,2.1c0.3,1.9,1.1,18.7,12.6,27.8c1,0.8-8.5-1.3-8.5-1.3l-8.5-13.4"/>
		<path class="st10" d="M146.1,95.7c0,0,0.6-8.1,2.8-7.5C151,88.9,151,91,151,91S145.7,94.5,146.1,95.7"/>
		<path class="st11" d="M168.2,66.1c0,0-4.4,0.9-4.8,4.8c-0.4,3.9,4.8,0.8,5.6,0.5"/>
		<path class="st11" d="M135.9,66.3c0,0-5.9,0.8-5.9,4.5c0,3.7,6.7,3.5,8.5,1.9"/>
		<path class="st10" d="M99.6,83.7c0,0-10.1-6.1-11.2-0.3c-1.1,5.9-3.5,10.1,1.6,16.3l-3.5-1.1l-3.2-8.3l-1.1-8l6.1-6.4l6.9,0.5
			l4,3.2L99.6,83.7z"/>
		<path class="st10" d="M104.4,66.9c0,0,4.5-23.5,27.5-28c18.9-3.7,28.8,0.8,32.6,5.1c0,0-16.8-20-32.9-13.9
			c-16,6.1-27.8,17.4-27.5,24.6C104.6,66.9,104.4,66.9,104.4,66.9z"/>
		<path class="st10" d="M166.4,46.6c0,0-7.7-0.3-8,6.7c0,0,0,1.1,0.5,2.1c0,0,6.1-6.9,9.9-3.2"/>
		<path class="st10" d="M132.4,56.1c0,0-1.3-10.7-10.4-4.5c-5.9,4-5.3,9.6-4.3,10.7c1.1,1.1,0.8,3.2,1.6,1.7
			c0.8-1.5,0.5-6.3,3.5-7.6C125.8,55.1,130.6,53.6,132.4,56.1z"/>
		<path class="st12" d="M107.3,128.3l-25.1,11.2c0,0,10.4,41.4,5.1,54.2l-3.7-1.3l-0.3-15.8l-6.9-29.9l-2.9-8.3l26.2-17.6
			L107.3,128.3z"/>
		<path class="st12" d="M109.9,151.2l3.6,4.3v16h-4.3c0,0-0.5-11.2-0.5-12.6s0.5-6.1,0.5-6.1"/>
		<path class="st12" d="M110,174l-12,0.5l3.5,2.4l8.5,1.3"/>
		<path class="st7" d="M151.1,171.3l9.9-0.3l2.4,24.6l-10.2,1.3L151.1,171.3"/>
		<path class="st7" d="M153.8,171.3l15-0.8c0,0,6.1-15.5,6.1-16.3c0-0.8,5.3-22.4,5.3-22.4l-12-12.6l-2.4-2.1l-6.4,6.4v24.8
			L153.8,171.3"/>
		<path class="st12" d="M160.5,169.4l-9.3,1.9l1.3,7.5c3.5,1.6,9.3-2.7,9.3-2.7"/>
		<path class="st12" d="M160.7,122.7l18.7,13.9l0.5-6.4l-14.2-13.1L160.7,122.7z"/>
		<path class="st13" d="M119.3,223.9l-5.5-22.4l-2.8-16.6l-0.5-12.3l25-1.3l15.6,0l-1.4,28l2.4,21.6l-0.3,4l-20.3,1.6L119.3,223.9"
			/>
		<path class="st9" d="M147.7,171c0,0-1.3,27.8,2.7,47.5c0,0-8,5.1-19.8,6.4l22.4-0.8l2.7-1.6l-3.2-43.8l-0.8-9.3"/>
		<path class="st13" d="M163.9,193.5l10.4-2.9l19.8-1.1l2.9-9.1l-5.3-15.8l-6.1-0.8l-8.5,2.7l-8.2,4l-4.4-0.8L161,171"/>
		<path class="st9" d="M163.7,188.1c0,0,6.9-3.2,8-2.9l-2.9-14.7l3.5-1.3c0,0,2.4,13.9,2.4,15.5c0,0,15,0.8,16.3,0.8
			c0,0,3.2-6.1,2.4-12.6l2.9,8.5l0.3,4.8l-4.3,6.4l-4.8,1.1l-8-0.3l-2.7-3.5l-9.3,1.3l-2.9,1.1"/>
		<path class="st0" d="M153.2,169.2l-5.9-15l-6.1-8.8c0,0,1.3-3.7,3.2-3.7c1.9,0,6.1,0,6.1,0l5.9,2.1l-0.5,9.9L153.2,169.2z"/>
		<path class="st9" d="M154.3,164.1c0,0-7.5-14.4-7.5-16.6c0,0,1.3-3.2,3.2-2.4c1.9,0.8,5.9,2.9,5.9,2.9V143l-9.1-1.9l-6.1,0.8
			l10.4,24.6l2.1,0.3"/>
		<path class="st0" d="M121.7,128.8l-7.4-0.8l-6.9-2.1v2.4l3.4,3.7l10.7,4.8"/>
		<path class="st9" d="M109.7,129.6c0,0,8.3,3.5,11,2.7l0.3,3.2l-7.5-1.6l-4.5-3.2L109.7,129.6z"/>
		<path class="st4" d="M163.8,142.6c-4.5-0.1-8.6-0.7-12.2-1.7c0.2-1.5-0.2-2.9,0.2-4c1-0.7,2.7-0.7,4.2-0.9
			c-1.3-0.6-3.1-0.9-4.6-0.5c0-1-0.5-1.7-0.8-2.4c2.5-0.9,8.6-6.9,11.9-4.9c1.6,0.9,2.3,6.3,2.4,8.9
			C165,139.2,164.7,141.4,163.8,142.6z"/>
		<path class="st14" d="M163.8,142.6c-4.5-0.1-8.6-0.7-12.2-1.7c0.2-1.5-0.2-2.9,0.2-4c1-0.7,2.7-0.7,4.2-0.9
			c-1.3-0.6-3.1-0.9-4.6-0.5c0-1-0.5-1.7-0.8-2.4c2.5-0.9,8.6-6.9,11.9-4.9c1.6,0.9,2.3,6.3,2.4,8.9
			C165,139.2,164.7,141.4,163.8,142.6z"/>
		<path class="st4" d="M142.2,135.2c0,0.3,0,0.7,0,1c-1.4,0.9-3.7,0.9-5.3,1.7c2.3,0.1,4.1,0.7,5.7,1.4c0,0.9-0.1,1.7-0.1,2.6
			c-2.6,1.8-5,4.4-8,6.1c-1.4,0.8-6.5,2.8-8,2.5c-0.9-0.2-0.9-1.3-1.3-2.3c-0.7-2.2-2.4-5.6-2.6-8.9c-0.2-4.1-0.6-11.1,3.9-10.2
			c3.6,0.7,7.8,2.3,10.6,3.9C138.6,133.8,139.6,135,142.2,135.2"/>
		<path class="st14" d="M142.2,135.2c0,0.3,0,0.7,0,1c-1.4,0.9-3.7,0.9-5.3,1.7c2.3,0.1,4.1,0.7,5.7,1.4c0,0.9-0.1,1.7-0.1,2.6
			c-2.6,1.8-5,4.4-8,6.1c-1.4,0.8-6.5,2.8-8,2.5c-0.9-0.2-0.9-1.3-1.3-2.3c-0.7-2.2-2.4-5.6-2.6-8.9c-0.2-4.1-0.6-11.1,3.9-10.2
			c3.6,0.7,7.8,2.3,10.6,3.9C138.6,133.8,139.6,135,142.2,135.2L142.2,135.2z"/>
		<path class="st4" d="M144.7,140.1c-0.4-2.3-0.9-2.9-0.7-4.9C150.1,131.2,151.2,142.1,144.7,140.1z"/>
		<path class="st14" d="M144.7,140.1c-0.4-2.3-0.9-2.9-0.7-4.9C150.1,131.2,151.2,142.1,144.7,140.1z"/>
		<path class="st15" d="M153.4,141.9c0,0-1.9-2.7-0.5-3.5c1.3-0.8,2.7,0,3.5-1.3s0-2.1,0.3-3.7c0.3-1.6,1.6-1.9,2.9-2.1
			c1.3-0.3,5.1-0.8,5.6,0.5l-1.6-4.8l-3.2-1.1l-10.1,5.9l-0.5,2.9v5.9"/>
		<path class="st15" d="M125.4,150.7c-0.3-4.2-0.7-8.3-1-12.5c-0.6-6.2,1.5-5.1,6.9-5.1c0.8,0,5.1,1,5.4,1.6c1.5,3-2.4,2.3,1.7,4.6
			c3.5,1.9,9.6-1.2,8.2-5.4c-0.8-0.9-4.1-0.3-5.3-0.9c-2.1-1.1-4.2-2.2-6.3-3.2c-2.7-1.4-8.8-3.4-11.6-1.5c-7.2,4.9,0.5,17.1,3,22.2
			"/>
		<path class="st16" d="M132.4,56.1c-7.3-1.7-10.9,3-13.1,8c-2-0.5-1.2-3.2-0.7-4.5c1.3-3.6,6.6-8.4,10.8-7.7
			C131.3,52.1,133.8,53.8,132.4,56.1"/>
		<path class="st16" d="M167.9,64.4c0.1,0,0.2,0,0.3,0c1.6,3.4,3.1,7,5.1,10.1c-1.4,3.2-10.5,6.1-10.4,0.3c2-0.9,5.4-0.2,7.1-1.3
			C169.1,70.7,167.7,68.3,167.9,64.4"/>
		<path class="st16" d="M136.2,64.5c1.6,2.9,2.1,5.9,4.3,8c1,1,2.9,2.2,2,4.9c-0.2,0.6-1.9,2.1-2.8,2.3c-3.5,1-11.6,0.2-8.8-4.1
			c2.9,0.1,6.7,1.9,8.9-0.2C138,72.8,135.1,67.5,136.2,64.5"/>
		<path class="st16" d="M166.6,93.6c-5.2,3.4-11,7-19.6,6.2c-1.8-1.6-2.5-5.1-0.7-7.5c0.9,1.6,0.3,4.5,2.9,5c4.9,0.8,10.5-3,14-4.3
			c2.2-3.7-0.2-5-2.1-7.3c-4-4.8-9.4-10.8-9.2-18c1.6-1.2,1.8,1.8,2,2.3c2.1,4.9,7.3,11.1,11.2,15.3c0.9,1,2.5,2,2.7,2.7
			C168.2,89.9,166.4,92.2,166.6,93.6"/>
		<path class="st16" d="M97.7,90c-1.6-0.9-2-5-3.9-5.2c-2.7-0.2-2.2,5.3-2.2,8.6c-1.9-1.7-2.2-7-0.8-9.7c-1.6-0.8-2.3,0.9-3.2,1.4
			C88.7,76.9,99.6,81.3,97.7,90z"/>
		<path class="st16" d="M169.9,97c-2.4,4.6-5.9,9.7-13,9.9c-0.1-1.5-0.3-3.8,0-4.7C162.4,101.7,165.8,98.9,169.9,97z"/>
		<path class="st16" d="M135.7,100c4.6,2.4,12.9,2.6,19.1,2.5c0.3,1.4,0.3,3,0.3,4.7C147.2,107.5,137.8,105.6,135.7,100z"/>
		<path class="st16" d="M134.9,104.4c3.1,7.9,14,7,23.1,6.8c-0.4,1-1.3,2.2-2.4,2.7c-2.9,1.2-11,2.1-15-0.1
			c-2.6-1.4-4.2-4.5-5.6-6.3C134.3,106.7,130.9,104.4,134.9,104.4"/>
		<path class="st17" d="M166.2,148c-3.7,6.3-7.2,12.8-11.6,18.4c1.8-5.4,2.6-14.4,2.9-21.3C161.4,143.3,164.6,145.5,166.2,148z"/>
		<path class="st16" d="M186.1,170.7c-4.1,0.8-7,4.8-11.1,4.6C177.2,172.2,181.1,170.9,186.1,170.7z"/>
		<path class="st16" d="M187.9,177.2c-3.4,0.4-7.3,0.9-10.7,0.6C178.8,175.4,185,176.2,187.9,177.2z"/>
		<path class="st16" d="M189.1,182.8c-3.8,0.1-8.5,0-12.1-0.3C179.1,180.2,186.6,181.6,189.1,182.8z"/>
		<path class="st9" d="M159.1,198.1c0.5,4.8,2.4,9.6,2.2,14.8c-2.1,0.7-3.3,1.3-6.1,1.3c-0.2-4.4-0.8-11.2-0.6-15.4
			C156,198.8,158,197.8,159.1,198.1z"/>
		<path class="st6" d="M153,128c-1.9,1.2-3.5,2.8-5.3,4.1c-4,0.2-6.3-0.3-9.2-2.6c0-0.2,0.3-0.1,0.4-0.3
			C143.1,131.1,148.6,128.4,153,128"/>
		<path class="st17" d="M130.2,157.5c1.2-5.2,5.9-7.8,10.1-10.7c4.4,5.6,7,12.7,10,19.6C143.4,164.3,136.3,160.9,130.2,157.5z"/>
		<path class="st16" d="M154.6,198.7c-0.2,4.2,0.4,11,0.6,15.4c2.8,0,4-0.6,6.1-1.3c0.2-5.2-1.6-10-2.2-14.8
			C158,197.8,156,198.8,154.6,198.7L154.6,198.7z M110.9,174.7c1.8,17,4.5,31.3,9.4,46.4c10.9,3.3,24.1,3.6,33.7,0.6
			c-1.8-8.5-1-18.8-2-27.9c-0.8-6.8-0.4-13.7-1.5-20.6C138.9,170.7,122.4,172.6,110.9,174.7L110.9,174.7z M153.3,173.3
			c-0.1,7.3,0.3,14.5,0.9,21.8c2.8-0.4,4.7-0.7,7.3-1.3c-0.8-7-0.7-15-2.5-21.2C157.1,172.6,155.3,172.6,153.3,173.3L153.3,173.3z
			 M167.5,172.1c-1.3-0.3-2.9,0-4.2,0c0.6,6,2,12.5,2.6,18.8c2,0.1,3.1-0.9,4.7-1.2C170.7,184.2,170.2,176.6,167.5,172.1
			L167.5,172.1z M189.1,191.8c4.2-1,6.8-6.1,5.6-11.4c-0.8-3.5-2.2-10.2-3.7-12.4c-1.1-1.7-4.1-3.9-6.5-2.3
			c-3.9,2.5-10.7,3.2-13.6,6.2c1.4,4.7,1.9,11.2,2.4,17.2c4.9,0.3,10.8-1.3,14.9,0.4c-2.8,0.9-6.5,0.9-8.9,2.2
			C181.4,192.7,186,192.5,189.1,191.8L189.1,191.8z M150.3,166.4c-2.9-6.9-5.6-14-10-19.6c-4.2,2.8-8.9,5.5-10.1,10.7
			C136.3,160.9,143.4,164.3,150.3,166.4z M157.5,145.1c-0.3,6.9-1.1,15.9-2.9,21.3c4.4-5.6,7.9-12.1,11.6-18.4
			C164.6,145.5,161.4,143.3,157.5,145.1L157.5,145.1z M149.3,142.2c-1.7-0.2-3.1,1.9-5.2,1c-0.5,0.5-0.9,1.1-1.4,1.7
			c4.8,5.7,6.9,13.9,10.6,20.6c2-6.5,1.7-13.6,2.2-20.7C152.7,145,151.2,142.4,149.3,142.2z M144.1,135.2c-0.2,2,0.3,2.6,0.7,4.9
			C151.2,142.1,150.1,131.2,144.1,135.2z M136.9,132.9c-2.8-1.5-7-3.2-10.6-3.9c-4.5-0.9-4,6.1-3.9,10.2c0.1,3.3,1.9,6.7,2.6,8.9
			c0.3,1,0.4,2.1,1.3,2.3c1.5,0.4,6.6-1.7,8-2.5c3.1-1.7,5.4-4.3,8-6.1c0-0.9,0.1-1.7,0.1-2.6c-1.6-0.8-3.4-1.3-5.7-1.4
			c1.6-0.8,3.8-0.8,5.3-1.7c0-0.3,0-0.7,0-1C139.6,135,138.6,133.8,136.9,132.9L136.9,132.9z M110.3,128c-2.3,2.3,6.5,5.5,9.3,5.7
			c0-1.5,0.8-2.9,0.7-4C116.9,129.2,112.5,129.6,110.3,128L110.3,128z M138.8,129.1c0,0.2-0.3,0.1-0.4,0.3c3,2.3,5.2,2.8,9.2,2.6
			c1.8-1.3,3.4-2.9,5.3-4.1C148.6,128.4,143.1,131.1,138.8,129.1L138.8,129.1z M164.9,137.1c-0.1-2.6-0.8-8-2.4-8.9
			c-3.4-2-9.4,4-11.9,4.9c0.3,0.8,0.7,1.4,0.8,2.4c1.5-0.4,3.3-0.1,4.6,0.5c-1.5,0.2-3.2,0.2-4.2,0.9c-0.4,1.1,0.1,2.5-0.2,4
			c3.6,1,7.7,1.5,12.2,1.7C164.7,141.4,165,139.2,164.9,137.1L164.9,137.1z M106.4,130.3c-0.7-0.5-5.6-6.9-6.3-6.6
			c-8.9,3.5-17.2,9.6-24.6,15.3c7.1,15.2,9.9,33.8,10.4,51.8c8.1,3.8,15.2,9.3,26.2,9.8c-1.3-9-2.4-17.1-3.2-25.5
			c-2.8-1.2-6.7,0.1-9.3-0.4c0-3.1,4-1.4,4.3-3.5c0.2-1.6-2.2-1.7-1.4-4.2c2,0.7,3.1,2.4,5.2,3c2-4.3,0-11.9,0.3-15.6
			c0.1-0.7,0.3-3.8,1.9-3.2c1.3,0.5-0.1,8.2,0.1,11.6c0.1,3.1-0.4,6.2,0.9,8.2c10.6-1.4,21.4-2.4,33-2.7c-2.5-1.1-5.5-2.1-8.8-4
			c-1.8-1-7.4-3.1-7.9-4.8c-0.8-2.7,2.2-4.1,2.7-6.5c-5.4,2.9-6.4-2.8-7.7-6.9c-1.2-3.7-1.8-6.4-2.1-8.6
			C115.3,135.4,110.4,133.1,106.4,130.3L106.4,130.3z M160.2,124.4c7.4-3.6,8.7,13.4,5.8,18.9c0.4,1.6,2,2.3,2.6,3.7
			c-4.1,7.4-8.7,14.3-12.9,21.6c3.1-2,7.6-0.3,11.3-1.8c1.3-0.5,2.3-3.6,3.3-6.1c2.8-6.8,5.8-15.4,7.1-21.9c0.3-1.5,1.1-4.7,0.9-6
			c-0.3-2.4-3.5-4.1-5.1-5.6c-3-2.7-4.9-5.1-8-7.6C164,121.7,161.3,122.9,160.2,124.4L160.2,124.4z M89.5,58.8
			c-3.5,3.9-2.8,11.2-2.4,16.3c6.4-4,14.8,0.3,14.8,7.1c3-0.1,1.1-3.8,0.6-6.2c-1.8-7.8,3-16.3,0.2-23.5
			C97.2,52.9,92.7,55.2,89.5,58.8L89.5,58.8z M114.7,36.2c-8,2.3-18.2,8.1-21.5,15.2c2.5-0.4,4.3-1.7,6.8-1.8
			c0.9-0.1,2.2,0.4,3.3,0.1c2.2-0.5,4-5.4,5.6-7.2c1.6-1.8,3.5-2.5,4.8-4.1c0.8-0.4,2.1-0.4,2.1-1.6
			C115.5,36.4,115.1,36.1,114.7,36.2L114.7,36.2z M156.3,38.3c-8.3-4.7-22.3-8.2-31.2-3.8c-7.1,3.5-16.7,9.4-20,16.9
			c3.1,7.2-0.9,13.8-1.2,21c-0.1,3.9,1.8,7.3,2,11.5c-1,1.7-4.3,1.9-6.5,1.8c-0.7-3.7-2.1-7.9-5.9-8.4c-5.4-0.6-9.4,3.9-9.7,8.6
			c-0.3,5.5,4.3,14.7,10.7,14.1c2.5-0.2,3.1-2.7,5.8-2.7c1.5,2.9-2.3,3.9-2.7,5.9c-0.1,0.5,0.3,2.7,0.5,3.7
			c1.2,4.8,3.8,11.1,6.3,14.8c3.3,4.7,9.7,5.4,16.5,5.8c1.2-2.7,5.8-2.4,8.7-1.7c-3.5-1.4-6.8-4.8-9.6-7.8
			c-3.1-3.5-6.3-7.2-6.5-11.7c5.9,8.2,10.8,15.4,21.6,19c8.1,2.7,17.7-1.3,23.9-5.6c2.6-1.8,4.1-4.7,6-7.4
			c6.9-9.9,10.1-24.1,9.4-37.8c-0.3-5.7-0.3-11.3-2.2-15.1c-2-4-8.7-7.6-12.6-3.9c-0.7-3.9,3.3-6.3,8-4.9
			C164.6,46.2,161.1,41,156.3,38.3L156.3,38.3z M171.7,166.2c6.5-3.2,18.6-8.7,22.6,0c1.5,3.2,3.3,8.6,4,11.9c1.1,4.7-1.2,14.5-6,16
			c-4.2,1.4-9.2,1.3-14.3,0.3c-0.6-0.5-1.3-1.4-1.7-2.3c-3.6-0.1-7,0.2-9.9,1.7c0.3,2.7-1.5,3.1-3.3,3.7c-1.3,5,2.5,11.6,1.6,16.1
			c-0.6,3.3-4.7,3.8-7.6,4.4c-0.1,1.8,0.1,3.3,0.3,4.9c-0.7,2.5-3.7,3.9-6.6,4.2c-9.4,1.1-23.7,1.6-32.8-1.6
			c-2.5-6.2-4.5-13.7-6.6-20.8c-8.8,0.9-16-3.8-22.7-6.9c-2.3-1.1-5.6-1.7-6.4-3.5c-0.8-1.8-0.5-5.2-0.7-8.5
			c-0.5-8.3-1-16.3-3.2-24.8c-1-3.8-2.7-7.2-3.9-10.9c-1.1-3.4-3-7.6-3.5-11c-0.7-5,4-5.3,7-7.5c4.7-3.4,8.4-5.2,13.5-8.3
			c1.5-0.9,6-3.2,6.6-4.2c1-2.1-1.8-5-2.5-6.7c-1.2-2.6-1.8-4.8-2-7.3c-4.3-0.7-7.5-3.2-9.4-6.1c-3.2-4.7-5.5-13.5-2.7-20.2
			c0.2-0.5,1.3-1.6,1.5-2.4c0.3-1.6-0.6-3.7-0.7-5.4c-0.3-8.7,1.5-16.1,7.3-18.7c2.4-9.4,10.8-12.6,18.8-17.3c3-1.8,6.3-2.9,9.7-4.1
			c12.2-4.5,30.9-3.6,41,4c4.3,3.2,11.1,10.1,13.6,15.1c6.5,13.1,6,35,1.5,50.9c-0.6,2.1-1.5,5.3-2.7,7.8c-0.9,1.8-3.5,5.4-3.2,7
			c0.3,1.6,6.1,6,7.3,7.2c2.2,2.1,6.4,5,6.8,7.7c0.4,2.9-1.3,6.8-2.1,9.6C177.6,149.4,174.9,157.9,171.7,166.2"/>
		<path class="st10" d="M128.5,102c0.4-0.5,2.3-1.2,5,0.1c0,0-3.2,0.5-2.9,5.9l-1.3-0.3C129.2,107.7,127.8,102.9,128.5,102"/>
		<path class="st18" d="M151.9,147.9c0,0.8-0.7,1.5-1.5,1.5c-0.8,0-1.5-0.7-1.5-1.5c0-0.8,0.7-1.5,1.5-1.5
			C151.3,146.5,151.9,147.1,151.9,147.9z"/>
		<path class="st18" d="M153.4,154.7c0,0.8-0.7,1.5-1.5,1.5c-0.8,0-1.5-0.7-1.5-1.5c0-0.8,0.7-1.5,1.5-1.5
			C152.7,153.3,153.4,153.9,153.4,154.7z"/>
	</g>
</g>
</svg>
