<?xml version="1.0" encoding="utf-8"?>
<!-- Generator: Adobe Illustrator 24.3.0, SVG Export Plug-In . SVG Version: 6.00 Build 0)  -->
<svg version="1.1" id="Layer_1" xmlns="http://www.w3.org/2000/svg" xmlns:xlink="http://www.w3.org/1999/xlink" x="0px" y="0px"
	 viewBox="0 0 256 300" style="enable-background:new 0 0 256 300;" xml:space="preserve">
<style type="text/css">
	.st0{fill:#FFFFFF;}
	.st1{fill:#231F20;}
	.st2{fill:url(#SVGID_1_);}
</style>
<path class="st0" d="M27.5,162.6h201c15.2,0,27.5,12.3,27.5,27.5v82.4c0,15.2-12.3,27.5-27.5,27.5h-201C12.3,300,0,287.7,0,272.5
	v-82.4C0,174.9,12.3,162.6,27.5,162.6z"/>
<g>
	<path class="st1" d="M79,288.5c-0.9,1.4-2.1,2.5-3.6,3.2c-1.5,0.7-3.2,1.1-5,1.1c-1.9,0-3.6-0.3-5.1-1c-1.5-0.7-2.7-1.7-3.5-3
		s-1.3-2.8-1.3-4.5c0-0.2,0.1-0.4,0.2-0.6c0.1-0.2,0.3-0.2,0.5-0.2h4.3c0.4,0,0.7,0.1,0.8,0.2c0.1,0.1,0.3,0.4,0.4,0.8
		c0.3,0.8,0.7,1.5,1.3,1.9c0.6,0.4,1.4,0.6,2.4,0.6c1.2,0,2.2-0.3,2.8-1c0.6-0.7,1-1.7,1-3v-10H62.8c-0.2,0-0.5-0.1-0.6-0.3
		c-0.2-0.2-0.3-0.4-0.3-0.7v-3.8c0-0.3,0.1-0.5,0.3-0.7c0.2-0.2,0.4-0.3,0.6-0.3h16.6c0.2,0,0.5,0.1,0.6,0.3
		c0.2,0.2,0.3,0.4,0.3,0.7v15C80.3,285.3,79.9,287.1,79,288.5z"/>
	<path class="st1" d="M99.9,268.2c1.5,0.9,2.7,2,3.5,3.5c0.8,1.5,1.3,3.1,1.4,5c0,0.7,0.1,1.8,0.1,3.2c0,1.5,0,2.5-0.1,3.2
		c-0.1,2.6-1,4.8-2.5,6.5l2.6,4.1c0.1,0.1,0.1,0.3,0.1,0.3v0.1c0,0.2-0.1,0.4-0.2,0.5c-0.1,0.1-0.3,0.2-0.5,0.2h-4.7
		c-0.4,0-0.6-0.1-0.8-0.2c-0.2-0.2-0.4-0.4-0.5-0.6l-0.9-1.5c-1,0.2-2,0.4-3,0.4c-2.1,0-3.9-0.4-5.5-1.3c-1.5-0.9-2.7-2-3.5-3.5
		c-0.8-1.5-1.3-3.1-1.4-5c0-1.3-0.1-2.4-0.1-3.2c0-0.8,0-1.9,0.1-3.2c0.1-1.8,0.5-3.5,1.4-5c0.8-1.5,2-2.6,3.5-3.5
		c1.5-0.9,3.3-1.3,5.5-1.3C96.5,266.9,98.3,267.3,99.9,268.2z M97.4,273.8c-0.7-0.8-1.7-1.1-3-1.1c-1.3,0-2.3,0.4-3,1.1
		s-1.1,1.8-1.2,3c-0.1,0.8-0.1,1.8-0.1,3c0,1.2,0,2.2,0.1,3.1c0.1,1.3,0.5,2.3,1.2,3s1.7,1.1,3,1.1c1.3,0,2.3-0.4,3-1.1
		s1.1-1.8,1.2-3c0.1-0.9,0.1-1.9,0.1-3.1c0-1.2,0-2.2-0.1-3C98.5,275.6,98.1,274.6,97.4,273.8z"/>
	<path class="st1" d="M128.4,267.6c0.2,0.2,0.3,0.4,0.3,0.7v14.4c0,2.2-0.4,4-1.3,5.5c-0.8,1.5-2,2.7-3.5,3.5
		c-1.5,0.8-3.3,1.2-5.3,1.2c-2,0-3.8-0.4-5.3-1.2c-1.5-0.8-2.7-2-3.5-3.5c-0.8-1.5-1.2-3.4-1.2-5.5v-14.4c0-0.3,0.1-0.5,0.3-0.7
		c0.2-0.2,0.4-0.3,0.6-0.3h4.4c0.2,0,0.5,0.1,0.6,0.3c0.2,0.2,0.3,0.4,0.3,0.7v14.2c0,1.5,0.3,2.6,1,3.4c0.7,0.8,1.7,1.2,2.9,1.2
		c1.3,0,2.3-0.4,2.9-1.2c0.7-0.8,1-1.9,1-3.4v-14.2c0-0.3,0.1-0.5,0.3-0.7c0.2-0.2,0.4-0.3,0.6-0.3h4.4
		C128,267.3,128.2,267.4,128.4,267.6z"/>
	<path class="st1" d="M139.3,286.7h10.5c0.2,0,0.5,0.1,0.6,0.3s0.3,0.4,0.3,0.7v3.8c0,0.3-0.1,0.5-0.3,0.7c-0.2,0.2-0.4,0.3-0.6,0.3
		H134c-0.2,0-0.5-0.1-0.6-0.3c-0.2-0.2-0.3-0.4-0.3-0.7v-23.3c0-0.3,0.1-0.5,0.3-0.7c0.2-0.2,0.4-0.3,0.6-0.3h15.5
		c0.2,0,0.5,0.1,0.6,0.3c0.2,0.2,0.3,0.4,0.3,0.7v3.8c0,0.3-0.1,0.5-0.3,0.7c-0.2,0.2-0.4,0.3-0.6,0.3h-10.2v3.9h9.5
		c0.2,0,0.5,0.1,0.6,0.3s0.3,0.4,0.3,0.7v3.8c0,0.3-0.1,0.5-0.3,0.7c-0.2,0.2-0.4,0.3-0.6,0.3h-9.5V286.7z"/>
	<path class="st1" d="M170.4,269.3c1.6,1.4,2.5,3.4,2.5,6.2c0,3.5-1.3,5.9-4,7.2l4.1,8.6c0.1,0.1,0.1,0.3,0.1,0.4
		c0,0.2-0.1,0.4-0.2,0.6c-0.1,0.2-0.3,0.2-0.5,0.2h-4.5c-0.4,0-0.7-0.1-0.9-0.3c-0.2-0.2-0.4-0.4-0.5-0.7l-3.7-7.7h-3.1v7.7
		c0,0.3-0.1,0.5-0.3,0.7c-0.2,0.2-0.4,0.3-0.6,0.3h-4.4c-0.2,0-0.5-0.1-0.6-0.3c-0.2-0.2-0.3-0.4-0.3-0.7v-23.3
		c0-0.3,0.1-0.5,0.3-0.7c0.2-0.2,0.4-0.3,0.6-0.3h9C166.5,267.3,168.8,268,170.4,269.3z M163.5,278.2c2.2,0,3.2-0.9,3.2-2.7
		c0-1.8-1.1-2.7-3.2-2.7h-3.8v5.3H163.5z"/>
	<path class="st1" d="M187.7,292.2c-0.2,0.2-0.4,0.3-0.6,0.3h-4.4c-0.2,0-0.5-0.1-0.6-0.3c-0.2-0.2-0.3-0.4-0.3-0.7v-7.7l-7.7-15.3
		c-0.1-0.2-0.1-0.3-0.1-0.5c0-0.2,0.1-0.4,0.2-0.6c0.1-0.2,0.3-0.2,0.5-0.2h4.6c0.4,0,0.7,0.1,0.9,0.3c0.2,0.2,0.4,0.4,0.5,0.6
		l4.2,8.9l4.2-8.9c0.1-0.2,0.2-0.4,0.5-0.6c0.2-0.2,0.5-0.3,0.9-0.3h4.6c0.2,0,0.4,0.1,0.5,0.2s0.2,0.3,0.2,0.6c0,0.1,0,0.3-0.1,0.5
		l-7.7,15.3v7.7C188,291.8,187.9,292,187.7,292.2z"/>
</g>
<linearGradient id="SVGID_1_" gradientUnits="userSpaceOnUse" x1="0" y1="300.5354" x2="256" y2="44.5354" gradientTransform="matrix(1 0 0 -1 0 300.5354)">
	<stop  offset="0" style="stop-color:#FF5C00"/>
	<stop  offset="1" style="stop-color:#FF0F00"/>
</linearGradient>
<path class="st2" d="M60,0h136c33.1,0,60,26.9,60,60v136c0,33.1-26.9,60-60,60H60c-33.1,0-60-26.9-60-60V60C0,26.9,26.9,0,60,0z"/>
<path class="st0" d="M79.2,68.7c-10,14.6-8.7,33.6-1.1,49.1l0.6,1.1l0.4,0.7c0.1,0.1,0.2,0.3,0.2,0.4c0.1,0.2,0.3,0.5,0.4,0.7
	l0.7,1.3l0.4,0.7l0.8,1.3l0.4,0.6c0.4,0.6,0.8,1.2,1.2,1.8c0,0,0,0,0,0c0.1,0.1,0.1,0.2,0.2,0.3c0.4,0.5,0.8,1,1.1,1.5l0.4,0.5
	l1,1.3l0.4,0.5c0.5,0.6,0.9,1.1,1.4,1.7l0,0c0,0,0,0,0.1,0.1c0.5,0.5,1,1.1,1.5,1.6l0.5,0.5l1.2,1.2l0.5,0.5c0.5,0.5,1.1,1,1.6,1.5
	l0.3,0.3l1.4,1.2l0.6,0.5l1.2,0.9l0.6,0.5l1.8,1.4c0,0,0.1,0.1,0.1,0.1c0.4,0.3,0.9,0.6,1.3,0.9l0.6,0.4l2.1,1.3l0.6,0.3l1.5,0.9
	c0.3,0.2,0.6,0.3,0.9,0.4l1.1,0.6l0.3,0.1l0.5,0.2l1.8,0.8l0.4,0.2c0.7,0.3,1.4,0.6,2,0.9l0.5,0.2l1.9,0.7l0.2,0.1
	c0.7,0.3,1.4,0.5,2.2,0.7l0.5,0.2c0.8,0.2,1.5,0.5,2.2,0.6c48.3,9,62.3-29.5,62.3-29.5c-11.8,15.6-32.7,19.8-52.5,15.2
	c-0.8-0.2-1.5-0.4-2.2-0.6l-0.6-0.2c-0.7-0.2-1.4-0.5-2.1-0.7l-0.3-0.1c-0.6-0.2-1.3-0.5-1.9-0.7l-0.5-0.2c-0.7-0.3-1.4-0.6-2-0.9
	l-0.4-0.2l-1.7-0.8l-0.5-0.2c-0.4-0.2-0.9-0.5-1.3-0.7l-0.9-0.5c-0.5-0.3-1.1-0.6-1.6-0.9l-0.5-0.3c-0.7-0.4-1.4-0.8-2.1-1.3
	c-0.2-0.1-0.4-0.3-0.6-0.4l-1.5-1l-0.5-0.3l-1.4-1l-0.6-0.5l-1.3-1l-0.6-0.5l-1.6-1.3c-0.1,0-0.1-0.1-0.2-0.1
	c-0.6-0.5-1.1-1-1.6-1.5l-0.5-0.5l-1.2-1.2l-0.5-0.5c-0.5-0.5-1-1-1.4-1.6c0,0,0-0.1-0.1-0.1c-0.5-0.6-1-1.1-1.5-1.7l-0.4-0.5
	l-1.1-1.3l-0.4-0.5l-1.2-1.7C82.2,97.1,78.2,76,87,58.7L79.2,68.7z M110.2,56.4C103,67,103.4,81.2,109,92.4c0.9,1.9,2,3.7,3.2,5.4
	c1.1,1.6,2.3,3.5,3.7,4.7c0.5,0.6,1.1,1.1,1.6,1.7c0.1,0.1,0.3,0.3,0.4,0.4c0.5,0.5,1.1,1.1,1.7,1.6c0,0,0,0,0.1,0.1
	c0.6,0.6,1.3,1.1,1.9,1.6l0.4,0.3c0.7,0.5,1.3,1,2,1.5c0,0,0,0,0.1,0c0.3,0.2,0.6,0.4,0.9,0.6c0.1,0.1,0.3,0.2,0.4,0.3
	c0.5,0.3,1,0.6,1.5,0.9l0.2,0.1l1.3,0.8c0.2,0.1,0.3,0.2,0.5,0.2l0.9,0.5c0,0,0.1,0,0.1,0.1c0.6,0.3,1.3,0.6,1.9,0.9
	c0.1,0.1,0.3,0.1,0.4,0.2c0.5,0.2,1.1,0.4,1.6,0.7l0.7,0.3c0.5,0.2,1,0.4,1.5,0.5l0.7,0.2c0.7,0.2,1.4,0.5,2.1,0.6
	c37.3,6.3,45.9-22.9,45.9-22.9c-7.8,11.4-22.8,16.8-38.8,12.6c-0.7-0.2-1.4-0.4-2.1-0.6c-0.2-0.1-0.4-0.1-0.6-0.2
	c-0.5-0.2-1-0.3-1.5-0.5l-0.7-0.3c-0.5-0.2-1.1-0.4-1.6-0.7c-0.1-0.1-0.3-0.1-0.4-0.2c-0.7-0.3-1.3-0.6-1.9-0.9
	c-0.3-0.2-0.7-0.3-1-0.5l-0.6-0.3c-0.4-0.2-0.8-0.5-1.2-0.7l-0.3-0.2c-0.5-0.3-1-0.6-1.5-0.9c-0.2-0.1-0.3-0.2-0.4-0.3l-1-0.7
	c-0.7-0.5-1.4-1-2-1.5l-0.5-0.4c-7-5.6-12.6-13.4-15.2-22.1c-2.8-9.1-2.2-19.3,2.6-27.5L110.2,56.4z M136.3,47.2
	c-4.3,6.4-4.7,14.3-1.7,21.4c3.1,7.5,9.5,13.3,16.9,16.1c0.3,0.1,0.6,0.2,0.9,0.3l0.4,0.1c0.4,0.1,0.9,0.3,1.3,0.4
	c20.6,4.1,26.2-10.8,27.7-12.9c-4.9,7.2-13.1,8.9-23.2,6.4c-0.8-0.2-1.7-0.5-2.5-0.8c-1-0.4-2-0.8-2.9-1.2c-1.8-0.9-3.5-1.9-5.1-3.2
	c-9-7-14.7-20.3-8.8-31.1"/>
<path class="st0" d="M90.8,182.7l-1.4,4.9L90.8,182.7L90.8,182.7z M98,193.4l-1.5,0L98,193.4z M97.6,200.8l-9.2,0L97.6,200.8z
	 M99.6,193.4l-1.5,0L99.6,193.4z M98.5,200.2l1.6-6.1L98.5,200.2z M132.4,172l-3,14.1L132.4,172z M124.7,172l-2.3,10.5L124.7,172z"
	/>
<path class="st0" d="M131.8,171.4h-6.4c-0.4,0-0.7,0.3-0.8,0.6l-4.5,21c-0.1,0.3-0.4,0.6-0.8,0.6h-4.5c-4.5,0-4-3.1-3-7.3l0-0.1
	l0.5-2.9l0.2-1.2l2.1-10.1c0.1-0.3-0.2-0.6-0.5-0.6h-6.6c-0.2,0-0.4,0.1-0.5,0.2c-0.1,0.1-0.2,0.3-0.3,0.4l-3,14
	c-1.6,7.4-1.2,14.5,7.6,14.7l0.3,0h13.9c0.4,0,0.7-0.3,0.8-0.6l6-28.1C132.4,171.6,132.2,171.4,131.8,171.4L131.8,171.4z
	 M157.3,193.7c0.4,0,0.6,0.3,0.5,0.6l-0.6,3L157.3,193.7z M156.6,200.4l0.6-3L156.6,200.4z M155.8,201l-11.8,0.1L155.8,201z"/>
<path class="st0" d="M140.2,189.8c0-0.3,0.4-0.9,0.7-0.9l-0.8,0C139.8,192.5,140.2,189.8,140.2,189.8z M144.6,201.1h-0.1H144.6z
	 M157.3,193.7c0.4,0,0.6,0.3,0.5,0.6l-0.7,3.5L157.3,193.7z M147.6,201.1L147.6,201.1L147.6,201.1z M146.1,201.1L146.1,201.1
	L146.1,201.1z M145.6,201.1h-0.2H145.6z M145.1,201.1H145H145.1z M146,201.1h-0.4H146z"/>
<path class="st0" d="M147.6,201.1l-1.5,0L147.6,201.1z M155.8,201l-8.2,0L155.8,201z M156.6,200.4l0.5-2.5L156.6,200.4L156.6,200.4z
	 M145.4,201.1h-0.3H145.4L145.4,201.1z M144.5,201.1H144H144.5z M145,201.1h-0.4H145z M51.5,189.9l1-4.4l-1.1,5l-0.1,0.6L51.5,189.9
	L51.5,189.9z M63.4,171.3h-7c-0.2,0-0.4,0.1-0.5,0.2c-0.1,0.1-0.2,0.3-0.3,0.4l-1.3,5.9c0,0.1,0,0.2,0,0.2c0,0.1,0,0.2,0.1,0.2
	c0,0.1,0.1,0.1,0.2,0.1c0.1,0,0.2,0,0.2,0h7.1c0.4,0,0.7-0.3,0.8-0.6l1.3-5.9C64,171.6,63.7,171.3,63.4,171.3L63.4,171.3z
	 M61.8,181.1l-2.1,9.5L61.8,181.1z M41.5,212.6l5.8,0C45.5,212.7,42.7,212.6,41.5,212.6L41.5,212.6z"/>
<path class="st0" d="M53.5,181.1l-1,4.4L53.5,181.1z M61.3,180.4h-7.1c-0.2,0-0.4,0.1-0.5,0.2c-0.1,0.1-0.2,0.3-0.3,0.4l-2,8.8
	l-0.3,1.3l-1.9,9c-0.1,0.4-0.2,0.8-0.3,1.2c0,0-1.3,3.9-3.5,3.9l-2.2,0c-0.2,0-0.4,0.1-0.5,0.2c-0.1,0.1-0.2,0.3-0.3,0.4L41,212
	c0,0.1,0,0.2,0,0.2c0,0.1,0,0.2,0.1,0.2c0,0.1,0.1,0.1,0.2,0.1c0.1,0,0.2,0,0.2,0l5.8,0c5.5,0,8.5-3.1,10.4-11.9l4.3-19.7
	C61.9,180.7,61.7,180.4,61.3,180.4L61.3,180.4z M161.8,200.7c-0.4,0-0.6-0.3-0.5-0.6l5.3-24.9L161.8,200.7z M169.2,200.1l2.2-10.6
	L169.2,200.1z"/>
<path class="st0" d="M161.4,200.4c0-0.2,0-0.6,0.1-0.9l2.5-11.8l-2.7,12.5c-0.1,0.3,0.2,0.6,0.5,0.6h0.6
	C162.1,200.7,161.4,200.6,161.4,200.4z M168.8,200.6c-0.2,0.1-0.6,0.1-1,0.1h0.6c0.2,0,0.4-0.1,0.5-0.2s0.2-0.3,0.3-0.4l0.1-0.6
	C169.3,199.8,169,200.5,168.8,200.6L168.8,200.6z M170.3,194.8l1-4.7L170.3,194.8z M191.3,176.8l0.3,1.2c0.1,0.3-0.1,0.6-0.5,0.6"/>
<path class="st0" d="M169.3,199.5l0.9-4.7L169.3,199.5z M191,175.6l0.3,1.2L191,175.6z M171.2,190.1l0.3-1.3l1-4.8l-1.1,5.4
	L171.2,190.1L171.2,190.1z M166.7,174.8l-0.2,1l-2.5,11.8l2.7-12.5L166.7,174.8L166.7,174.8z"/>
<path class="st0" d="M191.6,178l-0.3-1.2l-0.4-1.9c-0.6-2.2-2.3-3.5-5.9-3.5l-16.9,0c-0.2,0-0.4,0.1-0.5,0.2
	c-0.1,0.1-0.2,0.3-0.3,0.4l-0.3,1.2l-0.4,1.9l-5.2,24.3c-0.1,0.3-0.1,0.8-0.1,0.9c0,0.2,0.7,0.3,1.1,0.3h5.3c0.4,0,0.8-0.1,1-0.1
	c0.2-0.1,0.5-0.8,0.6-1.1l2-10l2.2-10.1c0.1-0.3,0.4-0.6,0.8-0.6l16.8,0C191.5,178.7,191.7,178.4,191.6,178L191.6,178z M213.2,167.1
	l-1.3,0h-5.4c-0.2,0-0.4,0.1-0.6,0.2c-0.2,0.1-0.3,0.2-0.4,0.4L193.6,185c-0.2,0.3-0.4,0.2-0.5-0.1l-0.9-3.8c0-0.2-0.1-0.3-0.3-0.4
	c-0.1-0.1-0.3-0.2-0.5-0.2h-7.6c-0.4,0-0.6,0.3-0.5,0.6l3.4,12c0.1,0.3,0.1,0.9,0,1.2l-1.5,5.8c0,0.1,0,0.2,0,0.2
	c0,0.1,0,0.2,0.1,0.2c0,0.1,0.1,0.1,0.2,0.1c0.1,0,0.2,0,0.2,0h7.6c0.4,0,0.7-0.3,0.8-0.6l1.5-5.8c0.1-0.4,0.3-0.8,0.5-1.1
	l19.3-25.6c0.2-0.3,0.1-0.5-0.3-0.5L213.2,167.1L213.2,167.1z M152.5,182.1c0,0.4-0.4,0.7-0.8,0.7h-9.7c-0.3,0-0.5-0.2-0.5-0.5
	l0-0.1l0-0.2c0.9-2.5,2.8-4.1,6.3-4.1C152,178,152.8,179.9,152.5,182.1L152.5,182.1z M149.7,170.9c-12.4,0-15.4,7.5-17,15.1
	c-1.7,7.8-1.5,15,11.3,15h2l1.6,0l8.2,0c0.2,0,0.4-0.1,0.5-0.2c0.1-0.1,0.2-0.3,0.3-0.4l1.2-6.1c0.1-0.3-0.2-0.6-0.5-0.6h-11.6
	c-4.6,0-6-1.2-5.5-4.8h18.5c0.3,0,0.6-0.2,0.7-0.5c0-0.1,0-0.1,0-0.2C162.2,177.9,161.5,170.9,149.7,170.9L149.7,170.9z M91,182.1
	l-0.2,0.6c0,0-1.4,4.9-1.4,4.9l-1.4,4.9c-0.1,0.2-0.2,0.3-0.3,0.4c-0.1,0.1-0.3,0.2-0.5,0.2h-7.4c-5.6,0-7-4.4-5.6-10.8
	c1.4-6.6,4-10.7,9.5-11.1C91.3,170.6,92.8,175.9,91,182.1L91,182.1z M96.1,192.8c0,0,3.5-8.4,4.3-13.3c1.1-6.5-2.2-16-14.8-16
	c-12.6,0-18,9-20.1,18.9c-2.1,9.9,0.6,18.6,13.1,18.5l19.1-0.1c0.2,0,0.4-0.1,0.5-0.2c0.1-0.1,0.3-0.3,0.3-0.4l1.6-6.1
	c0-0.1,0-0.2,0-0.2c0-0.1,0-0.2-0.1-0.2c0-0.1-0.1-0.1-0.2-0.1c-0.1,0-0.2,0-0.2,0l-3.1,0c-0.3,0-0.5-0.2-0.4-0.5
	C96,192.9,96.1,192.9,96.1,192.8L96.1,192.8z"/>
<path class="st0" d="M158.3,187.1c0,0.2-0.2,0.4-0.4,0.4c-0.2,0-0.4-0.2-0.4-0.4c0-0.2,0.2-0.4,0.4-0.4
	C158.1,186.7,158.3,186.9,158.3,187.1z"/>
</svg>
