<?xml version="1.0" encoding="utf-8"?>
<!-- Generator: Adobe Illustrator 24.3.0, SVG Export Plug-In . SVG Version: 6.00 Build 0)  -->
<svg version="1.1" id="Layer_1" xmlns="http://www.w3.org/2000/svg" xmlns:xlink="http://www.w3.org/1999/xlink" x="0px" y="0px"
	 viewBox="0 0 256 300" style="enable-background:new 0 0 256 300;" xml:space="preserve">
<style type="text/css">
	.st0{fill:#FFFFFF;}
	.st1{fill:#242938;}
	.st2{fill:#231F20;}
	.st3{fill-rule:evenodd;clip-rule:evenodd;fill:#25A162;}
	.st4{fill-rule:evenodd;clip-rule:evenodd;fill:#DC524A;}
	.st5{fill-rule:evenodd;clip-rule:evenodd;fill:#FEFEFE;}
</style>
<path class="st0" d="M27.5,162.6h201c15.2,0,27.5,12.3,27.5,27.5v82.4c0,15.2-12.3,27.5-27.5,27.5h-201C12.3,300,0,287.7,0,272.5
	v-82.4C0,174.9,12.3,162.6,27.5,162.6z"/>
<path class="st1" d="M60,0h136c33.1,0,60,26.9,60,60v136c0,33.1-26.9,60-60,60H60c-33.1,0-60-26.9-60-60V60C0,26.9,26.8,0,60,0z"/>
<g>
	<path class="st2" d="M96.1,288.5c-0.9,1.4-2.1,2.5-3.6,3.2c-1.5,0.7-3.2,1.1-5,1.1c-1.9,0-3.6-0.3-5.1-1c-1.5-0.7-2.7-1.7-3.5-3
		s-1.3-2.8-1.3-4.5c0-0.2,0.1-0.4,0.2-0.6c0.1-0.2,0.3-0.2,0.5-0.2h4.3c0.4,0,0.7,0.1,0.8,0.2c0.1,0.1,0.3,0.4,0.4,0.8
		c0.3,0.8,0.7,1.5,1.3,1.9c0.6,0.4,1.4,0.6,2.4,0.6c1.2,0,2.2-0.3,2.8-1c0.6-0.7,1-1.7,1-3v-10H80c-0.2,0-0.5-0.1-0.6-0.3
		c-0.2-0.2-0.3-0.4-0.3-0.7v-3.8c0-0.3,0.1-0.5,0.3-0.7c0.2-0.2,0.4-0.3,0.6-0.3h16.6c0.2,0,0.5,0.1,0.6,0.3
		c0.2,0.2,0.3,0.4,0.3,0.7v15C97.5,285.3,97,287.1,96.1,288.5z"/>
	<path class="st2" d="M121.7,267.6c0.2,0.2,0.3,0.4,0.3,0.7v14.4c0,2.2-0.4,4-1.3,5.5c-0.8,1.5-2,2.7-3.5,3.5
		c-1.5,0.8-3.3,1.2-5.3,1.2c-2,0-3.8-0.4-5.3-1.2c-1.5-0.8-2.7-2-3.5-3.5c-0.8-1.5-1.2-3.4-1.2-5.5v-14.4c0-0.3,0.1-0.5,0.3-0.7
		c0.2-0.2,0.4-0.3,0.6-0.3h4.4c0.2,0,0.5,0.1,0.6,0.3c0.2,0.2,0.3,0.4,0.3,0.7v14.2c0,1.5,0.3,2.6,1,3.4c0.7,0.8,1.7,1.2,2.9,1.2
		c1.3,0,2.3-0.4,2.9-1.2c0.7-0.8,1-1.9,1-3.4v-14.2c0-0.3,0.1-0.5,0.3-0.7c0.2-0.2,0.4-0.3,0.6-0.3h4.4
		C121.3,267.3,121.5,267.4,121.7,267.6z"/>
	<path class="st2" d="M140.6,292.2c-0.2-0.2-0.4-0.4-0.5-0.6l-7.6-12.3v12.2c0,0.3-0.1,0.5-0.3,0.7c-0.2,0.2-0.4,0.3-0.6,0.3h-4.4
		c-0.2,0-0.5-0.1-0.6-0.3c-0.2-0.2-0.3-0.4-0.3-0.7v-23.3c0-0.3,0.1-0.5,0.3-0.7c0.2-0.2,0.4-0.3,0.6-0.3h3.5c0.3,0,0.6,0.1,0.9,0.3
		c0.2,0.2,0.4,0.4,0.5,0.6l7.6,12.3v-12.2c0-0.3,0.1-0.5,0.3-0.7c0.2-0.2,0.4-0.3,0.6-0.3h4.4c0.2,0,0.5,0.1,0.6,0.3
		c0.2,0.2,0.3,0.4,0.3,0.7v23.3c0,0.3-0.1,0.5-0.3,0.7c-0.2,0.2-0.4,0.3-0.6,0.3h-3.5C141.2,292.5,140.9,292.4,140.6,292.2z"/>
	<path class="st2" d="M150.8,292.2c-0.2-0.2-0.3-0.4-0.3-0.7v-23.3c0-0.3,0.1-0.5,0.3-0.7c0.2-0.2,0.4-0.3,0.6-0.3h4.4
		c0.2,0,0.5,0.1,0.6,0.3c0.2,0.2,0.3,0.4,0.3,0.7v23.3c0,0.3-0.1,0.5-0.3,0.7c-0.2,0.2-0.4,0.3-0.6,0.3h-4.4
		C151.2,292.5,151,292.4,150.8,292.2z"/>
	<path class="st2" d="M178.3,267.6c0.2,0.2,0.3,0.4,0.3,0.7v3.8c0,0.3-0.1,0.5-0.3,0.7s-0.4,0.3-0.6,0.3h-5.9v18.5
		c0,0.3-0.1,0.5-0.3,0.7c-0.2,0.2-0.4,0.3-0.6,0.3h-4.4c-0.2,0-0.5-0.1-0.6-0.3c-0.2-0.2-0.3-0.4-0.3-0.7V273h-5.9
		c-0.2,0-0.5-0.1-0.6-0.3c-0.2-0.2-0.3-0.4-0.3-0.7v-3.8c0-0.3,0.1-0.5,0.3-0.7c0.2-0.2,0.4-0.3,0.6-0.3h17.9
		C177.9,267.3,178.1,267.4,178.3,267.6z"/>
</g>
<g id="_2513472981712">
	<path class="st3" d="M163.1,57.7l0.1,19.8l-50.9,0c-2.7,0-2.2,0.2-2.4,3c-0.2,3.4-0.6,6.9-0.9,10.3c-0.6,6.9-1.5,14-1.9,21
		c18.2-2.3,36.1-5,52.1,7.9c13.6,10.9,16.7,30.4,11.6,47.3c-8.3,27.7-37.5,33.2-63.6,30.7c-6.9-0.7-13.2-1.9-19.6-4.4
		c-1.9-0.8-3.8-1.8-5.4-2.4l0,28.9c2.6,2.1,15.8,6.5,19.1,7.3c7.9,2,16,3.2,24.1,3.4h7c9.2-0.3,18.2-1.8,26.9-4.7
		c3.6-1.2,6.5-2.3,9.9-3.7c4.4-1.8,13.3-6.7,17-9.4l7.5-5.7c2.6-2.1,4.8-4.1,7.2-6.4c17.5-17.3,26.9-38.6,29.5-63.1
		c0.1-1.4,0.3-2.7,0.3-4.1v-9.2c-0.4-7.6-1.7-15.2-3.5-22.2c-3.4-13.1-9.7-24.6-17.8-35.3c-2.9-3.9-7.4-9-11.1-12.1l-5.3-4.7
		c-2.5-2.2-9-6.5-11.8-8.2c-3.1-1.9-14.5-8-18.2-8.4L163.1,57.7L163.1,57.7z"/>
	<path class="st4" d="M82.2,219.8l0-28.9l-0.1-20.2c7.1,2.4,6.3,3.8,18.4,6.7c7,1.7,15.4,2.6,23,2c15.2-1.3,25.2-8.6,26.1-23.7
		c1.8-30.4-30.2-29.5-51.4-25.1c-6.5,1.3-5.5-2.1-13.2-5.1l5.3-67.9l72.7,0l0.1-24.5c-6.3-3.2-19.8-5.7-30.9-6.4h-10.8
		c-0.5,0-1,0.1-1.4,0.2c-3.8,0.6-7.3,0.8-10.7,1.4c-3.6,0.6-7,1.5-10.1,2.4C87.5,34,76,39.9,66.4,47c-5,3.7-8.9,7.2-13.3,11.5
		l-5.7,6.7c-13.4,16.9-21.2,37.1-22.3,58v11c0.5,8.8,2.2,17.7,5.1,26.5c3.5,10.5,8.3,19.2,14.6,28.1l4.1,5.1
		c7.3,8.9,15.4,15.5,25.2,21.6C75.7,216.5,80.6,219.4,82.2,219.8z"/>
	<path class="st5" d="M82.2,191c1.6,0.6,3.5,1.6,5.4,2.4c6.3,2.5,12.7,3.7,19.6,4.4c26.1,2.6,55.3-3,63.6-30.7
		c5.1-17,2-36.4-11.6-47.3c-16.1-12.9-33.9-10.2-52.1-7.9c0.4-6.9,1.2-14.1,1.9-21c0.3-3.4,0.7-6.9,0.9-10.3c0.2-2.8-0.3-3,2.4-3
		l50.9,0l-0.1-19.8l-72.7,0L85,125.6c7.8,3,6.8,6.4,13.2,5.1c21.2-4.3,53.2-5.3,51.4,25.1c-0.9,15.2-10.9,22.5-26.1,23.7
		c-7.6,0.6-16-0.3-23-2c-12.2-2.9-11.3-4.3-18.4-6.7L82.2,191L82.2,191z"/>
</g>
</svg>
