<?xml version="1.0" encoding="utf-8"?>
<!-- Generator: Adobe Illustrator 24.3.0, SVG Export Plug-In . SVG Version: 6.00 Build 0)  -->
<svg version="1.1" id="Layer_1" xmlns="http://www.w3.org/2000/svg" xmlns:xlink="http://www.w3.org/1999/xlink" x="0px" y="0px"
	 viewBox="0 0 256 300" style="enable-background:new 0 0 256 300;" xml:space="preserve">
<style type="text/css">
	.st0{display:none;fill:#0D1117;}
	.st1{fill:#FFFFFF;}
	.st2{fill:#0D1117;}
	.st3{fill:#330000;}
	.st4{fill:#FF9A00;}
	.st5{fill:#242938;}
	.st6{fill-rule:evenodd;clip-rule:evenodd;fill:#242938;}
	.st7{fill-rule:evenodd;clip-rule:evenodd;fill:#FFFFFF;}
	.st8{fill-rule:evenodd;clip-rule:evenodd;fill:#47B353;}
	.st9{fill:#ECEFF1;}
	.st10{fill:#263238;}
	.st11{fill:#212121;}
	.st12{fill:#FFC107;}
	.st13{fill:#634703;}
	.st14{fill:#455A64;}
	.st15{fill:#F03C2E;}
	.st16{clip-path:url(#SVGID_2_);}
	.st17{fill:#0277BD;}
	.st18{fill:#EBEBEB;}
	.st19{fill:#E14E1D;}
	.st20{clip-path:url(#SVGID_4_);}
	.st21{fill:#0ACF83;}
	.st22{fill:#A259FF;}
	.st23{fill:#F24E1E;}
	.st24{fill:#FF7262;}
	.st25{fill:#1ABCFE;}
	.st26{fill:#F0DB4F;}
	.st27{fill:#323330;}
	.st28{fill:#00D8FF;}
	.st29{fill:none;stroke:#00D8FF;stroke-width:8.911;}
	.st30{fill:#764ABC;}
	.st31{fill:#81CD39;}
	.st32{fill:#99424F;}
	.st33{fill:url(#SVGID_5_);}
	.st34{fill:url(#SVGID_6_);}
	.st35{fill:none;stroke:#FFFFFF;stroke-width:2;}
	.st36{fill:#2489CA;}
	.st37{fill:#1070B3;}
	.st38{fill:#0877B9;}
	.st39{fill:#3C99D4;}
	.st40{clip-path:url(#SVGID_8_);}
	.st41{fill:#023430;}
	.st42{fill:#10AA50;}
	.st43{fill:#B8C4C2;}
	.st44{fill:#12924F;}
	.st45{fill:#F58219;}
	.st46{fill:#2396ED;}
	.st47{fill:#007ACC;}
	.st48{fill:url(#SVGID_9_);}
	.st49{fill:url(#SVGID_10_);}
	.st50{fill:#001E36;}
	.st51{fill:#31A8FF;}
	.st52{fill:#E43717;}
	.st53{clip-path:url(#SVGID_12_);}
	.st54{fill-rule:evenodd;clip-rule:evenodd;fill:url(#SVGID_13_);}
	.st55{fill-rule:evenodd;clip-rule:evenodd;fill:url(#SVGID_14_);}
	.st56{fill-rule:evenodd;clip-rule:evenodd;fill:url(#SVGID_15_);}
	.st57{fill-rule:evenodd;clip-rule:evenodd;fill:url(#SVGID_16_);}
	.st58{fill-rule:evenodd;clip-rule:evenodd;fill:url(#SVGID_17_);}
	.st59{fill-rule:evenodd;clip-rule:evenodd;fill:url(#SVGID_18_);}
	.st60{fill-rule:evenodd;clip-rule:evenodd;fill:url(#SVGID_19_);}
	.st61{fill-rule:evenodd;clip-rule:evenodd;fill:url(#SVGID_20_);}
	.st62{fill-rule:evenodd;clip-rule:evenodd;fill:url(#SVGID_21_);}
	.st63{fill-rule:evenodd;clip-rule:evenodd;fill:url(#SVGID_22_);}
	.st64{fill-rule:evenodd;clip-rule:evenodd;fill:url(#SVGID_23_);}
	.st65{fill-rule:evenodd;clip-rule:evenodd;fill:url(#SVGID_24_);}
	.st66{fill-rule:evenodd;clip-rule:evenodd;fill:#9E1209;}
	.st67{fill-rule:evenodd;clip-rule:evenodd;fill:url(#SVGID_25_);}
	.st68{fill-rule:evenodd;clip-rule:evenodd;fill:url(#SVGID_26_);}
	.st69{fill-rule:evenodd;clip-rule:evenodd;fill:url(#SVGID_27_);}
	.st70{fill-rule:evenodd;clip-rule:evenodd;fill:url(#SVGID_28_);}
	.st71{fill:#092E20;}
	.st72{fill-rule:evenodd;clip-rule:evenodd;fill:#FF9900;}
	.st73{fill:#E23237;}
	.st74{fill:#B52E31;}
	.st75{fill:#2F406A;}
	.st76{fill:#2379BD;}
	.st77{fill:#03AFEF;}
	.st78{fill:#953CAD;}
</style>
<g>
	<rect y="162.7" class="st1" width="256" height="137.4"/>
	<g>
		<path class="st2" d="M34.6,288.5c-0.8,1.4-1.9,2.5-3.4,3.2c-1.4,0.7-3,1.1-4.7,1.1c-1.8,0-3.3-0.3-4.7-1c-1.4-0.7-2.5-1.7-3.3-3
			s-1.2-2.8-1.2-4.4c0-0.2,0.1-0.4,0.2-0.6s0.3-0.2,0.5-0.2h4c0.4,0,0.6,0.1,0.8,0.2c0.1,0.1,0.3,0.4,0.4,0.8
			c0.2,0.8,0.6,1.5,1.2,1.9c0.5,0.4,1.3,0.6,2.3,0.6c1.2,0,2-0.3,2.6-1s0.9-1.7,0.9-3v-10H19.6c-0.2,0-0.4-0.1-0.6-0.3
			c-0.2-0.2-0.2-0.4-0.2-0.7v-3.8c0-0.3,0.1-0.5,0.2-0.7c0.2-0.2,0.4-0.3,0.6-0.3h15.5c0.2,0,0.4,0.1,0.6,0.3s0.2,0.4,0.2,0.7v15
			C35.8,285.4,35.4,287,34.6,288.5z"/>
		<path class="st2" d="M60.4,291.2c0.1,0.2,0.1,0.4,0.1,0.5c0,0.2-0.1,0.4-0.2,0.6s-0.3,0.2-0.5,0.2h-3.9c-0.4,0-0.6-0.1-0.8-0.3
			s-0.3-0.4-0.4-0.6l-0.9-3h-8.3l-0.9,3c-0.1,0.2-0.2,0.4-0.4,0.6s-0.5,0.3-0.8,0.3h-3.9c-0.2,0-0.3-0.1-0.5-0.2
			c-0.2-0.1-0.2-0.3-0.2-0.6c0-0.1,0-0.3,0.1-0.5l6.8-22.5c0.1-0.3,0.3-0.6,0.5-0.8c0.2-0.2,0.5-0.3,0.9-0.3h5
			c0.4,0,0.7,0.1,0.9,0.3s0.4,0.5,0.5,0.8L60.4,291.2z M52.3,283l-2.5-8.6l-2.5,8.6H52.3z"/>
		<path class="st2" d="M68.8,291l-6.3-22.4c-0.1-0.2-0.1-0.4-0.1-0.5c0-0.2,0.1-0.4,0.2-0.6c0.1-0.2,0.3-0.2,0.5-0.2H67
			c0.4,0,0.6,0.1,0.8,0.3c0.2,0.2,0.3,0.4,0.4,0.6l4.3,15.7l4.3-15.7c0.1-0.2,0.2-0.4,0.4-0.6s0.5-0.3,0.8-0.3h3.9
			c0.2,0,0.3,0.1,0.5,0.2c0.1,0.2,0.2,0.3,0.2,0.6c0,0.1,0,0.3-0.1,0.5L76.2,291c-0.3,1-0.8,1.4-1.6,1.4h-4.1
			C69.6,292.5,69.1,292,68.8,291z"/>
		<path class="st2" d="M107.1,291.2c0.1,0.2,0.1,0.4,0.1,0.5c0,0.2-0.1,0.4-0.2,0.6s-0.3,0.2-0.5,0.2h-3.9c-0.4,0-0.6-0.1-0.8-0.3
			s-0.3-0.4-0.4-0.6l-0.9-3h-8.3l-0.9,3c-0.1,0.2-0.2,0.4-0.4,0.6s-0.5,0.3-0.8,0.3h-3.9c-0.2,0-0.3-0.1-0.5-0.2
			c-0.2-0.1-0.2-0.3-0.2-0.6c0-0.1,0-0.3,0.1-0.5l6.8-22.5c0.1-0.3,0.3-0.6,0.5-0.8c0.2-0.2,0.5-0.3,0.9-0.3h5
			c0.4,0,0.7,0.1,0.9,0.3s0.4,0.5,0.5,0.8L107.1,291.2z M98.9,283l-2.5-8.6l-2.5,8.6H98.9z"/>
		<path class="st2" d="M129.1,274.7c-0.1,0.2-0.3,0.2-0.5,0.2h-4.1c-0.3,0-0.5,0-0.7-0.1c-0.2-0.1-0.4-0.2-0.6-0.4
			c0,0-0.2-0.2-0.4-0.5s-0.6-0.5-1.1-0.7s-1.1-0.3-1.7-0.3c-0.9,0-1.6,0.1-2.2,0.4c-0.6,0.3-0.9,0.7-0.9,1.4c0,0.5,0.2,0.9,0.5,1.1
			c0.4,0.3,0.9,0.5,1.6,0.7c0.7,0.2,2,0.5,3.8,1c2.3,0.5,4.1,1.4,5.2,2.6c1.1,1.2,1.6,2.8,1.6,5c0,1.6-0.4,3-1.2,4.1
			c-0.8,1.2-2,2.1-3.4,2.7c-1.4,0.6-3.1,0.9-5,0.9c-1.8,0-3.4-0.4-4.8-1.1c-1.4-0.7-2.6-1.6-3.4-2.8c-0.8-1.1-1.3-2.3-1.3-3.5
			c0-0.2,0.1-0.4,0.2-0.6c0.1-0.2,0.3-0.2,0.4-0.2h4.1c0.5,0,0.8,0.2,1.2,0.5c0.1,0.1,0.2,0.3,0.5,0.6s0.7,0.7,1.2,0.9
			c0.5,0.3,1.2,0.4,1.9,0.4c2.6,0,3.8-0.6,3.8-1.9c0-0.4-0.2-0.7-0.5-1c-0.4-0.3-0.9-0.5-1.5-0.7c-0.7-0.2-1.7-0.5-3.2-0.8l-1.4-0.3
			c-2.1-0.5-3.7-1.4-4.7-2.6s-1.5-2.9-1.5-4.9c0-1.4,0.4-2.7,1.1-3.8c0.7-1.2,1.8-2.1,3.1-2.8c1.3-0.7,2.9-1.1,4.6-1.1
			c1.7,0,3.2,0.4,4.6,1.1c1.4,0.7,2.5,1.6,3.3,2.7c0.8,1.1,1.2,2.2,1.3,3.2C129.3,274.4,129.2,274.5,129.1,274.7z"/>
		<path class="st2" d="M141.5,286c0.6,0.8,1.6,1.1,2.9,1.1c1.2,0,2.1-0.3,2.7-0.8s1-1.2,1.2-2c0.1-0.4,0.2-0.7,0.4-0.8
			c0.1-0.1,0.4-0.2,0.7-0.2h4.1c0.2,0,0.3,0.1,0.5,0.2c0.1,0.2,0.2,0.3,0.2,0.6c0,1.6-0.5,3.1-1.3,4.4c-0.9,1.3-2,2.4-3.5,3.2
			s-3.1,1.2-4.9,1.2c-1.9,0-3.6-0.4-5-1.3c-1.4-0.9-2.5-2-3.3-3.5s-1.2-3.1-1.3-4.9c0-1.1-0.1-2.1-0.1-2.8c0-0.9,0-2.1,0.1-3.5
			c0.1-1.8,0.5-3.4,1.3-4.9s1.9-2.6,3.3-3.5c1.4-0.9,3.1-1.3,5-1.3c1.8,0,3.4,0.4,4.9,1.2s2.6,1.9,3.5,3.2s1.3,2.8,1.3,4.4
			c0,0.2-0.1,0.4-0.2,0.6c-0.1,0.2-0.3,0.2-0.5,0.2h-4.1c-0.3,0-0.6-0.1-0.7-0.2c-0.1-0.1-0.2-0.4-0.4-0.8c-0.2-0.8-0.6-1.5-1.2-2
			s-1.5-0.8-2.7-0.8c-1.3,0-2.3,0.4-2.9,1.1c-0.6,0.8-1,1.8-1,3c0,0.8-0.1,1.8-0.1,3c0,1.1,0,2.1,0.1,3
			C140.5,284.2,140.9,285.2,141.5,286z"/>
		<path class="st2" d="M175.3,269.5c1.5,1.4,2.3,3.4,2.3,6.1c0,3.5-1.2,5.8-3.7,7.2l3.8,8.5c0.1,0.1,0.1,0.3,0.1,0.4
			c0,0.2-0.1,0.4-0.2,0.6s-0.3,0.2-0.5,0.2h-4.2c-0.4,0-0.7-0.1-0.8-0.3c-0.2-0.2-0.3-0.4-0.5-0.7l-3.4-7.7h-2.9v7.7
			c0,0.3-0.1,0.5-0.2,0.7c-0.2,0.2-0.4,0.3-0.6,0.3h-4.1c-0.2,0-0.4-0.1-0.6-0.3c-0.2-0.2-0.2-0.4-0.2-0.7v-23.1
			c0-0.3,0.1-0.5,0.2-0.7c0.2-0.2,0.4-0.3,0.6-0.3h8.4C171.6,267.5,173.8,268,175.3,269.5z M168.9,278.2c2,0,3-0.9,3-2.6
			s-1-2.6-3-2.6h-3.5v5.3L168.9,278.2L168.9,278.2z"/>
		<path class="st2" d="M183.8,292.2c-0.2-0.2-0.2-0.4-0.2-0.7v-23.1c0-0.3,0.1-0.5,0.2-0.7c0.2-0.2,0.4-0.3,0.6-0.3h4.1
			c0.2,0,0.4,0.1,0.6,0.3c0.2,0.2,0.2,0.4,0.2,0.7v23.1c0,0.3-0.1,0.5-0.2,0.7c-0.2,0.2-0.4,0.3-0.6,0.3h-4.1
			C184.2,292.5,184,292.4,183.8,292.2z"/>
		<path class="st2" d="M212.1,269.5c1.5,1.4,2.3,3.5,2.3,6.2s-0.8,4.8-2.3,6.3c-1.5,1.4-3.6,2.1-6.3,2.1h-4v7.3
			c0,0.3-0.1,0.5-0.2,0.7c-0.2,0.2-0.4,0.3-0.6,0.3h-4.1c-0.2,0-0.4-0.1-0.6-0.3c-0.2-0.2-0.2-0.4-0.2-0.7v-23.1
			c0-0.3,0.1-0.5,0.2-0.7c0.2-0.2,0.4-0.3,0.6-0.3h8.9C208.5,267.5,210.6,268.2,212.1,269.5z M205.6,278.7c0.9,0,1.6-0.2,2.2-0.7
			c0.5-0.5,0.8-1.2,0.8-2.1c0-1-0.3-1.7-0.8-2.1c-0.5-0.5-1.3-0.7-2.2-0.7h-3.8v5.7L205.6,278.7L205.6,278.7z"/>
		<path class="st2" d="M235.5,267.7c0.2,0.2,0.2,0.4,0.2,0.7v3.8c0,0.3-0.1,0.5-0.2,0.7c-0.2,0.2-0.4,0.3-0.6,0.3h-5.5v18.4
			c0,0.3-0.1,0.5-0.2,0.7c-0.2,0.2-0.4,0.3-0.6,0.3h-4.1c-0.2,0-0.4-0.1-0.6-0.3c-0.2-0.2-0.2-0.4-0.2-0.7v-18.4h-5.5
			c-0.2,0-0.4-0.1-0.6-0.3c-0.2-0.2-0.2-0.4-0.2-0.7v-3.8c0-0.3,0.1-0.5,0.2-0.7c0.2-0.2,0.4-0.3,0.6-0.3h16.7
			C235.2,267.5,235.4,267.5,235.5,267.7z"/>
	</g>
	<path class="st26" d="M60-0.1h136c33.1,0,60,26.9,60,60v136c0,33.1-26.9,60-60,60H60c-33.1,0-60-26.9-60-60v-136
		C0,26.9,26.8-0.1,60-0.1z"/>
	<path class="st27" d="M67.3,213.9L86.9,202c3.8,6.7,7.2,12.4,15.5,12.4c7.9,0,12.9-3.1,12.9-15.1v-81.8h24.1v82.1
		c0,24.9-14.6,36.3-35.9,36.3C84.1,235.9,73,225.9,67.3,213.9"/>
	<path class="st27" d="M152.4,211.4l19.6-11.3c5.2,8.4,11.9,14.6,23.7,14.6c10,0,16.3-5,16.3-11.9c0-8.2-6.5-11.2-17.5-16l-6-2.6
		c-17.4-7.4-28.9-16.7-28.9-36.3c0-18,13.7-31.8,35.2-31.8c15.3,0,26.3,5.3,34.2,19.2l-18.7,12c-4.1-7.4-8.6-10.3-15.5-10.3
		c-7,0-11.5,4.5-11.5,10.3c0,7.2,4.5,10.1,14.8,14.6l6,2.6c20.4,8.8,32,17.7,32,37.8c0,21.7-17,33.5-39.9,33.5
		C173.8,235.9,159.4,225.3,152.4,211.4"/>
</g>
</svg>
