<?xml version="1.0" encoding="utf-8"?>
<!-- Generator: Adobe Illustrator 24.3.0, SVG Export Plug-In . SVG Version: 6.00 Build 0)  -->
<svg version="1.1" id="Layer_1" xmlns="http://www.w3.org/2000/svg" xmlns:xlink="http://www.w3.org/1999/xlink" x="0px" y="0px"
	 viewBox="0 0 256 300" style="enable-background:new 0 0 256 300;" xml:space="preserve">
<style type="text/css">
	.st0{fill:#FFFFFF;}
	.st1{fill:#231F20;}
	.st2{fill-rule:evenodd;clip-rule:evenodd;fill:#FFFFFF;}
	.st3{fill-rule:evenodd;clip-rule:evenodd;fill:#00F2E6;}
	.st4{fill-rule:evenodd;clip-rule:evenodd;fill:#00B9F1;}
	.st5{fill-rule:evenodd;clip-rule:evenodd;fill:#D63AFF;}
	.st6{fill-rule:evenodd;clip-rule:evenodd;fill:#FB015B;}
</style>
<path class="st0" d="M27.5,162.6h201c15.2,0,27.5,12.3,27.5,27.5v82.4c0,15.2-12.3,27.5-27.5,27.5h-201C12.3,300,0,287.7,0,272.5
	v-82.4C0,174.9,12.3,162.6,27.5,162.6z"/>
<path class="st1" d="M60,0h136c33.1,0,60,26.9,60,60v136c0,33.1-26.9,60-60,60H60c-33.1,0-60-26.9-60-60V60C0,26.9,26.8,0,60,0z"/>
<g>
	<path class="st1" d="M112,288.5c-0.9,1.4-2.1,2.5-3.6,3.2c-1.5,0.7-3.2,1.1-5,1.1c-1.9,0-3.6-0.3-5.1-1c-1.5-0.7-2.7-1.7-3.5-3
		s-1.3-2.8-1.3-4.5c0-0.2,0.1-0.4,0.2-0.6c0.1-0.2,0.3-0.2,0.5-0.2h4.3c0.4,0,0.7,0.1,0.8,0.2c0.1,0.1,0.3,0.4,0.4,0.8
		c0.3,0.8,0.7,1.5,1.3,1.9c0.6,0.4,1.4,0.6,2.4,0.6c1.2,0,2.2-0.3,2.8-1c0.6-0.7,1-1.7,1-3v-10H95.8c-0.2,0-0.5-0.1-0.6-0.3
		c-0.2-0.2-0.3-0.4-0.3-0.7v-3.8c0-0.3,0.1-0.5,0.3-0.7c0.2-0.2,0.4-0.3,0.6-0.3h16.6c0.2,0,0.5,0.1,0.6,0.3
		c0.2,0.2,0.3,0.4,0.3,0.7v15C113.3,285.3,112.9,287.1,112,288.5z"/>
	<path class="st1" d="M136.1,268.2c0.1-0.3,0.2-0.6,0.4-0.7s0.4-0.2,0.6-0.2h4.4c0.2,0,0.4,0.1,0.5,0.2c0.1,0.2,0.2,0.3,0.2,0.6
		l0,0.3l-4.3,22.8c0,0.3-0.2,0.6-0.5,0.9c-0.3,0.3-0.7,0.4-1.1,0.4h-2.8c-0.4,0-0.8-0.1-1.1-0.4c-0.3-0.3-0.5-0.6-0.6-1l-2.5-8.1
		l-2.5,8.1c-0.1,0.4-0.3,0.7-0.6,1c-0.3,0.3-0.6,0.4-1.1,0.4h-2.8c-0.4,0-0.8-0.1-1.1-0.4c-0.3-0.3-0.5-0.6-0.5-0.9l-4.3-22.8l0-0.3
		c0-0.2,0.1-0.4,0.2-0.6c0.1-0.2,0.3-0.2,0.5-0.2h4.4c0.2,0,0.5,0.1,0.6,0.2c0.2,0.2,0.3,0.4,0.4,0.7l2.1,12.2l2-6.5
		c0.2-0.7,0.6-1,1.1-1h3.1c0.5,0,0.9,0.3,1.1,1l2,6.5L136.1,268.2z"/>
	<path class="st1" d="M162.4,267.6c0.2,0.2,0.3,0.4,0.3,0.7v3.8c0,0.3-0.1,0.5-0.3,0.7s-0.4,0.3-0.6,0.3h-5.9v18.5
		c0,0.3-0.1,0.5-0.3,0.7c-0.2,0.2-0.4,0.3-0.6,0.3h-4.4c-0.2,0-0.5-0.1-0.6-0.3c-0.2-0.2-0.3-0.4-0.3-0.7V273h-5.9
		c-0.2,0-0.5-0.1-0.6-0.3c-0.2-0.2-0.3-0.4-0.3-0.7v-3.8c0-0.3,0.1-0.5,0.3-0.7c0.2-0.2,0.4-0.3,0.6-0.3h17.9
		C162,267.3,162.2,267.4,162.4,267.6z"/>
</g>
<g id="Page-1">
	<g id="jwt_logo" transform="translate(-150.000000, -538.000000)">
		<g id="Group" transform="translate(0.000000, 413.000000)">
			<g id="Shape" transform="translate(150.000000, 125.000000)">
				<g>
					<path class="st2" d="M143.7,79.4l-0.2-55.9h-31.1l0.2,55.9l15.6,21.4L143.7,79.4z"/>
					<path class="st2" d="M112.5,175.1v56.1h31.1v-56.1l-15.6-21.4L112.5,175.1z"/>
					<path class="st3" d="M143.7,175.1l32.8,45.3l25.1-18.3l-32.8-45.3l-25.1-8.1V175.1z"/>
					<path class="st3" d="M112.5,79.4l-33-45.3L54.4,52.4l32.8,45.3l25.3,8.1V79.4z"/>
					<path class="st4" d="M87.2,97.6L34,80.4l-9.6,29.5l53.2,17.4l25.1-8.3L87.2,97.6z"/>
					<path class="st4" d="M153.2,135.4l15.6,21.4L222,174l9.6-29.5l-53.2-17.2L153.2,135.4z"/>
					<path class="st5" d="M178.4,127.3l53.2-17.4L222,80.4l-53.2,17.2L153.2,119L178.4,127.3z"/>
					<path class="st5" d="M77.6,127.3l-53.2,17.2L34,174l53.2-17.2l15.6-21.4L77.6,127.3z"/>
					<path class="st6" d="M87.2,156.8l-32.8,45.3l25.1,18.3l33-45.3v-26.4L87.2,156.8z"/>
					<path class="st6" d="M168.8,97.6l32.8-45.3l-25.1-18.3l-32.8,45.3v26.4L168.8,97.6z"/>
				</g>
			</g>
		</g>
	</g>
</g>
</svg>
