<?xml version="1.0" encoding="utf-8"?>
<!-- Generator: Adobe Illustrator 24.3.0, SVG Export Plug-In . SVG Version: 6.00 Build 0)  -->
<svg version="1.1" id="Layer_1" xmlns="http://www.w3.org/2000/svg" xmlns:xlink="http://www.w3.org/1999/xlink" x="0px" y="0px"
	 viewBox="0 0 256 300" style="enable-background:new 0 0 256 300;" xml:space="preserve">
<style type="text/css">
	.st0{fill:#FFFFFF;}
	.st1{fill:#0D1117;}
	.st2{fill:#242938;}
	.st3{fill:#F58219;}
</style>
<path class="st0" d="M27.5,162.6h201c15.2,0,27.5,12.3,27.5,27.5v82.4c0,15.2-12.3,27.5-27.5,27.5h-201C12.3,300,0,287.7,0,272.5
	v-82.4C0,174.9,12.3,162.6,27.5,162.6z"/>
<g>
	<path class="st1" d="M99.2,288.6c-0.8,1.4-1.9,2.5-3.4,3.2c-1.4,0.7-3,1.1-4.7,1.1c-1.8,0-3.3-0.3-4.7-1c-1.4-0.7-2.5-1.7-3.3-3
		s-1.2-2.8-1.2-4.4c0-0.2,0.1-0.4,0.2-0.6s0.3-0.2,0.5-0.2h4c0.4,0,0.6,0.1,0.8,0.2c0.1,0.1,0.3,0.4,0.4,0.8
		c0.2,0.8,0.6,1.5,1.2,1.9c0.5,0.4,1.3,0.6,2.3,0.6c1.2,0,2-0.3,2.6-1s0.9-1.7,0.9-3v-10H84.2c-0.2,0-0.4-0.1-0.6-0.3
		c-0.2-0.2-0.2-0.4-0.2-0.7v-3.8c0-0.3,0.1-0.5,0.2-0.7c0.2-0.2,0.4-0.3,0.6-0.3h15.5c0.2,0,0.4,0.1,0.6,0.3
		c0.2,0.2,0.2,0.4,0.2,0.7v15C100.4,285.4,100,287.1,99.2,288.6z"/>
	<path class="st1" d="M125,291.2c0.1,0.2,0.1,0.4,0.1,0.5c0,0.2-0.1,0.4-0.2,0.6s-0.3,0.2-0.5,0.2h-3.9c-0.4,0-0.6-0.1-0.8-0.3
		c-0.2-0.2-0.3-0.4-0.4-0.6l-0.9-3h-8.3l-0.9,3c-0.1,0.2-0.2,0.4-0.4,0.6c-0.2,0.2-0.5,0.3-0.8,0.3h-3.9c-0.2,0-0.3-0.1-0.5-0.2
		s-0.2-0.3-0.2-0.6c0-0.1,0-0.3,0.1-0.5l6.8-22.5c0.1-0.3,0.3-0.6,0.5-0.8c0.2-0.2,0.5-0.3,0.9-0.3h5c0.4,0,0.7,0.1,0.9,0.3
		c0.2,0.2,0.4,0.5,0.5,0.8L125,291.2z M116.9,283.1l-2.5-8.6l-2.5,8.6H116.9z"/>
	<path class="st1" d="M133.4,291.1l-6.3-22.4c-0.1-0.2-0.1-0.4-0.1-0.5c0-0.2,0.1-0.4,0.2-0.6s0.3-0.2,0.5-0.2h3.9
		c0.4,0,0.6,0.1,0.8,0.3c0.2,0.2,0.3,0.4,0.4,0.6l4.3,15.7l4.3-15.7c0.1-0.2,0.2-0.4,0.4-0.6s0.5-0.3,0.8-0.3h3.9
		c0.2,0,0.3,0.1,0.5,0.2c0.1,0.2,0.2,0.3,0.2,0.6c0,0.1,0,0.3-0.1,0.5l-6.3,22.4c-0.3,1-0.8,1.4-1.6,1.4h-4.1
		C134.2,292.5,133.7,292,133.4,291.1z"/>
	<path class="st1" d="M171.3,291.2c0.1,0.2,0.1,0.4,0.1,0.5c0,0.2-0.1,0.4-0.2,0.6c-0.1,0.2-0.3,0.2-0.5,0.2h-3.9
		c-0.4,0-0.6-0.1-0.8-0.3c-0.2-0.2-0.3-0.4-0.4-0.6l-0.9-3h-8.3l-0.9,3c-0.1,0.2-0.2,0.4-0.4,0.6s-0.5,0.3-0.8,0.3h-3.9
		c-0.2,0-0.3-0.1-0.5-0.2s-0.2-0.3-0.2-0.6c0-0.1,0-0.3,0.1-0.5l6.8-22.5c0.1-0.3,0.3-0.6,0.5-0.8c0.2-0.2,0.5-0.3,0.9-0.3h5
		c0.4,0,0.7,0.1,0.9,0.3c0.2,0.2,0.4,0.5,0.5,0.8L171.3,291.2z M163.2,283.1l-2.5-8.6l-2.5,8.6H163.2z"/>
</g>
<path class="st2" d="M60,0h136c33.1,0,60,26.9,60,60v136c0,33.1-26.9,60-60,60H60c-33.1,0-60-26.9-60-60V60C0,26.9,26.8,0,60,0z"/>
<path class="st0" d="M101.6,182.6c0,0-7.7,4.7,5.3,6c15.7,2,24,1.7,41.4-1.7c0,0,4.7,3,11,5.3C120.3,209,70.9,191.3,101.6,182.6z
	 M96.6,160.9c0,0-8.3,6.3,4.7,7.7c17,1.7,30.4,2,53.4-2.7c0,0,3,3.3,8,5C115.6,185,62.9,172.3,96.6,160.9L96.6,160.9z M188.8,199
	c0,0,5.7,4.7-6.3,8.4c-22.4,6.7-93.8,8.7-113.9,0c-7-3,6.3-7.4,10.7-8c4.3-1,6.7-1,6.7-1c-7.7-5.3-51.1,11-22,15.7
	C143.7,227.1,209.5,208.4,188.8,199L188.8,199z M105.3,138.2c0,0-36.4,8.7-13,11.7c10,1.3,29.7,1,48.1-0.3c15-1.3,30.1-4,30.1-4
	s-5.3,2.3-9,4.7c-37.1,9.7-108.2,5.4-87.9-4.7C90.9,137.2,105.3,138.2,105.3,138.2L105.3,138.2z M170.4,174.6
	c37.4-19.4,20-38.1,8-35.7c-3,0.7-4.3,1.3-4.3,1.3s1-2,3.3-2.7c23.7-8.3,42.4,25-7.7,38.1C169.7,175.6,170.1,175.3,170.4,174.6
	L170.4,174.6z M108.9,227.4c36.1,2.3,91.2-1.3,92.5-18.4c0,0-2.7,6.7-29.7,11.7c-30.7,5.7-68.8,5-91.2,1.3
	C80.6,222,85.2,226,108.9,227.4L108.9,227.4z"/>
<path class="st3" d="M147.7,28c0,0,20.7,21-19.7,52.8c-32.4,25.7-7.4,40.4,0,57.1c-19-17-32.7-32.1-23.4-46.1
	C118.3,71.1,156,61.1,147.7,28z M137,123.8c9.7,11-2.7,21-2.7,21s24.7-12.7,13.4-28.4c-10.4-15-18.4-22.4,25-47.4
	C172.7,69.1,104.2,86.1,137,123.8L137,123.8z"/>
</svg>
