<?xml version="1.0" encoding="utf-8"?>
<!-- Generator: Adobe Illustrator 24.3.0, SVG Export Plug-In . SVG Version: 6.00 Build 0)  -->
<svg version="1.1" id="Layer_1" xmlns="http://www.w3.org/2000/svg" xmlns:xlink="http://www.w3.org/1999/xlink" x="0px" y="0px"
	 viewBox="0 0 256 300" style="enable-background:new 0 0 256 300;" xml:space="preserve">
<style type="text/css">
	.st0{fill:#FFFFFF;}
	.st1{fill:#231F20;}
	.st2{fill:#A9CBD4;}
	.st3{clip-path:url(#SVGID_1_);}
</style>
<path class="st0" d="M27.5,162.6h201c15.2,0,27.5,12.3,27.5,27.5v82.4c0,15.2-12.3,27.5-27.5,27.5h-201C12.3,300,0,287.7,0,272.5
	v-82.4C0,174.9,12.3,162.6,27.5,162.6z"/>
<g>
	<path class="st1" d="M94,291.7c0,0.2-0.1,0.4-0.2,0.6c-0.1,0.2-0.3,0.2-0.5,0.2H88c-0.3,0-0.5-0.1-0.7-0.2
		c-0.2-0.1-0.4-0.3-0.6-0.6l-6.3-8.6v8.4c0,0.3-0.1,0.5-0.3,0.7c-0.2,0.2-0.4,0.3-0.6,0.3h-4.4c-0.2,0-0.5-0.1-0.6-0.3
		c-0.2-0.2-0.3-0.4-0.3-0.7v-23.3c0-0.3,0.1-0.5,0.3-0.7c0.2-0.2,0.4-0.3,0.6-0.3h4.4c0.2,0,0.5,0.1,0.6,0.3
		c0.2,0.2,0.3,0.4,0.3,0.7v7.6l5.9-7.8c0.2-0.2,0.4-0.4,0.5-0.6c0.2-0.1,0.4-0.2,0.8-0.2h5.2c0.2,0,0.4,0.1,0.5,0.2
		c0.1,0.2,0.2,0.3,0.2,0.6c0,0.1,0,0.3-0.1,0.4l-8.2,10.9l8.8,12C94,291.4,94,291.5,94,291.7z"/>
	<path class="st1" d="M117.7,291.1c0.1,0.2,0.1,0.4,0.1,0.5c0,0.2-0.1,0.4-0.2,0.6c-0.1,0.2-0.3,0.2-0.5,0.2h-4.2
		c-0.4,0-0.7-0.1-0.9-0.3c-0.2-0.2-0.3-0.4-0.4-0.6l-0.9-3h-8.9l-0.9,3c-0.1,0.2-0.2,0.5-0.4,0.6c-0.2,0.2-0.5,0.3-0.9,0.3h-4.2
		c-0.2,0-0.4-0.1-0.5-0.2c-0.1-0.2-0.2-0.3-0.2-0.6c0-0.1,0-0.3,0.1-0.5l7.3-22.7c0.1-0.3,0.3-0.6,0.5-0.8c0.2-0.2,0.6-0.3,1-0.3
		h5.4c0.4,0,0.7,0.1,1,0.3c0.2,0.2,0.4,0.5,0.5,0.8L117.7,291.1z M108.9,283l-2.7-8.6l-2.7,8.6H108.9z"/>
	<path class="st1" d="M137.2,267.6c0.2,0.2,0.3,0.4,0.3,0.7v3.8c0,0.3-0.1,0.5-0.3,0.7s-0.4,0.3-0.6,0.3h-9.9v4.9h9.3
		c0.2,0,0.5,0.1,0.6,0.3c0.2,0.2,0.3,0.4,0.3,0.7v3.8c0,0.3-0.1,0.5-0.3,0.7c-0.2,0.2-0.4,0.3-0.6,0.3h-9.3v7.8
		c0,0.3-0.1,0.5-0.3,0.7c-0.2,0.2-0.4,0.3-0.6,0.3h-4.4c-0.2,0-0.5-0.1-0.6-0.3c-0.2-0.2-0.3-0.4-0.3-0.7v-23.3
		c0-0.3,0.1-0.5,0.3-0.7c0.2-0.2,0.4-0.3,0.6-0.3h15.2C136.8,267.3,137,267.4,137.2,267.6z"/>
	<path class="st1" d="M160.8,291.7c0,0.2-0.1,0.4-0.2,0.6c-0.1,0.2-0.3,0.2-0.5,0.2h-5.3c-0.3,0-0.5-0.1-0.7-0.2
		c-0.2-0.1-0.4-0.3-0.6-0.6l-6.3-8.6v8.4c0,0.3-0.1,0.5-0.3,0.7c-0.2,0.2-0.4,0.3-0.6,0.3h-4.4c-0.2,0-0.5-0.1-0.6-0.3
		c-0.2-0.2-0.3-0.4-0.3-0.7v-23.3c0-0.3,0.1-0.5,0.3-0.7c0.2-0.2,0.4-0.3,0.6-0.3h4.4c0.2,0,0.5,0.1,0.6,0.3
		c0.2,0.2,0.3,0.4,0.3,0.7v7.6l5.9-7.8c0.2-0.2,0.4-0.4,0.5-0.6c0.2-0.1,0.4-0.2,0.8-0.2h5.2c0.2,0,0.4,0.1,0.5,0.2
		c0.1,0.2,0.2,0.3,0.2,0.6c0,0.1,0,0.3-0.1,0.4l-8.2,10.9l8.8,12C160.8,291.4,160.8,291.5,160.8,291.7z"/>
	<path class="st1" d="M183.6,291.1c0.1,0.2,0.1,0.4,0.1,0.5c0,0.2-0.1,0.4-0.2,0.6c-0.1,0.2-0.3,0.2-0.5,0.2h-4.2
		c-0.4,0-0.7-0.1-0.9-0.3c-0.2-0.2-0.3-0.4-0.4-0.6l-0.9-3h-8.9l-0.9,3c-0.1,0.2-0.2,0.5-0.4,0.6c-0.2,0.2-0.5,0.3-0.9,0.3h-4.2
		c-0.2,0-0.4-0.1-0.5-0.2c-0.1-0.2-0.2-0.3-0.2-0.6c0-0.1,0-0.3,0.1-0.5l7.3-22.7c0.1-0.3,0.3-0.6,0.5-0.8c0.2-0.2,0.6-0.3,1-0.3
		h5.4c0.4,0,0.7,0.1,1,0.3c0.2,0.2,0.4,0.5,0.5,0.8L183.6,291.1z M174.9,283l-2.7-8.6l-2.7,8.6H174.9z"/>
</g>
<path class="st2" d="M60,0h136c33.1,0,60,26.9,60,60v136c0,33.1-26.9,60-60,60H60c-33.1,0-60-26.9-60-60V60C0,26.9,26.9,0,60,0z"/>
<g>
	<defs>
		<rect id="SVGID_3_" x="66" y="28" width="123" height="200"/>
	</defs>
	<clipPath id="SVGID_1_">
		<use xlink:href="#SVGID_3_"  style="overflow:visible;"/>
	</clipPath>
	<g class="st3">
		<path d="M163,138.7c-7.8,0-14.8,3.4-19.5,8.9l-12.2-8.7c1.3-3.6,2-7.4,2-11.4c0-3.9-0.7-7.7-2-11.2l12.2-8.6
			c4.8,5.4,11.7,8.8,19.5,8.8c14.4,0,26-11.7,26-26c0-14.4-11.7-26-26-26c-14.4,0-26,11.7-26,26c0,2.6,0.4,5,1.1,7.4l-12.2,8.6
			c-5.1-6.3-12.5-10.8-20.8-12.1V79.6c11.8-2.5,20.7-13,20.7-25.5c0-14.4-11.7-26-26-26c-14.4,0-26,11.7-26,26
			c0,12.4,8.7,22.7,20.2,25.4v14.9C78,97.1,66,110.9,66,127.4c0,16.6,12.2,30.5,28,33.1v15.8c-11.7,2.6-20.5,13-20.5,25.4
			c0,14.4,11.7,26,26,26c14.4,0,26-11.7,26-26c0-12.4-8.8-22.9-20.5-25.4v-15.8c8-1.4,15.3-5.6,20.5-11.9l12.3,8.7
			c-0.7,2.3-1.1,4.8-1.1,7.3c0,14.4,11.7,26,26,26c14.4,0,26-11.7,26-26C189,150.4,177.4,138.7,163,138.7z M163,77.8
			c7,0,12.6,5.7,12.6,12.6S170,103,163,103s-12.6-5.7-12.6-12.6S156,77.8,163,77.8z M87,54.1c0-7,5.7-12.6,12.6-12.6
			c7,0,12.6,5.7,12.6,12.6s-5.7,12.6-12.6,12.6C92.7,66.7,87,61,87,54.1z M112.3,201.8c0,7-5.7,12.6-12.6,12.6
			c-7,0-12.6-5.7-12.6-12.6c0-7,5.7-12.6,12.6-12.6C106.6,189.1,112.3,194.8,112.3,201.8z M99.6,145.1c-9.7,0-17.6-7.9-17.6-17.6
			s7.9-17.6,17.6-17.6c9.7,0,17.6,7.9,17.6,17.6S109.3,145.1,99.6,145.1z M163,177.3c-7,0-12.6-5.7-12.6-12.6
			c0-7,5.7-12.6,12.6-12.6s12.6,5.7,12.6,12.6C175.6,171.7,170,177.3,163,177.3z"/>
	</g>
</g>
</svg>
