<?xml version="1.0" encoding="utf-8"?>
<!-- Generator: Adobe Illustrator 24.3.0, SVG Export Plug-In . SVG Version: 6.00 Build 0)  -->
<svg version="1.1" id="Layer_1" xmlns="http://www.w3.org/2000/svg" xmlns:xlink="http://www.w3.org/1999/xlink" x="0px" y="0px"
	 viewBox="0 0 256 300" style="enable-background:new 0 0 256 300;" xml:space="preserve">
<style type="text/css">
	.st0{fill:#FFFFFF;}
	.st1{fill:#231F20;}
	.st2{fill:#326CE5;}
	.st3{fill:#FFFFFF;stroke:#FFFFFF;stroke-width:0.11;}
</style>
<path class="st0" d="M27.5,162.6h201c15.2,0,27.5,12.3,27.5,27.5v82.4c0,15.2-12.3,27.5-27.5,27.5h-201C12.3,300,0,287.7,0,272.5
	v-82.4C0,174.9,12.3,162.6,27.5,162.6z"/>
<g>
	<path class="st1" d="M37.5,291.7c0,0.2-0.1,0.4-0.2,0.6c-0.1,0.2-0.3,0.2-0.5,0.2h-5.3c-0.3,0-0.5-0.1-0.7-0.2
		c-0.2-0.1-0.4-0.3-0.6-0.6l-6.3-8.6v8.4c0,0.3-0.1,0.5-0.3,0.7c-0.2,0.2-0.4,0.3-0.6,0.3h-4.4c-0.2,0-0.5-0.1-0.6-0.3
		c-0.2-0.2-0.3-0.4-0.3-0.7v-23.3c0-0.3,0.1-0.5,0.3-0.7c0.2-0.2,0.4-0.3,0.6-0.3h4.4c0.2,0,0.5,0.1,0.6,0.3
		c0.2,0.2,0.3,0.4,0.3,0.7v7.6l5.9-7.8c0.2-0.2,0.4-0.4,0.5-0.6c0.2-0.1,0.4-0.2,0.8-0.2h5.2c0.2,0,0.4,0.1,0.5,0.2
		c0.1,0.2,0.2,0.3,0.2,0.6c0,0.1,0,0.3-0.1,0.4l-8.2,10.9l8.8,12C37.4,291.4,37.5,291.5,37.5,291.7z"/>
	<path class="st1" d="M59.8,267.6c0.2,0.2,0.3,0.4,0.3,0.7v14.4c0,2.2-0.4,4-1.3,5.5c-0.8,1.5-2,2.7-3.5,3.5
		c-1.5,0.8-3.3,1.2-5.3,1.2c-2,0-3.8-0.4-5.3-1.2c-1.5-0.8-2.7-2-3.5-3.5c-0.8-1.5-1.2-3.4-1.2-5.5v-14.4c0-0.3,0.1-0.5,0.3-0.7
		c0.2-0.2,0.4-0.3,0.6-0.3h4.4c0.2,0,0.5,0.1,0.6,0.3c0.2,0.2,0.3,0.4,0.3,0.7v14.2c0,1.5,0.3,2.6,1,3.4c0.7,0.8,1.7,1.2,2.9,1.2
		c1.3,0,2.3-0.4,2.9-1.2c0.7-0.8,1-1.9,1-3.4v-14.2c0-0.3,0.1-0.5,0.3-0.7c0.2-0.2,0.4-0.3,0.6-0.3h4.4
		C59.4,267.3,59.6,267.4,59.8,267.6z"/>
	<path class="st1" d="M64.7,292.2c-0.2-0.2-0.3-0.4-0.3-0.7v-23.3c0-0.3,0.1-0.5,0.3-0.7c0.2-0.2,0.4-0.3,0.6-0.3h10.7
		c1.9,0,3.4,0.4,4.6,1.1c1.2,0.7,2,1.6,2.5,2.8c0.5,1.1,0.8,2.3,0.8,3.7c0,1.2-0.2,2.2-0.6,2.9c-0.4,0.7-0.8,1.3-1.3,1.7
		c0.8,0.6,1.4,1.4,1.8,2.2c0.4,0.9,0.5,1.9,0.5,3.1c0,2.2-0.6,4.1-1.9,5.6c-1.2,1.5-3.2,2.2-5.8,2.2H65.3
		C65.1,292.5,64.9,292.4,64.7,292.2z M70.6,272.8v4.1h5.2c0.7,0,1.2-0.2,1.5-0.5c0.3-0.4,0.5-0.9,0.5-1.5c0-0.6-0.2-1.2-0.5-1.5
		c-0.3-0.4-0.8-0.5-1.5-0.5H70.6z M76.1,286.9c0.7,0,1.2-0.2,1.6-0.6c0.4-0.4,0.6-0.9,0.6-1.6c0-0.6-0.2-1.2-0.6-1.6
		c-0.4-0.4-0.9-0.6-1.6-0.6h-5.5v4.4H76.1z"/>
	<path class="st1" d="M94.3,286.7h10.5c0.2,0,0.5,0.1,0.6,0.3c0.2,0.2,0.3,0.4,0.3,0.7v3.8c0,0.3-0.1,0.5-0.3,0.7
		c-0.2,0.2-0.4,0.3-0.6,0.3H89c-0.2,0-0.5-0.1-0.6-0.3c-0.2-0.2-0.3-0.4-0.3-0.7v-23.3c0-0.3,0.1-0.5,0.3-0.7
		c0.2-0.2,0.4-0.3,0.6-0.3h15.5c0.2,0,0.5,0.1,0.6,0.3c0.2,0.2,0.3,0.4,0.3,0.7v3.8c0,0.3-0.1,0.5-0.3,0.7c-0.2,0.2-0.4,0.3-0.6,0.3
		H94.3v3.9h9.5c0.2,0,0.5,0.1,0.6,0.3c0.2,0.2,0.3,0.4,0.3,0.7v3.8c0,0.3-0.1,0.5-0.3,0.7c-0.2,0.2-0.4,0.3-0.6,0.3h-9.5V286.7z"/>
	<path class="st1" d="M126.4,269.3c1.6,1.4,2.5,3.4,2.5,6.2c0,3.5-1.3,5.9-4,7.2l4.1,8.6c0.1,0.1,0.1,0.3,0.1,0.4
		c0,0.2-0.1,0.4-0.2,0.6c-0.1,0.2-0.3,0.2-0.5,0.2h-4.5c-0.4,0-0.7-0.1-0.9-0.3c-0.2-0.2-0.4-0.4-0.5-0.7l-3.7-7.7h-3.1v7.7
		c0,0.3-0.1,0.5-0.3,0.7c-0.2,0.2-0.4,0.3-0.6,0.3h-4.4c-0.2,0-0.5-0.1-0.6-0.3c-0.2-0.2-0.3-0.4-0.3-0.7v-23.3
		c0-0.3,0.1-0.5,0.3-0.7c0.2-0.2,0.4-0.3,0.6-0.3h9C122.4,267.3,124.7,268,126.4,269.3z M119.4,278.2c2.2,0,3.2-0.9,3.2-2.7
		c0-1.8-1.1-2.7-3.2-2.7h-3.8v5.3H119.4z"/>
	<path class="st1" d="M146.9,292.2c-0.2-0.2-0.4-0.4-0.5-0.6l-7.6-12.3v12.2c0,0.3-0.1,0.5-0.3,0.7c-0.2,0.2-0.4,0.3-0.6,0.3h-4.4
		c-0.2,0-0.5-0.1-0.6-0.3c-0.2-0.2-0.3-0.4-0.3-0.7v-23.3c0-0.3,0.1-0.5,0.3-0.7c0.2-0.2,0.4-0.3,0.6-0.3h3.5c0.3,0,0.6,0.1,0.9,0.3
		c0.2,0.2,0.4,0.4,0.5,0.6l7.6,12.3v-12.2c0-0.3,0.1-0.5,0.3-0.7c0.2-0.2,0.4-0.3,0.6-0.3h4.4c0.2,0,0.5,0.1,0.6,0.3
		c0.2,0.2,0.3,0.4,0.3,0.7v23.3c0,0.3-0.1,0.5-0.3,0.7c-0.2,0.2-0.4,0.3-0.6,0.3h-3.5C147.5,292.5,147.2,292.4,146.9,292.2z"/>
	<path class="st1" d="M163,286.7h10.5c0.2,0,0.5,0.1,0.6,0.3c0.2,0.2,0.3,0.4,0.3,0.7v3.8c0,0.3-0.1,0.5-0.3,0.7
		c-0.2,0.2-0.4,0.3-0.6,0.3h-15.8c-0.2,0-0.5-0.1-0.6-0.3c-0.2-0.2-0.3-0.4-0.3-0.7v-23.3c0-0.3,0.1-0.5,0.3-0.7
		c0.2-0.2,0.4-0.3,0.6-0.3h15.5c0.2,0,0.5,0.1,0.6,0.3c0.2,0.2,0.3,0.4,0.3,0.7v3.8c0,0.3-0.1,0.5-0.3,0.7s-0.4,0.3-0.6,0.3H163v3.9
		h9.5c0.2,0,0.5,0.1,0.6,0.3c0.2,0.2,0.3,0.4,0.3,0.7v3.8c0,0.3-0.1,0.5-0.3,0.7c-0.2,0.2-0.4,0.3-0.6,0.3H163V286.7z"/>
	<path class="st1" d="M195.9,267.6c0.2,0.2,0.3,0.4,0.3,0.7v3.8c0,0.3-0.1,0.5-0.3,0.7s-0.4,0.3-0.6,0.3h-5.9v18.5
		c0,0.3-0.1,0.5-0.3,0.7c-0.2,0.2-0.4,0.3-0.6,0.3h-4.4c-0.2,0-0.5-0.1-0.6-0.3c-0.2-0.2-0.3-0.4-0.3-0.7V273h-5.9
		c-0.2,0-0.5-0.1-0.6-0.3c-0.2-0.2-0.3-0.4-0.3-0.7v-3.8c0-0.3,0.1-0.5,0.3-0.7c0.2-0.2,0.4-0.3,0.6-0.3h17.9
		C195.6,267.3,195.8,267.4,195.9,267.6z"/>
	<path class="st1" d="M205.4,286.7h10.5c0.2,0,0.5,0.1,0.6,0.3c0.2,0.2,0.3,0.4,0.3,0.7v3.8c0,0.3-0.1,0.5-0.3,0.7
		c-0.2,0.2-0.4,0.3-0.6,0.3h-15.8c-0.2,0-0.5-0.1-0.6-0.3c-0.2-0.2-0.3-0.4-0.3-0.7v-23.3c0-0.3,0.1-0.5,0.3-0.7
		c0.2-0.2,0.4-0.3,0.6-0.3h15.5c0.2,0,0.5,0.1,0.6,0.3c0.2,0.2,0.3,0.4,0.3,0.7v3.8c0,0.3-0.1,0.5-0.3,0.7s-0.4,0.3-0.6,0.3h-10.2
		v3.9h9.5c0.2,0,0.5,0.1,0.6,0.3c0.2,0.2,0.3,0.4,0.3,0.7v3.8c0,0.3-0.1,0.5-0.3,0.7c-0.2,0.2-0.4,0.3-0.6,0.3h-9.5V286.7z"/>
	<path class="st1" d="M238.8,274.6c-0.1,0.2-0.3,0.2-0.5,0.2H234c-0.3,0-0.6,0-0.7-0.1c-0.2-0.1-0.4-0.2-0.6-0.5
		c0,0-0.2-0.2-0.4-0.5c-0.2-0.3-0.6-0.5-1.1-0.7c-0.5-0.2-1.1-0.3-1.8-0.3c-1,0-1.7,0.1-2.3,0.4s-0.9,0.8-0.9,1.4
		c0,0.5,0.2,0.9,0.6,1.1c0.4,0.3,1,0.5,1.7,0.7c0.8,0.2,2.2,0.5,4.1,1c2.5,0.6,4.3,1.4,5.5,2.6c1.2,1.2,1.8,2.9,1.8,5
		c0,1.6-0.4,3-1.3,4.2c-0.9,1.2-2.1,2.1-3.7,2.7c-1.6,0.6-3.3,1-5.3,1c-1.9,0-3.6-0.4-5.2-1.1c-1.6-0.7-2.8-1.7-3.7-2.8
		c-0.9-1.2-1.4-2.3-1.4-3.6c0-0.2,0.1-0.4,0.2-0.6c0.1-0.2,0.3-0.2,0.5-0.2h4.4c0.5,0,0.9,0.2,1.3,0.5c0.1,0.1,0.2,0.3,0.5,0.6
		c0.3,0.3,0.7,0.7,1.3,0.9c0.6,0.3,1.3,0.4,2.1,0.4c2.8,0,4.1-0.6,4.1-1.9c0-0.4-0.2-0.8-0.6-1c-0.4-0.3-0.9-0.5-1.6-0.7
		c-0.7-0.2-1.8-0.5-3.4-0.8l-1.5-0.3c-2.3-0.5-3.9-1.4-5-2.6c-1.1-1.2-1.6-2.9-1.6-5c0-1.4,0.4-2.7,1.2-3.9c0.8-1.2,1.9-2.1,3.3-2.8
		c1.4-0.7,3.1-1.1,4.9-1.1c1.8,0,3.4,0.4,4.9,1.1c1.5,0.7,2.7,1.7,3.5,2.8c0.9,1.1,1.3,2.2,1.3,3.2C239,274.2,239,274.4,238.8,274.6
		z"/>
</g>
<path class="st2" d="M60,0h136c33.1,0,60,26.9,60,60v136c0,33.1-26.9,60-60,60H60c-33.1,0-60-26.9-60-60V60C0,26.9,26.9,0,60,0z"/>
<path class="st3" d="M128.1,30c-3.3,0.2-5.8,3-5.6,6.3v1.6c0.2,1.8,0.4,3.6,0.8,5.4c0.5,3.4,0.7,6.9,0.6,10.3
	c-0.3,1.1-1,2.2-1.9,2.9l-0.1,2.4c-3.5,0.3-6.9,0.8-10.3,1.6c-14.2,3.2-27.2,10.6-37.2,21.2l-2-1.5C71.3,80.7,70,80.5,69,80
	c-2.8-2-5.3-4.4-7.7-6.9c-1.2-1.4-2.4-2.7-3.7-4l-1.3-1c-1.1-0.9-2.5-1.4-4-1.5c-0.9,0-1.7,0.1-2.5,0.5c-0.8,0.3-1.5,0.9-2,1.6
	c-1.9,2.7-1.3,6.5,1.4,8.4l1.2,0.9c1.5,1,3.1,1.9,4.7,2.8c3,1.7,5.9,3.7,8.5,6c0.7,1,1.1,2.1,1.1,3.3l1.9,1.7
	c-10,15.1-14.2,33.3-11.6,51.2l-2.4,0.7c-0.6,1-1.5,1.8-2.4,2.5c-3.3,0.9-6.7,1.5-10.2,1.7c-1.8,0-3.7,0.2-5.5,0.4l-1.5,0.3h-0.2
	c-1,0.1-2,0.6-2.9,1.3c-0.8,0.7-1.4,1.6-1.8,2.6c-0.3,1-0.4,2.1-0.2,3.1c0.2,1,0.7,2,1.5,2.7c0.7,0.8,1.7,1.3,2.7,1.5
	c1,0.2,2.1,0.2,3.1-0.1h0.1l1.5-0.2c1.7-0.5,3.4-1.1,5.1-1.9c3.2-1.3,6.5-2.3,9.9-2.9c1.2,0.1,2.3,0.5,3.3,1.2l2.6-0.4
	c5.5,17.2,17.2,31.8,32.8,41l-1,2.2c0.5,1,0.7,2.1,0.5,3.2c-1.4,3.3-3.1,6.4-5.1,9.3c-1.1,1.5-2.1,3-3.1,4.5l-0.7,1.5
	c-0.5,0.9-0.8,2-0.8,3c0,1.1,0.3,2.1,0.9,3c0.6,0.9,1.4,1.6,2.3,2c1,0.5,2,0.6,3.1,0.5c1.1-0.1,2-0.5,2.9-1.2
	c0.8-0.7,1.5-1.5,1.8-2.5l0.7-1.4c0.6-1.7,1.2-3.4,1.6-5.2c1.5-3.7,2.3-7.7,4.4-10.2c0.7-0.6,1.5-1.1,2.4-1.2l1.3-2.3
	c16.9,6.5,35.5,6.5,52.4,0.1l1.1,2.2c1.2,0.2,2.2,0.8,2.9,1.7c1.6,3.1,2.9,6.3,3.9,9.6c0.5,1.8,1,3.5,1.7,5.2l0.7,1.5
	c0.4,1,1,1.9,1.8,2.5c0.8,0.6,1.8,1,2.9,1.2c1,0.1,2.1-0.1,3.1-0.5c1-0.4,1.8-1.2,2.3-2c0.6-0.9,0.9-1.9,0.9-3s-0.2-2.1-0.8-3
	l-0.7-1.5c-0.9-1.6-1.9-3.1-3.1-4.5c-2-2.8-3.7-5.9-5.1-9c-0.1-0.6-0.2-1.2-0.1-1.8s0.3-1.1,0.6-1.6c-0.4-0.7-0.7-1.5-0.9-2.3
	c15.5-9.3,27.1-23.9,32.6-41.1l2.4,0.4c0.9-0.8,2-1.2,3.2-1.2c3.4,0.6,6.7,1.7,9.9,2.9c1.7,0.8,3.4,1.4,5.1,2c0.4,0.1,1,0.2,1.5,0.3
	h0.1c1,0.3,2.1,0.4,3.1,0.1c1-0.3,2-0.8,2.7-1.5c0.7-0.8,1.3-1.7,1.5-2.7c0.2-1,0.2-2.1-0.2-3.1c-0.3-1-1-1.9-1.8-2.6
	c-0.8-0.7-1.8-1.1-2.9-1.2l-1.7-0.4c-1.8-0.2-3.6-0.4-5.5-0.4c-3.4-0.2-6.9-0.8-10.2-1.7c-1-0.6-1.9-1.4-2.5-2.5l-2.3-0.7
	c2.5-17.9-1.8-36.1-11.8-51.1l2-1.9c-0.1-1.2,0.3-2.3,1.1-3.2c2.6-2.3,5.5-4.2,8.4-5.9c1.6-0.8,3.2-1.7,4.7-2.8l1.2-1
	c0.9-0.6,1.7-1.4,2.1-2.4s0.7-2.1,0.5-3.1c-0.1-1.1-0.5-2.1-1.2-2.9s-1.6-1.5-2.6-1.8c-1-0.4-2.1-0.4-3.2-0.2
	c-1.1,0.2-2,0.8-2.8,1.5l-1.3,1c-1.3,1.3-2.6,2.6-3.7,4c-2.3,2.6-4.7,4.9-7.4,7c-1.1,0.4-2.3,0.6-3.4,0.4l-2.2,1.5
	c-12.5-13.1-29.2-21.2-47.2-22.8c0-0.9-0.1-2.1-0.1-2.5c-1-0.7-1.6-1.7-1.9-2.8c-0.1-3.4,0.1-6.9,0.6-10.3c0.4-1.8,0.6-3.6,0.8-5.4
	v-1.7C133.9,33.1,131.4,30.3,128.1,30L128.1,30z M121,74.1l-1.7,29.8h-0.1c-0.1,1.8-1.2,3.4-2.8,4.3c-1.7,0.9-3.6,0.6-5.1-0.5
	L86.7,90.4c7.8-7.6,17.5-13,28.2-15.4C116.9,74.6,118.9,74.3,121,74.1L121,74.1z M135.2,74.1c12.8,1.6,24.8,7.4,34,16.4L145,107.7
	c-1.5,1.2-3.5,1.4-5.3,0.6c-1.7-0.8-2.8-2.6-2.9-4.5L135.2,74.1z M77.8,101.6l22.4,20v0.1c1.4,1.2,2,3.1,1.6,4.9
	c-0.4,1.8-1.8,3.2-3.6,3.7v0.1l-28.7,8.3C68.1,125.7,71.1,112.7,77.8,101.6L77.8,101.6z M178.1,101.6c6.8,11.1,9.8,24,8.6,36.9
	l-28.7-8.3v-0.1c-1.8-0.5-3.2-1.9-3.6-3.7c-0.4-1.8,0.2-3.7,1.6-4.9L178.1,101.6L178.1,101.6z M123.5,123.1h9.1l5.6,7.1l-2,8.9
	L128,143l-8.2-3.9l-1.9-8.9L123.5,123.1z M152.8,147.3c0.4,0,0.9,0,1.2,0l29.6,5c-4.3,12.3-12.7,22.8-23.7,29.8l-11.4-27.7
	c-0.3-0.7-0.4-1.6-0.4-2.4c0.1-0.8,0.3-1.6,0.7-2.3c0.4-0.7,1-1.3,1.7-1.7c0.7-0.4,1.5-0.7,2.3-0.7L152.8,147.3z M103.1,147.5
	c1.7,0,3.2,0.9,4.1,2.3c0.9,1.4,1.1,3.2,0.4,4.7v0.1L96.3,182c-10.9-7-19.1-17.3-23.5-29.5l29.3-5
	C102.4,147.5,102.7,147.5,103.1,147.5L103.1,147.5z M127.9,159.4c0.9,0,1.9,0.2,2.7,0.7c0.8,0.5,1.5,1.1,1.9,2h0.1l14.5,26.1
	l-5.8,1.7c-10.6,2.4-21.7,1.9-32.1-1.7l14.5-26.1c0.9-1.5,2.5-2.5,4.3-2.5L127.9,159.4z"/>
</svg>
