<?xml version="1.0" encoding="utf-8"?>
<!-- Generator: Adobe Illustrator 24.3.0, SVG Export Plug-In . SVG Version: 6.00 Build 0)  -->
<svg version="1.1" id="Layer_1" xmlns="http://www.w3.org/2000/svg" xmlns:xlink="http://www.w3.org/1999/xlink" x="0px" y="0px"
	 viewBox="0 0 256 300" style="enable-background:new 0 0 256 300;" xml:space="preserve">
<style type="text/css">
	.st0{fill:#FFFFFF;}
	.st1{fill:#0D1117;}
	.st2{fill:#242938;}
	.st3{fill:url(#SVGID_1_);}
</style>
<path class="st0" d="M27.5,162.6h201c15.2,0,27.5,12.3,27.5,27.5v82.4c0,15.2-12.3,27.5-27.5,27.5h-201C12.3,300,0,287.7,0,272.5
	v-82.4C0,174.9,12.3,162.6,27.5,162.6z"/>
<g>
	<path class="st1" d="M85.4,292.2c0,0.2-0.1,0.4-0.2,0.6s-0.3,0.2-0.5,0.2h-5c-0.3,0-0.5-0.1-0.7-0.2s-0.4-0.3-0.6-0.6l-6-8.7v8.5
		c0,0.3-0.1,0.5-0.3,0.7c-0.2,0.2-0.4,0.3-0.6,0.3h-4.1c-0.2,0-0.4-0.1-0.6-0.3s-0.3-0.4-0.3-0.7v-23.6c0-0.3,0.1-0.5,0.3-0.7
		c0.2-0.2,0.4-0.3,0.6-0.3h4.1c0.2,0,0.4,0.1,0.6,0.3c0.2,0.2,0.3,0.4,0.3,0.7v7.7l5.6-7.9c0.2-0.2,0.3-0.4,0.5-0.6s0.4-0.2,0.8-0.2
		h4.9c0.2,0,0.4,0.1,0.5,0.2c0.1,0.2,0.2,0.3,0.2,0.6c0,0.1,0,0.3-0.1,0.4l-7.8,11l8.4,12.1C85.4,291.9,85.4,292,85.4,292.2z"/>
	<path class="st1" d="M103.5,268.4c1.5,0.9,2.6,2.1,3.4,3.6s1.2,3.2,1.3,5c0,0.7,0.1,1.8,0.1,3.3s0,2.6-0.1,3.2
		c-0.1,1.9-0.5,3.5-1.3,5s-1.9,2.7-3.4,3.6s-3.2,1.3-5.2,1.3s-3.7-0.4-5.2-1.3s-2.6-2.1-3.4-3.6s-1.2-3.2-1.3-5
		c0-1.3-0.1-2.4-0.1-3.2c0-0.8,0-1.9,0.1-3.3c0.1-1.9,0.5-3.5,1.3-5s1.9-2.7,3.4-3.6s3.2-1.3,5.2-1.3S102,267.5,103.5,268.4z
		 M101.2,274.1c-0.7-0.8-1.6-1.2-2.9-1.2s-2.2,0.4-2.9,1.2c-0.7,0.8-1.1,1.8-1.2,3.1c-0.1,0.8-0.1,1.8-0.1,3s0,2.2,0.1,3.1
		c0.1,1.3,0.5,2.3,1.2,3.1c0.7,0.8,1.6,1.2,2.9,1.2s2.2-0.4,2.9-1.2c0.7-0.8,1-1.8,1.2-3.1c0.1-0.9,0.1-1.9,0.1-3.1s0-2.2-0.1-3
		C102.2,275.9,101.8,274.8,101.2,274.1z"/>
	<path class="st1" d="M130.4,267.7c0.2,0.2,0.3,0.4,0.3,0.7v3.9c0,0.3-0.1,0.5-0.3,0.7s-0.4,0.3-0.6,0.3h-5.6V292
		c0,0.3-0.1,0.5-0.3,0.7s-0.4,0.3-0.6,0.3h-4.1c-0.2,0-0.4-0.1-0.6-0.3s-0.3-0.4-0.3-0.7v-18.7h-5.6c-0.2,0-0.4-0.1-0.6-0.3
		c-0.2-0.2-0.3-0.4-0.3-0.7v-3.9c0-0.3,0.1-0.5,0.3-0.7c0.2-0.2,0.4-0.3,0.6-0.3h17C130.1,267.4,130.3,267.5,130.4,267.7z"/>
	<path class="st1" d="M151.3,287.5c0.2,0.2,0.3,0.4,0.3,0.7v3.9c0,0.3-0.1,0.5-0.3,0.7s-0.4,0.3-0.6,0.3H136c-0.2,0-0.4-0.1-0.6-0.3
		s-0.3-0.4-0.3-0.7v-23.6c0-0.3,0.1-0.5,0.3-0.7s0.4-0.3,0.6-0.3h4.1c0.2,0,0.4,0.1,0.6,0.3c0.2,0.2,0.3,0.4,0.3,0.7v18.7h9.7
		C150.9,287.2,151.1,287.3,151.3,287.5z"/>
	<path class="st1" d="M156.2,292.7c-0.2-0.2-0.3-0.4-0.3-0.7v-23.6c0-0.3,0.1-0.5,0.3-0.7s0.4-0.3,0.6-0.3h4.1
		c0.2,0,0.4,0.1,0.6,0.3c0.2,0.2,0.3,0.4,0.3,0.7V292c0,0.3-0.1,0.5-0.3,0.7s-0.4,0.3-0.6,0.3h-4.1
		C156.6,293,156.4,292.9,156.2,292.7z"/>
	<path class="st1" d="M181.5,292.7c-0.2-0.2-0.4-0.4-0.5-0.6l-7.2-12.5V292c0,0.3-0.1,0.5-0.3,0.7s-0.4,0.3-0.6,0.3h-4.1
		c-0.2,0-0.4-0.1-0.6-0.3s-0.3-0.4-0.3-0.7v-23.6c0-0.3,0.1-0.5,0.3-0.7s0.4-0.3,0.6-0.3h3.3c0.3,0,0.6,0.1,0.8,0.3
		c0.2,0.2,0.4,0.4,0.5,0.6l7.2,12.5v-12.3c0-0.3,0.1-0.5,0.3-0.7s0.4-0.3,0.6-0.3h4.1c0.2,0,0.4,0.1,0.6,0.3
		c0.2,0.2,0.3,0.4,0.3,0.7V292c0,0.3-0.1,0.5-0.3,0.7s-0.4,0.3-0.6,0.3h-3.3C182,293,181.7,292.9,181.5,292.7z"/>
</g>
<path class="st0" d="M227.9,116.8l0.1,0.1c0,0-1.5,1.1-3.1,2.4c-50.1-37-80.7-19.6-90.3-14.9c-43.7,24.4-31,84.1-30.8,85.3l0,0H34.2
	c0,0,2.6-26.1,21.2-57s50.1-54.2,75.7-56.5C180.6,71.3,225.2,114.1,227.9,116.8z M106.5,172.1l9.5,3.4c0.4,3.5,1.1,6.7,1.7,9.7
	l0.4,1.8l-10.6-3.8C107.1,180.6,106.7,176.8,106.5,172.1z M32.4,143.5l10.1,3.7c-1.2,2.9-2.8,6.5-3.9,9.4l-0.5,1.2L28,154.1
	C28.9,151.7,30.7,147.3,32.4,143.5z M110.5,140l6.3,5c-0.7,2.8-1.2,5.5-1.6,8.3l-0.2,2.1l-7.1-5.6
	C108.5,146.5,109.3,143.3,110.5,140z M126.1,115.4l4,6c-1.6,1.6-3,3.2-4.3,5l-0.9,1.3l-4.2-6.3C122.2,119.3,124,117.3,126.1,115.4z
	 M62.9,102.4l6.3,5.5c-1.6,1.7-3.1,3.4-4.6,5.2l-1.4,1.8l-6.8-5.8C58.4,106.8,60.6,104.6,62.9,102.4z M150.3,102l1.9,5.8
	c-2,0.6-4.1,1.4-6.1,2.4l-1.5,0.7l-2-6.1C144.8,103.9,147.3,102.9,150.3,102z M170.9,99.9c2.3,0.1,4.6,0.4,6.9,0.8l1.8,0.3l-0.4,5.5
	c-2.3-0.5-4.7-0.8-7-1l-1.7-0.1L170.9,99.9z M98.5,75.6l4,6.1c-1.7,0.9-3.4,1.8-5.1,2.8l-1.7,1l-4.1-6.2
	C94,77.9,96.3,76.7,98.5,75.6z M171.1,72.2c5.2,1.5,7.5,2.5,8.4,3l0.1,0.1l-0.4,5.9c-1.9-0.8-3.8-1.5-5.7-2.2l-2.9-1L171.1,72.2z
	 M137.4,67l1.8,5.4h-0.9c-1.9,0-3.8,0-5.8,0.2l-1.9,0.2l-1.7-5.2C131.9,67.2,134.7,67,137.4,67z"/>
<path class="st2" d="M60,0h136c33.1,0,60,26.9,60,60v136c0,33.1-26.9,60-60,60H60c-33.1,0-60-26.9-60-60V60C0,26.9,26.9,0,60,0z"/>
<linearGradient id="SVGID_1_" gradientUnits="userSpaceOnUse" x1="218" y1="-3894.5957" x2="38" y2="-3714.5957" gradientTransform="matrix(1 0 0 1 0 3932.5957)">
	<stop  offset="3.435140e-03" style="stop-color:#E44857"/>
	<stop  offset="0.4689" style="stop-color:#C711E1"/>
	<stop  offset="1" style="stop-color:#7F52FF"/>
</linearGradient>
<path class="st3" d="M218,218H38V38h180l-90,90L218,218z"/>
</svg>
