<?xml version="1.0" encoding="utf-8"?>
<!-- Generator: Adobe Illustrator 24.3.0, SVG Export Plug-In . SVG Version: 6.00 Build 0)  -->
<svg version="1.1" id="Layer_1" xmlns="http://www.w3.org/2000/svg" xmlns:xlink="http://www.w3.org/1999/xlink" x="0px" y="0px"
	 viewBox="0 0 256 300" style="enable-background:new 0 0 256 300;" xml:space="preserve">
<style type="text/css">
	.st0{fill:#FFFFFF;}
	.st1{fill:#0D1117;}
	.st2{fill:#242938;}
	.st3{fill:#ECEFF1;}
	.st4{fill:#263238;}
	.st5{fill:#212121;}
	.st6{fill:#FFC107;}
	.st7{fill:#634703;}
	.st8{fill:#455A64;}
</style>
<path class="st0" d="M27.5,162.6h201c15.2,0,27.5,12.3,27.5,27.5v82.4c0,15.2-12.3,27.5-27.5,27.5h-201C12.3,300,0,287.7,0,272.5
	v-82.4C0,174.9,12.3,162.6,27.5,162.6z"/>
<g>
	<path class="st1" d="M91.9,287c0.2,0.2,0.2,0.4,0.2,0.7v3.8c0,0.3-0.1,0.5-0.2,0.7c-0.2,0.2-0.4,0.3-0.6,0.3H76.9
		c-0.2,0-0.4-0.1-0.6-0.3s-0.2-0.4-0.2-0.7v-23.1c0-0.3,0.1-0.5,0.2-0.7c0.2-0.2,0.4-0.3,0.6-0.3H81c0.2,0,0.4,0.1,0.6,0.3
		s0.2,0.4,0.2,0.7v18.4h9.5C91.5,286.7,91.7,286.8,91.9,287z"/>
	<path class="st1" d="M97.5,292.2c-0.2-0.2-0.2-0.4-0.2-0.7v-23.1c0-0.3,0.1-0.5,0.2-0.7c0.2-0.2,0.4-0.3,0.6-0.3h4.1
		c0.2,0,0.4,0.1,0.6,0.3s0.2,0.4,0.2,0.7v23.1c0,0.3-0.1,0.5-0.2,0.7c-0.2,0.2-0.4,0.3-0.6,0.3h-4.1
		C97.8,292.5,97.6,292.4,97.5,292.2z"/>
	<path class="st1" d="M123,292.2c-0.2-0.2-0.4-0.4-0.5-0.6l-7.1-12.2v12.1c0,0.3-0.1,0.5-0.2,0.7c-0.2,0.2-0.4,0.3-0.6,0.3h-4.1
		c-0.2,0-0.4-0.1-0.6-0.3s-0.2-0.4-0.2-0.7v-23.1c0-0.3,0.1-0.5,0.2-0.7c0.2-0.2,0.4-0.3,0.6-0.3h3.2c0.3,0,0.6,0.1,0.8,0.3
		c0.2,0.2,0.4,0.4,0.5,0.6l7.1,12.2v-12.1c0-0.3,0.1-0.5,0.2-0.7c0.2-0.2,0.4-0.3,0.6-0.3h4.1c0.2,0,0.4,0.1,0.6,0.3
		s0.2,0.4,0.2,0.7v23.1c0,0.3-0.1,0.5-0.2,0.7c-0.2,0.2-0.4,0.3-0.6,0.3h-3.2C123.5,292.5,123.2,292.4,123,292.2z"/>
	<path class="st1" d="M153,267.7c0.2,0.2,0.2,0.4,0.2,0.7v14.3c0,2.1-0.4,4-1.2,5.5s-1.9,2.7-3.3,3.5c-1.4,0.8-3.1,1.2-5,1.2
		s-3.6-0.4-5-1.2s-2.5-1.9-3.3-3.5c-0.8-1.5-1.2-3.4-1.2-5.5v-14.3c0-0.3,0.1-0.5,0.2-0.7c0.2-0.2,0.4-0.3,0.6-0.3h4.1
		c0.2,0,0.4,0.1,0.6,0.3c0.2,0.2,0.2,0.4,0.2,0.7v14.1c0,1.5,0.3,2.6,0.9,3.4s1.5,1.2,2.7,1.2s2.1-0.4,2.7-1.2s0.9-1.9,0.9-3.4
		v-14.1c0-0.3,0.1-0.5,0.2-0.7c0.2-0.2,0.4-0.3,0.6-0.3h4.1C152.7,267.4,152.9,267.5,153,267.7z"/>
	<path class="st1" d="M164.6,291.6c-0.2,0.3-0.3,0.5-0.5,0.6s-0.4,0.2-0.8,0.2h-4.7c-0.2,0-0.3-0.1-0.5-0.2s-0.2-0.3-0.2-0.6
		c0-0.1,0-0.3,0.1-0.4l7.2-11.6l-6.9-11.1c-0.1-0.1-0.1-0.3-0.1-0.4c0-0.2,0.1-0.4,0.2-0.6c0.1-0.2,0.3-0.2,0.5-0.2h4.7
		c0.4,0,0.6,0.1,0.8,0.3s0.3,0.4,0.5,0.6l3.8,6l3.6-6c0.2-0.3,0.3-0.5,0.5-0.6c0.2-0.2,0.4-0.3,0.8-0.3h4.7c0.2,0,0.3,0.1,0.5,0.2
		c0.1,0.2,0.2,0.3,0.2,0.6c0,0.1,0,0.3-0.1,0.4l-6.9,11.3l7.1,11.4c0.1,0.1,0.1,0.2,0.1,0.4s-0.1,0.4-0.2,0.6
		c-0.1,0.2-0.3,0.2-0.5,0.2h-4.6c-0.4,0-0.6-0.1-0.8-0.2s-0.3-0.3-0.5-0.6l-4-6.4L164.6,291.6z"/>
</g>
<path class="st2" d="M60,0h136c33.1,0,60,26.9,60,60v136c0,33.1-26.9,60-60,60H60c-33.1,0-60-26.9-60-60V60C0,26.8,26.9,0,60,0z"/>
<path class="st3" d="M86,199.9l24.5,13.6h37.1l34.7-26.1l15.6-40.9l-36-43.1l-10.2-24.3l-49.6,1.8l0.6,13.6l-9.6,17.8l-15,29
	l-3,24.3L86,199.9z"/>
<path class="st4" d="M187.1,114.6c-9.6-13.6-17.4-21.9-21.5-39.1c-4.2-17.2,1.2-12.4-2.4-27.2c-1.8-7.7-4.8-13-7.8-17.2
	c-3.6-4.1-7.8-6.5-10.2-7.1c-5.4-3-17.9-7.7-33.5,0.6c-16.2,8.3-14.4,26.1-11.4,62.2c0,2.4-0.6,5.3-1.8,7.7
	c-2.4,5.3-6.6,10.1-10.2,14.2c-4.2,5.9-8.4,11.8-11.4,18.4c-7.2,13.6-13.8,30.8-12,37.3c3-0.6,40.7,56.3,40.7,57.4
	c2.4-0.6,12.6-0.6,21.5-0.6c12.6-0.6,19.7-1.2,29.9,1.2c0-1.8-0.6-3.6-0.6-5.3c0-3.6,0.6-6.5,1.2-10.7c0.6-3,1.2-5.9,1.8-9.5
	c-6,5.3-16.8,11.3-26.9,13c-9,1.8-23.9-1.2-31.1-10.1c0.6,0,1.8,0,2.4-0.6c1.8-0.6,3.6-1.2,4.2-2.4c1.8-3,0.6-5.9-0.6-7.7
	s-10.2-8.3-14.4-11.8c-4.2-3.6-6.6-5.3-9-7.7c0,0-3.6-3.6-4.8-4.7c-1.2-1.2-1.8-2.4-2.4-3c-1.2-3-1.8-6.5-1.2-11.2
	c0.6-6.5,3-11.8,6-17.8c1.2-2.4,4.2-7.1,4.2-7.1s-10.2,24.9-4.8,32.6c0,0,0.6-7.7,3-15.4c1.8-5.3,4.8-13,8.4-17.2
	c3.6-4.1,12.6-19.5,13.2-29c0-4.1,0.6-8.3,0.6-11.3c-2.4-2.4,39.5-8.3,41.9-1.8c0.6,2.4,9,23.7,13.8,34.9c2.4,5.3,5.4,10.1,7.2,16
	c1.8,6.5,3,15.4,3,24.3c0,1.8,0,4.7-0.6,7.7c1.2,0,24.5-24.9-3-45.6c0,0,16.8,7.7,17.4,23.1c0.6,12.4-4.8,22.5-6,24.3
	c0.6,0,12.6,5.3,13.2,5.3c2.4,0,7.2-1.8,7.2-1.8c0.6-1.8,2.4-6.5,2.4-8.3C206.8,150.1,196.6,128.2,187.1,114.6L187.1,114.6z"/>
<path class="st3" d="M111.1,75.5c4.3,0,7.8-5.3,7.8-11.8s-3.5-11.8-7.8-11.8s-7.8,5.3-7.8,11.8C103.3,70.2,106.8,75.5,111.1,75.5z"
	/>
<path class="st3" d="M138,76.7c5.6,0,10.2-6.1,10.2-13.6s-4.6-13.6-10.2-13.6s-10.2,6.1-10.2,13.6S132.4,76.7,138,76.7z"/>
<path class="st5" d="M115.4,64.5c-0.5-3.9-2.8-6.8-5.1-6.5c-2.3,0.3-3.8,3.7-3.3,7.6s2.8,6.8,5.1,6.5S115.9,68.4,115.4,64.5z"/>
<path class="st5" d="M137.4,73.2c3.3,0,6-3.4,6-7.7s-2.7-7.7-6-7.7s-6,3.4-6,7.7C131.4,69.7,134.1,73.2,137.4,73.2z"/>
<path class="st6" d="M217,195.7c-2.4-1.2-6.6-3-10.2-8.3c-1.8-3-1.2-11.3-4.2-14.8c-1.8-2.4-4.2-1.2-4.8-1.2
	c-5.4,1.2-17.9,9.5-26.3,0c-1.2-1.2-3-3-6-3s-4.2,1.2-5.4,3.6c-1.2,2.4-1.2,4.1-1.2,10.1c0,4.7,0,10.1-0.6,14.2
	c-1.2,10.1-3,16-3,21.9c0,6.5,1.8,10.7,4.2,12.4c1.8,1.8,4.8,3,11.4,3c6.6,0,10.8-2.4,15-6.5c3-3,5.4-4.1,13.8-10.1
	c6.6-4.1,16.8-9.5,18.5-11.3c1.2-1.2,3-1.8,3-5.3C221.2,197.5,218.8,196.3,217,195.7L217,195.7z"/>
<path class="st6" d="M96.7,197.5c-6-9.5-6.6-11.3-10.8-17.2c-3.6-5.9-11.4-17.2-16.2-17.2c-3.6,0-5.4,1.8-7.8,4.1
	c-2.4,2.4-4.8,7.7-9,10.7c-3.6,3-13.8,2.4-16.2,5.9s2.4,8.9,2.4,17.8c0,3.6-3,5.9-3.6,8.3c-0.6,3-1.2,4.7,0,7.1
	c2.4,3.6,5.4,4.7,25.7,8.9c10.8,2.4,20.9,8.3,27.5,8.9c6.6,0.6,17.9,0,17.9-16C107.5,209.4,102.1,207,96.7,197.5z"/>
<path class="st6" d="M108.1,90.3c-3.6-2.4-6.6-4.7-6.6-8.3s2.4-4.7,6-7.7c0.6-0.6,7.2-6.5,13.8-6.5c6.6,0,14.4,4.1,17.4,5.3
	c5.4,1.2,10.8,2.4,10.2,6.5c-0.6,5.9-1.2,7.1-7.2,10.1c-4.2,1.2-12,7.7-17.4,7.7c-2.4,0-6,0-8.4-0.6
	C114.1,96.3,111.1,93.3,108.1,90.3L108.1,90.3z"/>
<path class="st7" d="M106.9,85.6c1.2,1.2,3,2.4,4.8,3c1.2,0.6,3,1.2,3,1.2c2.4,0,4.2,0,5.4,0c3,0,7.2-1.2,11.4-3.6
	c4.2-1.8,4.8-3,7.8-4.1c3-1.8,6-3.6,4.8-4.1c-1.2-0.6-2.4,0-6.6,2.4c-3.6,2.4-6.6,3.6-10.2,5.3c-1.8,0.6-4.2,1.8-6,1.8s-3.6,0-5.4,0
	s-3-0.6-4.8-1.2c-1.2-0.6-1.8-1.2-2.4-1.2c-1.2-0.6-3.6-3-4.8-3.6c0,0-1.2,0-0.6,0.6C105.1,83.8,105.7,84.4,106.9,85.6z"/>
<path class="st7" d="M124.8,72.6c0.6,1.2,1.8,1.2,2.4,1.8s1.2,0.6,1.2,0.6c0.6-0.6,0-1.8-0.6-1.8C127.8,72,124.8,72,124.8,72.6
	L124.8,72.6z"/>
<path class="st7" d="M115.3,73.8c0,0.6,1.2,1.2,1.2,0.6c0.6-0.6,1.2-1.2,1.8-1.2c1.2-0.6,0.6-1.2-1.2-1.2
	C115.9,72.6,115.9,73.2,115.3,73.8L115.3,73.8z"/>
<path class="st8" d="M173.3,178.6c0,0.6,0,1.2,0,1.8c1.2,2.4,4.2,3,6.6,3c3.6,0,7.2-2.4,9-4.7c0-0.6,0.6-1.2,1.2-1.8
	c1.2-1.8,1.8-3,2.4-3.6c0,0-0.6-0.6-0.6-1.2c-0.6-1.2-2.4-2.4-4.8-3c-1.8-0.6-4.8-1.2-6-1.2c-5.4-0.6-8.4,1.2-10.2,3
	c0,0,0.6,0,0.6,0.6c1.2,1.2,1.8,2.4,1.8,4.1C173.9,176.8,173.3,177.4,173.3,178.6L173.3,178.6z"/>
</svg>
