<?xml version="1.0" encoding="utf-8"?>
<!-- Generator: Adobe Illustrator 24.3.0, SVG Export Plug-In . SVG Version: 6.00 Build 0)  -->
<svg version="1.1" id="Layer_1" xmlns="http://www.w3.org/2000/svg" xmlns:xlink="http://www.w3.org/1999/xlink" x="0px" y="0px"
	 viewBox="0 0 256 300" style="enable-background:new 0 0 256 300;" xml:space="preserve">
<style type="text/css">
	.st0{fill:#FFFFFF;}
	.st1{fill:#0D1117;}
	.st2{fill:#242938;}
	.st3{clip-path:url(#SVGID_2_);}
	.st4{fill-rule:evenodd;clip-rule:evenodd;fill:#FFFFFF;}
</style>
<path class="st0" d="M27.5,162.6h201c15.2,0,27.5,12.3,27.5,27.5v82.4c0,15.2-12.3,27.5-27.5,27.5h-201C12.3,300,0,287.7,0,272.5
	v-82.4C0,174.9,12.3,162.6,27.5,162.6z"/>
<g>
	<path class="st1" d="M76.1,279.7v11.8c0,0.3-0.1,0.5-0.2,0.7c-0.2,0.2-0.4,0.3-0.6,0.3h-4.1c-0.2,0-0.4-0.1-0.6-0.3
		c-0.2-0.2-0.2-0.4-0.2-0.7v-23.1c0-0.3,0.1-0.5,0.2-0.7c0.2-0.2,0.4-0.3,0.6-0.3h3.6c0.6,0,1,0.3,1.3,1l5,9.9l5-9.9
		c0.3-0.6,0.8-1,1.3-1H91c0.2,0,0.4,0.1,0.6,0.3c0.2,0.2,0.2,0.4,0.2,0.7v23.1c0,0.3-0.1,0.5-0.2,0.7c-0.2,0.2-0.4,0.3-0.6,0.3h-4.1
		c-0.2,0-0.4-0.1-0.6-0.3c-0.2-0.2-0.2-0.4-0.2-0.7v-11.8l-2.8,5.9c-0.1,0.3-0.3,0.5-0.5,0.6c-0.2,0.2-0.4,0.3-0.7,0.3h-2
		c-0.3,0-0.5-0.1-0.7-0.3c-0.2-0.2-0.3-0.4-0.5-0.6L76.1,279.7z"/>
	<path class="st1" d="M109,292.2c-0.2,0.2-0.4,0.3-0.6,0.3h-4.1c-0.2,0-0.4-0.1-0.6-0.3c-0.2-0.2-0.2-0.4-0.2-0.7v-7.6l-7.2-15.2
		c-0.1-0.2-0.1-0.3-0.1-0.5s0.1-0.4,0.2-0.6s0.3-0.2,0.5-0.2h4.3c0.4,0,0.6,0.1,0.9,0.3c0.2,0.2,0.4,0.4,0.5,0.6l3.9,8.8l3.9-8.8
		c0.1-0.2,0.2-0.4,0.5-0.6c0.2-0.2,0.5-0.3,0.9-0.3h4.3c0.2,0,0.3,0.1,0.5,0.2c0.1,0.2,0.2,0.3,0.2,0.6c0,0.1,0,0.3-0.1,0.5
		l-7.2,15.2v7.6C109.3,291.8,109.2,292,109,292.2z"/>
	<path class="st1" d="M138.6,274.7c-0.1,0.2-0.3,0.2-0.5,0.2H134c-0.3,0-0.5,0-0.7-0.1s-0.4-0.2-0.6-0.4c0,0-0.2-0.2-0.4-0.5
		s-0.6-0.5-1.1-0.7s-1.1-0.3-1.7-0.3c-0.9,0-1.6,0.1-2.2,0.4s-0.9,0.7-0.9,1.4c0,0.5,0.2,0.9,0.5,1.1c0.4,0.3,0.9,0.5,1.6,0.7
		s2,0.5,3.8,1c2.3,0.5,4.1,1.4,5.2,2.6c1.1,1.2,1.6,2.8,1.6,5c0,1.6-0.4,3-1.2,4.1c-0.8,1.2-2,2.1-3.4,2.7s-3.1,0.9-5,0.9
		c-1.8,0-3.4-0.4-4.8-1.1s-2.6-1.6-3.4-2.8c-0.8-1.1-1.3-2.3-1.3-3.5c0-0.2,0.1-0.4,0.2-0.6s0.3-0.2,0.4-0.2h4.1
		c0.5,0,0.8,0.2,1.2,0.5c0.1,0.1,0.2,0.3,0.5,0.6s0.7,0.7,1.2,0.9c0.5,0.3,1.2,0.4,1.9,0.4c2.6,0,3.8-0.6,3.8-1.9
		c0-0.4-0.2-0.7-0.5-1c-0.4-0.3-0.9-0.5-1.5-0.7c-0.7-0.2-1.7-0.5-3.2-0.8l-1.4-0.3c-2.1-0.5-3.7-1.4-4.7-2.6s-1.5-2.9-1.5-4.9
		c0-1.4,0.4-2.7,1.1-3.8c0.7-1.2,1.8-2.1,3.1-2.8c1.3-0.7,2.9-1.1,4.6-1.1s3.2,0.4,4.6,1.1c1.4,0.7,2.5,1.6,3.3,2.7s1.2,2.2,1.3,3.2
		C138.8,274.4,138.7,274.6,138.6,274.7z"/>
	<path class="st1" d="M159,268.4c1.4,0.9,2.5,2,3.3,3.5s1.2,3.1,1.3,4.9c0,0.7,0.1,1.7,0.1,3.2s0,2.5-0.1,3.1
		c-0.1,2.6-0.9,4.8-2.3,6.5l2.5,4.1c0.1,0.1,0.1,0.3,0.1,0.3v0.1c0,0.2-0.1,0.4-0.2,0.5c-0.1,0.1-0.3,0.2-0.4,0.2h-4.4
		c-0.3,0-0.6-0.1-0.8-0.2s-0.4-0.4-0.5-0.6l-0.9-1.5c-1,0.2-1.9,0.4-2.8,0.4c-2,0-3.7-0.4-5.1-1.3c-1.4-0.9-2.5-2-3.3-3.5
		s-1.2-3.1-1.3-4.9c0-1.3-0.1-2.3-0.1-3.1s0-1.9,0.1-3.2c0.1-1.8,0.5-3.5,1.3-4.9c0.8-1.5,1.9-2.6,3.3-3.5s3.1-1.3,5.1-1.3
		S157.6,267.5,159,268.4z M156.7,274c-0.7-0.8-1.6-1.1-2.8-1.1s-2.2,0.4-2.8,1.1c-0.7,0.8-1,1.8-1.1,3c-0.1,0.8-0.1,1.8-0.1,3
		s0,2.2,0.1,3c0.1,1.3,0.5,2.3,1.1,3c0.7,0.8,1.6,1.1,2.8,1.1s2.2-0.4,2.8-1.1c0.7-0.8,1-1.8,1.1-3c0.1-0.9,0.1-1.9,0.1-3
		c0-1.2,0-2.2-0.1-3C157.7,275.7,157.3,274.7,156.7,274z"/>
	<path class="st1" d="M184.6,287.1c0.2,0.2,0.2,0.4,0.2,0.7v3.8c0,0.3-0.1,0.5-0.2,0.7c-0.2,0.2-0.4,0.3-0.6,0.3h-14.4
		c-0.2,0-0.4-0.1-0.6-0.3c-0.2-0.2-0.2-0.4-0.2-0.7v-23.1c0-0.3,0.1-0.5,0.2-0.7c0.2-0.2,0.4-0.3,0.6-0.3h4.1c0.2,0,0.4,0.1,0.6,0.3
		c0.2,0.2,0.2,0.4,0.2,0.7v18.4h9.5C184.3,286.8,184.5,286.9,184.6,287.1z"/>
</g>
<path class="st2" d="M60,0h136c33.1,0,60,26.9,60,60v136c0,33.1-26.9,60-60,60H60c-33.1,0-60-26.9-60-60V60C0,26.9,26.9,0,60,0z"/>
<g>
	<g>
		<g>
			<defs>
				<rect id="SVGID_1_" x="38" y="38" width="180" height="180"/>
			</defs>
			<clipPath id="SVGID_2_">
				<use xlink:href="#SVGID_1_"  style="overflow:visible;"/>
			</clipPath>
			<g class="st3">
				<path class="st4" d="M203.8,178.2c-9.8-0.3-17.4,0.7-23.8,3.4c-1.8,0.7-4.8,0.7-5,3c1,1,1.1,2.6,2,3.9c1.5,2.4,4,5.7,6.4,7.4
					l7.8,5.6c4.8,2.9,10.2,4.6,14.8,7.5c2.7,1.7,5.4,3.9,8.1,5.7c1.4,1,2.2,2.6,3.9,3.2v-0.4c-0.9-1.1-1.1-2.7-2-3.9l-3.7-3.5
					c-3.5-4.7-8-8.9-12.7-12.3c-3.9-2.7-12.5-6.3-14.1-10.8l-0.2-0.3c2.7-0.3,5.9-1.2,8.4-1.9c4.2-1.1,8-0.9,12.2-1.9l5.9-1.7v-1.1
					c-2.2-2.2-3.8-5.1-6.1-7.2c-6.2-5.4-13.1-10.6-20.2-15c-3.8-2.4-8.7-4-12.7-6.1c-1.5-0.7-3.9-1.1-4.8-2.3
					c-2.2-2.7-3.4-6.2-5-9.4l-10-21.2c-2.2-4.7-3.6-9.5-6.2-13.9c-12.6-20.7-26.3-33.2-47.4-45.5c-4.5-2.6-9.9-3.7-15.6-5L74.6,54
					c-2-0.9-3.9-3.2-5.6-4.3c-7-4.4-25-13.9-30.1-1.4C35.6,56.2,43.8,64,46.6,68c2.1,2.8,4.8,6,6.2,9.1c0.8,2.1,1.1,4.3,2,6.4
					c2,5.4,3.8,11.3,6.4,16.3c1.4,2.6,2.8,5.2,4.5,7.5c1,1.4,2.7,1.9,3.1,4.1c-1.7,2.4-1.8,6.1-2.8,9.1c-4.4,13.7-2.7,30.8,3.5,40.9
					c2,3,6.6,9.7,12.9,7.2c5.5-2.2,4.3-9.1,5.9-15.2c0.4-1.5,0.1-2.4,0.9-3.4v0.3l5,10.1c3.8,6,10.4,12.2,15.9,16.3
					c2.9,2.2,5.3,6,8.9,7.3v-0.4h-0.2c-0.7-1.1-1.8-1.6-2.8-2.4c-2.2-2.2-4.7-4.9-6.4-7.3c-5.1-6.8-9.7-14.4-13.7-22.1
					c-2-3.8-3.7-7.9-5.3-11.7c-0.7-1.5-0.7-3.7-2-4.4c-1.8,2.7-4.5,5-5.9,8.3c-2.3,5.2-2.6,11.7-3.4,18.4c-0.5,0.1-0.3,0-0.5,0.3
					c-3.9-1-5.3-5-6.7-8.4c-3.7-8.6-4.3-22.5-1.1-32.5c0.9-2.6,4.5-10.6,3.1-13c-0.7-2.3-3.2-3.6-4.5-5.5c-1.6-2.3-3.3-5.2-4.4-7.8
					c-2.9-6.8-4.4-14.4-7.6-21.2c-1.5-3.2-4-6.4-6.1-9.4c-2.3-3.3-4.9-5.6-6.7-9.5c-0.6-1.4-1.5-3.5-0.5-5c0.2-1,0.7-1.4,1.7-1.6
					c1.6-1.4,6.1,0.4,7.7,1.1c4.5,1.8,8.3,3.5,12.1,6.1c1.7,1.2,3.6,3.5,5.8,4.1h2.6c3.9,0.9,8.3,0.3,12,1.4
					c6.5,2.1,12.4,5.1,17.6,8.4c16,10.1,29.3,24.5,38.2,41.6c1.5,2.8,2.1,5.4,3.4,8.3c2.6,6,5.8,12,8.3,17.9
					c2.6,5.7,5,11.6,8.7,16.3c1.8,2.6,9.2,3.9,12.5,5.2c2.4,1.1,6.2,2.1,8.5,3.4c4.2,2.6,8.3,5.5,12.2,8.3
					C197.3,172.8,203.4,175.9,203.8,178.2L203.8,178.2z M79,72.5c-1.7,0-3.4,0.2-5,0.6v0.3h0.2c1,1.9,2.7,3.3,3.9,5l2.8,5.8l0.2-0.3
					c1.7-1.2,2.6-3.2,2.6-6.1c-0.7-0.9-0.9-1.7-1.5-2.6C81.5,74.1,79.9,73.5,79,72.5L79,72.5z"/>
			</g>
		</g>
	</g>
</g>
</svg>
