<?xml version="1.0" encoding="utf-8"?>
<!-- Generator: Adobe Illustrator 24.3.0, SVG Export Plug-In . SVG Version: 6.00 Build 0)  -->
<svg version="1.1" id="Layer_1" xmlns="http://www.w3.org/2000/svg" xmlns:xlink="http://www.w3.org/1999/xlink" x="0px" y="0px"
	 viewBox="0 0 256 300" style="enable-background:new 0 0 256 300;" xml:space="preserve">
<style type="text/css">
	.st0{fill:#FFFFFF;}
	.st1{fill:#242938;}
	.st2{fill:#231F20;}
	.st3{fill-rule:evenodd;clip-rule:evenodd;fill:#007FFF;}
</style>
<path class="st0" d="M27.5,162.6h201c15.2,0,27.5,12.3,27.5,27.5v82.4c0,15.2-12.3,27.5-27.5,27.5h-201C12.3,300,0,287.7,0,272.5
	v-82.4C0,174.9,12.3,162.6,27.5,162.6z"/>
<path class="st1" d="M60,0h136c33.1,0,60,26.9,60,60v136c0,33.1-26.9,60-60,60H60c-33.1,0-60-26.9-60-60V60C0,26.9,26.8,0,60,0z"/>
<g>
	<path class="st2" d="M30.9,279.6v11.9c0,0.3-0.1,0.5-0.3,0.7c-0.2,0.2-0.4,0.3-0.6,0.3h-4.4c-0.2,0-0.5-0.1-0.6-0.3
		c-0.2-0.2-0.3-0.4-0.3-0.7v-23.3c0-0.3,0.1-0.5,0.3-0.7c0.2-0.2,0.4-0.3,0.6-0.3h3.9c0.6,0,1.1,0.3,1.4,1l5.4,10l5.4-10
		c0.3-0.6,0.8-1,1.4-1H47c0.2,0,0.5,0.1,0.6,0.3c0.2,0.2,0.3,0.4,0.3,0.7v23.3c0,0.3-0.1,0.5-0.3,0.7c-0.2,0.2-0.4,0.3-0.6,0.3h-4.4
		c-0.2,0-0.5-0.1-0.6-0.3c-0.2-0.2-0.3-0.4-0.3-0.7v-11.9l-3.1,5.9c-0.2,0.3-0.3,0.5-0.5,0.6s-0.4,0.3-0.7,0.3h-2.1
		c-0.3,0-0.5-0.1-0.7-0.3c-0.2-0.2-0.4-0.4-0.5-0.6L30.9,279.6z"/>
	<path class="st2" d="M71.3,291.1c0.1,0.2,0.1,0.4,0.1,0.5c0,0.2-0.1,0.4-0.2,0.6c-0.1,0.2-0.3,0.2-0.5,0.2h-4.2
		c-0.4,0-0.7-0.1-0.9-0.3c-0.2-0.2-0.3-0.4-0.4-0.6l-0.9-3h-8.9l-0.9,3c-0.1,0.2-0.2,0.5-0.4,0.6c-0.2,0.2-0.5,0.3-0.9,0.3H49
		c-0.2,0-0.4-0.1-0.5-0.2c-0.1-0.2-0.2-0.3-0.2-0.6c0-0.1,0-0.3,0.1-0.5l7.3-22.7c0.1-0.3,0.3-0.6,0.5-0.8c0.2-0.2,0.6-0.3,1-0.3
		h5.4c0.4,0,0.7,0.1,1,0.3c0.2,0.2,0.4,0.5,0.5,0.8L71.3,291.1z M62.6,283l-2.7-8.6l-2.7,8.6H62.6z"/>
	<path class="st2" d="M91.9,267.6c0.2,0.2,0.3,0.4,0.3,0.7v3.8c0,0.3-0.1,0.5-0.3,0.7c-0.2,0.2-0.4,0.3-0.6,0.3h-5.9v18.5
		c0,0.3-0.1,0.5-0.3,0.7c-0.2,0.2-0.4,0.3-0.6,0.3h-4.4c-0.2,0-0.5-0.1-0.6-0.3c-0.2-0.2-0.3-0.4-0.3-0.7V273h-5.9
		c-0.2,0-0.5-0.1-0.6-0.3c-0.2-0.2-0.3-0.4-0.3-0.7v-3.8c0-0.3,0.1-0.5,0.3-0.7c0.2-0.2,0.4-0.3,0.6-0.3h17.9
		C91.5,267.3,91.7,267.4,91.9,267.6z"/>
	<path class="st2" d="M101.3,286.7h10.5c0.2,0,0.5,0.1,0.6,0.3c0.2,0.2,0.3,0.4,0.3,0.7v3.8c0,0.3-0.1,0.5-0.3,0.7
		c-0.2,0.2-0.4,0.3-0.6,0.3H96c-0.2,0-0.5-0.1-0.6-0.3c-0.2-0.2-0.3-0.4-0.3-0.7v-23.3c0-0.3,0.1-0.5,0.3-0.7
		c0.2-0.2,0.4-0.3,0.6-0.3h15.5c0.2,0,0.5,0.1,0.6,0.3c0.2,0.2,0.3,0.4,0.3,0.7v3.8c0,0.3-0.1,0.5-0.3,0.7c-0.2,0.2-0.4,0.3-0.6,0.3
		h-10.2v3.9h9.5c0.2,0,0.5,0.1,0.6,0.3c0.2,0.2,0.3,0.4,0.3,0.7v3.8c0,0.3-0.1,0.5-0.3,0.7c-0.2,0.2-0.4,0.3-0.6,0.3h-9.5V286.7z"/>
	<path class="st2" d="M133.4,269.3c1.6,1.4,2.5,3.4,2.5,6.2c0,3.5-1.3,5.9-4,7.2l4.1,8.6c0.1,0.1,0.1,0.3,0.1,0.4
		c0,0.2-0.1,0.4-0.2,0.6c-0.1,0.2-0.3,0.2-0.5,0.2h-4.5c-0.4,0-0.7-0.1-0.9-0.3c-0.2-0.2-0.4-0.4-0.5-0.7l-3.7-7.7h-3.1v7.7
		c0,0.3-0.1,0.5-0.3,0.7c-0.2,0.2-0.4,0.3-0.6,0.3h-4.4c-0.2,0-0.5-0.1-0.6-0.3c-0.2-0.2-0.3-0.4-0.3-0.7v-23.3
		c0-0.3,0.1-0.5,0.3-0.7c0.2-0.2,0.4-0.3,0.6-0.3h9C129.4,267.3,131.7,268,133.4,269.3z M126.4,278.2c2.2,0,3.2-0.9,3.2-2.7
		c0-1.8-1.1-2.7-3.2-2.7h-3.8v5.3H126.4z"/>
	<path class="st2" d="M139.9,292.2c-0.2-0.2-0.3-0.4-0.3-0.7v-23.3c0-0.3,0.1-0.5,0.3-0.7c0.2-0.2,0.4-0.3,0.6-0.3h4.4
		c0.2,0,0.5,0.1,0.6,0.3c0.2,0.2,0.3,0.4,0.3,0.7v23.3c0,0.3-0.1,0.5-0.3,0.7c-0.2,0.2-0.4,0.3-0.6,0.3h-4.4
		C140.3,292.5,140.1,292.4,139.9,292.2z"/>
	<path class="st2" d="M171.5,291.1c0.1,0.2,0.1,0.4,0.1,0.5c0,0.2-0.1,0.4-0.2,0.6c-0.1,0.2-0.3,0.2-0.5,0.2h-4.2
		c-0.4,0-0.7-0.1-0.9-0.3c-0.2-0.2-0.3-0.4-0.4-0.6l-0.9-3h-8.9l-0.9,3c-0.1,0.2-0.2,0.5-0.4,0.6c-0.2,0.2-0.5,0.3-0.9,0.3h-4.2
		c-0.2,0-0.4-0.1-0.5-0.2c-0.1-0.2-0.2-0.3-0.2-0.6c0-0.1,0-0.3,0.1-0.5l7.3-22.7c0.1-0.3,0.3-0.6,0.5-0.8c0.2-0.2,0.6-0.3,1-0.3
		h5.4c0.4,0,0.7,0.1,1,0.3c0.2,0.2,0.4,0.5,0.5,0.8L171.5,291.1z M162.8,283l-2.7-8.6l-2.7,8.6H162.8z"/>
	<path class="st2" d="M190.5,287c0.2,0.2,0.3,0.4,0.3,0.7v3.8c0,0.3-0.1,0.5-0.3,0.7c-0.2,0.2-0.4,0.3-0.6,0.3h-15.4
		c-0.2,0-0.5-0.1-0.6-0.3c-0.2-0.2-0.3-0.4-0.3-0.7v-23.3c0-0.3,0.1-0.5,0.3-0.7c0.2-0.2,0.4-0.3,0.6-0.3h4.4c0.2,0,0.5,0.1,0.6,0.3
		c0.2,0.2,0.3,0.4,0.3,0.7v18.5h10.1C190.1,286.7,190.3,286.8,190.5,287z"/>
	<path class="st2" d="M220.4,267.6c0.2,0.2,0.3,0.4,0.3,0.7v14.4c0,2.2-0.4,4-1.3,5.5c-0.8,1.5-2,2.7-3.5,3.5s-3.3,1.2-5.3,1.2
		c-2,0-3.8-0.4-5.3-1.2s-2.7-2-3.5-3.5c-0.8-1.5-1.2-3.4-1.2-5.5v-14.4c0-0.3,0.1-0.5,0.3-0.7c0.2-0.2,0.4-0.3,0.6-0.3h4.4
		c0.2,0,0.5,0.1,0.6,0.3c0.2,0.2,0.3,0.4,0.3,0.7v14.2c0,1.5,0.3,2.6,1,3.4c0.7,0.8,1.7,1.2,2.9,1.2c1.3,0,2.3-0.4,2.9-1.2
		c0.7-0.8,1-1.9,1-3.4v-14.2c0-0.3,0.1-0.5,0.3-0.7c0.2-0.2,0.4-0.3,0.6-0.3h4.4C220,267.3,220.2,267.4,220.4,267.6z"/>
	<path class="st2" d="M225.4,292.2c-0.2-0.2-0.3-0.4-0.3-0.7v-23.3c0-0.3,0.1-0.5,0.3-0.7c0.2-0.2,0.4-0.3,0.6-0.3h4.4
		c0.2,0,0.5,0.1,0.6,0.3c0.2,0.2,0.3,0.4,0.3,0.7v23.3c0,0.3-0.1,0.5-0.3,0.7c-0.2,0.2-0.4,0.3-0.6,0.3H226
		C225.7,292.5,225.5,292.4,225.4,292.2z"/>
</g>
<path class="st3" d="M192,157.7c0.8-0.5,1.5-1.1,1.9-1.9c0.5-0.8,0.7-1.7,0.7-2.6l0.1-30.1c0-0.9,0.2-1.8,0.7-2.6
	c0.5-0.8,1.1-1.4,1.9-1.9l16.3-9.4c0.8-0.5,1.7-0.7,2.6-0.7c0.9,0,1.8,0.2,2.6,0.7c0.8,0.5,1.4,1.1,1.9,1.9c0.5,0.8,0.7,1.7,0.7,2.6
	v54.8c0,0.9-0.2,1.8-0.7,2.6s-1.1,1.5-1.9,1.9l-61.7,35.4c-0.8,0.5-1.7,0.7-2.6,0.7c-0.9,0-1.8-0.2-2.6-0.7l-48.4-27.7
	c-0.8-0.5-1.5-1.1-1.9-1.9c-0.5-0.8-0.7-1.7-0.7-2.6v-27.6c0,0,0-0.1,0.1,0c0,0,0.1,0,0.1,0v0c0,0,0,0,0-0.1l39.9-22.9
	c0,0,0-0.1,0-0.1c0,0,0,0,0,0c0,0,0,0,0,0l0.1-27.1c0-0.9-0.2-1.8-0.7-2.6c-0.5-0.8-1.1-1.5-1.9-1.9c-0.8-0.5-1.7-0.7-2.6-0.7
	s-1.8,0.2-2.6,0.7l-29.6,17.1c-0.8,0.5-1.7,0.7-2.6,0.7s-1.8-0.2-2.6-0.7L68.7,93.7C67.9,93.3,67,93,66.1,93c-0.9,0-1.8,0.2-2.6,0.7
	c-0.8,0.5-1.4,1.1-1.9,1.9c-0.5,0.8-0.7,1.7-0.7,2.6v49c0,0.9-0.2,1.8-0.7,2.6c-0.5,0.8-1.1,1.4-1.9,1.9c-0.8,0.5-1.7,0.7-2.6,0.7
	c-0.9,0-1.8-0.2-2.6-0.7l-16.5-9.4c-0.8-0.5-1.5-1.1-1.9-1.9c-0.5-0.8-0.7-1.7-0.7-2.6l0.1-85.6c0-0.9,0.2-1.8,0.7-2.6
	c0.5-0.8,1.1-1.4,1.9-1.9c0.8-0.5,1.7-0.7,2.6-0.7s1.8,0.2,2.6,0.7l56.5,32.4c0.8,0.5,1.7,0.7,2.6,0.7c0.9,0,1.8-0.2,2.6-0.7
	l56.5-32.4c0.8-0.5,1.7-0.7,2.6-0.7c0.9,0,1.8,0.2,2.6,0.7c0.8,0.5,1.4,1.1,1.9,1.9c0.5,0.8,0.7,1.7,0.7,2.6v85.6
	c0,0.9-0.2,1.8-0.7,2.6c-0.5,0.8-1.1,1.5-1.9,1.9l-29.6,17c-0.8,0.5-1.5,1.1-1.9,1.9c-0.5,0.8-0.7,1.7-0.7,2.6
	c0,0.9,0.2,1.8,0.7,2.6c0.5,0.8,1.1,1.4,1.9,1.9l16.3,9.3c0.8,0.4,1.7,0.7,2.6,0.7s1.8-0.2,2.6-0.7L192,157.7L192,157.7z
	 M195.5,80.9c0,0.9,0.2,1.8,0.7,2.6c0.5,0.8,1.1,1.5,1.9,1.9c0.8,0.5,1.7,0.7,2.6,0.7s1.8-0.3,2.6-0.7L219,76
	c0.8-0.5,1.4-1.1,1.9-1.9c0.4-0.8,0.7-1.7,0.7-2.6V52.4c0-0.9-0.2-1.8-0.7-2.6c-0.5-0.8-1.1-1.5-1.9-1.9c-0.8-0.5-1.7-0.7-2.6-0.7
	c-0.9,0-1.8,0.3-2.6,0.7L198,57.3c-0.8,0.5-1.4,1.1-1.9,1.9c-0.4,0.8-0.7,1.7-0.7,2.6V80.9L195.5,80.9z"/>
</svg>
