<?xml version="1.0" encoding="utf-8"?>
<!-- Generator: Adobe Illustrator 24.3.0, SVG Export Plug-In . SVG Version: 6.00 Build 0)  -->
<svg version="1.1" id="Layer_1" xmlns="http://www.w3.org/2000/svg" xmlns:xlink="http://www.w3.org/1999/xlink" x="0px" y="0px"
	 viewBox="0 0 256 300" style="enable-background:new 0 0 256 300;" xml:space="preserve">
<style type="text/css">
	.st0{fill:#FFFFFF;}
	.st1{fill:#231F20;}
	.st2{fill:#242938;}
	.st3{fill:url(#SVGID_1_);}
	.st4{fill:url(#SVGID_2_);}
	.st5{fill:url(#SVGID_3_);}
	.st6{fill:url(#SVGID_4_);}
	.st7{fill:url(#SVGID_5_);}
	.st8{fill:url(#SVGID_6_);}
	.st9{fill:url(#SVGID_7_);}
	.st10{fill:url(#SVGID_8_);}
	.st11{fill:url(#SVGID_9_);}
	.st12{fill:url(#SVGID_10_);}
	.st13{fill:url(#SVGID_11_);}
	.st14{fill:url(#SVGID_12_);}
	.st15{fill:url(#SVGID_13_);}
	.st16{fill:url(#SVGID_14_);}
</style>
<path class="st0" d="M27.5,162.6h201c15.2,0,27.5,12.3,27.5,27.5v82.4c0,15.2-12.3,27.5-27.5,27.5h-201C12.3,300,0,287.7,0,272.5
	v-82.4C0,174.9,12.3,162.6,27.5,162.6z"/>
<g>
	<path class="st1" d="M77.1,279.6v11.9c0,0.3-0.1,0.5-0.3,0.7c-0.2,0.2-0.4,0.3-0.6,0.3h-4.4c-0.2,0-0.5-0.1-0.6-0.3
		c-0.2-0.2-0.3-0.4-0.3-0.7v-23.3c0-0.3,0.1-0.5,0.3-0.7c0.2-0.2,0.4-0.3,0.6-0.3h3.9c0.6,0,1.1,0.3,1.4,1l5.4,10l5.4-10
		c0.3-0.6,0.8-1,1.4-1h3.9c0.2,0,0.5,0.1,0.6,0.3c0.2,0.2,0.3,0.4,0.3,0.7v23.3c0,0.3-0.1,0.5-0.3,0.7c-0.2,0.2-0.4,0.3-0.6,0.3
		h-4.4c-0.2,0-0.5-0.1-0.6-0.3c-0.2-0.2-0.3-0.4-0.3-0.7v-11.9l-3.1,5.9c-0.2,0.3-0.3,0.5-0.5,0.6s-0.4,0.3-0.7,0.3h-2.1
		c-0.3,0-0.5-0.1-0.7-0.3c-0.2-0.2-0.4-0.4-0.5-0.6L77.1,279.6z"/>
	<path class="st1" d="M118.1,291.1c0.1,0.2,0.1,0.4,0.1,0.5c0,0.2-0.1,0.4-0.2,0.6c-0.1,0.2-0.3,0.2-0.5,0.2h-4.2
		c-0.4,0-0.7-0.1-0.9-0.3c-0.2-0.2-0.3-0.4-0.4-0.6l-0.9-3h-8.9l-0.9,3c-0.1,0.2-0.2,0.5-0.4,0.6c-0.2,0.2-0.5,0.3-0.9,0.3h-4.2
		c-0.2,0-0.4-0.1-0.5-0.2c-0.1-0.2-0.2-0.3-0.2-0.6c0-0.1,0-0.3,0.1-0.5l7.3-22.7c0.1-0.3,0.3-0.6,0.5-0.8c0.2-0.2,0.6-0.3,1-0.3
		h5.4c0.4,0,0.7,0.1,1,0.3c0.2,0.2,0.4,0.5,0.5,0.8L118.1,291.1z M109.4,283l-2.7-8.6L104,283H109.4z"/>
	<path class="st1" d="M126.3,291l-6.8-22.5c-0.1-0.2-0.1-0.4-0.1-0.5c0-0.2,0.1-0.4,0.2-0.6c0.1-0.2,0.3-0.2,0.5-0.2h4.2
		c0.4,0,0.7,0.1,0.9,0.3c0.2,0.2,0.3,0.4,0.4,0.6l4.6,15.8l4.6-15.8c0.1-0.2,0.2-0.5,0.4-0.6c0.2-0.2,0.5-0.3,0.9-0.3h4.2
		c0.2,0,0.4,0.1,0.5,0.2s0.2,0.3,0.2,0.6c0,0.1,0,0.3-0.1,0.5l-6.8,22.5c-0.3,1-0.9,1.4-1.8,1.4H128
		C127.2,292.5,126.6,292,126.3,291z"/>
	<path class="st1" d="M150.3,286.7h10.5c0.2,0,0.5,0.1,0.6,0.3s0.3,0.4,0.3,0.7v3.8c0,0.3-0.1,0.5-0.3,0.7c-0.2,0.2-0.4,0.3-0.6,0.3
		H145c-0.2,0-0.5-0.1-0.6-0.3c-0.2-0.2-0.3-0.4-0.3-0.7v-23.3c0-0.3,0.1-0.5,0.3-0.7c0.2-0.2,0.4-0.3,0.6-0.3h15.5
		c0.2,0,0.5,0.1,0.6,0.3c0.2,0.2,0.3,0.4,0.3,0.7v3.8c0,0.3-0.1,0.5-0.3,0.7c-0.2,0.2-0.4,0.3-0.6,0.3h-10.2v3.9h9.5
		c0.2,0,0.5,0.1,0.6,0.3s0.3,0.4,0.3,0.7v3.8c0,0.3-0.1,0.5-0.3,0.7c-0.2,0.2-0.4,0.3-0.6,0.3h-9.5V286.7z"/>
	<path class="st1" d="M179.8,292.2c-0.2-0.2-0.4-0.4-0.5-0.6l-7.6-12.3v12.2c0,0.3-0.1,0.5-0.3,0.7c-0.2,0.2-0.4,0.3-0.6,0.3h-4.4
		c-0.2,0-0.5-0.1-0.6-0.3c-0.2-0.2-0.3-0.4-0.3-0.7v-23.3c0-0.3,0.1-0.5,0.3-0.7c0.2-0.2,0.4-0.3,0.6-0.3h3.5c0.3,0,0.6,0.1,0.9,0.3
		c0.2,0.2,0.4,0.4,0.5,0.6l7.6,12.3v-12.2c0-0.3,0.1-0.5,0.3-0.7c0.2-0.2,0.4-0.3,0.6-0.3h4.4c0.2,0,0.5,0.1,0.6,0.3
		c0.2,0.2,0.3,0.4,0.3,0.7v23.3c0,0.3-0.1,0.5-0.3,0.7c-0.2,0.2-0.4,0.3-0.6,0.3h-3.5C180.3,292.5,180,292.4,179.8,292.2z"/>
</g>
<path class="st2" d="M60,0h136c33.1,0,60,26.9,60,60v136c0,33.1-26.9,60-60,60H60c-33.1,0-60-26.9-60-60V60C0,26.9,26.9,0,60,0z"/>
<linearGradient id="SVGID_1_" gradientUnits="userSpaceOnUse" x1="55.191" y1="262.9634" x2="89.886" y2="274.2773" gradientTransform="matrix(1 0 0 -1 0 302)">
	<stop  offset="0" style="stop-color:#F69923"/>
	<stop  offset="0.3123" style="stop-color:#F79A23"/>
	<stop  offset="0.8383" style="stop-color:#E97826"/>
</linearGradient>
<path class="st3" d="M53.3,27c-0.3,0.8-0.7,1.9-1,3.2l-0.2,1c-0.1,0.3-0.1,0.7-0.2,1.1l-0.2,1.2l-0.2,1.2l-0.2,1.3l-0.2,1.4L51,38.7
	l-0.2,1.5c0,0.3,0,0.5-0.1,0.8l-0.1,1.6l-0.1,1.7L50.4,46c0,0.3,0,0.6,0,0.9l10.7,5.2c-0.2-6.2,0-12.2,0.6-17.6l0.1-1l-0.1,0.9
	l-0.1,1.5l0,0.7l-0.1,1.6l0,0.9l0,2l0,1.7l0,1.8l0,1.3l0.1,2.1l0.1,1.5l0.1,1.6c0,0.3,0,0.5,0,0.8c2-1.6,4.4-3.8,6.9-6.1l1.7-1.6
	c0.3-0.3,0.6-0.5,0.8-0.8l1.7-1.6l1.7-1.6l1.6-1.6l1.5-1.6c-1.7-3.5-3.6-6.1-5.3-7.9l-0.6-0.6c-0.4-0.4-0.7-0.7-1.1-1.1l-0.5-0.5
	l-0.5-0.4c-0.2-0.1-0.3-0.3-0.5-0.4l-0.5-0.3l-0.4-0.3L67.6,25l-0.5-0.3l-0.6-0.3L66,24.2l-0.8-0.3l-0.6-0.2L64,23.6l-0.4-0.1
	l-0.5-0.1c-0.1,0-0.2,0-0.3-0.1l-0.5-0.1l-0.6-0.1C58.8,22.7,55,23.1,53.3,27z"/>
<linearGradient id="SVGID_2_" gradientUnits="userSpaceOnUse" x1="19.3142" y1="78.6718" x2="61.8839" y2="247.6774" gradientTransform="matrix(1 0 0 -1 0 302)">
	<stop  offset="0.3233" style="stop-color:#9E2064"/>
	<stop  offset="0.6302" style="stop-color:#C92037"/>
	<stop  offset="0.7514" style="stop-color:#CD2335"/>
	<stop  offset="1" style="stop-color:#E97826"/>
</linearGradient>
<path class="st4" d="M63.9,83.7c-0.5-3.6-0.9-7.1-1.4-10.5c-0.3-2.9-0.6-5.7-0.8-8.5l-0.2-2.5c0-0.1,0-0.1,0-0.2
	c-0.2-3.4-0.4-6.7-0.5-9.9l-10.7-5.2l0,0.7l-0.1,1.4c-0.1,2.6-0.2,5.3-0.2,8.1c0,3.2,0,6.6,0.1,10.1c0.1,3.2,0.2,6.6,0.4,10
	c0.1,2.2,0.3,4.4,0.4,6.7l0.2,2.6l14.3,7.2l-0.5-3.4L63.9,83.7z"/>
<linearGradient id="SVGID_3_" gradientUnits="userSpaceOnUse" x1="82.2322" y1="77.3348" x2="110.1969" y2="213.5318" gradientTransform="matrix(1 0 0 -1 0 302)">
	<stop  offset="0" style="stop-color:#282662"/>
	<stop  offset="9.548389e-02" style="stop-color:#662E8D"/>
	<stop  offset="0.7882" style="stop-color:#9F2064"/>
	<stop  offset="0.9487" style="stop-color:#CD2032"/>
</linearGradient>
<path class="st5" d="M84.5,166.7l0.2,0.8l1.4,4.8c0.2,0.7,0.4,1.4,0.6,2.1l0.7,2.2l0.2,0.8c0,0.1,0.1,0.3,0.1,0.4l2.3,7.4
	c2-0.4,4.5,0.3,7.1,1.5l1.1,0.5c-1.9-2.3-4.6-3.9-7.8-4.2c8.8-5.8,14.5-13.4,13.7-22.3c-0.1-0.8-0.2-1.6-0.4-2.4
	c-0.1,3.3-1.5,5.7-5.3,8.3l-0.5,0.3c4-7,5-11.7,4.6-17.8c-0.1-1.4-0.3-3-0.6-4.6c-1.3,9.1-6.1,15-13.3,18.5L84.5,166.7z"/>
<linearGradient id="SVGID_4_" gradientUnits="userSpaceOnUse" x1="31.9765" y1="91.1137" x2="93.8736" y2="241.6271" gradientTransform="matrix(1 0 0 -1 0 302)">
	<stop  offset="0.3233" style="stop-color:#9E2064"/>
	<stop  offset="0.6302" style="stop-color:#C92037"/>
	<stop  offset="0.7514" style="stop-color:#CD2335"/>
	<stop  offset="1" style="stop-color:#E97826"/>
</linearGradient>
<path class="st6" d="M79.4,156l-0.9-3.4l-1.8-6.9c-0.9-3.3-1.7-6.7-2.5-10.1c-0.8-3.4-1.6-6.8-2.4-10.3c-0.8-3.5-1.6-7-2.3-10.5
	l-0.7-3.5l-1.4-7c-0.2-1.3-0.5-2.5-0.7-3.8c-0.4-2.1-0.8-4.3-1.1-6.5l-0.1-0.3l-14.2-7.3l0,0.5c0,0.1,0,0.2,0,0.2
	c0.3,3.2,0.6,6.5,0.9,9.8c0.4,3.3,0.8,6.7,1.3,10.1c0.4,2.8,0.9,5.7,1.3,8.5l0.3,1.7c0.7,3.5,1.4,6.9,2.1,10.1
	c0.8,3.6,1.8,7,2.7,10.2c0.6,2.1,1.2,4.1,1.8,6l0.6,1.6l1.1,3.2c1.4,3.7,2.9,7.3,4.5,10.8l14.4,7.3c-0.8-2.6-1.5-5.3-2.3-8l-0.4-1.5
	L79.4,156z"/>
<linearGradient id="SVGID_5_" gradientUnits="userSpaceOnUse" x1="71.4519" y1="89.9837" x2="121.2935" y2="152.0827" gradientTransform="matrix(1 0 0 -1 0 302)">
	<stop  offset="0" style="stop-color:#282662"/>
	<stop  offset="9.548389e-02" style="stop-color:#662E8D"/>
	<stop  offset="0.7882" style="stop-color:#9F2064"/>
	<stop  offset="0.9487" style="stop-color:#CD2032"/>
</linearGradient>
<path class="st7" d="M68.1,159.6c1.7,3.7,3.6,7.3,5.7,10.7l1.2,1.9c-1.4-0.5-3.1-0.8-4.8-0.9l-0.8,0c-0.1,0-0.3,0-0.4,0l-0.8,0
	l-1.1,0l-1,0l-0.8,0l-1.2,0.1c0,0,0,0,0,0c7.3,2.5,13.6,5.6,17.6,10.3c-1.6,1.8-4.6,3.1-8.3,4.2c2.8,0.3,4.9,0.2,6.5-0.1l0.6-0.1
	c0.1,0,0.2,0,0.3-0.1l0.5-0.1l0.4-0.1l0.5-0.2l0.3-0.1c-2.3,1.9-3.8,5.2-5,8.9l-0.4,1.3c-0.1,0.2-0.1,0.4-0.2,0.7
	c3.1-5,6.1-8.3,9-9.6c3.3,10.9,7.1,22.6,11.3,34.7l2,5.6c0.7,1.9,1.3,3.8,2,5.7c1-1.3,1.1-2.6,0.7-4.1l-1.3-3.8l-1.5-4.4l-2.4-7
	l-1.9-5.9l-2.1-6.6l-2-6.5l-1.9-6.1l-1.4-4.5l-1.1-3.7c-0.2-0.5-0.3-1-0.4-1.5l-0.4-1.4l-1.2-4.2l-1.2-4.3l-0.6-2l0,0l-14.4-7.3
	c0,0.1,0.1,0.2,0.1,0.3L68.1,159.6z"/>
<linearGradient id="SVGID_6_" gradientUnits="userSpaceOnUse" x1="56.2074" y1="58.1029" x2="101.7155" y2="273.5208" gradientTransform="matrix(1 0 0 -1 0 302)">
	<stop  offset="0.3233" style="stop-color:#9E2064"/>
	<stop  offset="0.6302" style="stop-color:#C92037"/>
	<stop  offset="0.7514" style="stop-color:#CD2335"/>
	<stop  offset="1" style="stop-color:#E97826"/>
</linearGradient>
<path class="st8" d="M67,94.1l0.3,1.4c0.2,0.9,0.4,1.9,0.5,2.9l1.6,8l0.6,2.8l0.8,3.9c0.1,0.7,0.3,1.3,0.4,2c0.4,2,0.9,4,1.4,6.1
	l1,4.2l1,4.1c0.2,0.7,0.3,1.4,0.5,2.1l1,4.2l1,4.1c0.5,2.1,1.1,4.2,1.6,6.3c0.4,1.6,0.9,3.2,1.3,4.8l1.5,5.4l1.1,4l1.2,4.1
	c0.2,0.7,0.4,1.4,0.6,2.1c0,0.1,0,0.2,0.1,0.2l4.3-4l-0.1,0l-0.2,0.1c5.1-4.9,9.5-14.6,10.6-23.4c0.5-4,0.4-8.3-0.1-13
	c-0.4-3.5-1.1-7.2-2.1-11.1c-0.9-3.4-1.9-7.1-3.2-10.9c-0.8,1.6-1.9,3.2-3.3,4.8l-0.8,0.8l-0.3,0.3l-0.5,0.5
	c3.8-5.9,4.2-12.2,3.1-18.8c-0.7,1.9-2,4.8-4.3,7.4c-0.3,0.3-0.6,0.7-1,1c-0.1,0-0.1,0.1-0.2,0.2l-0.1,0.1c1.3-2.1,2.2-4.1,2.8-6.1
	c0.1-0.3,0.2-0.6,0.2-0.8l0.1-0.4c0.2-0.7,0.3-1.3,0.4-2l0.1-1.3c0.1-0.8,0.1-1.5,0-2.3l-0.1-1.4c0-0.1,0-0.2,0-0.3l-0.2-0.9
	c0-0.1-0.1-0.3-0.1-0.4c-0.3-1.7-0.6-3.2-0.9-4.6l-0.3-1.2l-0.3-1l-0.4-1.2l-0.5-1.4c-0.1-0.1-0.1-0.3-0.2-0.4L86.8,74
	c-0.1-0.2-0.2-0.4-0.3-0.6l-0.2-0.5c0,0.2-0.1,0.4-0.2,0.6L86,73.8c-0.9,2.1-3,5-4.9,7c0,0-0.1,0-0.1,0.1l-0.4,0.4
	c-0.1,0.1-0.1,0.1-0.2,0.2l0.1-0.1L66.9,93.8C67,93.9,67.1,94,67,94.1z"/>
<linearGradient id="SVGID_7_" gradientUnits="userSpaceOnUse" x1="32.6368" y1="5.7192" x2="75.4641" y2="255.0217" gradientTransform="matrix(1 0 0 -1 0 302)">
	<stop  offset="0.3233" style="stop-color:#9E2064"/>
	<stop  offset="0.6302" style="stop-color:#C92037"/>
	<stop  offset="0.7514" style="stop-color:#CD2335"/>
	<stop  offset="1" style="stop-color:#E97826"/>
</linearGradient>
<path class="st9" d="M61.8,51.8c0.1,1,0.1,2,0.2,3.1l0.2,2.2c0,0.4,0.1,0.8,0.1,1.1l0.2,2.4c0,0.4,0.1,0.8,0.1,1.2l0,0.4
	c0,0.1,0,0.1,0,0.2c0.1,1.2,0.2,2.5,0.4,3.8l0.3,2.6c0.1,0.9,0.2,1.8,0.3,2.7l0.6,4.3c0.3,1.9,0.6,4,0.9,6.1l0.2,1.6
	c0.2,1.6,0.5,3.3,0.8,5l0.9,5.3l13.7-12.5c2.8-5.2,3.5-8.4,3.4-12.4c0-0.8-0.1-1.6-0.1-2.5L84,65.7c-0.2-3.5-0.6-7.2-1.2-10.8
	c-0.6-3.5-1.2-6.8-2-9.7c-0.5-1.8-1-3.5-1.6-4.9c-0.5-1.2-1-2.3-1.5-3.4l-1.5,1.6c-0.3,0.3-0.5,0.5-0.8,0.8l-1.6,1.6L72,42.6
	l-1.7,1.6c-0.3,0.3-0.6,0.5-0.8,0.8l-1.7,1.6C65.6,48.6,63.5,50.4,61.8,51.8z"/>
<linearGradient id="SVGID_8_" gradientUnits="userSpaceOnUse" x1="180.8841" y1="253.8951" x2="225.9141" y2="265.8973" gradientTransform="matrix(1 0 0 -1 0 302)">
	<stop  offset="0" style="stop-color:#F69923"/>
	<stop  offset="0.3123" style="stop-color:#F79A23"/>
	<stop  offset="0.8383" style="stop-color:#E97826"/>
</linearGradient>
<path class="st10" d="M193.2,29.7c-0.4,0.2-0.9,0.4-1.4,0.7l-0.8,0.4c-0.5,0.3-1.1,0.7-1.8,1.1l-1,0.6l-1,0.7l-1,0.8l-1.1,0.8
	c-0.2,0.1-0.4,0.3-0.6,0.4l-1.2,0.9l-1.2,1l-1.2,1l-1.3,1.1l-1.3,1.1l-1.3,1.2l-1.4,1.2c-0.2,0.2-0.5,0.4-0.7,0.6l4.5,12.7
	c4.9-5.2,9.8-9.8,14.6-13.8l1.7-1.4l0.1-0.1l-1.2,0.9l-1.1,1l-1.2,1.1l-1.2,1.1l-1,0.9l-0.7,0.7l-1.5,1.5l-1.3,1.3l-1.8,1.9l-1,1
	l-1,1.1l-1.6,1.7l-1.1,1.2c1.1,0.1,2.3,0.2,3.7,0.3l2,0.1l2.1,0.1l2.2,0.1l2.2,0l2.3,0c0.4,0,0.8,0,1.1,0l2.3,0c0.4,0,0.8,0,1.1,0
	l2.3,0c0.4,0,0.7,0,1.1,0l2.2,0c1.8-5.3,2.2-9.6,2.1-12.8l0-0.8l-0.1-0.8c0-0.1,0-0.2,0-0.4l-0.1-0.7l-0.1-0.6c0-0.1,0-0.2-0.1-0.3
	l-0.1-0.6l-0.1-0.5l-0.1-0.5l-0.1-0.4l-0.2-0.7l-0.2-0.5l-0.5-1l-0.3-0.5l-0.2-0.4l-0.3-0.4l-0.3-0.5l-0.3-0.5l-0.4-0.5
	C201.3,30.9,197.8,27.8,193.2,29.7z"/>
<linearGradient id="SVGID_9_" gradientUnits="userSpaceOnUse" x1="77.7946" y1="82.2376" x2="169.4176" y2="250.1035" gradientTransform="matrix(1 0 0 -1 0 302)">
	<stop  offset="0.3233" style="stop-color:#9E2064"/>
	<stop  offset="0.6302" style="stop-color:#C92037"/>
	<stop  offset="0.7514" style="stop-color:#CD2335"/>
	<stop  offset="1" style="stop-color:#E97826"/>
</linearGradient>
<path class="st11" d="M156.6,83.7c2.4-3.3,4.9-6.4,7.3-9.5c2.5-3.2,5-6.3,7.6-9.3c0.2-0.2,0.3-0.4,0.4-0.5c2.5-2.9,5-5.7,7.5-8.4
	l-4.5-12.6l-0.5,0.5l-1.1,1c-2.1,2-4.3,4.1-6.6,6.4c-1.3,1.3-2.6,2.6-3.9,4L160,58c-0.5,0.5-0.9,0.9-1.4,1.4
	c-2.5,2.7-5.1,5.5-7.7,8.4c-1.6,1.9-3.3,3.8-5,5.7l-1.9,2.3l5.8,17.2l2.3-3.1L156.6,83.7z"/>
<linearGradient id="SVGID_10_" gradientUnits="userSpaceOnUse" x1="97.2717" y1="93.3382" x2="138.6466" y2="162.8292" gradientTransform="matrix(1 0 0 -1 0 302)">
	<stop  offset="0" style="stop-color:#282662"/>
	<stop  offset="9.548389e-02" style="stop-color:#662E8D"/>
	<stop  offset="0.7882" style="stop-color:#9F2064"/>
	<stop  offset="0.9487" style="stop-color:#CD2032"/>
</linearGradient>
<path class="st12" d="M107.3,166.9l-0.9,1.6l-2.3,4.2c-0.4,0.7-0.8,1.4-1.1,2.2l-1.2,2.3c-0.2,0.4-0.5,0.8-0.6,1.2l-1.3,2.4
	l-2.8,5.3c2.2,1.5,3.7,4.6,5,8.1c0.3-3.4-0.6-6.8-2.9-9.6c11.7,2.3,22.3,0.8,28.8-7.1c0.6-0.7,1.1-1.5,1.7-2.2
	c-2.7,2.6-5.7,3.5-10.9,2.5l-0.6-0.1c8.7-2.5,13.3-5.4,17.8-10.7c1.1-1.3,2.1-2.6,3.2-4.2c-8.2,6.3-16.9,7.2-25.4,4.3L107.3,166.9z"
	/>
<linearGradient id="SVGID_11_" gradientUnits="userSpaceOnUse" x1="71.3314" y1="94.0473" x2="164.2454" y2="251.3285" gradientTransform="matrix(1 0 0 -1 0 302)">
	<stop  offset="0.3233" style="stop-color:#9E2064"/>
	<stop  offset="0.6302" style="stop-color:#C92037"/>
	<stop  offset="0.7514" style="stop-color:#CD2335"/>
	<stop  offset="1" style="stop-color:#E97826"/>
</linearGradient>
<path class="st13" d="M111.2,155l2.4-4.3l4-7c2-3.4,3.9-6.7,6-10.1c2-3.4,4.1-6.8,6.2-10.2c2.1-3.5,4.3-6.9,6.5-10.3
	c2.2-3.4,4.4-6.8,6.6-10.1c0.8-1.2,1.6-2.4,2.4-3.6c1.4-2,2.8-4.1,4.2-6.1l0.2-0.3l-5.7-17.1l-0.3,0.4c-0.1,0.1-0.1,0.1-0.2,0.2
	c-2.3,2.8-4.7,5.7-7,8.6c-2.3,3-4.7,6-7,9.1c-1.9,2.6-3.8,5.3-5.7,7.9l-1.1,1.6c-2.3,3.4-4.4,6.7-6.3,9.8c-2.2,3.6-4.2,7-5.9,10.3
	c-1.1,2.2-2.2,4.2-3.2,6.3c-0.8,1.7-1.6,3.5-2.4,5.2c-1.8,4.1-3.5,8.1-5,12.2l5.8,17.3l1.1-2.1l2.3-4.1c0.4-0.7,0.8-1.4,1.2-2.1
	L111.2,155z"/>
<linearGradient id="SVGID_12_" gradientUnits="userSpaceOnUse" x1="70.7358" y1="96.231" x2="121.6994" y2="172.053" gradientTransform="matrix(1 0 0 -1 0 302)">
	<stop  offset="0" style="stop-color:#282662"/>
	<stop  offset="9.548389e-02" style="stop-color:#662E8D"/>
	<stop  offset="0.7882" style="stop-color:#9F2064"/>
	<stop  offset="0.9487" style="stop-color:#CD2032"/>
</linearGradient>
<path class="st14" d="M99.8,148.1c-1.5,4.4-2.9,8.7-3.9,13.2l-0.6,2.4c-0.5-1.2-1.4-2.4-2.3-3.6l-0.6-0.7c-0.1-0.1-0.2-0.2-0.3-0.3
	l-0.6-0.7l-0.6-0.6l-0.6-0.6l-0.8-0.8l-0.8-0.7l-0.8-0.7l-0.8-0.6c3.8,7.8,6.5,15.3,6,22.3c-2.7,0.1-6.2-1.2-10-3.3
	c1.7,2.1,3.2,3.5,4.5,4.5l0.6,0.4c0.1,0.1,0.2,0.1,0.3,0.2l0.5,0.4l0.5,0.3l0.4,0.3l0.4,0.2l0.4,0.2L91,180c0,0,0.1,0,0.1,0.1
	c-3.3-0.3-6.9,1.1-10.6,3l-1.2,0.6l-1.3,0.7c6.4-1.6,11.5-1.8,14.9-0.5c-1.7,3.1-3.3,6.4-5,9.6l-2.5,5c-3.8,7.5-7.7,15.4-11.6,23.6
	l-2.6,5.5c-0.9,1.8-1.7,3.7-2.6,5.5c1.8-0.2,3-1.3,3.8-2.7l2.9-6.2l2.7-5.6l3.5-7l3.1-6.1l3-6l2.9-5.6l4-7.7l2.8-5.4l1-1.8l0.8-1.6
	l0.8-1.5l1.2-2.2l2.4-4.4c0.4-0.7,0.8-1.5,1.2-2.2l1.1-2l0,0l-5.8-17.3c-0.1,0.1-0.1,0.2-0.2,0.4L99.8,148.1z"/>
<linearGradient id="SVGID_13_" gradientUnits="userSpaceOnUse" x1="83.1345" y1="72.8945" x2="190.2464" y2="244.5256" gradientTransform="matrix(1 0 0 -1 0 302)">
	<stop  offset="0.3233" style="stop-color:#9E2064"/>
	<stop  offset="0.6302" style="stop-color:#C92037"/>
	<stop  offset="0.7514" style="stop-color:#CD2335"/>
	<stop  offset="1" style="stop-color:#E97826"/>
</linearGradient>
<path class="st15" d="M151,94.6l-0.9,1.3c-0.6,0.9-1.2,1.8-1.8,2.7l-3,4.5l-2.1,3.2l-0.5,0.8c-0.8,1.2-1.6,2.5-2.4,3.8l-2.5,3.9
	c-1.6,2.6-3.3,5.2-5,8l-1.3,2.1c-2,3.3-4.1,6.8-6.2,10.4l-2.4,4.1c-1.2,2.1-2.5,4.2-3.7,6.4c-0.7,1.3-1.5,2.6-2.2,3.9l-3.7,6.6
	l-1.1,2l-2.3,4.2c-0.8,1.4-1.5,2.8-2.3,4.3c-0.1,0.1-0.1,0.1-0.1,0.2l6.7,0.2c-0.1-0.1-0.2-0.1-0.4-0.1c8,0.2,19.3-4.2,27.1-10.4
	c3.6-2.9,7-6.4,10.2-10.6c2.5-3.1,4.8-6.7,7.2-10.6c2-3.4,4.1-7.2,6.1-11.3c-1.9,0.7-4.1,1.1-6.5,1.2l-1.3,0.1c-0.3,0-0.6,0-0.8,0
	l-0.4,0c7.7-1.7,13.1-6.5,17.4-12.7c-2.1,1-5.5,2.3-9.4,2.6c-0.5,0.1-1,0.1-1.6,0.1c-0.1,0-0.2,0-0.3,0l-0.2,0
	c2.7-0.7,5-1.6,7.1-2.7c0.3-0.2,0.6-0.3,0.9-0.5l0.4-0.3c0.6-0.4,1.2-0.9,1.9-1.3l1.1-0.9c0.9-0.7,1.7-1.6,2.4-2.5l0.5-0.6
	c0.1-0.1,0.2-0.2,0.2-0.3l0.6-0.9c0.1-0.1,0.2-0.3,0.3-0.4c1.2-1.7,2.1-3.2,2.9-4.5l0.3-0.6c0.4-0.8,0.8-1.5,1.2-2.1l0.4-0.8
	l0.6-1.2c0.1-0.3,0.2-0.5,0.3-0.7l0.2-0.4l0.3-0.8c0.1-0.2,0.2-0.4,0.2-0.6l0.1-0.3c-0.2,0.1-0.4,0.2-0.6,0.3l-0.3,0.1
	c-2.4,1-6.4,1.6-9.5,1.8c0,0-0.1,0-0.1,0l-0.6,0c-0.1,0-0.2,0-0.3,0l0.2-0.1L151,94.3C151.1,94.5,151,94.5,151,94.6z"/>
<linearGradient id="SVGID_14_" gradientUnits="userSpaceOnUse" x1="115.2263" y1="121.685" x2="183.824" y2="234.7404" gradientTransform="matrix(1 0 0 -1 0 302)">
	<stop  offset="0.3233" style="stop-color:#9E2064"/>
	<stop  offset="0.6302" style="stop-color:#C92037"/>
	<stop  offset="0.7514" style="stop-color:#CD2335"/>
	<stop  offset="1" style="stop-color:#E97826"/>
</linearGradient>
<path class="st16" d="M180.3,56.4c-0.7,0.8-1.5,1.7-2.3,2.7l-1.6,1.9l-1.7,2l-2,2.5c0,0.1-0.1,0.1-0.1,0.2c-1.2,1.4-2.4,2.9-3.6,4.5
	l-1.9,2.4c-0.3,0.4-0.6,0.8-1,1.3l-2.7,3.6l-1.8,2.4c-0.9,1.2-1.8,2.4-2.7,3.7l-0.9,1.3c-0.9,1.3-1.9,2.6-2.8,4l-1.9,2.8l-2,2.9
	l20.9,0.8c6.4-1.9,9.4-4,12.6-7.2c0.6-0.7,1.3-1.4,1.9-2.1l0.6-0.7c2.6-3,5.2-6.3,7.6-9.7c2.3-3.2,4.4-6.5,6-9.4
	c1.1-1.9,1.9-3.6,2.6-5.2c0.6-1.4,1.1-2.7,1.5-3.9l-2.2,0l-2.2,0l-2.3,0l-2.3,0c-0.4,0-0.8,0-1.1,0l-2.3,0l-2.2-0.1
	c-0.4,0-0.7,0-1.1,0l-2.2-0.1c-0.4,0-0.7,0-1,0l-2-0.1C182.6,56.6,181.4,56.5,180.3,56.4z"/>
</svg>
