<?xml version="1.0" encoding="utf-8"?>
<!-- Generator: Adobe Illustrator 24.3.0, SVG Export Plug-In . SVG Version: 6.00 Build 0)  -->
<svg version="1.1" id="Layer_1" xmlns="http://www.w3.org/2000/svg" xmlns:xlink="http://www.w3.org/1999/xlink" x="0px" y="0px"
	 viewBox="0 0 256 300" style="enable-background:new 0 0 256 300;" xml:space="preserve">
<style type="text/css">
	.st0{fill:#FFFFFF;}
	.st1{fill:#8D6748;}
	.st2{enable-background:new    ;}
	.st3{fill:#0D1117;}
</style>
<path class="st0" d="M27.5,162.6h201c15.2,0,27.5,12.3,27.5,27.5v82.4c0,15.2-12.3,27.5-27.5,27.5h-201C12.3,300,0,287.7,0,272.5
	v-82.4C0,174.9,12.3,162.6,27.5,162.6z"/>
<path class="st1" d="M60,0h136c33.1,0,60,26.9,60,60v136c0,33.1-26.9,60-60,60H60c-33.1,0-60-26.9-60-60V60C0,26.9,26.8,0,60,0z"/>
<g class="st2">
	<path class="st3" d="M75.6,280v11.7c0,0.3-0.1,0.5-0.3,0.7c-0.2,0.2-0.4,0.3-0.6,0.3h-4.1c-0.2,0-0.4-0.1-0.6-0.3
		c-0.2-0.2-0.3-0.4-0.3-0.7v-22.8c0-0.3,0.1-0.5,0.3-0.7c0.2-0.2,0.4-0.3,0.6-0.3h3.7c0.6,0,1,0.3,1.4,1l5.1,9.8l5.1-9.8
		c0.3-0.6,0.8-1,1.4-1h3.7c0.2,0,0.4,0.1,0.6,0.3c0.2,0.2,0.3,0.4,0.3,0.7v22.8c0,0.3-0.1,0.5-0.3,0.7c-0.2,0.2-0.4,0.3-0.6,0.3
		h-4.1c-0.2,0-0.4-0.1-0.6-0.3c-0.2-0.2-0.3-0.4-0.3-0.7V280l-3,5.8c-0.1,0.3-0.3,0.5-0.5,0.6c-0.2,0.2-0.4,0.2-0.7,0.2h-2
		c-0.3,0-0.5-0.1-0.7-0.2c-0.2-0.2-0.3-0.4-0.5-0.6L75.6,280z"/>
	<path class="st3" d="M111.4,268.9c1.5,0.8,2.6,2,3.4,3.4c0.8,1.4,1.2,3.1,1.3,4.9c0,0.7,0.1,1.7,0.1,3.2c0,1.4,0,2.5-0.1,3.1
		c-0.1,1.8-0.5,3.4-1.3,4.9c-0.8,1.4-1.9,2.6-3.4,3.4c-1.5,0.8-3.2,1.3-5.2,1.3c-2,0-3.7-0.4-5.2-1.3c-1.5-0.8-2.6-2-3.4-3.4
		c-0.8-1.4-1.2-3.1-1.3-4.9c0-1.3-0.1-2.3-0.1-3.1c0-0.8,0-1.9,0.1-3.2c0.1-1.8,0.5-3.4,1.3-4.9c0.8-1.4,1.9-2.6,3.4-3.4
		c1.5-0.8,3.2-1.3,5.2-1.3C108.2,267.6,109.9,268,111.4,268.9z M109,274.4c-0.7-0.7-1.6-1.1-2.9-1.1c-1.2,0-2.2,0.4-2.9,1.1
		s-1,1.7-1.2,3c-0.1,0.8-0.1,1.8-0.1,2.9c0,1.2,0,2.2,0.1,3c0.1,1.2,0.5,2.2,1.2,3s1.6,1.1,2.9,1.1c1.2,0,2.2-0.4,2.9-1.1
		s1-1.7,1.2-3c0.1-0.8,0.1-1.9,0.1-3c0-1.2,0-2.2-0.1-2.9C110.1,276.1,109.7,275.1,109,274.4z"/>
	<path class="st3" d="M126.8,286.2c0.6,0.8,1.6,1.1,2.9,1.1c1.3,0,2.2-0.3,2.7-0.8c0.6-0.5,1-1.2,1.2-2c0.1-0.4,0.3-0.7,0.4-0.8
		c0.1-0.1,0.4-0.2,0.7-0.2h4.1c0.2,0,0.4,0.1,0.5,0.2c0.1,0.2,0.2,0.3,0.2,0.5c0,1.6-0.5,3-1.3,4.4c-0.9,1.3-2.1,2.4-3.5,3.2
		c-1.5,0.8-3.1,1.2-5,1.2c-2,0-3.7-0.4-5.1-1.3c-1.5-0.9-2.6-2-3.4-3.5c-0.8-1.4-1.2-3.1-1.3-4.8c0-1.1-0.1-2.1-0.1-2.8
		c0-0.9,0-2,0.1-3.5c0.1-1.8,0.5-3.4,1.3-4.8s1.9-2.6,3.4-3.5c1.5-0.9,3.2-1.3,5.1-1.3c1.8,0,3.5,0.4,5,1.2s2.7,1.8,3.5,3.2
		c0.9,1.3,1.3,2.8,1.3,4.4c0,0.2-0.1,0.4-0.2,0.5c-0.1,0.2-0.3,0.2-0.5,0.2h-4.1c-0.3,0-0.6-0.1-0.7-0.2c-0.1-0.1-0.3-0.4-0.4-0.8
		c-0.2-0.8-0.6-1.4-1.2-2c-0.6-0.5-1.5-0.8-2.7-0.8c-1.3,0-2.3,0.4-2.9,1.1c-0.6,0.8-1,1.7-1.1,3c0,0.8-0.1,1.8-0.1,3
		c0,1.1,0,2.1,0.1,3C125.8,284.5,126.2,285.5,126.8,286.2z"/>
	<path class="st3" d="M162.2,268.2c0.2,0.2,0.3,0.4,0.3,0.7v22.8c0,0.3-0.1,0.5-0.3,0.7c-0.2,0.2-0.4,0.3-0.6,0.3h-4.1
		c-0.2,0-0.4-0.1-0.6-0.3c-0.2-0.2-0.3-0.4-0.3-0.7v-8.7h-7v8.7c0,0.3-0.1,0.5-0.3,0.7c-0.2,0.2-0.4,0.3-0.6,0.3h-4.1
		c-0.2,0-0.4-0.1-0.6-0.3c-0.2-0.2-0.3-0.4-0.3-0.7v-22.8c0-0.3,0.1-0.5,0.3-0.7c0.2-0.2,0.4-0.3,0.6-0.3h4.1c0.2,0,0.4,0.1,0.6,0.3
		c0.2,0.2,0.3,0.4,0.3,0.7v8.5h7v-8.5c0-0.3,0.1-0.5,0.3-0.7c0.2-0.2,0.4-0.3,0.6-0.3h4.1C161.8,267.9,162,268,162.2,268.2z"/>
	<path class="st3" d="M187,291.4c0.1,0.2,0.1,0.4,0.1,0.5c0,0.2-0.1,0.4-0.2,0.5s-0.3,0.2-0.5,0.2h-4c-0.4,0-0.6-0.1-0.8-0.3
		c-0.2-0.2-0.3-0.4-0.4-0.6l-0.9-2.9H172l-0.9,2.9c-0.1,0.2-0.2,0.4-0.4,0.6c-0.2,0.2-0.5,0.3-0.8,0.3h-4c-0.2,0-0.4-0.1-0.5-0.2
		s-0.2-0.3-0.2-0.5c0-0.1,0-0.3,0.1-0.5l6.9-22.3c0.1-0.3,0.3-0.6,0.5-0.8c0.2-0.2,0.5-0.3,0.9-0.3h5.1c0.4,0,0.7,0.1,0.9,0.3
		s0.4,0.5,0.5,0.8L187,291.4z M178.7,283.4l-2.6-8.5l-2.6,8.5H178.7z"/>
</g>
<path class="st0" d="M138.4,31c-7.1,8.7-19.1,18-6,37.7c4.4,4.9,6.6,15.3,6,18.6c0,0,19.7-11.5,7.7-32.2
	C138.9,44.1,135.6,34.8,138.4,31z M116.5,51.2c-4.9,6-12.6,12-3.8,25.7c2.7,2.7,3.8,9.8,3.8,12c0,0,13.1-7.7,4.9-21.9
	C116.5,60,114.3,53.4,116.5,51.2z M76.6,98.2c-3,0-5.5,2.5-5.5,5.5c0,18.6,2.7,82.5,30.1,113.7c1.1,1.1,2.2,1.6,3.8,1.6h45.9
	c1.6,0,2.7-0.5,3.8-1.6c27.3-30.6,30.1-94.5,30.1-113.7c0-3-2.4-5.5-5.5-5.5H128L76.6,98.2z M92.5,115.2h72.1c2.7,0,5.5,2.2,5.5,5.5
	c0,15.3-2.7,58.5-21.3,80.9c-1.6,1.1-2.7,1.6-4.4,1.6h-32.2c-1.5,0-2.8-0.6-3.8-1.6c-18.6-21.9-20.8-65.6-21.3-80.9
	C87,117.9,89.2,115.2,92.5,115.2z M161.3,152.3c0,0-0.6,4.9-13.7,9.8c-18,6.6-49.7,2.2-49.7,2.2c2.7,11.5,7.1,22.4,13.7,30.6
	c0.5,1.1,2.2,1.6,3.3,1.6h27.3c1.1,0,2.2-0.5,3.3-1.6C154.8,184,159.1,167.1,161.3,152.3z"/>
</svg>
