<?xml version="1.0" encoding="utf-8"?>
<!-- Generator: Adobe Illustrator 24.3.0, SVG Export Plug-In . SVG Version: 6.00 Build 0)  -->
<svg version="1.1" id="Layer_1" xmlns="http://www.w3.org/2000/svg" xmlns:xlink="http://www.w3.org/1999/xlink" x="0px" y="0px"
	 viewBox="0 0 256 300" style="enable-background:new 0 0 256 300;" xml:space="preserve">
<style type="text/css">
	.st0{fill:#FFFFFF;}
	.st1{fill:#231F20;}
	.st2{fill:#242938;}
	.st3{fill:url(#SVGID_1_);}
</style>
<path class="st0" d="M27.5,162.6h201c15.2,0,27.5,12.3,27.5,27.5v82.4c0,15.2-12.3,27.5-27.5,27.5h-201C12.3,300,0,287.7,0,272.5
	v-82.4C0,174.9,12.3,162.6,27.5,162.6z"/>
<g>
	<path class="st1" d="M74.7,292.2c-0.2-0.2-0.4-0.4-0.5-0.6l-7.6-12.3v12.2c0,0.3-0.1,0.5-0.3,0.7c-0.2,0.2-0.4,0.3-0.6,0.3h-4.4
		c-0.2,0-0.5-0.1-0.6-0.3c-0.2-0.2-0.3-0.4-0.3-0.7v-23.3c0-0.3,0.1-0.5,0.3-0.7c0.2-0.2,0.4-0.3,0.6-0.3h3.5c0.3,0,0.6,0.1,0.9,0.3
		c0.2,0.2,0.4,0.4,0.5,0.6l7.6,12.3v-12.2c0-0.3,0.1-0.5,0.3-0.7c0.2-0.2,0.4-0.3,0.6-0.3H79c0.2,0,0.5,0.1,0.6,0.3
		c0.2,0.2,0.3,0.4,0.3,0.7v23.3c0,0.3-0.1,0.5-0.3,0.7c-0.2,0.2-0.4,0.3-0.6,0.3h-3.5C75.2,292.5,74.9,292.4,74.7,292.2z"/>
	<path class="st1" d="M90.7,286.7h10.5c0.2,0,0.5,0.1,0.6,0.3c0.2,0.2,0.3,0.4,0.3,0.7v3.8c0,0.3-0.1,0.5-0.3,0.7
		c-0.2,0.2-0.4,0.3-0.6,0.3H85.4c-0.2,0-0.5-0.1-0.6-0.3c-0.2-0.2-0.3-0.4-0.3-0.7v-23.3c0-0.3,0.1-0.5,0.3-0.7
		c0.2-0.2,0.4-0.3,0.6-0.3h15.5c0.2,0,0.5,0.1,0.6,0.3c0.2,0.2,0.3,0.4,0.3,0.7v3.8c0,0.3-0.1,0.5-0.3,0.7c-0.2,0.2-0.4,0.3-0.6,0.3
		H90.7v3.9h9.5c0.2,0,0.5,0.1,0.6,0.3c0.2,0.2,0.3,0.4,0.3,0.7v3.8c0,0.3-0.1,0.5-0.3,0.7c-0.2,0.2-0.4,0.3-0.6,0.3h-9.5V286.7z"/>
	<path class="st1" d="M123.7,267.6c0.2,0.2,0.3,0.4,0.3,0.7v3.8c0,0.3-0.1,0.5-0.3,0.7c-0.2,0.2-0.4,0.3-0.6,0.3h-5.9v18.5
		c0,0.3-0.1,0.5-0.3,0.7c-0.2,0.2-0.4,0.3-0.6,0.3h-4.4c-0.2,0-0.5-0.1-0.6-0.3c-0.2-0.2-0.3-0.4-0.3-0.7V273h-5.9
		c-0.2,0-0.5-0.1-0.6-0.3c-0.2-0.2-0.3-0.4-0.3-0.7v-3.8c0-0.3,0.1-0.5,0.3-0.7c0.2-0.2,0.4-0.3,0.6-0.3H123
		C123.3,267.3,123.5,267.4,123.7,267.6z"/>
	<path class="st1" d="M143.9,287c0.2,0.2,0.3,0.4,0.3,0.7v3.8c0,0.3-0.1,0.5-0.3,0.7c-0.2,0.2-0.4,0.3-0.6,0.3h-15.4
		c-0.2,0-0.5-0.1-0.6-0.3c-0.2-0.2-0.3-0.4-0.3-0.7v-23.3c0-0.3,0.1-0.5,0.3-0.7c0.2-0.2,0.4-0.3,0.6-0.3h4.4c0.2,0,0.5,0.1,0.6,0.3
		c0.2,0.2,0.3,0.4,0.3,0.7v18.5h10.1C143.5,286.7,143.7,286.8,143.9,287z"/>
	<path class="st1" d="M147.3,292.2c-0.2-0.2-0.3-0.4-0.3-0.7v-23.3c0-0.3,0.1-0.5,0.3-0.7c0.2-0.2,0.4-0.3,0.6-0.3h4.4
		c0.2,0,0.5,0.1,0.6,0.3c0.2,0.2,0.3,0.4,0.3,0.7v23.3c0,0.3-0.1,0.5-0.3,0.7c-0.2,0.2-0.4,0.3-0.6,0.3h-4.4
		C147.7,292.5,147.4,292.4,147.3,292.2z"/>
	<path class="st1" d="M174.5,267.6c0.2,0.2,0.3,0.4,0.3,0.7v3.8c0,0.3-0.1,0.5-0.3,0.7s-0.4,0.3-0.6,0.3H164v4.9h9.3
		c0.2,0,0.5,0.1,0.6,0.3c0.2,0.2,0.3,0.4,0.3,0.7v3.8c0,0.3-0.1,0.5-0.3,0.7c-0.2,0.2-0.4,0.3-0.6,0.3H164v7.8
		c0,0.3-0.1,0.5-0.3,0.7c-0.2,0.2-0.4,0.3-0.6,0.3h-4.4c-0.2,0-0.5-0.1-0.6-0.3c-0.2-0.2-0.3-0.4-0.3-0.7v-23.3
		c0-0.3,0.1-0.5,0.3-0.7c0.2-0.2,0.4-0.3,0.6-0.3h15.2C174.2,267.3,174.4,267.4,174.5,267.6z"/>
	<path class="st1" d="M189.3,292.2c-0.2,0.2-0.4,0.3-0.6,0.3h-4.4c-0.2,0-0.5-0.1-0.6-0.3c-0.2-0.2-0.3-0.4-0.3-0.7v-7.7l-7.7-15.3
		c-0.1-0.2-0.1-0.3-0.1-0.5c0-0.2,0.1-0.4,0.2-0.6s0.3-0.2,0.5-0.2h4.6c0.4,0,0.7,0.1,0.9,0.3c0.2,0.2,0.4,0.4,0.5,0.6l4.2,8.9
		l4.2-8.9c0.1-0.2,0.2-0.4,0.5-0.6c0.2-0.2,0.5-0.3,0.9-0.3h4.6c0.2,0,0.4,0.1,0.5,0.2c0.1,0.2,0.2,0.3,0.2,0.6c0,0.1,0,0.3-0.1,0.5
		l-7.7,15.3v7.7C189.6,291.8,189.5,292,189.3,292.2z"/>
</g>
<path class="st2" d="M60,0h136c33.1,0,60,26.9,60,60v136c0,33.1-26.9,60-60,60H60c-33.1,0-60-26.9-60-60V60C0,26.9,26.9,0,60,0z"/>
<radialGradient id="SVGID_1_" cx="-829.0529" cy="694.6028" r="1" gradientTransform="matrix(1.223300e-14 199.78 230.653 -1.412342e-14 -160190.9375 165753.3594)" gradientUnits="userSpaceOnUse">
	<stop  offset="0" style="stop-color:#20C6B7"/>
	<stop  offset="1" style="stop-color:#4D9ABF"/>
</radialGradient>
<path class="st3" d="M172.8,97.4L172.8,97.4c-0.1,0-0.2-0.1-0.2-0.1c-0.1-0.1-0.1-0.1-0.1-0.2c0-0.1,0-0.2,0-0.3l4-24.7l18.9,18.9
	l-19.7,8.4c-0.1,0-0.1,0-0.2,0h-0.1c0,0-0.1,0-0.1-0.1C174.6,98.6,173.8,97.9,172.8,97.4L172.8,97.4z M200.2,95.9l20.2,20.2
	c4.2,4.2,6.3,6.3,7.1,8.7c0.1,0.4,0.2,0.7,0.3,1.1l-48.3-20.5c0,0-0.1,0-0.1,0c-0.2-0.1-0.4-0.2-0.4-0.4s0.2-0.3,0.4-0.4l0.1,0
	L200.2,95.9L200.2,95.9z M227,132.4c-1,2-3.1,4-6.5,7.4l-22.8,22.8l-29.5-6.1l-0.2,0c-0.3,0-0.5-0.1-0.5-0.3
	c-0.1-1.2-0.5-2.4-1.1-3.5c-0.6-1.1-1.4-2-2.4-2.8c-0.1-0.1-0.1-0.3-0.1-0.5c0,0,0-0.1,0-0.1l5.5-34l0-0.1c0-0.3,0.1-0.6,0.3-0.6
	c1.2-0.1,2.3-0.5,3.4-1.1c1-0.6,1.9-1.4,2.7-2.3c0-0.1,0.1-0.1,0.1-0.1c0.2-0.1,0.4,0,0.5,0.1L227,132.4L227,132.4z M192.4,167.9
	l-37.5,37.5l6.4-39.4l0-0.1c0-0.1,0-0.1,0-0.2c0.1-0.1,0.2-0.2,0.3-0.2l0.1,0c1.4-0.6,2.6-1.5,3.6-2.7c0.1-0.1,0.3-0.3,0.5-0.3
	c0,0,0.1,0,0.2,0L192.4,167.9L192.4,167.9z M147,213.3l-4.2,4.2L96,150c0,0,0,0-0.1-0.1c-0.1-0.1-0.2-0.2-0.1-0.3
	c0-0.1,0.1-0.2,0.1-0.2l0.1-0.1c0.1-0.2,0.3-0.4,0.4-0.6l0.1-0.2l0,0c0.1-0.1,0.1-0.2,0.3-0.3c0.1-0.1,0.3,0,0.4,0l51.7,10.7
	c0.1,0,0.3,0.1,0.4,0.2c0.1,0.1,0.1,0.1,0.1,0.2c0.4,1.4,1,2.6,2,3.7c0.9,1.1,2.1,1.9,3.4,2.4c0.1,0.1,0.1,0.2,0,0.4
	c0,0.1-0.1,0.2-0.1,0.2C154.1,170,148.5,204.1,147,213.3z M138.2,222.1c-3.1,3.1-5,4.7-7,5.4c-2,0.6-4.2,0.6-6.3,0
	c-2.4-0.8-4.5-2.9-8.7-7.1l-46.9-46.9l12.3-19c0.1-0.1,0.1-0.2,0.2-0.2c0.1-0.1,0.3-0.1,0.5,0c2.8,0.8,5.8,0.7,8.5-0.4
	c0.1-0.1,0.3-0.1,0.4,0c0.1,0.1,0.1,0.1,0.1,0.2L138.2,222.1L138.2,222.1z M64.7,169l-10.8-10.8l21.3-9.1c0.1,0,0.1,0,0.2,0
	c0.2,0,0.3,0.2,0.4,0.3c0.2,0.3,0.4,0.6,0.7,1l0.1,0.1c0.1,0.1,0,0.2,0,0.3L64.7,169L64.7,169z M49.2,153.5l-13.6-13.6
	c-2.3-2.3-4-4-5.2-5.4l41.4,8.6c0.1,0,0.1,0,0.2,0c0.3,0,0.5,0.1,0.5,0.3c0,0.3-0.3,0.4-0.6,0.5l-0.1,0.1L49.2,153.5z M28,127.4
	c0-0.9,0.2-1.7,0.5-2.6c0.8-2.4,2.9-4.5,7.1-8.7L53,98.7c8,11.6,16.1,23.3,24.1,34.9c0.1,0.2,0.3,0.4,0.1,0.6
	c-0.8,0.8-1.5,1.8-2.1,2.8c-0.1,0.1-0.1,0.2-0.3,0.3c-0.1,0-0.1,0-0.2,0h0L28,127.4L28,127.4z M57.6,94l23.4-23.4
	c2.2,1,10.2,4.4,17.4,7.4c5.4,2.3,10.4,4.4,11.9,5.1c0.2,0.1,0.3,0.1,0.4,0.3c0,0.1,0,0.2,0,0.3c-0.4,1.7-0.3,3.4,0.2,5.1
	c0.5,1.7,1.4,3.2,2.6,4.4c0.2,0.2,0,0.4-0.1,0.6l-0.1,0.1l-23.8,36.8c-0.1,0.1-0.1,0.2-0.2,0.3c-0.1,0.1-0.3,0-0.4,0
	c-0.9-0.2-1.9-0.4-2.8-0.4c-0.9,0-1.8,0.2-2.7,0.3h0c-0.1,0-0.2,0-0.3,0c-0.1-0.1-0.2-0.2-0.2-0.3L57.6,94L57.6,94z M85.8,65.9
	l30.3-30.3c4.2-4.2,6.3-6.3,8.7-7.1c2-0.6,4.2-0.6,6.3,0c2.4,0.8,4.5,2.9,8.7,7.1l6.6,6.6l-21.6,33.4c-0.1,0.1-0.1,0.2-0.2,0.3
	c-0.1,0.1-0.3,0.1-0.5,0c-1.7-0.5-3.5-0.6-5.2-0.3c-1.7,0.3-3.4,1.1-4.8,2.2c-0.1,0.1-0.3,0.1-0.5,0C110.8,76.5,88.9,67.2,85.8,65.9
	L85.8,65.9z M151,46.7l19.9,19.9l-4.8,29.7v0.1c0,0.1,0,0.1,0,0.2c-0.1,0.1-0.2,0.1-0.3,0.2c-1,0.3-2,0.8-2.9,1.4
	c0,0-0.1,0.1-0.1,0.1c-0.1,0.1-0.1,0.1-0.2,0.1c-0.1,0-0.2,0-0.2,0l-30.3-12.9l-0.1,0c-0.2-0.1-0.4-0.2-0.4-0.4
	c-0.2-1.7-0.7-3.3-1.6-4.8c-0.1-0.2-0.3-0.5-0.2-0.7L151,46.7L151,46.7z M130.5,91.6l28.4,12c0.2,0.1,0.3,0.1,0.4,0.3
	c0,0.1,0,0.2,0,0.3c-0.1,0.4-0.2,0.9-0.2,1.4v0.8c0,0.2-0.2,0.3-0.4,0.4l-0.1,0c-4.5,1.9-63.3,27-63.4,27c-0.1,0-0.2,0-0.3-0.1
	c-0.2-0.2,0-0.4,0.1-0.6c0,0,0-0.1,0.1-0.1l23.4-36.2l0-0.1c0.1-0.2,0.3-0.5,0.5-0.5l0.2,0c0.5,0.1,1,0.1,1.5,0.1
	c3.5,0,6.8-1.7,8.8-4.7c0-0.1,0.1-0.1,0.2-0.2C130.1,91.5,130.3,91.5,130.5,91.6L130.5,91.6z M97.9,139.5l64.1-27.3
	c0,0,0.1,0,0.2,0.1c0.3,0.3,0.6,0.6,0.9,0.8l0.1,0.1c0.1,0.1,0.3,0.2,0.3,0.3c0,0.1,0,0.1,0,0.1l-5.5,33.7l0,0.1
	c0,0.3-0.1,0.6-0.3,0.6c-1.5,0.1-2.9,0.6-4.1,1.3c-1.2,0.8-2.3,1.8-3,3.1l0,0c-0.1,0.1-0.1,0.2-0.3,0.3c-0.1,0.1-0.3,0-0.4,0
	l-51.1-10.5C98.7,142.2,98,139.5,97.9,139.5L97.9,139.5z"/>
</svg>
