<?xml version="1.0" encoding="utf-8"?>
<!-- Generator: Adobe Illustrator 24.3.0, SVG Export Plug-In . SVG Version: 6.00 Build 0)  -->
<svg version="1.1" id="Layer_1" xmlns="http://www.w3.org/2000/svg" xmlns:xlink="http://www.w3.org/1999/xlink" x="0px" y="0px"
	 viewBox="0 0 256 300" style="enable-background:new 0 0 256 300;" xml:space="preserve">
<style type="text/css">
	.st0{fill:#FFFFFF;}
	.st1{fill:#231F20;}
	.st2{fill:#242938;}
	.st3{fill:#E0234E;}
</style>
<path class="st0" d="M27.5,162.6h201c15.2,0,27.5,12.3,27.5,27.5v82.4c0,15.2-12.3,27.5-27.5,27.5h-201C12.3,300,0,287.7,0,272.5
	v-82.4C0,174.9,12.3,162.6,27.5,162.6z"/>
<g>
	<path class="st1" d="M73.9,292.2c-0.2-0.2-0.4-0.4-0.5-0.6l-7.6-12.3v12.2c0,0.3-0.1,0.5-0.3,0.7c-0.2,0.2-0.4,0.3-0.6,0.3h-4.4
		c-0.2,0-0.5-0.1-0.6-0.3c-0.2-0.2-0.3-0.4-0.3-0.7v-23.3c0-0.3,0.1-0.5,0.3-0.7c0.2-0.2,0.4-0.3,0.6-0.3h3.5c0.3,0,0.6,0.1,0.9,0.3
		c0.2,0.2,0.4,0.4,0.5,0.6l7.6,12.3v-12.2c0-0.3,0.1-0.5,0.3-0.7c0.2-0.2,0.4-0.3,0.6-0.3h4.4c0.2,0,0.5,0.1,0.6,0.3
		c0.2,0.2,0.3,0.4,0.3,0.7v23.3c0,0.3-0.1,0.5-0.3,0.7c-0.2,0.2-0.4,0.3-0.6,0.3h-3.5C74.4,292.5,74.1,292.4,73.9,292.2z"/>
	<path class="st1" d="M89.9,286.7h10.5c0.2,0,0.5,0.1,0.6,0.3c0.2,0.2,0.3,0.4,0.3,0.7v3.8c0,0.3-0.1,0.5-0.3,0.7
		c-0.2,0.2-0.4,0.3-0.6,0.3H84.6c-0.2,0-0.5-0.1-0.6-0.3c-0.2-0.2-0.3-0.4-0.3-0.7v-23.3c0-0.3,0.1-0.5,0.3-0.7
		c0.2-0.2,0.4-0.3,0.6-0.3h15.5c0.2,0,0.5,0.1,0.6,0.3c0.2,0.2,0.3,0.4,0.3,0.7v3.8c0,0.3-0.1,0.5-0.3,0.7c-0.2,0.2-0.4,0.3-0.6,0.3
		H89.9v3.9h9.5c0.2,0,0.5,0.1,0.6,0.3c0.2,0.2,0.3,0.4,0.3,0.7v3.8c0,0.3-0.1,0.5-0.3,0.7c-0.2,0.2-0.4,0.3-0.6,0.3h-9.5V286.7z"/>
	<path class="st1" d="M123.1,274.6c-0.1,0.2-0.3,0.2-0.5,0.2h-4.4c-0.3,0-0.6,0-0.7-0.1c-0.2-0.1-0.4-0.2-0.6-0.5
		c0,0-0.2-0.2-0.4-0.5c-0.2-0.3-0.6-0.5-1.1-0.7c-0.5-0.2-1.1-0.3-1.8-0.3c-1,0-1.7,0.1-2.3,0.4c-0.6,0.3-0.9,0.8-0.9,1.4
		c0,0.5,0.2,0.9,0.6,1.1c0.4,0.3,1,0.5,1.7,0.7c0.8,0.2,2.2,0.5,4.1,1c2.5,0.6,4.3,1.4,5.5,2.6c1.2,1.2,1.8,2.9,1.8,5
		c0,1.6-0.4,3-1.3,4.2c-0.9,1.2-2.1,2.1-3.7,2.7c-1.6,0.6-3.3,1-5.3,1c-1.9,0-3.6-0.4-5.2-1.1c-1.6-0.7-2.8-1.7-3.7-2.8
		c-0.9-1.2-1.4-2.3-1.4-3.6c0-0.2,0.1-0.4,0.2-0.6c0.1-0.2,0.3-0.2,0.5-0.2h4.4c0.5,0,0.9,0.2,1.3,0.5c0.1,0.1,0.2,0.3,0.5,0.6
		c0.3,0.3,0.7,0.7,1.3,0.9c0.6,0.3,1.3,0.4,2.1,0.4c2.8,0,4.1-0.6,4.1-1.9c0-0.4-0.2-0.8-0.6-1c-0.4-0.3-0.9-0.5-1.6-0.7
		c-0.7-0.2-1.8-0.5-3.4-0.8l-1.5-0.3c-2.3-0.5-3.9-1.4-5-2.6c-1.1-1.2-1.6-2.9-1.6-5c0-1.4,0.4-2.7,1.2-3.9c0.8-1.2,1.9-2.1,3.3-2.8
		s3.1-1.1,4.9-1.1c1.8,0,3.4,0.4,4.9,1.1c1.5,0.7,2.7,1.7,3.5,2.8c0.9,1.1,1.3,2.2,1.3,3.2C123.3,274.2,123.3,274.4,123.1,274.6z"/>
	<path class="st1" d="M143,267.6c0.2,0.2,0.3,0.4,0.3,0.7v3.8c0,0.3-0.1,0.5-0.3,0.7s-0.4,0.3-0.6,0.3h-5.9v18.5
		c0,0.3-0.1,0.5-0.3,0.7c-0.2,0.2-0.4,0.3-0.6,0.3h-4.4c-0.2,0-0.5-0.1-0.6-0.3c-0.2-0.2-0.3-0.4-0.3-0.7V273h-5.9
		c-0.2,0-0.5-0.1-0.6-0.3c-0.2-0.2-0.3-0.4-0.3-0.7v-3.8c0-0.3,0.1-0.5,0.3-0.7c0.2-0.2,0.4-0.3,0.6-0.3h17.9
		C142.7,267.3,142.9,267.4,143,267.6z"/>
	<path class="st1" d="M151.6,292.2c-0.2,0.2-0.4,0.3-0.6,0.3h-4.4c-0.2,0-0.5-0.1-0.6-0.3c-0.2-0.2-0.3-0.4-0.3-0.7v-4.7
		c0-0.3,0.1-0.5,0.3-0.7c0.2-0.2,0.4-0.3,0.6-0.3h4.4c0.2,0,0.5,0.1,0.6,0.3c0.2,0.2,0.3,0.4,0.3,0.7v4.7
		C151.8,291.8,151.7,292,151.6,292.2z"/>
	<path class="st1" d="M172.9,288.5c-0.9,1.4-2.1,2.5-3.6,3.2c-1.5,0.7-3.2,1.1-5,1.1c-1.9,0-3.6-0.3-5.1-1c-1.5-0.7-2.7-1.7-3.5-3
		c-0.9-1.3-1.3-2.8-1.3-4.5c0-0.2,0.1-0.4,0.2-0.6c0.1-0.2,0.3-0.2,0.5-0.2h4.3c0.4,0,0.7,0.1,0.8,0.2c0.1,0.1,0.3,0.4,0.4,0.8
		c0.3,0.8,0.7,1.5,1.3,1.9c0.6,0.4,1.4,0.6,2.4,0.6c1.2,0,2.2-0.3,2.8-1c0.6-0.7,1-1.7,1-3v-10h-11.4c-0.2,0-0.5-0.1-0.6-0.3
		s-0.3-0.4-0.3-0.7v-3.8c0-0.3,0.1-0.5,0.3-0.7c0.2-0.2,0.4-0.3,0.6-0.3h16.6c0.2,0,0.5,0.1,0.6,0.3c0.2,0.2,0.3,0.4,0.3,0.7v15
		C174.2,285.3,173.7,287.1,172.9,288.5z"/>
	<path class="st1" d="M196.9,274.6c-0.1,0.2-0.3,0.2-0.5,0.2H192c-0.3,0-0.6,0-0.7-0.1s-0.4-0.2-0.6-0.5c0,0-0.2-0.2-0.4-0.5
		c-0.2-0.3-0.6-0.5-1.1-0.7c-0.5-0.2-1.1-0.3-1.8-0.3c-1,0-1.7,0.1-2.3,0.4c-0.6,0.3-0.9,0.8-0.9,1.4c0,0.5,0.2,0.9,0.6,1.1
		c0.4,0.3,1,0.5,1.7,0.7c0.8,0.2,2.2,0.5,4.1,1c2.5,0.6,4.3,1.4,5.5,2.6c1.2,1.2,1.8,2.9,1.8,5c0,1.6-0.4,3-1.3,4.2
		c-0.9,1.2-2.1,2.1-3.7,2.7c-1.6,0.6-3.3,1-5.3,1c-1.9,0-3.6-0.4-5.2-1.1c-1.6-0.7-2.8-1.7-3.7-2.8c-0.9-1.2-1.4-2.3-1.4-3.6
		c0-0.2,0.1-0.4,0.2-0.6c0.1-0.2,0.3-0.2,0.5-0.2h4.4c0.5,0,0.9,0.2,1.3,0.5c0.1,0.1,0.2,0.3,0.5,0.6c0.3,0.3,0.7,0.7,1.3,0.9
		c0.6,0.3,1.3,0.4,2.1,0.4c2.8,0,4.1-0.6,4.1-1.9c0-0.4-0.2-0.8-0.6-1c-0.4-0.3-0.9-0.5-1.6-0.7c-0.7-0.2-1.8-0.5-3.4-0.8l-1.5-0.3
		c-2.3-0.5-3.9-1.4-5-2.6c-1.1-1.2-1.6-2.9-1.6-5c0-1.4,0.4-2.7,1.2-3.9c0.8-1.2,1.9-2.1,3.3-2.8s3.1-1.1,4.9-1.1
		c1.8,0,3.4,0.4,4.9,1.1c1.5,0.7,2.7,1.7,3.5,2.8c0.9,1.1,1.3,2.2,1.3,3.2C197.1,274.2,197,274.4,196.9,274.6z"/>
</g>
<path class="st2" d="M60,0h136c33.1,0,60,26.9,60,60v136c0,33.1-26.9,60-60,60H60c-33.1,0-60-26.9-60-60V60C0,26.9,26.9,0,60,0z"/>
<path class="st3" d="M146.7,18c-1.6,0-3,0.3-4.3,0.8c2.8,1.9,4.4,4.5,5.2,7.4c0.1,0.4,0.2,0.7,0.2,1.1c0.1,0.3,0.1,0.7,0.1,1
	c0.2,5-1.3,5.6-2.3,8.6c-1.6,3.8-1.2,7.9,0.8,11.2c0.2,0.4,0.4,0.9,0.7,1.3c-2.1-14.4,9.6-16.6,11.8-21.1c0.2-3.9-3-6.6-5.5-8.4
	C150.9,18.5,148.7,18,146.7,18L146.7,18z M164.4,21.3c-0.2,1.3-0.1,1-0.1,1.7c-0.1,0.5-0.1,1-0.1,1.5c-0.1,0.5-0.2,0.9-0.4,1.4
	c-0.1,0.5-0.3,0.9-0.4,1.4c-0.2,0.5-0.4,0.9-0.6,1.3c-0.2,0.2-0.3,0.5-0.4,0.7c-0.1,0.2-0.2,0.3-0.3,0.5c-0.3,0.4-0.6,0.8-0.8,1.1
	c-0.3,0.3-0.6,0.7-1,1c0,0.1,0,0.1,0,0.1c-0.3,0.3-0.7,0.6-1.1,0.9c-1.2,0.9-2.5,1.6-3.7,2.5c-0.4,0.3-0.8,0.5-1.1,0.9
	c-0.4,0.3-0.7,0.6-1.1,0.9c-0.4,0.3-0.7,0.7-1,1.1c-0.3,0.3-0.6,0.7-0.8,1.1c-0.3,0.4-0.6,0.8-0.8,1.2c-0.2,0.5-0.4,0.9-0.6,1.3
	c-0.2,0.5-0.3,0.9-0.4,1.3c-0.2,0.5-0.3,1-0.4,1.4c-0.1,0.2-0.1,0.5-0.1,0.7c-0.1,0.2-0.1,0.5-0.1,0.7c0,0.5-0.1,1-0.1,1.4
	c0,0.3,0,0.7,0.1,1c0,0.5,0.1,0.9,0.2,1.4c0.1,0.5,0.2,0.9,0.3,1.4c0.2,0.5,0.3,0.9,0.4,1.4c0.1,0.3,0.3,0.6,0.4,0.8l-12.8-5.1
	c-2.2-0.6-4.3-1.2-6.4-1.7c-1.2-0.3-2.3-0.6-3.5-0.9c-3.3-0.7-6.7-1.2-10.1-1.5c-0.1,0-0.2-0.1-0.3-0.1c-3.3-0.3-6.6-0.5-9.9-0.5
	c-2.4,0-4.9,0.1-7.3,0.3c-3.4,0.2-6.8,0.7-10.2,1.3c-0.8,0.1-1.7,0.3-2.5,0.5c-1.7,0.3-3.4,0.7-5,1.1c-0.8,0.2-1.7,0.5-2.5,0.7
	c-0.8,0.3-1.6,0.7-2.4,1.1c-0.6,0.3-1.2,0.6-1.8,0.9c-0.1,0.1-0.2,0.1-0.3,0.1c-0.6,0.3-1.1,0.5-1.6,0.8c-0.2,0.1-0.3,0.1-0.4,0.2
	c-0.6,0.3-1.2,0.6-1.7,0.9c-0.4,0.2-0.8,0.4-1.1,0.6c-0.2,0.1-0.4,0.2-0.5,0.3c-0.5,0.3-1,0.6-1.4,0.9c-0.5,0.3-0.9,0.6-1.3,0.9
	c-0.4,0.3-0.8,0.5-1.1,0.8c-0.1,0.1-0.1,0.1-0.2,0.1c-0.3,0.2-0.7,0.5-1.1,0.8c0,0-0.1,0.1-0.1,0.1c-0.3,0.2-0.6,0.5-0.8,0.7
	c-0.1,0.1-0.2,0.2-0.3,0.2c-0.3,0.2-0.6,0.5-0.8,0.7c-0.1,0.1-0.2,0.2-0.2,0.2c-0.3,0.3-0.7,0.6-1,1c-0.1,0-0.1,0.1-0.1,0.1
	c-0.3,0.3-0.7,0.6-1,1c-0.1,0.1-0.1,0.1-0.1,0.1c-0.3,0.3-0.6,0.6-0.8,0.9c-0.1,0.1-0.3,0.2-0.4,0.3c-0.3,0.3-0.6,0.7-0.9,1
	c-0.1,0.1-0.2,0.2-0.2,0.3c-0.4,0.5-0.8,0.9-1.3,1.4c-0.1,0.1-0.1,0.1-0.2,0.2c-0.9,1-1.8,1.9-2.8,2.8c-1,0.9-2.1,1.8-3.1,2.5
	c-1.1,0.8-2.2,1.5-3.3,2.2C46,72,44.8,72.5,43.6,73c-1.2,0.5-2.4,1-3.6,1.4c-2.3,0.5-4.7,1.5-6.8,1.7c-0.4,0-0.9,0.1-1.4,0.2
	c-0.5,0.1-0.9,0.2-1.4,0.3c-0.4,0.2-0.9,0.3-1.3,0.5c-0.4,0.2-0.9,0.4-1.3,0.6c-0.4,0.3-0.8,0.5-1.2,0.8c-0.4,0.3-0.8,0.6-1.1,1
	c-0.4,0.3-0.8,0.7-1.1,1c-0.3,0.4-0.7,0.7-0.9,1.1c-0.3,0.5-0.6,0.9-0.8,1.3c-0.3,0.4-0.6,0.9-0.8,1.3c-0.2,0.5-0.4,1-0.6,1.5
	c-0.2,0.5-0.3,1-0.5,1.5c-0.1,0.5-0.2,0.9-0.3,1.4c0,0.1-0.1,0.1-0.1,0.2c-0.1,0.5-0.1,1.2-0.2,1.5c-0.1,0.4-0.1,0.7-0.1,1.1
	c0,0.2,0,0.5,0.1,0.7c0.1,0.4,0.1,0.7,0.2,1.1c0.1,0.3,0.2,0.7,0.4,1c0,0.1,0,0.1,0,0.1c0.2,0.3,0.4,0.7,0.6,1
	c0.2,0.3,0.4,0.7,0.7,1c0.3,0.3,0.6,0.6,0.9,0.9c0.3,0.3,0.7,0.6,1.1,0.9c1.3,1.2,1.7,1.6,3.4,2.5c0.3,0.2,0.6,0.3,0.9,0.5
	c0.1,0,0.1,0.1,0.2,0.1c0,0.1,0,0.2,0.1,0.3c0.1,0.5,0.2,0.9,0.3,1.4c0.1,0.5,0.3,1,0.4,1.4c0.2,0.3,0.3,0.7,0.4,1
	c0.1,0.1,0.1,0.2,0.2,0.3c0.2,0.5,0.4,0.9,0.7,1.3c0.3,0.4,0.6,0.8,0.8,1.2c0.3,0.3,0.6,0.7,0.9,1.1c0.3,0.3,0.7,0.6,1.1,1
	c0,0,0.1,0.1,0.1,0.1c0.3,0.3,0.7,0.6,1,0.8c0.4,0.3,0.8,0.5,1.2,0.7c0.4,0.2,0.8,0.5,1.3,0.6c0.3,0.2,0.7,0.3,1.1,0.4
	c0.1,0.1,0.1,0.1,0.2,0.1c0.2,0.1,0.5,0.1,0.7,0.2c-0.2,3.1-0.2,6,0.2,7c0.5,1.1,2.9-2.3,5.4-6.3c-0.3,3.9-0.6,8.6,0,9.9
	c0.6,1.4,3.9-3,6.8-7.9c39.4-9.4,75.4,18.6,79.1,58.1c-0.7-6.2-8.1-9.6-11.5-8.7c-1.7,4.2-4.5,9.6-9.1,13c0.4-3.8,0.2-7.6-0.6-11.4
	c-1.2,5.2-3.6,10.2-6.9,14.4c-5.3,0.4-10.6-2.2-13.3-6.2c-0.2-0.2-0.3-0.5-0.4-0.7c-0.2-0.4-0.3-0.8-0.4-1.2
	c-0.2-0.4-0.3-0.8-0.3-1.2s-0.1-0.8-0.1-1.3c0-0.3,0-0.6,0-0.9c0.1-0.4,0.2-0.8,0.3-1.2c0.1-0.4,0.2-0.8,0.4-1.2
	c0.2-0.4,0.4-0.8,0.7-1.2c0.9-2.7,0.9-5-0.8-6.3c-0.3-0.2-0.7-0.4-1.1-0.6c-0.2-0.1-0.5-0.2-0.7-0.2c-0.2-0.1-0.3-0.1-0.4-0.2
	c-0.4-0.1-0.8-0.2-1.2-0.3c-0.4-0.1-0.8-0.2-1.2-0.2c-0.4-0.1-0.8-0.1-1.2-0.1c-0.3,0-0.6,0.1-0.8,0.1c-0.4,0-0.8,0.1-1.2,0.2
	c-0.4,0.1-0.8,0.1-1.2,0.2c-0.4,0.1-0.8,0.2-1.2,0.4c-0.4,0.2-0.7,0.3-1.1,0.5c-0.3,0.2-0.7,0.4-1.1,0.6c-13,8.7-5.2,29,3.6,34.9
	c-3.3,0.6-6.7,1.4-7.7,2.1c-0.1,0.1-0.1,0.1-0.1,0.1c2.4,1.5,4.9,2.7,7.5,3.8c3.6,1.2,7.3,2.3,9,2.7v0.1c4.6,1,9.3,1.3,14,1
	c24.6-1.8,44.8-21,48.5-46.3c0.1,0.5,0.2,1,0.3,1.5c0.2,1,0.4,2.1,0.5,3.2c0,0,0,0,0,0.1c0.1,0.5,0.2,1,0.2,1.5c0,0.1,0,0.2,0,0.2
	c0.1,0.5,0.1,1,0.1,1.5c0.1,0.6,0.1,1.3,0.1,1.9c0,0.3,0,0.6,0,0.9c0,0.3,0.1,0.6,0.1,0.9c0,0.3-0.1,0.7-0.1,1c0,0.3,0,0.6,0,0.8
	c0,0.4-0.1,0.7-0.1,1.1c0,0.2,0,0.5-0.1,0.7c0,0.4-0.1,0.8-0.1,1.3c-0.1,0.2-0.1,0.3-0.1,0.5c-0.1,0.5-0.1,0.9-0.2,1.3
	c0,0.2,0,0.3-0.1,0.5c-0.1,0.6-0.2,1.1-0.2,1.7v0.1v0.1c-0.1,0.5-0.2,1.1-0.3,1.6c0,0.1,0,0.1,0,0.2c-0.1,0.5-0.2,1-0.3,1.5
	c0,0.1-0.1,0.2-0.1,0.2c-0.1,0.5-0.2,1-0.4,1.5c0,0.1,0,0.1,0,0.2c-0.2,0.6-0.3,1.1-0.4,1.6c-0.1,0.1-0.1,0.1-0.1,0.1
	c-0.2,0.6-0.3,1.1-0.5,1.7c-0.2,0.6-0.4,1.1-0.6,1.7c-0.2,0.6-0.4,1.1-0.6,1.7c-0.2,0.6-0.4,1.1-0.7,1.7h-0.1
	c-0.2,0.5-0.4,1.1-0.7,1.6c-0.1,0.2-0.1,0.3-0.2,0.4c-0.1,0.1-0.1,0.1-0.1,0.2c-3.6,7.5-8.9,14-15.6,19.2c-0.4,0.3-0.9,0.6-1.3,1
	c-0.1,0.1-0.3,0.2-0.4,0.3c-0.4,0.3-0.8,0.6-1.2,0.9l0.2,0.3h0.1c0.8-0.1,1.6-0.2,2.3-0.3h0.1c1.4-0.2,2.9-0.5,4.3-0.8
	c0.4-0.1,0.8-0.2,1.2-0.3c0.3-0.1,0.5-0.1,0.8-0.2c0.4-0.1,0.8-0.2,1.2-0.2c0.3-0.1,0.7-0.2,1-0.3c5.6-1.4,10.9-3.3,16.1-5.5
	c-8.8,12.4-20.7,22.4-34.5,28.9c6.4-0.5,12.8-1.5,19-3.4c22.4-6.8,41.2-22.2,52.5-43.1c-2.3,13.2-7.4,25.7-15,36.7
	c5.4-3.7,10.3-7.9,14.8-12.7c12.4-13.3,20.6-30.3,23.4-48.5c1.9,9,2.4,18.3,1.6,27.5c40.1-57.4,3.3-117-12.1-132.7
	c-0.1-0.1-0.1-0.2-0.1-0.3c-0.1,0.1-0.1,0.1-0.1,0.1c0-0.1,0-0.1-0.1-0.1c0,0.7-0.1,1.4-0.1,2.1c-0.2,1.3-0.3,2.6-0.6,3.8
	c-0.3,1.3-0.6,2.5-0.9,3.8c-0.4,1.2-0.8,2.5-1.3,3.7c-0.5,1.1-1.1,2.3-1.7,3.5c-0.6,1.1-1.3,2.2-2,3.3c-0.7,1.1-1.5,2.1-2.3,3.1
	c-0.8,1-1.7,1.9-2.6,2.9c-0.6,0.5-1.1,1-1.6,1.4c-0.4,0.4-0.8,0.7-1.3,1.1c-1,0.8-2,1.5-3.1,2.2c-1.1,0.7-2.2,1.4-3.3,1.9
	c-1.2,0.6-2.3,1.1-3.5,1.6c-1.2,0.5-2.4,0.9-3.6,1.2c-1.2,0.3-2.5,0.6-3.7,0.9c-1.3,0.2-2.6,0.3-3.8,0.5c-0.9,0.1-1.8,0.1-2.7,0.1
	c-1.3,0-2.6-0.1-3.8-0.2c-1.3-0.1-2.6-0.3-3.8-0.6c-1.3-0.2-2.5-0.6-3.7-1h-0.1c1.2-0.1,2.4-0.2,3.7-0.5c1.3-0.2,2.5-0.5,3.7-0.9
	c1.2-0.3,2.4-0.7,3.6-1.2c1.2-0.5,2.4-1,3.5-1.6c1.2-0.6,2.2-1.2,3.3-1.9c1.1-0.7,2.1-1.5,3.1-2.3c1-0.8,1.9-1.7,2.8-2.6
	c0.9-0.9,1.8-1.8,2.6-2.8c0.8-1,1.6-2.1,2.3-3.1c0.1-0.2,0.2-0.4,0.3-0.6c0.6-0.9,1.1-1.8,1.6-2.7c0.6-1.1,1.2-2.3,1.7-3.5
	c0.5-1.2,0.9-2.4,1.3-3.7c0.4-1.2,0.7-2.5,0.9-3.7c0.2-1.3,0.4-2.6,0.6-3.8c0.1-1.3,0.2-2.6,0.2-3.9c0-0.9-0.1-1.8-0.1-2.7
	c-0.1-1.3-0.3-2.6-0.4-3.8c-0.2-1.3-0.5-2.6-0.8-3.8c-0.4-1.2-0.8-2.5-1.2-3.7c-0.4-1.2-1-2.4-1.6-3.5c-0.6-1.1-1.2-2.3-1.9-3.4
	c-0.7-1.1-1.4-2.1-2.2-3.1c-0.8-1-1.7-1.9-2.6-2.9c-0.4-0.5-0.9-1-1.4-1.4c-2.5-2-5.1-3.9-7.7-5.6c-0.4-0.2-0.7-0.4-1.1-0.6
	C167.9,22.4,166.1,21.8,164.4,21.3L164.4,21.3z"/>
</svg>
