<?xml version="1.0" encoding="utf-8"?>
<!-- Generator: Adobe Illustrator 24.3.0, SVG Export Plug-In . SVG Version: 6.00 Build 0)  -->
<svg version="1.1" id="Layer_1" xmlns="http://www.w3.org/2000/svg" xmlns:xlink="http://www.w3.org/1999/xlink" x="0px" y="0px"
	 viewBox="0 0 256 300" style="enable-background:new 0 0 256 300;" xml:space="preserve">
<style type="text/css">
	.st0{fill:#FFFFFF;}
	.st1{fill:#0D1117;}
	.st2{fill:#242938;}
	.st3{fill:#81CD39;}
</style>
<path class="st0" d="M27.5,162.6h201c15.2,0,27.5,12.3,27.5,27.5v82.4c0,15.2-12.3,27.5-27.5,27.5h-201C12.3,300,0,287.7,0,272.5
	v-82.4C0,174.9,12.3,162.6,27.5,162.6z"/>
<g>
	<path class="st1" d="M65.9,292.2c-0.2-0.2-0.4-0.4-0.5-0.6l-7.1-12.2v12.1c0,0.3-0.1,0.5-0.2,0.7c-0.2,0.2-0.4,0.3-0.6,0.3h-4.1
		c-0.2,0-0.4-0.1-0.6-0.3c-0.2-0.2-0.2-0.4-0.2-0.7v-23.1c0-0.3,0.1-0.5,0.2-0.7c0.2-0.2,0.4-0.3,0.6-0.3h3.2c0.3,0,0.6,0.1,0.8,0.3
		c0.2,0.2,0.4,0.4,0.5,0.6l7.1,12.2v-12.1c0-0.3,0.1-0.5,0.2-0.7c0.2-0.2,0.4-0.3,0.6-0.3h4.1c0.2,0,0.4,0.1,0.6,0.3
		c0.2,0.2,0.2,0.4,0.2,0.7v23.1c0,0.3-0.1,0.5-0.2,0.7c-0.2,0.2-0.4,0.3-0.6,0.3h-3.2C66.4,292.5,66.2,292.4,65.9,292.2z"/>
	<path class="st1" d="M91.6,268.4c1.4,0.9,2.5,2,3.3,3.5s1.2,3.1,1.3,4.9c0,0.7,0.1,1.7,0.1,3.2s0,2.5-0.1,3.1
		c-0.1,1.8-0.5,3.5-1.3,4.9c-0.8,1.5-1.9,2.6-3.3,3.5s-3.1,1.3-5.1,1.3s-3.7-0.4-5.1-1.3s-2.5-2-3.3-3.5s-1.2-3.1-1.3-4.9
		c0-1.3-0.1-2.3-0.1-3.1c0-0.8,0-1.9,0.1-3.2c0.1-1.8,0.5-3.5,1.3-4.9c0.8-1.5,1.9-2.6,3.3-3.5s3.1-1.3,5.1-1.3
		S90.2,267.5,91.6,268.4z M89.3,274c-0.7-0.8-1.6-1.1-2.8-1.1s-2.2,0.4-2.8,1.1c-0.7,0.8-1,1.8-1.1,3c-0.1,0.8-0.1,1.8-0.1,3
		s0,2.2,0.1,3c0.1,1.3,0.5,2.3,1.1,3c0.7,0.8,1.6,1.1,2.8,1.1s2.2-0.4,2.8-1.1c0.7-0.8,1-1.8,1.1-3c0.1-0.9,0.1-1.9,0.1-3
		c0-1.2,0-2.2-0.1-3C90.3,275.7,90,274.7,89.3,274z"/>
	<path class="st1" d="M121.1,280c0,0.4,0,1.2-0.1,2.5c-0.1,2-0.5,3.7-1.3,5.2s-1.9,2.7-3.4,3.5c-1.4,0.8-3.1,1.3-5,1.3H103
		c-0.2,0-0.4-0.1-0.6-0.3c-0.2-0.2-0.2-0.4-0.2-0.7v-23.1c0-0.3,0.1-0.5,0.2-0.7c0.2-0.2,0.4-0.3,0.6-0.3h8.2c1.9,0,3.6,0.4,5,1.3
		c1.5,0.8,2.6,2,3.4,3.5s1.3,3.2,1.4,5.2C121.1,278.8,121.1,279.5,121.1,280z M108,273.2v13.6h3.3c2.6,0,4-1.4,4.1-4.1
		c0-1.4,0.1-2.3,0.1-2.7c0-0.5,0-1.4-0.1-2.6c-0.1-1.4-0.4-2.4-1.2-3.1c-0.7-0.7-1.7-1-3.1-1L108,273.2L108,273.2z"/>
	<path class="st1" d="M132.8,286.8h9.8c0.2,0,0.4,0.1,0.6,0.3c0.2,0.2,0.2,0.4,0.2,0.7v3.8c0,0.3-0.1,0.5-0.2,0.7
		c-0.2,0.2-0.4,0.3-0.6,0.3h-14.7c-0.2,0-0.4-0.1-0.6-0.3c-0.2-0.2-0.2-0.4-0.2-0.7v-23.1c0-0.3,0.1-0.5,0.2-0.7
		c0.2-0.2,0.4-0.3,0.6-0.3h14.5c0.2,0,0.4,0.1,0.6,0.3c0.2,0.2,0.2,0.4,0.2,0.7v3.8c0,0.3-0.1,0.5-0.2,0.7c-0.2,0.2-0.4,0.3-0.6,0.3
		h-9.6v3.9h8.9c0.2,0,0.4,0.1,0.6,0.3c0.2,0.2,0.2,0.4,0.2,0.7v3.8c0,0.3-0.1,0.5-0.2,0.7c-0.2,0.2-0.4,0.3-0.6,0.3h-8.9V286.8z"/>
	<path class="st1" d="M154.3,292.2c-0.2,0.2-0.4,0.3-0.6,0.3h-4.1c-0.2,0-0.4-0.1-0.6-0.3c-0.2-0.2-0.2-0.4-0.2-0.7v-4.7
		c0-0.3,0.1-0.5,0.2-0.7c0.2-0.2,0.4-0.3,0.6-0.3h4.1c0.2,0,0.4,0.1,0.6,0.3c0.2,0.2,0.2,0.4,0.2,0.7v4.7
		C154.5,291.8,154.5,292,154.3,292.2z"/>
	<path class="st1" d="M176.6,288.5c-0.8,1.4-1.9,2.5-3.4,3.2c-1.4,0.7-3,1.1-4.7,1.1c-1.8,0-3.3-0.3-4.7-1s-2.5-1.7-3.3-3
		s-1.2-2.8-1.2-4.4c0-0.2,0.1-0.4,0.2-0.6s0.3-0.2,0.5-0.2h4c0.4,0,0.6,0.1,0.8,0.2c0.1,0.1,0.3,0.4,0.4,0.8
		c0.2,0.8,0.6,1.5,1.2,1.9c0.5,0.4,1.3,0.6,2.3,0.6c1.2,0,2-0.3,2.6-1s0.9-1.7,0.9-3v-10h-10.6c-0.2,0-0.4-0.1-0.6-0.3
		c-0.2-0.2-0.2-0.4-0.2-0.7v-3.8c0-0.3,0.1-0.5,0.2-0.7c0.2-0.2,0.4-0.3,0.6-0.3h15.5c0.2,0,0.4,0.1,0.6,0.3s0.2,0.4,0.2,0.7v15
		C177.8,285.4,177.4,287,176.6,288.5z"/>
	<path class="st1" d="M201.3,274.7c-0.1,0.2-0.3,0.2-0.5,0.2h-4.1c-0.3,0-0.5,0-0.7-0.1s-0.4-0.2-0.6-0.4c0,0-0.2-0.2-0.4-0.5
		s-0.6-0.5-1.1-0.7s-1.1-0.3-1.7-0.3c-0.9,0-1.6,0.1-2.2,0.4s-0.9,0.7-0.9,1.4c0,0.5,0.2,0.9,0.5,1.1c0.4,0.3,0.9,0.5,1.6,0.7
		s2,0.5,3.8,1c2.3,0.5,4.1,1.4,5.2,2.6s1.6,2.8,1.6,5c0,1.6-0.4,3-1.2,4.1c-0.8,1.2-2,2.1-3.4,2.7s-3.1,0.9-5,0.9
		c-1.8,0-3.4-0.4-4.8-1.1s-2.6-1.6-3.4-2.8c-0.8-1.1-1.3-2.3-1.3-3.5c0-0.2,0.1-0.4,0.2-0.6s0.3-0.2,0.5-0.2h4.1
		c0.5,0,0.8,0.2,1.2,0.5c0.1,0.1,0.2,0.3,0.5,0.6s0.7,0.7,1.2,0.9c0.5,0.3,1.2,0.4,1.9,0.4c2.6,0,3.8-0.6,3.8-1.9
		c0-0.4-0.2-0.7-0.5-1s-0.9-0.5-1.5-0.7c-0.7-0.2-1.7-0.5-3.2-0.8l-1.4-0.3c-2.1-0.5-3.7-1.4-4.7-2.6s-1.5-2.9-1.5-4.9
		c0-1.4,0.4-2.7,1.1-3.8c0.7-1.2,1.8-2.1,3.1-2.8c1.3-0.7,2.9-1.1,4.6-1.1s3.2,0.4,4.6,1.1s2.5,1.6,3.3,2.7s1.2,2.2,1.3,3.2
		C201.5,274.4,201.5,274.5,201.3,274.7z"/>
</g>
<path class="st2" d="M60-0.1h136c33.1,0,60,26.9,60,60v136c0,33.1-26.9,60-60,60H60c-33.1,0-60-26.9-60-60v-136
	C0,26.9,26.8-0.1,60-0.1z"/>
<path class="st3" d="M119.8,31.1c4.9-2.8,11.3-2.8,16.2,0c24.7,14,49.5,27.9,74.2,41.9c4.6,2.6,7.8,7.8,7.7,13.1v84
	c0,5.6-3.4,10.9-8.3,13.4c-24.6,13.9-49.3,27.8-73.9,41.7c-5,2.9-11.6,2.6-16.4-0.5c-7.4-4.3-14.8-8.5-22.2-12.8
	c-1.5-0.9-3.2-1.6-4.3-3.1c0.9-1.3,2.6-1.4,4-2c3.1-1,5.9-2.6,8.7-4.1c0.7-0.5,1.6-0.3,2.3,0.1c6.3,3.6,12.6,7.4,18.9,10.9
	c1.4,0.8,2.7-0.3,3.9-0.9c24.2-13.7,48.4-27.3,72.6-41c0.9-0.4,1.4-1.4,1.3-2.4c0-27.7,0-55.5,0-83.2c0.1-1.1-0.5-2.1-1.5-2.6
	c-24.6-13.8-49.1-27.7-73.7-41.5c-0.9-0.6-2-0.6-2.9,0c-24.6,13.8-49.1,27.7-73.6,41.5c-1,0.5-1.7,1.5-1.6,2.6c0,27.7,0,55.5,0,83.2
	c-0.1,1,0.4,1.9,1.3,2.3c6.6,3.7,13.1,7.4,19.7,11.1c3.7,2,8.2,3.2,12.3,1.6c3.6-1.3,6.1-5,6-8.8c0-27.6,0-55.1,0-82.7
	c-0.1-1.2,1.1-2.2,2.3-2.1c3.1,0,6.3,0,9.4,0c1.3,0,2.2,1.3,2.1,2.5c0,27.7,0,55.5,0,83.2c0,7.4-3,15.4-9.9,19.1
	c-8.4,4.4-18.8,3.4-27.2-0.7c-7.2-3.6-14.1-7.8-21.2-11.7c-4.9-2.5-8.3-7.9-8.3-13.4v-84c-0.1-5.5,3.2-10.7,8-13.3
	C70.6,58.9,95.2,44.9,119.8,31.1z"/>
<path class="st3" d="M141.3,89.2c10.7-0.7,22.2-0.4,31.9,4.9c7.5,4.1,11.6,12.6,11.8,20.9c-0.2,1.1-1.4,1.7-2.5,1.7
	c-3.1,0-6.2,0-9.4,0c-1.3,0.1-2.1-1.2-2.3-2.3c-0.9-4-3.1-7.9-6.8-9.8c-5.8-2.9-12.4-2.7-18.7-2.7c-4.6,0.2-9.5,0.6-13.4,3.3
	c-3,2-3.9,6.2-2.8,9.5c1,2.4,3.7,3.1,6,3.9c12.9,3.4,26.7,3,39.4,7.5c5.3,1.8,10.4,5.4,12.2,10.9c2.4,7.4,1.3,16.2-3.9,22.1
	c-4.3,4.9-10.5,7.5-16.6,9c-8.2,1.8-16.8,1.9-25.1,1.1c-7.9-0.9-16-3-22.1-8.3c-5.2-4.5-7.7-11.5-7.5-18.3c0.1-1.1,1.2-1.9,2.3-1.8
	c3.1,0,6.3,0,9.4,0c1.3-0.1,2.2,1,2.2,2.2c0.6,3.8,2,7.8,5.3,10c6.4,4.1,14.4,3.8,21.7,4c6.1-0.3,12.8-0.3,17.8-4.4
	c2.6-2.3,3.4-6.1,2.7-9.4c-0.8-2.8-3.7-4.1-6.2-4.9c-12.8-4-26.7-2.6-39.3-7.1c-5.1-1.8-10.1-5.2-12.1-10.5
	c-2.8-7.5-1.5-16.7,4.3-22.4C125.4,92.2,133.6,90.1,141.3,89.2L141.3,89.2"/>
</svg>
