<?xml version="1.0" encoding="utf-8"?>
<!-- Generator: Adobe Illustrator 24.3.0, SVG Export Plug-In . SVG Version: 6.00 Build 0)  -->
<svg version="1.1" id="Layer_1" xmlns="http://www.w3.org/2000/svg" xmlns:xlink="http://www.w3.org/1999/xlink" x="0px" y="0px"
	 viewBox="0 0 256 300" style="enable-background:new 0 0 256 300;" xml:space="preserve">
<style type="text/css">
	.st0{fill:#FFFFFF;}
	.st1{fill:#0D1117;}
	.st2{fill:#001E36;}
	.st3{fill:#31A8FF;}
</style>
<path class="st0" d="M27.5,162.6h201c15.2,0,27.5,12.3,27.5,27.5v82.4c0,15.2-12.3,27.5-27.5,27.5h-201C12.3,300,0,287.7,0,272.5
	v-82.4C0,174.9,12.3,162.6,27.5,162.6z"/>
<g>
	<path class="st1" d="M38.5,269.5c1.5,1.4,2.3,3.5,2.3,6.2s-0.8,4.8-2.3,6.3c-1.5,1.4-3.6,2.1-6.3,2.1h-4v7.3c0,0.3-0.1,0.5-0.2,0.7
		c-0.2,0.2-0.4,0.3-0.6,0.3h-4.1c-0.2,0-0.4-0.1-0.6-0.3c-0.2-0.2-0.2-0.4-0.2-0.7v-23.1c0-0.3,0.1-0.5,0.2-0.7
		c0.2-0.2,0.4-0.3,0.6-0.3h8.9C34.8,267.5,36.9,268.1,38.5,269.5z M32,278.6c0.9,0,1.6-0.2,2.2-0.7c0.5-0.5,0.8-1.2,0.8-2.1
		c0-1-0.3-1.7-0.8-2.1c-0.5-0.5-1.3-0.7-2.2-0.7h-3.8v5.7L32,278.6L32,278.6z"/>
	<path class="st1" d="M64.2,267.8c0.2,0.2,0.2,0.4,0.2,0.7v23.1c0,0.3-0.1,0.5-0.2,0.7c-0.2,0.2-0.4,0.3-0.6,0.3h-4.1
		c-0.2,0-0.4-0.1-0.6-0.3c-0.2-0.2-0.2-0.4-0.2-0.7v-8.8h-6.9v8.8c0,0.3-0.1,0.5-0.2,0.7c-0.2,0.2-0.4,0.3-0.6,0.3h-4.1
		c-0.2,0-0.4-0.1-0.6-0.3c-0.2-0.2-0.2-0.4-0.2-0.7v-23.1c0-0.3,0.1-0.5,0.2-0.7c0.2-0.2,0.4-0.3,0.6-0.3H51c0.2,0,0.4,0.1,0.6,0.3
		c0.2,0.2,0.2,0.4,0.2,0.7v8.6h6.9v-8.6c0-0.3,0.1-0.5,0.2-0.7c0.2-0.2,0.4-0.3,0.6-0.3h4.1C63.9,267.5,64.1,267.5,64.2,267.8z"/>
	<path class="st1" d="M84.9,268.4c1.4,0.9,2.5,2,3.3,3.5s1.2,3.1,1.3,4.9c0,0.7,0.1,1.7,0.1,3.2s0,2.5-0.1,3.1
		c-0.1,1.8-0.5,3.5-1.3,4.9c-0.8,1.5-1.9,2.6-3.3,3.5s-3.1,1.3-5.1,1.3s-3.7-0.4-5.1-1.3s-2.5-2-3.3-3.5s-1.2-3.1-1.3-4.9
		c0-1.3-0.1-2.3-0.1-3.1c0-0.8,0-1.9,0.1-3.2c0.1-1.8,0.5-3.5,1.3-4.9c0.8-1.5,1.9-2.6,3.3-3.5s3.1-1.3,5.1-1.3
		S83.5,267.5,84.9,268.4z M82.6,274c-0.7-0.8-1.6-1.1-2.8-1.1c-1.2,0-2.2,0.4-2.8,1.1s-1,1.8-1.1,3c-0.1,0.8-0.1,1.8-0.1,3
		s0,2.2,0.1,3c0.1,1.3,0.5,2.3,1.1,3s1.6,1.1,2.8,1.1c1.2,0,2.2-0.4,2.8-1.1s1-1.8,1.1-3c0.1-0.9,0.1-1.9,0.1-3c0-1.2,0-2.2-0.1-3
		C83.7,275.6,83.3,274.6,82.6,274z"/>
	<path class="st1" d="M111.7,267.8c0.2,0.2,0.2,0.4,0.2,0.7v3.8c0,0.3-0.1,0.5-0.2,0.7c-0.2,0.2-0.4,0.3-0.6,0.3h-5.5v18.4
		c0,0.3-0.1,0.5-0.2,0.7c-0.2,0.2-0.4,0.3-0.6,0.3h-4.1c-0.2,0-0.4-0.1-0.6-0.3c-0.2-0.2-0.2-0.4-0.2-0.7v-18.4h-5.5
		c-0.2,0-0.4-0.1-0.6-0.3c-0.2-0.2-0.2-0.4-0.2-0.7v-3.8c0-0.3,0.1-0.5,0.2-0.7c0.2-0.2,0.4-0.3,0.6-0.3h16.7
		C111.3,267.5,111.5,267.5,111.7,267.8z"/>
	<path class="st1" d="M131.2,268.4c1.4,0.9,2.5,2,3.3,3.5s1.2,3.1,1.3,4.9c0,0.7,0.1,1.7,0.1,3.2s0,2.5-0.1,3.1
		c-0.1,1.8-0.5,3.5-1.3,4.9c-0.8,1.5-1.9,2.6-3.3,3.5c-1.4,0.9-3.1,1.3-5.1,1.3c-2,0-3.7-0.4-5.1-1.3s-2.5-2-3.3-3.5
		s-1.2-3.1-1.3-4.9c0-1.3-0.1-2.3-0.1-3.1c0-0.8,0-1.9,0.1-3.2c0.1-1.8,0.5-3.5,1.3-4.9c0.8-1.5,1.9-2.6,3.3-3.5s3.1-1.3,5.1-1.3
		C128.1,267,129.8,267.5,131.2,268.4z M128.9,274c-0.7-0.8-1.6-1.1-2.8-1.1c-1.2,0-2.2,0.4-2.8,1.1s-1,1.8-1.1,3
		c-0.1,0.8-0.1,1.8-0.1,3s0,2.2,0.1,3c0.1,1.3,0.5,2.3,1.1,3s1.6,1.1,2.8,1.1c1.2,0,2.2-0.4,2.8-1.1s1-1.8,1.1-3
		c0.1-0.9,0.1-1.9,0.1-3c0-1.2,0-2.2-0.1-3C129.9,275.6,129.6,274.6,128.9,274z"/>
	<path class="st1" d="M158.8,274.6c-0.1,0.2-0.3,0.2-0.5,0.2h-4.1c-0.3,0-0.5,0-0.7-0.1s-0.4-0.2-0.6-0.4c0,0-0.2-0.2-0.4-0.5
		s-0.6-0.5-1.1-0.7s-1.1-0.3-1.7-0.3c-0.9,0-1.6,0.1-2.2,0.4s-0.9,0.7-0.9,1.4c0,0.5,0.2,0.9,0.5,1.1c0.4,0.3,0.9,0.5,1.6,0.7
		c0.7,0.2,2,0.5,3.8,1c2.3,0.5,4.1,1.4,5.2,2.6s1.6,2.8,1.6,5c0,1.6-0.4,3-1.2,4.1c-0.8,1.2-2,2.1-3.4,2.7s-3.1,0.9-5,0.9
		c-1.8,0-3.4-0.4-4.8-1.1c-1.4-0.7-2.6-1.6-3.4-2.8c-0.8-1.1-1.3-2.3-1.3-3.5c0-0.2,0.1-0.4,0.2-0.6c0.1-0.2,0.3-0.2,0.5-0.2h4.1
		c0.5,0,0.8,0.2,1.2,0.5c0.1,0.1,0.2,0.3,0.5,0.6c0.3,0.3,0.7,0.7,1.2,0.9c0.5,0.3,1.2,0.4,1.9,0.4c2.6,0,3.8-0.6,3.8-1.9
		c0-0.4-0.2-0.7-0.5-1s-0.9-0.5-1.5-0.7c-0.7-0.2-1.7-0.5-3.2-0.8l-1.4-0.3c-2.1-0.5-3.7-1.4-4.7-2.6s-1.5-2.9-1.5-4.9
		c0-1.4,0.4-2.7,1.1-3.8c0.7-1.2,1.8-2.1,3.1-2.8s2.9-1.1,4.6-1.1c1.7,0,3.2,0.4,4.6,1.1c1.4,0.7,2.5,1.6,3.3,2.7s1.2,2.2,1.3,3.2
		C159,274.4,158.9,274.5,158.8,274.6z"/>
	<path class="st1" d="M183.2,267.8c0.2,0.2,0.2,0.4,0.2,0.7v23.1c0,0.3-0.1,0.5-0.2,0.7c-0.2,0.2-0.4,0.3-0.6,0.3h-4.1
		c-0.2,0-0.4-0.1-0.6-0.3c-0.2-0.2-0.2-0.4-0.2-0.7v-8.8h-6.8v8.8c0,0.3-0.1,0.5-0.2,0.7c-0.2,0.2-0.4,0.3-0.6,0.3H166
		c-0.2,0-0.4-0.1-0.6-0.3s-0.2-0.4-0.2-0.7v-23.1c0-0.3,0.1-0.5,0.2-0.7c0.2-0.2,0.4-0.3,0.6-0.3h4.1c0.2,0,0.4,0.1,0.6,0.3
		c0.2,0.2,0.2,0.4,0.2,0.7v8.6h6.9v-8.6c0-0.3,0.1-0.5,0.2-0.7c0.2-0.2,0.4-0.3,0.6-0.3h4.1C182.9,267.5,183.1,267.5,183.2,267.8z"
		/>
	<path class="st1" d="M204.3,268.4c1.4,0.9,2.5,2,3.3,3.5s1.2,3.1,1.3,4.9c0,0.7,0.1,1.7,0.1,3.2s0,2.5-0.1,3.1
		c-0.1,1.8-0.5,3.5-1.3,4.9c-0.8,1.5-1.9,2.6-3.3,3.5c-1.4,0.9-3.1,1.3-5.1,1.3s-3.7-0.4-5.1-1.3c-1.4-0.9-2.5-2-3.3-3.5
		s-1.2-3.1-1.3-4.9c0-1.3-0.1-2.3-0.1-3.1c0-0.8,0-1.9,0.1-3.2c0.1-1.8,0.5-3.5,1.3-4.9c0.8-1.5,1.9-2.6,3.3-3.5s3.1-1.3,5.1-1.3
		S202.9,267.5,204.3,268.4z M202,274c-0.7-0.8-1.6-1.1-2.8-1.1s-2.2,0.4-2.8,1.1c-0.7,0.8-1,1.8-1.1,3c-0.1,0.8-0.1,1.8-0.1,3
		s0,2.2,0.1,3c0.1,1.3,0.5,2.3,1.1,3c0.7,0.8,1.6,1.1,2.8,1.1s2.2-0.4,2.8-1.1c0.7-0.8,1-1.8,1.1-3c0.1-0.9,0.1-1.9,0.1-3
		c0-1.2,0-2.2-0.1-3C203,275.6,202.7,274.6,202,274z"/>
	<path class="st1" d="M230.3,269.5c1.5,1.4,2.3,3.5,2.3,6.2s-0.8,4.8-2.3,6.3c-1.5,1.4-3.6,2.1-6.3,2.1h-4v7.3
		c0,0.3-0.1,0.5-0.2,0.7c-0.2,0.2-0.4,0.3-0.6,0.3h-4.1c-0.2,0-0.4-0.1-0.6-0.3c-0.2-0.2-0.2-0.4-0.2-0.7v-23.1
		c0-0.3,0.1-0.5,0.2-0.7c0.2-0.2,0.4-0.3,0.6-0.3h8.9C226.7,267.5,228.8,268.1,230.3,269.5z M223.8,278.6c0.9,0,1.6-0.2,2.2-0.7
		c0.5-0.5,0.8-1.2,0.8-2.1c0-1-0.3-1.7-0.8-2.1c-0.5-0.5-1.3-0.7-2.2-0.7H220v5.7L223.8,278.6L223.8,278.6z"/>
</g>
<path class="st2" d="M60,0h136c33.1,0,60,26.9,60,60v136c0,33.1-26.9,60-60,60H60c-33.1,0-60-27-60-60V60C0,26.9,26.9,0,60,0z"/>
<path class="st3" d="M57.6,178V68.2c0-0.7,0.3-1.2,1.1-1.2c1.8,0,3.5,0,6-0.1c2.6-0.1,5.2-0.1,8.1-0.2s6-0.1,9.3-0.2
	s6.5-0.1,9.7-0.1c8.7,0,16,1.1,22,3.3c5.3,1.8,10.2,4.8,14.3,8.7c3.4,3.4,6.1,7.6,7.8,12.2c1.6,4.5,2.5,9.1,2.5,13.9
	c0,9.2-2.1,16.7-6.4,22.7c-4.3,6-10.2,10.5-17.2,13c-7.3,2.7-15.3,3.6-24,3.6c-2.6,0-4.3,0-5.3-0.1c-1.1-0.1-2.6-0.1-4.6-0.1v34.2
	c0.1,0.7-0.4,1.4-1.2,1.5c-0.1,0-0.2,0-0.4,0H58.9C58,179.4,57.6,179,57.6,178z M80.9,87.6v35.8c1.5,0.1,2.9,0.2,4.2,0.2h5.7
	c4.2,0,8.3-0.6,12.3-1.9c3.4-1,6.4-3,8.7-5.7c2.2-2.7,3.3-6.3,3.3-11c0.1-3.3-0.7-6.6-2.5-9.5c-1.8-2.8-4.4-4.9-7.5-6.1
	c-3.9-1.6-8.2-2.2-12.6-2.1c-2.8,0-5.2,0-7.3,0.1C83.1,87.5,81.6,87.5,80.9,87.6z"/>
<path class="st3" d="M204.8,117c-3.2-1.7-6.6-2.9-10.2-3.6c-3.9-0.9-7.9-1.4-11.9-1.4c-2.1-0.1-4.4,0.2-6.4,0.7
	c-1.4,0.3-2.6,1.1-3.3,2.1c-0.5,0.9-0.9,1.9-0.9,2.9s0.4,1.9,1.1,2.8c1,1.2,2.2,2.1,3.6,2.9c2.5,1.3,5,2.5,7.6,3.5
	c5.8,1.9,11.3,4.6,16.4,7.8c3.5,2.2,6.4,5.2,8.4,8.9c1.7,3.4,2.6,7.1,2.5,11c0.1,5-1.4,10-4.2,14.2c-3,4.3-7.1,7.6-11.9,9.5
	c-5.2,2.2-11.6,3.4-19.3,3.4c-4.9,0-9.7-0.4-14.5-1.4c-3.7-0.6-7.5-1.8-10.9-3.4c-0.7-0.4-1.3-1.2-1.2-2v-18.6c0-0.3,0.1-0.7,0.4-1
	c0.3-0.2,0.6-0.1,1,0.1c4.2,2.5,8.5,4.2,13.2,5.2c4.1,1.1,8.3,1.6,12.6,1.6c4.1,0,6.9-0.5,8.9-1.5c1.7-0.7,2.9-2.6,2.9-4.5
	c0-1.5-0.9-2.9-2.6-4.3c-1.7-1.4-5.2-3-10.5-5c-5.4-1.9-10.5-4.5-15.1-7.7c-3.3-2.3-6.1-5.4-8.1-9.1c-1.7-3.4-2.6-7.1-2.5-10.9
	c0-4.6,1.3-9,3.6-12.9c2.7-4.3,6.6-7.7,11.2-9.8c5-2.6,11.3-3.7,18.9-3.7c4.4,0,8.9,0.3,13.2,1c3.2,0.4,6.3,1.3,9.2,2.5
	c0.4,0.1,0.9,0.5,1.1,1c0.1,0.4,0.2,0.9,0.2,1.3V116c0,0.4-0.2,0.9-0.5,1.1C205.8,117.3,205.2,117.3,204.8,117z"/>
</svg>
