<?xml version="1.0" encoding="utf-8"?>
<!-- Generator: Adobe Illustrator 24.3.0, SVG Export Plug-In . SVG Version: 6.00 Build 0)  -->
<svg version="1.1" id="Layer_1" xmlns="http://www.w3.org/2000/svg" xmlns:xlink="http://www.w3.org/1999/xlink" x="0px" y="0px"
	 viewBox="0 0 256 300" style="enable-background:new 0 0 256 300;" xml:space="preserve">
<style type="text/css">
	.st0{fill:#FFFFFF;}
	.st1{fill:#231F20;}
	.st2{fill:#FF6C37;}
	.st3{fill:#EEEEEE;}
</style>
<path class="st0" d="M27.5,162.6h201c15.2,0,27.5,12.3,27.5,27.5v82.4c0,15.2-12.3,27.5-27.5,27.5h-201C12.3,300,0,287.7,0,272.5
	v-82.4C0,174.9,12.3,162.6,27.5,162.6z"/>
<g>
	<path class="st1" d="M64.6,269.4c1.6,1.4,2.4,3.5,2.4,6.3c0,2.8-0.8,4.9-2.4,6.3c-1.6,1.4-3.9,2.2-6.8,2.2h-4.3v7.3
		c0,0.3-0.1,0.5-0.3,0.7c-0.2,0.2-0.4,0.3-0.6,0.3h-4.4c-0.2,0-0.5-0.1-0.6-0.3c-0.2-0.2-0.3-0.4-0.3-0.7v-23.3
		c0-0.3,0.1-0.5,0.3-0.7c0.2-0.2,0.4-0.3,0.6-0.3h9.5C60.7,267.3,63,268,64.6,269.4z M57.7,278.5c1,0,1.8-0.2,2.3-0.7
		c0.6-0.5,0.9-1.2,0.9-2.1c0-1-0.3-1.7-0.9-2.1c-0.6-0.5-1.4-0.7-2.3-0.7h-4.1v5.7H57.7z"/>
	<path class="st1" d="M85.3,268.2c1.5,0.9,2.7,2,3.5,3.5c0.8,1.5,1.3,3.1,1.4,5c0,0.7,0.1,1.8,0.1,3.2c0,1.5,0,2.5-0.1,3.2
		c-0.1,1.8-0.5,3.5-1.4,5c-0.8,1.5-2,2.6-3.5,3.5c-1.5,0.9-3.4,1.3-5.5,1.3c-2.1,0-3.9-0.4-5.5-1.3c-1.5-0.9-2.7-2-3.5-3.5
		c-0.8-1.5-1.3-3.1-1.4-5c0-1.3-0.1-2.4-0.1-3.2c0-0.8,0-1.9,0.1-3.2c0.1-1.8,0.5-3.5,1.4-5c0.8-1.5,2-2.6,3.5-3.5
		c1.5-0.9,3.3-1.3,5.5-1.3C82,266.9,83.8,267.3,85.3,268.2z M82.9,273.8c-0.7-0.8-1.7-1.1-3-1.1c-1.3,0-2.3,0.4-3,1.1
		s-1.1,1.8-1.2,3c-0.1,0.8-0.1,1.8-0.1,3c0,1.2,0,2.2,0.1,3.1c0.1,1.3,0.5,2.3,1.2,3s1.7,1.1,3,1.1c1.3,0,2.3-0.4,3-1.1
		s1.1-1.8,1.2-3c0.1-0.9,0.1-1.9,0.1-3.1c0-1.2,0-2.2-0.1-3C84,275.6,83.6,274.6,82.9,273.8z"/>
	<path class="st1" d="M112.1,274.6c-0.1,0.2-0.3,0.2-0.5,0.2h-4.4c-0.3,0-0.6,0-0.7-0.1c-0.2-0.1-0.4-0.2-0.6-0.5
		c0,0-0.2-0.2-0.4-0.5c-0.2-0.3-0.6-0.5-1.1-0.7c-0.5-0.2-1.1-0.3-1.8-0.3c-1,0-1.7,0.1-2.3,0.4c-0.6,0.3-0.9,0.8-0.9,1.4
		c0,0.5,0.2,0.9,0.6,1.1c0.4,0.3,1,0.5,1.7,0.7c0.8,0.2,2.2,0.5,4.1,1c2.5,0.6,4.3,1.4,5.5,2.6c1.2,1.2,1.8,2.9,1.8,5
		c0,1.6-0.4,3-1.3,4.2c-0.9,1.2-2.1,2.1-3.7,2.7c-1.6,0.6-3.3,1-5.3,1c-1.9,0-3.6-0.4-5.2-1.1c-1.6-0.7-2.8-1.7-3.7-2.8
		c-0.9-1.2-1.4-2.3-1.4-3.6c0-0.2,0.1-0.4,0.2-0.6c0.1-0.2,0.3-0.2,0.5-0.2h4.4c0.5,0,0.9,0.2,1.3,0.5c0.1,0.1,0.2,0.3,0.5,0.6
		c0.3,0.3,0.7,0.7,1.3,0.9c0.6,0.3,1.3,0.4,2.1,0.4c2.8,0,4.1-0.6,4.1-1.9c0-0.4-0.2-0.8-0.6-1c-0.4-0.3-0.9-0.5-1.6-0.7
		c-0.7-0.2-1.8-0.5-3.4-0.8l-1.5-0.3c-2.3-0.5-3.9-1.4-5-2.6c-1.1-1.2-1.6-2.9-1.6-5c0-1.4,0.4-2.7,1.2-3.9c0.8-1.2,1.9-2.1,3.3-2.8
		s3.1-1.1,4.9-1.1c1.8,0,3.4,0.4,4.9,1.1c1.5,0.7,2.7,1.7,3.5,2.8c0.9,1.1,1.3,2.2,1.3,3.2C112.4,274.2,112.3,274.4,112.1,274.6z"/>
	<path class="st1" d="M134.1,267.6c0.2,0.2,0.3,0.4,0.3,0.7v3.8c0,0.3-0.1,0.5-0.3,0.7s-0.4,0.3-0.6,0.3h-5.9v18.5
		c0,0.3-0.1,0.5-0.3,0.7c-0.2,0.2-0.4,0.3-0.6,0.3h-4.4c-0.2,0-0.5-0.1-0.6-0.3c-0.2-0.2-0.3-0.4-0.3-0.7V273h-5.9
		c-0.2,0-0.5-0.1-0.6-0.3c-0.2-0.2-0.3-0.4-0.3-0.7v-3.8c0-0.3,0.1-0.5,0.3-0.7c0.2-0.2,0.4-0.3,0.6-0.3h17.9
		C133.7,267.3,133.9,267.4,134.1,267.6z"/>
	<path class="st1" d="M143.5,279.6v11.9c0,0.3-0.1,0.5-0.3,0.7c-0.2,0.2-0.4,0.3-0.6,0.3h-4.4c-0.2,0-0.5-0.1-0.6-0.3
		c-0.2-0.2-0.3-0.4-0.3-0.7v-23.3c0-0.3,0.1-0.5,0.3-0.7c0.2-0.2,0.4-0.3,0.6-0.3h3.9c0.6,0,1.1,0.3,1.4,1l5.4,10l5.4-10
		c0.3-0.6,0.8-1,1.4-1h3.9c0.2,0,0.5,0.1,0.6,0.3c0.2,0.2,0.3,0.4,0.3,0.7v23.3c0,0.3-0.1,0.5-0.3,0.7c-0.2,0.2-0.4,0.3-0.6,0.3
		h-4.4c-0.2,0-0.5-0.1-0.6-0.3c-0.2-0.2-0.3-0.4-0.3-0.7v-11.9l-3.1,5.9c-0.2,0.3-0.3,0.5-0.5,0.6s-0.4,0.3-0.7,0.3h-2.1
		c-0.3,0-0.5-0.1-0.7-0.3c-0.2-0.2-0.4-0.4-0.5-0.6L143.5,279.6z"/>
	<path class="st1" d="M186.2,291.1c0.1,0.2,0.1,0.4,0.1,0.5c0,0.2-0.1,0.4-0.2,0.6c-0.1,0.2-0.3,0.2-0.5,0.2h-4.2
		c-0.4,0-0.7-0.1-0.9-0.3c-0.2-0.2-0.3-0.4-0.4-0.6l-0.9-3h-8.9l-0.9,3c-0.1,0.2-0.2,0.5-0.4,0.6c-0.2,0.2-0.5,0.3-0.9,0.3h-4.2
		c-0.2,0-0.4-0.1-0.5-0.2c-0.1-0.2-0.2-0.3-0.2-0.6c0-0.1,0-0.3,0.1-0.5l7.3-22.7c0.1-0.3,0.3-0.6,0.5-0.8c0.2-0.2,0.6-0.3,1-0.3
		h5.4c0.4,0,0.7,0.1,1,0.3c0.2,0.2,0.4,0.5,0.5,0.8L186.2,291.1z M177.5,283l-2.7-8.6l-2.7,8.6H177.5z"/>
	<path class="st1" d="M203.3,292.2c-0.2-0.2-0.4-0.4-0.5-0.6l-7.6-12.3v12.2c0,0.3-0.1,0.5-0.3,0.7c-0.2,0.2-0.4,0.3-0.6,0.3H190
		c-0.2,0-0.5-0.1-0.6-0.3c-0.2-0.2-0.3-0.4-0.3-0.7v-23.3c0-0.3,0.1-0.5,0.3-0.7c0.2-0.2,0.4-0.3,0.6-0.3h3.5c0.3,0,0.6,0.1,0.9,0.3
		c0.2,0.2,0.4,0.4,0.5,0.6l7.6,12.3v-12.2c0-0.3,0.1-0.5,0.3-0.7c0.2-0.2,0.4-0.3,0.6-0.3h4.4c0.2,0,0.5,0.1,0.6,0.3
		c0.2,0.2,0.3,0.4,0.3,0.7v23.3c0,0.3-0.1,0.5-0.3,0.7c-0.2,0.2-0.4,0.3-0.6,0.3h-3.5C203.9,292.5,203.6,292.4,203.3,292.2z"/>
</g>
<path class="st2" d="M60,0h136c33.1,0,60,26.9,60,60v136c0,33.1-26.9,60-60,60H60c-33.1,0-60-26.9-60-60V60C0,26.9,26.9,0,60,0z"/>
<path class="st3" d="M169.1,88.6l-50.5,50.5l-14.3-14.3C154,75.2,158.9,79.5,169.1,88.6z"/>
<path class="st2" d="M118.5,140.4c-0.4,0-0.6-0.1-0.8-0.4l-14.4-14.3c-0.5-0.5-0.5-1.2,0-1.7c50.5-50.5,55.8-45.8,66.5-36.2
	c0.2,0.2,0.4,0.5,0.4,0.8c0,0.4-0.1,0.6-0.4,0.8L119.2,140C119.1,140.2,118.8,140.4,118.5,140.4z M105.9,124.9l12.6,12.6l48.7-48.7
	C158.4,80.8,152.4,78.4,105.9,124.9z"/>
<path class="st3" d="M133,153.6l-13.8-13.8l50.5-50.5C183.3,103,163.1,125.1,133,153.6z"/>
<path class="st2" d="M133,154.8c-0.4,0-0.6-0.1-0.8-0.4l-13.8-13.8c-0.2-0.2-0.2-0.5-0.2-0.8c0-0.4,0.1-0.6,0.4-0.8l50.5-50.5
	c0.5-0.5,1.2-0.5,1.7,0c3.1,2.9,4.8,6.9,4.7,11.1c-0.2,13.3-15.3,30.2-41.4,54.9C133.6,154.7,133.3,154.8,133,154.8z M120.9,139.9
	c7.7,7.8,10.9,10.9,12.1,12.1c20.1-19.2,39.6-38.8,39.8-52.3c0.1-3.1-1.1-6.2-3.1-8.6L120.9,139.9z"/>
<path class="st3" d="M104.5,125.3l10.2,10.2c0.2,0.2,0.2,0.5,0,0.7c-0.1,0.1-0.1,0.1-0.2,0.1l-21.1,4.6c-1.1,0.1-2-0.6-2.3-1.7
	c-0.1-0.6,0.1-1.2,0.5-1.6l12.2-12.2C104,125.1,104.4,125,104.5,125.3z"/>
<path class="st2" d="M93,142c-1.8,0-3.1-1.4-3.1-3.2c0-0.8,0.4-1.7,1-2.3l12.2-12.2c0.7-0.6,1.7-0.6,2.4,0l10.2,10.2
	c0.7,0.6,0.7,1.7,0,2.4c-0.2,0.2-0.5,0.4-0.8,0.5l-21.1,4.6C93.5,141.9,93.2,142,93,142z M104.1,126.6l-11.7,11.7
	c-0.2,0.2-0.4,0.6-0.1,1c0.1,0.4,0.5,0.5,0.8,0.4l19.8-4.3L104.1,126.6z"/>
<path class="st3" d="M195.8,60.6c-7.7-7.4-20-7.2-27.4,0.6c-7.4,7.8-7.2,20,0.6,27.4c6.3,6.1,15.9,7.2,23.5,2.6l-13.7-13.7
	L195.8,60.6z"/>
<path class="st2" d="M182.4,95.2c-11.4,0-20.6-9.2-20.6-20.6c0-11.4,9.2-20.6,20.6-20.6c5.3,0,10.4,2,14.3,5.7
	c0.2,0.2,0.4,0.5,0.4,0.8c0,0.4-0.1,0.6-0.4,0.8l-16.2,16.2l12.7,12.7c0.5,0.5,0.5,1.2,0,1.7c-0.1,0.1-0.1,0.1-0.2,0.2
	C189.8,94.1,186.1,95.2,182.4,95.2z M182.4,56.5c-10.1,0-18.2,8.1-18.1,18.2c0,10.1,8.1,18.2,18.2,18.1c2.8,0,5.5-0.6,8-1.9
	l-12.6-12.5c-0.2-0.2-0.4-0.5-0.4-0.8c0-0.4,0.1-0.6,0.4-0.8l16-16C190.7,58,186.7,56.5,182.4,56.5z"/>
<path class="st3" d="M196.1,60.9l-0.2-0.2l-17.1,16.9l13.5,13.5c1.3-0.8,2.6-1.8,3.7-2.9C203.7,80.7,203.7,68.5,196.1,60.9z"/>
<path class="st2" d="M192.4,92.4c-0.4,0-0.6-0.1-0.8-0.4l-13.7-13.7c-0.2-0.2-0.4-0.5-0.4-0.8c0-0.4,0.1-0.6,0.4-0.8l17-17
	c0.5-0.5,1.2-0.5,1.7,0L197,60c8,8,8,21,0.1,29.1c-1.2,1.2-2.5,2.3-4,3.1C192.8,92.3,192.5,92.4,192.4,92.4z M180.4,77.6l12.1,12.1
	c1-0.6,1.9-1.4,2.6-2.2c6.8-6.8,7.2-18,0.6-25.2L180.4,77.6z"/>
<path class="st3" d="M171.1,90.8c-2.9-2.9-7.5-2.9-10.4,0l-45.2,45.2l7.5,7.5l47.8-41.9c3.1-2.6,3.4-7.3,0.7-10.4
	C171.3,91,171.2,90.9,171.1,90.8z"/>
<path class="st2" d="M123,144.7c-0.4,0-0.6-0.1-0.8-0.4l-7.5-7.5c-0.5-0.5-0.5-1.2,0-1.7l45.2-45.2c3.4-3.4,8.7-3.4,12.1,0
	c3.4,3.4,3.4,8.7,0,12.1c-0.1,0.1-0.2,0.2-0.4,0.4l-47.8,41.9C123.6,144.5,123.3,144.7,123,144.7z M117.2,135.9l5.9,5.9l46.9-41.2
	c2.6-2.2,2.9-6.1,0.7-8.7c-2.2-2.6-6.1-2.9-8.7-0.7c-0.1,0.1-0.2,0.2-0.5,0.4L117.2,135.9z"/>
<path class="st3" d="M80.9,187.3c-0.5,0.2-0.7,0.7-0.6,1.2l2,8.6c0.5,1.2-0.2,2.6-1.6,3c-1,0.4-2,0-2.6-0.7L65,186.3l43-43l14.9,0.2
	l10.1,10.1C130.5,155.7,116,169.7,80.9,187.3z"/>
<path class="st2" d="M80,201.3c-1,0-1.9-0.4-2.5-1.1l-13.1-13.1c-0.2-0.2-0.4-0.5-0.4-0.8c0-0.4,0.1-0.6,0.4-0.8l43-43
	c0.2-0.2,0.6-0.4,0.8-0.4l14.9,0.2c0.4,0,0.6,0.1,0.8,0.4l10.1,10.1c0.2,0.2,0.4,0.6,0.4,1c0,0.4-0.1,0.6-0.5,0.8l-0.8,0.7
	c-12.7,11.1-29.9,22.3-51.4,32.9l2,8.5c0.4,1.6-0.4,3.2-1.8,4.1C81.2,201.2,80.6,201.3,80,201.3z M66.8,186.3l12.3,12.2
	c0.4,0.6,1.1,0.8,1.7,0.5c0.6-0.4,0.8-1.1,0.5-1.7l-2-8.6c-0.2-1.1,0.2-2,1.2-2.5c21.2-10.7,38.3-21.7,50.9-32.6l-8.9-8.9l-13.8-0.2
	L66.8,186.3z"/>
<path class="st3" d="M54.8,196.6l10.3-10.3l15.3,15.3L56,200c-1.1-0.1-1.8-1.1-1.7-2.2C54.3,197.4,54.4,196.9,54.8,196.6z"/>
<path class="st2" d="M80.4,202.7l-24.6-1.7c-1.8-0.1-3-1.7-2.9-3.5c0.1-0.7,0.4-1.4,1-1.9l10.3-10.3c0.5-0.5,1.2-0.5,1.7,0
	l15.3,15.3c0.4,0.4,0.5,0.8,0.2,1.3C81.3,202.5,80.9,202.7,80.4,202.7z M65.1,188l-9.5,9.5c-0.4,0.2-0.4,0.8,0,1.1
	c0.1,0.1,0.2,0.2,0.5,0.2l21.2,1.4L65.1,188z"/>
<path class="st2" d="M103.8,148.9c-0.7,0-1.2-0.6-1.2-1.2c0-0.4,0.1-0.6,0.4-0.8l11.6-11.6c0.5-0.5,1.2-0.5,1.7,0l7.5,7.5
	c0.4,0.4,0.5,0.7,0.4,1.2c-0.1,0.4-0.5,0.7-1,0.8l-19.2,4.1C103.9,148.9,103.8,148.9,103.8,148.9z M115.4,137.7l-7.9,7.9l12.9-2.8
	L115.4,137.7z"/>
<path class="st3" d="M122.8,143.6l-13.2,2.9c-1,0.2-1.9-0.4-2.2-1.3c-0.1-0.6,0-1.2,0.5-1.7l7.3-7.3L122.8,143.6z"/>
<path class="st2" d="M109.4,147.7c-1.7,0-3-1.3-3-3c0-0.8,0.4-1.6,0.8-2.2l7.3-7.3c0.5-0.5,1.2-0.5,1.7,0l7.5,7.5
	c0.4,0.4,0.5,0.7,0.4,1.2c-0.1,0.4-0.5,0.7-1,0.8l-13.2,2.9C109.8,147.7,109.5,147.7,109.4,147.7z M115.4,137.7l-6.5,6.5
	c-0.2,0.2-0.2,0.5-0.1,0.7c0.1,0.2,0.4,0.4,0.7,0.4l11-2.4L115.4,137.7z"/>
<path class="st2" d="M196.2,72.4c-0.2-0.7-1.1-1.1-1.8-0.8c-0.7,0.2-1.1,1.1-0.8,1.8c0,0.1,0.1,0.2,0.1,0.4c0.7,1.4,0.5,3.2-0.5,4.6
	c-0.5,0.6-0.4,1.4,0.1,1.9c0.6,0.5,1.4,0.4,1.9-0.2C197.1,77.7,197.4,74.8,196.2,72.4z"/>
</svg>
