<?xml version="1.0" encoding="utf-8"?>
<!-- Generator: Adobe Illustrator 24.3.0, SVG Export Plug-In . SVG Version: 6.00 Build 0)  -->
<svg version="1.1" id="Layer_1" xmlns="http://www.w3.org/2000/svg" xmlns:xlink="http://www.w3.org/1999/xlink" x="0px" y="0px"
	 viewBox="0 0 256 300" style="enable-background:new 0 0 256 300;" xml:space="preserve">
<style type="text/css">
	.st0{fill:#FFFFFF;}
	.st1{fill:#242938;}
	.st2{fill:#0D1117;}
</style>
<path class="st0" d="M27.5,162.6h201c15.2,0,27.5,12.3,27.5,27.5v82.4c0,15.2-12.3,27.5-27.5,27.5h-201C12.3,300,0,287.7,0,272.5
	v-82.4C0,174.9,12.3,162.6,27.5,162.6z"/>
<g>
	<path class="st1" d="M60,0h136c33.1,0,60,26.9,60,60v136c0,33.1-26.9,60-60,60H60c-33.1,0-60-26.9-60-60V60C0,26.9,26.9,0,60,0z"/>
	<path class="st0" d="M49.2,100.2h28.4c8.3,0.1,14.4,2.5,18.1,7.2s5,11.2,3.7,19.4c-0.5,3.7-1.6,7.4-3.3,11
		c-1.6,3.6-3.9,6.9-6.8,9.8c-3.5,3.7-7.3,6-11.3,7c-4,1-8.2,1.5-12.5,1.5H52.8l-4,20.1H34L49.2,100.2L49.2,100.2z M61.6,112.3
		l-6.4,31.8c0.4,0.1,0.8,0.1,1.3,0.1c0.5,0,1,0,1.5,0c6.8,0.1,12.4-0.6,17-2c4.5-1.5,7.6-6.6,9.1-15.5c1.3-7.4,0-11.7-3.8-12.8
		c-3.7-1.1-8.4-1.7-14.1-1.6c-0.8,0.1-1.7,0.1-2.4,0.1c-0.7,0-1.4,0-2.2,0L61.6,112.3"/>
	<path class="st0" d="M116.2,80h14.6l-4.1,20.2h13.1c7.2,0.1,12.6,1.6,16.1,4.5c3.6,2.8,4.7,8.2,3.2,16.1l-7.1,35.3h-14.8l6.8-33.7
		c0.7-3.5,0.5-6-0.6-7.5c-1.1-1.5-3.6-2.2-7.3-2.2l-11.8-0.1l-8.7,43.6h-14.6L116.2,80z"/>
	<path class="st0" d="M174.8,100.2h28.4c8.3,0.1,14.4,2.5,18.1,7.2s5,11.2,3.7,19.4c-0.5,3.7-1.6,7.4-3.3,11
		c-1.6,3.6-3.9,6.9-6.8,9.8c-3.5,3.7-7.3,6-11.3,7c-4,1-8.2,1.5-12.5,1.5h-12.7l-4,20.1h-14.7L174.8,100.2L174.8,100.2z
		 M187.2,112.3l-6.4,31.8c0.4,0.1,0.8,0.1,1.3,0.1c0.5,0,1,0,1.5,0c6.8,0.1,12.4-0.6,17-2c4.5-1.5,7.6-6.6,9.1-15.5
		c1.3-7.4,0-11.7-3.8-12.8c-3.7-1.1-8.4-1.7-14.1-1.6c-0.8,0.1-1.7,0.1-2.4,0.1c-0.7,0-1.4,0-2.2,0L187.2,112.3"/>
</g>
<g>
	<path class="st2" d="M111,270.1c1.5,1.4,2.2,3.4,2.2,6.1c0,2.7-0.7,4.7-2.2,6.1c-1.5,1.4-3.6,2.1-6.2,2.1h-3.9v7.2
		c0,0.3-0.1,0.5-0.2,0.7c-0.2,0.2-0.4,0.3-0.6,0.3h-4c-0.2,0-0.4-0.1-0.6-0.3s-0.2-0.4-0.2-0.7V269c0-0.3,0.1-0.5,0.2-0.7
		s0.4-0.3,0.6-0.3h8.7C107.4,268,109.5,268.7,111,270.1z M104.6,279c0.9,0,1.6-0.2,2.1-0.7c0.5-0.5,0.8-1.2,0.8-2.1
		c0-0.9-0.3-1.6-0.8-2.1c-0.5-0.5-1.3-0.7-2.1-0.7h-3.7v5.6H104.6z"/>
	<path class="st2" d="M136,268.3c0.2,0.2,0.2,0.4,0.2,0.7v22.7c0,0.3-0.1,0.5-0.2,0.7c-0.2,0.2-0.4,0.3-0.6,0.3h-4
		c-0.2,0-0.4-0.1-0.6-0.3c-0.2-0.2-0.2-0.4-0.2-0.7v-8.6h-6.8v8.6c0,0.3-0.1,0.5-0.2,0.7c-0.2,0.2-0.4,0.3-0.6,0.3h-4
		c-0.2,0-0.4-0.1-0.6-0.3s-0.2-0.4-0.2-0.7V269c0-0.3,0.1-0.5,0.2-0.7s0.4-0.3,0.6-0.3h4c0.2,0,0.4,0.1,0.6,0.3
		c0.2,0.2,0.2,0.4,0.2,0.7v8.5h6.8V269c0-0.3,0.1-0.5,0.2-0.7c0.2-0.2,0.4-0.3,0.6-0.3h4C135.7,268,135.9,268.1,136,268.3z"/>
	<path class="st2" d="M157.7,270.1c1.5,1.4,2.2,3.4,2.2,6.1c0,2.7-0.7,4.7-2.2,6.1s-3.6,2.1-6.2,2.1h-3.9v7.2c0,0.3-0.1,0.5-0.2,0.7
		c-0.2,0.2-0.4,0.3-0.6,0.3h-4c-0.2,0-0.4-0.1-0.6-0.3c-0.2-0.2-0.2-0.4-0.2-0.7V269c0-0.3,0.1-0.5,0.2-0.7c0.2-0.2,0.4-0.3,0.6-0.3
		h8.7C154.2,268,156.2,268.7,157.7,270.1z M151.4,279c0.9,0,1.6-0.2,2.1-0.7c0.5-0.5,0.8-1.2,0.8-2.1c0-0.9-0.3-1.6-0.8-2.1
		c-0.5-0.5-1.3-0.7-2.1-0.7h-3.7v5.6H151.4z"/>
</g>
</svg>
