<?xml version="1.0" encoding="utf-8"?>
<!-- Generator: Adobe Illustrator 24.3.0, SVG Export Plug-In . SVG Version: 6.00 Build 0)  -->
<svg version="1.1" id="Layer_1" xmlns="http://www.w3.org/2000/svg" xmlns:xlink="http://www.w3.org/1999/xlink" x="0px" y="0px"
	 viewBox="0 0 256 300" style="enable-background:new 0 0 256 300;" xml:space="preserve">
<style type="text/css">
	.st0{fill:#FFFFFF;}
	.st1{fill:#231F20;}
	.st2{fill:#242938;}
	.st3{fill-rule:evenodd;clip-rule:evenodd;fill:url(#SVGID_1_);}
	.st4{fill-rule:evenodd;clip-rule:evenodd;fill:url(#SVGID_2_);}
	.st5{fill-rule:evenodd;clip-rule:evenodd;fill:#2C5591;}
	.st6{fill-rule:evenodd;clip-rule:evenodd;fill:#FFFFFF;}
</style>
<path class="st0" d="M27.5,162.6h201c15.2,0,27.5,12.3,27.5,27.5v82.4c0,15.2-12.3,27.5-27.5,27.5h-201C12.3,300,0,287.7,0,272.5
	v-82.4C0,174.9,12.3,162.6,27.5,162.6z"/>
<g>
	<path class="st1" d="M34.5,269.4c1.6,1.4,2.4,3.5,2.4,6.3c0,2.8-0.8,4.9-2.4,6.3c-1.6,1.4-3.9,2.2-6.8,2.2h-4.3v7.3
		c0,0.3-0.1,0.5-0.3,0.7c-0.2,0.2-0.4,0.3-0.6,0.3h-4.4c-0.2,0-0.5-0.1-0.6-0.3c-0.2-0.2-0.3-0.4-0.3-0.7v-23.3
		c0-0.3,0.1-0.5,0.3-0.7c0.2-0.2,0.4-0.3,0.6-0.3h9.5C30.6,267.3,32.8,268,34.5,269.4z M27.5,278.5c1,0,1.8-0.2,2.3-0.7
		c0.6-0.5,0.9-1.2,0.9-2.1c0-1-0.3-1.7-0.9-2.1c-0.6-0.5-1.4-0.7-2.3-0.7h-4.1v5.7H27.5z"/>
	<path class="st1" d="M54.8,268.2c1.5,0.9,2.7,2,3.5,3.5c0.8,1.5,1.3,3.1,1.4,5c0,0.7,0.1,1.8,0.1,3.2c0,1.5,0,2.5-0.1,3.2
		c-0.1,1.8-0.5,3.5-1.4,5c-0.8,1.5-2,2.6-3.5,3.5c-1.5,0.9-3.4,1.3-5.5,1.3c-2.1,0-3.9-0.4-5.5-1.3c-1.5-0.9-2.7-2-3.5-3.5
		c-0.8-1.5-1.3-3.1-1.4-5c0-1.3-0.1-2.4-0.1-3.2c0-0.8,0-1.9,0.1-3.2c0.1-1.8,0.5-3.5,1.4-5c0.8-1.5,2-2.6,3.5-3.5
		c1.5-0.9,3.3-1.3,5.5-1.3C51.5,266.9,53.3,267.3,54.8,268.2z M52.4,273.8c-0.7-0.8-1.7-1.1-3-1.1c-1.3,0-2.3,0.4-3,1.1
		s-1.1,1.8-1.2,3c-0.1,0.8-0.1,1.8-0.1,3c0,1.2,0,2.2,0.1,3.1c0.1,1.3,0.5,2.3,1.2,3s1.7,1.1,3,1.1c1.3,0,2.3-0.4,3-1.1
		s1.1-1.8,1.2-3c0.1-0.9,0.1-1.9,0.1-3.1c0-1.2,0-2.2-0.1-3C53.5,275.6,53.1,274.6,52.4,273.8z"/>
	<path class="st1" d="M82,268.2c0.1-0.3,0.2-0.6,0.4-0.7s0.4-0.2,0.6-0.2h4.4c0.2,0,0.4,0.1,0.5,0.2c0.1,0.2,0.2,0.3,0.2,0.6l0,0.3
		l-4.3,22.8c0,0.3-0.2,0.6-0.5,0.9c-0.3,0.3-0.7,0.4-1.1,0.4h-2.8c-0.4,0-0.8-0.1-1.1-0.4c-0.3-0.3-0.5-0.6-0.6-1l-2.5-8.1l-2.5,8.1
		c-0.1,0.4-0.3,0.7-0.6,1c-0.3,0.3-0.6,0.4-1.1,0.4h-2.8c-0.4,0-0.8-0.1-1.1-0.4c-0.3-0.3-0.5-0.6-0.5-0.9l-4.3-22.8l0-0.3
		c0-0.2,0.1-0.4,0.2-0.6c0.1-0.2,0.3-0.2,0.5-0.2h4.4c0.2,0,0.5,0.1,0.6,0.2c0.2,0.2,0.3,0.4,0.4,0.7l2.1,12.2l2-6.5
		c0.2-0.7,0.6-1,1.1-1h3.1c0.5,0,0.9,0.3,1.1,1l2,6.5L82,268.2z"/>
	<path class="st1" d="M97.5,286.7H108c0.2,0,0.5,0.1,0.6,0.3c0.2,0.2,0.3,0.4,0.3,0.7v3.8c0,0.3-0.1,0.5-0.3,0.7
		c-0.2,0.2-0.4,0.3-0.6,0.3H92.2c-0.2,0-0.5-0.1-0.6-0.3c-0.2-0.2-0.3-0.4-0.3-0.7v-23.3c0-0.3,0.1-0.5,0.3-0.7
		c0.2-0.2,0.4-0.3,0.6-0.3h15.5c0.2,0,0.5,0.1,0.6,0.3c0.2,0.2,0.3,0.4,0.3,0.7v3.8c0,0.3-0.1,0.5-0.3,0.7c-0.2,0.2-0.4,0.3-0.6,0.3
		H97.5v3.9h9.5c0.2,0,0.5,0.1,0.6,0.3c0.2,0.2,0.3,0.4,0.3,0.7v3.8c0,0.3-0.1,0.5-0.3,0.7c-0.2,0.2-0.4,0.3-0.6,0.3h-9.5V286.7z"/>
	<path class="st1" d="M129.6,269.3c1.6,1.4,2.5,3.4,2.5,6.2c0,3.5-1.3,5.9-4,7.2l4.1,8.6c0.1,0.1,0.1,0.3,0.1,0.4
		c0,0.2-0.1,0.4-0.2,0.6c-0.1,0.2-0.3,0.2-0.5,0.2h-4.5c-0.4,0-0.7-0.1-0.9-0.3c-0.2-0.2-0.4-0.4-0.5-0.7l-3.7-7.7h-3.1v7.7
		c0,0.3-0.1,0.5-0.3,0.7c-0.2,0.2-0.4,0.3-0.6,0.3h-4.4c-0.2,0-0.5-0.1-0.6-0.3c-0.2-0.2-0.3-0.4-0.3-0.7v-23.3
		c0-0.3,0.1-0.5,0.3-0.7c0.2-0.2,0.4-0.3,0.6-0.3h9C125.6,267.3,127.9,268,129.6,269.3z M122.7,278.2c2.2,0,3.2-0.9,3.2-2.7
		c0-1.8-1.1-2.7-3.2-2.7h-3.8v5.3H122.7z"/>
	<path class="st1" d="M154.1,274.6c-0.1,0.2-0.3,0.2-0.5,0.2h-4.4c-0.3,0-0.6,0-0.7-0.1s-0.4-0.2-0.6-0.5c0,0-0.2-0.2-0.4-0.5
		c-0.2-0.3-0.6-0.5-1.1-0.7c-0.5-0.2-1.1-0.3-1.8-0.3c-1,0-1.7,0.1-2.3,0.4c-0.6,0.3-0.9,0.8-0.9,1.4c0,0.5,0.2,0.9,0.6,1.1
		c0.4,0.3,1,0.5,1.7,0.7c0.8,0.2,2.2,0.5,4.1,1c2.5,0.6,4.3,1.4,5.5,2.6c1.2,1.2,1.8,2.9,1.8,5c0,1.6-0.4,3-1.3,4.2
		c-0.9,1.2-2.1,2.1-3.7,2.7c-1.6,0.6-3.3,1-5.3,1c-1.9,0-3.6-0.4-5.2-1.1c-1.6-0.7-2.8-1.7-3.7-2.8c-0.9-1.2-1.4-2.3-1.4-3.6
		c0-0.2,0.1-0.4,0.2-0.6c0.1-0.2,0.3-0.2,0.5-0.2h4.4c0.5,0,0.9,0.2,1.3,0.5c0.1,0.1,0.2,0.3,0.5,0.6c0.3,0.3,0.7,0.7,1.3,0.9
		c0.6,0.3,1.3,0.4,2.1,0.4c2.8,0,4.1-0.6,4.1-1.9c0-0.4-0.2-0.8-0.6-1c-0.4-0.3-0.9-0.5-1.6-0.7c-0.7-0.2-1.8-0.5-3.4-0.8l-1.5-0.3
		c-2.3-0.5-3.9-1.4-5-2.6c-1.1-1.2-1.6-2.9-1.6-5c0-1.4,0.4-2.7,1.2-3.9c0.8-1.2,1.9-2.1,3.3-2.8s3.1-1.1,4.9-1.1
		c1.8,0,3.4,0.4,4.9,1.1c1.5,0.7,2.7,1.7,3.5,2.8c0.9,1.1,1.3,2.2,1.3,3.2C154.3,274.2,154.2,274.4,154.1,274.6z"/>
	<path class="st1" d="M177.7,267.6c0.2,0.2,0.3,0.4,0.3,0.7v23.3c0,0.3-0.1,0.5-0.3,0.7c-0.2,0.2-0.4,0.3-0.6,0.3h-4.4
		c-0.2,0-0.5-0.1-0.6-0.3c-0.2-0.2-0.3-0.4-0.3-0.7v-8.8h-7.4v8.8c0,0.3-0.1,0.5-0.3,0.7c-0.2,0.2-0.4,0.3-0.6,0.3h-4.4
		c-0.2,0-0.5-0.1-0.6-0.3c-0.2-0.2-0.3-0.4-0.3-0.7v-23.3c0-0.3,0.1-0.5,0.3-0.7c0.2-0.2,0.4-0.3,0.6-0.3h4.4c0.2,0,0.5,0.1,0.6,0.3
		c0.2,0.2,0.3,0.4,0.3,0.7v8.7h7.4v-8.7c0-0.3,0.1-0.5,0.3-0.7c0.2-0.2,0.4-0.3,0.6-0.3h4.4C177.3,267.3,177.5,267.4,177.7,267.6z"
		/>
	<path class="st1" d="M188.8,286.7h10.5c0.2,0,0.5,0.1,0.6,0.3s0.3,0.4,0.3,0.7v3.8c0,0.3-0.1,0.5-0.3,0.7c-0.2,0.2-0.4,0.3-0.6,0.3
		h-15.8c-0.2,0-0.5-0.1-0.6-0.3c-0.2-0.2-0.3-0.4-0.3-0.7v-23.3c0-0.3,0.1-0.5,0.3-0.7c0.2-0.2,0.4-0.3,0.6-0.3h15.5
		c0.2,0,0.5,0.1,0.6,0.3c0.2,0.2,0.3,0.4,0.3,0.7v3.8c0,0.3-0.1,0.5-0.3,0.7c-0.2,0.2-0.4,0.3-0.6,0.3h-10.2v3.9h9.5
		c0.2,0,0.5,0.1,0.6,0.3s0.3,0.4,0.3,0.7v3.8c0,0.3-0.1,0.5-0.3,0.7c-0.2,0.2-0.4,0.3-0.6,0.3h-9.5V286.7z"/>
	<path class="st1" d="M221,287c0.2,0.2,0.3,0.4,0.3,0.7v3.8c0,0.3-0.1,0.5-0.3,0.7c-0.2,0.2-0.4,0.3-0.6,0.3h-15.4
		c-0.2,0-0.5-0.1-0.6-0.3c-0.2-0.2-0.3-0.4-0.3-0.7v-23.3c0-0.3,0.1-0.5,0.3-0.7c0.2-0.2,0.4-0.3,0.6-0.3h4.4c0.2,0,0.5,0.1,0.6,0.3
		c0.2,0.2,0.3,0.4,0.3,0.7v18.5h10.1C220.6,286.7,220.8,286.8,221,287z"/>
	<path class="st1" d="M240.2,287c0.2,0.2,0.3,0.4,0.3,0.7v3.8c0,0.3-0.1,0.5-0.3,0.7c-0.2,0.2-0.4,0.3-0.6,0.3h-15.4
		c-0.2,0-0.5-0.1-0.6-0.3c-0.2-0.2-0.3-0.4-0.3-0.7v-23.3c0-0.3,0.1-0.5,0.3-0.7c0.2-0.2,0.4-0.3,0.6-0.3h4.4c0.2,0,0.5,0.1,0.6,0.3
		c0.2,0.2,0.3,0.4,0.3,0.7v18.5h10.1C239.9,286.7,240.1,286.8,240.2,287z"/>
</g>
<path class="st2" d="M60,0h136c33.1,0,60,26.9,60,60v136c0,33.1-26.9,60-60,60H60c-33.1,0-60-26.9-60-60V60C0,26.9,26.9,0,60,0z"/>
<linearGradient id="SVGID_1_" gradientUnits="userSpaceOnUse" x1="180.3113" y1="127.6465" x2="65.587" y2="230.124" gradientTransform="matrix(1 0 0 -1 0 302)">
	<stop  offset="0" style="stop-color:#5391FE"/>
	<stop  offset="1" style="stop-color:#3E6DBF"/>
</linearGradient>
<path class="st3" d="M36.4,203.2c-1.3,0-2.5-0.2-3.7-0.7c-1.1-0.5-2.2-1.3-3-2.3c-0.8-1.1-1.3-2.3-1.6-3.6c-0.3-1.3-0.2-2.6,0.1-3.9
	l30-130.9c0.7-2.7,2.2-5.1,4.4-6.9c2.2-1.8,4.8-2.8,7.6-2.9h149.3c1.3,0,2.5,0.2,3.7,0.7c1.1,0.5,2.2,1.3,3,2.3
	c0.8,1.1,1.3,2.3,1.6,3.6c0.3,1.3,0.2,2.6-0.1,3.9l-30,130.9c-0.7,2.7-2.2,5.1-4.4,6.9c-2.2,1.8-4.8,2.8-7.6,2.9L36.4,203.2
	L36.4,203.2z"/>
<linearGradient id="SVGID_2_" gradientUnits="userSpaceOnUse" x1="64.4438" y1="231.4904" x2="177.9971" y2="129.4413" gradientTransform="matrix(1 0 0 -1 0 302)">
	<stop  offset="0" style="stop-color:#5391FE"/>
	<stop  offset="1" style="stop-color:#3E6DBF"/>
</linearGradient>
<path class="st4" d="M70.3,53.7h149.3c1,0,2.1,0.2,3,0.6c0.9,0.4,1.8,1.1,2.4,1.9c0.6,0.8,1.1,1.8,1.2,2.8c0.2,1,0.1,2.1-0.2,3.1
	l-30,130.9c-0.6,2.3-1.9,4.4-3.8,5.9c-1.9,1.5-4.2,2.4-6.6,2.5H36.4c-1,0-2.1-0.2-3-0.6c-0.9-0.4-1.8-1.1-2.4-1.9
	c-0.6-0.8-1.1-1.8-1.2-2.8c-0.2-1-0.1-2.1,0.2-3.1l30-130.9c0.6-2.3,1.9-4.4,3.8-5.9C65.5,54.7,67.9,53.8,70.3,53.7L70.3,53.7z"/>
<path class="st5" d="M128.3,167.2h36.3c2.1,0.1,4,1,5.4,2.5c1.4,1.5,2.2,3.5,2.2,5.5s-0.8,4-2.2,5.5c-1.4,1.5-3.4,2.4-5.4,2.5h-36.3
	c-2.1-0.1-4-1-5.4-2.5c-1.4-1.5-2.2-3.5-2.2-5.5s0.8-4,2.2-5.5C124.3,168.2,126.2,167.3,128.3,167.2L128.3,167.2z"/>
<path class="st5" d="M151.8,131.8c-1,1.7-2.5,3.2-4.2,4.3l-67.4,48.4c-1.9,1.2-4.2,1.7-6.4,1.3c-2.2-0.4-4.2-1.6-5.5-3.5
	s-1.9-4.1-1.6-6.3c0.3-2.2,1.4-4.2,3.2-5.7l60.8-44v-0.9L92.5,84.8c-1.4-1.7-2.1-3.9-2-6.1c0.1-2.2,1.1-4.3,2.7-5.8
	c1.6-1.5,3.8-2.4,6-2.4c2.2,0,4.4,0.9,6,2.4l45.8,48.8c1.2,1.4,2,3.1,2.1,5C153.3,128.4,152.9,130.2,151.8,131.8z"/>
<path class="st6" d="M150.1,130.1c-1,1.8-2.5,3.2-4.2,4.3l-67.4,48.4c-1.9,1.2-4.1,1.6-6.3,1.2c-2.2-0.4-4.1-1.6-5.4-3.4
	c-1.3-1.8-1.9-4-1.6-6.2c0.3-2.2,1.4-4.2,3.1-5.6l60.8-44v-0.9L90.9,83.1c-1.4-1.7-2.2-3.9-2-6.1c0.1-2.2,1.1-4.3,2.7-5.9
	c1.6-1.5,3.8-2.4,6-2.4c2.2,0,4.4,0.9,6,2.4l45.8,48.8c1.2,1.4,2,3.1,2.1,5C151.7,126.7,151.2,128.5,150.1,130.1L150.1,130.1z"/>
<path class="st6" d="M127.3,166.3h36.3c2,0,3.9,0.8,5.3,2.2c1.4,1.4,2.2,3.3,2.2,5.3c0,2-0.8,3.9-2.2,5.3c-1.4,1.4-3.3,2.2-5.3,2.2
	h-36.3c-2,0-3.9-0.8-5.3-2.2s-2.2-3.3-2.2-5.3c0-2,0.8-3.9,2.2-5.3S125.3,166.3,127.3,166.3L127.3,166.3z"/>
</svg>
