<?xml version="1.0" encoding="utf-8"?>
<!-- Generator: Adobe Illustrator 24.3.0, SVG Export Plug-In . SVG Version: 6.00 Build 0)  -->
<svg version="1.1" id="reactrouter" xmlns="http://www.w3.org/2000/svg" xmlns:xlink="http://www.w3.org/1999/xlink" x="0px"
	 y="0px" viewBox="0 0 256 300" style="enable-background:new 0 0 256 300;" xml:space="preserve">
<style type="text/css">
	.st0{fill:#FFFFFF;}
	.st1{fill:#121212;}
	.st2{opacity:0.95;enable-background:new    ;}
	.st3{fill:#0D1117;}
	.st4{fill:#F44250;}
</style>
<g>
	<path class="st0" d="M27.5,162.6h201c15.2,0,27.5,12.3,27.5,27.5v82.4c0,15.2-12.3,27.5-27.5,27.5h-201C12.3,300,0,287.7,0,272.5
		v-82.4C0,174.9,12.3,162.6,27.5,162.6z"/>
	<path class="st1" d="M60,0h136c33.1,0,60,26.9,60,60v136c0,33.1-26.9,60-60,60H60c-33.1,0-60-26.9-60-60V60C0,26.9,26.8,0,60,0z"/>
	<g class="st2">
		<path class="st3" d="M27.2,270.9c1.4,1.3,2.2,3.1,2.2,5.6c0,3.2-1.2,5.4-3.5,6.6l3.6,7.8c0.1,0.1,0.1,0.3,0.1,0.4
			c0,0.2-0.1,0.4-0.2,0.5s-0.3,0.2-0.5,0.2h-4c-0.4,0-0.6-0.1-0.8-0.2s-0.3-0.4-0.4-0.6l-3.2-7h-2.7v7c0,0.2-0.1,0.4-0.2,0.6
			c-0.2,0.2-0.3,0.3-0.6,0.3h-3.8c-0.2,0-0.4-0.1-0.6-0.3c-0.2-0.2-0.2-0.4-0.2-0.6V270c0-0.2,0.1-0.4,0.2-0.6
			c0.2-0.2,0.3-0.3,0.6-0.3h7.9C23.7,269,25.7,269.6,27.2,270.9z M21.1,279c1.9,0,2.8-0.8,2.8-2.4s-0.9-2.4-2.8-2.4h-3.3v4.9h3.3
			V279z"/>
		<path class="st3" d="M39,286.7h9.2c0.2,0,0.4,0.1,0.6,0.3c0.2,0.2,0.2,0.4,0.2,0.6v3.5c0,0.2-0.1,0.4-0.2,0.6
			c-0.2,0.2-0.3,0.3-0.6,0.3H34.4c-0.2,0-0.4-0.1-0.6-0.3c-0.2-0.2-0.2-0.4-0.2-0.6v-21.2c0-0.2,0.1-0.4,0.2-0.6
			c0.2-0.2,0.3-0.3,0.6-0.3H48c0.2,0,0.4,0.1,0.6,0.3c0.2,0.2,0.2,0.4,0.2,0.6v3.5c0,0.2-0.1,0.4-0.2,0.6c-0.2,0.2-0.3,0.3-0.6,0.3
			h-9v3.5h8.4c0.2,0,0.4,0.1,0.6,0.3c0.2,0.2,0.2,0.4,0.2,0.6v3.5c0,0.2-0.1,0.4-0.2,0.6c-0.2,0.2-0.3,0.3-0.6,0.3H39V286.7z"/>
		<path class="st3" d="M71.3,290.8c0.1,0.2,0.1,0.4,0.1,0.5c0,0.2-0.1,0.4-0.2,0.5s-0.3,0.2-0.5,0.2H67c-0.3,0-0.6-0.1-0.8-0.2
			c-0.2-0.2-0.3-0.4-0.4-0.6l-0.8-2.7h-7.8l-0.8,2.7c-0.1,0.2-0.2,0.4-0.4,0.6s-0.4,0.2-0.8,0.2h-3.7c-0.2,0-0.3-0.1-0.5-0.2
			c-0.1-0.1-0.2-0.3-0.2-0.5c0-0.1,0-0.3,0.1-0.5l6.4-20.7c0.1-0.3,0.3-0.6,0.5-0.8c0.2-0.2,0.5-0.3,0.8-0.3h4.7
			c0.4,0,0.6,0.1,0.8,0.3c0.2,0.2,0.4,0.5,0.5,0.8L71.3,290.8z M63.6,283.3l-2.4-7.9l-2.4,7.9H63.6z"/>
		<path class="st3" d="M80.4,286c0.6,0.7,1.5,1,2.7,1s2-0.3,2.5-0.8s0.9-1.1,1.1-1.8c0.1-0.4,0.2-0.6,0.4-0.8s0.3-0.2,0.6-0.2h3.8
			c0.2,0,0.3,0.1,0.5,0.2c0.1,0.1,0.2,0.3,0.2,0.5c0,1.5-0.4,2.8-1.2,4c-0.8,1.2-1.9,2.2-3.3,2.9c-1.4,0.7-2.9,1.1-4.6,1.1
			c-1.8,0-3.4-0.4-4.7-1.2c-1.3-0.8-2.4-1.9-3.1-3.2c-0.7-1.3-1.2-2.8-1.2-4.5c0-1-0.1-1.9-0.1-2.6c0-0.8,0-1.9,0.1-3.2
			c0.1-1.6,0.5-3.1,1.2-4.5c0.7-1.3,1.8-2.4,3.1-3.2c1.4-0.8,2.9-1.2,4.8-1.2c1.7,0,3.2,0.4,4.6,1.1s2.5,1.7,3.3,2.9
			c0.8,1.2,1.2,2.6,1.2,4c0,0.2-0.1,0.4-0.2,0.5s-0.3,0.2-0.5,0.2h-3.8c-0.3,0-0.5-0.1-0.6-0.2s-0.2-0.4-0.4-0.8
			c-0.2-0.7-0.6-1.3-1.1-1.8s-1.4-0.8-2.5-0.8c-1.2,0-2.1,0.4-2.7,1c-0.6,0.7-0.9,1.6-1,2.8c0,0.7-0.1,1.7-0.1,2.8c0,1,0,2,0.1,2.8
			C79.5,284.4,79.8,285.3,80.4,286z"/>
		<path class="st3" d="M111,269.3c0.2,0.2,0.2,0.4,0.2,0.6v3.5c0,0.2-0.1,0.4-0.2,0.6c-0.2,0.2-0.3,0.3-0.6,0.3h-5.1v16.8
			c0,0.2-0.1,0.4-0.2,0.6c-0.2,0.2-0.3,0.3-0.6,0.3h-3.8c-0.2,0-0.4-0.1-0.6-0.3c-0.2-0.2-0.2-0.4-0.2-0.6v-16.8h-5.1
			c-0.2,0-0.4-0.1-0.6-0.3c-0.2-0.2-0.2-0.4-0.2-0.6v-3.5c0-0.2,0.1-0.4,0.2-0.6c0.2-0.2,0.3-0.3,0.6-0.3h15.7
			C110.7,269,110.9,269.1,111,269.3z"/>
		<path class="st3" d="M136.7,270.9c1.4,1.3,2.2,3.1,2.2,5.6c0,3.2-1.2,5.4-3.5,6.6l3.6,7.8c0.1,0.1,0.1,0.3,0.1,0.4
			c0,0.2-0.1,0.4-0.2,0.5s-0.3,0.2-0.5,0.2h-4c-0.4,0-0.6-0.1-0.8-0.2s-0.3-0.4-0.4-0.6l-3.2-7h-2.7v7c0,0.2-0.1,0.4-0.2,0.6
			c-0.2,0.2-0.3,0.3-0.6,0.3h-3.8c-0.2,0-0.4-0.1-0.6-0.3c-0.2-0.2-0.2-0.4-0.2-0.6V270c0-0.2,0.1-0.4,0.2-0.6
			c0.2-0.2,0.3-0.3,0.6-0.3h7.9C133.2,269,135.3,269.6,136.7,270.9z M130.6,279c1.9,0,2.8-0.8,2.8-2.4s-0.9-2.4-2.8-2.4h-3.3v4.9
			h3.3V279z"/>
		<path class="st3" d="M156.4,269.9c1.3,0.8,2.4,1.9,3.1,3.2c0.7,1.3,1.1,2.8,1.2,4.5c0,0.6,0.1,1.6,0.1,3c0,1.3,0,2.3-0.1,2.9
			c-0.1,1.7-0.5,3.2-1.2,4.5s-1.8,2.4-3.1,3.2c-1.3,0.8-2.9,1.2-4.8,1.2c-1.9,0-3.5-0.4-4.8-1.2s-2.4-1.9-3.1-3.2
			c-0.7-1.3-1.1-2.8-1.2-4.5c0-1.2-0.1-2.1-0.1-2.9s0-1.7,0.1-3c0.1-1.7,0.5-3.2,1.2-4.5s1.8-2.4,3.1-3.2c1.3-0.8,2.9-1.2,4.8-1.2
			C153.5,268.7,155.1,269.1,156.4,269.9z M154.2,275c-0.6-0.7-1.5-1-2.6-1c-1.2,0-2,0.3-2.6,1s-1,1.6-1.1,2.8
			c-0.1,0.7-0.1,1.6-0.1,2.7s0,2,0.1,2.8c0.1,1.2,0.5,2.1,1.1,2.8c0.6,0.7,1.5,1,2.6,1c1.2,0,2-0.3,2.6-1s1-1.6,1.1-2.8
			c0.1-0.8,0.1-1.7,0.1-2.8c0-1.1,0-2-0.1-2.7C155.2,276.6,154.9,275.7,154.2,275z"/>
		<path class="st3" d="M182.4,269.3c0.2,0.2,0.2,0.4,0.2,0.6V283c0,2-0.4,3.7-1.1,5c-0.7,1.4-1.8,2.5-3.1,3.2s-2.9,1.1-4.7,1.1
			s-3.4-0.4-4.7-1.1s-2.4-1.8-3.1-3.2c-0.7-1.4-1.1-3.1-1.1-5v-13.1c0-0.2,0.1-0.4,0.2-0.6c0.2-0.2,0.3-0.3,0.6-0.3h3.8
			c0.2,0,0.4,0.1,0.6,0.3c0.2,0.2,0.2,0.4,0.2,0.6v13c0,1.3,0.3,2.4,0.9,3.1s1.5,1.1,2.6,1.1s2-0.4,2.6-1.1s0.9-1.8,0.9-3.1v-13
			c0-0.2,0.1-0.4,0.2-0.6c0.2-0.2,0.3-0.3,0.6-0.3h3.8C182.1,269,182.2,269.1,182.4,269.3z"/>
		<path class="st3" d="M203,269.3c0.2,0.2,0.2,0.4,0.2,0.6v3.5c0,0.2-0.1,0.4-0.2,0.6s-0.3,0.3-0.6,0.3h-5.1v16.8
			c0,0.2-0.1,0.4-0.2,0.6c-0.2,0.2-0.3,0.3-0.6,0.3h-3.8c-0.2,0-0.4-0.1-0.6-0.3c-0.2-0.2-0.2-0.4-0.2-0.6v-16.8h-5.1
			c-0.2,0-0.4-0.1-0.6-0.3c-0.2-0.2-0.2-0.4-0.2-0.6v-3.5c0-0.2,0.1-0.4,0.2-0.6c0.2-0.2,0.3-0.3,0.6-0.3h15.7
			C202.7,269,202.9,269.1,203,269.3z"/>
		<path class="st3" d="M212.2,286.7h9.2c0.2,0,0.4,0.1,0.6,0.3s0.2,0.4,0.2,0.6v3.5c0,0.2-0.1,0.4-0.2,0.6c-0.2,0.2-0.3,0.3-0.6,0.3
			h-13.9c-0.2,0-0.4-0.1-0.6-0.3c-0.2-0.2-0.2-0.4-0.2-0.6v-21.2c0-0.2,0.1-0.4,0.2-0.6c0.2-0.2,0.3-0.3,0.6-0.3h13.6
			c0.2,0,0.4,0.1,0.6,0.3c0.2,0.2,0.2,0.4,0.2,0.6v3.5c0,0.2-0.1,0.4-0.2,0.6c-0.2,0.2-0.3,0.3-0.6,0.3h-9v3.5h8.4
			c0.2,0,0.4,0.1,0.6,0.3c0.2,0.2,0.2,0.4,0.2,0.6v3.5c0,0.2-0.1,0.4-0.2,0.6c-0.2,0.2-0.3,0.3-0.6,0.3h-8.4L212.2,286.7
			L212.2,286.7z"/>
		<path class="st3" d="M241.3,270.9c1.4,1.3,2.2,3.1,2.2,5.6c0,3.2-1.2,5.4-3.5,6.6l3.6,7.8c0.1,0.1,0.1,0.3,0.1,0.4
			c0,0.2-0.1,0.4-0.2,0.5s-0.3,0.2-0.5,0.2h-4c-0.4,0-0.6-0.1-0.8-0.2s-0.3-0.4-0.4-0.6l-3.2-7h-2.7v7c0,0.2-0.1,0.4-0.2,0.6
			c-0.2,0.2-0.3,0.3-0.6,0.3h-3.8c-0.2,0-0.4-0.1-0.6-0.3c-0.2-0.2-0.2-0.4-0.2-0.6V270c0-0.2,0.1-0.4,0.2-0.6
			c0.2-0.2,0.3-0.3,0.6-0.3h7.9C237.8,269,239.9,269.6,241.3,270.9z M235.2,279c1.9,0,2.8-0.8,2.8-2.4s-0.9-2.4-2.8-2.4h-3.3v4.9
			h3.3V279z"/>
	</g>
	<path class="st4" d="M178.5,99.4c-5.2-1.6-7.9-1.1-13.4-1.7c-8.4-0.9-11.8-4.2-13.2-12.7c-0.8-4.7,0.1-11.7-1.9-16
		c-3.9-8.2-13-11.9-22.2-9.8c-7.7,1.8-14.2,9.5-14.5,17.4c-0.4,9.1,4.8,16.8,13.6,19.5c4.2,1.3,8.7,1.9,13.1,2.2
		c8.1,0.6,8.7,5.1,10.9,8.8c1.4,2.3,2.7,4.6,2.7,11.6c0,6.9-1.3,9.2-2.7,11.6c-2.2,3.7-4.9,6.1-12.9,6.7c-4.4,0.3-8.9,1-13.1,2.2
		c-8.9,2.7-14,10.4-13.6,19.5c0.4,7.9,6.8,15.7,14.5,17.4c9.2,2.1,18.3-1.6,22.2-9.8c2-4.3,3.2-9.2,4-13.9
		c1.4-8.5,4.8-11.8,13.2-12.7c5.5-0.6,11.1,0,16.2-2.9c5.4-4,10.2-9.9,10.2-18.1C191.6,110.6,186.4,101.9,178.5,99.4z"/>
	<g>
		<path class="st0" d="M91.8,138c-10.6,0-19.3-8.7-19.3-19.4s8.7-19.4,19.3-19.4s19.3,8.7,19.3,19.4C111.2,129.3,102.5,138,91.8,138
			z"/>
		<path class="st0" d="M56.3,177.4c-10.6,0-19.3-8.8-19.3-19.4c0-10.7,8.7-19.3,19.4-19.3c10.6,0,19.3,8.8,19.3,19.4
			C75.6,168.7,66.9,177.4,56.3,177.4z"/>
		<path class="st0" d="M199.8,177.4c-10.7,0.1-19.4-8.6-19.5-19.2c-0.1-10.7,8.6-19.4,19.2-19.5c10.7-0.1,19.4,8.6,19.5,19.2
			C219.1,168.5,210.4,177.3,199.8,177.4z"/>
	</g>
</g>
</svg>
