<?xml version="1.0" encoding="utf-8"?>
<!-- Generator: Adobe Illustrator 24.3.0, SVG Export Plug-In . SVG Version: 6.00 Build 0)  -->
<svg version="1.1" id="Layer_1" xmlns="http://www.w3.org/2000/svg" xmlns:xlink="http://www.w3.org/1999/xlink" x="0px" y="0px"
	 viewBox="0 0 256 300" style="enable-background:new 0 0 256 300;" xml:space="preserve">
<style type="text/css">
	.st0{fill:#FFFFFF;}
	.st1{fill:#0D1117;}
	.st2{fill:#E43717;}
</style>
<path class="st0" d="M27.5,162.6h201c15.2,0,27.5,12.3,27.5,27.5v82.4c0,15.2-12.3,27.5-27.5,27.5h-201C12.3,300,0,287.7,0,272.5
	v-82.4C0,174.9,12.3,162.6,27.5,162.6z"/>
<g>
	<path class="st1" d="M99.2,269.5c1.5,1.4,2.3,3.4,2.3,6.1c0,3.5-1.2,5.8-3.7,7.2l3.8,8.5c0.1,0.1,0.1,0.3,0.1,0.4
		c0,0.2-0.1,0.4-0.2,0.6s-0.3,0.2-0.5,0.2h-4.2c-0.4,0-0.7-0.1-0.8-0.3c-0.2-0.2-0.3-0.4-0.5-0.7l-3.4-7.7h-2.9v7.7
		c0,0.3-0.1,0.5-0.2,0.7c-0.2,0.2-0.4,0.3-0.6,0.3h-4.1c-0.2,0-0.4-0.1-0.6-0.3c-0.2-0.2-0.2-0.4-0.2-0.7v-23.1
		c0-0.3,0.1-0.5,0.2-0.7c0.2-0.2,0.4-0.3,0.6-0.3h8.4C95.5,267.5,97.6,268.1,99.2,269.5z M92.7,278.3c2,0,3-0.9,3-2.6s-1-2.6-3-2.6
		h-3.5v5.3L92.7,278.3L92.7,278.3z"/>
	<path class="st1" d="M125.8,267.7c0.2,0.2,0.2,0.4,0.2,0.7v14.3c0,2.1-0.4,4-1.2,5.5s-1.9,2.7-3.3,3.5s-3.1,1.2-5,1.2
		s-3.6-0.4-5-1.2c-1.4-0.8-2.5-1.9-3.3-3.5c-0.8-1.5-1.2-3.4-1.2-5.5v-14.3c0-0.3,0.1-0.5,0.2-0.7c0.2-0.2,0.4-0.3,0.6-0.3h4.1
		c0.2,0,0.4,0.1,0.6,0.3c0.2,0.2,0.2,0.4,0.2,0.7v14.1c0,1.5,0.3,2.6,0.9,3.4s1.5,1.2,2.7,1.2s2.1-0.4,2.7-1.2
		c0.6-0.8,0.9-1.9,0.9-3.4v-14.1c0-0.3,0.1-0.5,0.2-0.7c0.2-0.2,0.4-0.3,0.6-0.3h4.1C125.5,267.5,125.7,267.6,125.8,267.7z"/>
	<path class="st1" d="M149.4,274.7c-0.1,0.2-0.3,0.2-0.5,0.2h-4.1c-0.3,0-0.5,0-0.7-0.1s-0.4-0.2-0.6-0.4c0,0-0.2-0.2-0.4-0.5
		s-0.6-0.5-1.1-0.7s-1.1-0.3-1.7-0.3c-0.9,0-1.6,0.1-2.2,0.4c-0.6,0.3-0.9,0.7-0.9,1.4c0,0.5,0.2,0.9,0.5,1.1
		c0.4,0.3,0.9,0.5,1.6,0.7s2,0.5,3.8,1c2.3,0.5,4.1,1.4,5.2,2.6c1.1,1.2,1.6,2.8,1.6,5c0,1.6-0.4,3-1.2,4.1s-2,2.1-3.4,2.7
		c-1.5,0.6-3.1,0.9-5,0.9c-1.8,0-3.4-0.4-4.8-1.1c-1.4-0.7-2.6-1.6-3.4-2.8c-0.8-1.1-1.3-2.3-1.3-3.5c0-0.2,0.1-0.4,0.2-0.6
		c0.1-0.2,0.3-0.2,0.5-0.2h4.1c0.5,0,0.8,0.2,1.2,0.5c0.1,0.1,0.2,0.3,0.5,0.6c0.3,0.3,0.7,0.7,1.2,0.9c0.5,0.3,1.2,0.4,1.9,0.4
		c2.6,0,3.8-0.6,3.8-1.9c0-0.4-0.2-0.7-0.5-1c-0.4-0.3-0.9-0.5-1.5-0.7c-0.7-0.2-1.7-0.5-3.2-0.8l-1.4-0.3c-2.1-0.5-3.7-1.4-4.7-2.6
		s-1.5-2.9-1.5-4.9c0-1.4,0.4-2.7,1.1-3.8s1.8-2.1,3.1-2.8c1.3-0.7,2.9-1.1,4.6-1.1c1.7,0,3.2,0.4,4.6,1.1c1.4,0.7,2.5,1.6,3.3,2.7
		s1.2,2.2,1.3,3.2C149.6,274.4,149.5,274.5,149.4,274.7z"/>
	<path class="st1" d="M171.5,267.7c0.2,0.2,0.2,0.4,0.2,0.7v3.8c0,0.3-0.1,0.5-0.2,0.7c-0.2,0.2-0.4,0.3-0.6,0.3h-5.5v18.4
		c0,0.3-0.1,0.5-0.2,0.7s-0.4,0.3-0.6,0.3h-4.1c-0.2,0-0.4-0.1-0.6-0.3c-0.2-0.2-0.2-0.4-0.2-0.7v-18.4h-5.5c-0.2,0-0.4-0.1-0.6-0.3
		c-0.2-0.2-0.2-0.4-0.2-0.7v-3.8c0-0.3,0.1-0.5,0.2-0.7c0.2-0.2,0.4-0.3,0.6-0.3h16.7C171.1,267.5,171.3,267.6,171.5,267.7z"/>
</g>
<path class="st2" d="M60,0h136c33.1,0,60,26.9,60,60v136c0,33.1-26.9,60-60,60H60c-33.1,0-60-26.9-60-60V60C0,26.9,26.9,0,60,0z"/>
<path class="st0" d="M226.6,125.6l-8.4-5.2c-0.1-0.8-0.2-1.6-0.2-2.4l7.2-6.7c0.7-0.7,1.1-1.7,0.9-2.7c-0.2-1-0.9-1.8-1.8-2.1
	l-9.2-3.4c-0.2-0.8-0.5-1.6-0.7-2.4l5.8-8c0.6-0.8,0.7-1.9,0.3-2.8s-1.2-1.6-2.2-1.7l-9.7-1.6c-0.4-0.7-0.8-1.5-1.2-2.2l4.1-9
	c0.4-0.9,0.3-2-0.2-2.8c-0.6-0.8-1.5-1.3-2.5-1.3l-9.9,0.3c-0.5-0.6-1-1.3-1.6-1.9l2.3-9.6c0.2-1-0.1-2-0.8-2.7s-1.7-1-2.7-0.8
	l-9.6,2.3c-0.6-0.5-1.3-1-1.9-1.6l0.3-9.9c0-1-0.5-1.9-1.3-2.5s-1.9-0.6-2.8-0.2l-9,4.1c-0.7-0.4-1.4-0.8-2.2-1.2l-1.6-9.7
	c-0.2-1-0.8-1.8-1.7-2.2s-2-0.3-2.8,0.3l-8,5.8c-0.8-0.3-1.6-0.5-2.4-0.7l-3.4-9.2c-0.3-0.9-1.2-1.6-2.1-1.8c-1-0.2-2,0.1-2.7,0.9
	l-6.7,7.2c-0.8-0.1-1.6-0.2-2.4-0.2l-5.2-8.4c-0.5-0.9-1.5-1.4-2.5-1.4s-1.9,0.5-2.4,1.4l-5.2,8.4c-0.8,0.1-1.6,0.1-2.4,0.2
	l-6.7-7.2c-0.7-0.7-1.7-1.1-2.7-0.9s-1.8,0.9-2.1,1.8l-3.4,9.2c-0.8,0.2-1.6,0.5-2.4,0.7l-8-5.8c-0.8-0.6-1.9-0.7-2.8-0.3
	s-1.6,1.2-1.7,2.2l-1.6,9.7c-0.7,0.4-1.5,0.8-2.2,1.2l-9-4.1c-0.9-0.4-2-0.3-2.8,0.2c-0.8,0.6-1.3,1.5-1.3,2.5l0.3,9.9
	c-0.6,0.5-1.3,1-1.9,1.6l-9.6-2.3c-1-0.2-2,0.1-2.7,0.8s-1,1.7-0.8,2.7l2.3,9.6c-0.5,0.6-1,1.3-1.6,1.9l-9.9-0.3
	c-1,0-1.9,0.4-2.5,1.3c-0.6,0.8-0.6,1.9-0.2,2.8l4.1,9c-0.4,0.7-0.8,1.4-1.2,2.2L38,88.2c-1,0.2-1.8,0.8-2.2,1.7
	c-0.4,0.9-0.3,2,0.3,2.8l5.8,8c-0.3,0.8-0.5,1.6-0.7,2.4l-9.2,3.4c-0.9,0.3-1.6,1.2-1.8,2.1c-0.2,1,0.1,2,0.9,2.7l7.2,6.7
	c-0.1,0.8-0.2,1.6-0.2,2.4l-8.4,5.2c-0.9,0.5-1.4,1.5-1.4,2.5s0.5,1.9,1.4,2.4l8.4,5.2c0.1,0.8,0.1,1.6,0.2,2.4l-7.2,6.7
	c-0.7,0.7-1.1,1.7-0.9,2.7s0.9,1.8,1.8,2.1l9.2,3.4c0.2,0.8,0.5,1.6,0.7,2.4l-5.8,8c-0.6,0.8-0.7,1.9-0.3,2.8
	c0.4,0.9,1.2,1.6,2.2,1.7l9.7,1.6c0.4,0.7,0.8,1.5,1.2,2.2l-4.1,9c-0.4,0.9-0.3,2,0.2,2.8c0.6,0.8,1.5,1.3,2.5,1.3l9.9-0.3
	c0.5,0.6,1,1.3,1.6,1.9l-2.5,9.6c-0.2,1,0.1,2,0.8,2.7s1.7,1,2.7,0.8l9.6-2.3c0.6,0.5,1.3,1,1.9,1.6l-0.3,9.9c0,1,0.4,1.9,1.3,2.5
	c0.8,0.6,1.9,0.6,2.8,0.2l9-4.1c0.7,0.4,1.4,0.8,2.2,1.2l1.6,9.7c0.2,1,0.8,1.8,1.7,2.2s2,0.3,2.8-0.3l8-5.8
	c0.8,0.2,1.6,0.5,2.4,0.7l3.4,9.2c0.4,0.9,1.2,1.6,2.1,1.8c1,0.2,2-0.1,2.7-0.9l6.7-7.2c0.8,0.1,1.6,0.2,2.4,0.2l5.2,8.4
	c0.5,0.8,1.5,1.4,2.4,1.4c0.9,0,1.9-0.5,2.5-1.4l5.2-8.4c0.8-0.1,1.6-0.2,2.4-0.2l6.7,7.2c0.7,0.7,1.7,1.1,2.7,0.9
	c1-0.2,1.8-0.9,2.1-1.8l3.4-9.2c0.8-0.2,1.6-0.5,2.4-0.7l8,5.8c0.8,0.6,1.9,0.7,2.8,0.3c0.9-0.4,1.6-1.2,1.7-2.2l1.6-9.7
	c0.7-0.4,1.5-0.8,2.2-1.2l9,4.1c0.9,0.4,2,0.3,2.8-0.2c0.8-0.6,1.3-1.5,1.3-2.5l-0.3-9.9c0.6-0.5,1.3-1,1.9-1.6l9.6,2.3
	c1,0.2,2-0.1,2.7-0.8s1-1.7,0.8-2.7l-2.3-9.6c0.5-0.6,1-1.3,1.6-1.9l9.9,0.3c1,0,1.9-0.4,2.5-1.3c0.6-0.8,0.6-1.9,0.2-2.8l-4.1-9
	c0.4-0.7,0.8-1.5,1.2-2.2l9.7-1.6c1-0.2,1.8-0.8,2.2-1.7s0.3-2-0.3-2.8l-5.8-8c0.2-0.8,0.5-1.6,0.7-2.4l9.2-3.4
	c0.9-0.4,1.6-1.2,1.8-2.1c0.2-1-0.1-2-0.9-2.7l-7.2-6.7c0.1-0.8,0.2-1.6,0.2-2.4l8.4-5.2c0.8-0.5,1.4-1.5,1.4-2.4
	C228,127,227.5,126.1,226.6,125.6L226.6,125.6z M170.4,195.3c-3.2-0.7-5.2-3.9-4.5-7.1c0.7-3.2,3.8-5.3,7.1-4.6
	c3.2,0.7,5.3,3.9,4.6,7.1C176.8,193.9,173.6,196,170.4,195.3L170.4,195.3z M167.5,176c-2.9-0.6-5.8,1.2-6.4,4.2l-3,13.9
	c-9.2,4.2-19.5,6.5-30.2,6.5c-11,0-21.4-2.4-30.8-6.8l-3-13.9c-0.6-2.9-3.5-4.8-6.4-4.2l-12.3,2.6c-2.3-2.4-4.4-4.9-6.3-7.5h59.8
	c0.7,0,1.1-0.1,1.1-0.7v-21.2c0-0.6-0.5-0.7-1.1-0.7h-17.4v-13.4h18.9c1.7,0,9.2,0.5,11.6,10.1c0.8,2.9,2.4,12.5,3.5,15.6
	c1.1,3.4,5.7,10.3,10.6,10.3h29.8c0.3,0,0.7,0,1.1-0.1c-2.1,2.8-4.3,5.5-6.8,7.9L167.5,176L167.5,176z M84.8,195
	c-3.2,0.7-6.4-1.4-7.1-4.6c-0.7-3.2,1.4-6.4,4.6-7.1c3.2-0.7,6.4,1.4,7.1,4.6C90,191.2,88,194.3,84.8,195z M62,103.1
	c1.3,3,0,6.5-3,7.9c-3,1.3-6.5,0-7.8-3s0-6.5,3-7.9S60.7,100.1,62,103.1z M55.1,119.6l12.8-5.7c2.7-1.2,4-4.4,2.8-7.1l-2.6-6h10.4
	v46.6h-21c-1.8-6.4-2.8-13.1-2.8-20.1C54.7,124.7,54.9,122.1,55.1,119.6L55.1,119.6z M111.3,115.1v-13.8H136c1.3,0,9,1.5,9,7.2
	c0,4.8-5.9,6.5-10.8,6.5h-22.9C111.3,115,111.3,115.1,111.3,115.1z M200.9,127.5c0,1.8-0.1,3.6-0.2,5.4h-7.5c-0.8,0-1.1,0.5-1.1,1.2
	v3.4c0,8.1-4.6,9.9-8.6,10.3c-3.8,0.4-8-1.6-8.6-3.9c-2.3-12.7-6-15.4-11.9-20.1c7.4-4.7,15-11.6,15-20.8c0-10-6.8-16.2-11.5-19.3
	c-6.5-4.3-13.8-5.2-15.7-5.2H73.2C83.7,66.8,98,58.4,114.1,55.4l9.2,9.6c2.1,2.2,5.5,2.3,7.7,0.2l10.2-9.8
	c21.4,4,39.6,17.3,50.1,35.7l-7,15.8c-1.2,2.7,0,5.9,2.8,7.1l13.5,6C200.8,122.5,200.9,125,200.9,127.5L200.9,127.5z M123.3,47.4
	c2.4-2.3,6.1-2.2,8.4,0.2c2.3,2.4,2.2,6.1-0.2,8.4s-6.1,2.2-8.4-0.2C120.8,53.4,120.9,49.7,123.3,47.4L123.3,47.4z M192.9,103.4
	c1.3-3,4.8-4.4,7.8-3c3,1.3,4.4,4.9,3,7.9c-1.3,3-4.8,4.4-7.8,3S191.5,106.4,192.9,103.4z"/>
</svg>
