<?xml version="1.0" encoding="utf-8"?>
<!-- Generator: Adobe Illustrator 24.3.0, SVG Export Plug-In . SVG Version: 6.00 Build 0)  -->
<svg version="1.1" id="Layer_1" xmlns="http://www.w3.org/2000/svg" xmlns:xlink="http://www.w3.org/1999/xlink" x="0px" y="0px"
	 viewBox="0 0 256 300" style="enable-background:new 0 0 256 300;" xml:space="preserve">
<style type="text/css">
	.st0{fill:#FFFFFF;}
	.st1{fill:#231F20;}
	.st2{fill:#242938;}
	.st3{clip-path:url(#SVGID_1_);}
	.st4{fill:#A41E11;}
	.st5{fill:#D82C20;}
	.st6{fill:#7A0C00;}
	.st7{fill:#AD2115;}
</style>
<path class="st0" d="M27.5,162.6h201c15.2,0,27.5,12.3,27.5,27.5v82.4c0,15.2-12.3,27.5-27.5,27.5h-201C12.3,300,0,287.7,0,272.5
	v-82.4C0,174.9,12.3,162.6,27.5,162.6z"/>
<g>
	<path class="st1" d="M96.3,269.3c1.6,1.4,2.5,3.4,2.5,6.2c0,3.5-1.3,5.9-4,7.2l4.1,8.6c0.1,0.1,0.1,0.3,0.1,0.4
		c0,0.2-0.1,0.4-0.2,0.6c-0.1,0.2-0.3,0.2-0.5,0.2h-4.5c-0.4,0-0.7-0.1-0.9-0.3c-0.2-0.2-0.4-0.4-0.5-0.7l-3.7-7.7h-3.1v7.7
		c0,0.3-0.1,0.5-0.3,0.7c-0.2,0.2-0.4,0.3-0.6,0.3h-4.4c-0.2,0-0.5-0.1-0.6-0.3c-0.2-0.2-0.3-0.4-0.3-0.7v-23.3
		c0-0.3,0.1-0.5,0.3-0.7c0.2-0.2,0.4-0.3,0.6-0.3h9C92.3,267.3,94.6,268,96.3,269.3z M89.3,278.2c2.2,0,3.2-0.9,3.2-2.7
		c0-1.8-1.1-2.7-3.2-2.7h-3.8v5.3H89.3z"/>
	<path class="st1" d="M108.7,286.7h10.5c0.2,0,0.5,0.1,0.6,0.3c0.2,0.2,0.3,0.4,0.3,0.7v3.8c0,0.3-0.1,0.5-0.3,0.7
		c-0.2,0.2-0.4,0.3-0.6,0.3h-15.8c-0.2,0-0.5-0.1-0.6-0.3c-0.2-0.2-0.3-0.4-0.3-0.7v-23.3c0-0.3,0.1-0.5,0.3-0.7
		c0.2-0.2,0.4-0.3,0.6-0.3H119c0.2,0,0.5,0.1,0.6,0.3c0.2,0.2,0.3,0.4,0.3,0.7v3.8c0,0.3-0.1,0.5-0.3,0.7c-0.2,0.2-0.4,0.3-0.6,0.3
		h-10.2v3.9h9.5c0.2,0,0.5,0.1,0.6,0.3c0.2,0.2,0.3,0.4,0.3,0.7v3.8c0,0.3-0.1,0.5-0.3,0.7c-0.2,0.2-0.4,0.3-0.6,0.3h-9.5V286.7z"/>
	<path class="st1" d="M144.2,279.9c0,0.4,0,1.2-0.1,2.5c-0.1,2-0.5,3.7-1.4,5.2c-0.9,1.5-2.1,2.7-3.6,3.5c-1.5,0.9-3.3,1.3-5.3,1.3
		h-9c-0.2,0-0.5-0.1-0.6-0.3c-0.2-0.2-0.3-0.4-0.3-0.7v-23.3c0-0.3,0.1-0.5,0.3-0.7c0.2-0.2,0.4-0.3,0.6-0.3h8.8
		c2,0,3.8,0.4,5.4,1.3c1.6,0.9,2.8,2,3.7,3.6c0.9,1.5,1.4,3.3,1.4,5.2C144.2,278.7,144.2,279.5,144.2,279.9z M130.1,273v13.7h3.6
		c2.8,0,4.2-1.4,4.4-4.1c0-1.4,0.1-2.3,0.1-2.7c0-0.5,0-1.4-0.1-2.7c-0.1-1.4-0.5-2.4-1.2-3.1c-0.8-0.7-1.9-1-3.3-1H130.1z"/>
	<path class="st1" d="M148.3,292.2c-0.2-0.2-0.3-0.4-0.3-0.7v-23.3c0-0.3,0.1-0.5,0.3-0.7c0.2-0.2,0.4-0.3,0.6-0.3h4.4
		c0.2,0,0.5,0.1,0.6,0.3c0.2,0.2,0.3,0.4,0.3,0.7v23.3c0,0.3-0.1,0.5-0.3,0.7c-0.2,0.2-0.4,0.3-0.6,0.3h-4.4
		C148.7,292.5,148.4,292.4,148.3,292.2z"/>
	<path class="st1" d="M177,274.6c-0.1,0.2-0.3,0.2-0.5,0.2h-4.4c-0.3,0-0.6,0-0.7-0.1s-0.4-0.2-0.6-0.5c0,0-0.2-0.2-0.4-0.5
		c-0.2-0.3-0.6-0.5-1.1-0.7c-0.5-0.2-1.1-0.3-1.8-0.3c-1,0-1.7,0.1-2.3,0.4c-0.6,0.3-0.9,0.8-0.9,1.4c0,0.5,0.2,0.9,0.6,1.1
		c0.4,0.3,1,0.5,1.7,0.7c0.8,0.2,2.2,0.5,4.1,1c2.5,0.6,4.3,1.4,5.5,2.6c1.2,1.2,1.8,2.9,1.8,5c0,1.6-0.4,3-1.3,4.2
		c-0.9,1.2-2.1,2.1-3.7,2.7c-1.6,0.6-3.3,1-5.3,1c-1.9,0-3.6-0.4-5.2-1.1c-1.6-0.7-2.8-1.7-3.7-2.8c-0.9-1.2-1.4-2.3-1.4-3.6
		c0-0.2,0.1-0.4,0.2-0.6c0.1-0.2,0.3-0.2,0.5-0.2h4.4c0.5,0,0.9,0.2,1.3,0.5c0.1,0.1,0.2,0.3,0.5,0.6c0.3,0.3,0.7,0.7,1.3,0.9
		c0.6,0.3,1.3,0.4,2.1,0.4c2.8,0,4.1-0.6,4.1-1.9c0-0.4-0.2-0.8-0.6-1c-0.4-0.3-0.9-0.5-1.6-0.7c-0.7-0.2-1.8-0.5-3.4-0.8l-1.5-0.3
		c-2.3-0.5-3.9-1.4-5-2.6c-1.1-1.2-1.6-2.9-1.6-5c0-1.4,0.4-2.7,1.2-3.9c0.8-1.2,1.9-2.1,3.3-2.8s3.1-1.1,4.9-1.1
		c1.8,0,3.4,0.4,4.9,1.1c1.5,0.7,2.7,1.7,3.5,2.8c0.9,1.1,1.3,2.2,1.3,3.2C177.2,274.2,177.2,274.4,177,274.6z"/>
</g>
<path class="st2" d="M60,0h136c33.1,0,60,26.9,60,60v136c0,33.1-26.9,60-60,60H60c-33.1,0-60-26.9-60-60V60C0,26.9,26.9,0,60,0z"/>
<g>
	<defs>
		<rect id="SVGID_3_" x="28" y="28" width="200" height="200"/>
	</defs>
	<clipPath id="SVGID_1_">
		<use xlink:href="#SVGID_3_"  style="overflow:visible;"/>
	</clipPath>
	<g class="st3">
		<path class="st4" d="M220.2,174.5c-10.7,5.6-66,28.3-77.7,34.4c-11.8,6.1-18.3,6.1-27.6,1.6c-9.3-4.4-68.1-28.2-78.7-33.3
			c-5.3-2.5-8.1-4.7-8.1-6.7v-20.2c0,0,76.6-16.7,89-21.1c12.4-4.4,16.6-4.6,27.2-0.7c10.5,3.9,73.4,15.2,83.8,19v19.9
			C228,169.5,225.6,171.7,220.2,174.5L220.2,174.5z"/>
		<path class="st5" d="M220.2,154.2c-10.7,5.6-66,28.3-77.7,34.4c-11.8,6.1-18.3,6.1-27.6,1.6c-9.3-4.4-68.1-28.2-78.7-33.3
			c-10.6-5.1-10.8-8.6-0.4-12.6l81.3-31.5c12.4-4.4,16.6-4.6,27.2-0.7c10.5,3.9,65.5,25.7,75.9,29.6
			C230.4,145.7,230.8,148.7,220.2,154.2L220.2,154.2z"/>
		<path class="st4" d="M220.2,141.5c-10.7,5.6-66,28.3-77.7,34.4c-11.8,6.1-18.3,6.1-27.6,1.6c-9.3-4.4-68.1-28.2-78.7-33.3
			c-5.3-2.5-8.1-4.7-8.1-6.7v-20.2c0,0,76.6-16.7,89-21.1c12.4-4.4,16.6-4.6,27.2-0.7s73.4,15.2,83.8,19v19.9
			C228,136.5,225.6,138.7,220.2,141.5L220.2,141.5z"/>
		<path class="st5" d="M220.2,121.3c-10.7,5.6-66,28.3-77.7,34.4c-11.8,6.1-18.3,6.1-27.6,1.6c-9.3-4.4-68.1-28.2-78.7-33.3
			c-10.6-5.1-10.8-8.6-0.4-12.6L117,80c12.4-4.4,16.6-4.6,27.2-0.7c10.5,3.9,65.5,25.7,75.9,29.5
			C230.4,112.6,230.8,115.7,220.2,121.3L220.2,121.3z"/>
		<path class="st4" d="M220.2,107.3c-10.7,5.6-66,28.3-77.7,34.4c-11.8,6.1-18.3,6.1-27.6,1.6c-9.3-4.4-68.1-28.2-78.7-33.3
			c-5.3-2.5-8.1-4.7-8.1-6.7V83.2c0,0,76.6-16.7,89-21.1c12.4-4.4,16.6-4.6,27.2-0.7s73.4,15.2,83.8,19v19.9
			C228,102.3,225.6,104.5,220.2,107.3L220.2,107.3z"/>
		<path class="st5" d="M220.2,87.1c-10.7,5.6-66,28.3-77.7,34.4c-11.8,6.1-18.3,6.1-27.6,1.6S46.7,94.9,36.1,89.9
			c-10.6-5.1-10.8-8.6-0.4-12.6L117,45.8c12.4-4.4,16.6-4.6,27.2-0.7c10.5,3.9,65.5,25.7,75.9,29.5
			C230.4,78.4,230.8,81.5,220.2,87.1L220.2,87.1z"/>
		<path class="st0" d="M133,78.8l-6.3-10.4l-20-1.8l14.9-5.4l-4.5-8.3l14,5.5l13.2-4.3l-3.6,8.5l13.4,5l-17.3,1.8L133,78.8z
			 M99.6,99.5l46.3-7.1l-14,20.5L99.6,99.5z"/>
		<path class="st0" d="M87.1,92c13.7,0,24.8-4.3,24.8-9.6c0-5.3-11.1-9.6-24.8-9.6c-13.7,0-24.8,4.3-24.8,9.6
			C62.4,87.7,73.4,92,87.1,92z"/>
		<path class="st6" d="M202.1,81l-27.4,10.8l0-21.7L202.1,81z"/>
		<path class="st7" d="M174.7,91.8l-3,1.2l-27.4-10.8l30.3-12L174.7,91.8z"/>
	</g>
</g>
</svg>
