<?xml version="1.0" encoding="utf-8"?>
<!-- Generator: Adobe Illustrator 24.3.0, SVG Export Plug-In . SVG Version: 6.00 Build 0)  -->
<svg version="1.1" id="Layer_1" xmlns="http://www.w3.org/2000/svg" xmlns:xlink="http://www.w3.org/1999/xlink" x="0px" y="0px"
	 viewBox="0 0 256 300" style="enable-background:new 0 0 256 300;" xml:space="preserve">
<style type="text/css">
	.st0{fill:#FFFFFF;}
	.st1{fill:#242938;}
	.st2{fill:#231F20;}
	.st3{fill:#0075A8;}
</style>
<path class="st0" d="M27.5,162.6h201c15.2,0,27.5,12.3,27.5,27.5v82.4c0,15.2-12.3,27.5-27.5,27.5h-201C12.3,300,0,287.7,0,272.5
	v-82.4C0,174.9,12.3,162.6,27.5,162.6z"/>
<path class="st1" d="M60,0h136c33.1,0,60,26.9,60,60v136c0,33.1-26.9,60-60,60H60c-33.1,0-60-26.9-60-60V60C0,26.9,26.8,0,60,0z"/>
<g>
	<path class="st2" d="M65.4,269.3c1.6,1.4,2.5,3.4,2.5,6.2c0,3.5-1.3,5.9-4,7.2l4.1,8.6c0.1,0.1,0.1,0.3,0.1,0.4
		c0,0.2-0.1,0.4-0.2,0.6c-0.1,0.2-0.3,0.2-0.5,0.2h-4.5c-0.4,0-0.7-0.1-0.9-0.3c-0.2-0.2-0.4-0.4-0.5-0.7l-3.7-7.7h-3.1v7.7
		c0,0.3-0.1,0.5-0.3,0.7c-0.2,0.2-0.4,0.3-0.6,0.3h-4.4c-0.2,0-0.5-0.1-0.6-0.3c-0.2-0.2-0.3-0.4-0.3-0.7v-23.3
		c0-0.3,0.1-0.5,0.3-0.7c0.2-0.2,0.4-0.3,0.6-0.3h9C61.4,267.3,63.7,268,65.4,269.3z M58.5,278.2c2.2,0,3.2-0.9,3.2-2.7
		c0-1.8-1.1-2.7-3.2-2.7h-3.8v5.3H58.5z"/>
	<path class="st2" d="M92.7,291.1c0.1,0.2,0.1,0.4,0.1,0.5c0,0.2-0.1,0.4-0.2,0.6c-0.1,0.2-0.3,0.2-0.5,0.2h-4.2
		c-0.4,0-0.7-0.1-0.9-0.3c-0.2-0.2-0.3-0.4-0.4-0.6l-0.9-3h-8.9l-0.9,3c-0.1,0.2-0.2,0.5-0.4,0.6c-0.2,0.2-0.5,0.3-0.9,0.3h-4.2
		c-0.2,0-0.4-0.1-0.5-0.2c-0.1-0.2-0.2-0.3-0.2-0.6c0-0.1,0-0.3,0.1-0.5l7.3-22.7c0.1-0.3,0.3-0.6,0.5-0.8c0.2-0.2,0.6-0.3,1-0.3H84
		c0.4,0,0.7,0.1,1,0.3c0.2,0.2,0.4,0.5,0.5,0.8L92.7,291.1z M84,283l-2.7-8.6l-2.7,8.6H84z"/>
	<path class="st2" d="M109.8,292.2c-0.2-0.2-0.4-0.4-0.5-0.6l-7.6-12.3v12.2c0,0.3-0.1,0.5-0.3,0.7c-0.2,0.2-0.4,0.3-0.6,0.3h-4.4
		c-0.2,0-0.5-0.1-0.6-0.3c-0.2-0.2-0.3-0.4-0.3-0.7v-23.3c0-0.3,0.1-0.5,0.3-0.7c0.2-0.2,0.4-0.3,0.6-0.3h3.5c0.3,0,0.6,0.1,0.9,0.3
		c0.2,0.2,0.4,0.4,0.5,0.6l7.6,12.3v-12.2c0-0.3,0.1-0.5,0.3-0.7c0.2-0.2,0.4-0.3,0.6-0.3h4.4c0.2,0,0.5,0.1,0.6,0.3
		c0.2,0.2,0.3,0.4,0.3,0.7v23.3c0,0.3-0.1,0.5-0.3,0.7c-0.2,0.2-0.4,0.3-0.6,0.3h-3.5C110.4,292.5,110.1,292.4,109.8,292.2z"/>
	<path class="st2" d="M126.2,285.9c0.7,0.8,1.7,1.2,3.1,1.2c1.3,0,2.3-0.3,2.9-0.8c0.6-0.6,1-1.2,1.3-2c0.1-0.4,0.3-0.7,0.4-0.8
		c0.1-0.1,0.4-0.2,0.7-0.2h4.4c0.2,0,0.4,0.1,0.5,0.2c0.1,0.2,0.2,0.3,0.2,0.6c0,1.6-0.5,3.1-1.4,4.4c-0.9,1.4-2.2,2.4-3.7,3.2
		c-1.6,0.8-3.3,1.2-5.2,1.2c-2.1,0-3.9-0.4-5.4-1.3c-1.5-0.9-2.7-2.1-3.6-3.5c-0.8-1.5-1.3-3.1-1.4-4.9c0-1.2-0.1-2.1-0.1-2.8
		c0-0.9,0-2.1,0.1-3.6c0.1-1.8,0.5-3.4,1.4-4.9c0.8-1.5,2-2.7,3.6-3.5c1.5-0.9,3.3-1.3,5.4-1.3c1.9,0,3.6,0.4,5.2,1.2
		c1.6,0.8,2.8,1.9,3.7,3.2c0.9,1.4,1.4,2.8,1.4,4.4c0,0.2-0.1,0.4-0.2,0.6c-0.1,0.2-0.3,0.2-0.5,0.2h-4.4c-0.4,0-0.6-0.1-0.7-0.2
		c-0.1-0.1-0.3-0.4-0.4-0.8c-0.2-0.8-0.7-1.5-1.3-2s-1.6-0.8-2.9-0.8c-1.4,0-2.4,0.4-3.1,1.2c-0.7,0.8-1,1.8-1.1,3
		c0,0.8-0.1,1.8-0.1,3c0,1.2,0,2.2,0.1,3C125.2,284.1,125.5,285.2,126.2,285.9z"/>
	<path class="st2" d="M162.5,267.6c0.2,0.2,0.3,0.4,0.3,0.7v23.3c0,0.3-0.1,0.5-0.3,0.7c-0.2,0.2-0.4,0.3-0.6,0.3h-4.4
		c-0.2,0-0.5-0.1-0.6-0.3c-0.2-0.2-0.3-0.4-0.3-0.7v-8.8h-7.4v8.8c0,0.3-0.1,0.5-0.3,0.7c-0.2,0.2-0.4,0.3-0.6,0.3H144
		c-0.2,0-0.5-0.1-0.6-0.3c-0.2-0.2-0.3-0.4-0.3-0.7v-23.3c0-0.3,0.1-0.5,0.3-0.7c0.2-0.2,0.4-0.3,0.6-0.3h4.4c0.2,0,0.5,0.1,0.6,0.3
		c0.2,0.2,0.3,0.4,0.3,0.7v8.7h7.4v-8.7c0-0.3,0.1-0.5,0.3-0.7c0.2-0.2,0.4-0.3,0.6-0.3h4.4C162.1,267.3,162.3,267.4,162.5,267.6z"
		/>
	<path class="st2" d="M173.6,286.7h10.5c0.2,0,0.5,0.1,0.6,0.3s0.3,0.4,0.3,0.7v3.8c0,0.3-0.1,0.5-0.3,0.7c-0.2,0.2-0.4,0.3-0.6,0.3
		h-15.8c-0.2,0-0.5-0.1-0.6-0.3c-0.2-0.2-0.3-0.4-0.3-0.7v-23.3c0-0.3,0.1-0.5,0.3-0.7c0.2-0.2,0.4-0.3,0.6-0.3h15.5
		c0.2,0,0.5,0.1,0.6,0.3c0.2,0.2,0.3,0.4,0.3,0.7v3.8c0,0.3-0.1,0.5-0.3,0.7c-0.2,0.2-0.4,0.3-0.6,0.3h-10.2v3.9h9.5
		c0.2,0,0.5,0.1,0.6,0.3s0.3,0.4,0.3,0.7v3.8c0,0.3-0.1,0.5-0.3,0.7c-0.2,0.2-0.4,0.3-0.6,0.3h-9.5V286.7z"/>
	<path class="st2" d="M205.7,269.3c1.6,1.4,2.5,3.4,2.5,6.2c0,3.5-1.3,5.9-4,7.2l4.1,8.6c0.1,0.1,0.1,0.3,0.1,0.4
		c0,0.2-0.1,0.4-0.2,0.6c-0.1,0.2-0.3,0.2-0.5,0.2h-4.5c-0.4,0-0.7-0.1-0.9-0.3c-0.2-0.2-0.4-0.4-0.5-0.7l-3.7-7.7H195v7.7
		c0,0.3-0.1,0.5-0.3,0.7c-0.2,0.2-0.4,0.3-0.6,0.3h-4.4c-0.2,0-0.5-0.1-0.6-0.3c-0.2-0.2-0.3-0.4-0.3-0.7v-23.3
		c0-0.3,0.1-0.5,0.3-0.7c0.2-0.2,0.4-0.3,0.6-0.3h9C201.7,267.3,204,268,205.7,269.3z M198.7,278.2c2.2,0,3.2-0.9,3.2-2.7
		c0-1.8-1.1-2.7-3.2-2.7H195v5.3H198.7z"/>
</g>
<g>
	<path class="st3" d="M235.5,99.6l-2.4-14c-0.8-4.5-2.5-8.2-3.9-8.2s-2.6,3.8-2.6,8.3v3.7c0,4.5-3.8,8.3-8.3,8.3h-3.7
		c-0.2,0-0.5,0-0.8,0v10.1c0.2,0,0.5,0,0.8,0h13.8C233.1,107.8,236.2,104.1,235.5,99.6z"/>
	<path class="st3" d="M202.4,87.8h-22.4c-0.2,0-0.3,0-0.5,0h-22.9c-0.3,0-0.5,0-0.8,0.1v-2.2c0-4.5-1.2-8.3-2.6-8.3
		c-1.4,0-3.1,3.7-3.9,8.2l-2.4,14c-0.8,4.5,2.4,8.2,6.9,8.2h13.8c1.4,0,2.8-0.2,3.9-0.6c-0.4,2.4-2.5,4.1-4.9,4.1h-19.4
		c-3.1,0-5.5-2.8-4.9-5.9l1.9-11.7c0.5-3.1-1.8-5.9-4.9-5.9H43.4c-2,0-3.8,1.2-4.6,3l-18.1,27.6c-0.3,0.4-0.3,1.1,0.1,1.5l3.5,4.2
		c0.4,0.5,1.2,0.6,1.7,0.2l12.3-9.7v58.9c0,2.8,2.3,5.1,5.1,5.1h27.3c2.8,0,5.1-2.3,5.1-5.1v-20.4c0-2.8,2.3-5.1,5.1-5.1h68.1
		c2.8,0,5.1,2.3,5.1,5.1v20.4c0,2.8,2.3,5.1,5.1,5.1h27.3c2.8,0,5.1-2.3,5.1-5.1v-22.3h-14.5c-4.5,0-8.3-3.8-8.3-8.3v-14.1
		c0-2.7,1.3-5.1,3.3-6.6v16.9c0,4.5,3.8,8.3,8.3,8.3h22.3c4.5,0,8.3-3.8,8.3-8.3v-43C210.7,91.5,207,87.8,202.4,87.8z"/>
</g>
</svg>
