<?xml version="1.0" encoding="utf-8"?>
<!-- Generator: Adobe Illustrator 24.3.0, SVG Export Plug-In . SVG Version: 6.00 Build 0)  -->
<svg version="1.1" id="Layer_1" xmlns="http://www.w3.org/2000/svg" xmlns:xlink="http://www.w3.org/1999/xlink" x="0px" y="0px"
	 viewBox="0 0 256 300" style="enable-background:new 0 0 256 300;" xml:space="preserve">
<style type="text/css">
	.st0{fill:#FFFFFF;}
	.st1{fill:#0D1117;}
</style>
<path class="st0" d="M27.5,162.6h201c15.2,0,27.5,12.3,27.5,27.5v82.4c0,15.2-12.3,27.5-27.5,27.5h-201C12.3,300,0,287.7,0,272.5
	v-82.4C0,174.9,12.3,162.6,27.5,162.6z"/>
<path class="st1" d="M60,0h136c33.1,0,60,26.9,60,60v136c0,33.1-26.9,60-60,60H60c-33.1,0-60-26.9-60-60V60C0,26.9,26.8,0,60,0z"/>
<g>
	<path class="st0" d="M40.6,112.3c-0.4,2.9-0.7,5.9-0.8,8.9h134.1c-0.5-0.9-1.1-1.7-1.7-2.5c-22.9-29.6-35.2-27-52.9-27.8
		c-5.9-0.2-9.9-0.3-33.3-0.3c-12.5,0-26.1,0-39.4,0.1c-1.7,4.6-3.4,9.1-4.2,12.8H111v8.9H40.6V112.3z M174.9,130.1h-135
		c0.1,2.4,0.4,4.7,0.7,7.1h124.7C170.7,137.2,173.9,134,174.9,130.1L174.9,130.1z M47.5,161.6c0,0,20.7,50.8,80.4,51.7
		c35.7,0,66.4-21.2,80.3-51.7H47.5z"/>
	<path class="st0" d="M127.9,36.8c-33,0-61.7,18.1-76.9,44.9c11.9,0,34.9,0,34.9,0l0,0l0,0c27.3,0,28.3,0.1,33.6,0.3l3.3,0.1
		c11.5,0.4,25.6,1.6,36.7,10c6,4.6,14.7,14.6,19.9,21.8c4.8,6.6,6.2,14.3,2.9,21.6c-3,6.7-9.5,10.7-17.3,10.7H42.6
		c0,0,0.7,3.1,1.8,6.5h167.3c3-8.9,4.5-18.3,4.5-27.7C216.2,76.3,176.7,36.8,127.9,36.8z"/>
</g>
<g>
	<path class="st1" d="M70.9,269.5c1.6,1.4,2.3,3.5,2.3,6.3c0,3.5-1.3,6-3.8,7.3l3.9,8.7c0.1,0.1,0.1,0.3,0.1,0.4
		c0,0.2-0.1,0.4-0.2,0.6s-0.3,0.2-0.5,0.2h-4.3c-0.4,0-0.7-0.1-0.9-0.3c-0.2-0.2-0.3-0.4-0.5-0.7l-3.5-7.8h-2.9v7.8
		c0,0.3-0.1,0.5-0.3,0.7s-0.4,0.3-0.6,0.3h-4.1c-0.2,0-0.4-0.1-0.6-0.3s-0.3-0.4-0.3-0.7v-23.6c0-0.3,0.1-0.5,0.3-0.7
		s0.4-0.3,0.6-0.3h8.6C67.1,267.4,69.3,268.1,70.9,269.5z M64.3,278.5c2,0,3.1-0.9,3.1-2.7c0-1.8-1-2.7-3.1-2.7h-3.6v5.4L64.3,278.5
		L64.3,278.5z"/>
	<path class="st1" d="M98.6,291.6c0.1,0.2,0.1,0.4,0.1,0.5c0,0.2-0.1,0.4-0.2,0.6s-0.3,0.2-0.5,0.2h-4c-0.4,0-0.6-0.1-0.8-0.3
		c-0.2-0.2-0.3-0.4-0.4-0.6l-0.9-3h-8.4l-0.9,3c-0.1,0.2-0.2,0.5-0.4,0.6c-0.2,0.2-0.5,0.3-0.8,0.3h-4c-0.2,0-0.4-0.1-0.5-0.2
		c-0.1-0.2-0.2-0.3-0.2-0.6c0-0.1,0-0.3,0.1-0.5l6.9-23c0.1-0.3,0.3-0.6,0.5-0.9c0.2-0.2,0.5-0.3,0.9-0.3h5.1c0.4,0,0.7,0.1,0.9,0.3
		c0.2,0.2,0.4,0.5,0.5,0.9L98.6,291.6z M90.3,283.4l-2.6-8.8l-2.6,8.8H90.3z"/>
	<path class="st1" d="M103.2,292.7c-0.2-0.2-0.3-0.4-0.3-0.7v-23.6c0-0.3,0.1-0.5,0.3-0.7c0.2-0.2,0.4-0.3,0.6-0.3h4.1
		c0.2,0,0.4,0.1,0.6,0.3c0.2,0.2,0.3,0.4,0.3,0.7V292c0,0.3-0.1,0.5-0.3,0.7c-0.2,0.2-0.4,0.3-0.6,0.3h-4.1
		C103.6,293,103.4,292.9,103.2,292.7z"/>
	<path class="st1" d="M129.5,287.5c0.2,0.2,0.3,0.4,0.3,0.7v3.9c0,0.3-0.1,0.5-0.3,0.7s-0.4,0.3-0.6,0.3h-14.7
		c-0.2,0-0.4-0.1-0.6-0.3s-0.3-0.4-0.3-0.7v-23.6c0-0.3,0.1-0.5,0.3-0.7c0.2-0.2,0.4-0.3,0.6-0.3h4.1c0.2,0,0.4,0.1,0.6,0.3
		c0.2,0.2,0.3,0.4,0.3,0.7v18.7h9.7C129.1,287.2,129.3,287.3,129.5,287.5z"/>
	<path class="st1" d="M150.2,268.4c0.1-0.3,0.2-0.6,0.4-0.7c0.2-0.2,0.4-0.2,0.6-0.2h4.1c0.2,0,0.4,0.1,0.5,0.2
		c0.1,0.2,0.2,0.3,0.2,0.6v0.3l-4.1,23.1c0,0.3-0.2,0.7-0.5,0.9c-0.3,0.3-0.7,0.4-1.1,0.4h-2.6c-0.4,0-0.7-0.1-1-0.4s-0.5-0.6-0.6-1
		l-2.4-8.3l-2.4,8.3c-0.1,0.4-0.3,0.7-0.6,1s-0.6,0.4-1,0.4h-2.6c-0.4,0-0.8-0.1-1.1-0.4s-0.5-0.6-0.5-0.9l-4.1-23.1v-0.3
		c0-0.2,0.1-0.4,0.2-0.6c0.1-0.2,0.3-0.2,0.5-0.2h4.1c0.2,0,0.4,0.1,0.6,0.2c0.2,0.2,0.3,0.4,0.4,0.7l2,12.3l1.9-6.6
		c0.2-0.7,0.6-1.1,1.1-1.1h3c0.5,0,0.9,0.4,1.1,1.1l1.9,6.6L150.2,268.4z"/>
	<path class="st1" d="M178.5,291.6c0.1,0.2,0.1,0.4,0.1,0.5c0,0.2-0.1,0.4-0.2,0.6c-0.1,0.2-0.3,0.2-0.5,0.2h-4
		c-0.4,0-0.6-0.1-0.8-0.3c-0.2-0.2-0.3-0.4-0.4-0.6l-0.9-3h-8.4l-0.9,3c-0.1,0.2-0.2,0.5-0.4,0.6c-0.2,0.2-0.5,0.3-0.8,0.3h-4
		c-0.2,0-0.4-0.1-0.5-0.2c-0.1-0.2-0.2-0.3-0.2-0.6c0-0.1,0-0.3,0.1-0.5l6.9-23c0.1-0.3,0.3-0.6,0.5-0.9c0.2-0.2,0.5-0.3,0.9-0.3
		h5.1c0.4,0,0.7,0.1,0.9,0.3c0.2,0.2,0.4,0.5,0.5,0.9L178.5,291.6z M170.2,283.4l-2.6-8.8l-2.6,8.8H170.2z"/>
	<path class="st1" d="M193.3,292.7c-0.2,0.2-0.4,0.3-0.6,0.3h-4.1c-0.2,0-0.4-0.1-0.6-0.3c-0.2-0.2-0.3-0.4-0.3-0.7v-7.8l-7.3-15.5
		c-0.1-0.2-0.1-0.3-0.1-0.5s0.1-0.4,0.2-0.6c0.1-0.2,0.3-0.2,0.5-0.2h4.3c0.4,0,0.6,0.1,0.9,0.3c0.2,0.2,0.4,0.4,0.5,0.6l4,9l4-9
		c0.1-0.2,0.2-0.4,0.5-0.6c0.2-0.2,0.5-0.3,0.9-0.3h4.3c0.2,0,0.4,0.1,0.5,0.2c0.1,0.2,0.2,0.3,0.2,0.6c0,0.1,0,0.3-0.1,0.5
		l-7.3,15.5v7.8C193.6,292.3,193.5,292.5,193.3,292.7z"/>
</g>
</svg>
