<?xml version="1.0" encoding="utf-8"?>
<!-- Generator: Adobe Illustrator 24.3.0, SVG Export Plug-In . SVG Version: 6.00 Build 0)  -->
<svg version="1.1" id="Layer_1" xmlns="http://www.w3.org/2000/svg" xmlns:xlink="http://www.w3.org/1999/xlink" x="0px" y="0px"
	 viewBox="0 0 256 300" style="enable-background:new 0 0 256 300;" xml:space="preserve">
<style type="text/css">
	.st0{display:none;fill:#0D1117;}
	.st1{fill:#FFFFFF;}
	.st2{fill:#0D1117;}
	.st3{fill:#330000;}
	.st4{fill:#FF9A00;}
	.st5{fill:#242938;}
	.st6{fill-rule:evenodd;clip-rule:evenodd;fill:#242938;}
	.st7{fill-rule:evenodd;clip-rule:evenodd;fill:#FFFFFF;}
	.st8{fill-rule:evenodd;clip-rule:evenodd;fill:#47B353;}
	.st9{fill:#ECEFF1;}
	.st10{fill:#263238;}
	.st11{fill:#212121;}
	.st12{fill:#FFC107;}
	.st13{fill:#634703;}
	.st14{fill:#455A64;}
	.st15{fill:#F03C2E;}
	.st16{clip-path:url(#SVGID_2_);}
	.st17{fill:#0277BD;}
	.st18{fill:#EBEBEB;}
	.st19{fill:#E14E1D;}
	.st20{clip-path:url(#SVGID_4_);}
	.st21{fill:#0ACF83;}
	.st22{fill:#A259FF;}
	.st23{fill:#F24E1E;}
	.st24{fill:#FF7262;}
	.st25{fill:#1ABCFE;}
	.st26{fill:#F0DB4F;}
	.st27{fill:#323330;}
	.st28{fill:#00D8FF;}
	.st29{fill:none;stroke:#00D8FF;stroke-width:8.911;}
	.st30{fill:#764ABC;}
	.st31{fill:#81CD39;}
	.st32{fill:#99424F;}
	.st33{fill:url(#SVGID_5_);}
	.st34{fill:url(#SVGID_6_);}
	.st35{fill:none;stroke:#FFFFFF;stroke-width:2;}
	.st36{fill:#2489CA;}
	.st37{fill:#1070B3;}
	.st38{fill:#0877B9;}
	.st39{fill:#3C99D4;}
	.st40{clip-path:url(#SVGID_8_);}
	.st41{fill:#023430;}
	.st42{fill:#10AA50;}
	.st43{fill:#B8C4C2;}
	.st44{fill:#12924F;}
	.st45{fill:#F58219;}
	.st46{fill:#2396ED;}
	.st47{fill:#007ACC;}
	.st48{fill:url(#SVGID_9_);}
	.st49{fill:url(#SVGID_10_);}
	.st50{fill:#001E36;}
	.st51{fill:#31A8FF;}
	.st52{fill:#E43717;}
	.st53{clip-path:url(#SVGID_12_);}
	.st54{fill-rule:evenodd;clip-rule:evenodd;fill:url(#SVGID_13_);}
	.st55{fill-rule:evenodd;clip-rule:evenodd;fill:url(#SVGID_14_);}
	.st56{fill-rule:evenodd;clip-rule:evenodd;fill:url(#SVGID_15_);}
	.st57{fill-rule:evenodd;clip-rule:evenodd;fill:url(#SVGID_16_);}
	.st58{fill-rule:evenodd;clip-rule:evenodd;fill:url(#SVGID_17_);}
	.st59{fill-rule:evenodd;clip-rule:evenodd;fill:url(#SVGID_18_);}
	.st60{fill-rule:evenodd;clip-rule:evenodd;fill:url(#SVGID_19_);}
	.st61{fill-rule:evenodd;clip-rule:evenodd;fill:url(#SVGID_20_);}
	.st62{fill-rule:evenodd;clip-rule:evenodd;fill:url(#SVGID_21_);}
	.st63{fill-rule:evenodd;clip-rule:evenodd;fill:url(#SVGID_22_);}
	.st64{fill-rule:evenodd;clip-rule:evenodd;fill:url(#SVGID_23_);}
	.st65{fill-rule:evenodd;clip-rule:evenodd;fill:url(#SVGID_24_);}
	.st66{fill-rule:evenodd;clip-rule:evenodd;fill:#9E1209;}
	.st67{fill-rule:evenodd;clip-rule:evenodd;fill:url(#SVGID_25_);}
	.st68{fill-rule:evenodd;clip-rule:evenodd;fill:url(#SVGID_26_);}
	.st69{fill-rule:evenodd;clip-rule:evenodd;fill:url(#SVGID_27_);}
	.st70{fill-rule:evenodd;clip-rule:evenodd;fill:url(#SVGID_28_);}
	.st71{fill:#092E20;}
	.st72{fill-rule:evenodd;clip-rule:evenodd;fill:#FF9900;}
	.st73{fill:#E23237;}
	.st74{fill:#B52E31;}
	.st75{fill:#2F406A;}
	.st76{fill:#2379BD;}
	.st77{fill:#03AFEF;}
	.st78{fill:#953CAD;}
</style>
<g>
	<rect y="162.7" class="st1" width="256" height="137.4"/>
	<g>
		<path class="st2" d="M85.5,269.5c1.5,1.4,2.3,3.4,2.3,6.1c0,3.5-1.2,5.8-3.7,7.2l3.8,8.5c0.1,0.1,0.1,0.3,0.1,0.4
			c0,0.2-0.1,0.4-0.2,0.6s-0.3,0.2-0.5,0.2h-4.2c-0.4,0-0.7-0.1-0.8-0.3c-0.2-0.2-0.3-0.4-0.5-0.7l-3.4-7.7h-2.9v7.7
			c0,0.3-0.1,0.5-0.2,0.7c-0.2,0.2-0.4,0.3-0.6,0.3h-4.1c-0.2,0-0.4-0.1-0.6-0.3s-0.2-0.4-0.2-0.7v-23.1c0-0.3,0.1-0.5,0.2-0.7
			c0.2-0.2,0.4-0.3,0.6-0.3H79C81.8,267.5,83.9,268,85.5,269.5z M79,278.2c2,0,3-0.9,3-2.6s-1-2.6-3-2.6h-3.5v5.3L79,278.2L79,278.2
			z"/>
		<path class="st2" d="M99.5,286.8h9.8c0.2,0,0.4,0.1,0.6,0.3c0.2,0.2,0.2,0.4,0.2,0.7v3.8c0,0.3-0.1,0.5-0.2,0.7
			c-0.2,0.2-0.4,0.3-0.6,0.3H94.6c-0.2,0-0.4-0.1-0.6-0.3s-0.2-0.4-0.2-0.7v-23.1c0-0.3,0.1-0.5,0.2-0.7c0.2-0.2,0.4-0.3,0.6-0.3
			h14.5c0.2,0,0.4,0.1,0.6,0.3s0.2,0.4,0.2,0.7v3.8c0,0.3-0.1,0.5-0.2,0.7c-0.2,0.2-0.4,0.3-0.6,0.3h-9.6v3.9h8.9
			c0.2,0,0.4,0.1,0.6,0.3c0.2,0.2,0.2,0.4,0.2,0.7v3.8c0,0.3-0.1,0.5-0.2,0.7c-0.2,0.2-0.4,0.3-0.6,0.3h-8.9L99.5,286.8L99.5,286.8z
			"/>
		<path class="st2" d="M135,280c0,0.4,0,1.2-0.1,2.5c-0.1,2-0.5,3.7-1.3,5.2s-1.9,2.7-3.4,3.5c-1.4,0.8-3.1,1.3-5,1.3h-8.4
			c-0.2,0-0.4-0.1-0.6-0.3c-0.2-0.2-0.2-0.4-0.2-0.7v-23.1c0-0.3,0.1-0.5,0.2-0.7c0.2-0.2,0.4-0.3,0.6-0.3h8.2c1.9,0,3.6,0.4,5,1.3
			c1.5,0.8,2.6,2,3.4,3.5s1.3,3.2,1.3,5.2C135,278.8,135,279.5,135,280z M121.8,273.2v13.6h3.3c2.6,0,4-1.4,4.1-4.1
			c0-1.4,0.1-2.3,0.1-2.7c0-0.5,0-1.4-0.1-2.6c-0.1-1.4-0.5-2.4-1.2-3.1s-1.7-1-3.1-1L121.8,273.2L121.8,273.2z"/>
		<path class="st2" d="M159.3,267.7c0.2,0.2,0.2,0.4,0.2,0.7v14.3c0,2.1-0.4,4-1.2,5.5c-0.8,1.5-1.9,2.7-3.3,3.5s-3.1,1.2-5,1.2
			s-3.6-0.4-5-1.2s-2.5-1.9-3.3-3.5c-0.8-1.5-1.2-3.4-1.2-5.5v-14.3c0-0.3,0.1-0.5,0.2-0.7c0.2-0.2,0.4-0.3,0.6-0.3h4.1
			c0.2,0,0.4,0.1,0.6,0.3s0.2,0.4,0.2,0.7v14.1c0,1.5,0.3,2.6,0.9,3.4s1.5,1.2,2.7,1.2s2.1-0.4,2.7-1.2c0.6-0.8,0.9-1.9,0.9-3.4
			v-14.1c0-0.3,0.1-0.5,0.2-0.7c0.2-0.2,0.4-0.3,0.6-0.3h4.1C158.9,267.5,159.1,267.5,159.3,267.7z"/>
		<path class="st2" d="M170.9,291.7c-0.2,0.3-0.3,0.5-0.5,0.6c-0.2,0.1-0.4,0.2-0.8,0.2h-4.7c-0.2,0-0.3-0.1-0.5-0.2
			c-0.2-0.1-0.2-0.3-0.2-0.6c0-0.1,0-0.3,0.1-0.4l7.2-11.6l-6.9-11.1c-0.1-0.1-0.1-0.3-0.1-0.4c0-0.2,0.1-0.4,0.2-0.6
			s0.3-0.2,0.5-0.2h4.7c0.4,0,0.6,0.1,0.8,0.3c0.2,0.2,0.3,0.4,0.5,0.6l3.8,6l3.6-6c0.2-0.3,0.3-0.5,0.5-0.6
			c0.2-0.2,0.4-0.3,0.8-0.3h4.7c0.2,0,0.3,0.1,0.5,0.2c0.1,0.2,0.2,0.3,0.2,0.6c0,0.1,0,0.3-0.1,0.4l-6.9,11.3l7.1,11.4
			c0.1,0.1,0.1,0.2,0.1,0.4c0,0.2-0.1,0.4-0.2,0.6s-0.3,0.2-0.5,0.2h-4.7c-0.4,0-0.6-0.1-0.8-0.2c-0.2-0.1-0.3-0.3-0.5-0.6l-4-6.4
			L170.9,291.7z"/>
	</g>
	<path class="st30" d="M60-0.1h136c33.1,0,60,26.9,60,60v136c0,33.1-26.9,60-60,60H60c-33.1,0-60-26.9-60-60v-136
		C0,26.9,26.8-0.1,60-0.1z"/>
	<path class="st1" d="M166.6,165.6c7.4-0.8,13-7.1,12.7-14.8c-0.3-7.6-6.6-13.7-14.3-13.7h-0.5c-7.9,0.3-14,6.9-13.7,14.8
		c0.3,3.8,1.8,7.1,4.1,9.4c-8.7,17.1-21.9,29.5-41.7,40c-13.5,7.1-27.5,9.7-41.5,7.9c-11.5-1.5-20.4-6.6-26-15
		c-8.1-12.5-8.9-26-2-39.4c4.8-9.7,12.5-16.8,17.3-20.4c-1-3.3-2.5-8.9-3.3-13c-36.9,26.7-33.1,62.9-21.9,79.9
		c8.4,12.7,25.5,20.6,44.3,20.6c5.1,0,10.2-0.5,15.3-1.8C127.9,213.7,152.6,194.4,166.6,165.6L166.6,165.6z"/>
	<path class="st1" d="M211.3,133.9c-19.3-22.7-47.8-35.1-80.4-35.1h-4.1c-2.3-4.6-7.1-7.6-12.5-7.6h-0.5c-7.9,0.3-14,6.9-13.7,14.8
		c0.3,7.6,6.6,13.7,14.3,13.7h0.5c5.6-0.3,10.4-3.8,12.5-8.7h4.6c19.3,0,37.7,5.6,54.2,16.5c12.7,8.4,21.9,19.3,27,32.6
		c4.3,10.7,4.1,21.1-0.5,30c-7.1,13.5-19.1,20.9-34.9,20.9c-10.2,0-19.9-3.1-24.9-5.3c-2.8,2.5-7.9,6.6-11.5,9.2
		c10.9,5.1,22.1,7.9,32.8,7.9c24.4,0,42.5-13.5,49.4-27C230.9,181.1,230.4,155.7,211.3,133.9z"/>
	<path class="st1" d="M82.1,169.9c0.3,7.6,6.6,13.7,14.3,13.7h0.5c7.9-0.3,14-6.9,13.7-14.8c-0.3-7.6-6.6-13.7-14.3-13.7h-0.5
		c-0.5,0-1.3,0-1.8,0.3c-10.4-17.3-14.8-36.1-13.2-56.5c1-15.3,6.1-28.5,15-39.4c7.4-9.4,21.6-14,31.3-14.3
		c27-0.5,38.4,33.1,39.2,46.6c3.3,0.8,8.9,2.5,12.7,3.8c-3.1-41.2-28.5-62.6-52.9-62.6c-22.9,0-44,16.5-52.4,41
		c-11.7,32.6-4.1,63.9,10.2,88.6C82.6,164.3,81.8,167.1,82.1,169.9L82.1,169.9z"/>
</g>
</svg>
