<?xml version="1.0" encoding="utf-8"?>
<!-- Generator: Adobe Illustrator 24.3.0, SVG Export Plug-In . SVG Version: 6.00 Build 0)  -->
<svg version="1.1" id="Layer_1" xmlns="http://www.w3.org/2000/svg" xmlns:xlink="http://www.w3.org/1999/xlink" x="0px" y="0px"
	 viewBox="0 0 256 300" style="enable-background:new 0 0 256 300;" xml:space="preserve">
<style type="text/css">
	.st0{fill:#FFFFFF;}
	.st1{fill:#0D1117;}
	.st2{fill:#764ABC;}
</style>
<path class="st0" d="M27.5,162.6h201c15.2,0,27.5,12.3,27.5,27.5v82.4c0,15.2-12.3,27.5-27.5,27.5h-201C12.3,300,0,287.7,0,272.5
	v-82.4C0,174.9,12.3,162.6,27.5,162.6z"/>
<path class="st1" d="M85.5,269.5c1.5,1.4,2.3,3.4,2.3,6.1c0,3.5-1.2,5.8-3.7,7.2l3.8,8.5c0.1,0.1,0.1,0.3,0.1,0.4
	c0,0.2-0.1,0.4-0.2,0.6s-0.3,0.2-0.5,0.2h-4.2c-0.4,0-0.7-0.1-0.8-0.3c-0.2-0.2-0.3-0.4-0.5-0.7l-3.4-7.7h-2.9v7.7
	c0,0.3-0.1,0.5-0.2,0.7c-0.2,0.2-0.4,0.3-0.6,0.3h-4.1c-0.2,0-0.4-0.1-0.6-0.3s-0.2-0.4-0.2-0.7v-23.1c0-0.3,0.1-0.5,0.2-0.7
	c0.2-0.2,0.4-0.3,0.6-0.3H79C81.8,267.5,83.9,268,85.5,269.5z M79,278.2c2,0,3-0.9,3-2.6s-1-2.6-3-2.6h-3.5v5.3L79,278.2L79,278.2z"
	/>
<path class="st1" d="M99.5,286.8h9.8c0.2,0,0.4,0.1,0.6,0.3c0.2,0.2,0.2,0.4,0.2,0.7v3.8c0,0.3-0.1,0.5-0.2,0.7
	c-0.2,0.2-0.4,0.3-0.6,0.3H94.6c-0.2,0-0.4-0.1-0.6-0.3s-0.2-0.4-0.2-0.7v-23.1c0-0.3,0.1-0.5,0.2-0.7c0.2-0.2,0.4-0.3,0.6-0.3h14.5
	c0.2,0,0.4,0.1,0.6,0.3s0.2,0.4,0.2,0.7v3.8c0,0.3-0.1,0.5-0.2,0.7c-0.2,0.2-0.4,0.3-0.6,0.3h-9.6v3.9h8.9c0.2,0,0.4,0.1,0.6,0.3
	c0.2,0.2,0.2,0.4,0.2,0.7v3.8c0,0.3-0.1,0.5-0.2,0.7c-0.2,0.2-0.4,0.3-0.6,0.3h-8.9V286.8L99.5,286.8z"/>
<path class="st1" d="M135,280c0,0.4,0,1.2-0.1,2.5c-0.1,2-0.5,3.7-1.3,5.2s-1.9,2.7-3.4,3.5c-1.4,0.8-3.1,1.3-5,1.3h-8.4
	c-0.2,0-0.4-0.1-0.6-0.3c-0.2-0.2-0.2-0.4-0.2-0.7v-23.1c0-0.3,0.1-0.5,0.2-0.7c0.2-0.2,0.4-0.3,0.6-0.3h8.2c1.9,0,3.6,0.4,5,1.3
	c1.5,0.8,2.6,2,3.4,3.5s1.3,3.2,1.3,5.2C135,278.8,135,279.5,135,280z M121.8,273.2v13.6h3.3c2.6,0,4-1.4,4.1-4.1
	c0-1.4,0.1-2.3,0.1-2.7c0-0.5,0-1.4-0.1-2.6c-0.1-1.4-0.5-2.4-1.2-3.1s-1.7-1-3.1-1L121.8,273.2L121.8,273.2z"/>
<path class="st1" d="M159.3,267.7c0.2,0.2,0.2,0.4,0.2,0.7v14.3c0,2.1-0.4,4-1.2,5.5s-1.9,2.7-3.3,3.5s-3.1,1.2-5,1.2
	s-3.6-0.4-5-1.2s-2.5-1.9-3.3-3.5c-0.8-1.5-1.2-3.4-1.2-5.5v-14.3c0-0.3,0.1-0.5,0.2-0.7c0.2-0.2,0.4-0.3,0.6-0.3h4.1
	c0.2,0,0.4,0.1,0.6,0.3s0.2,0.4,0.2,0.7v14.1c0,1.5,0.3,2.6,0.9,3.4s1.5,1.2,2.7,1.2s2.1-0.4,2.7-1.2c0.6-0.8,0.9-1.9,0.9-3.4v-14.1
	c0-0.3,0.1-0.5,0.2-0.7c0.2-0.2,0.4-0.3,0.6-0.3h4.1C158.9,267.5,159.1,267.5,159.3,267.7z"/>
<path class="st1" d="M170.9,291.7c-0.2,0.3-0.3,0.5-0.5,0.6s-0.4,0.2-0.8,0.2h-4.7c-0.2,0-0.3-0.1-0.5-0.2s-0.2-0.3-0.2-0.6
	c0-0.1,0-0.3,0.1-0.4l7.2-11.6l-6.9-11.1c-0.1-0.1-0.1-0.3-0.1-0.4c0-0.2,0.1-0.4,0.2-0.6s0.3-0.2,0.5-0.2h4.7
	c0.4,0,0.6,0.1,0.8,0.3c0.2,0.2,0.3,0.4,0.5,0.6l3.8,6l3.6-6c0.2-0.3,0.3-0.5,0.5-0.6c0.2-0.2,0.4-0.3,0.8-0.3h4.7
	c0.2,0,0.3,0.1,0.5,0.2c0.1,0.2,0.2,0.3,0.2,0.6c0,0.1,0,0.3-0.1,0.4l-6.9,11.3l7.1,11.4c0.1,0.1,0.1,0.2,0.1,0.4
	c0,0.2-0.1,0.4-0.2,0.6s-0.3,0.2-0.5,0.2h-4.7c-0.4,0-0.6-0.1-0.8-0.2s-0.3-0.3-0.5-0.6l-4-6.4L170.9,291.7z"/>
<path class="st2" d="M60-0.1h136c33.1,0,60,26.9,60,60v136c0,33.1-26.9,60-60,60H60c-33.1,0-60-26.9-60-60v-136
	C0,26.9,26.8-0.1,60-0.1z"/>
<path class="st0" d="M166.6,165.6c7.4-0.8,13-7.1,12.7-14.8c-0.3-7.6-6.6-13.7-14.3-13.7h-0.5c-7.9,0.3-14,6.9-13.7,14.8
	c0.3,3.8,1.8,7.1,4.1,9.4c-8.7,17.1-21.9,29.5-41.7,40c-13.5,7.1-27.5,9.7-41.5,7.9c-11.5-1.5-20.4-6.6-26-15
	c-8.1-12.5-8.9-26-2-39.4c4.8-9.7,12.5-16.8,17.3-20.4c-1-3.3-2.5-8.9-3.3-13c-36.9,26.7-33.1,62.9-21.9,79.9
	c8.4,12.7,25.5,20.6,44.3,20.6c5.1,0,10.2-0.5,15.3-1.8C127.9,213.7,152.6,194.4,166.6,165.6L166.6,165.6z"/>
<path class="st0" d="M211.3,133.9c-19.3-22.7-47.8-35.1-80.4-35.1h-4.1c-2.3-4.6-7.1-7.6-12.5-7.6h-0.5c-7.9,0.3-14,6.9-13.7,14.8
	c0.3,7.6,6.6,13.7,14.3,13.7h0.5c5.6-0.3,10.4-3.8,12.5-8.7h4.6c19.3,0,37.7,5.6,54.2,16.5c12.7,8.4,21.9,19.3,27,32.6
	c4.3,10.7,4.1,21.1-0.5,30c-7.1,13.5-19.1,20.9-34.9,20.9c-10.2,0-19.9-3.1-24.9-5.3c-2.8,2.5-7.9,6.6-11.5,9.2
	c10.9,5.1,22.1,7.9,32.8,7.9c24.4,0,42.5-13.5,49.4-27C230.9,181.1,230.4,155.7,211.3,133.9z"/>
<path class="st0" d="M82.1,169.9c0.3,7.6,6.6,13.7,14.3,13.7h0.5c7.9-0.3,14-6.9,13.7-14.8c-0.3-7.6-6.6-13.7-14.3-13.7h-0.5
	c-0.5,0-1.3,0-1.8,0.3c-10.4-17.3-14.8-36.1-13.2-56.5c1-15.3,6.1-28.5,15-39.4c7.4-9.4,21.6-14,31.3-14.3
	c27-0.5,38.4,33.1,39.2,46.6c3.3,0.8,8.9,2.5,12.7,3.8C175.9,54.4,150.5,33,126.1,33c-22.9,0-44,16.5-52.4,41
	c-11.7,32.6-4.1,63.9,10.2,88.6C82.6,164.3,81.8,167.1,82.1,169.9L82.1,169.9z"/>
</svg>
