<?xml version="1.0" encoding="utf-8"?>
<!-- Generator: Adobe Illustrator 24.3.0, SVG Export Plug-In . SVG Version: 6.00 Build 0)  -->
<svg version="1.1" id="Layer_1" xmlns="http://www.w3.org/2000/svg" xmlns:xlink="http://www.w3.org/1999/xlink" x="0px" y="0px"
	 viewBox="0 0 256 300" style="enable-background:new 0 0 256 300;" xml:space="preserve">
<style type="text/css">
	.st0{fill:#FFFFFF;}
	.st1{fill:#231F20;}
	.st2{fill:#242938;}
	.st3{fill:#3366CC;}
</style>
<path class="st0" d="M27.5,162.6h201c15.2,0,27.5,12.3,27.5,27.5v82.4c0,15.2-12.3,27.5-27.5,27.5h-201C12.3,300,0,287.7,0,272.5
	v-82.4C0,174.9,12.3,162.6,27.5,162.6z"/>
<g>
	<path class="st1" d="M90.7,269.3c1.6,1.4,2.5,3.4,2.5,6.2c0,3.5-1.3,5.9-4,7.2l4.1,8.6c0.1,0.1,0.1,0.3,0.1,0.4
		c0,0.2-0.1,0.4-0.2,0.6c-0.1,0.2-0.3,0.2-0.5,0.2h-4.5c-0.4,0-0.7-0.1-0.9-0.3c-0.2-0.2-0.4-0.4-0.5-0.7l-3.7-7.7H80v7.7
		c0,0.3-0.1,0.5-0.3,0.7c-0.2,0.2-0.4,0.3-0.6,0.3h-4.4c-0.2,0-0.5-0.1-0.6-0.3c-0.2-0.2-0.3-0.4-0.3-0.7v-23.3
		c0-0.3,0.1-0.5,0.3-0.7c0.2-0.2,0.4-0.3,0.6-0.3h9C86.7,267.3,89,268,90.7,269.3z M83.7,278.2c2.2,0,3.2-0.9,3.2-2.7
		c0-1.8-1.1-2.7-3.2-2.7H80v5.3H83.7z"/>
	<path class="st1" d="M102.9,286.7h10.5c0.2,0,0.5,0.1,0.6,0.3c0.2,0.2,0.3,0.4,0.3,0.7v3.8c0,0.3-0.1,0.5-0.3,0.7
		c-0.2,0.2-0.4,0.3-0.6,0.3H97.6c-0.2,0-0.5-0.1-0.6-0.3c-0.2-0.2-0.3-0.4-0.3-0.7v-23.3c0-0.3,0.1-0.5,0.3-0.7
		c0.2-0.2,0.4-0.3,0.6-0.3h15.5c0.2,0,0.5,0.1,0.6,0.3c0.2,0.2,0.3,0.4,0.3,0.7v3.8c0,0.3-0.1,0.5-0.3,0.7c-0.2,0.2-0.4,0.3-0.6,0.3
		h-10.2v3.9h9.5c0.2,0,0.5,0.1,0.6,0.3c0.2,0.2,0.3,0.4,0.3,0.7v3.8c0,0.3-0.1,0.5-0.3,0.7c-0.2,0.2-0.4,0.3-0.6,0.3h-9.5V286.7z"/>
	<path class="st1" d="M123.4,279.6c0,1.5,0,2.6,0.1,3.3c0.1,1.2,0.5,2.2,1.1,3c0.7,0.8,1.7,1.2,3.1,1.2c1.3,0,2.3-0.3,3-1
		c0.8-0.6,1.1-1.6,1.1-3h-2.8c-0.2,0-0.5-0.1-0.6-0.3c-0.2-0.2-0.3-0.4-0.3-0.7v-3.8c0-0.3,0.1-0.5,0.3-0.7c0.2-0.2,0.4-0.3,0.6-0.3
		h8.1c0.2,0,0.5,0.1,0.6,0.3c0.2,0.2,0.3,0.4,0.3,0.7v4.6c0,2-0.5,3.7-1.4,5.2c-0.9,1.5-2.1,2.7-3.7,3.5s-3.3,1.2-5.3,1.2
		c-2.1,0-3.9-0.4-5.4-1.3c-1.5-0.9-2.7-2.1-3.6-3.5c-0.8-1.5-1.3-3.1-1.4-4.9c0-1.2-0.1-2.1-0.1-2.8c0-0.9,0-2.1,0.1-3.6
		c0.1-1.8,0.5-3.4,1.4-4.9c0.8-1.5,2-2.7,3.6-3.5c1.5-0.9,3.3-1.3,5.4-1.3c2,0,3.7,0.4,5.2,1.2s2.7,1.8,3.6,3
		c0.9,1.2,1.3,2.4,1.4,3.5c0,0.2,0,0.4-0.2,0.6s-0.3,0.2-0.5,0.2h-4.4c-0.3,0-0.5-0.1-0.7-0.2s-0.4-0.4-0.6-0.7
		c-0.4-0.5-0.9-0.9-1.4-1.3c-0.5-0.3-1.3-0.5-2.3-0.5c-2.5,0-3.9,1.4-4.2,4.2C123.4,277.4,123.4,278.3,123.4,279.6z"/>
	<path class="st1" d="M147.9,286.7h10.5c0.2,0,0.5,0.1,0.6,0.3c0.2,0.2,0.3,0.4,0.3,0.7v3.8c0,0.3-0.1,0.5-0.3,0.7
		c-0.2,0.2-0.4,0.3-0.6,0.3h-15.8c-0.2,0-0.5-0.1-0.6-0.3c-0.2-0.2-0.3-0.4-0.3-0.7v-23.3c0-0.3,0.1-0.5,0.3-0.7
		c0.2-0.2,0.4-0.3,0.6-0.3h15.5c0.2,0,0.5,0.1,0.6,0.3c0.2,0.2,0.3,0.4,0.3,0.7v3.8c0,0.3-0.1,0.5-0.3,0.7s-0.4,0.3-0.6,0.3h-10.2
		v3.9h9.5c0.2,0,0.5,0.1,0.6,0.3c0.2,0.2,0.3,0.4,0.3,0.7v3.8c0,0.3-0.1,0.5-0.3,0.7c-0.2,0.2-0.4,0.3-0.6,0.3h-9.5V286.7z"/>
	<path class="st1" d="M168.4,291.6c-0.2,0.3-0.4,0.5-0.5,0.6c-0.2,0.1-0.5,0.2-0.8,0.2h-5.1c-0.2,0-0.4-0.1-0.5-0.2
		c-0.1-0.2-0.2-0.3-0.2-0.6c0-0.1,0-0.3,0.1-0.4l7.7-11.6l-7.4-11.2c-0.1-0.1-0.1-0.3-0.1-0.4c0-0.2,0.1-0.4,0.2-0.6
		s0.3-0.2,0.5-0.2h5c0.4,0,0.7,0.1,0.8,0.3c0.2,0.2,0.4,0.4,0.5,0.6l4,6.1l3.9-6.1c0.2-0.3,0.4-0.5,0.5-0.6c0.2-0.2,0.5-0.3,0.8-0.3
		h5.1c0.2,0,0.4,0.1,0.5,0.2c0.1,0.2,0.2,0.3,0.2,0.6c0,0.1,0,0.3-0.1,0.4l-7.4,11.3l7.6,11.5c0.1,0.1,0.1,0.3,0.1,0.4
		c0,0.2-0.1,0.4-0.2,0.6c-0.1,0.2-0.3,0.2-0.5,0.2h-5.1c-0.4,0-0.7-0.1-0.8-0.2c-0.2-0.1-0.4-0.3-0.5-0.6l-4.3-6.5L168.4,291.6z"/>
</g>
<path class="st2" d="M60,0h136c33.1,0,60,26.9,60,60v136c0,33.1-26.9,60-60,60H60c-33.1,0-60-26.9-60-60V60C0,26.9,26.9,0,60,0z"/>
<path class="st3" d="M43.9,128c0,11.1,1.5,22.2,4.5,32.9c3,10.5,7.5,20.5,13.3,29.9c0.5,0.8,0.8,1.6,1,2.5c0.2,0.6,0.2,1.3,0,2
	c-0.2,0.5-0.6,1-1,1.4l-1.4,1l-8.3,4.7c-4.2-6-7.9-12.2-11.1-18.7c-3-6.1-5.5-12.3-7.4-18.7c-1.9-6.1-3.3-12.4-4.2-18.7
	c-1.8-12.9-1.8-25.9,0-38.8c0.9-6.3,2.3-12.6,4.2-18.7c2-6.4,4.4-12.7,7.4-18.7C44.1,64,47.7,58.4,51.7,53l8.3,4.8l1.4,1
	c0.4,0.4,0.8,0.9,1,1.4c0.2,0.6,0.2,1.3,0,2c-0.2,0.9-0.5,1.7-1,2.5C49.8,84,43.8,105.8,43.9,128L43.9,128z M77.8,160.8
	c0-1.9,0.3-3.8,1.1-5.5c0.7-1.7,1.8-3.2,3.1-4.5c2.1-2,4.8-3.3,7.8-3.9c2.9-0.5,6-0.2,8.8,0.9c3.6,1.4,6.5,4.1,8,7.5
	c0.8,1.7,1.2,3.6,1.2,5.5c0,1.9-0.4,3.8-1.2,5.5c-0.8,1.7-1.8,3.2-3.2,4.5c-1.4,1.3-3,2.3-4.8,3c-3.8,1.4-8,1.4-11.8,0
	c-1.8-0.7-3.4-1.7-4.7-3c-1.4-1.3-2.4-2.9-3.2-4.6C78.1,164.5,77.7,162.7,77.8,160.8L77.8,160.8z M185.9,116.6l-5.4,8.8l-17.5-9.4
	l-3.4-2.2c-1-0.7-1.9-1.5-2.7-2.4c0.9,2.3,1.2,4.7,1,7.1v18.7h-10v-18.7c-0.1-2.4,0.3-4.8,1.2-7.1c-1.6,1.9-3.6,3.4-5.8,4.5
	l-17.4,9.4l-5.4-8.8l17.3-9.4c2.3-1.3,4.9-2.2,7.5-2.7c-2.7-0.3-5.3-1.2-7.5-2.6l-17.9-9.5l5.4-8.8l17.5,9.4l3.3,2.2
	c1,0.7,1.9,1.6,2.7,2.5c-0.8-2.3-1.1-4.8-0.9-7.2V71.7h10v18.7c0.1,1.2,0.1,2.5,0,3.7c-0.2,1.2-0.5,2.3-1,3.4
	c1.7-1.8,3.7-3.4,5.9-4.6l17.4-9.4l5.4,8.8l-17.3,9.4l-3.6,1.7c-1.1,0.5-2.4,0.8-3.6,0.9c1.2,0.2,2.4,0.5,3.6,0.9
	c1.3,0.5,2.5,1.1,3.6,1.8L185.9,116.6z M211.7,128c0-11.1-1.5-22.2-4.5-32.9c-3-10.7-7.4-21-13.2-30.6c-0.5-0.8-0.8-1.6-1-2.5
	c-0.2-0.6-0.2-1.3,0-2c0.2-0.5,0.5-1,1-1.4l1.4-1L204,53c4.2,6,7.8,12.2,11,18.7c3,6.1,5.5,12.3,7.4,18.7c1.9,6.1,3.3,12.4,4.2,18.7
	c0.9,6.2,1.3,12.5,1.4,18.7c0,6.3-0.5,12.5-1.3,18.7c-0.9,6.3-2.3,12.6-4.2,18.7c-1.9,6.4-4.4,12.7-7.4,18.7
	c-3.2,6.5-6.9,12.8-11,18.7l-8.4-4.7l-1.4-1c-0.5-0.4-0.8-0.9-1-1.4c-0.2-0.6-0.2-1.3,0-2c0.2-0.9,0.5-1.7,1-2.5
	c5.7-9.5,10.1-19.7,13.1-30.3C210.3,150.2,211.8,139.1,211.7,128L211.7,128z"/>
</svg>
