<?xml version="1.0" encoding="utf-8"?>
<!-- Generator: Adobe Illustrator 24.3.0, SVG Export Plug-In . SVG Version: 6.00 Build 0)  -->
<svg version="1.1" id="Layer_1" xmlns="http://www.w3.org/2000/svg" xmlns:xlink="http://www.w3.org/1999/xlink" x="0px" y="0px"
	 viewBox="0 0 256 300" style="enable-background:new 0 0 256 300;" xml:space="preserve">
<style type="text/css">
	.st0{fill:#FFFFFF;}
	.st1{fill:#0D1117;}
	.st2{fill:#E43717;}
	.st3{clip-path:url(#SVGID_2_);}
	.st4{fill-rule:evenodd;clip-rule:evenodd;fill:url(#SVGID_3_);}
	.st5{fill-rule:evenodd;clip-rule:evenodd;fill:url(#SVGID_4_);}
	.st6{fill-rule:evenodd;clip-rule:evenodd;fill:url(#SVGID_5_);}
	.st7{fill-rule:evenodd;clip-rule:evenodd;fill:url(#SVGID_6_);}
	.st8{fill-rule:evenodd;clip-rule:evenodd;fill:url(#SVGID_7_);}
	.st9{fill-rule:evenodd;clip-rule:evenodd;fill:url(#SVGID_8_);}
	.st10{fill-rule:evenodd;clip-rule:evenodd;fill:url(#SVGID_9_);}
	.st11{fill-rule:evenodd;clip-rule:evenodd;fill:url(#SVGID_10_);}
	.st12{fill-rule:evenodd;clip-rule:evenodd;fill:#FFFFFF;}
	.st13{fill-rule:evenodd;clip-rule:evenodd;fill:url(#SVGID_11_);}
	.st14{fill-rule:evenodd;clip-rule:evenodd;fill:url(#SVGID_12_);}
	.st15{fill-rule:evenodd;clip-rule:evenodd;fill:url(#SVGID_13_);}
	.st16{fill-rule:evenodd;clip-rule:evenodd;fill:url(#SVGID_14_);}
	.st17{fill-rule:evenodd;clip-rule:evenodd;fill:#9E1209;}
	.st18{fill-rule:evenodd;clip-rule:evenodd;fill:url(#SVGID_15_);}
	.st19{fill-rule:evenodd;clip-rule:evenodd;fill:url(#SVGID_16_);}
	.st20{fill-rule:evenodd;clip-rule:evenodd;fill:url(#SVGID_17_);}
	.st21{fill-rule:evenodd;clip-rule:evenodd;fill:url(#SVGID_18_);}
</style>
<path class="st0" d="M27.5,162.6h201c15.2,0,27.5,12.3,27.5,27.5v82.4c0,15.2-12.3,27.5-27.5,27.5h-201C12.3,300,0,287.7,0,272.5
	v-82.4C0,174.9,12.3,162.6,27.5,162.6z"/>
<g>
	<path class="st1" d="M98.1,269.5c1.5,1.4,2.3,3.4,2.3,6.1c0,3.5-1.2,5.8-3.7,7.2l3.8,8.5c0.1,0.1,0.1,0.3,0.1,0.4
		c0,0.2-0.1,0.4-0.2,0.6s-0.3,0.2-0.5,0.2h-4.2c-0.4,0-0.7-0.1-0.8-0.3s-0.3-0.4-0.5-0.7l-3.4-7.7h-2.9v7.7c0,0.3-0.1,0.5-0.2,0.7
		c-0.2,0.2-0.4,0.3-0.6,0.3h-4.1c-0.2,0-0.4-0.1-0.6-0.3c-0.2-0.2-0.2-0.4-0.2-0.7v-23.1c0-0.3,0.1-0.5,0.2-0.7
		c0.2-0.2,0.4-0.3,0.6-0.3h8.4C94.4,267.5,96.5,268.1,98.1,269.5z M91.6,278.3c2,0,3-0.9,3-2.6s-1-2.6-3-2.6h-3.5v5.3L91.6,278.3
		L91.6,278.3z"/>
	<path class="st1" d="M124.7,267.7c0.2,0.2,0.2,0.4,0.2,0.7v14.3c0,2.1-0.4,4-1.2,5.5c-0.8,1.5-1.9,2.7-3.3,3.5s-3.1,1.2-5,1.2
		s-3.6-0.4-5-1.2s-2.5-1.9-3.3-3.5c-0.8-1.5-1.2-3.4-1.2-5.5v-14.3c0-0.3,0.1-0.5,0.2-0.7c0.2-0.2,0.4-0.3,0.6-0.3h4.1
		c0.2,0,0.4,0.1,0.6,0.3c0.2,0.2,0.2,0.4,0.2,0.7v14.1c0,1.5,0.3,2.6,0.9,3.4s1.5,1.2,2.7,1.2s2.1-0.4,2.7-1.2
		c0.6-0.8,0.9-1.9,0.9-3.4v-14.1c0-0.3,0.1-0.5,0.2-0.7c0.2-0.2,0.4-0.3,0.6-0.3h4.1C124.4,267.5,124.6,267.6,124.7,267.7z"/>
	<path class="st1" d="M130.8,292.2c-0.2-0.2-0.2-0.4-0.2-0.7v-23.1c0-0.3,0.1-0.5,0.2-0.7c0.2-0.2,0.4-0.3,0.6-0.3h10
		c1.8,0,3.2,0.4,4.3,1.1s1.9,1.6,2.4,2.7s0.7,2.3,0.7,3.6c0,1.2-0.2,2.2-0.5,2.9s-0.8,1.3-1.2,1.7c0.8,0.6,1.3,1.4,1.7,2.2
		c0.3,0.8,0.5,1.9,0.5,3.1c0,2.2-0.6,4.1-1.7,5.5c-1.2,1.5-3,2.2-5.4,2.2h-10.6C131.2,292.5,131,292.4,130.8,292.2z M136.3,273v4.1
		h4.8c0.6,0,1.1-0.2,1.4-0.5c0.3-0.4,0.5-0.9,0.5-1.5s-0.2-1.1-0.5-1.5s-0.8-0.5-1.4-0.5h-4.8V273z M141.5,287
		c0.6,0,1.1-0.2,1.5-0.6s0.6-0.9,0.6-1.6c0-0.6-0.2-1.2-0.6-1.6s-0.9-0.6-1.5-0.6h-5.1v4.4L141.5,287L141.5,287z"/>
	<path class="st1" d="M165.3,292.2c-0.2,0.2-0.4,0.3-0.6,0.3h-4.1c-0.2,0-0.4-0.1-0.6-0.3c-0.2-0.2-0.2-0.4-0.2-0.7v-7.6l-7.2-15.2
		c-0.1-0.2-0.1-0.3-0.1-0.5s0.1-0.4,0.2-0.6s0.3-0.2,0.5-0.2h4.3c0.4,0,0.6,0.1,0.9,0.3c0.2,0.2,0.4,0.4,0.4,0.6l3.9,8.8l3.9-8.8
		c0.1-0.2,0.2-0.4,0.5-0.6c0.2-0.2,0.5-0.3,0.9-0.3h4.3c0.2,0,0.3,0.1,0.5,0.2c0.1,0.2,0.2,0.3,0.2,0.6c0,0.1,0,0.3-0.1,0.5
		l-7.2,15.2v7.6C165.6,291.8,165.5,292,165.3,292.2z"/>
</g>
<path class="st2" d="M60,0h136c33.1,0,60,26.9,60,60v136c0,33.1-26.9,60-60,60H60c-33.1,0-60-26.9-60-60V60C0,26.9,26.8,0,60,0z"/>
<g>
	<g>
		<g>
			<defs>
				<rect id="SVGID_1_" x="38" y="38" width="180" height="179.5"/>
			</defs>
			<clipPath id="SVGID_2_">
				<use xlink:href="#SVGID_1_"  style="overflow:visible;"/>
			</clipPath>
			<g class="st3">
				
					<linearGradient id="SVGID_3_" gradientUnits="userSpaceOnUse" x1="196.1062" y1="-2727.7073" x2="158.1332" y2="-2660.6643" gradientTransform="matrix(1 0 0 -1 0 -2493.8723)">
					<stop  offset="0" style="stop-color:#FB7655"/>
					<stop  offset="0.41" style="stop-color:#E42B1E"/>
					<stop  offset="0.99" style="stop-color:#990000"/>
					<stop  offset="1" style="stop-color:#990000"/>
				</linearGradient>
				<path class="st4" d="M177.4,156.5l-102.8,61l133.1-9L218,74.3L177.4,156.5z"/>
				
					<linearGradient id="SVGID_4_" gradientUnits="userSpaceOnUse" x1="215.012" y1="-2671.4199" x2="166.074" y2="-2638.5798" gradientTransform="matrix(1 0 0 -1 0 -2493.8723)">
					<stop  offset="0" style="stop-color:#871101"/>
					<stop  offset="0.99" style="stop-color:#911209"/>
					<stop  offset="1" style="stop-color:#911209"/>
				</linearGradient>
				<path class="st5" d="M207.9,208.4l-11.4-78.9l-31.2,41.1L207.9,208.4z"/>
				
					<linearGradient id="SVGID_5_" gradientUnits="userSpaceOnUse" x1="175.8837" y1="-2729.7295" x2="126.9477" y2="-2696.8894" gradientTransform="matrix(1 0 0 -1 0 -2493.8723)">
					<stop  offset="0" style="stop-color:#871101"/>
					<stop  offset="0.99" style="stop-color:#911209"/>
					<stop  offset="1" style="stop-color:#911209"/>
				</linearGradient>
				<path class="st6" d="M208.1,208.4l-83.8-6.6l-49.2,15.5L208.1,208.4z"/>
				
					<linearGradient id="SVGID_6_" gradientUnits="userSpaceOnUse" x1="73.0721" y1="-2647.6157" x2="80.6591" y2="-2696.9197" gradientTransform="matrix(1 0 0 -1 0 -2493.8723)">
					<stop  offset="0" style="stop-color:#FFFFFF"/>
					<stop  offset="0.23" style="stop-color:#E57252"/>
					<stop  offset="0.46" style="stop-color:#DE3B20"/>
					<stop  offset="0.99" style="stop-color:#A60003"/>
					<stop  offset="1" style="stop-color:#A60003"/>
				</linearGradient>
				<path class="st7" d="M75.2,217.3l20.9-68.6L50,158.5L75.2,217.3z"/>
				
					<linearGradient id="SVGID_7_" gradientUnits="userSpaceOnUse" x1="125.3058" y1="-2601.5679" x2="128.1008" y2="-2651.887" gradientTransform="matrix(1 0 0 -1 0 -2493.8723)">
					<stop  offset="0" style="stop-color:#FFFFFF"/>
					<stop  offset="0.23" style="stop-color:#E4714E"/>
					<stop  offset="0.56" style="stop-color:#BE1A0D"/>
					<stop  offset="0.99" style="stop-color:#A80D00"/>
					<stop  offset="1" style="stop-color:#A80D00"/>
				</linearGradient>
				<path class="st8" d="M165.3,170.8L146,95.4L91,147L165.3,170.8z"/>
				
					<linearGradient id="SVGID_8_" gradientUnits="userSpaceOnUse" x1="171.6186" y1="-2555.0588" x2="179.9866" y2="-2591.1218" gradientTransform="matrix(1 0 0 -1 0 -2493.8723)">
					<stop  offset="0" style="stop-color:#FFFFFF"/>
					<stop  offset="0.18" style="stop-color:#E46342"/>
					<stop  offset="0.4" style="stop-color:#C82410"/>
					<stop  offset="0.99" style="stop-color:#A80D00"/>
					<stop  offset="1" style="stop-color:#A80D00"/>
				</linearGradient>
				<path class="st9" d="M213.6,96.4l-52.1-42.6l-14.5,47L213.6,96.4z"/>
				
					<linearGradient id="SVGID_9_" gradientUnits="userSpaceOnUse" x1="146.0502" y1="-2542.3223" x2="182.1112" y2="-2524.2922" gradientTransform="matrix(1 0 0 -1 0 -2493.8723)">
					<stop  offset="0" style="stop-color:#FFFFFF"/>
					<stop  offset="0.54" style="stop-color:#C81F11"/>
					<stop  offset="0.99" style="stop-color:#BF0905"/>
					<stop  offset="1" style="stop-color:#BF0905"/>
				</linearGradient>
				<path class="st10" d="M189.2,38.7l-30.6,16.9l-19.3-17.2L189.2,38.7z"/>
				
					<linearGradient id="SVGID_10_" gradientUnits="userSpaceOnUse" x1="41.5298" y1="-2635.0359" x2="44.4977" y2="-2664.751" gradientTransform="matrix(1 0 0 -1 0 -2493.8723)">
					<stop  offset="0" style="stop-color:#FFFFFF"/>
					<stop  offset="0.31" style="stop-color:#DE4024"/>
					<stop  offset="0.99" style="stop-color:#BF190B"/>
					<stop  offset="1" style="stop-color:#BF190B"/>
				</linearGradient>
				<path class="st11" d="M38,181.6l12.8-23.4l-10.4-27.9L38,181.6z"/>
				<path class="st12" d="M39.7,129.4L50.1,159l45.4-10.2l51.8-48.2L162,54.3L139,38L99.8,52.7C87.5,64.2,63.5,86.9,62.7,87.3
					C61.9,87.7,46.9,116,39.7,129.4z"/>
				
					<linearGradient id="SVGID_11_" gradientUnits="userSpaceOnUse" x1="21.1179" y1="-2672.7817" x2="160.6369" y2="-2529.3176" gradientTransform="matrix(1 0 0 -1 0 -2493.8723)">
					<stop  offset="0" style="stop-color:#BD0012"/>
					<stop  offset="7.000000e-02" style="stop-color:#FFFFFF"/>
					<stop  offset="0.17" style="stop-color:#FFFFFF"/>
					<stop  offset="0.27" style="stop-color:#C82F1C"/>
					<stop  offset="0.33" style="stop-color:#820C01"/>
					<stop  offset="0.46" style="stop-color:#A31601"/>
					<stop  offset="0.72" style="stop-color:#B31301"/>
					<stop  offset="0.99" style="stop-color:#E82609"/>
					<stop  offset="1" style="stop-color:#E82609"/>
				</linearGradient>
				<path class="st13" d="M76.4,76.2c26.7-26.5,61.2-42.2,74.4-28.8c13.2,13.3-0.8,45.8-27.5,72.3s-60.8,43-74,29.7
					C36.1,136,49.7,102.7,76.4,76.2L76.4,76.2z"/>
				
					<linearGradient id="SVGID_12_" gradientUnits="userSpaceOnUse" x1="127.9926" y1="-2687.2354" x2="85.9687" y2="-2676.8633" gradientTransform="matrix(1 0 0 -1 0 -2493.8723)">
					<stop  offset="0" style="stop-color:#8C0C01"/>
					<stop  offset="0.54" style="stop-color:#990C00"/>
					<stop  offset="0.99" style="stop-color:#A80D0E"/>
					<stop  offset="1" style="stop-color:#A80D0E"/>
				</linearGradient>
				<path class="st14" d="M75.2,217.3L96,148.5l69,22.2C140,194.1,112.3,213.8,75.2,217.3z"/>
				
					<linearGradient id="SVGID_13_" gradientUnits="userSpaceOnUse" x1="200.182" y1="-2636.8013" x2="162.849" y2="-2603.3413" gradientTransform="matrix(1 0 0 -1 0 -2493.8723)">
					<stop  offset="0" style="stop-color:#7E110B"/>
					<stop  offset="0.99" style="stop-color:#9E0C00"/>
					<stop  offset="1" style="stop-color:#9E0C00"/>
				</linearGradient>
				<path class="st15" d="M147.5,100.6l17.7,70.1c20.8-21.9,39.5-45.5,48.7-74.6L147.5,100.6L147.5,100.6z"/>
				
					<linearGradient id="SVGID_14_" gradientUnits="userSpaceOnUse" x1="213.9031" y1="-2575.4053" x2="195.3071" y2="-2555.5254" gradientTransform="matrix(1 0 0 -1 0 -2493.8723)">
					<stop  offset="0" style="stop-color:#79130D"/>
					<stop  offset="0.99" style="stop-color:#9E120B"/>
					<stop  offset="1" style="stop-color:#9E120B"/>
				</linearGradient>
				<path class="st16" d="M213.7,96.5c7.1-21.4,8.7-52.1-24.7-57.8l-27.4,15.1L213.7,96.5L213.7,96.5z"/>
				<path class="st17" d="M38,181.3c1,35.3,26.4,35.8,37.3,36.1l-25.1-58.5L38,181.3z"/>
				
					<radialGradient id="SVGID_15_" cx="-169.9058" cy="-1991.3156" r="1" gradientTransform="matrix(45.7496 0 0 -45.7496 7941.7705 -90991.7578)" gradientUnits="userSpaceOnUse">
					<stop  offset="0" style="stop-color:#A80D00"/>
					<stop  offset="0.99" style="stop-color:#7E0E08"/>
					<stop  offset="1" style="stop-color:#7E0E08"/>
				</radialGradient>
				<path class="st18" d="M147.6,100.7c16,9.8,48.3,29.6,48.9,30c1,0.6,13.9-21.7,16.8-34.3L147.6,100.7L147.6,100.7z"/>
				
					<radialGradient id="SVGID_16_" cx="-170.8464" cy="-1988.5331" r="1" gradientTransform="matrix(60.818 0 0 -60.818 10495.8291 -120768.1797)" gradientUnits="userSpaceOnUse">
					<stop  offset="0" style="stop-color:#A30C00"/>
					<stop  offset="0.99" style="stop-color:#800E08"/>
					<stop  offset="1" style="stop-color:#800E08"/>
				</radialGradient>
				<path class="st19" d="M96,148.5l27.8,53.6c16.4-8.9,29.3-19.8,41-31.4L96,148.5z"/>
				
					<linearGradient id="SVGID_17_" gradientUnits="userSpaceOnUse" x1="62.2283" y1="-2711.1453" x2="47.0743" y2="-2659.7292" gradientTransform="matrix(1 0 0 -1 0 -2493.8723)">
					<stop  offset="0" style="stop-color:#8B2114"/>
					<stop  offset="0.43" style="stop-color:#9E100A"/>
					<stop  offset="0.99" style="stop-color:#B3100C"/>
					<stop  offset="1" style="stop-color:#B3100C"/>
				</linearGradient>
				<path class="st20" d="M50.1,159l-3.9,46.8c7.4,10.1,17.6,11,28.3,10.2C66.8,196.8,51.3,158.2,50.1,159L50.1,159z"/>
				
					<linearGradient id="SVGID_18_" gradientUnits="userSpaceOnUse" x1="178.4689" y1="-2540.7751" x2="212.4439" y2="-2555.7732" gradientTransform="matrix(1 0 0 -1 0 -2493.8723)">
					<stop  offset="0" style="stop-color:#B31000"/>
					<stop  offset="0.44" style="stop-color:#910F08"/>
					<stop  offset="0.99" style="stop-color:#791C12"/>
					<stop  offset="1" style="stop-color:#791C12"/>
				</linearGradient>
				<path class="st21" d="M161.4,54l55.2,7.7c-2.9-12.5-12-20.5-27.4-23L161.4,54z"/>
			</g>
		</g>
	</g>
</g>
</svg>
