<?xml version="1.0" encoding="utf-8"?>
<!-- Generator: Adobe Illustrator 24.3.0, SVG Export Plug-In . SVG Version: 6.00 Build 0)  -->
<svg version="1.1" id="Layer_1" xmlns="http://www.w3.org/2000/svg" xmlns:xlink="http://www.w3.org/1999/xlink" x="0px" y="0px"
	 viewBox="0 0 256 300" style="enable-background:new 0 0 256 300;" xml:space="preserve">
<style type="text/css">
	.st0{display:none;fill:#0D1117;}
	.st1{fill:#FFFFFF;}
	.st2{fill:#0D1117;}
	.st3{fill:#330000;}
	.st4{fill:#FF9A00;}
	.st5{fill:#242938;}
	.st6{fill-rule:evenodd;clip-rule:evenodd;fill:#242938;}
	.st7{fill-rule:evenodd;clip-rule:evenodd;fill:#FFFFFF;}
	.st8{fill-rule:evenodd;clip-rule:evenodd;fill:#47B353;}
	.st9{fill:#ECEFF1;}
	.st10{fill:#263238;}
	.st11{fill:#212121;}
	.st12{fill:#FFC107;}
	.st13{fill:#634703;}
	.st14{fill:#455A64;}
	.st15{fill:#F03C2E;}
	.st16{clip-path:url(#SVGID_2_);}
	.st17{fill:#0277BD;}
	.st18{fill:#EBEBEB;}
	.st19{fill:#E14E1D;}
	.st20{clip-path:url(#SVGID_4_);}
	.st21{fill:#0ACF83;}
	.st22{fill:#A259FF;}
	.st23{fill:#F24E1E;}
	.st24{fill:#FF7262;}
	.st25{fill:#1ABCFE;}
	.st26{fill:#F0DB4F;}
	.st27{fill:#323330;}
	.st28{fill:#00D8FF;}
	.st29{fill:none;stroke:#00D8FF;stroke-width:8.911;}
	.st30{fill:#764ABC;}
	.st31{fill:#81CD39;}
	.st32{fill:#99424F;}
	.st33{fill:url(#SVGID_5_);}
	.st34{fill:url(#SVGID_6_);}
	.st35{fill:none;stroke:#FFFFFF;stroke-width:2;}
	.st36{fill:#2489CA;}
	.st37{fill:#1070B3;}
	.st38{fill:#0877B9;}
	.st39{fill:#3C99D4;}
	.st40{clip-path:url(#SVGID_8_);}
	.st41{fill:#023430;}
	.st42{fill:#10AA50;}
	.st43{fill:#B8C4C2;}
	.st44{fill:#12924F;}
	.st45{fill:#F58219;}
	.st46{fill:#2396ED;}
	.st47{fill:#007ACC;}
	.st48{fill:url(#SVGID_9_);}
	.st49{fill:url(#SVGID_10_);}
	.st50{fill:#001E36;}
	.st51{fill:#31A8FF;}
	.st52{fill:#E43717;}
	.st53{clip-path:url(#SVGID_12_);}
	.st54{fill-rule:evenodd;clip-rule:evenodd;fill:url(#SVGID_13_);}
	.st55{fill-rule:evenodd;clip-rule:evenodd;fill:url(#SVGID_14_);}
	.st56{fill-rule:evenodd;clip-rule:evenodd;fill:url(#SVGID_15_);}
	.st57{fill-rule:evenodd;clip-rule:evenodd;fill:url(#SVGID_16_);}
	.st58{fill-rule:evenodd;clip-rule:evenodd;fill:url(#SVGID_17_);}
	.st59{fill-rule:evenodd;clip-rule:evenodd;fill:url(#SVGID_18_);}
	.st60{fill-rule:evenodd;clip-rule:evenodd;fill:url(#SVGID_19_);}
	.st61{fill-rule:evenodd;clip-rule:evenodd;fill:url(#SVGID_20_);}
	.st62{fill-rule:evenodd;clip-rule:evenodd;fill:url(#SVGID_21_);}
	.st63{fill-rule:evenodd;clip-rule:evenodd;fill:url(#SVGID_22_);}
	.st64{fill-rule:evenodd;clip-rule:evenodd;fill:url(#SVGID_23_);}
	.st65{fill-rule:evenodd;clip-rule:evenodd;fill:url(#SVGID_24_);}
	.st66{fill-rule:evenodd;clip-rule:evenodd;fill:#9E1209;}
	.st67{fill-rule:evenodd;clip-rule:evenodd;fill:url(#SVGID_25_);}
	.st68{fill-rule:evenodd;clip-rule:evenodd;fill:url(#SVGID_26_);}
	.st69{fill-rule:evenodd;clip-rule:evenodd;fill:url(#SVGID_27_);}
	.st70{fill-rule:evenodd;clip-rule:evenodd;fill:url(#SVGID_28_);}
	.st71{fill:#092E20;}
	.st72{fill-rule:evenodd;clip-rule:evenodd;fill:#FF9900;}
	.st73{fill:#E23237;}
	.st74{fill:#B52E31;}
	.st75{fill:#2F406A;}
	.st76{fill:#2379BD;}
	.st77{fill:#03AFEF;}
	.st78{fill:#953CAD;}
	.st79{fill:#D30001;}
</style>
<rect y="162.6" class="st1" width="256" height="137.4"/>
<g>
	<path class="st2" d="M94.2,269.5c1.6,1.4,2.3,3.5,2.3,6.3c0,3.5-1.3,6-3.8,7.3l3.9,8.7c0.1,0.1,0.1,0.3,0.1,0.4
		c0,0.2-0.1,0.4-0.2,0.6c-0.1,0.2-0.3,0.2-0.5,0.2h-4.3c-0.4,0-0.7-0.1-0.9-0.3c-0.2-0.2-0.3-0.4-0.5-0.7l-3.5-7.8h-2.9v7.8
		c0,0.3-0.1,0.5-0.3,0.7c-0.2,0.2-0.4,0.3-0.6,0.3h-4.1c-0.2,0-0.4-0.1-0.6-0.3s-0.3-0.4-0.3-0.7v-23.6c0-0.3,0.1-0.5,0.3-0.7
		c0.2-0.2,0.4-0.3,0.6-0.3h8.6C90.5,267.4,92.7,268.1,94.2,269.5z M87.7,278.5c2,0,3.1-0.9,3.1-2.7c0-1.8-1-2.7-3.1-2.7h-3.6v5.4
		H87.7z"/>
	<path class="st2" d="M121.9,291.6c0.1,0.2,0.1,0.4,0.1,0.5c0,0.2-0.1,0.4-0.2,0.6c-0.1,0.2-0.3,0.2-0.5,0.2h-4
		c-0.4,0-0.6-0.1-0.8-0.3c-0.2-0.2-0.3-0.4-0.4-0.6l-0.9-3h-8.4l-0.9,3c-0.1,0.2-0.2,0.5-0.4,0.6c-0.2,0.2-0.5,0.3-0.8,0.3h-4
		c-0.2,0-0.4-0.1-0.5-0.2c-0.1-0.2-0.2-0.3-0.2-0.6c0-0.1,0-0.3,0.1-0.5l6.9-23c0.1-0.3,0.3-0.6,0.5-0.9c0.2-0.2,0.5-0.3,0.9-0.3
		h5.1c0.4,0,0.7,0.1,0.9,0.3c0.2,0.2,0.4,0.5,0.5,0.9L121.9,291.6z M113.6,283.4l-2.6-8.8l-2.6,8.8H113.6z"/>
	<path class="st2" d="M126.6,292.7c-0.2-0.2-0.3-0.4-0.3-0.7v-23.6c0-0.3,0.1-0.5,0.3-0.7c0.2-0.2,0.4-0.3,0.6-0.3h4.1
		c0.2,0,0.4,0.1,0.6,0.3c0.2,0.2,0.3,0.4,0.3,0.7V292c0,0.3-0.1,0.5-0.3,0.7c-0.2,0.2-0.4,0.3-0.6,0.3h-4.1
		C126.9,293,126.7,292.9,126.6,292.7z"/>
	<path class="st2" d="M154.4,287.5c0.2,0.2,0.3,0.4,0.3,0.7v3.9c0,0.3-0.1,0.5-0.3,0.7c-0.2,0.2-0.4,0.3-0.6,0.3h-14.7
		c-0.2,0-0.4-0.1-0.6-0.3s-0.3-0.4-0.3-0.7v-23.6c0-0.3,0.1-0.5,0.3-0.7c0.2-0.2,0.4-0.3,0.6-0.3h4.1c0.2,0,0.4,0.1,0.6,0.3
		c0.2,0.2,0.3,0.4,0.3,0.7v18.7h9.7C154,287.2,154.2,287.3,154.4,287.5z"/>
	<path class="st2" d="M176.4,274.8c-0.1,0.2-0.3,0.2-0.5,0.2h-4.1c-0.3,0-0.5,0-0.7-0.1c-0.2-0.1-0.4-0.2-0.6-0.5
		c0,0-0.2-0.2-0.4-0.5c-0.2-0.3-0.6-0.5-1.1-0.7c-0.5-0.2-1.1-0.3-1.7-0.3c-0.9,0-1.7,0.1-2.2,0.4c-0.6,0.3-0.9,0.8-0.9,1.4
		c0,0.5,0.2,0.9,0.5,1.2c0.4,0.3,0.9,0.5,1.7,0.7s2.1,0.5,3.9,1c2.4,0.6,4.1,1.4,5.3,2.6c1.1,1.2,1.7,2.9,1.7,5.1
		c0,1.6-0.4,3-1.2,4.2c-0.8,1.2-2,2.1-3.5,2.8c-1.5,0.6-3.2,1-5,1c-1.8,0-3.5-0.4-4.9-1.1c-1.5-0.7-2.6-1.7-3.5-2.8
		c-0.8-1.2-1.3-2.4-1.3-3.6c0-0.2,0.1-0.4,0.2-0.6c0.1-0.2,0.3-0.2,0.5-0.2h4.1c0.5,0,0.9,0.2,1.2,0.5c0.1,0.1,0.2,0.3,0.5,0.6
		c0.3,0.4,0.7,0.7,1.2,0.9c0.6,0.3,1.2,0.4,2,0.4c2.6,0,3.9-0.6,3.9-1.9c0-0.4-0.2-0.8-0.6-1c-0.4-0.3-0.9-0.5-1.6-0.7
		c-0.7-0.2-1.8-0.5-3.2-0.8l-1.4-0.3c-2.2-0.5-3.7-1.4-4.7-2.7c-1-1.3-1.5-2.9-1.5-5c0-1.4,0.4-2.7,1.1-3.9c0.7-1.2,1.8-2.2,3.1-2.9
		c1.4-0.7,2.9-1.1,4.7-1.1c1.7,0,3.3,0.4,4.7,1.1c1.4,0.7,2.5,1.7,3.3,2.8c0.8,1.1,1.2,2.2,1.3,3.3
		C176.6,274.5,176.5,274.7,176.4,274.8z"/>
</g>
<path class="st79" d="M60,0h136c33.1,0,60,26.9,60,60v136c0,33.1-26.9,60-60,60H60c-33.1,0-60-26.9-60-60V60C0,26.9,26.9,0,60,0z"/>
<path class="st1" d="M227.9,116.8l0.1,0.1c0,0-1.5,1.1-3.1,2.4c-50.1-37-80.7-19.6-90.3-14.9c-43.7,24.4-31,84.1-30.8,85.3l0,0H34.2
	c0,0,2.6-26.1,21.2-57s50.1-54.2,75.7-56.5C180.6,71.3,225.2,114.1,227.9,116.8z M106.5,172.1l9.5,3.4c0.4,3.5,1.1,6.7,1.7,9.7
	l0.4,1.8l-10.6-3.8C107.1,180.6,106.7,176.8,106.5,172.1z M32.4,143.5l10.1,3.7c-1.2,2.9-2.8,6.5-3.9,9.4l-0.5,1.2L28,154.1
	C28.9,151.7,30.7,147.3,32.4,143.5z M110.5,140l6.3,5c-0.7,2.8-1.2,5.5-1.6,8.3l-0.2,2.1l-7.1-5.6
	C108.5,146.5,109.3,143.3,110.5,140z M126.1,115.4l4,6c-1.6,1.6-3,3.2-4.3,5l-0.9,1.3l-4.2-6.3C122.2,119.3,124,117.3,126.1,115.4z
	 M62.9,102.4l6.3,5.5c-1.6,1.7-3.1,3.4-4.6,5.2l-1.4,1.8l-6.8-5.8C58.4,106.8,60.6,104.6,62.9,102.4z M150.3,102l1.9,5.8
	c-2,0.6-4.1,1.4-6.1,2.4l-1.5,0.7l-2-6.1C144.8,103.9,147.3,102.9,150.3,102z M170.9,99.9c2.3,0.1,4.6,0.4,6.9,0.8l1.8,0.3l-0.4,5.5
	c-2.3-0.5-4.7-0.8-7-1l-1.7-0.1L170.9,99.9z M98.5,75.6l4,6.1c-1.7,0.9-3.4,1.8-5.1,2.8l-1.7,1l-4.1-6.2
	C94,77.9,96.3,76.7,98.5,75.6z M171.1,72.2c5.2,1.5,7.5,2.5,8.4,3l0.1,0.1l-0.4,5.9c-1.9-0.8-3.8-1.5-5.7-2.2l-2.9-1L171.1,72.2z
	 M137.4,67l1.8,5.4h-0.9c-1.9,0-3.8,0-5.8,0.2l-1.9,0.2l-1.7-5.2C131.9,67.2,134.7,67,137.4,67z"/>
</svg>
