<?xml version="1.0" encoding="utf-8"?>
<!-- Generator: Adobe Illustrator 24.3.0, SVG Export Plug-In . SVG Version: 6.00 Build 0)  -->
<svg version="1.1" id="Layer_1" xmlns="http://www.w3.org/2000/svg" xmlns:xlink="http://www.w3.org/1999/xlink" x="0px" y="0px"
	 viewBox="0 0 256 300" style="enable-background:new 0 0 256 300;" xml:space="preserve">
<style type="text/css">
	.st0{fill:#FFFFFF;}
	.st1{fill:#121212;}
	.st2{opacity:0.95;fill:#0D1117;enable-background:new    ;}
	.st3{font-family:'Rubik-Bold';}
	.st4{font-size:32.7923px;}
	.st5{fill:#F44250;}
</style>
<path class="st0" d="M27.5,162.6h201c15.2,0,27.5,12.3,27.5,27.5v82.4c0,15.2-12.3,27.5-27.5,27.5h-201C12.3,300,0,287.7,0,272.5
	v-82.4C0,174.9,12.3,162.6,27.5,162.6z"/>
<path class="st1" d="M60,0h136c33.1,0,60,26.9,60,60v136c0,33.1-26.9,60-60,60H60c-33.1,0-60-26.9-60-60V60C0,26.9,26.8,0,60,0z"/>
<text transform="matrix(0.8919 0 0 1 9.7104 291.9707)" class="st2 st3 st4">REACT ROUTER</text>
<path class="st5" d="M178.5,99.4c-5.2-1.6-7.9-1.1-13.4-1.7c-8.4-0.9-11.8-4.2-13.2-12.7c-0.8-4.7,0.1-11.7-1.9-16
	c-3.9-8.2-13-11.9-22.2-9.8c-7.7,1.8-14.2,9.5-14.5,17.4c-0.4,9.1,4.8,16.8,13.6,19.5c4.2,1.3,8.7,1.9,13.1,2.2
	c8.1,0.6,8.7,5.1,10.9,8.8c1.4,2.3,2.7,4.6,2.7,11.6c0,6.9-1.3,9.2-2.7,11.6c-2.2,3.7-4.9,6.1-12.9,6.7c-4.4,0.3-8.9,1-13.1,2.2
	c-8.9,2.7-14,10.4-13.6,19.5c0.4,7.9,6.8,15.7,14.5,17.4c9.2,2.1,18.3-1.6,22.2-9.8c2-4.3,3.2-9.2,4-13.9
	c1.4-8.5,4.8-11.8,13.2-12.7c5.5-0.6,11.1,0,16.2-2.9c5.4-4,10.2-9.9,10.2-18.1C191.6,110.6,186.4,101.9,178.5,99.4z"/>
<g>
	<path class="st0" d="M91.8,138c-10.6,0-19.3-8.7-19.3-19.4s8.7-19.4,19.3-19.4s19.3,8.7,19.3,19.4C111.2,129.3,102.5,138,91.8,138z
		"/>
	<path class="st0" d="M56.3,177.4c-10.6,0-19.3-8.8-19.3-19.4c0-10.7,8.7-19.3,19.4-19.3c10.6,0,19.3,8.8,19.3,19.4
		C75.6,168.7,66.9,177.4,56.3,177.4z"/>
	<path class="st0" d="M199.8,177.4c-10.7,0.1-19.4-8.6-19.5-19.2c-0.1-10.7,8.6-19.4,19.2-19.5c10.7-0.1,19.4,8.6,19.5,19.2
		C219.1,168.5,210.4,177.3,199.8,177.4z"/>
</g>
</svg>
