<?xml version="1.0" encoding="utf-8"?>
<!-- Generator: Adobe Illustrator 24.3.0, SVG Export Plug-In . SVG Version: 6.00 Build 0)  -->
<svg version="1.1" id="Layer_1" xmlns="http://www.w3.org/2000/svg" xmlns:xlink="http://www.w3.org/1999/xlink" x="0px" y="0px"
	 viewBox="0 0 256 300" style="enable-background:new 0 0 256 300;" xml:space="preserve">
<style type="text/css">
	.st0{fill:#FFFFFF;}
	.st1{fill:#0D1117;}
	.st2{fill:#242938;}
	.st3{fill:#00D8FF;}
	.st4{fill:none;stroke:#00D8FF;stroke-width:8.911;}
</style>
<path class="st0" d="M27.5,162.6h201c15.2,0,27.5,12.3,27.5,27.5v82.4c0,15.2-12.3,27.5-27.5,27.5h-201C12.3,300,0,287.7,0,272.5
	v-82.4C0,174.9,12.3,162.6,27.5,162.6z"/>
<g>
	<path class="st1" d="M87.9,269.5c1.5,1.4,2.3,3.4,2.3,6.1c0,3.5-1.2,5.8-3.7,7.2l3.8,8.5c0.1,0.1,0.1,0.3,0.1,0.4
		c0,0.2-0.1,0.4-0.2,0.6s-0.3,0.2-0.5,0.2h-4.2c-0.4,0-0.7-0.1-0.8-0.3c-0.2-0.2-0.3-0.4-0.5-0.7l-3.4-7.7h-2.9v7.7
		c0,0.3-0.1,0.5-0.2,0.7c-0.2,0.2-0.4,0.3-0.6,0.3H73c-0.2,0-0.4-0.1-0.6-0.3s-0.2-0.4-0.2-0.7v-23.1c0-0.3,0.1-0.5,0.2-0.7
		c0.2-0.2,0.4-0.3,0.6-0.3h8.4C84.2,267.5,86.4,268,87.9,269.5z M81.5,278.2c2,0,3-0.9,3-2.6s-1-2.6-3-2.6H78v5.3L81.5,278.2
		L81.5,278.2z"/>
	<path class="st1" d="M101.9,286.8h9.8c0.2,0,0.4,0.1,0.6,0.3c0.2,0.2,0.2,0.4,0.2,0.7v3.8c0,0.3-0.1,0.5-0.2,0.7
		c-0.2,0.2-0.4,0.3-0.6,0.3H97c-0.2,0-0.4-0.1-0.6-0.3s-0.2-0.4-0.2-0.7v-23.1c0-0.3,0.1-0.5,0.2-0.7c0.2-0.2,0.4-0.3,0.6-0.3h14.5
		c0.2,0,0.4,0.1,0.6,0.3s0.2,0.4,0.2,0.7v3.8c0,0.3-0.1,0.5-0.2,0.7c-0.2,0.2-0.4,0.3-0.6,0.3h-9.6v3.9h8.9c0.2,0,0.4,0.1,0.6,0.3
		c0.2,0.2,0.2,0.4,0.2,0.7v3.8c0,0.3-0.1,0.5-0.2,0.7c-0.2,0.2-0.4,0.3-0.6,0.3h-8.9V286.8L101.9,286.8z"/>
	<path class="st1" d="M137.7,291.2c0.1,0.2,0.1,0.4,0.1,0.5c0,0.2-0.1,0.4-0.2,0.6s-0.3,0.2-0.5,0.2h-3.9c-0.4,0-0.6-0.1-0.8-0.3
		c-0.2-0.2-0.3-0.4-0.4-0.6l-0.9-3h-8.3l-0.9,3c-0.1,0.2-0.2,0.4-0.4,0.6c-0.2,0.2-0.5,0.3-0.8,0.3h-3.9c-0.2,0-0.3-0.1-0.5-0.2
		s-0.2-0.3-0.2-0.6c0-0.1,0-0.3,0.1-0.5l6.8-22.5c0.1-0.3,0.3-0.6,0.5-0.8c0.2-0.2,0.5-0.3,0.9-0.3h5c0.4,0,0.7,0.1,0.9,0.3
		c0.2,0.2,0.4,0.5,0.5,0.8L137.7,291.2z M129.5,283l-2.5-8.6l-2.5,8.6H129.5z"/>
	<path class="st1" d="M148.7,286c0.6,0.8,1.6,1.1,2.9,1.1c1.2,0,2.1-0.3,2.7-0.8s1-1.2,1.2-2c0.1-0.4,0.2-0.7,0.4-0.8
		c0.1-0.1,0.4-0.2,0.7-0.2h4.1c0.2,0,0.3,0.1,0.5,0.2c0.1,0.2,0.2,0.3,0.2,0.6c0,1.6-0.5,3.1-1.3,4.4c-0.9,1.3-2,2.4-3.5,3.2
		s-3.1,1.2-4.9,1.2c-1.9,0-3.6-0.4-5-1.3s-2.5-2-3.3-3.5s-1.2-3.1-1.3-4.9c0-1.1-0.1-2.1-0.1-2.8c0-0.9,0-2.1,0.1-3.5
		c0.1-1.8,0.5-3.4,1.3-4.9s1.9-2.6,3.3-3.5c1.4-0.9,3.1-1.3,5-1.3c1.8,0,3.4,0.4,4.9,1.2s2.6,1.9,3.5,3.2s1.3,2.8,1.3,4.4
		c0,0.2-0.1,0.4-0.2,0.6s-0.3,0.2-0.5,0.2h-4.1c-0.3,0-0.6-0.1-0.7-0.2c-0.1-0.1-0.2-0.4-0.4-0.8c-0.2-0.8-0.6-1.5-1.2-2
		s-1.5-0.8-2.7-0.8c-1.3,0-2.3,0.4-2.9,1.1c-0.6,0.8-1,1.8-1,3c0,0.8-0.1,1.8-0.1,3c0,1.1,0,2.1,0.1,3
		C147.8,284.2,148.1,285.2,148.7,286z"/>
	<path class="st1" d="M182.7,267.7c0.2,0.2,0.2,0.4,0.2,0.7v3.8c0,0.3-0.1,0.5-0.2,0.7c-0.2,0.2-0.4,0.3-0.6,0.3h-5.5v18.4
		c0,0.3-0.1,0.5-0.2,0.7c-0.2,0.2-0.4,0.3-0.6,0.3h-4.1c-0.2,0-0.4-0.1-0.6-0.3s-0.2-0.4-0.2-0.7v-18.4h-5.5c-0.2,0-0.4-0.1-0.6-0.3
		c-0.2-0.2-0.2-0.4-0.2-0.7v-3.8c0-0.3,0.1-0.5,0.2-0.7c0.2-0.2,0.4-0.3,0.6-0.3h16.7C182.3,267.5,182.5,267.5,182.7,267.7z"/>
</g>
<path class="st2" d="M60-0.1h136c33.1,0,60,26.9,60,60v136c0,33.1-26.9,60-60,60H60c-33.1,0-60-26.9-60-60v-136
	C0,26.9,26.9-0.1,60-0.1z"/>
<path class="st3" d="M128,146.9c10.3,0,18.7-8.4,18.7-18.7s-8.4-18.7-18.7-18.7s-18.7,8.4-18.7,18.7S117.7,146.9,128,146.9z"/>
<path class="st4" d="M128,90.4c25,0,48.3,3.6,65.9,9.6c21.1,7.3,34.1,18.3,34.1,28.3c0,10.4-13.8,22.1-36.5,29.6
	c-17.2,5.7-39.7,8.7-63.5,8.7c-24.4,0-47.5-2.8-64.8-8.7c-22-7.5-35.2-19.4-35.2-29.6c0-9.9,12.4-20.9,33.3-28.1
	C78.9,93.9,102.7,90.4,128,90.4L128,90.4z"/>
<path class="st4" d="M95,109.4c12.5-21.7,27.3-40.1,41.2-52.2c16.9-14.7,32.9-20.4,41.6-15.4c9,5.2,12.3,23,7.5,46.4
	c-3.6,17.7-12.4,38.8-24.2,59.4c-12.2,21.1-26.1,39.7-39.9,51.8c-17.5,15.3-34.4,20.8-43.2,15.7c-8.6-4.9-11.9-21.2-7.7-42.9
	C73.6,153.8,82.3,131.4,95,109.4L95,109.4z"/>
<path class="st4" d="M95,147.6C82.5,125.9,73.9,104,70.3,85.8C66,63.8,69,47,77.7,42c9-5.2,26.1,0.8,43.9,16.7
	c13.5,12,27.4,30.1,39.3,50.6c12.2,21.1,21.4,42.5,24.9,60.5c4.5,22.8,0.9,40.2-8,45.3c-8.6,5-24.3-0.3-41-14.7
	C122.8,188.3,107.7,169.4,95,147.6z"/>
</svg>
