<?xml version="1.0" encoding="utf-8"?>
<!-- Generator: Adobe Illustrator 24.3.0, SVG Export Plug-In . SVG Version: 6.00 Build 0)  -->
<svg version="1.1" id="Layer_1" xmlns="http://www.w3.org/2000/svg" xmlns:xlink="http://www.w3.org/1999/xlink" x="0px" y="0px"
	 viewBox="0 0 256 300" style="enable-background:new 0 0 256 300;" xml:space="preserve">
<style type="text/css">
	.st0{fill:#FFFFFF;}
	.st1{fill:#231F20;}
	.st2{fill:#242938;}
	.st3{fill:#FF6600;}
</style>
<path class="st0" d="M27.5,162.6h201c15.2,0,27.5,12.3,27.5,27.5v82.4c0,15.2-12.3,27.5-27.5,27.5h-201C12.3,300,0,287.7,0,272.5
	v-82.4C0,174.9,12.3,162.6,27.5,162.6z"/>
<g>
	<path class="st1" d="M58.1,269.3c1.6,1.4,2.5,3.4,2.5,6.2c0,3.5-1.3,5.9-4,7.2l4.1,8.6c0.1,0.1,0.1,0.3,0.1,0.4
		c0,0.2-0.1,0.4-0.2,0.6c-0.1,0.2-0.3,0.2-0.5,0.2h-4.5c-0.4,0-0.7-0.1-0.9-0.3c-0.2-0.2-0.4-0.4-0.5-0.7l-3.7-7.7h-3.1v7.7
		c0,0.3-0.1,0.5-0.3,0.7c-0.2,0.2-0.4,0.3-0.6,0.3h-4.4c-0.2,0-0.5-0.1-0.6-0.3c-0.2-0.2-0.3-0.4-0.3-0.7v-23.3
		c0-0.3,0.1-0.5,0.3-0.7c0.2-0.2,0.4-0.3,0.6-0.3h9C54.2,267.3,56.5,268,58.1,269.3z M51.2,278.2c2.2,0,3.2-0.9,3.2-2.7
		c0-1.8-1.1-2.7-3.2-2.7h-3.8v5.3H51.2z"/>
	<path class="st1" d="M85.5,291.1c0.1,0.2,0.1,0.4,0.1,0.5c0,0.2-0.1,0.4-0.2,0.6c-0.1,0.2-0.3,0.2-0.5,0.2h-4.2
		c-0.4,0-0.7-0.1-0.9-0.3c-0.2-0.2-0.3-0.4-0.4-0.6l-0.9-3h-8.9l-0.9,3c-0.1,0.2-0.2,0.5-0.4,0.6c-0.2,0.2-0.5,0.3-0.9,0.3h-4.2
		c-0.2,0-0.4-0.1-0.5-0.2c-0.1-0.2-0.2-0.3-0.2-0.6c0-0.1,0-0.3,0.1-0.5l7.3-22.7c0.1-0.3,0.3-0.6,0.5-0.8c0.2-0.2,0.6-0.3,1-0.3
		h5.4c0.4,0,0.7,0.1,1,0.3c0.2,0.2,0.4,0.5,0.5,0.8L85.5,291.1z M76.7,283l-2.7-8.6l-2.7,8.6H76.7z"/>
	<path class="st1" d="M88.6,292.2c-0.2-0.2-0.3-0.4-0.3-0.7v-23.3c0-0.3,0.1-0.5,0.3-0.7c0.2-0.2,0.4-0.3,0.6-0.3h10.7
		c1.9,0,3.4,0.4,4.6,1.1c1.2,0.7,2,1.6,2.5,2.8c0.5,1.1,0.8,2.3,0.8,3.7c0,1.2-0.2,2.2-0.6,2.9c-0.4,0.7-0.8,1.3-1.3,1.7
		c0.8,0.6,1.4,1.4,1.8,2.2c0.4,0.9,0.5,1.9,0.5,3.1c0,2.2-0.6,4.1-1.9,5.6c-1.2,1.5-3.2,2.2-5.8,2.2H89.2
		C89,292.5,88.7,292.4,88.6,292.2z M94.5,272.8v4.1h5.2c0.7,0,1.2-0.2,1.5-0.5c0.3-0.4,0.5-0.9,0.5-1.5c0-0.6-0.2-1.2-0.5-1.5
		c-0.3-0.4-0.8-0.5-1.5-0.5H94.5z M100,286.9c0.7,0,1.2-0.2,1.6-0.6c0.4-0.4,0.6-0.9,0.6-1.6c0-0.6-0.2-1.2-0.6-1.6
		c-0.4-0.4-0.9-0.6-1.6-0.6h-5.5v4.4H100z"/>
	<path class="st1" d="M112.3,292.2c-0.2-0.2-0.3-0.4-0.3-0.7v-23.3c0-0.3,0.1-0.5,0.3-0.7c0.2-0.2,0.4-0.3,0.6-0.3h10.7
		c1.9,0,3.4,0.4,4.6,1.1c1.2,0.7,2,1.6,2.5,2.8c0.5,1.1,0.8,2.3,0.8,3.7c0,1.2-0.2,2.2-0.6,2.9c-0.4,0.7-0.8,1.3-1.3,1.7
		c0.8,0.6,1.4,1.4,1.8,2.2c0.4,0.9,0.5,1.9,0.5,3.1c0,2.2-0.6,4.1-1.9,5.6c-1.2,1.5-3.2,2.2-5.8,2.2h-11.4
		C112.7,292.5,112.4,292.4,112.3,292.2z M118.2,272.8v4.1h5.2c0.7,0,1.2-0.2,1.5-0.5c0.3-0.4,0.5-0.9,0.5-1.5c0-0.6-0.2-1.2-0.5-1.5
		c-0.3-0.4-0.8-0.5-1.5-0.5H118.2z M123.6,286.9c0.7,0,1.2-0.2,1.6-0.6c0.4-0.4,0.6-0.9,0.6-1.6c0-0.6-0.2-1.2-0.6-1.6
		c-0.4-0.4-0.9-0.6-1.6-0.6h-5.5v4.4H123.6z"/>
	<path class="st1" d="M136,292.2c-0.2-0.2-0.3-0.4-0.3-0.7v-23.3c0-0.3,0.1-0.5,0.3-0.7c0.2-0.2,0.4-0.3,0.6-0.3h4.4
		c0.2,0,0.5,0.1,0.6,0.3c0.2,0.2,0.3,0.4,0.3,0.7v23.3c0,0.3-0.1,0.5-0.3,0.7c-0.2,0.2-0.4,0.3-0.6,0.3h-4.4
		C136.3,292.5,136.1,292.4,136,292.2z"/>
	<path class="st1" d="M164.2,267.6c0.2,0.2,0.3,0.4,0.3,0.7v3.8c0,0.3-0.1,0.5-0.3,0.7c-0.2,0.2-0.4,0.3-0.6,0.3h-5.9v18.5
		c0,0.3-0.1,0.5-0.3,0.7c-0.2,0.2-0.4,0.3-0.6,0.3h-4.4c-0.2,0-0.5-0.1-0.6-0.3c-0.2-0.2-0.3-0.4-0.3-0.7V273h-5.9
		c-0.2,0-0.5-0.1-0.6-0.3s-0.3-0.4-0.3-0.7v-3.8c0-0.3,0.1-0.5,0.3-0.7c0.2-0.2,0.4-0.3,0.6-0.3h17.9
		C163.8,267.3,164.1,267.4,164.2,267.6z"/>
	<path class="st1" d="M173.7,279.6v11.9c0,0.3-0.1,0.5-0.3,0.7c-0.2,0.2-0.4,0.3-0.6,0.3h-4.4c-0.2,0-0.5-0.1-0.6-0.3
		c-0.2-0.2-0.3-0.4-0.3-0.7v-23.3c0-0.3,0.1-0.5,0.3-0.7c0.2-0.2,0.4-0.3,0.6-0.3h3.9c0.6,0,1.1,0.3,1.4,1l5.4,10l5.4-10
		c0.3-0.6,0.8-1,1.4-1h3.9c0.2,0,0.5,0.1,0.6,0.3c0.2,0.2,0.3,0.4,0.3,0.7v23.3c0,0.3-0.1,0.5-0.3,0.7c-0.2,0.2-0.4,0.3-0.6,0.3
		h-4.4c-0.2,0-0.5-0.1-0.6-0.3c-0.2-0.2-0.3-0.4-0.3-0.7v-11.9l-3.1,5.9c-0.2,0.3-0.3,0.5-0.5,0.6s-0.4,0.3-0.7,0.3H178
		c-0.3,0-0.5-0.1-0.7-0.3s-0.4-0.4-0.5-0.6L173.7,279.6z"/>
	<path class="st1" d="M210.4,268.2c1.5,0.9,2.7,2,3.5,3.5c0.8,1.5,1.3,3.1,1.4,5c0,0.7,0.1,1.8,0.1,3.2c0,1.5,0,2.5-0.1,3.2
		c-0.1,2.6-1,4.8-2.5,6.5l2.6,4.1c0.1,0.1,0.1,0.3,0.1,0.3v0.1c0,0.2-0.1,0.4-0.2,0.5s-0.3,0.2-0.5,0.2h-4.7c-0.4,0-0.6-0.1-0.8-0.2
		c-0.2-0.2-0.4-0.4-0.5-0.6l-0.9-1.5c-1,0.2-2,0.4-3,0.4c-2.1,0-3.9-0.4-5.5-1.3c-1.5-0.9-2.7-2-3.5-3.5c-0.8-1.5-1.3-3.1-1.4-5
		c0-1.3-0.1-2.4-0.1-3.2c0-0.8,0-1.9,0.1-3.2c0.1-1.8,0.5-3.5,1.4-5c0.8-1.5,2-2.6,3.5-3.5c1.5-0.9,3.3-1.3,5.5-1.3
		S208.9,267.3,210.4,268.2z M207.9,273.8c-0.7-0.8-1.7-1.1-3-1.1s-2.3,0.4-3,1.1c-0.7,0.8-1.1,1.8-1.2,3c-0.1,0.8-0.1,1.8-0.1,3
		c0,1.2,0,2.2,0.1,3.1c0.1,1.3,0.5,2.3,1.2,3c0.7,0.8,1.7,1.1,3,1.1s2.3-0.4,3-1.1c0.7-0.8,1.1-1.8,1.2-3c0.1-0.9,0.1-1.9,0.1-3.1
		c0-1.2,0-2.2-0.1-3C209,275.6,208.6,274.6,207.9,273.8z"/>
</g>
<path class="st2" d="M60,0h136c33.1,0,60,26.9,60,60v136c0,33.1-26.9,60-60,60H60c-33.1,0-60-26.9-60-60V60C0,26.9,26.9,0,60,0z"/>
<path class="st3" d="M196.8,112.4H147c-1.2,0-2.4-0.5-3.2-1.3c-0.9-0.8-1.3-2-1.3-3.2V56c0-3.8-3.1-7-7-7h-17.8c-3.8,0-7,3.1-7,7
	v51.6c0,2.7-2.2,4.9-4.8,4.9l-16.3,0.1c-2.7,0-4.9-2.2-4.9-4.9L84.7,56c0-3.9-3.1-7-7-7H60c-3.8,0-7,3.1-7,7v145.4
	c0,3.4,2.8,6.2,6.2,6.2h137.6c3.4,0,6.2-2.8,6.2-6.2v-82.8C203,115.2,200.2,112.4,196.8,112.4z M173.4,167c0,4.5-3.6,8.1-8.1,8.1
	h-14.1c-4.5,0-8.1-3.6-8.1-8.1V153c0-4.5,3.6-8.1,8.1-8.1h14.1c4.5,0,8.1,3.6,8.1,8.1V167z"/>
</svg>
