<?xml version="1.0" encoding="utf-8"?>
<!-- Generator: Adobe Illustrator 24.3.0, SVG Export Plug-In . SVG Version: 6.00 Build 0)  -->
<svg version="1.1" id="Layer_1" xmlns="http://www.w3.org/2000/svg" xmlns:xlink="http://www.w3.org/1999/xlink" x="0px" y="0px"
	 viewBox="0 0 256 300" style="enable-background:new 0 0 256 300;" xml:space="preserve">
<style type="text/css">
	.st0{fill:#FFFFFF;}
	.st1{fill:#242938;}
	.st2{fill:#231F20;}
	.st3{fill-rule:evenodd;clip-rule:evenodd;fill:#FEFEFE;}
	.st4{fill-rule:evenodd;clip-rule:evenodd;fill:#A0D3A4;}
	.st5{fill-rule:evenodd;clip-rule:evenodd;fill:#FEFDFD;}
	.st6{fill-rule:evenodd;clip-rule:evenodd;fill:#E7BB8E;}
	.st7{fill-rule:evenodd;clip-rule:evenodd;fill:#995F44;}
	.st8{fill-rule:evenodd;clip-rule:evenodd;fill:#DEAD7B;}
	.st9{fill-rule:evenodd;clip-rule:evenodd;fill:#E5E8F1;}
	.st10{fill-rule:evenodd;clip-rule:evenodd;fill:#E8EBF3;}
	.st11{fill-rule:evenodd;clip-rule:evenodd;fill:#CE9B6E;}
	.st12{fill-rule:evenodd;clip-rule:evenodd;fill:#E4B88B;}
	.st13{fill-rule:evenodd;clip-rule:evenodd;fill:#DAA97B;}
	.st14{fill-rule:evenodd;clip-rule:evenodd;fill:#FCF9F6;}
	.st15{fill-rule:evenodd;clip-rule:evenodd;fill:#E6EAF3;}
	.st16{fill-rule:evenodd;clip-rule:evenodd;fill:#E6BC8F;}
	.st17{fill-rule:evenodd;clip-rule:evenodd;fill:#CB956B;}
	.st18{fill-rule:evenodd;clip-rule:evenodd;fill:#674934;}
	.st19{fill-rule:evenodd;clip-rule:evenodd;fill:#603B28;}
</style>
<path class="st0" d="M27.5,162.6h201c15.2,0,27.5,12.3,27.5,27.5v82.4c0,15.2-12.3,27.5-27.5,27.5h-201C12.3,300,0,287.7,0,272.5
	v-82.4C0,174.9,12.3,162.6,27.5,162.6z"/>
<path class="st1" d="M60,0h136c33.1,0,60,26.9,60,60v136c0,33.1-26.9,60-60,60H60c-33.1,0-60-26.9-60-60V60C0,26.9,26.8,0,60,0z"/>
<g>
	<path class="st2" d="M95.8,274.6c-0.1,0.2-0.3,0.2-0.5,0.2H91c-0.3,0-0.6,0-0.7-0.1c-0.2-0.1-0.4-0.2-0.6-0.5c0,0-0.2-0.2-0.4-0.5
		c-0.2-0.3-0.6-0.5-1.1-0.7s-1.1-0.3-1.8-0.3c-1,0-1.7,0.1-2.3,0.4c-0.6,0.3-0.9,0.8-0.9,1.4c0,0.5,0.2,0.9,0.6,1.1
		c0.4,0.3,1,0.5,1.7,0.7c0.8,0.2,2.2,0.5,4.1,1c2.5,0.6,4.3,1.4,5.5,2.6s1.8,2.9,1.8,5c0,1.6-0.4,3-1.3,4.2s-2.1,2.1-3.7,2.7
		s-3.3,1-5.3,1c-1.9,0-3.6-0.4-5.2-1.1s-2.8-1.7-3.7-2.8c-0.9-1.2-1.4-2.3-1.4-3.6c0-0.2,0.1-0.4,0.2-0.6s0.3-0.2,0.5-0.2h4.4
		c0.5,0,0.9,0.2,1.3,0.5c0.1,0.1,0.2,0.3,0.5,0.6c0.3,0.3,0.7,0.7,1.3,0.9c0.6,0.3,1.3,0.4,2.1,0.4c2.8,0,4.1-0.6,4.1-1.9
		c0-0.4-0.2-0.8-0.6-1c-0.4-0.3-0.9-0.5-1.6-0.7s-1.8-0.5-3.4-0.8l-1.5-0.3c-2.3-0.5-3.9-1.4-5-2.6s-1.6-2.9-1.6-5
		c0-1.4,0.4-2.7,1.2-3.9c0.8-1.2,1.9-2.1,3.3-2.8s3.1-1.1,4.9-1.1s3.4,0.4,4.9,1.1s2.7,1.7,3.5,2.8c0.9,1.1,1.3,2.2,1.3,3.2
		C96,274.2,96,274.4,95.8,274.6z"/>
	<path class="st2" d="M100.3,292.2c-0.2-0.2-0.3-0.4-0.3-0.7v-23.3c0-0.3,0.1-0.5,0.3-0.7c0.2-0.2,0.4-0.3,0.6-0.3h4.4
		c0.2,0,0.5,0.1,0.6,0.3c0.2,0.2,0.3,0.4,0.3,0.7v23.3c0,0.3-0.1,0.5-0.3,0.7c-0.2,0.2-0.4,0.3-0.6,0.3h-4.4
		C100.7,292.5,100.5,292.4,100.3,292.2z"/>
	<path class="st2" d="M125.1,292.2c-0.2-0.2-0.4-0.4-0.5-0.6l-7.6-12.3v12.2c0,0.3-0.1,0.5-0.3,0.7c-0.2,0.2-0.4,0.3-0.6,0.3h-4.4
		c-0.2,0-0.5-0.1-0.6-0.3c-0.2-0.2-0.3-0.4-0.3-0.7v-23.3c0-0.3,0.1-0.5,0.3-0.7c0.2-0.2,0.4-0.3,0.6-0.3h3.5c0.3,0,0.6,0.1,0.9,0.3
		c0.2,0.2,0.4,0.4,0.5,0.6l7.6,12.3v-12.2c0-0.3,0.1-0.5,0.3-0.7c0.2-0.2,0.4-0.3,0.6-0.3h4.4c0.2,0,0.5,0.1,0.6,0.3
		c0.2,0.2,0.3,0.4,0.3,0.7v23.3c0,0.3-0.1,0.5-0.3,0.7s-0.4,0.3-0.6,0.3H126C125.7,292.5,125.4,292.4,125.1,292.2z"/>
	<path class="st2" d="M150.1,268.2c1.5,0.9,2.7,2,3.5,3.5s1.3,3.1,1.4,5c0,0.7,0.1,1.8,0.1,3.2c0,1.5,0,2.5-0.1,3.2
		c-0.1,1.8-0.5,3.5-1.4,5c-0.8,1.5-2,2.6-3.5,3.5s-3.4,1.3-5.5,1.3s-3.9-0.4-5.5-1.3c-1.5-0.9-2.7-2-3.5-3.5s-1.3-3.1-1.4-5
		c0-1.3-0.1-2.4-0.1-3.2c0-0.8,0-1.9,0.1-3.2c0.1-1.8,0.5-3.5,1.4-5c0.8-1.5,2-2.6,3.5-3.5s3.3-1.3,5.5-1.3
		C146.7,266.9,148.5,267.3,150.1,268.2z M147.6,273.8c-0.7-0.8-1.7-1.1-3-1.1s-2.3,0.4-3,1.1c-0.7,0.8-1.1,1.8-1.2,3
		c-0.1,0.8-0.1,1.8-0.1,3s0,2.2,0.1,3.1c0.1,1.3,0.5,2.3,1.2,3c0.7,0.8,1.7,1.1,3,1.1s2.3-0.4,3-1.1c0.7-0.8,1.1-1.8,1.2-3
		c0.1-0.9,0.1-1.9,0.1-3.1s0-2.2-0.1-3C148.7,275.6,148.3,274.6,147.6,273.8z"/>
	<path class="st2" d="M173.2,292.2c-0.2-0.2-0.4-0.4-0.5-0.6l-7.6-12.3v12.2c0,0.3-0.1,0.5-0.3,0.7s-0.4,0.3-0.6,0.3h-4.4
		c-0.2,0-0.5-0.1-0.6-0.3c-0.2-0.2-0.3-0.4-0.3-0.7v-23.3c0-0.3,0.1-0.5,0.3-0.7s0.4-0.3,0.6-0.3h3.5c0.3,0,0.6,0.1,0.9,0.3
		c0.2,0.2,0.4,0.4,0.5,0.6l7.6,12.3v-12.2c0-0.3,0.1-0.5,0.3-0.7s0.4-0.3,0.6-0.3h4.4c0.2,0,0.5,0.1,0.6,0.3
		c0.2,0.2,0.3,0.4,0.3,0.7v23.3c0,0.3-0.1,0.5-0.3,0.7s-0.4,0.3-0.6,0.3H174C173.7,292.5,173.4,292.4,173.2,292.2z"/>
</g>
<circle class="st3" cx="128" cy="128" r="106.6"/>
<g id="Layer_x0020_1">
	<g id="_1935074248496">
		<path class="st4" d="M34.6,158.9c9.1-2.1,19.6-6.2,28.9-9.2c5.5-1.7,25.4-9,29.3-8.9c0.9-0.9-1.3-0.8,2.5-1.1l7.2-2.8l0.5-6.9
			c-3.7-4.5-2.8-4.2-3-11.8c-0.1-4.5-0.3-9.2-0.5-13.7l-2.6-2.5c-0.9-1.2-0.8-1.2-2.2-2.4l0.1-11.9l2.3-0.1
			c-0.8-3.1-1.7-6.5-2.7-9.4c-0.6-1.6-1.1-3.1-1.6-4.7c-0.8-2.8-1.3-3.1,0.8-4.3l10.6-14c2.8-3.2,12.2-5,17.2-6.7
			c9.6-3.3,9.4-2.7,17.3,2.2c6.5,4.1,9,4.1,18.5,5.5c5.1,15.4,3.1,15.6,1.6,31.5l3.7,0.4c0.2,7.4,1.3,12.9-5.3,17.1l-0.8,22.5
			l-2.3,2.2l-0.1,6.4c1.5,2.2,3.4,2.1,6.3,2.4l2.4-2.3c3.1,0.7,13.5,2.4,15.4,5l0.3,0.9l0.3,0.9l2.1,0.8l2.2-2.3l12.5,2.9
			c3.1,0.8,2.3,0.1,3.4,2.3l0.5,1.9c6.9,2.3,6.4,0.4,11.3,5.3c2.6,2.5,6.5,6.4,9.2,8.4c5.9-10.5,7.4-38,5.1-50.8
			c-4-22.7-14.5-42.5-31-56.5c-1.3-1.1-2.1-2.4-3.5-3.5c-28.2-24.2-72.8-28.6-106.4-11.6L65.5,51.6c-1.3,1.1-2.1,2.4-3.5,3.5
			c-1.8,1.5-2.5,1.5-4.2,3.5C42.7,74.7,31.6,96.3,30,118.9v16.6C30.7,142.9,32.6,148.6,34.6,158.9L34.6,158.9z"/>
		<path class="st3" d="M164.3,215.2c-5.5-0.3-36.9-7.2-45.9-9.2c-18.1-4-15.4,0.8-21.3-14.9l-15.8-38.7c1.2,0.8-0.3-0.8,0.9,0.8
			l21,41.8c1.5,3.3,0.9,2.8,4.7,3.8L164.3,215.2L164.3,215.2z M132.4,225.5h-11.3c-7.9-0.5-15.8-1.9-23-4.3
			C82.9,216,70,208.4,58.6,197.4c-2-1.9-2.1-2.8-3.8-4.7c-16.5-18.5-15.3-25.7-20.2-33.8c9.1-2.1,19.6-6.2,28.9-9.2
			c5.5-1.7,25.4-9,29.3-8.9l23.4,31.7c3.1,4,8.1,3.3,12.8,6.2l12.4,3c0.8,0.6-0.6,0.2,1.6,0.9c0.7,0.2,1.2,0.3,1.8,0.5
			c1.8,0.5,2.6,0.8,4.5,1.4l11.9,3.5c0.6,0.5,0.5,0.7,1.7,1.1c0.2,0.1,2.1,0.4,2.4,0.5l12.4,3.7c4.5,1.4,13,3.3,16.2,5.6
			c-1.4,1.8-2.5,3-4.2,4.4C174.4,216.7,153.4,224.3,132.4,225.5z"/>
		<path class="st5" d="M136.1,105.2l2.9,0.4l0.1,7.5c-5.1-0.5-7.8-2.3-13.1-1.9l-9.7,2.1l0.1-7.1
			C124.2,103.6,128.5,102.2,136.1,105.2z M93.3,69.2c0.9,0.8-0.8,1.2,4.2-0.8c17.2-6.9,15.4-6.1,36-8.9c-0.2,0.1-1.2,0.7-1.4,0.8
			c-1.6,1.3-0.6,0.2-1.5,2.2l3.6,0.6l15.1,0.8c1.2,2,2.2,3.9,3.6,6.2c1.7,2.7,2.3,3.8,2.5,7.8l-4.7,0.2l-18.1,0.1l0.9,2.6l18.7,0.2
			c3.8,1.3-0.6,0.8,3.6,3.7c0.2,2.3,0.8,4.7-0.8,6c-0.3,3.9-5.5,22.5-8.2,24.3c-2.7-1.6-3.5-9.3-4.3-12.9c-1.7-1.5-4-2.5-6.5-3.5
			l-7.6,2.5c-7-0.1-8.2-5.2-15.8,0.8l-2.5,13c-2.8-0.8-0.9,1.2-2.4-1.8l-6-20.1c-0.8,0.9-1,0.2-1.1,3.9c-0.4,10.3,0.5,15.2,2.6,25.7
			c7.5,4.1,16.3,6.3,25.3,9.3l0.1,6.5c21.6-0.7,12-0.4,25.1-9l2.3-2.2l0.8-22.5l1.7-17.4c1.5-15.9,3.5-16.1-1.6-31.5
			c-9.4-1.4-12-1.4-18.5-5.5c-7.8-4.9-7.5-5.5-17.3-2.2c-5,1.7-14.2,3.5-17.2,6.7L93.3,69.2L93.3,69.2z"/>
		<path class="st6" d="M161.2,188.2c0.6,0.5,0.5,0.7,1.7,1.1c0.2,0.1,2.1,0.4,2.4,0.5l12.4,3.7c4.5,1.4,13,3.3,16.2,5.6
			c3.3-1,12.1-12.8,14.6-16.2l8.3-14.9c1-2.1,1.4-3.5,2.3-5.7c-2.7-1.9-6.6-5.8-9.2-8.4c-4.9-4.8-4.4-3-11.3-5.3l-1-0.3
			c-4.1,0.6-0.9-1.2-3.7,1.9l-22.2,28.1c-2.8,3.6-5.1,6.2-8,10L161.2,188.2z"/>
		<path class="st6" d="M128.6,138.8l-14.5-0.3c1.3,1.1-2,0.8,2.9,1.4l19.2-0.3c-6.6,2.4-13.9,6-20.6,8.2c-3.4,1.1-16.6-6.2-20.2-8.2
			c-3.9,0.4-1.5,0.3-2.5,1.1l23.4,31.7c3.1,4,8.1,3.3,12.8,6.2c0-4.1,20-26.3,23.2-30.5c2.4-3.1,6-7,7.6-10
			c-2.8-0.2-4.8-0.2-6.3-2.4l0.1-6.4C140.5,138.4,150.1,138.1,128.6,138.8L128.6,138.8z"/>
		<path class="st7" d="M159.8,138.5c-1.7,3-5.3,6.9-7.6,10c-3.1,4.1-23.1,26.3-23.2,30.5l12.4,3l2.5,0.1c2.9-3.1,5.5-6.4,8-9.8
			l19.5-24.6c3.8-4.8,2.5-3.8,5-4.4l-0.4-1.8l1.5-0.3c-1.9-2.5-12.3-4.2-15.4-5L159.8,138.5L159.8,138.5z"/>
		<path class="st7" d="M180.2,143.8l-23.3,30.4c-2,2.3-6.7,7.8-7.5,10.5l11.9,3.5l2.5,0.2c2.9-3.8,5.2-6.5,8-10l22.2-28.1
			c2.7-3.1-0.4-1.3,3.7-1.9c-1.7-2,1.8-0.8-1.4-1.5c1.2-0.7,0.2-0.5,2-0.2c-1.1-2.3-0.3-1.4-3.4-2.3l-12.5-2.9L180.2,143.8
			L180.2,143.8z"/>
		<path class="st6" d="M128.4,101.3l7.6-2.5c2.5,1.1,4.7,2,6.5,3.5c0.8,3.6,1.6,11.3,4.3,12.9c2.7-1.8,7.8-20.5,8.2-24.3l-2.5-6
			c-1.8,1.4-0.9,0.7-3.4,1c-3,0.4-2.1-0.6-3.1,1.4c-0.8,1.4,0.1,0.8-1.6,1.3l-3.1,0.4c-1.5-1.6-0.7,2.4-1.5-2.1l-5.5,0.4
			c-0.4-1.5-1.8-4,0-4.1l-0.8-2.3l-0.9-2.6l18.1-0.1l-2.9-10.7c-2.4-0.5-11.4-2.8-13.6-4.4l-3.6-0.6c-1.3-0.2-3-1-3,0.8
			C129,65.3,128.6,96.8,128.4,101.3L128.4,101.3z"/>
		<path class="st8" d="M103.8,78.1l19.7,0.1l-0.7,1.9l-0.8,2.1c1.4,1.4,0.6-0.8,1,1.8l-2.2,3.5l-5.9,0.9l-3.4,0.3
			c-1.4-0.5-0.9,0.1-1.5-1.2c-1.2-1.6,0.1-0.8-2-1.4c-0.1,0-1.7-0.1-2-0.1c-1.9-0.2-1.8,0-3.3-0.8c-1,1.1-1.3,1.6-1.6,3.9
			c-0.3,2.3,0,2.4,0.7,4.2l6,20.1c1.5,3-0.5,0.9,2.4,1.8l2.5-13c7.5-5.9,8.8-0.9,15.8-0.8c0.1-4.5,0.6-36-0.8-37.9
			c-3.2-0.1-10.3,3.7-13.9,5.1C107,71,104.6,70.1,103.8,78.1z"/>
		<path class="st9" d="M93.3,69.2c-2.1,1.2-1.5,1.5-0.8,4.3c0.4,1.6,1,3,1.6,4.7c1,2.9,2,6.4,2.7,9.4c2,6,2.5,9.7,2.5,16.9
			c0.3,4.4,0.4,9.2,0.5,13.7c0.2,7.5-0.7,7.3,3,11.8c1.9,0.9,9,6.6,11.1,8.5l14.5,0.3l-0.1-6.5c-8.9-3-17.7-5.3-25.3-9.3
			c-2.2-10.6-3-15.4-2.6-25.7c0.1-3.8,0.3-3,1.1-3.9c-0.7-1.9-0.9-2.1-0.7-4.2c0.3-2.3,0.6-2.8,1.6-3.9c0.9-1.4-1-0.3,1.1-0.9
			l6.9-0.1c8.5,0,8.2,0.9,11.3-1.9l0.8-2.1c-3,2.1-19,1.7-23.8,0.6v-2.7l4.6,0.3c0.8-8,3.1-7.1,9.9-9.7c3.6-1.4,10.7-5.2,13.9-5.1
			c0-1.8,1.7-0.9,3-0.8c0.9-2-0.1-0.8,1.5-2.2c0.2-0.2,1.2-0.7,1.4-0.8c-20.7,2.7-18.9,2.1-36,8.9C92.5,70.5,94.2,69.9,93.3,69.2z"
			/>
		<path class="st10" d="M164.3,215.2L108,198.8c-3.8-0.9-3.2-0.5-4.7-3.8l-21-41.8c-1.1-1.5,0.3,0-0.9-0.8l15.8,38.7
			c5.9,15.7,3.2,10.8,21.3,14.9C127.4,208,158.8,214.9,164.3,215.2z"/>
		<path class="st11" d="M95.3,139.7c3.6,2,16.8,9.2,20.2,8.2c6.7-2.2,14-5.8,20.6-8.2l-19.2,0.3c-4.9-0.6-1.6-0.3-2.9-1.4
			c-2.2-1.9-9.2-7.5-11.1-8.5l-0.5,6.9C102.4,136.9,95.3,139.7,95.3,139.7z"/>
		<path class="st12" d="M176.3,143.2c-2.5,0.8-1.2-0.4-5,4.4l-19.5,24.6c-2.5,3.3-5.1,6.6-8,9.8l-2.5-0.1c0.8,0.6-0.6,0.2,1.6,0.9
			c0.7,0.2,1.2,0.3,1.8,0.5c1.8,0.5,2.6,0.8,4.5,1.4c0.8-2.6,5.6-8.3,7.5-10.5l23.3-30.3l-2.1-0.8l-0.3-0.9l0.2,1.2L176.3,143.2
			L176.3,143.2z"/>
		<path class="st13" d="M126.1,111.2l3.8-2.5c-3.5,0.2-5.6,0.7-6.5-2.7c2.5-0.3,7.9-0.8,9.2,0.7l4.5,0.4c1.3-0.1,1.2-0.3,1.8-0.6
			l-2.9-1.4c-7.6-3-11.9-1.5-19.6,1l-0.1,7.1L126.1,111.2z"/>
		<path class="st9" d="M150.7,78.1l4.7-0.2c-0.2-4.1-0.8-5.1-2.5-7.8c-1.4-2.4-2.4-4.2-3.6-6.2l-15.1-0.8c2.2,1.5,11.2,4,13.6,4.4
			C147.8,67.5,150.7,78.1,150.7,78.1z"/>
		<path class="st14" d="M122.9,80.2l0.7-1.9l-19.7-0.1l-4.6-0.3v2.7C103.9,81.9,119.8,82.2,122.9,80.2z"/>
		<path class="st15" d="M134.4,83.2c6.9,1.2,6.7,0.9,14,0.9c0.4,0,2.1,0,2.4,0c3.1,0.4,1.2,0.1,1.9,0.8l2.5,6c1.6-1.3,1-3.8,0.8-6
			c-4.2-2.9,0.2-2.4-3.6-3.7L133.7,81L134.4,83.2z"/>
		<path class="st16" d="M156.6,105.1c6.6-4.2,5.5-9.6,5.3-17.1l-3.7-0.4L156.6,105.1z"/>
		<path class="st16" d="M99.3,104.5c0.1-7.1-0.5-10.8-2.5-16.9l-2.3,0.1l-0.1,12c1.4,1.1,1.2,1,2.2,2.4L99.3,104.5z"/>
		<path class="st17" d="M102.7,85.1c1.6,0.8,1.5,0.6,3.3,0.8c0.2,0,1.9,0.1,2,0.1c2.1,0.6,0.8-0.1,2,1.4c1.8-1.3,4.7-3.1,4.9,1
			l5.9-0.9l2.2-3.5c-0.6-2.5,0.3-0.4-1-1.8c-3,2.8-2.7,1.9-11.3,1.9l-6.9,0.1C101.7,84.8,103.7,83.7,102.7,85.1z"/>
		<path class="st16" d="M132.7,106.7c-1.1,1.5-0.4,1.3-2.7,2.1l-3.8,2.5c5.3-0.3,8,1.4,13.1,1.9l-0.1-7.5l-2.9-0.4l2.9,1.4
			c-0.7,0.3-0.6,0.5-1.8,0.6L132.7,106.7L132.7,106.7z"/>
		<path class="st17" d="M141.5,88.9c0.1-4.5,2.7-3.1,4.6-1.7c1-2,0.1-1,3.1-1.4c2.5-0.3,1.6,0.4,3.4-1c-0.7-0.7,1.2-0.4-1.9-0.8
			c-0.3,0-1.9,0-2.4,0c-7.3,0-7.1,0.3-14-0.9c-1.8,0-0.4,2.5,0,4.1l5.5-0.4C140.8,91.3,140,87.4,141.5,88.9L141.5,88.9z"/>
		<path class="st18" d="M129.9,108.8c2.4-0.8,1.7-0.6,2.7-2.1c-1.3-1.4-6.8-0.9-9.2-0.7C124.3,109.4,126.4,108.9,129.9,108.8z"/>
		<path class="st18" d="M110,87.4c0.6,1.4,0.1,0.8,1.5,1.2l3.4-0.3C114.7,84.2,111.8,86.1,110,87.4z"/>
		<path class="st18" d="M141.5,88.9l3.1-0.4c1.7-0.5,0.8,0.2,1.6-1.3C144.2,85.8,141.5,84.4,141.5,88.9z"/>
		<polygon class="st19" points="176.3,143.2 178.1,143.4 177.8,142.2 177.5,141.2 176,141.4 		"/>
		<path class="st19" d="M197.6,148.5l1,0.3l-0.5-1.9c-1.8-0.3-0.8-0.5-2,0.2C199.4,147.6,195.9,146.5,197.6,148.5L197.6,148.5z"/>
	</g>
</g>
</svg>
