<?xml version="1.0" encoding="utf-8"?>
<!-- Generator: Adobe Illustrator 24.3.0, SVG Export Plug-In . SVG Version: 6.00 Build 0)  -->
<svg version="1.1" id="Layer_1" xmlns="http://www.w3.org/2000/svg" xmlns:xlink="http://www.w3.org/1999/xlink" x="0px" y="0px"
	 viewBox="0 0 256 300" style="enable-background:new 0 0 256 300;" xml:space="preserve">
<style type="text/css">
	.st0{fill:#FFFFFF;}
	.st1{fill:#173647;}
	.st2{fill:#231F20;}
	.st3{fill:#85EA2D;}
</style>
<path class="st0" d="M27.5,162.6h201c15.2,0,27.5,12.3,27.5,27.5v82.4c0,15.2-12.3,27.5-27.5,27.5h-201C12.3,300,0,287.7,0,272.5
	v-82.4C0,174.9,12.3,162.6,27.5,162.6z"/>
<path class="st1" d="M60,0h136c33.1,0,60,26.9,60,60v136c0,33.1-26.9,60-60,60H60c-33.1,0-60-26.9-60-60V60C0,26.9,26.8,0,60,0z"/>
<g>
	<path class="st2" d="M66.5,274.6c-0.1,0.2-0.3,0.2-0.5,0.2h-4.4c-0.3,0-0.6,0-0.7-0.1c-0.2-0.1-0.4-0.2-0.6-0.5
		c0,0-0.2-0.2-0.4-0.5s-0.6-0.5-1.1-0.7s-1.1-0.3-1.8-0.3c-1,0-1.7,0.1-2.3,0.4s-0.9,0.8-0.9,1.4c0,0.5,0.2,0.9,0.6,1.1
		c0.4,0.3,1,0.5,1.7,0.7c0.8,0.2,2.2,0.5,4.1,1c2.5,0.6,4.3,1.4,5.5,2.6s1.8,2.9,1.8,5c0,1.6-0.4,3-1.3,4.2s-2.1,2.1-3.7,2.7
		c-1.6,0.6-3.3,1-5.3,1c-1.9,0-3.6-0.4-5.2-1.1c-1.6-0.7-2.8-1.7-3.7-2.8c-0.9-1.2-1.4-2.3-1.4-3.6c0-0.2,0.1-0.4,0.2-0.6
		c0.1-0.2,0.3-0.2,0.5-0.2H52c0.5,0,0.9,0.2,1.3,0.5c0.1,0.1,0.2,0.3,0.5,0.6c0.3,0.3,0.7,0.7,1.3,0.9c0.6,0.3,1.3,0.4,2.1,0.4
		c2.8,0,4.1-0.6,4.1-1.9c0-0.4-0.2-0.8-0.6-1c-0.4-0.3-0.9-0.5-1.6-0.7c-0.7-0.2-1.8-0.5-3.4-0.8l-1.5-0.3c-2.3-0.5-3.9-1.4-5-2.6
		s-1.6-2.9-1.6-5c0-1.4,0.4-2.7,1.2-3.9c0.8-1.2,1.9-2.1,3.3-2.8s3.1-1.1,4.9-1.1c1.8,0,3.4,0.4,4.9,1.1s2.7,1.7,3.5,2.8
		c0.9,1.1,1.3,2.2,1.3,3.2C66.7,274.2,66.6,274.4,66.5,274.6z"/>
	<path class="st2" d="M87.6,268.2c0.1-0.3,0.2-0.6,0.4-0.7s0.4-0.2,0.6-0.2H93c0.2,0,0.4,0.1,0.5,0.2c0.1,0.2,0.2,0.3,0.2,0.6v0.3
		l-4.3,22.8c0,0.3-0.2,0.6-0.5,0.9s-0.7,0.4-1.1,0.4H85c-0.4,0-0.8-0.1-1.1-0.4c-0.3-0.3-0.5-0.6-0.6-1l-2.5-8.1l-2.5,8.1
		c-0.1,0.4-0.3,0.7-0.6,1c-0.3,0.3-0.6,0.4-1.1,0.4h-2.8c-0.4,0-0.8-0.1-1.1-0.4c-0.3-0.3-0.5-0.6-0.5-0.9l-4.3-22.8v-0.3
		c0-0.2,0.1-0.4,0.2-0.6s0.3-0.2,0.5-0.2H73c0.2,0,0.5,0.1,0.6,0.2c0.2,0.2,0.3,0.4,0.4,0.7l2.1,12.2l2-6.5c0.2-0.7,0.6-1,1.1-1h3.1
		c0.5,0,0.9,0.3,1.1,1l2,6.5L87.6,268.2z"/>
	<path class="st2" d="M117.5,291.1c0.1,0.2,0.1,0.4,0.1,0.5c0,0.2-0.1,0.4-0.2,0.6s-0.3,0.2-0.5,0.2h-4.2c-0.4,0-0.7-0.1-0.9-0.3
		c-0.2-0.2-0.3-0.4-0.4-0.6l-0.9-3h-8.9l-0.9,3c-0.1,0.2-0.2,0.5-0.4,0.6c-0.2,0.2-0.5,0.3-0.9,0.3h-4.2c-0.2,0-0.4-0.1-0.5-0.2
		c-0.1-0.2-0.2-0.3-0.2-0.6c0-0.1,0-0.3,0.1-0.5l7.3-22.7c0.1-0.3,0.3-0.6,0.5-0.8c0.2-0.2,0.6-0.3,1-0.3h5.4c0.4,0,0.7,0.1,1,0.3
		c0.2,0.2,0.4,0.5,0.5,0.8L117.5,291.1z M108.7,283l-2.7-8.6l-2.7,8.6H108.7z"/>
	<path class="st2" d="M125.5,279.6c0,1.5,0,2.6,0.1,3.3c0.1,1.2,0.5,2.2,1.1,3c0.7,0.8,1.7,1.2,3.1,1.2c1.3,0,2.3-0.3,3-1
		c0.8-0.6,1.1-1.6,1.1-3h-2.8c-0.2,0-0.5-0.1-0.6-0.3c-0.2-0.2-0.3-0.4-0.3-0.7v-3.8c0-0.3,0.1-0.5,0.3-0.7s0.4-0.3,0.6-0.3h8.1
		c0.2,0,0.5,0.1,0.6,0.3c0.2,0.2,0.3,0.4,0.3,0.7v4.6c0,2-0.5,3.7-1.4,5.2s-2.1,2.7-3.7,3.5s-3.3,1.2-5.3,1.2
		c-2.1,0-3.9-0.4-5.4-1.3s-2.7-2.1-3.6-3.5c-0.8-1.5-1.3-3.1-1.4-4.9c0-1.2-0.1-2.1-0.1-2.8c0-0.9,0-2.1,0.1-3.6
		c0.1-1.8,0.5-3.4,1.4-4.9c0.8-1.5,2-2.7,3.6-3.5c1.5-0.9,3.3-1.3,5.4-1.3c2,0,3.7,0.4,5.2,1.2s2.7,1.8,3.6,3
		c0.9,1.2,1.3,2.4,1.4,3.5c0,0.2,0,0.4-0.2,0.6s-0.3,0.2-0.5,0.2h-4.4c-0.3,0-0.5-0.1-0.7-0.2s-0.4-0.4-0.6-0.7
		c-0.4-0.5-0.9-0.9-1.4-1.3c-0.5-0.3-1.3-0.5-2.3-0.5c-2.5,0-3.9,1.4-4.2,4.2C125.6,277.4,125.5,278.3,125.5,279.6z"/>
	<path class="st2" d="M149.2,279.6c0,1.5,0,2.6,0.1,3.3c0.1,1.2,0.5,2.2,1.1,3c0.7,0.8,1.7,1.2,3.1,1.2c1.3,0,2.3-0.3,3-1
		c0.8-0.6,1.1-1.6,1.1-3h-2.8c-0.2,0-0.5-0.1-0.6-0.3c-0.2-0.2-0.3-0.4-0.3-0.7v-3.8c0-0.3,0.1-0.5,0.3-0.7s0.4-0.3,0.6-0.3h8.1
		c0.2,0,0.5,0.1,0.6,0.3c0.2,0.2,0.3,0.4,0.3,0.7v4.6c0,2-0.5,3.7-1.4,5.2s-2.1,2.7-3.7,3.5c-1.6,0.8-3.3,1.2-5.3,1.2
		c-2.1,0-3.9-0.4-5.4-1.3s-2.7-2.1-3.6-3.5c-0.8-1.5-1.3-3.1-1.4-4.9c0-1.2-0.1-2.1-0.1-2.8c0-0.9,0-2.1,0.1-3.6
		c0.1-1.8,0.5-3.4,1.4-4.9c0.8-1.5,2-2.7,3.6-3.5c1.5-0.9,3.3-1.3,5.4-1.3c2,0,3.7,0.4,5.2,1.2s2.7,1.8,3.6,3
		c0.9,1.2,1.3,2.4,1.4,3.5c0,0.2,0,0.4-0.2,0.6s-0.3,0.2-0.5,0.2h-4.4c-0.3,0-0.5-0.1-0.7-0.2c-0.2-0.2-0.4-0.4-0.6-0.7
		c-0.4-0.5-0.9-0.9-1.4-1.3c-0.5-0.3-1.3-0.5-2.3-0.5c-2.5,0-3.9,1.4-4.2,4.2C149.2,277.4,149.2,278.3,149.2,279.6z"/>
	<path class="st2" d="M173.8,286.7h10.5c0.2,0,0.5,0.1,0.6,0.3c0.2,0.2,0.3,0.4,0.3,0.7v3.8c0,0.3-0.1,0.5-0.3,0.7s-0.4,0.3-0.6,0.3
		h-15.8c-0.2,0-0.5-0.1-0.6-0.3c-0.2-0.2-0.3-0.4-0.3-0.7v-23.3c0-0.3,0.1-0.5,0.3-0.7s0.4-0.3,0.6-0.3H184c0.2,0,0.5,0.1,0.6,0.3
		c0.2,0.2,0.3,0.4,0.3,0.7v3.8c0,0.3-0.1,0.5-0.3,0.7s-0.4,0.3-0.6,0.3h-10.2v3.9h9.5c0.2,0,0.5,0.1,0.6,0.3
		c0.2,0.2,0.3,0.4,0.3,0.7v3.8c0,0.3-0.1,0.5-0.3,0.7s-0.4,0.3-0.6,0.3h-9.5V286.7z"/>
	<path class="st2" d="M205.8,269.3c1.6,1.4,2.5,3.4,2.5,6.2c0,3.5-1.3,5.9-4,7.2l4.1,8.6c0.1,0.1,0.1,0.3,0.1,0.4
		c0,0.2-0.1,0.4-0.2,0.6c-0.1,0.2-0.3,0.2-0.5,0.2h-4.5c-0.4,0-0.7-0.1-0.9-0.3c-0.2-0.2-0.4-0.4-0.5-0.7l-3.7-7.7h-3.1v7.7
		c0,0.3-0.1,0.5-0.3,0.7s-0.4,0.3-0.6,0.3h-4.4c-0.2,0-0.5-0.1-0.6-0.3c-0.2-0.2-0.3-0.4-0.3-0.7v-23.3c0-0.3,0.1-0.5,0.3-0.7
		s0.4-0.3,0.6-0.3h9C201.9,267.3,204.2,268,205.8,269.3z M198.9,278.2c2.2,0,3.2-0.9,3.2-2.7c0-1.8-1.1-2.7-3.2-2.7h-3.8v5.3h3.8
		V278.2z"/>
</g>
<path class="st3" d="M128.2,232.6c-57.7,0-104.6-46.9-104.6-104.6S70.5,23.3,128.2,23.3s104.6,46.9,104.6,104.6
	S185.9,232.6,128.2,232.6z"/>
<g>
	<g>
		<g>
			<path class="st1" d="M128.2,28.5c54.9,0,99.4,44.5,99.4,99.4s-44.5,99.4-99.4,99.4s-99.4-44.5-99.4-99.4
				C28.8,73,73.3,28.5,128.2,28.5 M128.2,18C67.6,18,18.3,67.3,18.3,127.9s49.3,109.9,109.9,109.9s109.9-49.3,109.9-109.9
				S188.8,18,128.2,18L128.2,18z"/>
		</g>
	</g>
</g>
<path class="st1" d="M87.5,92.4c-0.4,3.8,0.1,7.7-0.1,11.5c-0.3,3.8-0.7,7.6-1.5,11.3c-1.1,5.3-4.4,9.4-9,12.8
	c9,5.8,9.9,14.8,10.6,24.1c0.3,5,0.2,9.9,0.6,14.8c0.4,3.8,1.9,4.8,5.8,4.9c1.6,0,3.3,0,5.2,0v11.8c-11.6,2-21.3-1.3-23.6-11.1
	c-0.7-3.6-1.3-7.2-1.4-10.9c-0.3-3.9,0.2-7.9-0.1-11.8c-0.8-10.8-2.3-14.4-12.6-14.9v-13.4c0.7-0.2,1.4-0.3,2.3-0.4
	c5.7-0.3,8-2,9.3-7.6c0.6-3.2,0.9-6.3,1.1-9.5c0.5-6.1,0.3-12.4,1.3-18.4c1.4-8.8,6.9-12.9,15.9-13.5c2.5-0.1,5.2,0,8,0v12
	c-1.3,0.1-2.3,0.3-3.3,0.3C88.4,83.9,88,86.3,87.5,92.4z M101.6,120.2h-0.2c-4.3-0.2-7.9,3.1-8,7.3c-0.2,4.3,3.1,7.9,7.3,8.1h0.5
	c4.2,0.3,7.8-3,8-7.1v-0.5C109.3,123.8,105.9,120.3,101.6,120.2z M128,120.2c-4.1-0.1-7.5,3.1-7.7,7.1c0,0.3,0,0.5,0,0.7
	c0,4.6,3.2,7.6,7.9,7.6c4.6,0,7.6-3.1,7.6-7.8C135.8,123.2,132.7,120.2,128,120.2z M155.1,120.2c-4.3-0.1-7.9,3.3-8,7.7
	c0,4.3,3.4,7.8,7.8,7.8h0.1c3.9,0.6,7.8-3.1,8-7.6C163.3,123.8,159.5,120.2,155.1,120.2z M192.4,120.8c-4.9-0.2-7.3-1.9-8.6-6.5
	c-0.7-3-1.3-6.1-1.4-9c-0.4-5.7-0.3-11.4-0.6-17c-0.9-13.5-10.6-18.1-24.7-15.8v11.7c2.3,0,4,0,5.7,0c3,0,5.2,1.2,5.6,4.5
	c0.3,3.1,0.3,6.1,0.6,9.2c0.6,6.1,0.9,12.3,2,18.4c0.9,5,4.3,8.7,8.6,11.8c-7.5,5.1-9.7,12.2-10,20.3c-0.2,5.5-0.4,11.1-0.6,16.7
	c-0.3,5.1-2,6.7-7.1,6.9c-1.4,0-2.8,0.2-4.4,0.3v11.9c3,0,5.8,0.2,8.5,0c8.5-0.5,13.7-4.6,15.4-12.9c0.7-4.5,1.2-9.1,1.3-13.7
	c0.3-4.3,0.3-8.5,0.6-12.7c0.6-6.5,3.6-9.2,10.2-9.7c0.6-0.1,1.3-0.2,1.8-0.5v-13.4C193.9,121,193.2,120.8,192.4,120.8z"/>
</svg>
