<?xml version="1.0" encoding="utf-8"?>
<!-- Generator: Adobe Illustrator 24.3.0, SVG Export Plug-In . SVG Version: 6.00 Build 0)  -->
<svg version="1.1" id="Layer_1" xmlns="http://www.w3.org/2000/svg" xmlns:xlink="http://www.w3.org/1999/xlink" x="0px" y="0px"
	 viewBox="0 0 256 300" style="enable-background:new 0 0 256 300;" xml:space="preserve">
<style type="text/css">
	.st0{fill:#FFFFFF;}
	.st1{fill:#242938;}
	.st2{fill:#231F20;}
	.st3{fill:#564740;}
	.st4{fill:#483A34;}
	.st5{fill:#AAD9BD;}
	.st6{fill:#F6E3D6;}
	.st7{fill:#FAF1EA;}
	.st8{fill:#63C199;}
	.st9{fill:#C5E4D0;}
	.st10{fill:#A8E1C2;}
	.st11{fill:#FBF8F5;}
	.st12{fill:#8CD7AF;}
	.st13{fill:#F5E0D3;}
</style>
<path class="st0" d="M27.5,162.6h201c15.2,0,27.5,12.3,27.5,27.5v82.4c0,15.2-12.3,27.5-27.5,27.5h-201C12.3,300,0,287.7,0,272.5
	v-82.4C0,174.9,12.3,162.6,27.5,162.6z"/>
<path class="st1" d="M60,0h136c33.1,0,60,26.9,60,60v136c0,33.1-26.9,60-60,60H60c-33.1,0-60-26.9-60-60V60C0,26.9,26.8,0,60,0z"/>
<g>
	<path class="st2" d="M91,274.6c-0.1,0.2-0.3,0.2-0.5,0.2h-4.4c-0.3,0-0.6,0-0.7-0.1c-0.2-0.1-0.4-0.2-0.6-0.5c0,0-0.2-0.2-0.4-0.5
		c-0.2-0.3-0.6-0.5-1.1-0.7s-1.1-0.3-1.8-0.3c-1,0-1.7,0.1-2.3,0.4c-0.6,0.3-0.9,0.8-0.9,1.4c0,0.5,0.2,0.9,0.6,1.1
		c0.4,0.3,1,0.5,1.7,0.7c0.8,0.2,2.2,0.5,4.1,1c2.5,0.6,4.3,1.4,5.5,2.6s1.8,2.9,1.8,5c0,1.6-0.4,3-1.3,4.2s-2.1,2.1-3.7,2.7
		s-3.3,1-5.3,1c-1.9,0-3.6-0.4-5.2-1.1s-2.8-1.7-3.7-2.8c-0.9-1.2-1.4-2.3-1.4-3.6c0-0.2,0.1-0.4,0.2-0.6s0.3-0.2,0.5-0.2h4.4
		c0.5,0,0.9,0.2,1.3,0.5c0.1,0.1,0.2,0.3,0.5,0.6c0.3,0.3,0.7,0.7,1.3,0.9c0.6,0.3,1.3,0.4,2.1,0.4c2.8,0,4.1-0.6,4.1-1.9
		c0-0.4-0.2-0.8-0.6-1c-0.4-0.3-0.9-0.5-1.6-0.7s-1.8-0.5-3.4-0.8l-1.5-0.3c-2.3-0.5-3.9-1.4-5-2.6s-1.6-2.9-1.6-5
		c0-1.4,0.4-2.7,1.2-3.9c0.8-1.2,1.9-2.1,3.3-2.8s3.1-1.1,4.9-1.1s3.4,0.4,4.9,1.1s2.7,1.7,3.5,2.8c0.9,1.1,1.3,2.2,1.3,3.2
		C91.2,274.2,91.2,274.4,91,274.6z"/>
	<path class="st2" d="M115,267.6c0.2,0.2,0.3,0.4,0.3,0.7v14.4c0,2.2-0.4,4-1.3,5.5c-0.8,1.5-2,2.7-3.5,3.5s-3.3,1.2-5.3,1.2
		s-3.8-0.4-5.3-1.2c-1.5-0.8-2.7-2-3.5-3.5s-1.2-3.4-1.2-5.5v-14.4c0-0.3,0.1-0.5,0.3-0.7c0.2-0.2,0.4-0.3,0.6-0.3h4.4
		c0.2,0,0.5,0.1,0.6,0.3c0.2,0.2,0.3,0.4,0.3,0.7v14.2c0,1.5,0.3,2.6,1,3.4s1.7,1.2,2.9,1.2c1.3,0,2.3-0.4,2.9-1.2
		c0.7-0.8,1-1.9,1-3.4v-14.2c0-0.3,0.1-0.5,0.3-0.7c0.2-0.2,0.4-0.3,0.6-0.3h4.4C114.6,267.3,114.8,267.4,115,267.6z"/>
	<path class="st2" d="M136.5,269.3c1.6,1.4,2.5,3.4,2.5,6.2c0,3.5-1.3,5.9-4,7.2l4.1,8.6c0.1,0.1,0.1,0.3,0.1,0.4
		c0,0.2-0.1,0.4-0.2,0.6c-0.1,0.2-0.3,0.2-0.5,0.2H134c-0.4,0-0.7-0.1-0.9-0.3c-0.2-0.2-0.4-0.4-0.5-0.7l-3.7-7.7h-3.1v7.7
		c0,0.3-0.1,0.5-0.3,0.7c-0.2,0.2-0.4,0.3-0.6,0.3h-4.4c-0.2,0-0.5-0.1-0.6-0.3c-0.2-0.2-0.3-0.4-0.3-0.7v-23.3
		c0-0.3,0.1-0.5,0.3-0.7c0.2-0.2,0.4-0.3,0.6-0.3h9C132.6,267.3,134.9,268,136.5,269.3z M129.6,278.2c2.2,0,3.2-0.9,3.2-2.7
		c0-1.8-1.1-2.7-3.2-2.7h-3.8v5.3h3.8V278.2z"/>
	<path class="st2" d="M148,279.6c0,1.5,0,2.6,0.1,3.3c0.1,1.2,0.5,2.2,1.1,3c0.7,0.8,1.7,1.2,3.1,1.2c1.3,0,2.3-0.3,3-1
		c0.8-0.6,1.1-1.6,1.1-3h-2.8c-0.2,0-0.5-0.1-0.6-0.3c-0.2-0.2-0.3-0.4-0.3-0.7v-3.8c0-0.3,0.1-0.5,0.3-0.7s0.4-0.3,0.6-0.3h8.1
		c0.2,0,0.5,0.1,0.6,0.3c0.2,0.2,0.3,0.4,0.3,0.7v4.6c0,2-0.5,3.7-1.4,5.2s-2.1,2.7-3.7,3.5c-1.6,0.8-3.3,1.2-5.3,1.2
		c-2.1,0-3.9-0.4-5.4-1.3s-2.7-2.1-3.6-3.5c-0.8-1.5-1.3-3.1-1.4-4.9c0-1.2-0.1-2.1-0.1-2.8c0-0.9,0-2.1,0.1-3.6
		c0.1-1.8,0.5-3.4,1.4-4.9c0.8-1.5,2-2.7,3.6-3.5c1.5-0.9,3.3-1.3,5.4-1.3c2,0,3.7,0.4,5.2,1.2s2.7,1.8,3.6,3
		c0.9,1.2,1.3,2.4,1.4,3.5c0,0.2,0,0.4-0.2,0.6s-0.3,0.2-0.5,0.2h-4.4c-0.3,0-0.5-0.1-0.7-0.2c-0.2-0.2-0.4-0.4-0.6-0.7
		c-0.4-0.5-0.9-0.9-1.4-1.3c-0.5-0.3-1.3-0.5-2.3-0.5c-2.5,0-3.9,1.4-4.2,4.2C148.1,277.4,148,278.3,148,279.6z"/>
	<path class="st2" d="M172.6,286.7h10.5c0.2,0,0.5,0.1,0.6,0.3c0.2,0.2,0.3,0.4,0.3,0.7v3.8c0,0.3-0.1,0.5-0.3,0.7s-0.4,0.3-0.6,0.3
		h-15.8c-0.2,0-0.5-0.1-0.6-0.3c-0.2-0.2-0.3-0.4-0.3-0.7v-23.3c0-0.3,0.1-0.5,0.3-0.7s0.4-0.3,0.6-0.3h15.5c0.2,0,0.5,0.1,0.6,0.3
		c0.2,0.2,0.3,0.4,0.3,0.7v3.8c0,0.3-0.1,0.5-0.3,0.7s-0.4,0.3-0.6,0.3h-10.2v3.9h9.5c0.2,0,0.5,0.1,0.6,0.3
		c0.2,0.2,0.3,0.4,0.3,0.7v3.8c0,0.3-0.1,0.5-0.3,0.7s-0.4,0.3-0.6,0.3h-9.5V286.7z"/>
</g>
<g>
	<path class="st3" d="M195.5,72.8c-1.5-1.2-3.2-2.7-7.7-3.9v-0.1c6.6-16.8,2-23.5-4.3-28.8c-4.6-3.8-12.6-4.6-18.8-3.2
		c-6.7-12.5-22.1-16.9-36.6-17c-14.5,0.1-29.9,4.5-36.7,16.9c-6.2-1.4-14.2-0.6-18.8,3.2c-6.3,5.3-10.8,11.9-4.3,28.8v0.1
		c-4.6,1.2-6.2,2.7-7.7,4c-3.3,2.5-6.1,6.5-6.1,12.4c0.3,9.3,7.7,80.1,7.7,80.1c0,0.2,0.2,0.4,0.4,0.4c0.1,0,0.2-0.1,0.2-0.1
		l6.7-6.2v10.1c0,0.2,0.2,0.4,0.4,0.4c0.1,0,0.2,0,0.2-0.1l11.3-9.8v5.9c0,0.2,0.2,0.4,0.4,0.4c0.1,0,0.2-0.1,0.2-0.1l6.4-6.1
		l4.4-4.2c0.2,22.6-0.6,50-4.5,75.6c-0.6,4.1,1.7,5.1,3.7,5.1c1.1,0,2.1-0.3,2.6-0.6c6.2-3.3,11.4-16.3,14.8-30.9
		c2.8-12.1,6-27.8,9-46.9c1.4,0.7,5.4,1.9,9.4,1.9s8-1.2,9.4-1.9c2.9,19,6.1,34.8,9,46.9c3.4,14.5,8.6,27.6,14.8,30.9
		c0.5,0.2,1.5,0.6,2.6,0.6c2,0,4.4-1,3.7-5.1c-3.9-25.5-4.8-52.9-4.5-75.6l4.4,4.2l6.4,6.1c0.1,0.1,0.2,0.1,0.2,0.1
		c0.2,0,0.4-0.2,0.4-0.4v-5.9l11.3,9.8c0.1,0.1,0.2,0.1,0.2,0.1c0.2,0,0.4-0.2,0.4-0.4v-10.1l6.7,6.2c0.1,0.1,0.2,0.1,0.2,0.1
		c0.2,0,0.4-0.1,0.4-0.4c0,0,7.4-70.7,7.7-80.1C201.6,79.3,198.8,75.4,195.5,72.8L195.5,72.8z"/>
	<path class="st4" d="M130.4,123.8l-2.3-2.2l-2.3,2.2v0.1l-2.7,2.7c1.5,1.6,3.2,2.5,4.9,2.5c1.7,0,3.4-0.9,4.9-2.5L130.4,123.8
		L130.4,123.8z"/>
	<polygon class="st5" points="135.4,131.2 120.8,131.2 120.2,136 136,136 	"/>
	<path class="st6" d="M118.2,131.5c0,0-1.9,14-2.6,18.9c-5.6,37.9-13.4,77.7-22.4,81.6c-0.7,0.3-1.3-0.3-1.2-1
		c1.1-6,3.6-21.8,4.5-36c0.6-10.5,0.9-29.6,0.9-49.2l5.4-5.2c0.4-0.4,1.1-0.2,1.1,0.4v4.9L118.2,131.5L118.2,131.5z"/>
	<path class="st7" d="M103.8,146v-4.9c0-0.7-0.7-0.9-1.1-0.4l-3.4,3.2c-0.1,1.7-0.8,31.5-0.8,37.7c0,17.2-4.5,44.2-4,44.2
		c3.9,0,9.3-58.4,11.1-81.7L103.8,146z"/>
	<path class="st6" d="M138.1,131.5c0,0,1.9,14,2.6,18.9c5.6,37.9,13.4,77.7,22.4,81.6c0.7,0.3,1.3-0.3,1.2-1c-1.1-6-3.6-21.8-4.5-36
		c-0.6-10.5-0.9-29.6-0.9-49.2l-5.4-5.2c-0.4-0.4-1.1-0.2-1.1,0.4v4.9L138.1,131.5L138.1,131.5z"/>
	<path class="st8" d="M184.8,71.4c-3.2-0.5-12.8-0.4-12.9-0.4l12.1-2.8c9.2-19.6-4.9-28.9-13.4-28.9c-2.9,0-10.5,1.1-11.4,1.1
		c0,0,1.4-0.2,1.8-0.6c0-3.6-10.2-15.7-32.8-15.7c-22.5,0-32.8,12.1-32.8,15.7c0.4,0.4,1.8,0.6,1.8,0.6c-0.9,0-8.5-1.1-11.4-1.1
		c-8.5,0-22.6,9.3-13.4,28.9L84.4,71c-0.1,0-9.8-0.1-12.9,0.4c-4.3,0.7-12.8,5.3-12.8,13.5c0,3.8,1.6,15.2,1.6,15.2h135.6
		c0,0,1.6-11.3,1.6-15.2C197.6,76.7,189.1,72.1,184.8,71.4L184.8,71.4z"/>
	<path class="st9" d="M179.4,46.8c-2-1.5-4.8-2.1-8.4-2.1c0,0-1.6,0.1-2.5,0.2c-8.7,1.1-11.8,5.8-20.2,5.8c-4.3,0-2-10.1-2-10.1
		s10.8,0.2,10.8-0.5c0-3.3-12.7-12.7-28-12.7h-1.9c-15.3,0-28,9.5-28,12.7c0,0.7,10.8,0.5,10.8,0.5s2.3,10.1-2,10.1
		c-8.4,0-11.5-4.7-20.2-5.8c-0.9-0.1-2.5-0.2-2.5-0.2c-3.6,0-6.4,0.6-8.4,2.1c-2.8,2.1-8.7,10,1.5,22.9l6.1,1.4h87.4l6.1-1.4
		C188,56.7,182.2,48.8,179.4,46.8L179.4,46.8z"/>
	<path class="st10" d="M84.4,71L84.4,71L84.4,71z"/>
	<path class="st4" d="M86.4,53.1c-0.6,0-1.2,0.2-1.7,0.6C85,53.8,85,54,85,54.3c0,0.5-0.4,0.9-0.9,0.9c-0.2,0-0.4-0.1-0.6-0.2
		c-0.3,0.6-0.4,1.2-0.4,1.9c0,2.1,1.5,3.8,3.3,3.8s3.3-1.7,3.3-3.8C89.8,54.8,88.3,53.1,86.4,53.1z"/>
	<path class="st11" d="M85.8,54.3c0-0.4-0.2-0.9-0.5-1.1c-0.3-0.3-0.7-0.5-1.1-0.5c-0.9,0-1.6,0.7-1.6,1.6c0,0.5,0.2,1,0.6,1.3
		c0.2,0.2,0.6,0.3,1,0.3C85,55.9,85.8,55.1,85.8,54.3z"/>
	<polygon class="st3" points="125.5,78.1 121.6,74.6 125.5,78.2 	"/>
	<path class="st5" d="M96.1,146.9L96.1,146.9L96.1,146.9z"/>
	<path class="st10" d="M99.3,143.9l-2,2L99.3,143.9z"/>
	<polygon class="st10" points="102.6,140.7 99.3,143.9 99.3,143.9 	"/>
	<path class="st10" d="M99.3,143.9L99.3,143.9L99.3,143.9z"/>
	<path class="st12" d="M60.3,100.1L60.3,100.1L60.3,100.1z"/>
	<polygon class="st3" points="125.7,78.4 127.3,79.9 125.5,78.2 	"/>
	<path class="st5" d="M150.5,146.9L150.5,146.9L150.5,146.9z"/>
	<path class="st10" d="M147.3,143.9L147.3,143.9L147.3,143.9z"/>
	<path class="st12" d="M131.8,87L131.8,87L131.8,87z"/>
	<path class="st10" d="M171.8,71L171.8,71L171.8,71z"/>
	<path class="st4" d="M171,53.1c-0.6,0-1.2,0.2-1.7,0.6c0.2,0.2,0.2,0.4,0.2,0.6c0,0.5-0.4,0.9-0.9,0.9c-0.2,0-0.4-0.1-0.6-0.2
		c-0.3,0.6-0.4,1.2-0.4,1.9c0,2.1,1.5,3.8,3.3,3.8s3.3-1.7,3.3-3.8C174.3,54.8,172.8,53.1,171,53.1z"/>
	<path class="st11" d="M170.3,54.3c0-0.4-0.2-0.9-0.5-1.1c-0.3-0.3-0.7-0.5-1.1-0.5c-0.9,0-1.6,0.7-1.6,1.6c0,0.5,0.2,1,0.6,1.3
		c0.2,0.2,0.6,0.3,1,0.3C169.5,55.9,170.3,55.1,170.3,54.3z"/>
	<polygon class="st3" points="130.8,78.1 134.6,74.6 130.7,78.2 	"/>
	<path class="st7" d="M152.5,146v-4.9c0-0.7,0.7-0.9,1.1-0.4l3.4,3.2c0.1,1.7,0.8,31.5,0.8,37.7c0,17.2,4.5,44.2,4,44.2
		c-3.9,0-9.3-58.4-11.1-81.7L152.5,146z"/>
	<path class="st5" d="M160.1,146.9L160.1,146.9L160.1,146.9z"/>
	<path class="st10" d="M156.9,143.9l2,2L156.9,143.9z"/>
	<polygon class="st10" points="153.6,140.7 156.9,143.9 156.9,143.9 	"/>
	<path class="st10" d="M156.9,143.9L156.9,143.9L156.9,143.9z"/>
	<path class="st12" d="M196,100.1L196,100.1L196,100.1z"/>
	<polygon class="st3" points="130.5,78.4 128.9,79.9 130.7,78.2 	"/>
	<path class="st5" d="M173.8,82.8c-13.3-5.8-33.1-7.8-39.2-8.3l-3.9,3.6l-0.2,0.2l-1.6,1.5c-0.2,0.2-0.5,0.3-0.8,0.3
		s-0.6-0.1-0.8-0.3l-1.6-1.5l-0.2-0.2l-3.9-3.6c-6.1,0.5-25.9,2.5-39.2,8.3c-14.3,6.2-22.1,17.7-22.1,17.3l0.7,7.4v-0.1
		c21.5-24.6,64.8,16.3,64.8,16.3l2.3-2.2l2.3,2.2c0,0,43.4-40.9,64.8-16.3v0.1l0.7-7.4C196,100.6,188.1,89,173.8,82.8L173.8,82.8z"
		/>
	<path class="st9" d="M125.8,123.8l-2.9-29.9c-3.1,4-8.7,7.6-17.8,7.6c-14.2,0-22.6-18.6-44.1,5.9l4.4,47.7l0.3,2.3l6.1-6.2
		l0.7-41.6l0.9-0.6l0.3,52.2l7.2-6.2l3.3-2.8c0.2-12.2,0.6-33.1,0.6-33.1l1-0.7l0.2,38.5l5.9-5.6l0.4-0.4l3.5-3.4
		c0.2-9.9,0.4-19.3,0.4-19.3l1-0.9l0.1,18.8l2-2l3.4-3.2c0.2-0.2,0.4-0.2,0.6-0.2c0.3,0,0.6,0.2,0.6,0.7v4.9L125.8,123.8
		L125.8,123.8z"/>
	<path class="st3" d="M144.6,67c-0.2-0.1-0.4-0.1-0.6-0.1h-31.9c-0.2,0-0.4,0.1-0.6,0.1c-0.4,0.2-0.7,0.7-0.4,1.2l0.2,0.2l14.1,13.2
		l0.1,0.1l1.8,1.7c0.2,0.2,0.5,0.3,0.8,0.3s0.6-0.1,0.8-0.3l1.8-1.7l0.1-0.1l14.1-13.2c0.1-0.1,0.1-0.1,0.2-0.2
		C145.3,67.7,145.1,67.1,144.6,67L144.6,67z"/>
	<path class="st9" d="M130.4,123.8l2.9-29.9c3.1,4,8.7,7.6,17.8,7.6c14.2,0,22.6-18.6,44.1,5.9l-4.4,47.7l-0.3,2.3l-6.1-6.2
		l-0.7-41.6l-0.9-0.6l-0.3,52.2l-7.2-6.2l-3.3-2.8c-0.2-12.2-0.6-33.1-0.6-33.1l-1-0.7l-0.2,38.5l-5.9-5.6l-0.4-0.4l-3.5-3.4
		c-0.2-9.9-0.4-19.3-0.4-19.3l-1-0.9L159,146l-2-2l-3.4-3.2c-0.2-0.2-0.4-0.2-0.6-0.2c-0.3,0-0.6,0.2-0.6,0.7v4.9L130.4,123.8
		L130.4,123.8z"/>
	<path class="st3" d="M187.8,59c0-1.2,0-2.4-0.1-3.6v13.4C187.8,58.8,187.8,59.3,187.8,59z"/>
	<path class="st5" d="M107.6,54.5c7,0,2.8-11.6,2.8-11.6s0.6,4.8-4.9,4.8c-10.5,0-10.5-3.6-18.9-3.6c-6.9,0-9.2,2.2-9.2,2.2
		C93.4,42.5,97.4,54.5,107.6,54.5L107.6,54.5z"/>
	<path class="st13" d="M138.1,131.5"/>
	<path class="st9" d="M136,135.6l-3.8-3.8c-1.4,0.2-2.7,0.2-4,0.2c-1.4,0-2.7-0.1-4-0.2l-3.8,3.8l-2.3,17.2
		c2.8,2.3,6.2,3.3,10.1,3.3h0.2c3.9,0,7.2-1,10.1-3.3L136,135.6z"/>
	<path class="st8" d="M135,128.4l-1.9-2c-1.5,1.6-3.2,2.5-4.9,2.5c-1.7,0-3.4-0.9-4.9-2.5l-1.9,2l-0.4,2.8c0.4,0.1,0.8,0.2,1.2,0.2
		c2,0.4,4,0.6,6,0.6c2,0,4.1-0.2,6-0.6c0.4-0.1,0.9-0.2,1.2-0.2L135,128.4L135,128.4z"/>
	<path class="st5" d="M148.6,54.5c-7,0-2.8-11.6-2.8-11.6s-0.6,4.8,4.9,4.8c10.5,0,10.5-3.6,18.9-3.6c6.9,0,9.2,2.2,9.2,2.2
		C162.8,42.5,158.9,54.5,148.6,54.5z"/>
</g>
</svg>
