<?xml version="1.0" encoding="utf-8"?>
<!-- Generator: Adobe Illustrator 24.3.0, SVG Export Plug-In . SVG Version: 6.00 Build 0)  -->
<svg version="1.1" id="Layer_1" xmlns="http://www.w3.org/2000/svg" xmlns:xlink="http://www.w3.org/1999/xlink" x="0px" y="0px"
	 viewBox="0 0 256 300" style="enable-background:new 0 0 256 300;" xml:space="preserve">
<style type="text/css">
	.st0{fill:#FFFFFF;}
	.st1{fill:#CCCCCC;}
	.st2{fill:#231F20;}
	.st3{clip-path:url(#SVGID_1_);}
	.st4{fill:#D9D9D9;}
	.st5{fill:url(#SVGID_2_);}
	.st6{fill:#003B57;}
</style>
<path class="st0" d="M27.5,162.6h201c15.2,0,27.5,12.3,27.5,27.5v82.4c0,15.2-12.3,27.5-27.5,27.5h-201C12.3,300,0,287.7,0,272.5
	v-82.4C0,174.9,12.3,162.6,27.5,162.6z"/>
<path class="st1" d="M60,0h136c33.1,0,60,26.9,60,60v136c0,33.1-26.9,60-60,60H60c-33.1,0-60-26.9-60-60V60C0,26.9,26.8,0,60,0z"/>
<g>
	<path class="st2" d="M88.8,274.6c-0.1,0.2-0.3,0.2-0.5,0.2h-4.4c-0.3,0-0.6,0-0.7-0.1c-0.2-0.1-0.4-0.2-0.6-0.5
		c0,0-0.2-0.2-0.4-0.5c-0.2-0.3-0.6-0.5-1.1-0.7c-0.5-0.2-1.1-0.3-1.8-0.3c-1,0-1.7,0.1-2.3,0.4c-0.6,0.3-0.9,0.8-0.9,1.4
		c0,0.5,0.2,0.9,0.6,1.1c0.4,0.3,1,0.5,1.7,0.7c0.8,0.2,2.2,0.5,4.1,1c2.5,0.6,4.3,1.4,5.5,2.6c1.2,1.2,1.8,2.9,1.8,5
		c0,1.6-0.4,3-1.3,4.2c-0.9,1.2-2.1,2.1-3.7,2.7c-1.6,0.6-3.3,1-5.3,1c-1.9,0-3.6-0.4-5.2-1.1c-1.6-0.7-2.8-1.7-3.7-2.8
		c-0.9-1.2-1.4-2.3-1.4-3.6c0-0.2,0.1-0.4,0.2-0.6c0.1-0.2,0.3-0.2,0.5-0.2h4.4c0.5,0,0.9,0.2,1.3,0.5c0.1,0.1,0.2,0.3,0.5,0.6
		c0.3,0.3,0.7,0.7,1.3,0.9c0.6,0.3,1.3,0.4,2.1,0.4c2.8,0,4.1-0.6,4.1-1.9c0-0.4-0.2-0.8-0.6-1c-0.4-0.3-0.9-0.5-1.6-0.7
		c-0.7-0.2-1.8-0.5-3.4-0.8l-1.5-0.3c-2.3-0.5-3.9-1.4-5-2.6c-1.1-1.2-1.6-2.9-1.6-5c0-1.4,0.4-2.7,1.2-3.9c0.8-1.2,1.9-2.1,3.3-2.8
		s3.1-1.1,4.9-1.1c1.8,0,3.4,0.4,4.9,1.1c1.5,0.7,2.7,1.7,3.5,2.8c0.9,1.1,1.3,2.2,1.3,3.2C89,274.2,88.9,274.4,88.8,274.6z"/>
	<path class="st2" d="M108,268.2c1.5,0.9,2.7,2,3.5,3.5c0.8,1.5,1.3,3.1,1.4,5c0,0.7,0.1,1.8,0.1,3.2c0,1.5,0,2.5-0.1,3.2
		c-0.1,2.6-1,4.8-2.5,6.5l2.6,4.1c0.1,0.1,0.1,0.3,0.1,0.3v0.1c0,0.2-0.1,0.4-0.2,0.5c-0.1,0.1-0.3,0.2-0.5,0.2h-4.7
		c-0.4,0-0.6-0.1-0.8-0.2c-0.2-0.2-0.4-0.4-0.5-0.6l-0.9-1.5c-1,0.2-2,0.4-3,0.4c-2.1,0-3.9-0.4-5.5-1.3c-1.5-0.9-2.7-2-3.5-3.5
		c-0.8-1.5-1.3-3.1-1.4-5c0-1.3-0.1-2.4-0.1-3.2c0-0.8,0-1.9,0.1-3.2c0.1-1.8,0.5-3.5,1.4-5c0.8-1.5,2-2.6,3.5-3.5
		c1.5-0.9,3.3-1.3,5.5-1.3C104.7,266.9,106.5,267.3,108,268.2z M105.6,273.8c-0.7-0.8-1.7-1.1-3-1.1c-1.3,0-2.3,0.4-3,1.1
		s-1.1,1.8-1.2,3c-0.1,0.8-0.1,1.8-0.1,3c0,1.2,0,2.2,0.1,3.1c0.1,1.3,0.5,2.3,1.2,3s1.7,1.1,3,1.1c1.3,0,2.3-0.4,3-1.1
		s1.1-1.8,1.2-3c0.1-0.9,0.1-1.9,0.1-3.1c0-1.2,0-2.2-0.1-3C106.7,275.6,106.3,274.6,105.6,273.8z"/>
	<path class="st2" d="M133.8,287c0.2,0.2,0.3,0.4,0.3,0.7v3.8c0,0.3-0.1,0.5-0.3,0.7c-0.2,0.2-0.4,0.3-0.6,0.3h-15.4
		c-0.2,0-0.5-0.1-0.6-0.3c-0.2-0.2-0.3-0.4-0.3-0.7v-23.3c0-0.3,0.1-0.5,0.3-0.7c0.2-0.2,0.4-0.3,0.6-0.3h4.4c0.2,0,0.5,0.1,0.6,0.3
		c0.2,0.2,0.3,0.4,0.3,0.7v18.5h10.1C133.4,286.7,133.6,286.8,133.8,287z"/>
	<path class="st2" d="M137.2,292.2c-0.2-0.2-0.3-0.4-0.3-0.7v-23.3c0-0.3,0.1-0.5,0.3-0.7c0.2-0.2,0.4-0.3,0.6-0.3h4.4
		c0.2,0,0.5,0.1,0.6,0.3c0.2,0.2,0.3,0.4,0.3,0.7v23.3c0,0.3-0.1,0.5-0.3,0.7c-0.2,0.2-0.4,0.3-0.6,0.3h-4.4
		C137.6,292.5,137.4,292.4,137.2,292.2z"/>
	<path class="st2" d="M165.5,267.6c0.2,0.2,0.3,0.4,0.3,0.7v3.8c0,0.3-0.1,0.5-0.3,0.7s-0.4,0.3-0.6,0.3H159v18.5
		c0,0.3-0.1,0.5-0.3,0.7c-0.2,0.2-0.4,0.3-0.6,0.3h-4.4c-0.2,0-0.5-0.1-0.6-0.3c-0.2-0.2-0.3-0.4-0.3-0.7V273H147
		c-0.2,0-0.5-0.1-0.6-0.3c-0.2-0.2-0.3-0.4-0.3-0.7v-3.8c0-0.3,0.1-0.5,0.3-0.7c0.2-0.2,0.4-0.3,0.6-0.3h17.9
		C165.1,267.3,165.3,267.4,165.5,267.6z"/>
	<path class="st2" d="M174.9,286.7h10.5c0.2,0,0.5,0.1,0.6,0.3c0.2,0.2,0.3,0.4,0.3,0.7v3.8c0,0.3-0.1,0.5-0.3,0.7
		c-0.2,0.2-0.4,0.3-0.6,0.3h-15.8c-0.2,0-0.5-0.1-0.6-0.3c-0.2-0.2-0.3-0.4-0.3-0.7v-23.3c0-0.3,0.1-0.5,0.3-0.7
		c0.2-0.2,0.4-0.3,0.6-0.3h15.5c0.2,0,0.5,0.1,0.6,0.3c0.2,0.2,0.3,0.4,0.3,0.7v3.8c0,0.3-0.1,0.5-0.3,0.7s-0.4,0.3-0.6,0.3h-10.2
		v3.9h9.5c0.2,0,0.5,0.1,0.6,0.3c0.2,0.2,0.3,0.4,0.3,0.7v3.8c0,0.3-0.1,0.5-0.3,0.7c-0.2,0.2-0.4,0.3-0.6,0.3h-9.5V286.7z"/>
</g>
<g>
	<defs>
		<path id="SVGID_4_" d="M60,0h136c33.1,0,60,26.9,60,60v136c0,33.1-26.9,60-60,60H60c-33.1,0-60-26.9-60-60V60C0,26.9,26.9,0,60,0z
			"/>
	</defs>
	<clipPath id="SVGID_1_">
		<use xlink:href="#SVGID_4_"  style="overflow:visible;"/>
	</clipPath>
	<g class="st3">
		<path class="st4" d="M60,0C26.9,0,0,26.9,0,60v136c0,33.1,26.9,60,60,60h108.5c-1.8-5.2-3.2-13.5-4-23c-0.7-8.2-0.9-17.2-0.5-25.9
			c-0.1-1.3-0.2-2.1-0.2-2.1s-1.9-12.6-4.6-23c-1.2-4.6-2.6-8.8-4-11.2c-0.7-1.2,0.1-6.4,2.1-13.9c1.2,2.1,6.3,10.9,7.3,13.8
			c1.1,3.2,1.4,4.2,1.4,4.2s-2.8-14.3-7.3-22.6c1-3.4,2.2-7.1,3.5-11.1c1.6,2.8,5.2,9.1,6.5,12.1c0.1,0.3,0.2,0.5,0.3,0.8
			c0.2,0.5,0.3,1,0.5,1.4c0.7,2.1,0.9,2.8,0.9,2.8s-0.3-1.4-0.8-3.5c-0.2-0.9-0.5-2-0.8-3.1c-1.1-4.4-2.9-10.2-5.1-14.7
			c5.7-29.8,24.2-68.8,44.1-89.9c1.7-1.8,3.4-3.5,5.2-5c11.6-10.3,23.4-13.8,33.1-5.1c7,6.3,9.9,14.9,9.9,24.9V60
			c0-33.1-26.9-60-60-60H60z"/>
		
			<linearGradient id="SVGID_2_" gradientUnits="userSpaceOnUse" x1="128" y1="295.4855" x2="128" y2="58.9614" gradientTransform="matrix(1 0 0 -1 0 300.7244)">
			<stop  offset="0" style="stop-color:#97D9F6"/>
			<stop  offset="0.9202" style="stop-color:#0F80CC"/>
			<stop  offset="1" style="stop-color:#0F80CC"/>
		</linearGradient>
		<path class="st5" d="M60,0C26.9,0,0,26.9,0,60v136c0,33.1,26.9,60,60,60h108.5c-1.8-5.2-3.2-13.5-4-23c-0.7-8.2-0.9-17.2-0.5-25.9
			c-0.1-1.3-0.2-2.1-0.2-2.1s-1.9-12.6-4.6-23c-1.2-4.6-2.6-8.8-4-11.2c-0.7-1.2,0.1-6.4,2.1-13.9c1.2,2.1,6.3,10.9,7.3,13.8
			c1.1,3.2,1.4,4.2,1.4,4.2s-2.8-14.3-7.3-22.6c1-3.4,2.2-7.1,3.5-11.1c1.6,2.8,5.2,9.1,6.5,12.1c0.1,0.3,0.2,0.5,0.3,0.8
			c0.2,0.5,0.3,1,0.5,1.4c0.7,2.1,0.9,2.8,0.9,2.8s-0.3-1.4-0.8-3.5c-0.2-0.9-0.5-2-0.8-3.1c-1.1-4.4-2.9-10.2-5.1-14.7
			c5.7-29.8,24.2-68.8,44.1-89.9c1.7-1.8,3.4-3.5,5.2-5c11.6-10.3,23.4-13.8,33.1-5.1c7,6.3,9.9,14.9,9.9,24.9V60
			c0-33.1-26.9-60-60-60H60z"/>
		<path class="st6" d="M246.1,36.9c-9.7-8.7-21.5-5.2-33.1,5.1c-1.7,1.5-3.4,3.2-5.2,5c-19.9,21.1-38.3,60.1-44.1,89.9
			c2.2,4.5,4,10.3,5.1,14.7c0.3,1.1,0.6,2.2,0.8,3.1c0.5,2.1,0.8,3.5,0.8,3.5s-0.2-0.7-0.9-2.8c-0.1-0.4-0.3-0.8-0.5-1.4
			c-0.1-0.2-0.2-0.5-0.3-0.8c-1.3-3-4.9-9.4-6.5-12.1c-1.3,4-2.5,7.7-3.5,11.1c4.6,8.3,7.3,22.6,7.3,22.6s-0.2-0.9-1.4-4.2
			c-1-2.9-6.1-11.7-7.3-13.8c-2.1,7.6-2.9,12.7-2.1,13.9c1.4,2.4,2.8,6.6,4,11.2c2.7,10.4,4.6,23,4.6,23s0.1,0.8,0.2,2.1
			c-0.4,8.7-0.2,17.7,0.5,25.9c0.9,10.8,2.6,20.1,4.7,25l1.5-0.8c-3.1-9.8-4.4-22.6-3.9-37.4c0.8-22.6,6-49.8,15.7-78.2
			c16.2-42.8,38.8-77.2,59.4-93.6c-18.8,17-44.2,71.8-51.9,92.2c-8.5,22.8-14.6,44.1-18.2,64.6c6.3-19.2,26.6-27.4,26.6-27.4
			s10-12.3,21.6-29.8c-7,1.6-18.4,4.3-22.3,5.9c-5.7,2.4-7.2,3.2-7.2,3.2s18.3-11.2,34.1-16.2C246.2,106.4,269.8,58.1,246.1,36.9"/>
		<path class="st6" d="M28.5,49c-3.1,0-5.6,0.9-7.5,2.7c-1.9,1.8-2.9,4.1-2.9,7c0,1.5,0.2,2.8,0.7,4.1c0.5,1.2,1.2,2.4,2.2,3.4
			c1,1,3,2.5,5.9,4.3c3.6,2.2,6,4,7.1,5.3c1.1,1.4,1.7,2.8,1.7,4.3c0,2-0.7,3.6-2.1,4.9c-1.4,1.2-3.3,1.8-5.6,1.8
			c-2.4,0-4.6-0.8-6.4-2.5c-1.8-1.7-2.7-3.9-2.8-6.7H18v10.1h1.1c0.3-1,0.8-1.4,1.4-1.4c0.3,0,1,0.2,2.1,0.6
			c2.7,0.9,4.9,1.4,6.6,1.4c3,0,5.5-1,7.6-3.1c2.1-2.1,3.2-4.6,3.2-7.5c0-2.3-0.7-4.3-2.1-6.1c-1.4-1.8-4.1-3.8-8.1-6.2
			c-3.5-2-5.7-3.7-6.7-5c-1-1.3-1.6-2.7-1.6-4.3c0-1.7,0.6-3.1,1.9-4.1c1.3-1,2.9-1.5,4.9-1.5c2.3,0,4.2,0.7,5.8,2
			c1.5,1.4,2.4,3.3,2.7,5.7H38v-8.8h-1.1c-0.1,0.4-0.2,0.7-0.4,0.9c-0.1,0.1-0.3,0.2-0.6,0.2c-0.4,0-1-0.2-1.9-0.5
			C32,49.3,30.2,49,28.5,49z M65.5,49c-3.7,0-7.1,0.9-10.2,2.6c-3.1,1.7-5.5,4.1-7.3,7.2c-1.8,3.1-2.7,6.3-2.7,9.8
			c0,4.7,1.5,8.8,4.7,12.5c3.1,3.6,6.9,5.9,11.2,6.8c1,0.5,2.4,1.8,4.3,4c2.1,2.4,3.9,4.1,5.3,5.2c1.5,1,3,1.8,4.7,2.3
			c1.7,0.5,3.5,0.7,5.4,0.7c2.4,0,4.5-0.4,6.3-1.2l-0.4-1c-1.1,0.4-2.2,0.6-3.4,0.6c-1.6,0-3.3-0.5-5-1.6c-1.7-1.1-3.7-3.1-6.2-6.1
			c-1.2-1.4-2-2.4-2.4-2.7c4.7-0.9,8.6-3.2,11.7-6.8c3-3.6,4.6-7.8,4.6-12.4c0-5.5-2-10.1-5.9-13.9C76.1,50.9,71.3,49,65.5,49z
			 M88.6,49l0.1,1.2c2.5,0,3.9,0.7,4.2,2.2c0.1,0.5,0.2,1.5,0.2,2.9l0,26.4c0,2-0.3,3.2-0.9,3.8c-0.5,0.5-1.5,0.9-2.8,1l-0.1,1.2
			H114l0.6-6h-1.1c-0.3,1.6-1.1,2.8-2.2,3.5c-1.2,0.7-3.3,1-6.3,1h-2.3c-2.7,0-4.3-1-4.7-2.9c-0.1-0.4-0.1-0.8-0.1-1.3l0.1-26.7
			c0-2,0.3-3.3,0.8-3.9c0.5-0.6,1.5-1,2.9-1.1l-0.1-1.2H88.6L88.6,49z M65.9,50.4c4.2,0,7.6,1.6,10.3,4.9c2.7,3.3,4,7.8,4,13.6
			c0,5.4-1.3,9.8-4,13c-2.7,3.3-6.2,4.9-10.7,4.9c-4.3,0-7.7-1.7-10.3-5.1c-2.6-3.4-4-7.8-4-13.1c0-5.5,1.3-10,4-13.3
			C57.9,52.1,61.4,50.4,65.9,50.4z M122.9,56.1c-0.6,0-1.1,0.2-1.4,0.6c-0.4,0.4-0.5,0.9-0.3,1.5c0.1,0.6,0.4,1.1,1,1.5
			c0.5,0.4,1.1,0.6,1.7,0.6c0.6,0,1-0.2,1.3-0.6c0.3-0.4,0.4-0.9,0.3-1.5c-0.1-0.6-0.4-1.1-0.9-1.5C124,56.3,123.4,56.1,122.9,56.1z
			 M139.2,60.2c-1,3.9-3.3,6-6.7,6.3l0,1.1h4l-0.1,13.2c0,2.3,0.1,3.8,0.2,4.5c0.4,1.8,1.6,2.8,3.6,2.8c2.9,0,6-1.8,9.2-5.3l-1-0.8
			c-2.3,2.3-4.4,3.5-6.2,3.5c-1.1,0-1.8-0.6-2-1.9c-0.1-0.3-0.1-0.7-0.1-1.1l0-14.9h6.1l-0.1-1.8h-6v-5.7H139.2L139.2,60.2z
			 M162.8,65.2c-3.4,0-6.2,1.6-8.3,4.9c-2.1,3.2-2.8,6.8-2,10.8c0.5,2.3,1.5,4.1,3,5.4c1.5,1.3,3.4,1.9,5.7,1.9
			c2.1,0,5.1-0.5,6.4-1.6c1.3-1.1,2.4-2.8,3.5-5.2l-0.9-0.9c-1.7,3.1-5.1,4.6-7.7,4.6c-3.6,0-5.7-1.9-6.6-5.8
			c-0.1-0.5-0.2-1-0.2-1.6c4.2-0.7,7.4-1.8,9.6-3.5c2.2-1.7,4.3-3.5,3.9-5.4c-0.2-1.1-0.8-2-1.7-2.7
			C166.5,65.5,164.1,65.2,162.8,65.2z M125.5,65.3l-7.3,1.7v1.3l2.5-0.3c1.2,0,2,0.5,2.2,1.6c0.1,0.4,0.1,0.9,0.1,1.5L122.9,83
			c0,1.6-0.2,2.6-0.6,2.9c-0.4,0.3-1.4,0.4-3,0.4l0,1.1H131l0-1.1c-1.6,0-2.7-0.1-3.1-0.4c-0.5-0.2-0.8-0.7-0.9-1.4
			c-0.1-0.5-0.2-1.3-0.2-2.5l0-16.7H125.5L125.5,65.3z M160.9,67.5c0.7,0,1.4,0.3,2.1,0.8c0.7,0.5,1.1,1.1,1.2,1.8
			c0.7,3.2-2.2,5.3-8.5,6.5c-0.2-2.3,0.2-4.4,1.3-6.3C157.9,68.4,159.3,67.5,160.9,67.5z"/>
	</g>
</g>
</svg>
