<?xml version="1.0" encoding="utf-8"?>
<!-- Generator: Adobe Illustrator 24.3.0, SVG Export Plug-In . SVG Version: 6.00 Build 0)  -->
<svg version="1.1" id="Layer_1" xmlns="http://www.w3.org/2000/svg" xmlns:xlink="http://www.w3.org/1999/xlink" x="0px" y="0px"
	 viewBox="0 0 256 300" style="enable-background:new 0 0 256 300;" xml:space="preserve">
<style type="text/css">
	.st0{fill:#FFFFFF;}
	.st1{fill:#231F20;}
	.st2{fill:#F05138;}
</style>
<path class="st0" d="M27.5,162.6h201c15.2,0,27.5,12.3,27.5,27.5v82.4c0,15.2-12.3,27.5-27.5,27.5h-201C12.3,300,0,287.7,0,272.5
	v-82.4C0,174.9,12.3,162.6,27.5,162.6z"/>
<g>
	<path class="st1" d="M97.6,274.6c-0.1,0.2-0.3,0.2-0.5,0.2h-4.4c-0.3,0-0.6,0-0.7-0.1c-0.2-0.1-0.4-0.2-0.6-0.5
		c0,0-0.2-0.2-0.4-0.5c-0.2-0.3-0.6-0.5-1.1-0.7c-0.5-0.2-1.1-0.3-1.8-0.3c-1,0-1.7,0.1-2.3,0.4c-0.6,0.3-0.9,0.8-0.9,1.4
		c0,0.5,0.2,0.9,0.6,1.1c0.4,0.3,1,0.5,1.7,0.7c0.8,0.2,2.2,0.5,4.1,1c2.5,0.6,4.3,1.4,5.5,2.6c1.2,1.2,1.8,2.9,1.8,5
		c0,1.6-0.4,3-1.3,4.2c-0.9,1.2-2.1,2.1-3.7,2.7c-1.6,0.6-3.3,1-5.3,1c-1.9,0-3.6-0.4-5.2-1.1c-1.6-0.7-2.8-1.7-3.7-2.8
		c-0.9-1.2-1.4-2.3-1.4-3.6c0-0.2,0.1-0.4,0.2-0.6c0.1-0.2,0.3-0.2,0.5-0.2H83c0.5,0,0.9,0.2,1.3,0.5c0.1,0.1,0.2,0.3,0.5,0.6
		c0.3,0.3,0.7,0.7,1.3,0.9c0.6,0.3,1.3,0.4,2.1,0.4c2.8,0,4.1-0.6,4.1-1.9c0-0.4-0.2-0.8-0.6-1c-0.4-0.3-0.9-0.5-1.6-0.7
		c-0.7-0.2-1.8-0.5-3.4-0.8l-1.5-0.3c-2.3-0.5-3.9-1.4-5-2.6c-1.1-1.2-1.6-2.9-1.6-5c0-1.4,0.4-2.7,1.2-3.9c0.8-1.2,1.9-2.1,3.3-2.8
		s3.1-1.1,4.9-1.1c1.8,0,3.4,0.4,4.9,1.1c1.5,0.7,2.7,1.7,3.5,2.8c0.9,1.1,1.3,2.2,1.3,3.2C97.8,274.2,97.7,274.4,97.6,274.6z"/>
	<path class="st1" d="M120.1,268.2c0.1-0.3,0.2-0.6,0.4-0.7s0.4-0.2,0.6-0.2h4.4c0.2,0,0.4,0.1,0.5,0.2c0.1,0.2,0.2,0.3,0.2,0.6
		l0,0.3l-4.3,22.8c0,0.3-0.2,0.6-0.5,0.9c-0.3,0.3-0.7,0.4-1.1,0.4h-2.8c-0.4,0-0.8-0.1-1.1-0.4c-0.3-0.3-0.5-0.6-0.6-1l-2.5-8.1
		l-2.5,8.1c-0.1,0.4-0.3,0.7-0.6,1c-0.3,0.3-0.6,0.4-1.1,0.4h-2.8c-0.4,0-0.8-0.1-1.1-0.4c-0.3-0.3-0.5-0.6-0.5-0.9l-4.3-22.8l0-0.3
		c0-0.2,0.1-0.4,0.2-0.6c0.1-0.2,0.3-0.2,0.5-0.2h4.4c0.2,0,0.5,0.1,0.6,0.2c0.2,0.2,0.3,0.4,0.4,0.7l2.1,12.2l2-6.5
		c0.2-0.7,0.6-1,1.1-1h3.1c0.5,0,0.9,0.3,1.1,1l2,6.5L120.1,268.2z"/>
	<path class="st1" d="M129.7,292.2c-0.2-0.2-0.3-0.4-0.3-0.7v-23.3c0-0.3,0.1-0.5,0.3-0.7c0.2-0.2,0.4-0.3,0.6-0.3h4.4
		c0.2,0,0.5,0.1,0.6,0.3c0.2,0.2,0.3,0.4,0.3,0.7v23.3c0,0.3-0.1,0.5-0.3,0.7c-0.2,0.2-0.4,0.3-0.6,0.3h-4.4
		C130.1,292.5,129.9,292.4,129.7,292.2z"/>
	<path class="st1" d="M157,267.6c0.2,0.2,0.3,0.4,0.3,0.7v3.8c0,0.3-0.1,0.5-0.3,0.7s-0.4,0.3-0.6,0.3h-9.9v4.9h9.3
		c0.2,0,0.5,0.1,0.6,0.3c0.2,0.2,0.3,0.4,0.3,0.7v3.8c0,0.3-0.1,0.5-0.3,0.7c-0.2,0.2-0.4,0.3-0.6,0.3h-9.3v7.8
		c0,0.3-0.1,0.5-0.3,0.7c-0.2,0.2-0.4,0.3-0.6,0.3h-4.4c-0.2,0-0.5-0.1-0.6-0.3c-0.2-0.2-0.3-0.4-0.3-0.7v-23.3
		c0-0.3,0.1-0.5,0.3-0.7c0.2-0.2,0.4-0.3,0.6-0.3h15.2C156.6,267.3,156.8,267.4,157,267.6z"/>
	<path class="st1" d="M177.7,267.6c0.2,0.2,0.3,0.4,0.3,0.7v3.8c0,0.3-0.1,0.5-0.3,0.7s-0.4,0.3-0.6,0.3h-5.9v18.5
		c0,0.3-0.1,0.5-0.3,0.7c-0.2,0.2-0.4,0.3-0.6,0.3H166c-0.2,0-0.5-0.1-0.6-0.3c-0.2-0.2-0.3-0.4-0.3-0.7V273h-5.9
		c-0.2,0-0.5-0.1-0.6-0.3c-0.2-0.2-0.3-0.4-0.3-0.7v-3.8c0-0.3,0.1-0.5,0.3-0.7c0.2-0.2,0.4-0.3,0.6-0.3h17.9
		C177.4,267.3,177.6,267.4,177.7,267.6z"/>
</g>
<path class="st2" d="M60,0h136c33.1,0,60,26.9,60,60v136c0,33.1-26.9,60-60,60H60c-33.1,0-60-26.9-60-60V60C0,26.9,26.9,0,60,0z"/>
<path class="st0" d="M202.7,158c0.2-1,0.5-1.9,0.7-2.9c10.6-42.2-15.2-92.4-59.1-118.7c19.3,26.1,27.7,57.7,20.3,85.2
	c-0.7,2.4-1.4,4.8-2.4,7.2c-1-0.7-2.2-1.4-3.9-2.2c0,0-43.7-27-91-74.6c-1.2-1.2,25.3,37.9,55.3,69.5c-14.2-8-53.6-36.7-78.7-59.4
	C47,67.3,50.7,72.4,54.5,77c20.8,26.5,48,59.1,80.6,84.2c-22.9,14-55.3,15.2-87.3,0c-8-3.6-15.4-8.2-22.4-13.3
	c13.5,21.7,34.5,40.5,60.1,51.6c30.4,13,60.8,12.3,83.2,0.2c0,0,0.2,0,0.2-0.2c1-0.5,1.9-1.2,2.9-1.7c10.9-5.5,32.1-11.1,43.7,11.1
	C218.8,214,224.9,185.1,202.7,158z"/>
</svg>
