<?xml version="1.0" encoding="utf-8"?>
<!-- Generator: Adobe Illustrator 24.3.0, SVG Export Plug-In . SVG Version: 6.00 Build 0)  -->
<svg version="1.1" id="Layer_1" xmlns="http://www.w3.org/2000/svg" xmlns:xlink="http://www.w3.org/1999/xlink" x="0px" y="0px"
	 viewBox="0 0 256 300" style="enable-background:new 0 0 256 300;" xml:space="preserve">
<style type="text/css">
	.st0{fill:#FFFFFF;}
	.st1{fill:#483A34;}
	.st2{fill:#231F20;}
	.st3{fill:#AAD9BD;}
	.st4{fill:#F6E3D6;}
	.st5{fill:#FAF1EA;}
	.st6{fill:#63C199;}
	.st7{fill:#C5E4D0;}
	.st8{fill:#A8E1C2;}
	.st9{fill:#FBF8F5;}
	.st10{fill:#564740;}
	.st11{fill:#8CD7AF;}
	.st12{fill:#F5E0D3;}
</style>
<path class="st0" d="M27.5,162.6h201c15.2,0,27.5,12.3,27.5,27.5v82.4c0,15.2-12.3,27.5-27.5,27.5h-201C12.3,300,0,287.7,0,272.5
	v-82.4C0,174.9,12.3,162.6,27.5,162.6z"/>
<path class="st1" d="M60,0h136c33.1,0,60,26.9,60,60v136c0,33.1-26.9,60-60,60H60c-33.1,0-60-26.9-60-60V60C0,26.9,26.8,0,60,0z"/>
<g>
	<path class="st2" d="M91,274.6c-0.1,0.2-0.3,0.2-0.5,0.2h-4.4c-0.3,0-0.6,0-0.7-0.1c-0.2-0.1-0.4-0.2-0.6-0.5c0,0-0.2-0.2-0.4-0.5
		c-0.2-0.3-0.6-0.5-1.1-0.7c-0.5-0.2-1.1-0.3-1.8-0.3c-1,0-1.7,0.1-2.3,0.4c-0.6,0.3-0.9,0.8-0.9,1.4c0,0.5,0.2,0.9,0.6,1.1
		c0.4,0.3,1,0.5,1.7,0.7c0.8,0.2,2.2,0.5,4.1,1c2.5,0.6,4.3,1.4,5.5,2.6c1.2,1.2,1.8,2.9,1.8,5c0,1.6-0.4,3-1.3,4.2
		c-0.9,1.2-2.1,2.1-3.7,2.7c-1.6,0.6-3.3,1-5.3,1c-1.9,0-3.6-0.4-5.2-1.1c-1.6-0.7-2.8-1.7-3.7-2.8c-0.9-1.2-1.4-2.3-1.4-3.6
		c0-0.2,0.1-0.4,0.2-0.6c0.1-0.2,0.3-0.2,0.5-0.2h4.4c0.5,0,0.9,0.2,1.3,0.5c0.1,0.1,0.2,0.3,0.5,0.6c0.3,0.3,0.7,0.7,1.3,0.9
		c0.6,0.3,1.3,0.4,2.1,0.4c2.8,0,4.1-0.6,4.1-1.9c0-0.4-0.2-0.8-0.6-1c-0.4-0.3-0.9-0.5-1.6-0.7c-0.7-0.2-1.8-0.5-3.4-0.8l-1.5-0.3
		c-2.3-0.5-3.9-1.4-5-2.6c-1.1-1.2-1.6-2.9-1.6-5c0-1.4,0.4-2.7,1.2-3.9c0.8-1.2,1.9-2.1,3.3-2.8s3.1-1.1,4.9-1.1
		c1.8,0,3.4,0.4,4.9,1.1c1.5,0.7,2.7,1.7,3.5,2.8c0.9,1.1,1.3,2.2,1.3,3.2C91.2,274.2,91.2,274.4,91,274.6z"/>
	<path class="st2" d="M115,267.6c0.2,0.2,0.3,0.4,0.3,0.7v14.4c0,2.2-0.4,4-1.3,5.5c-0.8,1.5-2,2.7-3.5,3.5
		c-1.5,0.8-3.3,1.2-5.3,1.2c-2,0-3.8-0.4-5.3-1.2c-1.5-0.8-2.7-2-3.5-3.5c-0.8-1.5-1.2-3.4-1.2-5.5v-14.4c0-0.3,0.1-0.5,0.3-0.7
		c0.2-0.2,0.4-0.3,0.6-0.3h4.4c0.2,0,0.5,0.1,0.6,0.3c0.2,0.2,0.3,0.4,0.3,0.7v14.2c0,1.5,0.3,2.6,1,3.4c0.7,0.8,1.7,1.2,2.9,1.2
		c1.3,0,2.3-0.4,2.9-1.2c0.7-0.8,1-1.9,1-3.4v-14.2c0-0.3,0.1-0.5,0.3-0.7c0.2-0.2,0.4-0.3,0.6-0.3h4.4
		C114.6,267.3,114.8,267.4,115,267.6z"/>
	<path class="st2" d="M136.5,269.3c1.6,1.4,2.5,3.4,2.5,6.2c0,3.5-1.3,5.9-4,7.2l4.1,8.6c0.1,0.1,0.1,0.3,0.1,0.4
		c0,0.2-0.1,0.4-0.2,0.6c-0.1,0.2-0.3,0.2-0.5,0.2H134c-0.4,0-0.7-0.1-0.9-0.3c-0.2-0.2-0.4-0.4-0.5-0.7l-3.7-7.7h-3.1v7.7
		c0,0.3-0.1,0.5-0.3,0.7c-0.2,0.2-0.4,0.3-0.6,0.3h-4.4c-0.2,0-0.5-0.1-0.6-0.3c-0.2-0.2-0.3-0.4-0.3-0.7v-23.3
		c0-0.3,0.1-0.5,0.3-0.7c0.2-0.2,0.4-0.3,0.6-0.3h9C132.6,267.3,134.9,268,136.5,269.3z M129.6,278.2c2.2,0,3.2-0.9,3.2-2.7
		c0-1.8-1.1-2.7-3.2-2.7h-3.8v5.3H129.6z"/>
	<path class="st2" d="M148,279.6c0,1.5,0,2.6,0.1,3.3c0.1,1.2,0.5,2.2,1.1,3c0.7,0.8,1.7,1.2,3.1,1.2c1.3,0,2.3-0.3,3-1
		c0.8-0.6,1.1-1.6,1.1-3h-2.8c-0.2,0-0.5-0.1-0.6-0.3c-0.2-0.2-0.3-0.4-0.3-0.7v-3.8c0-0.3,0.1-0.5,0.3-0.7c0.2-0.2,0.4-0.3,0.6-0.3
		h8.1c0.2,0,0.5,0.1,0.6,0.3c0.2,0.2,0.3,0.4,0.3,0.7v4.6c0,2-0.5,3.7-1.4,5.2c-0.9,1.5-2.1,2.7-3.7,3.5c-1.6,0.8-3.3,1.2-5.3,1.2
		c-2.1,0-3.9-0.4-5.4-1.3c-1.5-0.9-2.7-2.1-3.6-3.5c-0.8-1.5-1.3-3.1-1.4-4.9c0-1.2-0.1-2.1-0.1-2.8c0-0.9,0-2.1,0.1-3.6
		c0.1-1.8,0.5-3.4,1.4-4.9c0.8-1.5,2-2.7,3.6-3.5c1.5-0.9,3.3-1.3,5.4-1.3c2,0,3.7,0.4,5.2,1.2s2.7,1.8,3.6,3
		c0.9,1.2,1.3,2.4,1.4,3.5c0,0.2,0,0.4-0.2,0.6c-0.2,0.2-0.3,0.2-0.5,0.2h-4.4c-0.3,0-0.5-0.1-0.7-0.2c-0.2-0.2-0.4-0.4-0.6-0.7
		c-0.4-0.5-0.9-0.9-1.4-1.3c-0.5-0.3-1.3-0.5-2.3-0.5c-2.5,0-3.9,1.4-4.2,4.2C148.1,277.4,148,278.3,148,279.6z"/>
	<path class="st2" d="M172.6,286.7h10.5c0.2,0,0.5,0.1,0.6,0.3c0.2,0.2,0.3,0.4,0.3,0.7v3.8c0,0.3-0.1,0.5-0.3,0.7
		c-0.2,0.2-0.4,0.3-0.6,0.3h-15.8c-0.2,0-0.5-0.1-0.6-0.3c-0.2-0.2-0.3-0.4-0.3-0.7v-23.3c0-0.3,0.1-0.5,0.3-0.7
		c0.2-0.2,0.4-0.3,0.6-0.3h15.5c0.2,0,0.5,0.1,0.6,0.3c0.2,0.2,0.3,0.4,0.3,0.7v3.8c0,0.3-0.1,0.5-0.3,0.7s-0.4,0.3-0.6,0.3h-10.2
		v3.9h9.5c0.2,0,0.5,0.1,0.6,0.3c0.2,0.2,0.3,0.4,0.3,0.7v3.8c0,0.3-0.1,0.5-0.3,0.7c-0.2,0.2-0.4,0.3-0.6,0.3h-9.5V286.7z"/>
</g>
<g>
	<path class="st1" d="M130.5,123.2l-2.4-2.2l-2.4,2.2v0.1L123,126c1.6,1.6,3.3,2.5,5.1,2.5c1.8,0,3.5-0.9,5.1-2.5L130.5,123.2
		L130.5,123.2z"/>
	<polygon class="st3" points="135.7,130.8 120.5,130.8 119.9,135.8 136.4,135.8 	"/>
	<path class="st4" d="M117.8,131.1c0,0-2,14.4-2.7,19.4c-5.8,38.8-14,79.6-23.3,83.6c-0.7,0.3-1.4-0.3-1.3-1
		c1.2-6.1,3.8-22.4,4.6-36.9c0.6-10.8,0.9-30.3,1-50.4l5.7-5.3c0.5-0.4,1.2-0.3,1.2,0.4v5L117.8,131.1L117.8,131.1z"/>
	<path class="st5" d="M102.8,146v-5c0-0.7-0.7-0.9-1.2-0.4l-3.5,3.3c-0.1,1.7-0.8,32.3-0.8,38.6c0,17.6-4.6,45.2-4.2,45.2
		c4.1,0,9.7-59.9,11.6-83.7L102.8,146z"/>
	<path class="st4" d="M138.5,131.1c0,0,2,14.4,2.7,19.4c5.8,38.8,14,79.6,23.3,83.6c0.7,0.3,1.4-0.3,1.3-1
		c-1.2-6.1-3.8-22.4-4.6-36.9c-0.6-10.8-0.9-30.3-1-50.4l-5.7-5.3c-0.5-0.4-1.2-0.3-1.2,0.4v5L138.5,131.1L138.5,131.1z"/>
	<path class="st6" d="M187,69.6c-3.3-0.5-13.3-0.4-13.4-0.4l12.5-2.9c9.6-20.1-5.1-29.6-14-29.6c-3,0-10.9,1.1-11.8,1.1
		c0,0,1.5-0.2,1.9-0.6c0-3.7-10.6-16.1-34.1-16.1C104.7,21.1,94,33.5,94,37.2c0.4,0.4,1.9,0.6,1.9,0.6c-0.9,0-8.8-1.1-11.8-1.1
		c-8.8,0-23.5,9.5-14,29.6l12.5,2.9c-0.1,0-10.2-0.1-13.4,0.4c-4.5,0.7-13.3,5.4-13.3,13.9c0,3.9,1.7,15.5,1.7,15.5h141.1
		c0,0,1.7-11.6,1.7-15.5C200.4,75,191.5,70.3,187,69.6L187,69.6z"/>
	<path class="st7" d="M181.5,44.4c-2.1-1.5-5-2.2-8.7-2.2c0,0-1.7,0.1-2.6,0.2c-9.1,1.1-12.3,6-21,6c-4.4,0-2.1-10.4-2.1-10.4
		s11.2,0.3,11.2-0.5c0-3.4-13.2-13-29.1-13h-1.9c-16,0-29.1,9.7-29.1,13c0,0.8,11.2,0.5,11.2,0.5s2.4,10.4-2.1,10.4
		c-8.7,0-12-4.8-21-6c-1-0.1-2.6-0.2-2.6-0.2c-3.8,0-6.6,0.6-8.7,2.2c-3,2.2-9,10.2,1.5,23.4l6.3,1.4h90.9l6.3-1.4
		C190.5,54.5,184.4,46.5,181.5,44.4L181.5,44.4z"/>
	<path class="st8" d="M82.7,69.2L82.7,69.2L82.7,69.2z"/>
	<path class="st1" d="M84.8,50.8c-0.6,0-1.2,0.2-1.7,0.6c0.2,0.2,0.3,0.4,0.3,0.6c0,0.5-0.4,0.9-0.9,0.9c-0.2,0-0.4-0.1-0.6-0.2
		c-0.3,0.6-0.5,1.3-0.5,2c0,2.2,1.5,3.9,3.5,3.9s3.5-1.7,3.5-3.9C88.3,52.5,86.7,50.8,84.8,50.8z"/>
	<path class="st9" d="M84.1,52c0-0.4-0.2-0.9-0.5-1.1c-0.3-0.3-0.7-0.5-1.2-0.5c-0.9,0-1.7,0.8-1.7,1.6c0,0.5,0.3,1,0.6,1.3
		c0.3,0.2,0.6,0.3,1,0.3C83.3,53.7,84.1,52.9,84.1,52z"/>
	<polygon class="st10" points="125.4,76.5 121.4,72.8 125.4,76.5 	"/>
	<path class="st3" d="M94.9,146.9L94.9,146.9L94.9,146.9z"/>
	<path class="st8" d="M98.2,143.8l-2.1,2L98.2,143.8z"/>
	<polygon class="st8" points="101.6,140.5 98.2,143.8 98.2,143.8 	"/>
	<path class="st8" d="M98.2,143.8L98.2,143.8L98.2,143.8z"/>
	<path class="st11" d="M57.6,99L57.6,99L57.6,99z"/>
	<polygon class="st10" points="125.6,76.7 127.3,78.3 125.4,76.5 	"/>
	<path class="st3" d="M151.4,146.9L151.4,146.9L151.4,146.9z"/>
	<path class="st8" d="M148.1,143.8L148.1,143.8L148.1,143.8z"/>
	<path class="st11" d="M131.9,85.5L131.9,85.5L131.9,85.5z"/>
	<path class="st8" d="M173.6,69.2L173.6,69.2L173.6,69.2z"/>
	<path class="st1" d="M172.7,50.8c-0.6,0-1.2,0.2-1.7,0.6c0.2,0.2,0.3,0.4,0.3,0.6c0,0.5-0.4,0.9-0.9,0.9c-0.2,0-0.4-0.1-0.6-0.2
		c-0.3,0.6-0.5,1.3-0.5,2c0,2.2,1.5,3.9,3.5,3.9c1.9,0,3.5-1.7,3.5-3.9C176.2,52.5,174.6,50.8,172.7,50.8z"/>
	<path class="st9" d="M172,52c0-0.4-0.2-0.9-0.5-1.1c-0.3-0.3-0.7-0.5-1.2-0.5c-0.9,0-1.7,0.8-1.7,1.6c0,0.5,0.3,1,0.6,1.3
		c0.3,0.2,0.6,0.3,1,0.3C171.2,53.7,172,52.9,172,52z"/>
	<polygon class="st10" points="130.9,76.5 134.9,72.8 130.8,76.5 	"/>
	<path class="st5" d="M153.5,146v-5c0-0.7,0.7-0.9,1.2-0.4l3.5,3.3c0.1,1.7,0.8,32.3,0.8,38.6c0,17.6,4.6,45.2,4.2,45.2
		c-4.1,0-9.7-59.9-11.6-83.7L153.5,146z"/>
	<path class="st3" d="M161.4,146.9L161.4,146.9L161.4,146.9z"/>
	<path class="st8" d="M158.1,143.8l2.1,2L158.1,143.8z"/>
	<polygon class="st8" points="154.6,140.5 158.1,143.8 158.1,143.8 	"/>
	<path class="st8" d="M158.1,143.8L158.1,143.8L158.1,143.8z"/>
	<path class="st11" d="M198.7,99L198.7,99L198.7,99z"/>
	<polygon class="st10" points="130.6,76.7 129,78.3 130.8,76.5 	"/>
	<path class="st3" d="M175.7,81.3c-13.8-5.9-34.5-8-40.8-8.5l-4.1,3.7l-0.2,0.2l-1.7,1.5c-0.2,0.2-0.5,0.3-0.8,0.3
		c-0.3,0-0.6-0.1-0.8-0.3l-1.7-1.5l-0.2-0.2l-4.1-3.7c-6.3,0.5-27,2.6-40.8,8.5c-14.9,6.3-23,18.2-23,17.7l0.7,7.5v-0.1
		c22.3-25.1,67.4,16.7,67.4,16.7l2.4-2.2l2.4,2.2c0,0,45.1-41.9,67.4-16.7v0.1l0.7-7.5C198.7,99.5,190.5,87.6,175.7,81.3L175.7,81.3
		z"/>
	<path class="st7" d="M125.8,123.2l-3-30.7c-3.2,4.1-9,7.8-18.5,7.8c-14.8,0-23.5-19.1-45.9,6.1l4.6,48.8l0.3,2.3l6.3-6.3l0.8-42.6
		l1-0.6l0.3,53.5l7.5-6.3l3.4-2.9c0.3-12.5,0.6-34,0.6-34l1-0.7l0.2,39.4l6.1-5.8l0.4-0.4l3.7-3.5c0.2-10.1,0.4-19.8,0.4-19.8l1-0.9
		L96,146l2.1-2l3.5-3.3c0.2-0.2,0.4-0.3,0.6-0.3c0.3,0,0.6,0.3,0.6,0.7v5L125.8,123.2L125.8,123.2z"/>
	<path class="st10" d="M145.3,65c-0.2-0.1-0.4-0.1-0.6-0.1h-33.2c-0.2,0-0.5,0.1-0.6,0.1c-0.5,0.3-0.7,0.8-0.5,1.2l0.2,0.3L125.4,80
		l0.1,0.1l1.9,1.7c0.2,0.2,0.5,0.3,0.8,0.3c0.3,0,0.6-0.1,0.8-0.3l1.9-1.7l0.1-0.1l14.7-13.6c0.1-0.1,0.1-0.1,0.2-0.3
		C146,65.8,145.8,65.2,145.3,65L145.3,65z"/>
	<path class="st7" d="M130.5,123.2l3-30.7c3.2,4.1,9,7.8,18.5,7.8c14.8,0,23.5-19.1,45.9,6.1l-4.6,48.8l-0.3,2.3l-6.3-6.3l-0.8-42.6
		l-1-0.6l-0.3,53.5l-7.5-6.3l-3.4-2.9c-0.3-12.5-0.6-34-0.6-34l-1-0.7l-0.2,39.4l-6.1-5.8l-0.4-0.4l-3.7-3.5
		c-0.2-10.1-0.4-19.8-0.4-19.8l-1-0.9l-0.1,19.3l-2.1-2l-3.5-3.3c-0.2-0.2-0.4-0.3-0.6-0.3c-0.3,0-0.6,0.3-0.6,0.7v5L130.5,123.2
		L130.5,123.2z"/>
	<path class="st10" d="M190.2,56.9c0-1.3,0-2.5-0.1-3.7V67C190.2,56.7,190.2,57.2,190.2,56.9z"/>
	<path class="st3" d="M106.8,52.3c7.3,0,3-11.8,3-11.8s0.6,4.9-5.1,4.9c-10.9,0-10.9-3.7-19.7-3.7c-7.2,0-9.5,2.3-9.5,2.3
		C92,39.9,96.2,52.3,106.8,52.3L106.8,52.3z"/>
	<path class="st12" d="M138.5,131.1"/>
	<path class="st7" d="M136.3,135.3l-4-3.9c-1.4,0.2-2.8,0.3-4.2,0.3c-1.4,0-2.8-0.1-4.2-0.3l-4,3.9l-2.4,17.6
		c3,2.4,6.5,3.4,10.5,3.4h0.3c4.1,0,7.5-1,10.5-3.4L136.3,135.3z"/>
	<path class="st6" d="M135.3,128l-2-2c-1.6,1.6-3.3,2.5-5.1,2.5c-1.8,0-3.5-0.9-5.1-2.5l-2,2l-0.4,2.9c0.5,0.1,0.8,0.2,1.3,0.3
		c2.1,0.4,4.1,0.6,6.2,0.6c2.1,0,4.2-0.2,6.2-0.6c0.5-0.1,0.9-0.2,1.3-0.3L135.3,128L135.3,128z"/>
	<path class="st3" d="M149.5,52.3c-7.3,0-3-11.8-3-11.8s-0.6,4.9,5.1,4.9c10.9,0,10.9-3.7,19.7-3.7c7.2,0,9.5,2.3,9.5,2.3
		C164.2,39.9,160.1,52.3,149.5,52.3z"/>
</g>
</svg>
