<?xml version="1.0" encoding="utf-8"?>
<!-- Generator: Adobe Illustrator 24.3.0, SVG Export Plug-In . SVG Version: 6.00 Build 0)  -->
<svg version="1.1" id="Layer_1" xmlns="http://www.w3.org/2000/svg" xmlns:xlink="http://www.w3.org/1999/xlink" x="0px" y="0px"
	 viewBox="0 0 256 300" style="enable-background:new 0 0 256 300;" xml:space="preserve">
<style type="text/css">
	.st0{fill:#FFFFFF;}
	.st1{fill:#A0D3A4;}
	.st2{fill:#231F20;}
	.st3{fill-rule:evenodd;clip-rule:evenodd;fill:#FEFEFE;}
	.st4{fill-rule:evenodd;clip-rule:evenodd;fill:#A0D3A4;}
	.st5{fill-rule:evenodd;clip-rule:evenodd;fill:#FEFDFD;}
	.st6{fill-rule:evenodd;clip-rule:evenodd;fill:#E7BB8E;}
	.st7{fill-rule:evenodd;clip-rule:evenodd;fill:#995F44;}
	.st8{fill-rule:evenodd;clip-rule:evenodd;fill:#DEAD7B;}
	.st9{fill-rule:evenodd;clip-rule:evenodd;fill:#E5E8F1;}
	.st10{fill-rule:evenodd;clip-rule:evenodd;fill:#E8EBF3;}
	.st11{fill-rule:evenodd;clip-rule:evenodd;fill:#CE9B6E;}
	.st12{fill-rule:evenodd;clip-rule:evenodd;fill:#E4B88B;}
	.st13{fill-rule:evenodd;clip-rule:evenodd;fill:#DAA97B;}
	.st14{fill-rule:evenodd;clip-rule:evenodd;fill:#FCF9F6;}
	.st15{fill-rule:evenodd;clip-rule:evenodd;fill:#E6EAF3;}
	.st16{fill-rule:evenodd;clip-rule:evenodd;fill:#E6BC8F;}
	.st17{fill-rule:evenodd;clip-rule:evenodd;fill:#CB956B;}
	.st18{fill-rule:evenodd;clip-rule:evenodd;fill:#674934;}
	.st19{fill-rule:evenodd;clip-rule:evenodd;fill:#603B28;}
</style>
<path class="st0" d="M27.5,162.6h201c15.2,0,27.5,12.3,27.5,27.5v82.4c0,15.2-12.3,27.5-27.5,27.5h-201C12.3,300,0,287.7,0,272.5
	v-82.4C0,174.9,12.3,162.6,27.5,162.6z"/>
<path class="st1" d="M60,0h136c33.1,0,60,26.9,60,60v136c0,33.1-26.9,60-60,60H60c-33.1,0-60-26.9-60-60V60C0,26.9,26.8,0,60,0z"/>
<g>
	<path class="st2" d="M95.8,274.6c-0.1,0.2-0.3,0.2-0.5,0.2H91c-0.3,0-0.6,0-0.7-0.1c-0.2-0.1-0.4-0.2-0.6-0.5c0,0-0.2-0.2-0.4-0.5
		c-0.2-0.3-0.6-0.5-1.1-0.7s-1.1-0.3-1.8-0.3c-1,0-1.7,0.1-2.3,0.4c-0.6,0.3-0.9,0.8-0.9,1.4c0,0.5,0.2,0.9,0.6,1.1
		c0.4,0.3,1,0.5,1.7,0.7c0.8,0.2,2.2,0.5,4.1,1c2.5,0.6,4.3,1.4,5.5,2.6s1.8,2.9,1.8,5c0,1.6-0.4,3-1.3,4.2s-2.1,2.1-3.7,2.7
		s-3.3,1-5.3,1c-1.9,0-3.6-0.4-5.2-1.1s-2.8-1.7-3.7-2.8c-0.9-1.2-1.4-2.3-1.4-3.6c0-0.2,0.1-0.4,0.2-0.6s0.3-0.2,0.5-0.2h4.4
		c0.5,0,0.9,0.2,1.3,0.5c0.1,0.1,0.2,0.3,0.5,0.6c0.3,0.3,0.7,0.7,1.3,0.9c0.6,0.3,1.3,0.4,2.1,0.4c2.8,0,4.1-0.6,4.1-1.9
		c0-0.4-0.2-0.8-0.6-1c-0.4-0.3-0.9-0.5-1.6-0.7s-1.8-0.5-3.4-0.8l-1.5-0.3c-2.3-0.5-3.9-1.4-5-2.6s-1.6-2.9-1.6-5
		c0-1.4,0.4-2.7,1.2-3.9c0.8-1.2,1.9-2.1,3.3-2.8s3.1-1.1,4.9-1.1s3.4,0.4,4.9,1.1s2.7,1.7,3.5,2.8c0.9,1.1,1.3,2.2,1.3,3.2
		C96,274.2,96,274.4,95.8,274.6z"/>
	<path class="st2" d="M100.3,292.2c-0.2-0.2-0.3-0.4-0.3-0.7v-23.3c0-0.3,0.1-0.5,0.3-0.7c0.2-0.2,0.4-0.3,0.6-0.3h4.4
		c0.2,0,0.5,0.1,0.6,0.3c0.2,0.2,0.3,0.4,0.3,0.7v23.3c0,0.3-0.1,0.5-0.3,0.7c-0.2,0.2-0.4,0.3-0.6,0.3h-4.4
		C100.7,292.5,100.5,292.4,100.3,292.2z"/>
	<path class="st2" d="M125.1,292.2c-0.2-0.2-0.4-0.4-0.5-0.6l-7.6-12.3v12.2c0,0.3-0.1,0.5-0.3,0.7c-0.2,0.2-0.4,0.3-0.6,0.3h-4.4
		c-0.2,0-0.5-0.1-0.6-0.3c-0.2-0.2-0.3-0.4-0.3-0.7v-23.3c0-0.3,0.1-0.5,0.3-0.7c0.2-0.2,0.4-0.3,0.6-0.3h3.5c0.3,0,0.6,0.1,0.9,0.3
		c0.2,0.2,0.4,0.4,0.5,0.6l7.6,12.3v-12.2c0-0.3,0.1-0.5,0.3-0.7c0.2-0.2,0.4-0.3,0.6-0.3h4.4c0.2,0,0.5,0.1,0.6,0.3
		c0.2,0.2,0.3,0.4,0.3,0.7v23.3c0,0.3-0.1,0.5-0.3,0.7s-0.4,0.3-0.6,0.3H126C125.7,292.5,125.4,292.4,125.1,292.2z"/>
	<path class="st2" d="M150.1,268.2c1.5,0.9,2.7,2,3.5,3.5s1.3,3.1,1.4,5c0,0.7,0.1,1.8,0.1,3.2c0,1.5,0,2.5-0.1,3.2
		c-0.1,1.8-0.5,3.5-1.4,5c-0.8,1.5-2,2.6-3.5,3.5s-3.4,1.3-5.5,1.3s-3.9-0.4-5.5-1.3c-1.5-0.9-2.7-2-3.5-3.5s-1.3-3.1-1.4-5
		c0-1.3-0.1-2.4-0.1-3.2c0-0.8,0-1.9,0.1-3.2c0.1-1.8,0.5-3.5,1.4-5c0.8-1.5,2-2.6,3.5-3.5s3.3-1.3,5.5-1.3
		C146.7,266.9,148.5,267.3,150.1,268.2z M147.6,273.8c-0.7-0.8-1.7-1.1-3-1.1s-2.3,0.4-3,1.1c-0.7,0.8-1.1,1.8-1.2,3
		c-0.1,0.8-0.1,1.8-0.1,3s0,2.2,0.1,3.1c0.1,1.3,0.5,2.3,1.2,3c0.7,0.8,1.7,1.1,3,1.1s2.3-0.4,3-1.1c0.7-0.8,1.1-1.8,1.2-3
		c0.1-0.9,0.1-1.9,0.1-3.1s0-2.2-0.1-3C148.7,275.6,148.3,274.6,147.6,273.8z"/>
	<path class="st2" d="M173.2,292.2c-0.2-0.2-0.4-0.4-0.5-0.6l-7.6-12.3v12.2c0,0.3-0.1,0.5-0.3,0.7s-0.4,0.3-0.6,0.3h-4.4
		c-0.2,0-0.5-0.1-0.6-0.3c-0.2-0.2-0.3-0.4-0.3-0.7v-23.3c0-0.3,0.1-0.5,0.3-0.7s0.4-0.3,0.6-0.3h3.5c0.3,0,0.6,0.1,0.9,0.3
		c0.2,0.2,0.4,0.4,0.5,0.6l7.6,12.3v-12.2c0-0.3,0.1-0.5,0.3-0.7s0.4-0.3,0.6-0.3h4.4c0.2,0,0.5,0.1,0.6,0.3
		c0.2,0.2,0.3,0.4,0.3,0.7v23.3c0,0.3-0.1,0.5-0.3,0.7s-0.4,0.3-0.6,0.3H174C173.7,292.5,173.4,292.4,173.2,292.2z"/>
</g>
<circle class="st3" cx="128" cy="128" r="117.3"/>
<g id="Layer_x0020_1">
	<g id="_1935074248496">
		<path class="st4" d="M29,160.8c9.6-2.2,20.8-6.6,30.6-9.7c5.8-1.8,26.9-9.5,31.1-9.4c1-1-1.4-0.8,2.6-1.2l7.6-3l0.5-7.3
			c-3.9-4.8-3-4.4-3.2-12.5c-0.1-4.8-0.3-9.8-0.5-14.5l-2.8-2.7c-1-1.3-0.8-1.3-2.3-2.5l0.1-12.6l2.4-0.1c-0.8-3.3-1.8-6.9-2.9-10
			c-0.6-1.7-1.2-3.3-1.7-5c-0.8-3-1.4-3.3,0.8-4.6l11.2-14.8c3-3.4,12.9-5.3,18.2-7.1c10.2-3.5,10-2.9,18.3,2.3
			c6.9,4.3,9.5,4.3,19.6,5.8c5.4,16.3,3.3,16.5,1.7,33.4l3.9,0.4c0.2,7.8,1.4,13.7-5.6,18.1l-0.8,23.8l-2.4,2.3l-0.1,6.8
			c1.6,2.3,3.6,2.2,6.7,2.5l2.5-2.4c3.3,0.7,14.3,2.5,16.3,5.3l0.3,1l0.3,1l2.2,0.8l2.3-2.4l13.2,3.1c3.3,0.9,2.4,0.1,3.6,2.4l0.5,2
			c7.3,2.4,6.8,0.4,12,5.6c2.8,2.7,6.9,6.8,9.8,8.9c6.3-11.1,7.8-40.3,5.4-53.8c-4.2-24.1-15.4-45-32.9-59.9
			c-1.4-1.2-2.2-2.5-3.7-3.7c-29.9-25.7-77.2-30.3-112.8-12.3L61.8,47c-1.4,1.2-2.2,2.5-3.7,3.7c-1.9,1.6-2.6,1.6-4.5,3.7
			c-16,17.1-27.8,40-29.5,64V136C24.9,143.8,26.9,149.8,29,160.8L29,160.8z"/>
		<path class="st3" d="M166.5,220.4c-5.8-0.3-39.1-7.6-48.7-9.7c-19.2-4.2-16.3,0.9-22.6-15.8l-16.7-41c1.3,0.8-0.3-0.8,1,0.8
			l22.3,44.3c1.6,3.5,1,3,5,4L166.5,220.4L166.5,220.4z M132.7,231.4h-12c-8.4-0.5-16.7-2-24.4-4.6c-16.1-5.5-29.8-13.6-41.9-25.2
			c-2.1-2-2.2-3-4-5C32.9,177,34.2,169.4,29,160.8c9.6-2.2,20.8-6.6,30.6-9.7c5.8-1.8,26.9-9.5,31.1-9.4l24.8,33.6
			c3.3,4.2,8.6,3.5,13.6,6.6l13.1,3.2c0.8,0.6-0.6,0.2,1.7,1c0.7,0.2,1.3,0.3,1.9,0.5c1.9,0.5,2.8,0.9,4.8,1.5l12.6,3.7
			c0.6,0.5,0.5,0.7,1.8,1.2c0.2,0.1,2.2,0.4,2.5,0.5l13.1,3.9c4.8,1.5,13.8,3.5,17.2,5.9c-1.5,1.9-2.6,3.2-4.4,4.7
			C177.2,222,154.9,230.1,132.7,231.4z"/>
		<path class="st5" d="M136.6,103.8l3.1,0.4l0.1,8c-5.4-0.5-8.3-2.4-13.9-2l-10.3,2.2l0.1-7.5C124,102.1,128.5,100.6,136.6,103.8z
			 M91.2,65.7c1,0.8-0.9,1.3,4.4-0.8c18.2-7.3,16.3-6.5,38.2-9.4c-0.2,0.1-1.3,0.7-1.5,0.8c-1.7,1.4-0.6,0.2-1.6,2.3l3.8,0.6l16,0.8
			c1.3,2.1,2.3,4.1,3.8,6.6c1.8,2.9,2.4,4,2.6,8.3l-5,0.2l-19.2,0.1l1,2.8l19.8,0.2c4,1.4-0.6,0.8,3.8,3.9c0.2,2.4,0.8,5-0.9,6.4
			c-0.3,4.1-5.8,23.8-8.7,25.8c-2.9-1.7-3.7-9.9-4.6-13.7c-1.8-1.6-4.2-2.6-6.9-3.7l-8.1,2.7c-7.4-0.1-8.7-5.5-16.7,0.9l-2.7,13.8
			c-3-0.8-1,1.3-2.5-1.9l-6.4-21.3c-0.9,1-1.1,0.2-1.2,4.1c-0.4,10.9,0.5,16.1,2.8,27.2c7.9,4.3,17.3,6.7,26.8,9.9l0.1,6.9
			c22.9-0.7,12.7-0.4,26.6-9.5l2.4-2.3l0.8-23.8l1.8-18.4c1.6-16.9,3.7-17.1-1.7-33.4c-10-1.5-12.7-1.5-19.6-5.8
			c-8.3-5.2-8-5.8-18.3-2.3c-5.3,1.8-15.1,3.7-18.2,7.1L91.2,65.7L91.2,65.7z"/>
		<path class="st6" d="M163.2,191.8c0.6,0.5,0.5,0.7,1.8,1.2c0.2,0.1,2.2,0.4,2.5,0.5l13.1,3.9c4.8,1.5,13.8,3.5,17.2,5.9
			c3.5-1.1,12.8-13.6,15.5-17.2l8.8-15.8c1.1-2.2,1.5-3.7,2.4-6c-2.9-2-7-6.1-9.8-8.9c-5.2-5.1-4.7-3.2-12-5.6l-1.1-0.3
			c-4.3,0.6-1-1.3-3.9,2l-23.5,29.8c-3,3.8-5.4,6.6-8.5,10.6L163.2,191.8z"/>
		<path class="st6" d="M128.6,139.4l-15.4-0.3c1.4,1.2-2.1,0.9,3.1,1.5l20.3-0.3c-7,2.5-14.7,6.4-21.8,8.7
			c-3.6,1.2-17.6-6.6-21.4-8.7c-4.1,0.4-1.6,0.3-2.6,1.2l24.8,33.6c3.3,4.2,8.6,3.5,13.6,6.6c0-4.3,21.2-27.9,24.6-32.3
			c2.5-3.3,6.4-7.4,8.1-10.6c-3-0.2-5.1-0.2-6.7-2.5l0.1-6.8C141.3,139,151.4,138.7,128.6,139.4L128.6,139.4z"/>
		<path class="st7" d="M161.7,139.1c-1.8,3.2-5.6,7.3-8.1,10.6c-3.3,4.3-24.5,27.9-24.6,32.3l13.1,3.2l2.6,0.1
			c3.1-3.3,5.8-6.8,8.5-10.4l20.7-26.1c4-5.1,2.6-4,5.3-4.7l-0.4-1.9l1.6-0.3c-2-2.7-13-4.5-16.3-5.3L161.7,139.1L161.7,139.1z"/>
		<path class="st7" d="M183.3,144.8L158.6,177c-2.1,2.4-7.1,8.3-8,11.1l12.6,3.7l2.7,0.2c3.1-4,5.5-6.9,8.5-10.6l23.5-29.8
			c2.9-3.3-0.4-1.4,3.9-2c-1.8-2.1,1.9-0.9-1.5-1.6c1.3-0.7,0.2-0.5,2.1-0.2c-1.2-2.4-0.3-1.5-3.6-2.4l-13.2-3.1L183.3,144.8
			L183.3,144.8z"/>
		<path class="st6" d="M128.4,99.7l8.1-2.7c2.6,1.2,5,2.1,6.9,3.7c0.8,3.8,1.7,12,4.6,13.7c2.9-1.9,8.3-21.7,8.7-25.8l-2.6-6.4
			c-1.9,1.5-1,0.7-3.6,1.1c-3.2,0.4-2.2-0.6-3.3,1.5c-0.8,1.5,0.1,0.9-1.7,1.4l-3.3,0.4c-1.6-1.7-0.7,2.5-1.6-2.2l-5.8,0.4
			c-0.4-1.6-1.9-4.2,0-4.3l-0.9-2.4l-1-2.8l19.2-0.1L149,63.9c-2.5-0.5-12.1-3-14.4-4.7l-3.8-0.6c-1.4-0.2-3.2-1.1-3.2,0.8
			C129.1,61.5,128.6,94.9,128.4,99.7L128.4,99.7z"/>
		<path class="st8" d="M102.4,75.1l20.9,0.1l-0.7,2l-0.9,2.2c1.5,1.5,0.6-0.8,1.1,1.9l-2.3,3.7l-6.3,1l-3.6,0.3
			c-1.5-0.5-1,0.1-1.6-1.3c-1.3-1.7,0.1-0.9-2.1-1.5c-0.1,0-1.8-0.1-2.1-0.1c-2-0.2-1.9,0-3.5-0.8c-1.1,1.2-1.4,1.7-1.7,4.1
			c-0.3,2.4,0,2.5,0.7,4.5l6.4,21.3c1.6,3.2-0.5,1,2.5,1.9l2.7-13.8c7.9-6.3,9.3-1,16.7-0.9c0.1-4.8,0.6-38.2-0.9-40.2
			c-3.4-0.1-10.9,3.9-14.7,5.4C105.7,67.6,103.2,66.6,102.4,75.1z"/>
		<path class="st9" d="M91.2,65.7c-2.2,1.3-1.6,1.6-0.8,4.6c0.4,1.7,1.1,3.2,1.7,5c1.1,3.1,2.1,6.8,2.9,10
			c2.1,6.4,2.7,10.3,2.6,17.9c0.3,4.7,0.4,9.7,0.5,14.5c0.2,8-0.7,7.7,3.2,12.5c2,1,9.5,7,11.8,9l15.4,0.3l-0.1-6.9
			c-9.4-3.2-18.8-5.6-26.8-9.9c-2.3-11.2-3.2-16.3-2.8-27.2c0.1-4,0.3-3.2,1.2-4.1c-0.7-2-1-2.2-0.7-4.5c0.3-2.4,0.6-3,1.7-4.1
			c1-1.5-1.1-0.3,1.2-1l7.3-0.1c9,0,8.7,1,12-2l0.9-2.2c-3.2,2.2-20.1,1.8-25.2,0.6l0-2.9l4.9,0.3c0.8-8.5,3.3-7.5,10.5-10.3
			c3.8-1.5,11.3-5.5,14.7-5.4c0-1.9,1.8-1,3.2-0.8c1-2.1-0.1-0.9,1.6-2.3c0.2-0.2,1.3-0.7,1.5-0.8c-21.9,2.9-20,2.2-38.2,9.4
			C90.4,67,92.2,66.4,91.2,65.7z"/>
		<path class="st10" d="M166.5,220.4L106.8,203c-4-1-3.4-0.5-5-4l-22.3-44.3c-1.2-1.6,0.3,0-1-0.8l16.7,41
			c6.3,16.6,3.4,11.5,22.6,15.8C127.4,212.8,160.7,220.1,166.5,220.4z"/>
		<path class="st11" d="M93.3,140.4c3.8,2.1,17.8,9.8,21.4,8.7c7.1-2.3,14.8-6.2,21.8-8.7l-20.3,0.3c-5.2-0.6-1.7-0.3-3.1-1.5
			c-2.3-2-9.8-8-11.8-9l-0.5,7.3C100.9,137.4,93.3,140.4,93.3,140.4z"/>
		<path class="st12" d="M179.2,144.1c-2.7,0.8-1.3-0.4-5.3,4.7l-20.7,26.1c-2.7,3.5-5.4,7-8.5,10.4l-2.6-0.1c0.8,0.6-0.6,0.2,1.7,1
			c0.7,0.2,1.3,0.3,1.9,0.5c1.9,0.5,2.8,0.9,4.8,1.5c0.9-2.8,5.9-8.8,8-11.1l24.7-32.1l-2.2-0.8l-0.3-1l0.2,1.3L179.2,144.1
			L179.2,144.1z"/>
		<path class="st13" d="M126,110.2l4-2.6c-3.7,0.2-5.9,0.7-6.9-2.9c2.6-0.3,8.4-0.8,9.8,0.7l4.8,0.4c1.4-0.1,1.3-0.3,1.9-0.6
			l-3.1-1.5c-8.1-3.2-12.6-1.6-20.8,1.1l-0.1,7.5L126,110.2z"/>
		<path class="st9" d="M152.1,75.1l5-0.2c-0.2-4.3-0.8-5.4-2.6-8.3c-1.5-2.5-2.5-4.5-3.8-6.6l-16-0.8c2.3,1.6,11.9,4.2,14.4,4.7
			C149,63.9,152.1,75.1,152.1,75.1z"/>
		<path class="st14" d="M122.6,77.3l0.7-2l-20.9-0.1l-4.9-0.3l0,2.9C102.5,79.1,119.3,79.5,122.6,77.3z"/>
		<path class="st15" d="M134.8,80.5c7.3,1.3,7.1,1,14.8,1c0.4,0,2.2,0,2.5,0c3.3,0.4,1.3,0.1,2,0.8l2.6,6.4c1.7-1.4,1.1-4,0.9-6.4
			c-4.4-3.1,0.2-2.5-3.8-3.9l-19.8-0.2L134.8,80.5z"/>
		<path class="st16" d="M158.3,103.7c7-4.4,5.8-10.2,5.6-18.1l-3.9-0.4L158.3,103.7z"/>
		<path class="st16" d="M97.6,103.1c0.1-7.5-0.5-11.5-2.6-17.9l-2.4,0.1L92.5,98c1.5,1.2,1.3,1.1,2.3,2.5
			C94.8,100.5,97.6,103.1,97.6,103.1z"/>
		<path class="st17" d="M101.2,82.5c1.7,0.8,1.6,0.6,3.5,0.8c0.2,0,2,0.1,2.1,0.1c2.2,0.6,0.8-0.1,2.1,1.5c1.9-1.4,5-3.3,5.2,1.1
			l6.3-1l2.3-3.7c-0.6-2.7,0.3-0.4-1.1-1.9c-3.2,3-2.9,2-12,2l-7.3,0.1C100.1,82.2,102.2,81,101.2,82.5z"/>
		<path class="st16" d="M133,105.4c-1.2,1.6-0.4,1.4-2.9,2.2l-4,2.6c5.6-0.3,8.5,1.5,13.9,2l-0.1-8l-3.1-0.4l3.1,1.5
			c-0.7,0.3-0.6,0.5-1.9,0.6L133,105.4L133,105.4z"/>
		<path class="st17" d="M142.3,86.6c0.1-4.8,2.9-3.3,4.9-1.8c1.1-2.1,0.1-1.1,3.3-1.5c2.6-0.3,1.7,0.4,3.6-1.1
			c-0.7-0.7,1.3-0.4-2-0.8c-0.3,0-2,0-2.5,0c-7.7,0-7.5,0.3-14.8-1c-1.9,0-0.4,2.7,0,4.3l5.8-0.4C141.6,89.1,140.7,85,142.3,86.6
			L142.3,86.6z"/>
		<path class="st18" d="M130,107.6c2.5-0.8,1.8-0.6,2.9-2.2c-1.4-1.5-7.2-1-9.8-0.7C124.1,108.3,126.3,107.8,130,107.6z"/>
		<path class="st18" d="M108.9,85c0.6,1.5,0.1,0.8,1.6,1.3l3.6-0.3C113.9,81.6,110.8,83.6,108.9,85z"/>
		<path class="st18" d="M142.3,86.6l3.3-0.4c1.8-0.5,0.8,0.2,1.7-1.4C145.2,83.3,142.3,81.8,142.3,86.6z"/>
		<polygon class="st19" points="179.2,144.1 181.1,144.3 180.8,143 180.5,142 178.9,142.2 		"/>
		<path class="st19" d="M201.8,149.7l1.1,0.3l-0.5-2c-1.9-0.3-0.8-0.5-2.1,0.2C203.7,148.8,200,147.6,201.8,149.7L201.8,149.7z"/>
	</g>
</g>
</svg>
