<?xml version="1.0" encoding="utf-8"?>
<!-- Generator: Adobe Illustrator 24.3.0, SVG Export Plug-In . SVG Version: 6.00 Build 0)  -->
<svg version="1.1" id="Layer_1" xmlns="http://www.w3.org/2000/svg" xmlns:xlink="http://www.w3.org/1999/xlink" x="0px" y="0px"
	 viewBox="0 0 256 300" style="enable-background:new 0 0 256 300;" xml:space="preserve">
<style type="text/css">
	.st0{fill:#FFFFFF;}
	.st1{fill:#231F20;}
	.st2{fill:#CD6799;}
	.st3{clip-path:url(#SVGID_1_);}
</style>
<path class="st0" d="M27.5,162.6h201c15.2,0,27.5,12.3,27.5,27.5v82.4c0,15.2-12.3,27.5-27.5,27.5h-201C12.3,300,0,287.7,0,272.5
	v-82.4C0,174.9,12.3,162.6,27.5,162.6z"/>
<g>
	<path class="st1" d="M103,274.6c-0.1,0.2-0.3,0.2-0.5,0.2h-4.4c-0.3,0-0.6,0-0.7-0.1c-0.2-0.1-0.4-0.2-0.6-0.5c0,0-0.2-0.2-0.4-0.5
		c-0.2-0.3-0.6-0.5-1.1-0.7c-0.5-0.2-1.1-0.3-1.8-0.3c-1,0-1.7,0.1-2.3,0.4c-0.6,0.3-0.9,0.8-0.9,1.4c0,0.5,0.2,0.9,0.6,1.1
		c0.4,0.3,1,0.5,1.7,0.7c0.8,0.2,2.2,0.5,4.1,1c2.5,0.6,4.3,1.4,5.5,2.6c1.2,1.2,1.8,2.9,1.8,5c0,1.6-0.4,3-1.3,4.2
		c-0.9,1.2-2.1,2.1-3.7,2.7c-1.6,0.6-3.3,1-5.3,1c-1.9,0-3.6-0.4-5.2-1.1c-1.6-0.7-2.8-1.7-3.7-2.8c-0.9-1.2-1.4-2.3-1.4-3.6
		c0-0.2,0.1-0.4,0.2-0.6c0.1-0.2,0.3-0.2,0.5-0.2h4.4c0.5,0,0.9,0.2,1.3,0.5c0.1,0.1,0.2,0.3,0.5,0.6c0.3,0.3,0.7,0.7,1.3,0.9
		c0.6,0.3,1.3,0.4,2.1,0.4c2.8,0,4.1-0.6,4.1-1.9c0-0.4-0.2-0.8-0.6-1c-0.4-0.3-0.9-0.5-1.6-0.7c-0.7-0.2-1.8-0.5-3.4-0.8l-1.5-0.3
		c-2.3-0.5-3.9-1.4-5-2.6c-1.1-1.2-1.6-2.9-1.6-5c0-1.4,0.4-2.7,1.2-3.9c0.8-1.2,1.9-2.1,3.3-2.8s3.1-1.1,4.9-1.1
		c1.8,0,3.4,0.4,4.9,1.1c1.5,0.7,2.7,1.7,3.5,2.8c0.9,1.1,1.3,2.2,1.3,3.2C103.2,274.2,103.1,274.4,103,274.6z"/>
	<path class="st1" d="M127.8,291.1c0.1,0.2,0.1,0.4,0.1,0.5c0,0.2-0.1,0.4-0.2,0.6c-0.1,0.2-0.3,0.2-0.5,0.2H123
		c-0.4,0-0.7-0.1-0.9-0.3c-0.2-0.2-0.3-0.4-0.4-0.6l-0.9-3h-8.9l-0.9,3c-0.1,0.2-0.2,0.5-0.4,0.6c-0.2,0.2-0.5,0.3-0.9,0.3h-4.2
		c-0.2,0-0.4-0.1-0.5-0.2c-0.1-0.2-0.2-0.3-0.2-0.6c0-0.1,0-0.3,0.1-0.5l7.3-22.7c0.1-0.3,0.3-0.6,0.5-0.8c0.2-0.2,0.6-0.3,1-0.3
		h5.4c0.4,0,0.7,0.1,1,0.3c0.2,0.2,0.4,0.5,0.5,0.8L127.8,291.1z M119.1,283l-2.7-8.6l-2.7,8.6H119.1z"/>
	<path class="st1" d="M148.9,274.6c-0.1,0.2-0.3,0.2-0.5,0.2H144c-0.3,0-0.6,0-0.7-0.1c-0.2-0.1-0.4-0.2-0.6-0.5
		c0,0-0.2-0.2-0.4-0.5c-0.2-0.3-0.6-0.5-1.1-0.7c-0.5-0.2-1.1-0.3-1.8-0.3c-1,0-1.7,0.1-2.3,0.4c-0.6,0.3-0.9,0.8-0.9,1.4
		c0,0.5,0.2,0.9,0.6,1.1c0.4,0.3,1,0.5,1.7,0.7c0.8,0.2,2.2,0.5,4.1,1c2.5,0.6,4.3,1.4,5.5,2.6c1.2,1.2,1.8,2.9,1.8,5
		c0,1.6-0.4,3-1.3,4.2c-0.9,1.2-2.1,2.1-3.7,2.7s-3.3,1-5.3,1c-1.9,0-3.6-0.4-5.2-1.1c-1.6-0.7-2.8-1.7-3.7-2.8
		c-0.9-1.2-1.4-2.3-1.4-3.6c0-0.2,0.1-0.4,0.2-0.6c0.1-0.2,0.3-0.2,0.5-0.2h4.4c0.5,0,0.9,0.2,1.3,0.5c0.1,0.1,0.2,0.3,0.5,0.6
		c0.3,0.3,0.7,0.7,1.3,0.9c0.6,0.3,1.3,0.4,2.1,0.4c2.8,0,4.1-0.6,4.1-1.9c0-0.4-0.2-0.8-0.6-1c-0.4-0.3-0.9-0.5-1.6-0.7
		c-0.7-0.2-1.8-0.5-3.4-0.8l-1.5-0.3c-2.3-0.5-3.9-1.4-5-2.6c-1.1-1.2-1.6-2.9-1.6-5c0-1.4,0.4-2.7,1.2-3.9c0.8-1.2,1.9-2.1,3.3-2.8
		s3.1-1.1,4.9-1.1c1.8,0,3.4,0.4,4.9,1.1c1.5,0.7,2.7,1.7,3.5,2.8c0.9,1.1,1.3,2.2,1.3,3.2C149.1,274.2,149,274.4,148.9,274.6z"/>
	<path class="st1" d="M171.3,274.6c-0.1,0.2-0.3,0.2-0.5,0.2h-4.4c-0.3,0-0.6,0-0.7-0.1s-0.4-0.2-0.6-0.5c0,0-0.2-0.2-0.4-0.5
		c-0.2-0.3-0.6-0.5-1.1-0.7c-0.5-0.2-1.1-0.3-1.8-0.3c-1,0-1.7,0.1-2.3,0.4c-0.6,0.3-0.9,0.8-0.9,1.4c0,0.5,0.2,0.9,0.6,1.1
		c0.4,0.3,1,0.5,1.7,0.7c0.8,0.2,2.2,0.5,4.1,1c2.5,0.6,4.3,1.4,5.5,2.6c1.2,1.2,1.8,2.9,1.8,5c0,1.6-0.4,3-1.3,4.2
		c-0.9,1.2-2.1,2.1-3.7,2.7c-1.6,0.6-3.3,1-5.3,1c-1.9,0-3.6-0.4-5.2-1.1c-1.6-0.7-2.8-1.7-3.7-2.8c-0.9-1.2-1.4-2.3-1.4-3.6
		c0-0.2,0.1-0.4,0.2-0.6c0.1-0.2,0.3-0.2,0.5-0.2h4.4c0.5,0,0.9,0.2,1.3,0.5c0.1,0.1,0.2,0.3,0.5,0.6c0.3,0.3,0.7,0.7,1.3,0.9
		c0.6,0.3,1.3,0.4,2.1,0.4c2.8,0,4.1-0.6,4.1-1.9c0-0.4-0.2-0.8-0.6-1c-0.4-0.3-0.9-0.5-1.6-0.7c-0.7-0.2-1.8-0.5-3.4-0.8l-1.5-0.3
		c-2.3-0.5-3.9-1.4-5-2.6c-1.1-1.2-1.6-2.9-1.6-5c0-1.4,0.4-2.7,1.2-3.9c0.8-1.2,1.9-2.1,3.3-2.8s3.1-1.1,4.9-1.1
		c1.8,0,3.4,0.4,4.9,1.1c1.5,0.7,2.7,1.7,3.5,2.8c0.9,1.1,1.3,2.2,1.3,3.2C171.5,274.2,171.4,274.4,171.3,274.6z"/>
</g>
<path class="st2" d="M60,0h136c33.1,0,60,26.9,60,60v136c0,33.1-26.9,60-60,60H60c-33.1,0-60-26.9-60-60V60C0,26.9,26.9,0,60,0z"/>
<g>
	<defs>
		<rect id="SVGID_3_" x="28" y="53" width="200" height="149.9"/>
	</defs>
	<clipPath id="SVGID_1_">
		<use xlink:href="#SVGID_3_"  style="overflow:visible;"/>
	</clipPath>
	<g class="st3">
		<path class="st0" d="M200.1,139.2c-7,0-13,1.7-18.1,4.2c-1.9-3.7-3.7-7-4.1-9.4c-0.4-2.8-0.8-4.5-0.4-7.9s2.4-8.1,2.4-8.5
			c0-0.4-0.4-2.1-4.5-2.1c-4,0-7.5,0.8-7.9,1.8c-0.4,1.1-1.2,3.5-1.7,6c-0.7,3.7-8,16.7-12.2,23.5c-1.4-2.7-2.5-5-2.8-6.9
			c-0.4-2.8-0.8-4.5-0.4-7.9c0.4-3.4,2.4-8.1,2.4-8.5c0-0.4-0.4-2.1-4.5-2.1c-4,0-7.5,0.8-7.9,1.8c-0.4,1.1-0.8,3.5-1.7,6
			c-0.8,2.4-10.6,24.2-13.1,29.8c-1.3,2.9-2.4,5.2-3.2,6.8c0,0,0,0.1-0.1,0.3c-0.7,1.4-1.1,2.1-1.1,2.1s0,0,0,0
			c-0.5,1-1.1,1.9-1.4,1.9c-0.2,0-0.6-2.6,0.1-6.2c1.5-7.6,4.9-19.3,4.9-19.7c0-0.2,0.7-2.3-2.3-3.3c-2.8-1.1-3.9,0.7-4.1,0.7
			c-0.3,0-0.4,0.6-0.4,0.6s3.2-13.2-6.1-13.2c-5.8,0-13.7,6.3-17.7,12c-2.5,1.4-7.8,4.2-13.4,7.3c-2.2,1.2-4.4,2.4-6.5,3.5
			c-0.1-0.1-0.3-0.3-0.4-0.5c-11.2-11.9-31.8-20.4-31-36.4c0.3-5.8,2.3-21.2,39.7-39.8c30.7-15.2,55.2-11,59.4-1.6
			c6.1,13.3-13.1,38-44.9,41.5c-12.1,1.4-18.5-3.3-20.1-5.1c-1.7-1.8-1.9-1.9-2.6-1.6c-1,0.5-0.4,2.2,0,3.1c0.9,2.5,4.9,6.9,11.5,9
			c5.8,1.9,20,3,37.2-3.7c19.2-7.4,34.3-28.1,29.9-45.5c-4.4-17.6-33.6-23.4-61.3-13.6c-16.4,5.8-34.2,15-47.1,27
			C29.6,99,27.2,111.4,28.2,116.6c3.5,18.4,28.9,30.4,39.1,39.2c-0.5,0.3-1,0.5-1.4,0.8c-5.1,2.5-24.4,12.6-29.2,23.3
			c-5.5,12.1,0.9,20.8,5.1,22c13,3.6,26.4-2.9,33.6-13.6c7.2-10.7,6.3-24.7,3-31.1c0-0.1-0.1-0.1-0.1-0.2c1.3-0.8,2.7-1.6,4-2.3
			c2.6-1.5,5.1-3,7.3-4.1c-1.2,3.4-2.2,7.4-2.6,13.3c-0.5,6.9,2.3,15.8,6,19.3c1.6,1.5,3.6,1.6,4.8,1.6c4.3,0,6.2-3.6,8.4-7.8
			c2.6-5.2,5-11.2,5-11.2s-3,16.3,5.1,16.3c2.9,0,5.9-3.8,7.2-5.7c0,0,0,0,0,0s0.1-0.1,0.2-0.4c0.3-0.5,0.5-0.8,0.5-0.8s0,0,0-0.1
			c1.2-2,3.8-6.7,7.7-14.4c5-9.9,9.9-22.3,9.9-22.3s0.4,3,1.9,8.1c0.9,3,2.7,6.2,4.2,9.3c-1.2,1.6-1.9,2.6-1.9,2.6s0,0,0,0
			c-0.9,1.2-2,2.6-3.1,3.9c-4,4.7-8.7,10.2-9.4,11.8c-0.8,1.9-0.6,3.2,0.9,4.3c1.1,0.8,3,0.9,4.9,0.8c3.6-0.3,6.1-1.1,7.3-1.7
			c1.9-0.7,4.2-1.8,6.3-3.3c3.9-2.9,6.3-7,6.1-12.4c-0.1-3-1.1-6-2.3-8.8c0.4-0.5,0.7-1,1.1-1.5c6.2-9,11-18.9,11-18.9
			s0.4,3,1.9,8.1c0.7,2.6,2.2,5.3,3.5,8c-5.8,4.7-9.4,10.2-10.7,13.8c-2.3,6.6-0.5,9.6,2.9,10.3c1.5,0.3,3.7-0.4,5.3-1.1
			c2-0.7,4.5-1.8,6.8-3.5c3.9-2.9,7.7-6.9,7.4-12.3c-0.1-2.5-0.8-4.9-1.7-7.3c4.9-2,11.3-3.2,19.4-2.2c17.4,2,20.8,12.9,20.2,17.5
			c-0.7,4.6-4.3,7-5.5,7.8c-1.2,0.8-1.6,1-1.5,1.6c0.1,0.8,0.7,0.8,1.8,0.6c1.4-0.3,9.1-3.7,9.5-12.1
			C228.4,150.8,218.2,139.1,200.1,139.2z M66,184.4c-5.8,6.3-13.8,8.7-17.3,6.6c-3.7-2.2-2.3-11.4,4.8-18.1
			c4.3-4.1,9.9-7.8,13.5-10.1c0.8-0.5,2.1-1.2,3.6-2.2c0.3-0.1,0.4-0.2,0.4-0.2c0.3-0.2,0.6-0.4,0.9-0.5
			C74.6,169.4,72.1,177.8,66,184.4z M108,155.8c-2,4.9-6.2,17.4-8.8,16.7c-2.2-0.6-3.5-10.1-0.4-19.5c1.6-4.7,4.9-10.3,6.8-12.5
			c3.1-3.5,6.6-4.7,7.4-3.2C114.2,139.2,109.3,152.7,108,155.8z M142.7,172.4c-0.8,0.4-1.6,0.7-2,0.5c-0.3-0.1,0.4-0.7,0.4-0.7
			s4.3-4.7,6.1-6.8c1-1.2,2.2-2.7,3.4-4.3c0,0.1,0,0.3,0,0.5C150.5,167.1,145.1,170.9,142.7,172.4z M169.4,166.3
			c-0.6-0.4-0.5-1.9,1.6-6.5c0.8-1.8,2.7-4.8,6-7.7c0.4,1.2,0.6,2.3,0.6,3.4C177.5,162.6,172.4,165.2,169.4,166.3z"/>
	</g>
</g>
</svg>
