<?xml version="1.0" encoding="utf-8"?>
<!-- Generator: Adobe Illustrator 24.3.0, SVG Export Plug-In . SVG Version: 6.00 Build 0)  -->
<svg version="1.1" id="Layer_1" xmlns="http://www.w3.org/2000/svg" xmlns:xlink="http://www.w3.org/1999/xlink" x="0px" y="0px"
	 viewBox="0 0 256 300" style="enable-background:new 0 0 256 300;" xml:space="preserve">
<style type="text/css">
	.st0{fill:#FFFFFF;}
	.st1{enable-background:new    ;}
	.st2{fill:#231F20;}
	.st3{fill:#242938;}
	.st4{fill:#5FB832;}
</style>
<path class="st0" d="M27.5,162.6h201c15.2,0,27.5,12.3,27.5,27.5v82.4c0,15.2-12.3,27.5-27.5,27.5h-201C12.3,300,0,287.7,0,272.5
	v-82.4C0,174.9,12.3,162.6,27.5,162.6z"/>
<g>
	<g class="st1">
		<path class="st2" d="M84.1,274.7c-0.1,0.2-0.3,0.2-0.5,0.2h-4.2c-0.3,0-0.5,0-0.7-0.1c-0.2-0.1-0.4-0.2-0.6-0.4
			c0,0-0.2-0.2-0.4-0.5s-0.6-0.5-1.1-0.7c-0.5-0.2-1.1-0.3-1.7-0.3c-0.9,0-1.7,0.1-2.2,0.4c-0.6,0.3-0.9,0.7-0.9,1.4
			c0,0.5,0.2,0.9,0.5,1.1c0.4,0.3,0.9,0.5,1.7,0.7c0.8,0.2,2.1,0.5,3.9,1c2.4,0.6,4.2,1.4,5.3,2.6c1.1,1.2,1.7,2.8,1.7,5
			c0,1.6-0.4,3-1.3,4.1c-0.8,1.2-2,2.1-3.5,2.7c-1.5,0.6-3.2,1-5.1,1c-1.8,0-3.5-0.4-5-1.1c-1.5-0.7-2.6-1.7-3.5-2.8
			c-0.8-1.1-1.3-2.3-1.3-3.6c0-0.2,0.1-0.4,0.2-0.6c0.1-0.2,0.3-0.2,0.5-0.2h4.2c0.5,0,0.9,0.2,1.2,0.5c0.1,0.1,0.2,0.3,0.5,0.6
			c0.3,0.3,0.7,0.7,1.3,0.9c0.6,0.3,1.2,0.4,2,0.4c2.6,0,3.9-0.6,3.9-1.9c0-0.4-0.2-0.7-0.6-1c-0.4-0.3-0.9-0.5-1.6-0.7
			c-0.7-0.2-1.8-0.5-3.2-0.8l-1.4-0.3c-2.2-0.5-3.7-1.4-4.8-2.6c-1-1.2-1.5-2.9-1.5-4.9c0-1.4,0.4-2.7,1.1-3.9
			c0.7-1.2,1.8-2.1,3.2-2.8c1.4-0.7,2.9-1.1,4.7-1.1c1.7,0,3.3,0.4,4.7,1.1c1.4,0.7,2.5,1.6,3.4,2.7c0.8,1.1,1.2,2.2,1.3,3.2
			C84.3,274.4,84.3,274.6,84.1,274.7z"/>
		<path class="st2" d="M105.5,269.6c1.6,1.4,2.3,3.5,2.3,6.3c0,2.8-0.8,4.8-2.3,6.3c-1.6,1.4-3.7,2.2-6.5,2.2H95v7.3
			c0,0.3-0.1,0.5-0.3,0.7s-0.4,0.3-0.6,0.3H90c-0.2,0-0.4-0.1-0.6-0.3s-0.3-0.4-0.3-0.7v-23.2c0-0.3,0.1-0.5,0.3-0.7
			s0.4-0.3,0.6-0.3H99C101.8,267.4,103.9,268.2,105.5,269.6z M98.9,278.7c0.9,0,1.7-0.2,2.2-0.7c0.6-0.5,0.8-1.2,0.8-2.1
			s-0.3-1.7-0.8-2.1c-0.6-0.5-1.3-0.7-2.2-0.7H95v5.7H98.9z"/>
		<path class="st2" d="M127.9,269.5c1.6,1.4,2.4,3.4,2.4,6.2c0,3.5-1.3,5.9-3.8,7.2l3.9,8.5c0.1,0.1,0.1,0.3,0.1,0.4
			c0,0.2-0.1,0.4-0.2,0.6c-0.1,0.2-0.3,0.2-0.5,0.2h-4.3c-0.4,0-0.7-0.1-0.9-0.3c-0.2-0.2-0.3-0.4-0.5-0.7l-3.5-7.7h-2.9v7.7
			c0,0.3-0.1,0.5-0.3,0.7s-0.4,0.3-0.6,0.3h-4.2c-0.2,0-0.4-0.1-0.6-0.3s-0.3-0.4-0.3-0.7v-23.2c0-0.3,0.1-0.5,0.3-0.7
			s0.4-0.3,0.6-0.3h8.6C124.1,267.4,126.4,268.1,127.9,269.5z M121.3,278.3c2.1,0,3.1-0.9,3.1-2.7c0-1.8-1-2.7-3.1-2.7h-3.6v5.3
			H121.3z"/>
		<path class="st2" d="M135.1,292.3c-0.2-0.2-0.3-0.4-0.3-0.7v-23.2c0-0.3,0.1-0.5,0.3-0.7c0.2-0.2,0.4-0.3,0.6-0.3h4.2
			c0.2,0,0.4,0.1,0.6,0.3s0.3,0.4,0.3,0.7v23.2c0,0.3-0.1,0.5-0.3,0.7s-0.4,0.3-0.6,0.3h-4.2C135.5,292.6,135.3,292.5,135.1,292.3z"
			/>
		<path class="st2" d="M159.8,292.3c-0.2-0.2-0.4-0.4-0.5-0.6l-7.3-12.3v12.1c0,0.3-0.1,0.5-0.3,0.7s-0.4,0.3-0.6,0.3H147
			c-0.2,0-0.4-0.1-0.6-0.3c-0.2-0.2-0.3-0.4-0.3-0.7v-23.2c0-0.3,0.1-0.5,0.3-0.7c0.2-0.2,0.4-0.3,0.6-0.3h3.3
			c0.3,0,0.6,0.1,0.8,0.3c0.2,0.2,0.4,0.4,0.5,0.6l7.3,12.3v-12.1c0-0.3,0.1-0.5,0.3-0.7s0.4-0.3,0.6-0.3h4.2c0.2,0,0.4,0.1,0.6,0.3
			c0.2,0.2,0.3,0.4,0.3,0.7v23.2c0,0.3-0.1,0.5-0.3,0.7c-0.2,0.2-0.4,0.3-0.6,0.3h-3.3C160.3,292.6,160,292.5,159.8,292.3z"/>
		<path class="st2" d="M175.2,279.7c0,1.5,0,2.6,0.1,3.3c0.1,1.2,0.4,2.2,1.1,3c0.6,0.8,1.6,1.2,2.9,1.2c1.2,0,2.2-0.3,2.9-1
			c0.7-0.6,1.1-1.6,1.1-3h-2.7c-0.2,0-0.4-0.1-0.6-0.3c-0.2-0.2-0.3-0.4-0.3-0.7v-3.8c0-0.3,0.1-0.5,0.3-0.7
			c0.2-0.2,0.4-0.3,0.6-0.3h7.7c0.2,0,0.4,0.1,0.6,0.3c0.2,0.2,0.3,0.4,0.3,0.7v4.6c0,2-0.4,3.7-1.3,5.2c-0.9,1.5-2,2.6-3.5,3.4
			c-1.5,0.8-3.2,1.2-5,1.2c-2,0-3.7-0.4-5.1-1.3c-1.5-0.9-2.6-2-3.4-3.5c-0.8-1.5-1.2-3.1-1.3-4.9c0-1.1-0.1-2.1-0.1-2.8
			c0-0.9,0-2.1,0.1-3.6c0.1-1.8,0.5-3.4,1.3-4.9c0.8-1.5,1.9-2.6,3.4-3.5c1.5-0.9,3.2-1.3,5.2-1.3c1.9,0,3.6,0.4,5,1.2
			c1.5,0.8,2.6,1.8,3.4,3c0.8,1.2,1.3,2.4,1.3,3.5c0,0.2,0,0.4-0.2,0.6c-0.1,0.2-0.3,0.2-0.5,0.2h-4.2c-0.3,0-0.5-0.1-0.7-0.2
			c-0.2-0.2-0.4-0.4-0.6-0.7c-0.4-0.5-0.8-0.9-1.4-1.3c-0.5-0.3-1.2-0.5-2.2-0.5c-2.4,0-3.7,1.4-4,4.2
			C175.2,277.6,175.2,278.5,175.2,279.7z"/>
	</g>
</g>
<path class="st3" d="M60,0h136c33.1,0,60,26.9,60,60v136c0,33.1-26.9,60-60,60H60c-33.1,0-60-26.9-60-60V60C0,26.9,26.9,0,60,0z"/>
<path class="st4" d="M209.5,171.8c-24.6,32.8-77.2,21.7-110.9,23.3c0,0-6,0.3-12,1.3c0,0,2.3-1,5.2-2c23.7-8.2,34.9-9.8,49.3-17.2
	c27-13.8,53.9-44,59.4-75.3c-10.3,30.1-41.6,56.1-70.1,66.6c-19.5,7.2-54.8,14.2-54.8,14.2c0,0-1.4-0.7-1.4-0.8
	c-24-11.7-24.7-63.6,18.9-80.4c19.1-7.3,37.4-3.3,58-8.2c22-5.2,47.5-21.7,57.9-43.3C220.6,84.5,234.6,138.5,209.5,171.8
	L209.5,171.8z M210,39.4c-2.9,7-6.5,13.2-10.6,18.8C181.2,39.6,155.9,28,127.9,28C72.8,28,28,72.8,28,127.9
	c0,28.9,12.3,54.9,32,73.1l2.2,1.9c-3.7-3-4.2-8.3-1.3-12c3-3.7,8.3-4.2,12-1.3c3.7,3,4.2,8.3,1.3,12c-3,3.7-8.3,4.2-12,1.3l1.5,1.3
	c17.4,14.6,39.8,23.5,64.2,23.5c52.6,0,95.9-41,99.6-92.7C230.2,109.8,222.7,77.6,210,39.4z"/>
</svg>
