<?xml version="1.0" encoding="utf-8"?>
<!-- Generator: Adobe Illustrator 24.3.0, SVG Export Plug-In . SVG Version: 6.00 Build 0)  -->
<svg version="1.1" id="Layer_1" xmlns="http://www.w3.org/2000/svg" xmlns:xlink="http://www.w3.org/1999/xlink" x="0px" y="0px"
	 viewBox="0 0 256 300" style="enable-background:new 0 0 256 300;" xml:space="preserve">
<style type="text/css">
	.st0{fill:#FFFFFF;}
	.st1{fill:#0D1117;}
	.st2{fill:#242938;}
	.st3{fill:#2F406A;}
	.st4{fill:#2379BD;}
	.st5{fill:#03AFEF;}
</style>
<path class="st0" d="M27.5,162.6h201c15.2,0,27.5,12.3,27.5,27.5v82.4c0,15.2-12.3,27.5-27.5,27.5h-201C12.3,300,0,287.7,0,272.5
	v-82.4C0,174.9,12.3,162.6,27.5,162.6z"/>
<g>
	<path class="st1" d="M48.8,274.7c-0.1,0.2-0.3,0.2-0.5,0.2h-4.1c-0.3,0-0.5,0-0.7-0.1s-0.4-0.2-0.6-0.4c0,0-0.2-0.2-0.4-0.5
		s-0.6-0.5-1.1-0.7s-1-0.3-1.7-0.3c-0.9,0-1.6,0.1-2.2,0.4s-0.9,0.7-0.9,1.4c0,0.5,0.2,0.9,0.5,1.1c0.4,0.3,0.9,0.5,1.6,0.7
		s2,0.5,3.8,1c2.3,0.5,4.1,1.4,5.2,2.6s1.6,2.8,1.6,5c0,1.6-0.4,3-1.2,4.1s-2,2.1-3.4,2.7c-1.5,0.6-3.1,0.9-5,0.9
		c-1.8,0-3.4-0.4-4.8-1.1s-2.6-1.6-3.4-2.8c-0.8-1.1-1.3-2.3-1.3-3.5c0-0.2,0.1-0.4,0.2-0.6s0.3-0.2,0.4-0.2h4.1
		c0.5,0,0.8,0.2,1.2,0.5c0.1,0.1,0.2,0.3,0.5,0.6c0.3,0.3,0.7,0.7,1.2,0.9c0.5,0.3,1.2,0.4,1.9,0.4c2.6,0,3.8-0.6,3.8-1.9
		c0-0.4-0.2-0.7-0.5-1c-0.4-0.3-0.9-0.5-1.5-0.7c-0.7-0.2-1.7-0.5-3.2-0.8l-1.4-0.3c-2.1-0.5-3.7-1.4-4.7-2.6s-1.5-2.9-1.5-4.9
		c0-1.4,0.4-2.7,1.1-3.8c0.7-1.1,1.8-2.1,3.1-2.8c1.3-0.7,2.9-1.1,4.6-1.1s3.2,0.4,4.6,1.1s2.5,1.6,3.3,2.7s1.2,2.2,1.3,3.2
		C49,274.4,48.9,274.5,48.8,274.7z"/>
	<path class="st1" d="M60.6,286.8h9.8c0.2,0,0.4,0.1,0.6,0.3c0.2,0.2,0.2,0.4,0.2,0.7v3.8c0,0.3-0.1,0.5-0.2,0.7
		c-0.2,0.2-0.4,0.3-0.6,0.3H55.7c-0.2,0-0.4-0.1-0.6-0.3c-0.2-0.2-0.2-0.4-0.2-0.7v-23.1c0-0.3,0.1-0.5,0.2-0.7
		c0.2-0.2,0.4-0.3,0.6-0.3h14.5c0.2,0,0.4,0.1,0.6,0.3c0.2,0.2,0.2,0.4,0.2,0.7v3.8c0,0.3-0.1,0.5-0.2,0.7c-0.2,0.2-0.4,0.3-0.6,0.3
		h-9.6v3.9h8.9c0.2,0,0.4,0.1,0.6,0.3c0.2,0.2,0.2,0.4,0.2,0.7v3.8c0,0.3-0.1,0.5-0.2,0.7c-0.2,0.2-0.4,0.3-0.6,0.3h-8.9V286.8
		L60.6,286.8z"/>
	<path class="st1" d="M91.3,268.4c1.4,0.9,2.5,2,3.3,3.5s1.2,3.1,1.3,4.9c0,0.7,0.1,1.7,0.1,3.2s0,2.5-0.1,3.1
		c-0.1,2.6-0.9,4.8-2.3,6.5l2.5,4.1c0.1,0.1,0.1,0.3,0.1,0.3v0.1c0,0.2-0.1,0.4-0.2,0.5s-0.3,0.2-0.4,0.2h-4.4
		c-0.3,0-0.6-0.1-0.8-0.2c-0.2-0.2-0.4-0.4-0.5-0.6l-0.9-1.5c-1,0.2-1.9,0.4-2.8,0.4c-2,0-3.7-0.4-5.1-1.3s-2.5-2-3.3-3.5
		s-1.2-3.1-1.3-4.9c0-1.3-0.1-2.3-0.1-3.1s0-1.9,0.1-3.2c0.1-1.8,0.5-3.5,1.3-4.9c0.8-1.5,1.9-2.6,3.3-3.5s3.1-1.3,5.1-1.3
		C88.2,267.1,89.9,267.5,91.3,268.4z M89,274c-0.7-0.8-1.6-1.1-2.8-1.1c-1.2,0-2.2,0.4-2.8,1.1c-0.7,0.8-1,1.8-1.1,3
		c-0.1,0.8-0.1,1.8-0.1,3s0,2.2,0.1,3c0.1,1.3,0.5,2.3,1.1,3c0.7,0.8,1.6,1.1,2.8,1.1c1.2,0,2.2-0.4,2.8-1.1c0.7-0.8,1-1.8,1.1-3
		c0.1-0.9,0.1-1.9,0.1-3c0-1.2,0-2.2-0.1-3C90,275.7,89.7,274.7,89,274z"/>
	<path class="st1" d="M120.3,267.7c0.2,0.2,0.2,0.4,0.2,0.7v14.3c0,2.1-0.4,4-1.2,5.5c-0.8,1.5-1.9,2.7-3.3,3.5s-3.1,1.2-5,1.2
		s-3.6-0.4-5-1.2c-1.4-0.8-2.5-1.9-3.3-3.5c-0.8-1.5-1.2-3.4-1.2-5.5v-14.3c0-0.3,0.1-0.5,0.2-0.7c0.2-0.2,0.4-0.3,0.6-0.3h4.1
		c0.2,0,0.4,0.1,0.6,0.3c0.2,0.2,0.2,0.4,0.2,0.7v14.1c0,1.5,0.3,2.6,0.9,3.4s1.5,1.2,2.7,1.2s2.1-0.4,2.7-1.2
		c0.6-0.8,0.9-1.9,0.9-3.4v-14.1c0-0.3,0.1-0.5,0.2-0.7c0.2-0.2,0.4-0.3,0.6-0.3h4.1C120,267.5,120.1,267.6,120.3,267.7z"/>
	<path class="st1" d="M132.8,286.8h9.8c0.2,0,0.4,0.1,0.6,0.3c0.2,0.2,0.2,0.4,0.2,0.7v3.8c0,0.3-0.1,0.5-0.2,0.7
		c-0.2,0.2-0.4,0.3-0.6,0.3h-14.7c-0.2,0-0.4-0.1-0.6-0.3c-0.2-0.2-0.2-0.4-0.2-0.7v-23.1c0-0.3,0.1-0.5,0.2-0.7
		c0.2-0.2,0.4-0.3,0.6-0.3h14.5c0.2,0,0.4,0.1,0.6,0.3c0.2,0.2,0.2,0.4,0.2,0.7v3.8c0,0.3-0.1,0.5-0.2,0.7c-0.2,0.2-0.4,0.3-0.6,0.3
		h-9.6v3.9h8.9c0.2,0,0.4,0.1,0.6,0.3c0.2,0.2,0.2,0.4,0.2,0.7v3.8c0,0.3-0.1,0.5-0.2,0.7c-0.2,0.2-0.4,0.3-0.6,0.3h-8.9V286.8
		L132.8,286.8z"/>
	<path class="st1" d="M165.2,287.1c0.2,0.2,0.2,0.4,0.2,0.7v3.8c0,0.3-0.1,0.5-0.2,0.7c-0.2,0.2-0.4,0.3-0.6,0.3h-14.4
		c-0.2,0-0.4-0.1-0.6-0.3s-0.2-0.4-0.2-0.7v-23.1c0-0.3,0.1-0.5,0.2-0.7c0.2-0.2,0.4-0.3,0.6-0.3h4.1c0.2,0,0.4,0.1,0.6,0.3
		c0.2,0.2,0.2,0.4,0.2,0.7v18.4h9.5C164.9,286.8,165.1,286.9,165.2,287.1z"/>
	<path class="st1" d="M170.8,292.2c-0.2-0.2-0.2-0.4-0.2-0.7v-23.1c0-0.3,0.1-0.5,0.2-0.7c0.2-0.2,0.4-0.3,0.6-0.3h4.1
		c0.2,0,0.4,0.1,0.6,0.3c0.2,0.2,0.2,0.4,0.2,0.7v23.1c0,0.3-0.1,0.5-0.2,0.7c-0.2,0.2-0.4,0.3-0.6,0.3h-4.1
		C171.1,292.5,171,292.4,170.8,292.2z"/>
	<path class="st1" d="M200.1,287.1c0.2,0.2,0.2,0.4,0.2,0.7v3.8c0,0.3-0.1,0.5-0.2,0.7c-0.2,0.2-0.4,0.3-0.6,0.3h-16.6
		c-0.2,0-0.4-0.1-0.6-0.3c-0.2-0.2-0.2-0.4-0.2-0.7V288c0-0.3,0-0.5,0.1-0.7s0.2-0.4,0.3-0.6l9.9-13.5h-9.2c-0.2,0-0.4-0.1-0.6-0.3
		c-0.2-0.2-0.2-0.4-0.2-0.7v-3.8c0-0.3,0.1-0.5,0.2-0.7c0.2-0.2,0.4-0.3,0.6-0.3h16c0.2,0,0.4,0.1,0.6,0.3c0.2,0.2,0.2,0.4,0.2,0.7
		v3.6c0,0.5-0.1,0.8-0.4,1.2l-9.9,13.6h9.8C199.8,286.8,200,286.9,200.1,287.1z"/>
	<path class="st1" d="M211.9,286.8h9.8c0.2,0,0.4,0.1,0.6,0.3c0.2,0.2,0.2,0.4,0.2,0.7v3.8c0,0.3-0.1,0.5-0.2,0.7
		c-0.2,0.2-0.4,0.3-0.6,0.3H207c-0.2,0-0.4-0.1-0.6-0.3s-0.2-0.4-0.2-0.7v-23.1c0-0.3,0.1-0.5,0.2-0.7c0.2-0.2,0.4-0.3,0.6-0.3h14.5
		c0.2,0,0.4,0.1,0.6,0.3c0.2,0.2,0.2,0.4,0.2,0.7v3.8c0,0.3-0.1,0.5-0.2,0.7c-0.2,0.2-0.4,0.3-0.6,0.3h-9.6v3.9h8.9
		c0.2,0,0.4,0.1,0.6,0.3c0.2,0.2,0.2,0.4,0.2,0.7v3.8c0,0.3-0.1,0.5-0.2,0.7c-0.2,0.2-0.4,0.3-0.6,0.3h-8.9V286.8L211.9,286.8z"/>
</g>
<path class="st2" d="M60,0h136c33.1,0,60,26.9,60,60v136c0,33.1-26.9,60-60,60H60c-33.1,0-60-26.9-60-60V60C0,26.9,26.8,0,60,0z"/>
<path class="st3" d="M191.9,92v72L128,199.8l-0.6,0.5v27.1l0.6,0.5l89.9-49.7V78H217l-25.4,13.6v0.6"/>
<path class="st4" d="M63.6,164.4l64.5,35.6v28L37,178V78h0.9l25.4,14.1l0.3,0.8v71.8"/>
<path class="st5" d="M63.8,92.6L37,77.9l90.8-49.8l90.3,49.6l-26.1,14l-64.3-34.9L63.8,92.6"/>
<path class="st3" d="M126.9,155.8l-0.7-0.7v-26.7l0.7-0.4v-0.7l24.5-13.4h0.8v27.6l-25.4,14.1"/>
<path class="st4" d="M101.1,143.1v-29h0.7l25,13.8v28.6l-25.9-13.4"/>
<path class="st5" d="M126.6,99.7l-25.1,14.6l25.5,14.4l25.1-14.3l-25.5-14.8"/>
<path class="st3" d="M95.9,174.2l-0.7-0.7v-27.1l0.7-0.4v-0.7l23.3-13.6h0.7v28L95.7,174"/>
<path class="st4" d="M69.9,160.8v-29h0.7l25.2,13.8v28.6L69.9,160.8"/>
<path class="st5" d="M95,117.3l-25.2,14.5l25.5,14.6l25.1-14.3L95,117.3"/>
<path class="st3" d="M159.8,174.8l-0.7-0.7v-26.7l0.7-0.4v-0.7l24.5-13.4h0.8v27.5l-25.4,14.1"/>
<path class="st4" d="M134.5,161.4v-29h0.8l25,13.8v28.6L134.5,161.4"/>
<path class="st5" d="M159.9,117.9l-24.8,14.2l25.2,14.2l24.8-14L159.9,117.9z"/>
<path class="st3" d="M128.8,192.6l-0.7-0.7v-27.1l0.7-0.4v-0.7l24.5-13.6h0.8v28l-25.4,14.3"/>
<path class="st4" d="M102.8,179.1v-29h0.7l25.2,13.8v28.6L102.8,179.1"/>
<path class="st5" d="M128.2,135.6l-25.4,14.3l25.9,14.1l25.4-14.1L128.2,135.6"/>
<path class="st3" d="M126.9,117.9l-0.7-0.7V90.1l0.7-0.4V89l24.5-13.6h0.8v28L126.9,117.9z"/>
<path class="st4" d="M101.1,104.5v-29h0.7l25,13.8v28.6l-25.9-13.4"/>
<path class="st5" d="M126.6,61.5l-25.1,14.2L127,89.9l25.1-14L126.6,61.5z"/>
<path class="st3" d="M95.9,135.6l-0.7-0.7v-27.6l0.7-0.4v-0.7l23.3-13.7h0.7v28.2l-24.2,14.4"/>
<path class="st4" d="M69.9,122.2v-29h0.7L95.8,107v28.6L69.9,122.2"/>
<path class="st5" d="M95,78.6L69.8,92.8l25.5,14.3l25.1-14L95,78.6"/>
<path class="st3" d="M159.8,136.9l-0.7-0.7v-27.5l0.7-0.4v-0.7l24.5-13.8h0.8v28.4l-25.4,14.5"/>
<path class="st4" d="M135.1,123.4V93.8h0.8l23.9,13.9v29.1L135.1,123.4z"/>
<path class="st5" d="M159.9,79.3l-24.8,14.2l25.2,14.2l24.8-14L159.9,79.3"/>
<path class="st3" d="M128.8,153.9l-0.7-0.7v-27.5l0.7-0.4v-0.7l24.5-13.8h0.8v28.5L128.8,153.9"/>
<path class="st4" d="M102.8,140.5V111h0.7l25.2,14v29L102.8,140.5z"/>
<path class="st5" d="M128.3,97l-25.5,14.2l25.8,14.3l25.4-14.1L128.3,97"/>
</svg>
