<?xml version="1.0" encoding="utf-8"?>
<!-- Generator: Adobe Illustrator 24.3.0, SVG Export Plug-In . SVG Version: 6.00 Build 0)  -->
<svg version="1.1" id="Layer_1" xmlns="http://www.w3.org/2000/svg" xmlns:xlink="http://www.w3.org/1999/xlink" x="0px" y="0px"
	 viewBox="0 0 256 300" style="enable-background:new 0 0 256 300;" xml:space="preserve">
<style type="text/css">
	.st0{fill:#FFFFFF;}
	.st1{fill:#242938;}
	.st2{fill:#231F20;}
	.st3{fill-rule:evenodd;clip-rule:evenodd;fill:#6CB33E;}
</style>
<path class="st0" d="M27.5,162.6h201c15.2,0,27.5,12.3,27.5,27.5v82.4c0,15.2-12.3,27.5-27.5,27.5h-201C12.3,300,0,287.7,0,272.5
	v-82.4C0,174.9,12.3,162.6,27.5,162.6z"/>
<path class="st1" d="M60,0h136c33.1,0,60,26.9,60,60v136c0,33.1-26.9,60-60,60H60c-33.1,0-60-26.9-60-60V60C0,26.9,26.8,0,60,0z"/>
<g>
	<path class="st2" d="M35.9,274.6c-0.1,0.2-0.3,0.2-0.5,0.2H31c-0.3,0-0.6,0-0.7-0.1c-0.2-0.1-0.4-0.2-0.6-0.5c0,0-0.2-0.2-0.4-0.5
		c-0.2-0.3-0.6-0.5-1.1-0.7c-0.5-0.2-1.1-0.3-1.8-0.3c-1,0-1.7,0.1-2.3,0.4c-0.6,0.3-0.9,0.8-0.9,1.4c0,0.5,0.2,0.9,0.6,1.1
		c0.4,0.3,1,0.5,1.7,0.7c0.8,0.2,2.2,0.5,4.1,1c2.5,0.6,4.3,1.4,5.5,2.6c1.2,1.2,1.8,2.9,1.8,5c0,1.6-0.4,3-1.3,4.2
		c-0.9,1.2-2.1,2.1-3.7,2.7c-1.6,0.6-3.3,1-5.3,1c-1.9,0-3.6-0.4-5.2-1.1c-1.6-0.7-2.8-1.7-3.7-2.8c-0.9-1.2-1.4-2.3-1.4-3.6
		c0-0.2,0.1-0.4,0.2-0.6c0.1-0.2,0.3-0.2,0.5-0.2h4.4c0.5,0,0.9,0.2,1.3,0.5c0.1,0.1,0.2,0.3,0.5,0.6c0.3,0.3,0.7,0.7,1.3,0.9
		c0.6,0.3,1.3,0.4,2.1,0.4c2.8,0,4.1-0.6,4.1-1.9c0-0.4-0.2-0.8-0.6-1c-0.4-0.3-0.9-0.5-1.6-0.7c-0.7-0.2-1.8-0.5-3.4-0.8l-1.5-0.3
		c-2.3-0.5-3.9-1.4-5-2.6c-1.1-1.2-1.6-2.9-1.6-5c0-1.4,0.4-2.7,1.2-3.9c0.8-1.2,1.9-2.1,3.3-2.8s3.1-1.1,4.9-1.1
		c1.8,0,3.4,0.4,4.9,1.1c1.5,0.7,2.7,1.7,3.5,2.8c0.9,1.1,1.3,2.2,1.3,3.2C36.1,274.2,36,274.4,35.9,274.6z"/>
	<path class="st2" d="M57.3,269.4c1.6,1.4,2.4,3.5,2.4,6.3c0,2.8-0.8,4.9-2.4,6.3c-1.6,1.4-3.9,2.2-6.8,2.2h-4.3v7.3
		c0,0.3-0.1,0.5-0.3,0.7c-0.2,0.2-0.4,0.3-0.6,0.3H41c-0.2,0-0.5-0.1-0.6-0.3c-0.2-0.2-0.3-0.4-0.3-0.7v-23.3c0-0.3,0.1-0.5,0.3-0.7
		c0.2-0.2,0.4-0.3,0.6-0.3h9.5C53.4,267.3,55.6,268,57.3,269.4z M50.3,278.5c1,0,1.8-0.2,2.3-0.7c0.6-0.5,0.9-1.2,0.9-2.1
		c0-1-0.3-1.7-0.9-2.1c-0.6-0.5-1.4-0.7-2.3-0.7h-4.1v5.7H50.3z"/>
	<path class="st2" d="M79.8,269.3c1.6,1.4,2.5,3.4,2.5,6.2c0,3.5-1.3,5.9-4,7.2l4.1,8.6c0.1,0.1,0.1,0.3,0.1,0.4
		c0,0.2-0.1,0.4-0.2,0.6c-0.1,0.2-0.3,0.2-0.5,0.2h-4.5c-0.4,0-0.7-0.1-0.9-0.3c-0.2-0.2-0.4-0.4-0.5-0.7l-3.7-7.7h-3.1v7.7
		c0,0.3-0.1,0.5-0.3,0.7c-0.2,0.2-0.4,0.3-0.6,0.3h-4.4c-0.2,0-0.5-0.1-0.6-0.3c-0.2-0.2-0.3-0.4-0.3-0.7v-23.3
		c0-0.3,0.1-0.5,0.3-0.7c0.2-0.2,0.4-0.3,0.6-0.3h9C75.8,267.3,78.1,268,79.8,269.3z M72.8,278.2c2.2,0,3.2-0.9,3.2-2.7
		c0-1.8-1.1-2.7-3.2-2.7h-3.8v5.3H72.8z"/>
	<path class="st2" d="M86.3,292.2c-0.2-0.2-0.3-0.4-0.3-0.7v-23.3c0-0.3,0.1-0.5,0.3-0.7c0.2-0.2,0.4-0.3,0.6-0.3h4.4
		c0.2,0,0.5,0.1,0.6,0.3c0.2,0.2,0.3,0.4,0.3,0.7v23.3c0,0.3-0.1,0.5-0.3,0.7c-0.2,0.2-0.4,0.3-0.6,0.3h-4.4
		C86.7,292.5,86.5,292.4,86.3,292.2z"/>
	<path class="st2" d="M111.1,292.2c-0.2-0.2-0.4-0.4-0.5-0.6l-7.6-12.3v12.2c0,0.3-0.1,0.5-0.3,0.7c-0.2,0.2-0.4,0.3-0.6,0.3h-4.4
		c-0.2,0-0.5-0.1-0.6-0.3c-0.2-0.2-0.3-0.4-0.3-0.7v-23.3c0-0.3,0.1-0.5,0.3-0.7c0.2-0.2,0.4-0.3,0.6-0.3h3.5c0.3,0,0.6,0.1,0.9,0.3
		c0.2,0.2,0.4,0.4,0.5,0.6l7.6,12.3v-12.2c0-0.3,0.1-0.5,0.3-0.7c0.2-0.2,0.4-0.3,0.6-0.3h4.4c0.2,0,0.5,0.1,0.6,0.3
		c0.2,0.2,0.3,0.4,0.3,0.7v23.3c0,0.3-0.1,0.5-0.3,0.7c-0.2,0.2-0.4,0.3-0.6,0.3H112C111.7,292.5,111.4,292.4,111.1,292.2z"/>
	<path class="st2" d="M126.3,279.6c0,1.5,0,2.6,0.1,3.3c0.1,1.2,0.5,2.2,1.1,3c0.7,0.8,1.7,1.2,3.1,1.2c1.3,0,2.3-0.3,3-1
		c0.8-0.6,1.1-1.6,1.1-3H132c-0.2,0-0.5-0.1-0.6-0.3c-0.2-0.2-0.3-0.4-0.3-0.7v-3.8c0-0.3,0.1-0.5,0.3-0.7c0.2-0.2,0.4-0.3,0.6-0.3
		h8.1c0.2,0,0.5,0.1,0.6,0.3c0.2,0.2,0.3,0.4,0.3,0.7v4.6c0,2-0.5,3.7-1.4,5.2c-0.9,1.5-2.1,2.7-3.7,3.5c-1.6,0.8-3.3,1.2-5.3,1.2
		c-2.1,0-3.9-0.4-5.4-1.3c-1.5-0.9-2.7-2.1-3.6-3.5c-0.8-1.5-1.3-3.1-1.4-4.9c0-1.2-0.1-2.1-0.1-2.8c0-0.9,0-2.1,0.1-3.6
		c0.1-1.8,0.5-3.4,1.4-4.9c0.8-1.5,2-2.7,3.6-3.5c1.5-0.9,3.3-1.3,5.4-1.3c2,0,3.7,0.4,5.2,1.2s2.7,1.8,3.6,3
		c0.9,1.2,1.3,2.4,1.4,3.5c0,0.2,0,0.4-0.2,0.6c-0.2,0.2-0.3,0.2-0.5,0.2h-4.4c-0.3,0-0.5-0.1-0.7-0.2c-0.2-0.2-0.4-0.4-0.6-0.7
		c-0.4-0.5-0.9-0.9-1.4-1.3c-0.5-0.3-1.3-0.5-2.3-0.5c-2.5,0-3.9,1.4-4.2,4.2C126.3,277.4,126.3,278.3,126.3,279.6z"/>
	<path class="st2" d="M152,292.2c-0.2-0.2-0.3-0.4-0.3-0.7v-23.3c0-0.3,0.1-0.5,0.3-0.7c0.2-0.2,0.4-0.3,0.6-0.3h10.7
		c1.9,0,3.4,0.4,4.6,1.1s2,1.6,2.5,2.8c0.5,1.1,0.8,2.3,0.8,3.7c0,1.2-0.2,2.2-0.6,2.9c-0.4,0.7-0.8,1.3-1.3,1.7
		c0.8,0.6,1.4,1.4,1.8,2.2c0.4,0.9,0.5,1.9,0.5,3.1c0,2.2-0.6,4.1-1.9,5.6c-1.2,1.5-3.2,2.2-5.8,2.2h-11.4
		C152.4,292.5,152.2,292.4,152,292.2z M157.9,272.8v4.1h5.2c0.7,0,1.2-0.2,1.5-0.5c0.3-0.4,0.5-0.9,0.5-1.5c0-0.6-0.2-1.2-0.5-1.5
		c-0.3-0.4-0.8-0.5-1.5-0.5H157.9z M163.4,286.9c0.7,0,1.2-0.2,1.6-0.6c0.4-0.4,0.6-0.9,0.6-1.6c0-0.6-0.2-1.2-0.6-1.6
		c-0.4-0.4-0.9-0.6-1.6-0.6h-5.5v4.4H163.4z"/>
	<path class="st2" d="M190.5,268.2c1.5,0.9,2.7,2,3.5,3.5c0.8,1.5,1.3,3.1,1.4,5c0,0.7,0.1,1.8,0.1,3.2c0,1.5,0,2.5-0.1,3.2
		c-0.1,1.8-0.5,3.5-1.4,5c-0.8,1.5-2,2.6-3.5,3.5c-1.5,0.9-3.4,1.3-5.5,1.3c-2.1,0-3.9-0.4-5.5-1.3c-1.5-0.9-2.7-2-3.5-3.5
		c-0.8-1.5-1.3-3.1-1.4-5c0-1.3-0.1-2.4-0.1-3.2c0-0.8,0-1.9,0.1-3.2c0.1-1.8,0.5-3.5,1.4-5c0.8-1.5,2-2.6,3.5-3.5
		c1.5-0.9,3.3-1.3,5.5-1.3C187.1,266.9,189,267.3,190.5,268.2z M188,273.8c-0.7-0.8-1.7-1.1-3-1.1c-1.3,0-2.3,0.4-3,1.1
		c-0.7,0.8-1.1,1.8-1.2,3c-0.1,0.8-0.1,1.8-0.1,3c0,1.2,0,2.2,0.1,3.1c0.1,1.3,0.5,2.3,1.2,3c0.7,0.8,1.7,1.1,3,1.1
		c1.3,0,2.3-0.4,3-1.1c0.7-0.8,1.1-1.8,1.2-3c0.1-0.9,0.1-1.9,0.1-3.1c0-1.2,0-2.2-0.1-3C189.1,275.6,188.7,274.6,188,273.8z"/>
	<path class="st2" d="M214,268.2c1.5,0.9,2.7,2,3.5,3.5c0.8,1.5,1.3,3.1,1.4,5c0,0.7,0.1,1.8,0.1,3.2c0,1.5,0,2.5-0.1,3.2
		c-0.1,1.8-0.5,3.5-1.4,5c-0.8,1.5-2,2.6-3.5,3.5c-1.5,0.9-3.4,1.3-5.5,1.3c-2.1,0-3.9-0.4-5.5-1.3c-1.5-0.9-2.7-2-3.5-3.5
		c-0.8-1.5-1.3-3.1-1.4-5c0-1.3-0.1-2.4-0.1-3.2c0-0.8,0-1.9,0.1-3.2c0.1-1.8,0.5-3.5,1.4-5c0.8-1.5,2-2.6,3.5-3.5
		c1.5-0.9,3.3-1.3,5.5-1.3C210.6,266.9,212.4,267.3,214,268.2z M211.5,273.8c-0.7-0.8-1.7-1.1-3-1.1c-1.3,0-2.3,0.4-3,1.1
		c-0.7,0.8-1.1,1.8-1.2,3c-0.1,0.8-0.1,1.8-0.1,3c0,1.2,0,2.2,0.1,3.1c0.1,1.3,0.5,2.3,1.2,3c0.7,0.8,1.7,1.1,3,1.1
		c1.3,0,2.3-0.4,3-1.1c0.7-0.8,1.1-1.8,1.2-3c0.1-0.9,0.1-1.9,0.1-3.1c0-1.2,0-2.2-0.1-3C212.6,275.6,212.2,274.6,211.5,273.8z"/>
	<path class="st2" d="M239.7,267.6c0.2,0.2,0.3,0.4,0.3,0.7v3.8c0,0.3-0.1,0.5-0.3,0.7c-0.2,0.2-0.4,0.3-0.6,0.3h-5.9v18.5
		c0,0.3-0.1,0.5-0.3,0.7c-0.2,0.2-0.4,0.3-0.6,0.3H228c-0.2,0-0.5-0.1-0.6-0.3c-0.2-0.2-0.3-0.4-0.3-0.7V273h-5.9
		c-0.2,0-0.5-0.1-0.6-0.3c-0.2-0.2-0.3-0.4-0.3-0.7v-3.8c0-0.3,0.1-0.5,0.3-0.7c0.2-0.2,0.4-0.3,0.6-0.3h17.9
		C239.3,267.3,239.6,267.4,239.7,267.6z"/>
</g>
<path class="st3" d="M206,67l3.6,6.1l3.6,6.1l3.6,6.1l3.5,6.1c22.1,37.2,25.8,30,0,73.7l-3.6,6.1l-3.6,6.1l-3.6,6.1l-3.6,6.1
	c-21.2,37.7-13.1,37.3-63.8,36.9h-7.1H128h-7.1h-7.1c-43.3,0.5-38.8,7.3-63.8-36.9l-3.5-6.1l-3.6-6.1l-3.6-6.1l-3.6-6.1
	c-22.1-37.2-25.8-30,0-73.7l3.6-6.1l3.6-6.1l3.6-6.1L50,67c21.2-37.7,13.1-37.3,63.8-36.9h7.1h7.1h7.1h7.1
	C185.4,29.7,181,22.9,206,67L206,67z"/>
<path class="st1" d="M128,184.8c-16.7,0-31.8-6.8-42.7-17.7c-11-10.9-17.7-26-17.7-42.7c0-10,2.5-19.8,7.2-28.5
	c4.6-8.7,11.3-16.2,19.7-21.8c3.6-2.4,8.4-1.4,10.8,2.1c2.4,3.6,1.4,8.4-2.1,10.8c-6.2,4.2-11.3,9.7-14.7,16.2
	c-3.4,6.4-5.3,13.6-5.3,21.2c0,12.4,5,23.6,13.2,31.7c8.1,8.1,19.3,13.1,31.7,13.1c12.4,0,23.6-5,31.7-13.1
	c8.1-8.1,13.1-19.3,13.1-31.7c0-7.5-1.9-14.8-5.3-21.2c-3.4-6.4-8.4-12-14.7-16.2c-3.6-2.4-4.5-7.2-2.1-10.8
	c2.4-3.6,7.2-4.5,10.7-2.1c8.4,5.6,15.1,13.1,19.7,21.8c4.6,8.7,7.2,18.4,7.2,28.5c0,16.7-6.8,31.8-17.7,42.7
	C159.8,178,144.7,184.8,128,184.8L128,184.8z M119.5,69.8c0-4.5,3.8-8.2,8.5-8.2c4.7,0,8.5,3.7,8.5,8.2v56.1c0,4.5-3.8,8.2-8.5,8.2
	c-4.7,0-8.5-3.7-8.5-8.2V69.8z"/>
</svg>
