<?xml version="1.0" encoding="utf-8"?>
<!-- Generator: Adobe Illustrator 24.3.0, SVG Export Plug-In . SVG Version: 6.00 Build 0)  -->
<svg version="1.1" id="Layer_1" xmlns="http://www.w3.org/2000/svg" xmlns:xlink="http://www.w3.org/1999/xlink" x="0px" y="0px"
	 viewBox="0 0 256 300" style="enable-background:new 0 0 256 300;" xml:space="preserve">
<style type="text/css">
	.st0{fill:#FFFFFF;}
	.st1{fill:#242938;}
	.st2{fill:#231F20;}
	.st3{fill-rule:evenodd;clip-rule:evenodd;fill:#FEFEFE;}
	.st4{fill-rule:evenodd;clip-rule:evenodd;fill:#A0D3A4;}
	.st5{fill-rule:evenodd;clip-rule:evenodd;fill:#FEFDFD;}
	.st6{fill-rule:evenodd;clip-rule:evenodd;fill:#E7BB8E;}
	.st7{fill-rule:evenodd;clip-rule:evenodd;fill:#995F44;}
	.st8{fill-rule:evenodd;clip-rule:evenodd;fill:#DEAD7B;}
	.st9{fill-rule:evenodd;clip-rule:evenodd;fill:#E5E8F1;}
	.st10{fill-rule:evenodd;clip-rule:evenodd;fill:#E8EBF3;}
	.st11{fill-rule:evenodd;clip-rule:evenodd;fill:#CE9B6E;}
	.st12{fill-rule:evenodd;clip-rule:evenodd;fill:#E4B88B;}
	.st13{fill-rule:evenodd;clip-rule:evenodd;fill:#DAA97B;}
	.st14{fill-rule:evenodd;clip-rule:evenodd;fill:#FCF9F6;}
	.st15{fill-rule:evenodd;clip-rule:evenodd;fill:#E6EAF3;}
	.st16{fill-rule:evenodd;clip-rule:evenodd;fill:#E6BC8F;}
	.st17{fill-rule:evenodd;clip-rule:evenodd;fill:#CB956B;}
	.st18{fill-rule:evenodd;clip-rule:evenodd;fill:#674934;}
	.st19{fill-rule:evenodd;clip-rule:evenodd;fill:#603B28;}
</style>
<path class="st0" d="M27.5,162.6h201c15.2,0,27.5,12.3,27.5,27.5v82.4c0,15.2-12.3,27.5-27.5,27.5h-201C12.3,300,0,287.7,0,272.5
	v-82.4C0,174.9,12.3,162.6,27.5,162.6z"/>
<path class="st1" d="M60,0h136c33.1,0,60,26.9,60,60v136c0,33.1-26.9,60-60,60H60c-33.1,0-60-26.9-60-60V60C0,26.9,26.8,0,60,0z"/>
<g>
	<path class="st2" d="M95.8,274.6c-0.1,0.2-0.3,0.2-0.5,0.2H91c-0.3,0-0.6,0-0.7-0.1c-0.2-0.1-0.4-0.2-0.6-0.5c0,0-0.2-0.2-0.4-0.5
		c-0.2-0.3-0.6-0.5-1.1-0.7s-1.1-0.3-1.8-0.3c-1,0-1.7,0.1-2.3,0.4c-0.6,0.3-0.9,0.8-0.9,1.4c0,0.5,0.2,0.9,0.6,1.1
		c0.4,0.3,1,0.5,1.7,0.7c0.8,0.2,2.2,0.5,4.1,1c2.5,0.6,4.3,1.4,5.5,2.6s1.8,2.9,1.8,5c0,1.6-0.4,3-1.3,4.2s-2.1,2.1-3.7,2.7
		s-3.3,1-5.3,1c-1.9,0-3.6-0.4-5.2-1.1s-2.8-1.7-3.7-2.8c-0.9-1.2-1.4-2.3-1.4-3.6c0-0.2,0.1-0.4,0.2-0.6s0.3-0.2,0.5-0.2h4.4
		c0.5,0,0.9,0.2,1.3,0.5c0.1,0.1,0.2,0.3,0.5,0.6c0.3,0.3,0.7,0.7,1.3,0.9c0.6,0.3,1.3,0.4,2.1,0.4c2.8,0,4.1-0.6,4.1-1.9
		c0-0.4-0.2-0.8-0.6-1c-0.4-0.3-0.9-0.5-1.6-0.7s-1.8-0.5-3.4-0.8l-1.5-0.3c-2.3-0.5-3.9-1.4-5-2.6s-1.6-2.9-1.6-5
		c0-1.4,0.4-2.7,1.2-3.9c0.8-1.2,1.9-2.1,3.3-2.8s3.1-1.1,4.9-1.1s3.4,0.4,4.9,1.1s2.7,1.7,3.5,2.8c0.9,1.1,1.3,2.2,1.3,3.2
		C96,274.2,96,274.4,95.8,274.6z"/>
	<path class="st2" d="M100.3,292.2c-0.2-0.2-0.3-0.4-0.3-0.7v-23.3c0-0.3,0.1-0.5,0.3-0.7c0.2-0.2,0.4-0.3,0.6-0.3h4.4
		c0.2,0,0.5,0.1,0.6,0.3c0.2,0.2,0.3,0.4,0.3,0.7v23.3c0,0.3-0.1,0.5-0.3,0.7c-0.2,0.2-0.4,0.3-0.6,0.3h-4.4
		C100.7,292.5,100.5,292.4,100.3,292.2z"/>
	<path class="st2" d="M125.1,292.2c-0.2-0.2-0.4-0.4-0.5-0.6l-7.6-12.3v12.2c0,0.3-0.1,0.5-0.3,0.7c-0.2,0.2-0.4,0.3-0.6,0.3h-4.4
		c-0.2,0-0.5-0.1-0.6-0.3c-0.2-0.2-0.3-0.4-0.3-0.7v-23.3c0-0.3,0.1-0.5,0.3-0.7c0.2-0.2,0.4-0.3,0.6-0.3h3.5c0.3,0,0.6,0.1,0.9,0.3
		c0.2,0.2,0.4,0.4,0.5,0.6l7.6,12.3v-12.2c0-0.3,0.1-0.5,0.3-0.7c0.2-0.2,0.4-0.3,0.6-0.3h4.4c0.2,0,0.5,0.1,0.6,0.3
		c0.2,0.2,0.3,0.4,0.3,0.7v23.3c0,0.3-0.1,0.5-0.3,0.7s-0.4,0.3-0.6,0.3H126C125.7,292.5,125.4,292.4,125.1,292.2z"/>
	<path class="st2" d="M150.1,268.2c1.5,0.9,2.7,2,3.5,3.5s1.3,3.1,1.4,5c0,0.7,0.1,1.8,0.1,3.2c0,1.5,0,2.5-0.1,3.2
		c-0.1,1.8-0.5,3.5-1.4,5c-0.8,1.5-2,2.6-3.5,3.5s-3.4,1.3-5.5,1.3s-3.9-0.4-5.5-1.3c-1.5-0.9-2.7-2-3.5-3.5s-1.3-3.1-1.4-5
		c0-1.3-0.1-2.4-0.1-3.2c0-0.8,0-1.9,0.1-3.2c0.1-1.8,0.5-3.5,1.4-5c0.8-1.5,2-2.6,3.5-3.5s3.3-1.3,5.5-1.3
		C146.7,266.9,148.5,267.3,150.1,268.2z M147.6,273.8c-0.7-0.8-1.7-1.1-3-1.1s-2.3,0.4-3,1.1c-0.7,0.8-1.1,1.8-1.2,3
		c-0.1,0.8-0.1,1.8-0.1,3s0,2.2,0.1,3.1c0.1,1.3,0.5,2.3,1.2,3c0.7,0.8,1.7,1.1,3,1.1s2.3-0.4,3-1.1c0.7-0.8,1.1-1.8,1.2-3
		c0.1-0.9,0.1-1.9,0.1-3.1s0-2.2-0.1-3C148.7,275.6,148.3,274.6,147.6,273.8z"/>
	<path class="st2" d="M173.2,292.2c-0.2-0.2-0.4-0.4-0.5-0.6l-7.6-12.3v12.2c0,0.3-0.1,0.5-0.3,0.7s-0.4,0.3-0.6,0.3h-4.4
		c-0.2,0-0.5-0.1-0.6-0.3c-0.2-0.2-0.3-0.4-0.3-0.7v-23.3c0-0.3,0.1-0.5,0.3-0.7s0.4-0.3,0.6-0.3h3.5c0.3,0,0.6,0.1,0.9,0.3
		c0.2,0.2,0.4,0.4,0.5,0.6l7.6,12.3v-12.2c0-0.3,0.1-0.5,0.3-0.7s0.4-0.3,0.6-0.3h4.4c0.2,0,0.5,0.1,0.6,0.3
		c0.2,0.2,0.3,0.4,0.3,0.7v23.3c0,0.3-0.1,0.5-0.3,0.7s-0.4,0.3-0.6,0.3H174C173.7,292.5,173.4,292.4,173.2,292.2z"/>
</g>
<circle class="st3" cx="128" cy="128" r="107.5"/>
<g id="Layer_x0020_1">
	<g id="_1935074248496">
		<path class="st4" d="M33.8,159.2c9.2-2.1,19.8-6.3,29.1-9.3c5.5-1.7,25.6-9.1,29.5-9c0.9-0.9-1.3-0.8,2.5-1.1l7.3-2.8l0.5-7
			c-3.7-4.5-2.8-4.2-3-11.9c-0.1-4.5-0.3-9.3-0.5-13.8l-2.6-2.5c-0.9-1.2-0.8-1.2-2.2-2.4l0.1-12l2.3-0.1c-0.8-3.1-1.7-6.6-2.7-9.5
			c-0.6-1.6-1.1-3.1-1.6-4.7c-0.8-2.8-1.3-3.1,0.8-4.3L104,54.6c2.8-3.2,12.3-5,17.3-6.8c9.7-3.3,9.5-2.7,17.4,2.2
			c6.6,4.1,9.1,4.1,18.7,5.5c5.1,15.5,3.1,15.7,1.6,31.8l3.7,0.4c0.2,7.5,1.3,13-5.3,17.2l-0.8,22.7l-2.3,2.2l-0.1,6.5
			c1.5,2.2,3.4,2.1,6.4,2.4l2.4-2.3c3.1,0.7,13.6,2.4,15.5,5l0.3,0.9l0.3,0.9l2.1,0.8l2.2-2.3l12.6,2.9c3.1,0.8,2.3,0.1,3.4,2.3
			l0.5,1.9c7,2.3,6.5,0.4,11.4,5.3c2.6,2.5,6.6,6.5,9.3,8.5c5.9-10.6,7.5-38.3,5.1-51.2c-4-22.9-14.6-42.9-31.3-57
			c-1.3-1.1-2.1-2.4-3.5-3.5c-28.4-24.4-73.4-28.8-107.3-11.7L65,51c-1.3,1.1-2.1,2.4-3.5,3.5C59.6,56,58.9,56,57.2,58
			c-15.2,16.2-26.4,38-28,60.8v16.7C29.9,143,31.8,148.8,33.8,159.2L33.8,159.2z"/>
		<path class="st3" d="M164.6,215.9c-5.5-0.3-37.2-7.3-46.3-9.3c-18.3-4-15.5,0.8-21.5-15l-15.9-39c1.2,0.8-0.3-0.8,0.9,0.8
			l21.2,42.2c1.5,3.3,0.9,2.8,4.7,3.8L164.6,215.9L164.6,215.9z M132.4,226.3H121c-8-0.5-15.9-1.9-23.2-4.3
			c-15.3-5.2-28.3-12.9-39.8-24c-2-1.9-2.1-2.8-3.8-4.7c-16.6-18.7-15.4-25.9-20.4-34.1c9.2-2.1,19.8-6.3,29.1-9.3
			c5.5-1.7,25.6-9.1,29.5-9l23.6,32c3.1,4,8.2,3.3,12.9,6.3l12.5,3c0.8,0.6-0.6,0.2,1.6,0.9c0.7,0.2,1.2,0.3,1.8,0.5
			c1.8,0.5,2.6,0.8,4.5,1.4l12,3.5c0.6,0.5,0.5,0.7,1.7,1.1c0.2,0.1,2.1,0.4,2.4,0.5l12.5,3.7c4.5,1.4,13.1,3.3,16.3,5.6
			c-1.4,1.8-2.5,3-4.2,4.4C174.8,217.4,153.6,225.1,132.4,226.3z"/>
		<path class="st5" d="M136.2,105l2.9,0.4l0.1,7.6c-5.1-0.5-7.9-2.3-13.2-1.9l-9.8,2.1l0.1-7.2C124.2,103.4,128.5,102,136.2,105z
			 M93,68.7c0.9,0.8-0.8,1.2,4.2-0.8c17.3-7,15.5-6.2,36.3-9c-0.2,0.1-1.2,0.7-1.4,0.8c-1.6,1.3-0.6,0.2-1.5,2.2l3.6,0.6l15.2,0.8
			c1.2,2,2.2,3.9,3.6,6.3c1.7,2.7,2.3,3.8,2.5,7.9l-4.7,0.2l-18.3,0.1l0.9,2.6l18.9,0.2c3.8,1.3-0.6,0.8,3.6,3.7
			c0.2,2.3,0.8,4.7-0.8,6.1c-0.3,3.9-5.5,22.7-8.3,24.5c-2.7-1.6-3.5-9.4-4.3-13c-1.7-1.5-4-2.5-6.6-3.5l-7.7,2.5
			c-7.1-0.1-8.3-5.2-15.9,0.8l-2.5,13.1c-2.8-0.8-0.9,1.2-2.4-1.8l-6.1-20.3c-0.8,0.9-1,0.2-1.1,3.9c-0.4,10.4,0.5,15.3,2.6,25.9
			c7.6,4.1,16.4,6.4,25.5,9.4l0.1,6.6c21.8-0.7,12.1-0.4,25.3-9.1l2.3-2.2l0.8-22.7l1.7-17.5c1.5-16,3.5-16.2-1.6-31.8
			c-9.5-1.4-12.1-1.4-18.7-5.5c-7.9-4.9-7.6-5.5-17.4-2.2c-5,1.7-14.3,3.5-17.3,6.8L93,68.7L93,68.7z"/>
		<path class="st6" d="M161.5,188.7c0.6,0.5,0.5,0.7,1.7,1.1c0.2,0.1,2.1,0.4,2.4,0.5l12.5,3.7c4.5,1.4,13.1,3.3,16.3,5.6
			c3.3-1,12.2-12.9,14.7-16.3l8.4-15c1-2.1,1.4-3.5,2.3-5.7c-2.7-1.9-6.7-5.8-9.3-8.5c-4.9-4.8-4.4-3-11.4-5.3l-1-0.3
			c-4.1,0.6-0.9-1.2-3.7,1.9l-22.4,28.3c-2.8,3.6-5.1,6.3-8.1,10.1L161.5,188.7z"/>
		<path class="st6" d="M128.6,138.9l-14.6-0.3c1.3,1.1-2,0.8,2.9,1.4l19.4-0.3c-6.7,2.4-14,6.1-20.8,8.3c-3.4,1.1-16.7-6.3-20.4-8.3
			c-3.9,0.4-1.5,0.3-2.5,1.1l23.6,32c3.1,4,8.2,3.3,12.9,6.3c0-4.1,20.2-26.5,23.4-30.8c2.4-3.1,6.1-7.1,7.7-10.1
			c-2.8-0.2-4.8-0.2-6.4-2.4l0.1-6.5C140.6,138.5,150.3,138.2,128.6,138.9L128.6,138.9z"/>
		<path class="st7" d="M160.1,138.6c-1.7,3-5.3,7-7.7,10.1c-3.1,4.1-23.3,26.5-23.4,30.8l12.5,3l2.5,0.1c2.9-3.1,5.5-6.5,8.1-9.9
			l19.7-24.8c3.8-4.8,2.5-3.8,5-4.4l-0.4-1.8l1.5-0.3c-1.9-2.5-12.4-4.2-15.5-5L160.1,138.6L160.1,138.6z"/>
		<path class="st7" d="M180.6,143.9l-23.5,30.7c-2,2.3-6.8,7.9-7.6,10.6l12,3.5l2.5,0.2c2.9-3.8,5.2-6.6,8.1-10.1l22.4-28.3
			c2.7-3.1-0.4-1.3,3.7-1.9c-1.7-2,1.8-0.8-1.4-1.5c1.2-0.7,0.2-0.5,2-0.2c-1.1-2.3-0.3-1.4-3.4-2.3l-12.6-2.9L180.6,143.9
			L180.6,143.9z"/>
		<path class="st6" d="M128.4,101.1l7.7-2.5c2.5,1.1,4.7,2,6.6,3.5c0.8,3.6,1.6,11.4,4.3,13c2.7-1.8,7.9-20.7,8.3-24.5l-2.5-6.1
			c-1.8,1.4-0.9,0.7-3.4,1c-3,0.4-2.1-0.6-3.1,1.4c-0.8,1.4,0.1,0.8-1.6,1.3l-3.1,0.4c-1.5-1.6-0.7,2.4-1.5-2.1l-5.5,0.4
			c-0.4-1.5-1.8-4,0-4.1l-0.8-2.3l-0.9-2.6l18.3-0.1L148,67c-2.4-0.5-11.5-2.8-13.7-4.4l-3.6-0.6c-1.3-0.2-3-1-3,0.8
			C129,64.8,128.6,96.5,128.4,101.1L128.4,101.1z"/>
		<path class="st8" d="M103.6,77.7l19.9,0.1l-0.7,1.9l-0.8,2.1c1.4,1.4,0.6-0.8,1,1.8l-2.2,3.5l-5.9,0.9l-3.4,0.3
			c-1.4-0.5-0.9,0.1-1.5-1.2c-1.2-1.6,0.1-0.8-2-1.4c-0.1,0-1.7-0.1-2-0.1c-1.9-0.2-1.8,0-3.3-0.8c-1,1.1-1.3,1.6-1.6,3.9
			c-0.3,2.3,0,2.4,0.7,4.2l6.1,20.3c1.5,3-0.5,0.9,2.4,1.8l2.5-13.1c7.6-5.9,8.9-0.9,15.9-0.8c0.1-4.5,0.6-36.3-0.8-38.2
			c-3.2-0.1-10.4,3.7-14,5.1C106.8,70.5,104.4,69.6,103.6,77.7z"/>
		<path class="st9" d="M93,68.7c-2.1,1.2-1.5,1.5-0.8,4.3c0.4,1.6,1,3,1.6,4.7c1,2.9,2,6.5,2.7,9.5c2,6.1,2.5,9.8,2.5,17
			c0.3,4.4,0.4,9.3,0.5,13.8c0.2,7.6-0.7,7.4,3,11.9c1.9,0.9,9.1,6.7,11.2,8.6l14.6,0.3l-0.1-6.6c-9-3-17.8-5.3-25.5-9.4
			c-2.2-10.7-3-15.5-2.6-25.9c0.1-3.8,0.3-3,1.1-3.9c-0.7-1.9-0.9-2.1-0.7-4.2c0.3-2.3,0.6-2.8,1.6-3.9c0.9-1.4-1-0.3,1.1-0.9l7-0.1
			c8.6,0,8.3,0.9,11.4-1.9l0.8-2.1c-3,2.1-19.2,1.7-24,0.6v-2.7l4.6,0.3c0.8-8.1,3.1-7.2,10-9.8c3.6-1.4,10.8-5.2,14-5.1
			c0-1.8,1.7-0.9,3-0.8c0.9-2-0.1-0.8,1.5-2.2c0.2-0.2,1.2-0.7,1.4-0.8c-20.9,2.7-19.1,2.1-36.3,9C92.2,70,93.9,69.4,93,68.7z"/>
		<path class="st10" d="M164.6,215.9l-56.8-16.5c-3.8-0.9-3.2-0.5-4.7-3.8l-21.2-42.2c-1.1-1.5,0.3,0-0.9-0.8l15.9,39
			c5.9,15.8,3.2,10.9,21.5,15C127.4,208.7,159.1,215.6,164.6,215.9z"/>
		<path class="st11" d="M95,139.8c3.6,2,16.9,9.3,20.4,8.3c6.8-2.2,14.1-5.8,20.8-8.3l-19.4,0.3c-4.9-0.6-1.6-0.3-2.9-1.4
			c-2.2-1.9-9.3-7.6-11.2-8.6l-0.5,7C102.2,137,95,139.8,95,139.8z"/>
		<path class="st12" d="M176.7,143.3c-2.5,0.8-1.2-0.4-5,4.4L152,172.6c-2.5,3.3-5.1,6.7-8.1,9.9l-2.5-0.1c0.8,0.6-0.6,0.2,1.6,0.9
			c0.7,0.2,1.2,0.3,1.8,0.5c1.8,0.5,2.6,0.8,4.5,1.4c0.8-2.6,5.6-8.4,7.6-10.6l23.5-30.6l-2.1-0.8l-0.3-0.9l0.2,1.2L176.7,143.3
			L176.7,143.3z"/>
		<path class="st13" d="M126.1,111.1l3.8-2.5c-3.5,0.2-5.6,0.7-6.6-2.7c2.5-0.3,8-0.8,9.3,0.7l4.5,0.4c1.3-0.1,1.2-0.3,1.8-0.6
			l-2.9-1.4c-7.7-3-12-1.5-19.8,1l-0.1,7.2L126.1,111.1z"/>
		<path class="st9" d="M150.9,77.7l4.7-0.2c-0.2-4.1-0.8-5.1-2.5-7.9c-1.4-2.4-2.4-4.2-3.6-6.3l-15.2-0.8c2.2,1.5,11.3,4,13.7,4.4
			C148,67,150.9,77.7,150.9,77.7z"/>
		<path class="st14" d="M122.9,79.8l0.7-1.9l-19.9-0.1l-4.6-0.3v2.7C103.7,81.5,119.7,81.8,122.9,79.8z"/>
		<path class="st15" d="M134.5,82.8c7,1.2,6.8,0.9,14.1,0.9c0.4,0,2.1,0,2.4,0c3.1,0.4,1.2,0.1,1.9,0.8l2.5,6.1
			c1.6-1.3,1-3.8,0.8-6.1c-4.2-2.9,0.2-2.4-3.6-3.7l-18.9-0.2L134.5,82.8z"/>
		<path class="st16" d="M156.8,104.9c6.7-4.2,5.5-9.7,5.3-17.2l-3.7-0.4L156.8,104.9z"/>
		<path class="st16" d="M99.1,104.3c0.1-7.2-0.5-10.9-2.5-17l-2.3,0.1l-0.1,12.1c1.4,1.1,1.2,1,2.2,2.4L99.1,104.3z"/>
		<path class="st17" d="M102.5,84.7c1.6,0.8,1.5,0.6,3.3,0.8c0.2,0,1.9,0.1,2,0.1c2.1,0.6,0.8-0.1,2,1.4c1.8-1.3,4.7-3.1,4.9,1
			l5.9-0.9l2.2-3.5c-0.6-2.5,0.3-0.4-1-1.8c-3,2.8-2.7,1.9-11.4,1.9l-7,0.1C101.5,84.4,103.5,83.3,102.5,84.7z"/>
		<path class="st16" d="M132.7,106.5c-1.1,1.5-0.4,1.3-2.7,2.1l-3.8,2.5c5.3-0.3,8.1,1.4,13.2,1.9l-0.1-7.6l-2.9-0.4l2.9,1.4
			c-0.7,0.3-0.6,0.5-1.8,0.6L132.7,106.5L132.7,106.5z"/>
		<path class="st17" d="M141.6,88.6c0.1-4.5,2.7-3.1,4.6-1.7c1-2,0.1-1,3.1-1.4c2.5-0.3,1.6,0.4,3.4-1c-0.7-0.7,1.2-0.4-1.9-0.8
			c-0.3,0-1.9,0-2.4,0c-7.4,0-7.2,0.3-14.1-0.9c-1.8,0-0.4,2.5,0,4.1l5.5-0.4C140.9,91,140.1,87.1,141.6,88.6L141.6,88.6z"/>
		<path class="st18" d="M129.9,108.6c2.4-0.8,1.7-0.6,2.7-2.1c-1.3-1.4-6.9-0.9-9.3-0.7C124.3,109.2,126.4,108.7,129.9,108.6z"/>
		<path class="st18" d="M109.8,87.1c0.6,1.4,0.1,0.8,1.5,1.2l3.4-0.3C114.6,83.8,111.7,85.7,109.8,87.1z"/>
		<path class="st18" d="M141.6,88.6l3.1-0.4c1.7-0.5,0.8,0.2,1.6-1.3C144.3,85.4,141.6,84,141.6,88.6z"/>
		<polygon class="st19" points="176.7,143.3 178.5,143.5 178.2,142.3 177.9,141.3 176.4,141.5 		"/>
		<path class="st19" d="M198.2,148.7l1,0.3l-0.5-1.9c-1.8-0.3-0.8-0.5-2,0.2C200,147.8,196.5,146.7,198.2,148.7L198.2,148.7z"/>
	</g>
</g>
</svg>
