<?xml version="1.0" encoding="utf-8"?>
<!-- Generator: Adobe Illustrator 24.3.0, SVG Export Plug-In . SVG Version: 6.00 Build 0)  -->
<svg version="1.1" id="Layer_1" xmlns="http://www.w3.org/2000/svg" xmlns:xlink="http://www.w3.org/1999/xlink" x="0px" y="0px"
	 viewBox="0 0 256 300" style="enable-background:new 0 0 256 300;" xml:space="preserve">
<style type="text/css">
	.st0{fill:#FFFFFF;}
	.st1{fill:#173647;}
	.st2{fill:#231F20;}
	.st3{fill:#85EA2D;}
</style>
<path class="st0" d="M27.5,162.6h201c15.2,0,27.5,12.3,27.5,27.5v82.4c0,15.2-12.3,27.5-27.5,27.5h-201C12.3,300,0,287.7,0,272.5
	v-82.4C0,174.9,12.3,162.6,27.5,162.6z"/>
<path class="st1" d="M60,0h136c33.1,0,60,26.9,60,60v136c0,33.1-26.9,60-60,60H60c-33.1,0-60-26.9-60-60V60C0,26.9,26.8,0,60,0z"/>
<circle class="st1" cx="128" cy="128" r="117.3"/>
<g>
	<path class="st2" d="M66.5,274.6c-0.1,0.2-0.3,0.2-0.5,0.2h-4.4c-0.3,0-0.6,0-0.7-0.1c-0.2-0.1-0.4-0.2-0.6-0.5
		c0,0-0.2-0.2-0.4-0.5c-0.2-0.3-0.6-0.5-1.1-0.7c-0.5-0.2-1.1-0.3-1.8-0.3c-1,0-1.7,0.1-2.3,0.4c-0.6,0.3-0.9,0.8-0.9,1.4
		c0,0.5,0.2,0.9,0.6,1.1c0.4,0.3,1,0.5,1.7,0.7c0.8,0.2,2.2,0.5,4.1,1c2.5,0.6,4.3,1.4,5.5,2.6c1.2,1.2,1.8,2.9,1.8,5
		c0,1.6-0.4,3-1.3,4.2c-0.9,1.2-2.1,2.1-3.7,2.7c-1.6,0.6-3.3,1-5.3,1c-1.9,0-3.6-0.4-5.2-1.1c-1.6-0.7-2.8-1.7-3.7-2.8
		c-0.9-1.2-1.4-2.3-1.4-3.6c0-0.2,0.1-0.4,0.2-0.6c0.1-0.2,0.3-0.2,0.5-0.2h4.4c0.5,0,0.9,0.2,1.3,0.5c0.1,0.1,0.2,0.3,0.5,0.6
		c0.3,0.3,0.7,0.7,1.3,0.9c0.6,0.3,1.3,0.4,2.1,0.4c2.8,0,4.1-0.6,4.1-1.9c0-0.4-0.2-0.8-0.6-1c-0.4-0.3-0.9-0.5-1.6-0.7
		c-0.7-0.2-1.8-0.5-3.4-0.8l-1.5-0.3c-2.3-0.5-3.9-1.4-5-2.6c-1.1-1.2-1.6-2.9-1.6-5c0-1.4,0.4-2.7,1.2-3.9c0.8-1.2,1.9-2.1,3.3-2.8
		s3.1-1.1,4.9-1.1c1.8,0,3.4,0.4,4.9,1.1c1.5,0.7,2.7,1.7,3.5,2.8c0.9,1.1,1.3,2.2,1.3,3.2C66.7,274.2,66.6,274.4,66.5,274.6z"/>
	<path class="st2" d="M87.6,268.2c0.1-0.3,0.2-0.6,0.4-0.7s0.4-0.2,0.6-0.2H93c0.2,0,0.4,0.1,0.5,0.2c0.1,0.2,0.2,0.3,0.2,0.6l0,0.3
		l-4.3,22.8c0,0.3-0.2,0.6-0.5,0.9c-0.3,0.3-0.7,0.4-1.1,0.4h-2.8c-0.4,0-0.8-0.1-1.1-0.4c-0.3-0.3-0.5-0.6-0.6-1l-2.5-8.1l-2.5,8.1
		c-0.1,0.4-0.3,0.7-0.6,1c-0.3,0.3-0.6,0.4-1.1,0.4h-2.8c-0.4,0-0.8-0.1-1.1-0.4c-0.3-0.3-0.5-0.6-0.5-0.9l-4.3-22.8l0-0.3
		c0-0.2,0.1-0.4,0.2-0.6c0.1-0.2,0.3-0.2,0.5-0.2H73c0.2,0,0.5,0.1,0.6,0.2c0.2,0.2,0.3,0.4,0.4,0.7l2.1,12.2l2-6.5
		c0.2-0.7,0.6-1,1.1-1h3.1c0.5,0,0.9,0.3,1.1,1l2,6.5L87.6,268.2z"/>
	<path class="st2" d="M117.5,291.1c0.1,0.2,0.1,0.4,0.1,0.5c0,0.2-0.1,0.4-0.2,0.6c-0.1,0.2-0.3,0.2-0.5,0.2h-4.2
		c-0.4,0-0.7-0.1-0.9-0.3c-0.2-0.2-0.3-0.4-0.4-0.6l-0.9-3h-8.9l-0.9,3c-0.1,0.2-0.2,0.5-0.4,0.6c-0.2,0.2-0.5,0.3-0.9,0.3h-4.2
		c-0.2,0-0.4-0.1-0.5-0.2c-0.1-0.2-0.2-0.3-0.2-0.6c0-0.1,0-0.3,0.1-0.5l7.3-22.7c0.1-0.3,0.3-0.6,0.5-0.8c0.2-0.2,0.6-0.3,1-0.3
		h5.4c0.4,0,0.7,0.1,1,0.3c0.2,0.2,0.4,0.5,0.5,0.8L117.5,291.1z M108.7,283l-2.7-8.6l-2.7,8.6H108.7z"/>
	<path class="st2" d="M125.5,279.6c0,1.5,0,2.6,0.1,3.3c0.1,1.2,0.5,2.2,1.1,3c0.7,0.8,1.7,1.2,3.1,1.2c1.3,0,2.3-0.3,3-1
		c0.8-0.6,1.1-1.6,1.1-3h-2.8c-0.2,0-0.5-0.1-0.6-0.3c-0.2-0.2-0.3-0.4-0.3-0.7v-3.8c0-0.3,0.1-0.5,0.3-0.7c0.2-0.2,0.4-0.3,0.6-0.3
		h8.1c0.2,0,0.5,0.1,0.6,0.3c0.2,0.2,0.3,0.4,0.3,0.7v4.6c0,2-0.5,3.7-1.4,5.2c-0.9,1.5-2.1,2.7-3.7,3.5s-3.3,1.2-5.3,1.2
		c-2.1,0-3.9-0.4-5.4-1.3c-1.5-0.9-2.7-2.1-3.6-3.5c-0.8-1.5-1.3-3.1-1.4-4.9c0-1.2-0.1-2.1-0.1-2.8c0-0.9,0-2.1,0.1-3.6
		c0.1-1.8,0.5-3.4,1.4-4.9c0.8-1.5,2-2.7,3.6-3.5c1.5-0.9,3.3-1.3,5.4-1.3c2,0,3.7,0.4,5.2,1.2s2.7,1.8,3.6,3
		c0.9,1.2,1.3,2.4,1.4,3.5c0,0.2,0,0.4-0.2,0.6s-0.3,0.2-0.5,0.2h-4.4c-0.3,0-0.5-0.1-0.7-0.2s-0.4-0.4-0.6-0.7
		c-0.4-0.5-0.9-0.9-1.4-1.3c-0.5-0.3-1.3-0.5-2.3-0.5c-2.5,0-3.9,1.4-4.2,4.2C125.6,277.4,125.5,278.3,125.5,279.6z"/>
	<path class="st2" d="M149.2,279.6c0,1.5,0,2.6,0.1,3.3c0.1,1.2,0.5,2.2,1.1,3c0.7,0.8,1.7,1.2,3.1,1.2c1.3,0,2.3-0.3,3-1
		c0.8-0.6,1.1-1.6,1.1-3h-2.8c-0.2,0-0.5-0.1-0.6-0.3c-0.2-0.2-0.3-0.4-0.3-0.7v-3.8c0-0.3,0.1-0.5,0.3-0.7c0.2-0.2,0.4-0.3,0.6-0.3
		h8.1c0.2,0,0.5,0.1,0.6,0.3c0.2,0.2,0.3,0.4,0.3,0.7v4.6c0,2-0.5,3.7-1.4,5.2c-0.9,1.5-2.1,2.7-3.7,3.5c-1.6,0.8-3.3,1.2-5.3,1.2
		c-2.1,0-3.9-0.4-5.4-1.3c-1.5-0.9-2.7-2.1-3.6-3.5c-0.8-1.5-1.3-3.1-1.4-4.9c0-1.2-0.1-2.1-0.1-2.8c0-0.9,0-2.1,0.1-3.6
		c0.1-1.8,0.5-3.4,1.4-4.9c0.8-1.5,2-2.7,3.6-3.5c1.5-0.9,3.3-1.3,5.4-1.3c2,0,3.7,0.4,5.2,1.2s2.7,1.8,3.6,3
		c0.9,1.2,1.3,2.4,1.4,3.5c0,0.2,0,0.4-0.2,0.6c-0.2,0.2-0.3,0.2-0.5,0.2h-4.4c-0.3,0-0.5-0.1-0.7-0.2c-0.2-0.2-0.4-0.4-0.6-0.7
		c-0.4-0.5-0.9-0.9-1.4-1.3c-0.5-0.3-1.3-0.5-2.3-0.5c-2.5,0-3.9,1.4-4.2,4.2C149.2,277.4,149.2,278.3,149.2,279.6z"/>
	<path class="st2" d="M173.8,286.7h10.5c0.2,0,0.5,0.1,0.6,0.3c0.2,0.2,0.3,0.4,0.3,0.7v3.8c0,0.3-0.1,0.5-0.3,0.7
		c-0.2,0.2-0.4,0.3-0.6,0.3h-15.8c-0.2,0-0.5-0.1-0.6-0.3c-0.2-0.2-0.3-0.4-0.3-0.7v-23.3c0-0.3,0.1-0.5,0.3-0.7
		c0.2-0.2,0.4-0.3,0.6-0.3H184c0.2,0,0.5,0.1,0.6,0.3c0.2,0.2,0.3,0.4,0.3,0.7v3.8c0,0.3-0.1,0.5-0.3,0.7s-0.4,0.3-0.6,0.3h-10.2
		v3.9h9.5c0.2,0,0.5,0.1,0.6,0.3c0.2,0.2,0.3,0.4,0.3,0.7v3.8c0,0.3-0.1,0.5-0.3,0.7c-0.2,0.2-0.4,0.3-0.6,0.3h-9.5V286.7z"/>
	<path class="st2" d="M205.8,269.3c1.6,1.4,2.5,3.4,2.5,6.2c0,3.5-1.3,5.9-4,7.2l4.1,8.6c0.1,0.1,0.1,0.3,0.1,0.4
		c0,0.2-0.1,0.4-0.2,0.6c-0.1,0.2-0.3,0.2-0.5,0.2h-4.5c-0.4,0-0.7-0.1-0.9-0.3c-0.2-0.2-0.4-0.4-0.5-0.7l-3.7-7.7h-3.1v7.7
		c0,0.3-0.1,0.5-0.3,0.7c-0.2,0.2-0.4,0.3-0.6,0.3h-4.4c-0.2,0-0.5-0.1-0.6-0.3c-0.2-0.2-0.3-0.4-0.3-0.7v-23.3
		c0-0.3,0.1-0.5,0.3-0.7c0.2-0.2,0.4-0.3,0.6-0.3h9C201.9,267.3,204.2,268,205.8,269.3z M198.9,278.2c2.2,0,3.2-0.9,3.2-2.7
		c0-1.8-1.1-2.7-3.2-2.7h-3.8v5.3H198.9z"/>
</g>
<g>
	<path class="st3" d="M128.2,243.7c-63.8,0-115.7-51.9-115.7-115.7S64.4,12.2,128.2,12.2s115.7,51.9,115.7,115.7
		S192,243.7,128.2,243.7z"/>
	<g>
		<g>
		</g>
		<g>
			<g>
				<path class="st1" d="M128.2,18c60.7,0,109.9,49.2,109.9,109.9c0,60.7-49.2,109.9-109.9,109.9c-60.7,0-109.9-49.2-109.9-109.9
					C18.3,67.2,67.5,18,128.2,18 M128.2,6.4C61.2,6.4,6.7,60.9,6.7,127.9s54.5,121.5,121.5,121.5s121.5-54.5,121.5-121.5
					S195.2,6.4,128.2,6.4L128.2,6.4z"/>
			</g>
		</g>
	</g>
	<path class="st1" d="M83.2,88.7c-0.4,4.2,0.1,8.5-0.1,12.7c-0.3,4.2-0.8,8.4-1.7,12.5c-1.2,5.9-4.9,10.4-10,14.2
		c9.9,6.4,11,16.4,11.7,26.6c0.3,5.5,0.2,11,0.7,16.4c0.4,4.2,2.1,5.3,6.4,5.4c1.8,0,3.6,0,5.7,0v13c-12.8,2.2-23.5-1.4-26.1-12.3
		c-0.8-4-1.4-8-1.6-12.1c-0.3-4.3,0.2-8.7-0.1-13c-0.9-11.9-2.5-15.9-13.9-16.5v-14.8c0.8-0.2,1.6-0.3,2.5-0.4
		c6.3-0.3,8.9-2.2,10.3-8.4c0.7-3.5,1-7,1.2-10.5c0.5-6.8,0.3-13.7,1.4-20.4c1.6-9.7,7.6-14.3,17.6-14.9c2.8-0.1,5.7,0,8.9,0v13.3
		c-1.4,0.1-2.5,0.3-3.7,0.3C84.2,79.2,83.8,81.9,83.2,88.7z M98.8,119.4h-0.2c-4.7-0.2-8.7,3.4-8.9,8.1c-0.2,4.7,3.4,8.7,8.1,9h0.6
		c4.6,0.3,8.6-3.3,8.9-7.9v-0.5C107.3,123.4,103.5,119.5,98.8,119.4z M128,119.4c-4.5-0.1-8.3,3.4-8.5,7.9c0,0.3,0,0.5,0,0.8
		c0,5.1,3.5,8.4,8.7,8.4c5.1,0,8.4-3.4,8.4-8.6C136.6,122.7,133.2,119.4,128,119.4z M158,119.4c-4.8-0.1-8.7,3.7-8.9,8.5
		c0,4.8,3.8,8.6,8.6,8.6h0.1c4.3,0.7,8.6-3.4,8.9-8.4C167,123.4,162.8,119.4,158,119.4z M199.2,120.1c-5.4-0.2-8.1-2.1-9.5-7.2
		c-0.8-3.3-1.4-6.7-1.5-10c-0.4-6.3-0.3-12.6-0.7-18.8c-1-14.9-11.7-20-27.3-17.5v12.9c2.5,0,4.4,0,6.3,0c3.3,0,5.8,1.3,6.2,5
		c0.3,3.4,0.3,6.8,0.7,10.2c0.7,6.8,1,13.6,2.2,20.3c1,5.5,4.8,9.6,9.5,13c-8.3,5.6-10.7,13.5-11.1,22.4c-0.2,6.1-0.4,12.3-0.7,18.5
		c-0.3,5.6-2.2,7.4-7.9,7.6c-1.6,0-3.1,0.2-4.9,0.3V190c3.3,0,6.4,0.2,9.4,0c9.4-0.6,15.1-5.1,17-14.3c0.8-5,1.3-10.1,1.4-15.2
		c0.3-4.7,0.3-9.4,0.7-14c0.7-7.2,4-10.2,11.3-10.7c0.7-0.1,1.4-0.2,2-0.5v-14.8C200.9,120.3,200.1,120.1,199.2,120.1z"/>
</g>
</svg>
