<?xml version="1.0" encoding="utf-8"?>
<!-- Generator: Adobe Illustrator 24.3.0, SVG Export Plug-In . SVG Version: 6.00 Build 0)  -->
<svg version="1.1" id="Layer_1" xmlns="http://www.w3.org/2000/svg" xmlns:xlink="http://www.w3.org/1999/xlink" x="0px" y="0px"
	 viewBox="0 0 256 300" style="enable-background:new 0 0 256 300;" xml:space="preserve">
<style type="text/css">
	.st0{fill:#FFFFFF;}
	.st1{fill:#0D1117;}
	.st2{fill:#007ACC;}
</style>
<path class="st0" d="M27.5,162.6h201c15.2,0,27.5,12.3,27.5,27.5v82.4c0,15.2-12.3,27.5-27.5,27.5h-201C12.3,300,0,287.7,0,272.5
	v-82.4C0,174.9,12.3,162.6,27.5,162.6z"/>
<g>
	<path class="st1" d="M36.4,267.7c0.2,0.2,0.2,0.4,0.2,0.7v3.8c0,0.3-0.1,0.5-0.2,0.7c-0.2,0.2-0.4,0.3-0.6,0.3h-5.5v18.4
		c0,0.3-0.1,0.5-0.2,0.7c-0.2,0.2-0.4,0.3-0.6,0.3h-4c-0.2,0-0.4-0.1-0.6-0.3c-0.2-0.2-0.2-0.4-0.2-0.7v-18.4h-5.5
		c-0.2,0-0.4-0.1-0.6-0.3c-0.2-0.2-0.2-0.4-0.2-0.7v-3.8c0-0.3,0.1-0.5,0.2-0.7c0.2-0.2,0.4-0.3,0.6-0.3h16.7
		C36.1,267.5,36.3,267.6,36.4,267.7z"/>
	<path class="st1" d="M53,292.2c-0.2,0.2-0.4,0.3-0.6,0.3h-4.1c-0.2,0-0.4-0.1-0.6-0.3c-0.2-0.2-0.2-0.4-0.2-0.7v-7.6l-7.2-15.2
		c-0.1-0.2-0.1-0.3-0.1-0.5s0.1-0.4,0.2-0.6c0.1-0.2,0.3-0.2,0.5-0.2h4.3c0.4,0,0.6,0.1,0.9,0.3c0.2,0.2,0.4,0.4,0.5,0.6l3.9,8.8
		l3.9-8.8c0.1-0.2,0.2-0.4,0.5-0.6c0.2-0.2,0.5-0.3,0.9-0.3h4.3c0.2,0,0.3,0.1,0.5,0.2c0.1,0.2,0.2,0.3,0.2,0.6c0,0.1,0,0.3-0.1,0.5
		l-7.2,15.2v7.6C53.2,291.8,53.2,292,53,292.2z"/>
	<path class="st1" d="M81.6,269.6c1.5,1.4,2.3,3.5,2.3,6.2s-0.8,4.8-2.3,6.3c-1.5,1.4-3.6,2.1-6.3,2.1h-4v7.3c0,0.3-0.1,0.5-0.2,0.7
		c-0.2,0.2-0.4,0.3-0.6,0.3h-4.1c-0.2,0-0.4-0.1-0.6-0.3c-0.2-0.2-0.2-0.4-0.2-0.7v-23.1c0-0.3,0.1-0.5,0.2-0.7
		c0.2-0.2,0.4-0.3,0.6-0.3h8.9C78,267.5,80.1,268.2,81.6,269.6z M75.1,278.7c0.9,0,1.6-0.2,2.2-0.7c0.5-0.5,0.8-1.2,0.8-2.1
		c0-1-0.3-1.7-0.8-2.1c-0.5-0.5-1.3-0.7-2.2-0.7h-3.8v5.7L75.1,278.7L75.1,278.7z"/>
	<path class="st1" d="M95,286.8h9.8c0.2,0,0.4,0.1,0.6,0.3c0.2,0.2,0.2,0.4,0.2,0.7v3.8c0,0.3-0.1,0.5-0.2,0.7
		c-0.2,0.2-0.4,0.3-0.6,0.3H90.1c-0.2,0-0.4-0.1-0.6-0.3c-0.2-0.2-0.2-0.4-0.2-0.7v-23.1c0-0.3,0.1-0.5,0.2-0.7
		c0.2-0.2,0.4-0.3,0.6-0.3h14.5c0.2,0,0.4,0.1,0.6,0.3c0.2,0.2,0.2,0.4,0.2,0.7v3.8c0,0.3-0.1,0.5-0.2,0.7c-0.2,0.2-0.4,0.3-0.6,0.3
		H95v3.9h8.9c0.2,0,0.4,0.1,0.6,0.3c0.2,0.2,0.2,0.4,0.2,0.7v3.8c0,0.3-0.1,0.5-0.2,0.7c-0.2,0.2-0.4,0.3-0.6,0.3H95V286.8z"/>
	<path class="st1" d="M128.6,274.7c-0.1,0.2-0.3,0.2-0.5,0.2H124c-0.3,0-0.5,0-0.7-0.1s-0.4-0.2-0.6-0.4c0,0-0.2-0.2-0.4-0.5
		c-0.2-0.3-0.6-0.5-1.1-0.7s-1.1-0.3-1.7-0.3c-0.9,0-1.6,0.1-2.2,0.4s-0.9,0.7-0.9,1.4c0,0.5,0.2,0.9,0.5,1.1
		c0.4,0.3,0.9,0.5,1.6,0.7s2,0.5,3.8,1c2.3,0.5,4.1,1.4,5.2,2.6s1.6,2.8,1.6,5c0,1.6-0.4,3-1.2,4.1c-0.8,1.2-2,2.1-3.4,2.7
		s-3.1,0.9-5,0.9c-1.8,0-3.4-0.4-4.8-1.1s-2.6-1.6-3.4-2.8c-0.8-1.1-1.3-2.3-1.3-3.5c0-0.2,0.1-0.4,0.2-0.6s0.3-0.2,0.5-0.2h4.1
		c0.5,0,0.8,0.2,1.2,0.5c0.1,0.1,0.2,0.3,0.5,0.6s0.7,0.7,1.2,0.9c0.5,0.3,1.2,0.4,1.9,0.4c2.6,0,3.8-0.6,3.8-1.9
		c0-0.4-0.2-0.7-0.5-1c-0.4-0.3-0.9-0.5-1.5-0.7c-0.7-0.2-1.7-0.5-3.2-0.8l-1.4-0.3c-2.1-0.5-3.7-1.4-4.7-2.6s-1.5-2.9-1.5-4.9
		c0-1.4,0.4-2.7,1.1-3.8c0.7-1.2,1.8-2.1,3.1-2.8s2.9-1.1,4.6-1.1s3.2,0.4,4.6,1.1s2.5,1.6,3.3,2.7c0.8,1.1,1.2,2.2,1.3,3.2
		C128.8,274.4,128.8,274.6,128.6,274.7z"/>
	<path class="st1" d="M141,286c0.6,0.8,1.6,1.1,2.9,1.1c1.2,0,2.1-0.3,2.7-0.8s1-1.2,1.2-2c0.1-0.4,0.2-0.7,0.4-0.8
		c0.1-0.1,0.4-0.2,0.7-0.2h4.1c0.2,0,0.3,0.1,0.5,0.2c0.1,0.2,0.2,0.3,0.2,0.6c0,1.6-0.5,3.1-1.3,4.4c-0.9,1.3-2,2.4-3.5,3.2
		s-3.1,1.2-4.9,1.2c-1.9,0-3.6-0.4-5-1.3s-2.5-2-3.3-3.5s-1.2-3.1-1.3-4.9c0-1.1-0.1-2.1-0.1-2.8c0-0.9,0-2.1,0.1-3.5
		c0.1-1.8,0.5-3.4,1.3-4.9s1.9-2.6,3.3-3.5c1.4-0.9,3.1-1.3,5-1.3c1.8,0,3.4,0.4,4.9,1.2c1.5,0.8,2.6,1.9,3.5,3.2
		c0.9,1.3,1.3,2.8,1.3,4.4c0,0.2-0.1,0.4-0.2,0.6c-0.1,0.2-0.3,0.2-0.5,0.2h-4.1c-0.3,0-0.6-0.1-0.7-0.2c-0.1-0.1-0.2-0.4-0.4-0.8
		c-0.2-0.8-0.6-1.5-1.2-2s-1.5-0.8-2.7-0.8c-1.3,0-2.3,0.4-2.9,1.1c-0.6,0.8-1,1.8-1,3c0,0.8-0.1,1.8-0.1,3c0,1.1,0,2.1,0.1,3
		C140,284.2,140.4,285.2,141,286z"/>
	<path class="st1" d="M174.8,269.5c1.5,1.4,2.3,3.4,2.3,6.1c0,3.5-1.2,5.8-3.7,7.2l3.8,8.5c0.1,0.1,0.1,0.3,0.1,0.4
		c0,0.2-0.1,0.4-0.2,0.6c-0.1,0.2-0.3,0.2-0.5,0.2h-4.1c-0.4,0-0.7-0.1-0.8-0.3c-0.2-0.2-0.3-0.4-0.5-0.7l-3.4-7.7h-2.9v7.7
		c0,0.3-0.1,0.5-0.2,0.7c-0.2,0.2-0.4,0.3-0.6,0.3H160c-0.2,0-0.4-0.1-0.6-0.3c-0.2-0.2-0.2-0.4-0.2-0.7v-23.1
		c0-0.3,0.1-0.5,0.2-0.7c0.2-0.2,0.4-0.3,0.6-0.3h8.4C171.1,267.5,173.3,268.1,174.8,269.5z M168.4,278.3c2,0,3-0.9,3-2.6
		s-1-2.6-3-2.6h-3.5v5.3L168.4,278.3L168.4,278.3z"/>
	<path class="st1" d="M183.3,292.2c-0.2-0.2-0.2-0.4-0.2-0.7v-23.1c0-0.3,0.1-0.5,0.2-0.7c0.2-0.2,0.4-0.3,0.6-0.3h4.1
		c0.2,0,0.4,0.1,0.6,0.3c0.2,0.2,0.2,0.4,0.2,0.7v23.1c0,0.3-0.1,0.5-0.2,0.7c-0.2,0.2-0.4,0.3-0.6,0.3h-4.1
		C183.7,292.5,183.5,292.4,183.3,292.2z"/>
	<path class="st1" d="M211.6,269.6c1.5,1.4,2.3,3.5,2.3,6.2s-0.8,4.8-2.3,6.3c-1.5,1.4-3.6,2.1-6.3,2.1h-4v7.3
		c0,0.3-0.1,0.5-0.2,0.7c-0.2,0.2-0.4,0.3-0.6,0.3h-4.1c-0.2,0-0.4-0.1-0.6-0.3c-0.2-0.2-0.2-0.4-0.2-0.7v-23.1
		c0-0.3,0.1-0.5,0.2-0.7c0.2-0.2,0.4-0.3,0.6-0.3h8.9C208,267.5,210.1,268.2,211.6,269.6z M205.1,278.7c0.9,0,1.6-0.2,2.2-0.7
		c0.5-0.5,0.8-1.2,0.8-2.1c0-1-0.3-1.7-0.8-2.1c-0.5-0.5-1.3-0.7-2.2-0.7h-3.8v5.7L205.1,278.7L205.1,278.7z"/>
	<path class="st1" d="M235,267.7c0.2,0.2,0.2,0.4,0.2,0.7v3.8c0,0.3-0.1,0.5-0.2,0.7c-0.2,0.2-0.4,0.3-0.6,0.3h-5.5v18.4
		c0,0.3-0.1,0.5-0.2,0.7c-0.2,0.2-0.4,0.3-0.6,0.3H224c-0.2,0-0.4-0.1-0.6-0.3c-0.2-0.2-0.2-0.4-0.2-0.7v-18.4h-5.5
		c-0.2,0-0.4-0.1-0.6-0.3c-0.2-0.2-0.2-0.4-0.2-0.7v-3.8c0-0.3,0.1-0.5,0.2-0.7c0.2-0.2,0.4-0.3,0.6-0.3h16.7
		C234.7,267.5,234.9,267.6,235,267.7z"/>
</g>
<path class="st2" d="M60,0h136c33.1,0,60,26.9,60,60v136c0,33.1-26.9,60-60,60H60c-33.1,0-60-26.9-60-60V60C0,26.9,26.9,0,60,0z"/>
<path class="st0" d="M56.6,128.9l-0.1,10.5h16.7h16.7v47.3V234h11.8h11.8v-47.3v-47.3h16.7h16.7v-10.3c0-5.7-0.1-10.4-0.3-10.6
	c-0.1-0.2-20.4-0.2-45-0.2l-44.7,0.1L56.6,128.9z"/>
<path class="st0" d="M206.6,118.1c6.5,1.6,11.5,4.5,16,9.2c2.4,2.5,5.9,7.1,6.1,8.2c0.1,0.3-11.1,7.8-17.8,12
	c-0.2,0.2-1.2-0.9-2.3-2.5c-3.3-4.8-6.7-6.9-12-7.2c-7.8-0.5-12.8,3.5-12.7,10.3c0,2,0.3,3.2,1.1,4.8c1.7,3.5,4.9,5.6,14.8,10
	c18.3,7.9,26.2,13.1,31,20.5c5.4,8.2,6.7,21.4,3,31.2c-4.1,10.6-14.1,17.9-28.3,20.3c-4.4,0.8-14.8,0.7-19.5-0.2
	c-10.3-1.8-20-6.9-26-13.6c-2.4-2.6-6.9-9.4-6.7-9.9c0.1-0.2,1.2-0.8,2.4-1.5c1.1-0.6,5.4-3.1,9.5-5.5l7.4-4.3l1.5,2.3
	c2.2,3.3,6.9,7.8,9.7,9.3c8.2,4.3,19.4,3.7,24.9-1.3c2.4-2.2,3.3-4.4,3.3-7.7c0-3-0.4-4.3-1.9-6.5c-2-2.8-6.1-5.2-17.6-10.2
	c-13.2-5.7-18.9-9.2-24.1-14.8c-3-3.2-5.9-8.5-7-12.8c-1-3.6-1.2-12.7-0.4-16.3c2.7-12.8,12.4-21.7,26.2-24.3
	C191.7,116.7,202.1,117,206.6,118.1z"/>
</svg>
