<?xml version="1.0" encoding="utf-8"?>
<!-- Generator: Adobe Illustrator 24.3.0, SVG Export Plug-In . SVG Version: 6.00 Build 0)  -->
<svg version="1.1" id="tl" xmlns="http://www.w3.org/2000/svg" xmlns:xlink="http://www.w3.org/1999/xlink" x="0px" y="0px"
	 viewBox="0 0 256 300" style="enable-background:new 0 0 256 300;" xml:space="preserve">
<style type="text/css">
	.st0{fill:#FFFFFF;}
	.st1{fill:#242526;}
	.st2{enable-background:new    ;}
	.st3{fill:#0D1117;}
	.st4{fill:#FB5857;}
	.st5{fill:none;}
	.st6{fill:#EE7878;}
	.st7{fill:#B23434;stroke:#000000;stroke-linecap:round;stroke-opacity:0.3;}
	.st8{fill:#15172E;}
	.st9{fill:#CCCCCC;}
	.st10{fill:#B23434;}
</style>
<g>
	<path class="st0" d="M27.5,162.6h201c15.2,0,27.5,12.3,27.5,27.5v82.4c0,15.2-12.3,27.5-27.5,27.5h-201C12.3,300,0,287.7,0,272.5
		v-82.4C0,174.9,12.3,162.6,27.5,162.6z"/>
	<path class="st1" d="M60,0h136c33.1,0,60,26.9,60,60v136c0,33.1-26.9,60-60,60H60c-33.1,0-60-26.9-60-60V60C0,26.9,26.8,0,60,0z"/>
	<g class="st2">
		<path class="st3" d="M24.4,268.9c0.1,0.2,0.2,0.4,0.2,0.6v3.6c0,0.2-0.1,0.5-0.2,0.6c-0.1,0.2-0.3,0.3-0.5,0.3h-4.5v17.3
			c0,0.2-0.1,0.5-0.2,0.6c-0.1,0.2-0.3,0.3-0.5,0.3h-3.3c-0.2,0-0.3-0.1-0.5-0.3c-0.1-0.2-0.2-0.4-0.2-0.6V274h-4.5
			c-0.2,0-0.3-0.1-0.5-0.3c-0.1-0.2-0.2-0.4-0.2-0.6v-3.6c0-0.2,0.1-0.5,0.2-0.6c0.1-0.2,0.3-0.3,0.5-0.3h13.6
			C24.1,268.6,24.3,268.7,24.4,268.9z"/>
		<path class="st3" d="M32.3,286.8h8c0.2,0,0.3,0.1,0.5,0.3c0.1,0.2,0.2,0.4,0.2,0.6v3.6c0,0.2-0.1,0.5-0.2,0.6
			c-0.1,0.2-0.3,0.3-0.5,0.3h-12c-0.2,0-0.3-0.1-0.5-0.3c-0.1-0.2-0.2-0.4-0.2-0.6v-21.8c0-0.2,0.1-0.5,0.2-0.6
			c0.1-0.2,0.3-0.3,0.5-0.3h11.8c0.2,0,0.3,0.1,0.5,0.3c0.1,0.2,0.2,0.4,0.2,0.6v3.6c0,0.2-0.1,0.5-0.2,0.6
			c-0.1,0.2-0.3,0.3-0.5,0.3h-7.8v3.6h7.2c0.2,0,0.3,0.1,0.5,0.3s0.2,0.4,0.2,0.6v3.6c0,0.2-0.1,0.5-0.2,0.6s-0.3,0.3-0.5,0.3h-7.2
			V286.8z"/>
		<path class="st3" d="M58.4,275.5c-0.1,0.1-0.2,0.2-0.4,0.2h-3.3c-0.2,0-0.4,0-0.6-0.1c-0.1-0.1-0.3-0.2-0.5-0.4
			c0,0-0.1-0.2-0.3-0.5s-0.5-0.5-0.9-0.7s-0.9-0.3-1.4-0.3c-0.7,0-1.3,0.1-1.8,0.4s-0.7,0.7-0.7,1.3c0,0.4,0.1,0.8,0.4,1.1
			c0.3,0.3,0.7,0.5,1.3,0.7s1.6,0.5,3.1,0.9c1.9,0.5,3.3,1.3,4.2,2.4s1.3,2.7,1.3,4.7c0,1.5-0.3,2.8-1,3.9s-1.6,2-2.8,2.6
			s-2.5,0.9-4,0.9s-2.8-0.3-4-1s-2.1-1.6-2.8-2.6c-0.7-1.1-1-2.2-1.1-3.3c0-0.2,0.1-0.4,0.2-0.5c0.1-0.1,0.2-0.2,0.4-0.2H47
			c0.4,0,0.7,0.2,1,0.5c0.1,0.1,0.2,0.3,0.4,0.6c0.2,0.3,0.6,0.6,1,0.9s1,0.4,1.6,0.4c2.1,0,3.1-0.6,3.1-1.8c0-0.4-0.1-0.7-0.4-1
			c-0.3-0.3-0.7-0.5-1.3-0.7c-0.5-0.2-1.4-0.4-2.6-0.8l-1.1-0.3c-1.7-0.5-3-1.3-3.8-2.5s-1.2-2.7-1.2-4.6c0-1.3,0.3-2.5,0.9-3.6
			c0.6-1.1,1.4-2,2.5-2.7s2.3-1,3.8-1c1.4,0,2.6,0.3,3.7,1s2,1.5,2.7,2.6c0.6,1,1,2,1,3C58.6,275.1,58.5,275.3,58.4,275.5z"/>
		<path class="st3" d="M75.9,268.9c0.1,0.2,0.2,0.4,0.2,0.6v3.6c0,0.2-0.1,0.5-0.2,0.6c-0.1,0.2-0.3,0.3-0.5,0.3H71v17.3
			c0,0.2-0.1,0.5-0.2,0.6c-0.1,0.2-0.3,0.3-0.5,0.3H67c-0.2,0-0.3-0.1-0.5-0.3c-0.1-0.2-0.2-0.4-0.2-0.6V274h-4.5
			c-0.2,0-0.3-0.1-0.5-0.3c-0.1-0.2-0.2-0.4-0.2-0.6v-3.6c0-0.2,0.1-0.5,0.2-0.6c0.1-0.2,0.3-0.3,0.5-0.3h13.6
			C75.6,268.6,75.8,268.7,75.9,268.9z"/>
		<path class="st3" d="M79.4,292c-0.1-0.2-0.2-0.4-0.2-0.6v-21.8c0-0.2,0.1-0.5,0.2-0.6c0.1-0.2,0.3-0.3,0.5-0.3h3.3
			c0.2,0,0.3,0.1,0.5,0.3s0.2,0.4,0.2,0.6v21.8c0,0.2-0.1,0.5-0.2,0.6s-0.3,0.3-0.5,0.3h-3.3C79.7,292.2,79.5,292.1,79.4,292z"/>
		<path class="st3" d="M99.1,292c-0.2-0.2-0.3-0.3-0.4-0.5L92.9,280v11.4c0,0.2-0.1,0.5-0.2,0.6s-0.3,0.3-0.5,0.3h-3.3
			c-0.2,0-0.3-0.1-0.5-0.3c-0.1-0.2-0.2-0.4-0.2-0.6v-21.8c0-0.2,0.1-0.5,0.2-0.6c0.1-0.2,0.3-0.3,0.5-0.3h2.6
			c0.3,0,0.5,0.1,0.7,0.3c0.2,0.2,0.3,0.3,0.4,0.5l5.8,11.5v-11.4c0-0.2,0.1-0.5,0.2-0.6c0.1-0.2,0.3-0.3,0.5-0.3h3.3
			c0.2,0,0.3,0.1,0.5,0.3c0.1,0.2,0.2,0.4,0.2,0.6v21.8c0,0.2-0.1,0.5-0.2,0.6c-0.1,0.2-0.3,0.3-0.5,0.3h-2.6
			C99.5,292.2,99.3,292.1,99.1,292z"/>
		<path class="st3" d="M111.4,280.2c0,1.4,0,2.4,0.1,3.1c0.1,1.1,0.4,2.1,0.9,2.8c0.5,0.7,1.3,1.1,2.3,1.1s1.7-0.3,2.3-0.9
			c0.6-0.6,0.9-1.5,0.9-2.8h-2.1c-0.2,0-0.3-0.1-0.5-0.3c-0.1-0.2-0.2-0.4-0.2-0.6V279c0-0.2,0.1-0.5,0.2-0.6
			c0.1-0.2,0.3-0.3,0.5-0.3h6.1c0.2,0,0.3,0.1,0.5,0.3s0.2,0.4,0.2,0.6v4.3c0,1.9-0.3,3.5-1,4.9s-1.6,2.5-2.8,3.2
			c-1.2,0.8-2.5,1.1-4,1.1c-1.6,0-2.9-0.4-4.1-1.2c-1.2-0.8-2.1-1.9-2.7-3.3s-1-2.9-1.1-4.6c0-1.1-0.1-2-0.1-2.7
			c0-0.8,0-1.9,0.1-3.3c0.1-1.7,0.4-3.2,1-4.6s1.5-2.5,2.7-3.3s2.5-1.2,4.1-1.2c1.5,0,2.8,0.4,4,1.1s2.1,1.7,2.7,2.8
			c0.6,1.1,1,2.2,1.1,3.3c0,0.2,0,0.4-0.2,0.5c-0.1,0.1-0.3,0.2-0.4,0.2h-3.4c-0.2,0-0.4-0.1-0.5-0.2s-0.3-0.4-0.5-0.7
			c-0.3-0.5-0.7-0.9-1.1-1.2c-0.4-0.3-1-0.4-1.7-0.4c-1.9,0-3,1.3-3.2,3.9C111.4,278.1,111.4,279,111.4,280.2z"/>
		<path class="st3" d="M145.2,287.1c0.1,0.2,0.2,0.4,0.2,0.6v3.6c0,0.2-0.1,0.5-0.2,0.6c-0.1,0.2-0.3,0.3-0.5,0.3H133
			c-0.2,0-0.3-0.1-0.5-0.3s-0.2-0.4-0.2-0.6v-21.8c0-0.2,0.1-0.5,0.2-0.6s0.3-0.3,0.5-0.3h3.3c0.2,0,0.3,0.1,0.5,0.3
			c0.1,0.2,0.2,0.4,0.2,0.6v17.3h7.7C144.9,286.8,145.1,286.9,145.2,287.1z"/>
		<path class="st3" d="M148.6,292c-0.1-0.2-0.2-0.4-0.2-0.6v-21.8c0-0.2,0.1-0.5,0.2-0.6s0.3-0.3,0.5-0.3h3.3c0.2,0,0.3,0.1,0.5,0.3
			c0.1,0.2,0.2,0.4,0.2,0.6v21.8c0,0.2-0.1,0.5-0.2,0.6c-0.1,0.2-0.3,0.3-0.5,0.3h-3.3C148.9,292.2,148.7,292.1,148.6,292z"/>
		<path class="st3" d="M157.6,292c-0.1-0.2-0.2-0.4-0.2-0.6v-21.8c0-0.2,0.1-0.5,0.2-0.6s0.3-0.3,0.5-0.3h8.2c1.4,0,2.6,0.3,3.5,1
			s1.5,1.5,1.9,2.6c0.4,1,0.6,2.2,0.6,3.4c0,1.1-0.1,2-0.4,2.7c-0.3,0.7-0.6,1.2-1,1.6c0.6,0.6,1.1,1.3,1.4,2.1
			c0.3,0.8,0.4,1.8,0.4,2.9c0,2.1-0.5,3.8-1.4,5.2c-0.9,1.4-2.4,2.1-4.4,2.1h-8.7C157.9,292.2,157.7,292.1,157.6,292z M162.1,273.9
			v3.8h3.9c0.5,0,0.9-0.2,1.2-0.5s0.4-0.8,0.4-1.4s-0.1-1.1-0.4-1.4s-0.6-0.5-1.2-0.5H162.1z M166.3,287c0.5,0,0.9-0.2,1.2-0.6
			s0.5-0.9,0.5-1.5s-0.2-1.1-0.5-1.5s-0.7-0.6-1.2-0.6h-4.2v4.1h4.2V287z"/>
		<path class="st3" d="M188.9,270.6c1.2,1.3,1.9,3.2,1.9,5.8c0,3.3-1,5.5-3,6.7l3.1,8c0.1,0.1,0.1,0.3,0.1,0.4
			c0,0.2-0.1,0.4-0.2,0.5c-0.1,0.1-0.2,0.2-0.4,0.2H187c-0.3,0-0.5-0.1-0.7-0.3c-0.2-0.2-0.3-0.4-0.4-0.7l-2.8-7.2h-2.3v7.2
			c0,0.2-0.1,0.5-0.2,0.6c-0.1,0.2-0.3,0.3-0.5,0.3h-3.3c-0.2,0-0.3-0.1-0.5-0.3s-0.2-0.4-0.2-0.6v-21.8c0-0.2,0.1-0.5,0.2-0.6
			s0.3-0.3,0.5-0.3h6.9C185.9,268.6,187.7,269.3,188.9,270.6z M183.7,278.8c1.6,0,2.5-0.8,2.5-2.5s-0.8-2.5-2.5-2.5h-2.9v5H183.7z"
			/>
		<path class="st3" d="M210.5,291c0.1,0.2,0.1,0.4,0.1,0.5c0,0.2-0.1,0.4-0.2,0.5c-0.1,0.1-0.2,0.2-0.4,0.2h-3.2
			c-0.3,0-0.5-0.1-0.7-0.3c-0.2-0.2-0.3-0.4-0.3-0.6l-0.7-2.8h-6.7l-0.7,2.8c-0.1,0.2-0.2,0.4-0.3,0.6c-0.2,0.2-0.4,0.3-0.7,0.3
			h-3.2c-0.2,0-0.3-0.1-0.4-0.2c-0.1-0.1-0.2-0.3-0.2-0.5c0-0.1,0-0.3,0.1-0.5l5.5-21.2c0.1-0.3,0.2-0.6,0.4-0.8
			c0.2-0.2,0.4-0.3,0.7-0.3h4.1c0.3,0,0.5,0.1,0.7,0.3c0.2,0.2,0.3,0.5,0.4,0.8L210.5,291z M203.9,283.4l-2.1-8.1l-2.1,8.1H203.9z"
			/>
		<path class="st3" d="M225.6,270.6c1.2,1.3,1.9,3.2,1.9,5.8c0,3.3-1,5.5-3,6.7l3.1,8c0.1,0.1,0.1,0.3,0.1,0.4
			c0,0.2-0.1,0.4-0.2,0.5c-0.1,0.1-0.2,0.2-0.4,0.2h-3.4c-0.3,0-0.5-0.1-0.7-0.3c-0.2-0.2-0.3-0.4-0.4-0.7l-2.8-7.2h-2.3v7.2
			c0,0.2-0.1,0.5-0.2,0.6c-0.1,0.2-0.3,0.3-0.5,0.3h-3.3c-0.2,0-0.3-0.1-0.5-0.3s-0.2-0.4-0.2-0.6v-21.8c0-0.2,0.1-0.5,0.2-0.6
			s0.3-0.3,0.5-0.3h6.9C222.6,268.6,224.4,269.3,225.6,270.6z M220.3,278.8c1.6,0,2.5-0.8,2.5-2.5s-0.8-2.5-2.5-2.5h-2.9v5H220.3z"
			/>
		<path class="st3" d="M239.5,292c-0.1,0.2-0.3,0.3-0.5,0.3h-3.3c-0.2,0-0.3-0.1-0.5-0.3c-0.1-0.2-0.2-0.4-0.2-0.6v-7.2l-5.9-14.3
			c-0.1-0.2-0.1-0.3-0.1-0.4c0-0.2,0.1-0.4,0.2-0.5c0.1-0.1,0.2-0.2,0.4-0.2h3.5c0.3,0,0.5,0.1,0.7,0.3c0.2,0.2,0.3,0.4,0.4,0.6
			l3.2,8.3l3.2-8.3c0.1-0.2,0.2-0.4,0.4-0.6s0.4-0.3,0.7-0.3h3.5c0.2,0,0.3,0.1,0.4,0.2c0.1,0.1,0.2,0.3,0.2,0.5
			c0,0.1,0,0.3-0.1,0.4l-5.9,14.3v7.2C239.7,291.6,239.7,291.8,239.5,292z"/>
	</g>
	<g>
		<path class="st4" d="M97.1,91c-16.9-27.8-2-67.1,30-68.7c32,1.6,46.8,40.9,30,68.7c5.4,7.4,3.5,19.5-4.9,24.4
			c4.9,6.5,8.5,9.8,14.6,12.4c2.9,1.2,6.1,1.5,9.1,0.6c5.3-1.6,9.6-5.4,11.9-10.5c2.6-6.4,3-11.1,2.7-18.3c-0.1-1.9-0.5-3.8-1.2-5.6
			c-3.1-7-7.7-13-15.3-22.9c-2.2-2.4-3.9-5.1-5-8.2c-1.9-6.2,1-14.5,7.3-15.8c1.8-0.4,3.7-0.2,6.2,0.3c3.1,1.1,4.9,2,6.1,3.9
			c1.1,1.6,0,3.6-1.7,2.6l-1.1-0.7c-0.7-0.4-1.5-0.6-2.3-0.6c-1.1,0-1.9,0.1-2.6,0.4c-1.6,0.6-2.9,1.8-3.6,3.4
			c-1,2.3,0.5,4.8,2.3,6.6c6.4,6.5,12.5,13.4,18.1,20.6c6.1,8.6,8.3,14.3,9.1,23.5c0.2,2.2,0.1,4.5-0.2,6.7
			c-0.8,5.8-3.2,11.2-6.9,15.6c-4.8,5.4-10.2,10.2-16.1,14.3c5.2,2.2,8,2.2,13,1.5c8.4-0.8,11.6-2.9,17.6-6.4
			c4.5-3.1,6.3-5.5,9.6-9.9c2.1-2.6,3.3-5.8,3.7-9.1c0.5-4.9,0.6-7.3-0.2-12.1c1.6,1.2,2.8,3,3.4,4.9c1.6,4.2,2,6.5,2,10.6
			c-0.2,6.1-0.8,9.7-2.6,14.6c-0.5,1.4-1.2,2.8-2,4.1c-2.7,5-6.6,9.3-11.3,12.6c-3.8,2.1-7.8,3.7-12,5c-3.3,0.8-5.1,1-8.1,1
			c9,3.6,12.9,6.8,18.1,14c3.4,5.7,4.2,9.5,4.2,17c-0.5,3.2-1.1,6.3-2.1,9.4c-1.4,5.9-5.4,10.9-10.9,13.6c-2.4,1.2-5.1,1.8-7.8,1.8
			c-1.4,0-2.8-0.6-3.8-1.7c-0.1-0.1-0.1-0.2,0-0.2c1.5-1.5,3.6-2.5,5.7-2.6c3.8-0.5,5-2.8,7.1-5.8c4-7,3.1-11,2.4-18.2
			c-1.9-4.6-3.6-7.4-7.8-10c-2.6-1.5-5.5-2.1-8.4-1.9c-12.8,0.5-21,0-34.4-4.2c-0.2,8.7-1,13.2-5.1,19.9c-3.6,5-5.5,8.5-6.5,13.2
			c-0.9,3.8-0.3,7.9,1.7,11.3c2.7,4.2,7.7,6.4,12.6,5.3c5.2-1.1,9.5-4.7,11.4-9.6c1.1-3,1.5-6.2,1.2-9.4c1.4,2.7,2.4,4.5,3,6.8
			c0.5,1.7,0.7,3.4,0.7,5.1c0.1,3.1-0.9,6.2-2.7,8.7c-3.6,4.5-5.9,6.4-11.3,7.2c-2.6,0.5-4.6,0.7-6.4,0.7c-5.1,0-10.4-1-14-4.4
			c-0.7-0.7-1.5-1.5-2.3-2.5c-3.6-3.6-5-6.2-5.9-12.3c-0.2-4.3-0.1-7.5,0.2-10.8c0.6-6.3,3.2-12.2,4.5-18.4c0.2-1.2,0.5-2.5,0.7-4
			c1-3.4,1-7,0-10.3c-1.5-3.5-3.2-4.7-6.6-6.6c-4.4-1.4-9.1-1.4-13.5,0c-3.4,1.9-5.1,3.2-6.6,6.6c-1,3.4-1,7,0,10.3
			c0.2,1.5,0.4,2.8,0.7,4c1.3,6.2,3.9,12.1,4.5,18.4c0.3,3.3,0.4,6.5,0.2,10.8c-0.9,6.1-2.3,8.7-5.9,12.3c-0.8,1-1.6,1.8-2.3,2.5
			c-3.7,3.4-9,4.5-14,4.4c-2.2-0.1-4.3-0.3-6.4-0.7c-5.3-0.7-7.7-2.6-11.3-7.1c-1.9-2.5-2.8-5.6-2.7-8.7c0-1.7,0.2-3.5,0.7-5.1
			c0.7-2.4,1.6-4.2,3-6.8c-0.3,3.2,0.1,6.4,1.2,9.4c1.9,4.9,6.2,8.5,11.4,9.6c1,0.2,1.9,0.3,2.8,0.3c4-0.1,7.6-2.2,9.8-5.6
			c2-3.4,2.6-7.4,1.7-11.3c-1-4.7-3-8.2-6.6-13.2c-4.2-6.7-4.9-11.3-5.1-19.9c-13.4,4.2-21.7,4.7-34.4,4.2c-2.9-0.2-5.9,0.4-8.5,1.9
			c-2.2,1.3-4,3-5.4,5.1c-1.8,3.1-2.8,6.6-2.9,10.2c-0.5,4.5,0.6,9,3,12.9c2.2,3.1,3.3,5.3,7.1,5.9c2.1,0.3,4.3,1,5.7,2.6
			c0,0.1,0,0.2,0,0.3c-1,1-2.4,1.7-3.8,1.7c-2.9,0-4.9-0.5-7.8-1.8c-3.5-1.8-6.5-4.5-8.5-7.9c-1-1.8-1.8-3.7-2.4-5.7
			c-0.7-2.5-1.3-4.8-2.1-9.3c0-7.5,0.7-11.3,4.2-17c5.2-7.2,9.1-10.4,18.1-14c-3,0-4.7-0.1-8-1c-4.2-1.2-8.2-2.8-12-4.9
			c-4.7-3.3-8.5-7.6-11.3-12.6c-0.8-1.3-1.5-2.7-2-4.1c-1.8-5-2.4-8.5-2.6-14.6c0-4,0.4-6.4,2-10.6c0.7-2.3,1.6-3.3,3.4-5
			c-0.9,4.8-0.8,7.2-0.2,12.1c0.4,4,1.5,5.9,3.7,9.1c3.2,4.4,5.1,6.7,9.5,9.9c6,3.5,9.3,5.6,17.6,6.4c5,0.7,7.7,0.7,12.9-1.5
			c-6-4.1-11.4-8.9-16.1-14.3c-3.7-4.5-6.1-9.9-6.9-15.6c-0.3-2.2-0.4-4.5-0.2-6.7c0.7-9.2,3-14.9,9.1-23.5
			c6.6-8.4,11-13.4,18.1-20.6c1.7-1.8,3.3-4.3,2.3-6.6c-0.7-1.6-2-2.8-3.6-3.4c-0.7-0.2-1.5-0.4-2.6-0.4c-0.8,0-1.6,0.2-2.3,0.6
			c-0.3,0.2-0.7,0.4-1.1,0.7c-1.6,1-2.7-0.9-1.6-2.6c1.3-1.9,3-2.8,6.1-3.9c2.5-0.5,4.5-0.7,6.2-0.3c6.3,1.2,9.2,9.6,7.3,15.8
			c-0.7,2.4-2.2,5-5,8.2C72.6,81,68.1,87,65,94c-0.8,1.8-1.2,3.7-1.2,5.6c-0.3,7.1,0.1,11.9,2.7,18.3c2.3,5,6.6,8.9,11.9,10.5
			c3,0.9,6.2,0.7,9-0.5c6.2-2.6,9.8-5.9,14.6-12.4C93.7,110.5,91.7,98.4,97.1,91z"/>
		<path class="st5" d="M127.1,21.1c16.4,0.9,28.7,11.5,34.4,25.3c5.7,13.7,5.1,30.6-3,44.6c2.8,4,3.4,8.6,2.5,13.4s-3.3,8.6-7,11.3
			c4.4,5.7,7.4,8.4,13.3,10.9c2.7,1.2,5.5,1.4,8.2,0.5c5.1-1.5,9-5,11.1-9.8c2.5-6.2,2.9-10.7,2.6-17.8c0-1.8-0.4-3.5-1.1-5.1
			c-3-6.9-7.5-12.7-15.1-22.6c-2.3-2.5-4.1-5.5-5.2-8.6c-1-3.3-0.7-7.4,0.6-10.6c1.4-3.2,4.1-6,7.6-6.8c1.9-0.4,4.2-0.2,6.7,0.3h0.1
			h0.1c3.2,1.1,5.3,2.3,6.8,4.4c0.6,1.2,0.7,2.8,0.2,3.6c-0.3,0.5-1,1-1.5,1.1s-1.4-0.1-2-0.4l-1.1-0.7c-0.5-0.3-1-0.4-1.7-0.4
			c-1,0-1.6,0.1-2.2,0.3c-1.4,0.5-2.3,1.4-2.9,2.7c-0.4,0.8-0.3,1.5,0.1,2.5c0.4,1,1.1,1.9,1.9,2.7c6.5,6.5,12.6,13.5,18.2,20.8
			c6.2,8.7,8.5,14.7,9.3,24.1c0.2,2.3,0.1,4.7-0.3,7c-0.8,5.9-3.4,11.7-7.2,16.3c-4.8,5.5-9.2,9.3-14.5,13.2
			c3.7,1.3,5.4,1.3,10.2,0.6c8.1-0.7,11.1-2.8,17.1-6.2c4.3-3,6-5.2,9.2-9.6c2-2.5,3.1-5.3,3.4-8.5c0.5-4.9,0.7-7.1-0.2-11.7
			l-0.6-3.3l2.6,2c1.8,1.4,3.1,3.4,3.8,5.5c1.6,4.3,2,6.9,2.1,11.1c-0.3,6.2-0.9,9.9-2.7,15c-0.6,1.5-1.3,3-2.1,4.3
			c-2.8,5.1-6.9,9.6-11.7,12.9H217h-0.1c-3.9,2.1-8,3.8-12.3,5.1c-3.4,0.9-2.3,0.5-3.3,0.7c6.1,3.1,8.7,5.1,14,12.5
			c3.5,5.9,4.4,10,4.4,17.6v0.1v0.1c-0.5,3.2-1.2,6.4-2.1,9.5c-1.6,6.2-5.9,11.5-11.5,14.3c-2.6,1.2-5.5,1.9-8.4,1.9
			c-1.7-0.1-3.5-0.9-4.7-2l-0.1-0.1l0,0c-0.1-0.2-0.3-0.7-0.3-0.9s0.2-0.7,0.3-0.9l0,0l0.1-0.1c1.7-1.7,4.1-2.8,6.5-3
			c3.3-0.2,4-2.2,6.2-5.3c3.9-6.5,3-10.1,2.3-17.3c-1.8-4.4-3.2-6.8-7.2-9.2c-2.4-1.4-5-2-7.8-1.7c-12.8,0.5-20.7,0.1-33.3-3.7
			c-0.3,7.8-1.1,12.1-5.3,19c-3.5,5-5.4,8.3-6.3,12.8c-0.9,3.6-0.4,7.2,1.5,10.4c1.2,2,2.8,3.3,4.9,4.1c2,0.9,4.1,1.1,6.4,0.6
			c4.9-1,8.7-4.2,10.5-8.8c1.1-2.9,1.4-5.8,1.2-8.8l-0.6-6.1l2.9,5.4c1.4,2.7,2.4,4.6,3.1,7.1c0.5,1.8,0.7,3.7,0.7,5.5
			c0.1,3.3-1,6.8-3,9.5c-3.7,4.6-6.4,6.7-12,7.6c-2.6,0.5-4.7,0.7-6.6,0.7c-5.2,0-10.9-1.2-14.9-4.8c-0.8-0.7-1.5-1.5-2.4-2.6
			c-3.6-3.7-5.2-6.6-6.2-12.9v-0.1v-0.1c-0.2-4.3-0.1-7.6,0.2-11c0.7-6.5,3.3-12.5,4.6-18.5c0.2-1.2,0.5-2.5,0.7-3.9V178v-0.1
			c1-3.2,1-6.4,0-9.6c-1.3-3.2-2.7-4.1-5.9-5.9c-4.1-1.3-8.3-1.3-12.5,0c-3.2,1.8-4.6,2.8-5.9,5.9c-1,3.2-1,6.4,0,9.6v0.1v0.1
			c0.2,1.5,0.4,2.7,0.6,3.9c1.3,6.1,3.9,12.1,4.5,18.5c0.4,3.3,0.4,6.7,0.2,11v0.1v0.1c-1,6.3-2.6,9.3-6.2,13
			c-0.9,1-1.6,1.8-2.4,2.5c-4,3.6-9.7,4.8-14.9,4.7c-2.2-0.1-4.5-0.3-6.6-0.8c-5.7-0.8-8.4-3-12-7.6c-2-2.7-3-6.1-3-9.5
			c0-1.8,0.2-3.7,0.7-5.5c0.7-2.5,1.7-4.4,3.1-7.1l2.9-5.2l-0.5,5.9c-0.3,3,0.1,5.9,1.2,8.8c1.8,4.7,5.6,7.9,10.5,8.9
			c0.9,0.2,1.6,0.3,2.5,0.3c3.7-0.1,6.8-1.8,8.7-5c1.9-3.2,2.5-6.8,1.6-10.4c-1-4.5-2.8-7.8-6.4-12.8c-4.2-6.9-4.9-11.2-5.3-18.9
			c-12.7,3.8-20.5,4.3-33.3,3.7c-2.8-0.3-5.3,0.3-7.7,1.7c-2.1,1.2-3.7,2.7-5,4.7c-1.7,2.9-2.6,6.2-2.7,9.6
			c-0.5,4.3,0.5,8.4,2.8,12.1c2.2,3.1,2.9,5.2,6.2,5.3c2.2,0.3,4.8,1.2,6.5,3l0.1,0.1v0.1c0.1,0.2,0.2,0.6,0.2,0.8s-0.1,0.6-0.2,0.8
			v0.1l-0.1,0.1c-1.2,1.1-3,2-4.7,2c-3,0-5.3-0.6-8.3-1.9c-3.7-1.9-6.9-4.9-9-8.4c-1.1-1.9-1.9-3.9-2.5-6c-0.7-2.5-1.4-4.9-2.1-9.5
			v-0.1v-0.1c0-7.6,0.9-11.8,4.4-17.7c5.3-7.3,7.9-9.4,14-12.4c-1-0.2,0.1,0.2-3.3-0.7c-4.2-1.2-8.4-2.9-12.3-5h-0.1h-0.1
			c-4.8-3.3-8.8-7.8-11.6-12.9c-0.8-1.4-1.6-2.8-2.1-4.3c-1.8-5.1-2.4-8.8-2.7-15c0-4.1,0.4-6.7,2.1-11c0.8-2.5,1.8-3.7,3.8-5.5
			l2.7-2.4l-0.7,3.6c-0.9,4.6-0.8,6.9-0.2,11.7c0.3,3.7,1.3,5.4,3.4,8.5c3.2,4.3,4.9,6.5,9.2,9.5c6,3.5,9,5.5,17.1,6.2
			c4.9,0.7,6.5,0.7,10.2-0.6c-5.3-3.8-9.7-7.7-14.5-13.2c-3.8-4.6-6.3-10.3-7.2-16.2c-0.4-2.3-0.4-4.7-0.3-7
			c0.8-9.4,3.2-15.4,9.3-24.2c6.7-8.4,11-13.4,18.2-20.7c0.8-0.8,1.5-1.7,1.9-2.7s0.6-1.7,0.1-2.5c-0.6-1.4-1.5-2.2-2.9-2.8
			c-0.7-0.2-1.2-0.3-2.3-0.3c-0.6,0-1.2,0.1-1.7,0.4c-0.3,0.1-0.6,0.4-1,0.6c-0.6,0.3-1.5,0.5-2,0.4c-0.6-0.1-1.3-0.6-1.5-1.1
			c-0.5-0.8-0.4-2.4,0.2-3.6c1.5-2.1,3.5-3.2,6.7-4.4h0.1h0.1c2.5-0.5,4.8-0.7,6.7-0.3c3.5,0.8,6.3,3.5,7.6,6.8
			c1.4,3.2,1.6,7.3,0.6,10.6c-0.8,2.6-2.4,5.3-5.2,8.6c-7.6,9.9-12.1,15.8-15.1,22.6c-0.7,1.7-1.1,3.4-1.1,5.2
			c-0.3,7,0.1,11.5,2.6,17.7c2.1,4.8,6.1,8.3,11.1,9.8c2.7,0.9,5.5,0.7,8.2-0.5c6-2.5,9-5.3,13.3-10.9c-3.7-2.8-6.1-6.6-7-11.4
			s0-9.5,2.5-13.4c-8.1-14.1-8.7-30.9-3-44.6C98.4,32.6,110.8,22,127.1,21.1z M95,47.3c-5.5,13.3-5.1,29.5,3.2,43.1l0.4,0.7
			l-0.5,0.7c-2.6,3.4-3.3,7.8-2.5,12.2c0.8,4.3,3.1,8.2,7,10.5l1.2,0.7l-0.8,1.1c-4.9,6.5-8.8,10-15.1,12.8c-3,1.3-6.7,1.5-9.9,0.6
			c-5.5-1.8-10.2-5.9-12.6-11.1c-2.6-6.6-3.1-11.6-2.8-18.8c0.1-2,0.5-4.2,1.3-6.1c3.2-7.1,7.8-13.2,15.4-23.2
			c2.7-3.1,4.1-5.5,4.8-7.8c0.9-2.9,0.7-6.1-0.5-8.9s-3-4.9-5.8-5.3c-1.5-0.4-3.2-0.2-5.6,0.3c-3,1-4.4,1.7-5.4,3.4
			c-0.4,0.5-0.3,0.6-0.2,0.9c0,0,0,0,0,0.1c0,0,0-0.1,0.1-0.2c0.4-0.2,0.8-0.5,1.2-0.8c0.8-0.5,1.9-0.7,2.9-0.7c1.3,0,2.2,0.2,3,0.5
			c1.8,0.8,3.5,2.3,4.3,4.1c0.6,1.5,0.5,3.2-0.1,4.5c-0.5,1.3-1.5,2.5-2.4,3.5c-7.1,7.2-11.4,12.1-18,20.5c-6,8.5-8.1,13.8-8.8,22.9
			c-0.2,2.2-0.1,4.2,0.2,6.4c0.7,5.6,3,10.7,6.6,15c4.7,5.4,10,10.1,15.9,14.1l1.9,1.3l-2.1,0.9c-5.4,2.2-8.5,2.3-13.6,1.6
			c-8.6-0.9-12.1-3.1-18.1-6.6c-4.6-3.2-6.7-5.8-9.9-10.2c-2.2-3.2-3.4-5.5-3.9-9.7c-0.5-4.9-0.5-5.5-0.3-8.1
			c-0.1,0.3,0.2-0.9-0.4,1.2c-1.6,4.1-1.9,6.2-1.9,10.2c0.2,6,0.8,9.4,2.5,14.2c0.5,1.4,1.1,2.7,1.9,3.9c2.6,4.9,6.3,9,10.9,12.2
			c3.7,2,7.6,3.6,11.7,4.8c3.2,0.8,4.8,1,7.7,0.9l6.6-0.1l-6.2,2.4c-8.8,3.5-12.4,6.5-17.5,13.6c-3.3,5.5-4,8.8-4,16.2
			c0.7,4.4,1.3,6.6,2,9.1c0.5,1.9,1.3,3.7,2.3,5.4c1.9,3.3,4.6,5.7,8,7.4c2.8,1.2,4.5,1.7,7.3,1.7c0.8,0,1.5-0.2,2.1-0.6
			c-1.1-0.9-2.6-1.3-4.2-1.5c-4.3-0.9-5.8-3.4-8-6.4c-2.5-4-3.7-9-3.2-13.7c0.1-3.7,1.2-7.5,3.1-10.7c1.5-2.2,3.6-4.2,5.8-5.6
			c2.7-1.5,6-2.3,9.2-2c12.7,0.5,20.7,0.1,34-4.1l1.6-0.5v1.6c0.2,8.6,0.8,12.8,4.9,19.3c3.6,5.1,5.7,8.8,6.7,13.6
			c0.9,4.1,0.2,8.6-1.9,12.2c-2.3,3.6-6.5,6-10.8,6.2c-1,0-2-0.1-3.1-0.3c-5.4-1.2-10.1-5.2-12.3-10.4c-1.1-3.1-1.5-1.5-1.2-4.8
			c-0.3,0.7-0.1-0.1-0.8,2.2c-0.5,1.6-0.7,3.1-0.6,4.7c-0.1,2.9,0.7,5.7,2.5,8c3.5,4.4,5.4,6.1,10.4,6.7c2.1,0.4,4.2,0.7,6.3,0.7
			c4.9,0.1,9.8-0.8,13.1-4.1c0.7-0.7,1.4-1.4,2.2-2.4c3.4-3.4,4.7-5.7,5.6-11.6c0.2-4.2,0.1-7.3-0.2-10.5c-0.6-6.1-3.1-12-4.5-18.3
			c-0.3-1.2-0.5-2.5-0.7-4.1c-1-3.5-1-7.4,0-11v-0.1v-0.1c1.7-3.7,3.7-5.3,7.1-7.2l0.1-0.1h0.1c4.6-1.4,9.7-1.4,14.2,0h0.1l0.1,0.1
			c3.4,2,5.4,3.5,7.1,7.2v0.1v0.1c1,3.6,1.1,7.4,0,11c-0.2,1.5-0.4,2.8-0.7,4c-1.4,6.3-3.9,12.2-4.5,18.3c-0.3,3.2-0.4,6.4-0.2,10.6
			c0.9,5.9,2.1,8.1,5.5,11.5c0.8,1,1.6,1.8,2.3,2.4c3.3,3.3,8.2,4.2,13.2,4.1c1.8,0,3.7-0.2,6.2-0.7c5-0.6,7-2.3,10.5-6.7
			c1.8-2.3,2.6-5,2.5-7.9c0-1.7-0.1-3.3-0.6-4.8c-0.7-2.2-0.5-1.5-0.8-2.2c-0.2,1.6,0,1.7-1.2,4.8c-2.1,5.2-6.9,9.2-12.3,10.4
			c-2.6,0.5-5.5,0.2-7.9-0.8s-4.5-2.9-6-5.1c-2.1-3.6-2.8-8.2-1.8-12.2c1.1-4.8,3.1-8.5,6.7-13.6c4.1-6.4,4.7-10.7,4.9-19.3v-1.6
			l1.6,0.5c13.2,4.2,21.3,4.6,34,4.1c3.1-0.2,6.4,0.5,9.1,2c4.4,2.8,6.4,5.9,8.3,10.6l0.1,0.2v0.2c0.7,7.1,1.5,11.5-2.6,19
			c-2.1,3-3.7,5.6-8,6.5c-1.6,0.1-3,0.6-4.2,1.5c0.6,0.4,1.3,0.6,2.1,0.6c2.6,0,5-0.5,7.3-1.7c5.3-2.5,8.9-7.1,10.2-12.8
			c0.9-3,1.6-6.1,2-9.2c0-7.3-0.7-10.7-4-16.2c-5.1-7.1-8.6-10.1-17.5-13.6l-6.2-2.4l6.6,0.1c2.9,0,4.5-0.1,7.7-0.9
			c4.1-1.2,7.9-2.8,11.7-4.8c4.6-3.2,8.2-7.2,10.9-12.1c0.8-1.3,1.4-2.6,1.9-4c1.8-4.8,2.3-8.2,2.6-14.2c0-3.9-0.3-6-1.9-10.1
			c-0.2-0.8-0.1-0.9,0.1-0.9c-0.1-0.1-0.3-0.2-0.5-0.4c0.2,2.6,0.2,3.1-0.3,8.1c-0.4,3.5-1.8,7-3.9,9.7c-3.2,4.4-5.2,6.9-9.8,10.1
			c-6,3.4-9.5,5.7-18.2,6.6c-5,0.7-8.1,0.7-13.6-1.6l-2.1-0.9l1.9-1.3c5.9-4,11.2-8.7,15.9-14.1c3.6-4.3,5.9-9.4,6.6-15
			c0.4-2.1,0.4-4.3,0.2-6.4c-0.7-9-2.8-14.4-8.8-22.8c-5.6-7.2-11.5-14-18-20.5c-0.9-1-1.9-2.2-2.4-3.5s-0.7-3-0.1-4.5
			c0.9-1.7,2.5-3.3,4.3-4.1c0.8-0.3,1.8-0.5,3.1-0.5c1,0,2,0.3,2.9,0.7l1.2,0.7c0.1,0.1,0.1,0.1,0.1,0.2c0,0,0,0,0-0.1
			c0.2-0.3,0.3-0.5-0.2-0.9c-1.1-1.7-2.4-2.3-5.4-3.4c-2.3-0.5-4-0.7-5.6-0.3c-2.8,0.5-4.7,2.5-5.9,5.3s-1.5,6-0.5,8.9
			c1,2.9,2.6,5.5,4.7,7.7c7.6,10,12.3,16.2,15.5,23.3c0.8,1.9,1.3,4,1.3,6.1c0.3,7.2-0.2,12.2-2.8,18.8c-2.4,5.2-7.2,9.4-12.7,11.2
			c-3.2,0.9-6.8,0.7-9.9-0.6c-6.3-2.7-10.2-6.2-15.1-12.8l-0.8-1.1l1.2-0.7c4-2.3,6.2-6.1,7-10.4s0.1-8.7-2.5-12.2l-0.5-0.7l0.4-0.7
			c8.4-13.6,8.8-29.8,3.3-43.1s-16.6-23.1-32.2-23.7C111.5,24.2,100.5,34.1,95,47.3L95,47.3z"/>
		<path class="st6" d="M135.9,154.9c3,1,5.6,2.8,7.7,5.1l0.2,0.3c1.8,2.2,3,4.8,3.4,7.6c0.5,5.7,0.3,8.7-1.5,13.8
			c-1.5,5.5-2.4,8.4-3.9,13.3c-1.1,6.6-1.6,10.3-1,17l0.3,2.3c0.9,5.6,5.7,9.7,11.4,10.6c2.4,0.4,4.9,1,7.3,1.3
			c4.5,0.5,8.9-1.6,11.4-5.4c0.7-1.2,1.3-2.4,1.7-3.6c1-2.4,1.6-5,1.5-7.7c-0.1-2.3-0.5-4.3-1-7.1c2.1,3.9,3.1,6.1,3.4,9.6
			c0.5,2.2,0.6,4.8-0.5,7.9c-1,2.6-2.7,4.9-4.9,6.7c-2.4,2-3.9,3-8.3,3.7l-8.8,0.7c-4.5,0-6.9-0.6-10.3-3.5c-3.4-2.1-6-5.2-7.6-8.9
			c-1-2.5-1.4-3.9-2-6.7c-0.5-5-0.4-7.8,0.5-13.3l3.2-11.8l2.2-10.6c0.3-3.4,0.4-5.3-1-9.1c-1.2-2.4-2.3-3.7-6.1-5.6
			c-1.2-0.5-5.6-1.5-6.6-1.2v0.2c-1-0.2-5.1,0.5-6.4,1c-3.8,2-5,3.2-6.1,5.7c-1.2,2.9-1.5,6-1,9.1l2.2,10.6l3.2,11.8
			c0.9,5.4,1,8.3,0.5,13.3c-0.6,2.8-1,4.2-2,6.7c-1.5,3.7-4.2,6.8-7.6,8.9c-3.4,2.9-5.8,3.4-10.3,3.5l-8.8-0.7
			c-4.4-0.7-5.9-1.7-8.3-3.7c-2.2-1.8-3.9-4-4.9-6.6c-0.9-2.5-1.1-5.3-0.5-7.9c0.4-3.5,1.3-5.7,3.4-9.6c-0.5,2.3-0.9,4.7-1.1,7.1
			c-0.1,2.6,0.6,5.2,1.6,7.7c0.6,1.5,1.1,2.6,1.7,3.6c2.5,3.8,6.9,5.8,11.3,5.4c2.4-0.3,4.9-0.9,7.3-1.3c5.6-0.9,10.5-5,11.3-10.6
			c0.1-0.7,0.2-1.5,0.3-2.3c0.6-6.7,0.1-10.4-1-17c-1.6-4.9-2.4-7.8-3.9-13.3c-1.8-5.1-2-8.1-1.5-13.8c0.4-2.8,1.6-5.5,3.4-7.6
			l0.2-0.3c2.1-2.3,4.8-4.1,7.7-5.1c3.2-1,5.4-1.1,8.9-1C130.2,153.8,132.6,153.9,135.9,154.9z M95.6,160.2c0.1,3.8,0,7.6-0.2,11.3
			c-4.2,1.8-6.7,1.9-11.5,2.9c-8.7,1.4-13.2,1.5-20.8,1.2c-3-0.3-6,0-8.8,1c-2.5,1.1-4.6,2.8-6.3,4.9l-0.8,1.2
			c-1.7,3-2.7,6.4-2.8,9.9v0.4c-0.2,3.3,0,4.8,0.5,7.4c0.7,1.9,1.1,2.9,2.2,4.7l2.5,3.7c1.7,1.6,2.7,2.2,4.9,2.7H55
			c1.7,0.1,3.4,0.7,4.6,2l0.7,0.7c-4.3,1-8.8-0.4-11.8-3.7l-0.9-1c-3.7-2.8-6.4-6.8-7.6-11.3c-2-5.4-1.8-8.5,0-14.3
			c1-3.9,3.4-7.4,6.6-9.9c1.6-1.4,3-2.6,4.6-3.6c5.6-3.6,12.4-4.6,19-5.2l3-0.2C80.9,164.7,89.1,164.6,95.6,160.2z M158.3,160.2
			c6.5,4.3,14.7,4.5,22.5,5l3,0.2c6.6,0.6,13.4,1.6,19,5.2c1.6,1.1,3.2,2.3,4.6,3.6c3.3,2.4,5.6,5.9,6.6,9.9c1.8,5.8,2,8.9,0,14.3
			c-1.2,4.5-3.9,8.5-7.6,11.3l-0.9,1c-2.9,3.2-7.6,4.7-11.8,3.7l0.7-0.7c1.2-1.2,2.9-1.9,4.6-2h0.5c2.2-0.5,3.2-1.2,4.9-2.7l2.5-3.7
			c1.1-1.8,1.4-2.8,2.2-4.7c0.5-2.6,0.7-4.1,0.5-7.4v-0.4c-0.1-3.5-1.1-6.9-2.8-9.9l-0.8-1.2c-1.7-2.1-3.9-3.8-6.4-4.9
			c-2.8-1-5.8-1.3-8.8-1c-7.6,0.3-12.1,0.1-20.8-1.2c-4.8-1.1-7.3-1.2-11.5-2.9C158.4,171.4,158.2,163.8,158.3,160.2L158.3,160.2z
			 M31.8,137.6c1.5,2.3,3.1,4.6,4.9,6.7c5.5,4.9,8.8,7.4,16.4,9.1c6.5,1.7,10.2,2.2,17.1,1.5c7.2-1.8,11-3,16.6-6.7
			c3-1.6,5.6-3.9,7.6-6.6l0.9-0.9c1.5-1.5,4-3.6,4.5-1.5c0.7,5.7-2.7,11.3-7.6,14.4c-0.7,0.4-1.5,0.9-2.4,1.4
			c-4.9,2.1-7.3,3.2-12.7,3.7l-4,0.7c-6.3,1-12.7,1.2-18.8,3l3.9-1.7c-4.2,0.1-6.6-0.6-10.7-1.7c-3.9-1.7-6.3-2.4-10.8-5.2
			c-3-2.4-5.7-5.2-7.8-8.4l-3.9-6.9c-1.3-3.2-1.8-5-2.2-8.4c-0.3-3.5-0.4-5.4-0.5-8.9l0.1-1.6c0.3-2.4,1.3-4.7,2.1-7
			c0.7-1.5,1.7-3.4,3.2-4.7c-0.5,2-0.8,4-1,6l-0.2,3C26,124.1,27.9,131.3,31.8,137.6z M228.9,116.5c-0.1-1-0.1-2-0.2-3
			c-0.2-2-0.5-4-1-6c1.5,1.2,2.5,3.2,3.2,4.7c0.7,2.3,1.7,4.6,2,7l0.2,1.6c0,3-0.2,5.9-0.5,8.9c-0.4,3.4-0.9,5.2-2.2,8.4l-3.9,6.9
			c-2.2,3.2-4.8,6-7.8,8.3c-4.5,2.8-6.9,3.5-10.8,5.2c-4.1,1.1-6.6,1.9-10.8,1.7l3.9,1.7c-6.1-1.9-12.5-2-18.8-3l-3.9-0.7
			c-5.4-0.5-7.8-1.6-12.7-3.7c-0.9-0.5-1.7-0.9-2.4-1.4c-4.9-3.1-8.3-8.7-7.6-14.4c0.5-2.1,3,0,4.5,1.5l0.9,0.9c2,2.7,4.6,5,7.6,6.6
			c5.6,3.6,9.4,4.9,16.6,6.7c6.9,0.7,10.6,0.2,17.1-1.5c7.6-1.8,10.9-4.2,16.4-9.1c1.8-2.1,3.4-4.3,4.9-6.7
			C227.4,131.1,229.3,123.8,228.9,116.5z M72.6,52.7l-1.1-0.1c-1.8,0-3.5,2.2-5.2,1.5c0-2.1,1.7-3.9,3.7-4.6c1-0.4,2.1-0.4,3.6-0.3
			c4.2,0,8.8,1.7,9.4,5.9c0.6,3.7-0.4,7.5-2.7,10.3L68,79.7c-4.1,6.3-7.2,13.2-9.3,20.5c-1.3,6.2-1.4,9.5,0.5,15
			c1.7,4.8,3,7.1,5.9,10.6c2.5,2.9,5.2,5.6,8,8.1c4.4,3.7,3.9,10.7-1.9,9.9l-3.7-2.7c-3.1-2.3-6.1-4.9-8.8-7.6
			c-4.2-4.4-6.6-7.4-8.8-13c-1-2.5-2.4-6.7-2-11.3c0-2.9,0.2-4.6,0.7-7.6v-0.1c0.6-2.7,1-4.3,2.2-7.1c1.7-3.9,2.9-5.7,5.3-9.4
			c0.7-1.2,5.1-6.8,8.8-11.1l5.9-6.4l4.9-5.2l0.6-0.8c1-1.6,1.6-3.7,0.7-5.4C76.2,54.3,74.5,53.1,72.6,52.7z M178.2,56.3
			c-0.8,1.7-0.3,3.8,0.7,5.4c0.2,0.3,0.4,0.6,0.6,0.8l4.9,5.2l5.9,6.4c3.7,4.3,8,9.9,8.8,11.1c2.1,2.9,3.9,6.1,5.4,9.4
			c1,2.3,1.8,4.7,2.2,7.1l0,0c0.5,3,0.7,4.7,0.7,7.6c0.4,4.7-1,8.9-2,11.3c-2.2,5.6-4.6,8.6-8.8,13c-2.7,2.8-5.7,5.3-8.8,7.6
			l-3.7,2.7c-5.8,0.8-6.3-6.1-1.9-9.9c2.9-2.5,5.5-5.2,8-8.1c2.6-3.1,4.6-6.7,5.9-10.6c1.9-5.5,1.8-8.9,0.5-15
			c-2.1-7.2-5.2-14.1-9.3-20.5l-12.2-14.3c-1.9-2.4-3-5.3-2.9-8.4l0.2-2c0.6-4.1,5.1-5.9,9.4-5.9c1.2-0.2,2.5-0.1,3.6,0.3
			c2,0.7,3.7,2.5,3.7,4.6c-1.7,0.8-3.4-1.4-5.2-1.4c-0.4,0-0.8,0-1.1,0.1C180.9,53.4,179.2,54.6,178.2,56.3z"/>
		<path class="st7" d="M120.1,111.5V132 M128.5,109v24.6 M135.8,111v21.7"/>
		<path class="st8" d="M155.4,102.4c0,4.8-2.8,8.6-6.4,8.6c-3.5,0-6.4-3.9-6.4-8.6c0-4.8,2.8-8.6,6.4-8.6
			C152.5,93.7,155.4,97.6,155.4,102.4z M112.8,102.4c0,4.8-2.8,8.6-6.4,8.6c-3.5,0-6.4-3.9-6.4-8.6c0-4.8,2.8-8.6,6.4-8.6
			C109.9,93.7,112.8,97.6,112.8,102.4z"/>
		<path class="st9" d="M107.4,98.4c0,1.2-1,2.2-2.2,2.2s-2.2-1-2.2-2.2s1-2.2,2.2-2.2C106.4,96.2,107.4,97.2,107.4,98.4z M150,98.4
			c0,1.2-1,2.2-2.2,2.2s-2.2-1-2.2-2.2s1-2.2,2.2-2.2C149,96.2,150,97.2,150,98.4z"/>
		<path class="st10" d="M135.8,51.1c0,3.1-2.5,5.7-5.6,5.7c-3.1,0-5.6-2.5-5.6-5.7s2.5-5.7,5.6-5.7C133.3,45.4,135.8,48,135.8,51.1z
			 M118.6,56.5c0,1.8-1.4,3.2-3.2,3.2s-3.2-1.4-3.2-3.2s1.4-3.2,3.2-3.2S118.6,54.8,118.6,56.5z M127,70.3c0,2.6-2.1,4.7-4.7,4.7
			s-4.7-2.1-4.7-4.7s2.1-4.7,4.7-4.7C124.9,65.6,127,67.7,127,70.3z M108.9,64.9c0,1-0.8,1.7-1.7,1.7s-1.7-0.8-1.7-1.7
			c0-1,0.8-1.7,1.7-1.7S108.9,64,108.9,64.9z M124.5,37.6c0,1.6-1.3,2.9-2.9,2.9s-2.9-1.3-2.9-2.9s1.3-2.9,2.9-2.9
			C123.2,34.6,124.5,35.9,124.5,37.6z M112.8,45.2c0,1.5-1.2,2.7-2.7,2.7s-2.7-1.2-2.7-2.7s1.2-2.7,2.7-2.7S112.8,43.7,112.8,45.2z"
			/>
	</g>
</g>
</svg>
