<?xml version="1.0" encoding="utf-8"?>
<!-- Generator: Adobe Illustrator 24.3.0, SVG Export Plug-In . SVG Version: 6.00 Build 0)  -->
<svg version="1.1" id="Layer_1" xmlns="http://www.w3.org/2000/svg" xmlns:xlink="http://www.w3.org/1999/xlink" x="0px" y="0px"
	 viewBox="0 0 256 300" style="enable-background:new 0 0 256 300;" xml:space="preserve">
<style type="text/css">
	.st0{fill:#FFFFFF;}
	.st1{fill:#242938;}
	.st2{fill:#231F20;}
	.st3{fill:#41B883;}
</style>
<path class="st0" d="M27.5,162.6h201c15.2,0,27.5,12.3,27.5,27.5v82.4c0,15.2-12.3,27.5-27.5,27.5h-201C12.3,300,0,287.7,0,272.5
	v-82.4C0,174.9,12.3,162.6,27.5,162.6z"/>
<path class="st1" d="M60,0h136c33.1,0,60,26.9,60,60v136c0,33.1-26.9,60-60,60H60c-33.1,0-60-26.9-60-60V60C0,26.9,26.8,0,60,0z"/>
<g>
	<path class="st2" d="M73.7,291L67,268.5c-0.1-0.2-0.1-0.4-0.1-0.5c0-0.2,0.1-0.4,0.2-0.6c0.1-0.2,0.3-0.2,0.5-0.2h4.2
		c0.4,0,0.7,0.1,0.9,0.3c0.2,0.2,0.3,0.4,0.4,0.6l4.6,15.8l4.6-15.8c0.1-0.2,0.2-0.5,0.4-0.6c0.2-0.2,0.5-0.3,0.9-0.3h4.2
		c0.2,0,0.4,0.1,0.5,0.2c0.1,0.2,0.2,0.3,0.2,0.6c0,0.1,0,0.3-0.1,0.5L81.7,291c-0.3,1-0.9,1.4-1.8,1.4h-4.4
		C74.6,292.5,74.1,292,73.7,291z"/>
	<path class="st2" d="M111.3,267.6c0.2,0.2,0.3,0.4,0.3,0.7v14.4c0,2.2-0.4,4-1.3,5.5c-0.8,1.5-2,2.7-3.5,3.5
		c-1.5,0.8-3.3,1.2-5.3,1.2c-2,0-3.8-0.4-5.3-1.2c-1.5-0.8-2.7-2-3.5-3.5c-0.8-1.5-1.2-3.4-1.2-5.5v-14.4c0-0.3,0.1-0.5,0.3-0.7
		c0.2-0.2,0.4-0.3,0.6-0.3h4.4c0.2,0,0.5,0.1,0.6,0.3c0.2,0.2,0.3,0.4,0.3,0.7v14.2c0,1.5,0.3,2.6,1,3.4c0.7,0.8,1.7,1.2,2.9,1.2
		c1.3,0,2.3-0.4,2.9-1.2c0.7-0.8,1-1.9,1-3.4v-14.2c0-0.3,0.1-0.5,0.3-0.7c0.2-0.2,0.4-0.3,0.6-0.3h4.4
		C111,267.3,111.2,267.4,111.3,267.6z"/>
	<path class="st2" d="M122.2,286.7h10.5c0.2,0,0.5,0.1,0.6,0.3c0.2,0.2,0.3,0.4,0.3,0.7v3.8c0,0.3-0.1,0.5-0.3,0.7
		c-0.2,0.2-0.4,0.3-0.6,0.3h-15.8c-0.2,0-0.5-0.1-0.6-0.3c-0.2-0.2-0.3-0.4-0.3-0.7v-23.3c0-0.3,0.1-0.5,0.3-0.7
		c0.2-0.2,0.4-0.3,0.6-0.3h15.5c0.2,0,0.5,0.1,0.6,0.3c0.2,0.2,0.3,0.4,0.3,0.7v3.8c0,0.3-0.1,0.5-0.3,0.7s-0.4,0.3-0.6,0.3h-10.2
		v3.9h9.5c0.2,0,0.5,0.1,0.6,0.3c0.2,0.2,0.3,0.4,0.3,0.7v3.8c0,0.3-0.1,0.5-0.3,0.7c-0.2,0.2-0.4,0.3-0.6,0.3h-9.5V286.7z"/>
	<path class="st2" d="M142.7,292.2c-0.2,0.2-0.4,0.3-0.6,0.3h-4.4c-0.2,0-0.5-0.1-0.6-0.3c-0.2-0.2-0.3-0.4-0.3-0.7v-4.7
		c0-0.3,0.1-0.5,0.3-0.7c0.2-0.2,0.4-0.3,0.6-0.3h4.4c0.2,0,0.5,0.1,0.6,0.3c0.2,0.2,0.3,0.4,0.3,0.7v4.7
		C143,291.8,142.9,292,142.7,292.2z"/>
	<path class="st2" d="M164,288.5c-0.9,1.4-2.1,2.5-3.6,3.2c-1.5,0.7-3.2,1.1-5,1.1c-1.9,0-3.6-0.3-5.1-1c-1.5-0.7-2.7-1.7-3.5-3
		c-0.9-1.3-1.3-2.8-1.3-4.5c0-0.2,0.1-0.4,0.2-0.6c0.1-0.2,0.3-0.2,0.5-0.2h4.3c0.4,0,0.7,0.1,0.8,0.2c0.1,0.1,0.3,0.4,0.4,0.8
		c0.3,0.8,0.7,1.5,1.3,1.9c0.6,0.4,1.4,0.6,2.4,0.6c1.2,0,2.2-0.3,2.8-1c0.6-0.7,1-1.7,1-3v-10h-11.4c-0.2,0-0.5-0.1-0.6-0.3
		s-0.3-0.4-0.3-0.7v-3.8c0-0.3,0.1-0.5,0.3-0.7c0.2-0.2,0.4-0.3,0.6-0.3h16.6c0.2,0,0.5,0.1,0.6,0.3c0.2,0.2,0.3,0.4,0.3,0.7v15
		C165.3,285.3,164.9,287.1,164,288.5z"/>
	<path class="st2" d="M188,274.6c-0.1,0.2-0.3,0.2-0.5,0.2h-4.4c-0.3,0-0.6,0-0.7-0.1c-0.2-0.1-0.4-0.2-0.6-0.5c0,0-0.2-0.2-0.4-0.5
		c-0.2-0.3-0.6-0.5-1.1-0.7c-0.5-0.2-1.1-0.3-1.8-0.3c-1,0-1.7,0.1-2.3,0.4c-0.6,0.3-0.9,0.8-0.9,1.4c0,0.5,0.2,0.9,0.6,1.1
		c0.4,0.3,1,0.5,1.7,0.7c0.8,0.2,2.2,0.5,4.1,1c2.5,0.6,4.3,1.4,5.5,2.6c1.2,1.2,1.8,2.9,1.8,5c0,1.6-0.4,3-1.3,4.2
		c-0.9,1.2-2.1,2.1-3.7,2.7s-3.3,1-5.3,1c-1.9,0-3.6-0.4-5.2-1.1c-1.6-0.7-2.8-1.7-3.7-2.8c-0.9-1.2-1.4-2.3-1.4-3.6
		c0-0.2,0.1-0.4,0.2-0.6c0.1-0.2,0.3-0.2,0.5-0.2h4.4c0.5,0,0.9,0.2,1.3,0.5c0.1,0.1,0.2,0.3,0.5,0.6c0.3,0.3,0.7,0.7,1.3,0.9
		c0.6,0.3,1.3,0.4,2.1,0.4c2.8,0,4.1-0.6,4.1-1.9c0-0.4-0.2-0.8-0.6-1c-0.4-0.3-0.9-0.5-1.6-0.7c-0.7-0.2-1.8-0.5-3.4-0.8l-1.5-0.3
		c-2.3-0.5-3.9-1.4-5-2.6c-1.1-1.2-1.6-2.9-1.6-5c0-1.4,0.4-2.7,1.2-3.9c0.8-1.2,1.9-2.1,3.3-2.8s3.1-1.1,4.9-1.1
		c1.8,0,3.4,0.4,4.9,1.1c1.5,0.7,2.7,1.7,3.5,2.8c0.9,1.1,1.3,2.2,1.3,3.2C188.2,274.2,188.1,274.4,188,274.6z"/>
</g>
<path class="st3" d="M182,49.7h36L128,205L38,49.7h35.6h33.3l21.2,36l20.7-36H182z"/>
<path class="st3" d="M38,49.7L128,205l90-155.2h-36l-54,93.1L73.6,49.7H38z"/>
<path class="st0" d="M73.8,49.7l54.5,93.6l54-93.6h-33.3l-20.7,36l-21.2-36H73.8z"/>
</svg>
