<?xml version="1.0" encoding="utf-8"?>
<!-- Generator: Adobe Illustrator 24.3.0, SVG Export Plug-In . SVG Version: 6.00 Build 0)  -->
<svg version="1.1" id="Layer_1" xmlns="http://www.w3.org/2000/svg" xmlns:xlink="http://www.w3.org/1999/xlink" x="0px" y="0px"
	 viewBox="0 0 256 300" style="enable-background:new 0 0 256 300;" xml:space="preserve">
<style type="text/css">
	.st0{fill:#FFFFFF;}
	.st1{fill:#242938;}
	.st2{fill:#231F20;}
	.st3{fill:#FCC72B;}
	.st4{fill:#729B1B;}
	.st5{fill:#729B1B;fill-opacity:0.5;}
</style>
<path class="st0" d="M27.5,162.6h201c15.2,0,27.5,12.3,27.5,27.5v82.4c0,15.2-12.3,27.5-27.5,27.5h-201C12.3,300,0,287.7,0,272.5
	v-82.4C0,174.9,12.3,162.6,27.5,162.6z"/>
<path class="st1" d="M60,0h136c33.1,0,60,26.9,60,60v136c0,33.1-26.9,60-60,60H60c-33.1,0-60-26.9-60-60V60C0,26.9,26.8,0,60,0z"/>
<g>
	<path class="st2" d="M76.2,291l-6.8-22.5c-0.1-0.2-0.1-0.4-0.1-0.5c0-0.2,0.1-0.4,0.2-0.6c0.1-0.2,0.3-0.2,0.5-0.2h4.2
		c0.4,0,0.7,0.1,0.9,0.3c0.2,0.2,0.3,0.4,0.4,0.6l4.6,15.8l4.6-15.8c0.1-0.2,0.2-0.5,0.4-0.6c0.2-0.2,0.5-0.3,0.9-0.3h4.2
		c0.2,0,0.4,0.1,0.5,0.2c0.1,0.2,0.2,0.3,0.2,0.6c0,0.1,0,0.3-0.1,0.5L84.2,291c-0.3,1-0.9,1.4-1.8,1.4H78
		C77.1,292.5,76.6,292,76.2,291z"/>
	<path class="st2" d="M94.4,292.2c-0.2-0.2-0.3-0.4-0.3-0.7v-23.3c0-0.3,0.1-0.5,0.3-0.7c0.2-0.2,0.4-0.3,0.6-0.3h4.4
		c0.2,0,0.5,0.1,0.6,0.3c0.2,0.2,0.3,0.4,0.3,0.7v23.3c0,0.3-0.1,0.5-0.3,0.7c-0.2,0.2-0.4,0.3-0.6,0.3H95
		C94.8,292.5,94.6,292.4,94.4,292.2z"/>
	<path class="st2" d="M122.7,267.6c0.2,0.2,0.3,0.4,0.3,0.7v3.8c0,0.3-0.1,0.5-0.3,0.7c-0.2,0.2-0.4,0.3-0.6,0.3h-5.9v18.5
		c0,0.3-0.1,0.5-0.3,0.7c-0.2,0.2-0.4,0.3-0.6,0.3h-4.4c-0.2,0-0.5-0.1-0.6-0.3c-0.2-0.2-0.3-0.4-0.3-0.7V273h-5.9
		c-0.2,0-0.5-0.1-0.6-0.3c-0.2-0.2-0.3-0.4-0.3-0.7v-3.8c0-0.3,0.1-0.5,0.3-0.7c0.2-0.2,0.4-0.3,0.6-0.3H122
		C122.3,267.3,122.5,267.4,122.7,267.6z"/>
	<path class="st2" d="M132.1,286.7h10.5c0.2,0,0.5,0.1,0.6,0.3c0.2,0.2,0.3,0.4,0.3,0.7v3.8c0,0.3-0.1,0.5-0.3,0.7
		c-0.2,0.2-0.4,0.3-0.6,0.3h-15.8c-0.2,0-0.5-0.1-0.6-0.3c-0.2-0.2-0.3-0.4-0.3-0.7v-23.3c0-0.3,0.1-0.5,0.3-0.7
		c0.2-0.2,0.4-0.3,0.6-0.3h15.5c0.2,0,0.5,0.1,0.6,0.3c0.2,0.2,0.3,0.4,0.3,0.7v3.8c0,0.3-0.1,0.5-0.3,0.7s-0.4,0.3-0.6,0.3h-10.2
		v3.9h9.5c0.2,0,0.5,0.1,0.6,0.3c0.2,0.2,0.3,0.4,0.3,0.7v3.8c0,0.3-0.1,0.5-0.3,0.7c-0.2,0.2-0.4,0.3-0.6,0.3h-9.5V286.7z"/>
	<path class="st2" d="M165.3,274.6c-0.1,0.2-0.3,0.2-0.5,0.2h-4.4c-0.3,0-0.6,0-0.7-0.1c-0.2-0.1-0.4-0.2-0.6-0.5
		c0,0-0.2-0.2-0.4-0.5c-0.2-0.3-0.6-0.5-1.1-0.7c-0.5-0.2-1.1-0.3-1.8-0.3c-1,0-1.7,0.1-2.3,0.4c-0.6,0.3-0.9,0.8-0.9,1.4
		c0,0.5,0.2,0.9,0.6,1.1c0.4,0.3,1,0.5,1.7,0.7c0.8,0.2,2.2,0.5,4.1,1c2.5,0.6,4.3,1.4,5.5,2.6c1.2,1.2,1.8,2.9,1.8,5
		c0,1.6-0.4,3-1.3,4.2c-0.9,1.2-2.1,2.1-3.7,2.7s-3.3,1-5.3,1c-1.9,0-3.6-0.4-5.2-1.1c-1.6-0.7-2.8-1.7-3.7-2.8
		c-0.9-1.2-1.4-2.3-1.4-3.6c0-0.2,0.1-0.4,0.2-0.6c0.1-0.2,0.3-0.2,0.5-0.2h4.4c0.5,0,0.9,0.2,1.3,0.5c0.1,0.1,0.2,0.3,0.5,0.6
		c0.3,0.3,0.7,0.7,1.3,0.9c0.6,0.3,1.3,0.4,2.1,0.4c2.8,0,4.1-0.6,4.1-1.9c0-0.4-0.2-0.8-0.6-1c-0.4-0.3-0.9-0.5-1.6-0.7
		c-0.7-0.2-1.8-0.5-3.4-0.8l-1.5-0.3c-2.3-0.5-3.9-1.4-5-2.6c-1.1-1.2-1.6-2.9-1.6-5c0-1.4,0.4-2.7,1.2-3.9c0.8-1.2,1.9-2.1,3.3-2.8
		s3.1-1.1,4.9-1.1c1.8,0,3.4,0.4,4.9,1.1c1.5,0.7,2.7,1.7,3.5,2.8c0.9,1.1,1.3,2.2,1.3,3.2C165.5,274.2,165.4,274.4,165.3,274.6z"/>
	<path class="st2" d="M186.4,267.6c0.2,0.2,0.3,0.4,0.3,0.7v3.8c0,0.3-0.1,0.5-0.3,0.7s-0.4,0.3-0.6,0.3H180v18.5
		c0,0.3-0.1,0.5-0.3,0.7c-0.2,0.2-0.4,0.3-0.6,0.3h-4.4c-0.2,0-0.5-0.1-0.6-0.3c-0.2-0.2-0.3-0.4-0.3-0.7V273h-5.9
		c-0.2,0-0.5-0.1-0.6-0.3c-0.2-0.2-0.3-0.4-0.3-0.7v-3.8c0-0.3,0.1-0.5,0.3-0.7c0.2-0.2,0.4-0.3,0.6-0.3h17.9
		C186.1,267.3,186.3,267.4,186.4,267.6z"/>
</g>
<path class="st3" d="M181.8,90.2l-51.6,74.6c-0.5,0.8-1.3,1.4-2.3,1.7c-0.9,0.3-1.9,0.3-2.8,0c-0.9-0.3-1.7-0.9-2.2-1.7
	c-0.5-0.8-0.8-1.7-0.8-2.7l2.1-41.2l-33.4-7.1c-0.7-0.2-1.4-0.5-1.9-0.9c-0.6-0.5-1-1.1-1.3-1.7s-0.4-1.4-0.3-2.1
	c0.1-0.7,0.3-1.4,0.8-2l51.6-74.6c0.5-0.8,1.3-1.4,2.3-1.7c0.9-0.3,1.9-0.3,2.8,0c0.9,0.3,1.7,0.9,2.2,1.7c0.5,0.8,0.8,1.7,0.8,2.7
	l-2.1,41.2l33.4,7.1c0.7,0.2,1.4,0.5,1.9,0.9c0.6,0.5,1,1.1,1.3,1.7c0.3,0.7,0.4,1.4,0.3,2.1C182.5,88.9,182.2,89.6,181.8,90.2
	L181.8,90.2z"/>
<path class="st4" d="M127.8,227.5c-1.4,0-2.7-0.3-4-0.8c-1.3-0.5-2.4-1.3-3.4-2.3l-48.8-48.8c-2-2-3-4.6-3-7.4
	c0-2.8,1.1-5.4,3.1-7.4c2-2,4.6-3.1,7.4-3.1c2.8,0,5.4,1.1,7.4,3l41.4,41.4l90.2-90.2c2-1.9,4.6-3,7.4-3c2.8,0,5.4,1.1,7.3,3.1
	c1.9,1.9,3.1,4.6,3.1,7.3c0,2.8-1.1,5.4-3,7.4l-97.6,97.6c-1,1-2.1,1.7-3.4,2.3C130.5,227.2,129.1,227.5,127.8,227.5z"/>
<path class="st5" d="M127.7,227.5c1.4,0,2.7-0.3,4-0.8c1.3-0.5,2.4-1.3,3.4-2.3l48.8-48.8c2-2,3-4.6,3-7.4c0-2.8-1.1-5.4-3.1-7.4
	c-2-2-4.6-3.1-7.4-3.1c-2.8,0-5.4,1.1-7.4,3l-41.4,41.4l-90.2-90.2c-2-1.9-4.6-3-7.4-3c-2.8,0-5.4,1.1-7.3,3.1
	c-1.9,1.9-3.1,4.6-3.1,7.3c0,2.8,1.1,5.4,3,7.4l97.6,97.6c1,1,2.1,1.7,3.4,2.3C125,227.2,126.4,227.5,127.7,227.5z"/>
</svg>
