<?xml version="1.0" encoding="utf-8"?>
<!-- Generator: Adobe Illustrator 24.3.0, SVG Export Plug-In . SVG Version: 6.00 Build 0)  -->
<svg version="1.1" id="Layer_1" xmlns="http://www.w3.org/2000/svg" xmlns:xlink="http://www.w3.org/1999/xlink" x="0px" y="0px"
	 viewBox="0 0 256 300" style="enable-background:new 0 0 256 300;" xml:space="preserve">
<style type="text/css">
	.st0{fill:#FFFFFF;}
	.st1{fill:#231F20;}
	.st2{fill:#242938;}
</style>
<path class="st0" d="M27.5,162.6h201c15.2,0,27.5,12.3,27.5,27.5v82.4c0,15.2-12.3,27.5-27.5,27.5h-201C12.3,300,0,287.7,0,272.5
	v-82.4C0,174.9,12.3,162.6,27.5,162.6z"/>
<g>
	<g>
		<path class="st1" d="M66.6,291.1l-6.5-22.4c-0.1-0.2-0.1-0.4-0.1-0.5c0-0.2,0.1-0.4,0.2-0.6c0.1-0.2,0.3-0.2,0.5-0.2h4
			c0.4,0,0.6,0.1,0.8,0.3s0.3,0.4,0.4,0.6l4.4,15.8l4.4-15.8c0.1-0.2,0.2-0.4,0.4-0.6c0.2-0.2,0.5-0.3,0.8-0.3h4
			c0.2,0,0.4,0.1,0.5,0.2c0.1,0.2,0.2,0.3,0.2,0.6c0,0.1,0,0.3-0.1,0.5l-6.5,22.4c-0.3,1-0.9,1.4-1.7,1.4h-4.2
			C67.4,292.6,66.9,292.1,66.6,291.1z"/>
		<path class="st1" d="M91.5,286.8h10c0.2,0,0.4,0.1,0.6,0.3s0.3,0.4,0.3,0.7v3.8c0,0.3-0.1,0.5-0.3,0.7s-0.4,0.3-0.6,0.3H86.4
			c-0.2,0-0.4-0.1-0.6-0.3c-0.2-0.2-0.3-0.4-0.3-0.7v-23.2c0-0.3,0.1-0.5,0.3-0.7c0.2-0.2,0.4-0.3,0.6-0.3h14.8
			c0.2,0,0.4,0.1,0.6,0.3c0.2,0.2,0.3,0.4,0.3,0.7v3.8c0,0.3-0.1,0.5-0.3,0.7c-0.2,0.2-0.4,0.3-0.6,0.3h-9.8v3.9h9.1
			c0.2,0,0.4,0.1,0.6,0.3s0.3,0.4,0.3,0.7v3.8c0,0.3-0.1,0.5-0.3,0.7s-0.4,0.3-0.6,0.3h-9.1V286.8z"/>
		<path class="st1" d="M124,269.5c1.6,1.4,2.4,3.4,2.4,6.2c0,3.5-1.3,5.9-3.8,7.2l3.9,8.5c0.1,0.1,0.1,0.3,0.1,0.4
			c0,0.2-0.1,0.4-0.2,0.6c-0.1,0.2-0.3,0.2-0.5,0.2h-4.3c-0.4,0-0.7-0.1-0.9-0.3c-0.2-0.2-0.3-0.4-0.5-0.7l-3.5-7.7h-2.9v7.7
			c0,0.3-0.1,0.5-0.3,0.7c-0.2,0.2-0.4,0.3-0.6,0.3h-4.2c-0.2,0-0.4-0.1-0.6-0.3c-0.2-0.2-0.3-0.4-0.3-0.7v-23.2
			c0-0.3,0.1-0.5,0.3-0.7c0.2-0.2,0.4-0.3,0.6-0.3h8.6C120.3,267.4,122.5,268.1,124,269.5z M117.4,278.3c2.1,0,3.1-0.9,3.1-2.7
			s-1-2.7-3.1-2.7h-3.6v5.3H117.4z"/>
		<path class="st1" d="M138.2,286c0.6,0.8,1.6,1.1,2.9,1.1c1.3,0,2.2-0.3,2.8-0.8c0.6-0.5,1-1.2,1.2-2c0.1-0.4,0.3-0.7,0.4-0.8
			s0.4-0.2,0.7-0.2h4.2c0.2,0,0.4,0.1,0.5,0.2c0.1,0.2,0.2,0.3,0.2,0.6c0,1.6-0.5,3.1-1.4,4.4s-2.1,2.4-3.6,3.2
			c-1.5,0.8-3.2,1.2-5,1.2c-2,0-3.7-0.4-5.1-1.3c-1.5-0.9-2.6-2-3.4-3.5s-1.2-3.1-1.3-4.9c0-1.1-0.1-2.1-0.1-2.8
			c0-0.9,0-2.1,0.1-3.6c0.1-1.8,0.5-3.4,1.3-4.9c0.8-1.5,1.9-2.6,3.4-3.5c1.5-0.9,3.2-1.3,5.2-1.3c1.8,0,3.5,0.4,5,1.2
			c1.5,0.8,2.7,1.9,3.6,3.2s1.3,2.8,1.4,4.4c0,0.2-0.1,0.4-0.2,0.6c-0.1,0.2-0.3,0.2-0.5,0.2h-4.2c-0.3,0-0.6-0.1-0.7-0.2
			s-0.3-0.4-0.4-0.8c-0.2-0.8-0.6-1.5-1.2-2c-0.6-0.6-1.5-0.8-2.8-0.8c-1.3,0-2.3,0.4-2.9,1.1c-0.6,0.8-1,1.8-1.1,3
			c0,0.8-0.1,1.8-0.1,3c0,1.1,0,2.2,0.1,3C137.2,284.3,137.5,285.3,138.2,286z"/>
		<path class="st1" d="M162.1,286.8h10c0.2,0,0.4,0.1,0.6,0.3c0.2,0.2,0.3,0.4,0.3,0.7v3.8c0,0.3-0.1,0.5-0.3,0.7
			c-0.2,0.2-0.4,0.3-0.6,0.3h-15.1c-0.2,0-0.4-0.1-0.6-0.3c-0.2-0.2-0.3-0.4-0.3-0.7v-23.2c0-0.3,0.1-0.5,0.3-0.7
			c0.2-0.2,0.4-0.3,0.6-0.3h14.8c0.2,0,0.4,0.1,0.6,0.3s0.3,0.4,0.3,0.7v3.8c0,0.3-0.1,0.5-0.3,0.7s-0.4,0.3-0.6,0.3h-9.8v3.9h9.1
			c0.2,0,0.4,0.1,0.6,0.3c0.2,0.2,0.3,0.4,0.3,0.7v3.8c0,0.3-0.1,0.5-0.3,0.7c-0.2,0.2-0.4,0.3-0.6,0.3h-9.1V286.8z"/>
		<path class="st1" d="M194,287.1c0.2,0.2,0.3,0.4,0.3,0.7v3.8c0,0.3-0.1,0.5-0.3,0.7c-0.2,0.2-0.4,0.3-0.6,0.3h-14.7
			c-0.2,0-0.4-0.1-0.6-0.3c-0.2-0.2-0.3-0.4-0.3-0.7v-23.2c0-0.3,0.1-0.5,0.3-0.7c0.2-0.2,0.4-0.3,0.6-0.3h4.2
			c0.2,0,0.4,0.1,0.6,0.3c0.2,0.2,0.3,0.4,0.3,0.7v18.4h9.7C193.6,286.8,193.8,286.9,194,287.1z"/>
	</g>
</g>
<path class="st2" d="M60,0h136c33.1,0,60,26.9,60,60v136c0,33.1-26.9,60-60,60H60c-33.1,0-60-26.9-60-60V60C0,26.9,26.9,0,60,0z"/>
<path class="st0" d="M128,34l95,164.9H33L128,34z"/>
</svg>
