<?xml version="1.0" encoding="utf-8"?>
<!-- Generator: Adobe Illustrator 24.3.0, SVG Export Plug-In . SVG Version: 6.00 Build 0)  -->
<svg version="1.1" id="Layer_1" xmlns="http://www.w3.org/2000/svg" xmlns:xlink="http://www.w3.org/1999/xlink" x="0px" y="0px"
	 viewBox="0 0 256 300" style="enable-background:new 0 0 256 300;" xml:space="preserve">
<style type="text/css">
	.st0{fill:#FFFFFF;}
	.st1{fill:#0D1117;}
	.st2{fill:#242938;}
	.st3{fill:#2489CA;}
	.st4{fill:#1070B3;}
	.st5{fill:#0877B9;}
	.st6{fill:#3C99D4;}
</style>
<path class="st0" d="M27.5,162.6h201c15.2,0,27.5,12.3,27.5,27.5v82.4c0,15.2-12.3,27.5-27.5,27.5h-201C12.3,300,0,287.7,0,272.5
	v-82.4C0,174.9,12.3,162.6,27.5,162.6z"/>
<path class="st1" d="M58.6,291l-6.3-22.4c-0.1-0.2-0.1-0.4-0.1-0.5c0-0.2,0.1-0.4,0.2-0.6c0.1-0.2,0.3-0.2,0.5-0.2h3.9
	c0.4,0,0.6,0.1,0.8,0.3c0.2,0.2,0.3,0.4,0.4,0.6l4.3,15.7l4.3-15.7c0.1-0.2,0.2-0.4,0.4-0.6c0.2-0.2,0.5-0.3,0.8-0.3h3.9
	c0.2,0,0.3,0.1,0.5,0.2c0.1,0.2,0.2,0.3,0.2,0.6c0,0.1,0,0.3-0.1,0.5L66,291c-0.3,1-0.8,1.4-1.6,1.4h-4.1
	C59.4,292.5,58.9,292,58.6,291z"/>
<path class="st1" d="M94.6,274.7c-0.1,0.2-0.3,0.2-0.5,0.2H90c-0.3,0-0.5,0-0.7-0.1s-0.4-0.2-0.6-0.4c0,0-0.2-0.2-0.4-0.5
	c-0.2-0.3-0.6-0.5-1.1-0.7s-1.1-0.3-1.7-0.3c-0.9,0-1.6,0.1-2.2,0.4s-0.9,0.7-0.9,1.4c0,0.5,0.2,0.9,0.5,1.1
	c0.4,0.3,0.9,0.5,1.6,0.7s2,0.5,3.8,1c2.3,0.5,4.1,1.4,5.2,2.6s1.6,2.8,1.6,5c0,1.6-0.4,3-1.2,4.1c-0.8,1.2-2,2.1-3.4,2.7
	s-3.1,0.9-5,0.9c-1.8,0-3.4-0.4-4.8-1.1s-2.6-1.6-3.4-2.8c-0.8-1.1-1.3-2.3-1.3-3.5c0-0.2,0.1-0.4,0.2-0.6s0.3-0.2,0.4-0.2h4.1
	c0.5,0,0.8,0.2,1.2,0.5c0.1,0.1,0.2,0.3,0.5,0.6s0.7,0.7,1.2,0.9c0.5,0.3,1.2,0.4,1.9,0.4c2.6,0,3.8-0.6,3.8-1.9
	c0-0.4-0.2-0.7-0.5-1c-0.4-0.3-0.9-0.5-1.5-0.7c-0.7-0.2-1.7-0.5-3.2-0.8l-1.4-0.3c-2.1-0.5-3.7-1.4-4.7-2.6s-1.5-2.9-1.5-4.9
	c0-1.4,0.4-2.7,1.1-3.8c0.7-1.2,1.8-2.1,3.1-2.8c1.3-0.7,2.9-1.1,4.6-1.1s3.2,0.4,4.6,1.1s2.5,1.6,3.3,2.7s1.2,2.2,1.3,3.2
	C94.8,274.4,94.8,274.5,94.6,274.7z"/>
<path class="st1" d="M115.9,286c0.6,0.8,1.6,1.1,2.9,1.1c1.2,0,2.1-0.3,2.7-0.8s1-1.2,1.2-2c0.1-0.4,0.2-0.7,0.4-0.8
	c0.1-0.1,0.4-0.2,0.7-0.2h4.1c0.2,0,0.3,0.1,0.5,0.2c0.1,0.2,0.2,0.3,0.2,0.6c0,1.6-0.5,3.1-1.3,4.4c-0.9,1.3-2,2.4-3.5,3.2
	c-1.5,0.8-3.1,1.2-4.9,1.2c-1.9,0-3.6-0.4-5-1.3s-2.5-2-3.3-3.5s-1.2-3.1-1.3-4.9c0-1.1-0.1-2.1-0.1-2.8c0-0.9,0-2.1,0.1-3.5
	c0.1-1.8,0.5-3.4,1.3-4.9s1.9-2.6,3.3-3.5s3.1-1.3,5-1.3c1.8,0,3.4,0.4,4.9,1.2c1.5,0.8,2.6,1.9,3.5,3.2c0.9,1.3,1.3,2.8,1.3,4.4
	c0,0.2-0.1,0.4-0.2,0.6c-0.1,0.2-0.3,0.2-0.5,0.2h-4.1c-0.3,0-0.6-0.1-0.7-0.2s-0.2-0.4-0.4-0.8c-0.2-0.8-0.6-1.5-1.2-2
	s-1.5-0.8-2.7-0.8c-1.3,0-2.3,0.4-2.9,1.1c-0.6,0.8-1,1.8-1,3c0,0.8-0.1,1.8-0.1,3c0,1.1,0,2.1,0.1,3
	C115,284.2,115.3,285.2,115.9,286z"/>
<path class="st1" d="M148.2,268.4c1.4,0.9,2.5,2,3.3,3.5s1.2,3.1,1.3,4.9c0,0.7,0.1,1.7,0.1,3.2s0,2.5-0.1,3.1
	c-0.1,1.8-0.5,3.5-1.3,4.9c-0.8,1.5-1.9,2.6-3.3,3.5c-1.4,0.9-3.1,1.3-5.1,1.3s-3.7-0.4-5.1-1.3c-1.4-0.9-2.5-2-3.3-3.5
	s-1.2-3.1-1.3-4.9c0-1.3-0.1-2.3-0.1-3.1c0-0.8,0-1.9,0.1-3.2c0.1-1.8,0.5-3.5,1.3-4.9c0.8-1.5,1.9-2.6,3.3-3.5
	c1.4-0.9,3.1-1.3,5.1-1.3S146.7,267.5,148.2,268.4z M145.9,274c-0.7-0.8-1.6-1.1-2.8-1.1s-2.2,0.4-2.8,1.1c-0.7,0.8-1,1.8-1.1,3
	c-0.1,0.8-0.1,1.8-0.1,3s0,2.2,0.1,3c0.1,1.3,0.5,2.3,1.1,3c0.7,0.8,1.6,1.1,2.8,1.1s2.2-0.4,2.8-1.1c0.7-0.8,1-1.8,1.1-3
	c0.1-0.9,0.1-1.9,0.1-3c0-1.2,0-2.2-0.1-3C146.9,275.7,146.5,274.7,145.9,274z"/>
<path class="st1" d="M177.7,280c0,0.4,0,1.2-0.1,2.5c-0.1,2-0.5,3.7-1.3,5.2s-1.9,2.7-3.4,3.5c-1.4,0.8-3.1,1.3-5,1.3h-8.4
	c-0.2,0-0.4-0.1-0.6-0.3c-0.2-0.2-0.2-0.4-0.2-0.7v-23.1c0-0.3,0.1-0.5,0.2-0.7c0.2-0.2,0.4-0.3,0.6-0.3h8.2c1.9,0,3.6,0.4,5,1.3
	c1.5,0.8,2.6,2,3.4,3.5c0.8,1.5,1.3,3.2,1.4,5.2C177.7,278.8,177.7,279.5,177.7,280z M164.5,273.2v13.6h3.3c2.6,0,4-1.4,4.1-4.1
	c0-1.4,0.1-2.3,0.1-2.7c0-0.5,0-1.4-0.1-2.6c-0.1-1.4-0.5-2.4-1.2-3.1s-1.7-1-3.1-1L164.5,273.2L164.5,273.2z"/>
<path class="st1" d="M189.3,286.8h9.8c0.2,0,0.4,0.1,0.6,0.3c0.2,0.2,0.2,0.4,0.2,0.7v3.8c0,0.3-0.1,0.5-0.2,0.7
	c-0.2,0.2-0.4,0.3-0.6,0.3h-14.7c-0.2,0-0.4-0.1-0.6-0.3c-0.2-0.2-0.2-0.4-0.2-0.7v-23.1c0-0.3,0.1-0.5,0.2-0.7
	c0.2-0.2,0.4-0.3,0.6-0.3h14.5c0.2,0,0.4,0.1,0.6,0.3c0.2,0.2,0.2,0.4,0.2,0.7v3.8c0,0.3-0.1,0.5-0.2,0.7c-0.2,0.2-0.4,0.3-0.6,0.3
	h-9.6v3.9h8.9c0.2,0,0.4,0.1,0.6,0.3c0.2,0.2,0.2,0.4,0.2,0.7v3.8c0,0.3-0.1,0.5-0.2,0.7c-0.2,0.2-0.4,0.3-0.6,0.3h-8.9V286.8z"/>
<path class="st2" d="M60-0.1h136c33.1,0,60,26.9,60,60v136c0,33.1-26.9,60-60,60H60c-33.1,0-60-26.9-60-60v-136
	C0,26.9,26.9-0.1,60-0.1z"/>
<path class="st3" d="M33.7,100.2c0,0-4.7-3.4,0.9-8l13.3-11.8c0,0,3.8-4,7.8-0.5l122.1,92.5v44.3c0,0-0.1,7-9,6.2L33.7,100.2z"/>
<path class="st4" d="M65.2,128.7l-31.5,28.6c0,0-3.2,2.4,0,6.7l14.6,13.3c0,0,3.5,3.7,8.6-0.5l33.4-25.3L65.2,128.7z"/>
<path class="st5" d="M120.5,128.9l57.7-44.1l-0.4-44.1c0,0-2.5-9.6-10.7-4.6l-76.8,70L120.5,128.9z"/>
<path class="st6" d="M168.9,222.9c3.4,3.4,7.4,2.3,7.4,2.3l45-22.2c5.8-3.9,5-8.8,5-8.8V61.8c0-5.8-6-7.8-6-7.8l-39-18.8
	c-8.5-5.3-14.1,0.9-14.1,0.9s7.2-5.2,10.7,4.6v175.1c0,1.2-0.3,2.4-0.8,3.5c-1,2.1-3.3,4-8.6,3.2L168.9,222.9z"/>
<path class="st2" d="M60,0.4h136c33.1,0,60,26.9,60,60v136c0,33.1-26.9,60-60,60H60c-33.1,0-60-26.9-60-60v-136
	C0,27.4,26.9,0.4,60,0.4z"/>
<path class="st3" d="M33.7,100.7c0,0-4.7-3.4,0.9-8l13.3-11.8c0,0,3.8-4,7.8-0.5l122.1,92.5v44.3c0,0-0.1,7-9,6.2L33.7,100.7z"/>
<path class="st4" d="M65.2,129.2l-31.5,28.6c0,0-3.2,2.4,0,6.7l14.6,13.3c0,0,3.5,3.7,8.6-0.5L90.3,152L65.2,129.2z"/>
<path class="st5" d="M120.5,129.4l57.7-44.1l-0.4-44.1c0,0-2.5-9.6-10.7-4.6l-76.8,69.9L120.5,129.4z"/>
<path class="st6" d="M168.9,223.4c3.4,3.4,7.4,2.3,7.4,2.3l45-22.2c5.8-3.9,5-8.8,5-8.8V62.3c0-5.8-6-7.8-6-7.8l-39-18.8
	c-8.5-5.3-14.1,0.9-14.1,0.9s7.2-5.2,10.7,4.6v175.1c0,1.2-0.3,2.4-0.8,3.5c-1,2.1-3.3,4-8.6,3.2L168.9,223.4z"/>
</svg>
