<svg id="Layer_1" data-name="Layer 1" xmlns="http://www.w3.org/2000/svg" viewBox="0 0 256 300"><defs><style>.cls-1{fill:#fff;}.cls-2{fill:#0d1117;}.cls-3{fill:#242938;}</style></defs><rect class="cls-1" y="162.64" width="256" height="137.36"/><path class="cls-2" d="M68.23,279.73c0,1.48,0,2.57.1,3.26a5.24,5.24,0,0,0,1,3,3.45,3.45,0,0,0,2.86,1.16,4.15,4.15,0,0,0,2.84-.95,3.81,3.81,0,0,0,1.07-3H73.54a.76.76,0,0,1-.59-.28,1,1,0,0,1-.25-.68v-3.8a1,1,0,0,1,.25-.68.76.76,0,0,1,.59-.28h7.51a.74.74,0,0,1,.59.28,1,1,0,0,1,.25.68V283a10.34,10.34,0,0,1-1.27,5.21,8.8,8.8,0,0,1-3.46,3.44,10.07,10.07,0,0,1-4.92,1.2,9.47,9.47,0,0,1-5-1.31,9,9,0,0,1-3.32-3.51,11.35,11.35,0,0,1-1.31-4.88c0-1.15-.06-2.09-.06-2.83s0-2.06.06-3.54a11.1,11.1,0,0,1,1.28-4.89,8.92,8.92,0,0,1,3.33-3.51,9.56,9.56,0,0,1,5-1.3,9.89,9.89,0,0,1,4.89,1.18,9.32,9.32,0,0,1,3.32,3,7.12,7.12,0,0,1,1.29,3.47.69.69,0,0,1-.19.55.66.66,0,0,1-.5.24H76.92a.82.82,0,0,1-.63-.24,5.58,5.58,0,0,1-.61-.73,4.47,4.47,0,0,0-1.32-1.25,4,4,0,0,0-2.12-.47c-2.34,0-3.65,1.39-3.91,4.15A26,26,0,0,0,68.23,279.73Z"/><path class="cls-2" d="M88,292.22a1,1,0,0,1-.25-.68V268.42a1,1,0,0,1,.25-.68.75.75,0,0,1,.59-.29h4.06a.75.75,0,0,1,.59.29,1,1,0,0,1,.25.68v23.12a1,1,0,0,1-.25.68.75.75,0,0,1-.59.29H88.63A.75.75,0,0,1,88,292.22Z"/><path class="cls-2" d="M116.81,267.74a1,1,0,0,1,.25.68v3.79a1,1,0,0,1-.25.68.72.72,0,0,1-.59.29h-5.46v18.36a1,1,0,0,1-.25.68.77.77,0,0,1-.59.29h-4.07a.78.78,0,0,1-.59-.29,1,1,0,0,1-.24-.68V273.18H99.55a.74.74,0,0,1-.59-.29,1,1,0,0,1-.25-.68v-3.79a1,1,0,0,1,.25-.68.77.77,0,0,1,.59-.29h16.67A.75.75,0,0,1,116.81,267.74Z"/><path class="cls-2" d="M140.37,267.74a1,1,0,0,1,.25.68v23.12a1,1,0,0,1-.25.68.77.77,0,0,1-.59.29h-4.07a.78.78,0,0,1-.59-.29,1,1,0,0,1-.24-.68v-8.77H128v8.77a1,1,0,0,1-.25.68.78.78,0,0,1-.59.29h-4.07a.78.78,0,0,1-.59-.27,1,1,0,0,1-.25-.7V268.42a1,1,0,0,1,.25-.68.77.77,0,0,1,.59-.29h4.07a.78.78,0,0,1,.59.29,1,1,0,0,1,.25.68v8.63h6.89v-8.63a1,1,0,0,1,.24-.68.78.78,0,0,1,.59-.29h4.07A.77.77,0,0,1,140.37,267.74Z"/><path class="cls-2" d="M165.76,267.74a1,1,0,0,1,.25.68V282.7a11.83,11.83,0,0,1-1.18,5.51,8.05,8.05,0,0,1-3.31,3.47,10,10,0,0,1-5,1.19,10.08,10.08,0,0,1-5-1.19,8,8,0,0,1-3.29-3.47,12.09,12.09,0,0,1-1.16-5.51V268.42a1,1,0,0,1,.25-.68.75.75,0,0,1,.59-.29H152a.75.75,0,0,1,.59.29,1,1,0,0,1,.25.68v14.14a5.35,5.35,0,0,0,1,3.38,3.74,3.74,0,0,0,5.49,0,5.35,5.35,0,0,0,1-3.38V268.42a1,1,0,0,1,.25-.68.75.75,0,0,1,.59-.29h4.06A.75.75,0,0,1,165.76,267.74Z"/><path class="cls-2" d="M172.78,292.22a1,1,0,0,1-.25-.68V268.42a1,1,0,0,1,.25-.68.75.75,0,0,1,.59-.29h10a7.65,7.65,0,0,1,4.28,1.08,6.21,6.21,0,0,1,2.38,2.74,8.89,8.89,0,0,1,.73,3.63,6.55,6.55,0,0,1-.54,2.88,5.35,5.35,0,0,1-1.2,1.66,5.17,5.17,0,0,1,1.68,2.21,8.49,8.49,0,0,1,.49,3.09,8.78,8.78,0,0,1-1.73,5.55q-1.74,2.22-5.44,2.22H173.37A.75.75,0,0,1,172.78,292.22ZM178.27,273v4.08h4.81a1.79,1.79,0,0,0,1.41-.54A2.1,2.1,0,0,0,185,275a2.14,2.14,0,0,0-.49-1.5,1.79,1.79,0,0,0-1.41-.54Zm5.12,14a1.91,1.91,0,0,0,1.49-.61,2.23,2.23,0,0,0,.56-1.57,2.26,2.26,0,0,0-.56-1.58,1.94,1.94,0,0,0-1.49-.61h-5.12V287Z"/><rect class="cls-3" width="256" height="256" rx="60"/><path class="cls-1" d="M128,30A100,100,0,0,0,96.39,224.89c5,.93,6.83-2.17,6.83-4.81,0-2.38-.09-10.26-.14-18.62-27.82,6-33.69-11.8-33.69-11.8C64.84,178.1,58.29,175,58.29,175,49.22,168.82,59,169,59,169c10,.71,15.33,10.31,15.33,10.31,8.92,15.29,23.4,10.87,29.1,8.31.9-6.46,3.49-10.87,6.35-13.37-22.21-2.53-45.56-11.1-45.56-49.42a38.72,38.72,0,0,1,10.3-26.84c-1-2.52-4.46-12.69,1-26.47,0,0,8.4-2.69,27.51,10.25a95,95,0,0,1,50.08,0c19.09-12.94,27.47-10.25,27.47-10.25,5.45,13.78,2,24,1,26.47a38.62,38.62,0,0,1,10.29,26.84c0,38.41-23.4,46.86-45.67,49.34,3.59,3.1,6.79,9.19,6.79,18.52,0,13.38-.12,24.15-.12,27.44,0,2.66,1.8,5.78,6.87,4.8A100,100,0,0,0,128,30ZM65.45,172.45c-.22.5-1,.65-1.71.31s-1.13-1-.9-1.5,1-.66,1.72-.31S65.71,172,65.45,172.45Zm4.92,4.39c-.47.45-1.41.24-2-.46s-.78-1.63-.29-2.08,1.39-.23,2,.46S70.87,176.4,70.37,176.84Zm3.38,5.62c-.62.42-1.62,0-2.24-.86s-.61-2,0-2.39,1.6,0,2.23.84S74.37,182,73.75,182.46Zm5.7,6.5c-.54.61-1.71.44-2.57-.38s-1.11-2-.56-2.56,1.72-.43,2.59.39S80,188.36,79.45,189Zm7.38,2.2c-.24.78-1.37,1.14-2.5.8s-1.87-1.26-1.64-2.05,1.36-1.16,2.5-.8S87.07,190.36,86.83,191.16Zm8.39.93c0,.82-.93,1.51-2.12,1.52s-2.16-.64-2.17-1.45.94-1.51,2.13-1.53S95.22,191.27,95.22,192.09Zm8.25-.32c.14.81-.68,1.63-1.86,1.85s-2.24-.28-2.39-1.08.7-1.65,1.86-1.86S103.32,191,103.47,191.77Z"/></svg>