<svg id="Layer_1" data-name="Layer 1" xmlns="http://www.w3.org/2000/svg" viewBox="0 0 256 300"><defs><style>.cls-1{fill:#fff;}.cls-2{fill:#0d1117;}.cls-3{fill:#242938;}</style></defs><rect class="cls-1" y="162.64" width="256" height="137.36"/><path class="cls-2" d="M54.2,286.78H64a.77.77,0,0,1,.59.29,1,1,0,0,1,.25.68v3.79a1,1,0,0,1-.25.68.77.77,0,0,1-.59.29H49.3a.75.75,0,0,1-.59-.29,1,1,0,0,1-.25-.68V268.42a1,1,0,0,1,.25-.68.75.75,0,0,1,.59-.29H63.76a.75.75,0,0,1,.59.29,1,1,0,0,1,.25.68v3.79a1,1,0,0,1-.25.68.72.72,0,0,1-.59.29H54.2v3.87h8.88a.76.76,0,0,1,.59.28,1,1,0,0,1,.25.68v3.8a1,1,0,0,1-.25.68.76.76,0,0,1-.59.28H54.2Z"/><path class="cls-2" d="M75.65,291.68a2.16,2.16,0,0,1-.5.63,1.22,1.22,0,0,1-.77.2H69.66a.6.6,0,0,1-.48-.24.78.78,0,0,1-.2-.55.86.86,0,0,1,.09-.39l7.17-11.56-6.86-11.13a1.08,1.08,0,0,1-.09-.4.78.78,0,0,1,.2-.55.6.6,0,0,1,.48-.24h4.69a1.15,1.15,0,0,1,.79.25,3.59,3.59,0,0,1,.51.65l3.76,6,3.63-6a3.2,3.2,0,0,1,.51-.65,1.15,1.15,0,0,1,.79-.25H89.4a.6.6,0,0,1,.48.24.78.78,0,0,1,.2.55,1.08,1.08,0,0,1-.09.4L83.1,279.91l7.11,11.42a.86.86,0,0,1,.09.39.83.83,0,0,1-.2.55.61.61,0,0,1-.48.24H84.9a1.28,1.28,0,0,1-.78-.2,2.15,2.15,0,0,1-.49-.63l-4-6.44Z"/><path class="cls-2" d="M111.3,269.58c1.52,1.42,2.28,3.51,2.28,6.25a8.19,8.19,0,0,1-2.28,6.26,8.87,8.87,0,0,1-6.32,2.15h-4v7.3a1,1,0,0,1-.25.68.75.75,0,0,1-.59.29H96.11a.75.75,0,0,1-.59-.29,1,1,0,0,1-.25-.68V268.42a1,1,0,0,1,.25-.68.75.75,0,0,1,.59-.29H105A8.9,8.9,0,0,1,111.3,269.58Zm-6.47,9.08A3.31,3.31,0,0,0,107,278a3.18,3.18,0,0,0,0-4.26,3.25,3.25,0,0,0-2.19-.7H101v5.66Z"/><path class="cls-2" d="M134.66,269.51q2.29,2.06,2.3,6.14c0,3.46-1.24,5.85-3.7,7.16l3.85,8.52a1,1,0,0,1,.09.39.78.78,0,0,1-.2.55.6.6,0,0,1-.48.24H132.3a1.18,1.18,0,0,1-.84-.27,2.13,2.13,0,0,1-.46-.7l-3.45-7.66h-2.86v7.66a1,1,0,0,1-.24.68.78.78,0,0,1-.59.29h-4.07a.77.77,0,0,1-.59-.29,1,1,0,0,1-.25-.68V268.42a1,1,0,0,1,.25-.68.77.77,0,0,1,.59-.29h8.41A9.37,9.37,0,0,1,134.66,269.51Zm-6.46,8.79c2,0,3-.88,3-2.65s-1-2.65-3-2.65h-3.51v5.3Z"/><path class="cls-2" d="M148.66,286.78h9.81a.78.78,0,0,1,.59.29,1,1,0,0,1,.24.68v3.79a1,1,0,0,1-.24.68.78.78,0,0,1-.59.29H143.75a.78.78,0,0,1-.59-.29,1,1,0,0,1-.25-.68V268.42a1,1,0,0,1,.25-.68.78.78,0,0,1,.59-.29h14.47a.77.77,0,0,1,.59.29,1,1,0,0,1,.25.68v3.79a1,1,0,0,1-.25.68.74.74,0,0,1-.59.29h-9.56v3.87h8.87a.74.74,0,0,1,.59.28,1,1,0,0,1,.25.68v3.8a1,1,0,0,1-.25.68.74.74,0,0,1-.59.28h-8.87Z"/><path class="cls-2" d="M182.26,274.7a.59.59,0,0,1-.45.23h-4.07a1.56,1.56,0,0,1-.68-.12,2,2,0,0,1-.56-.45l-.4-.48a3,3,0,0,0-1.07-.74,4.26,4.26,0,0,0-1.7-.32,5,5,0,0,0-2.18.41,1.46,1.46,0,0,0-.86,1.42,1.34,1.34,0,0,0,.53,1.12,4.9,4.9,0,0,0,1.63.74c.73.21,2,.54,3.83,1a10,10,0,0,1,5.16,2.57,8.05,8.05,0,0,1,.41,9.15,7.81,7.81,0,0,1-3.41,2.72,12.38,12.38,0,0,1-4.95.94,10.72,10.72,0,0,1-4.84-1.07,9,9,0,0,1-3.42-2.79,6.35,6.35,0,0,1-1.3-3.54.85.85,0,0,1,.2-.56.59.59,0,0,1,.45-.23h4.07a1.64,1.64,0,0,1,1.18.5l.49.63a3.67,3.67,0,0,0,1.23.93,4.34,4.34,0,0,0,1.94.41c2.56,0,3.85-.63,3.85-1.9a1.24,1.24,0,0,0-.55-1,5,5,0,0,0-1.53-.7c-.66-.19-1.72-.46-3.17-.82l-1.39-.32a8.35,8.35,0,0,1-4.66-2.63,7.62,7.62,0,0,1-1.49-4.92,7.17,7.17,0,0,1,1.09-3.85,7.82,7.82,0,0,1,3.08-2.83,10.44,10.44,0,0,1,9.21,0,9.27,9.27,0,0,1,3.27,2.74,5.85,5.85,0,0,1,1.26,3.22A.83.83,0,0,1,182.26,274.7Z"/><path class="cls-2" d="M205.57,274.7a.59.59,0,0,1-.45.23h-4.07a1.59,1.59,0,0,1-.68-.12,2,2,0,0,1-.56-.45l-.4-.48a3,3,0,0,0-1.07-.74,4.24,4.24,0,0,0-1.69-.32,5.12,5.12,0,0,0-2.19.41,1.46,1.46,0,0,0-.86,1.42,1.34,1.34,0,0,0,.53,1.12,5,5,0,0,0,1.63.74c.73.21,2,.54,3.83,1a10,10,0,0,1,5.16,2.57,8.08,8.08,0,0,1,.42,9.15,7.9,7.9,0,0,1-3.42,2.72,12.38,12.38,0,0,1-4.95.94,10.72,10.72,0,0,1-4.84-1.07,9,9,0,0,1-3.42-2.79,6.43,6.43,0,0,1-1.3-3.54.85.85,0,0,1,.2-.56.62.62,0,0,1,.45-.23H192a1.63,1.63,0,0,1,1.18.5c.06.07.23.28.49.63a3.67,3.67,0,0,0,1.23.93,4.37,4.37,0,0,0,1.94.41c2.57,0,3.85-.63,3.85-1.9a1.25,1.25,0,0,0-.54-1,5.17,5.17,0,0,0-1.54-.7c-.66-.19-1.72-.46-3.17-.82l-1.39-.32a8.38,8.38,0,0,1-4.66-2.63,7.62,7.62,0,0,1-1.49-4.92A7.17,7.17,0,0,1,189,271a7.79,7.79,0,0,1,3.09-2.83,10.42,10.42,0,0,1,9.2,0,9.18,9.18,0,0,1,3.27,2.74,5.85,5.85,0,0,1,1.26,3.22A.83.83,0,0,1,205.57,274.7Z"/><rect class="cls-3" width="256" height="256" rx="60"/><path class="cls-1" d="M228,182.94a12.73,12.73,0,0,1-15.79-6c-9.06-13.56-19.07-26.52-28.69-39.75l-4.17-5.56C167.89,147,156.44,161.7,146,177a12.23,12.23,0,0,1-15,5.89l43-57.66-40-52.1a13.28,13.28,0,0,1,15.84,5.56c9.29,13.57,19.58,26.53,29.81,40.26,10.28-13.62,20.46-26.63,30-40.09a11.95,11.95,0,0,1,14.9-5.56L209,93.86C202,103,195.2,112.27,188,121.22a5.49,5.49,0,0,0-1.37,1.87,5.61,5.61,0,0,0,0,4.54A5.49,5.49,0,0,0,188,129.5c13.29,17.63,26.46,35.31,40,53.44Z"/><path class="cls-1" d="M28,124.5c1.17-5.56,1.89-11.62,3.5-17.29C41.12,73,80.32,58.78,107.29,80c15.79,12.4,19.74,30,19,49.77h-89C35.84,165.09,61.36,186.44,94,175.54a33.88,33.88,0,0,0,21.52-24c1.72-5.56,4.5-6.51,9.78-4.9a45.16,45.16,0,0,1-21.57,33,52.27,52.27,0,0,1-60.88-7.79,54.73,54.73,0,0,1-13.68-32.13,27.12,27.12,0,0,0-1.11-5.56Q28,129.23,28,124.5Zm9.4-2.39h80.45c-.5-25.63-16.68-43.81-38.25-44-24-.34-41.2,17.46-42.26,43.87Z"/></svg>