<svg id="Layer_1" data-name="Layer 1" xmlns="http://www.w3.org/2000/svg" viewBox="0 0 256 300"><defs><style>.cls-1{fill:#fff;}.cls-2{fill:#0d1117;}.cls-3{fill:#242938;}.cls-4{fill:#f90;fill-rule:evenodd;}</style></defs><rect class="cls-1" y="162.64" width="256" height="137.36"/><path class="cls-2" d="M111.18,291.18a1.9,1.9,0,0,1,.12.54.85.85,0,0,1-.2.56.65.65,0,0,1-.48.23h-3.91a1.18,1.18,0,0,1-.83-.27,1.29,1.29,0,0,1-.38-.63l-.87-3H96.37l-.87,3a1.24,1.24,0,0,1-.39.63,1.16,1.16,0,0,1-.82.27H90.38a.62.62,0,0,1-.48-.23.8.8,0,0,1-.2-.56,1.9,1.9,0,0,1,.12-.54l6.77-22.54a2,2,0,0,1,.49-.85,1.25,1.25,0,0,1,.9-.34h5a1.22,1.22,0,0,1,.9.34,2,2,0,0,1,.5.85ZM103,283.1l-2.51-8.59L98,283.1Z"/><path class="cls-2" d="M133.06,268.42a1.2,1.2,0,0,1,.36-.73.85.85,0,0,1,.6-.24h4.07a.6.6,0,0,1,.48.24.83.83,0,0,1,.2.55l0,.29-4,22.62a1.58,1.58,0,0,1-.52.93,1.48,1.48,0,0,1-1,.43h-2.57a1.32,1.32,0,0,1-1-.41,2.2,2.2,0,0,1-.56-1l-2.33-8.09-2.33,8.09a2.2,2.2,0,0,1-.56,1,1.35,1.35,0,0,1-1,.41h-2.58a1.49,1.49,0,0,1-1-.43,1.56,1.56,0,0,1-.51-.93l-4-22.62,0-.29a.79.79,0,0,1,.21-.55.6.6,0,0,1,.48-.24h4.06a.89.89,0,0,1,.61.24,1.32,1.32,0,0,1,.36.73l2,12.1,1.83-6.48c.21-.69.56-1,1.06-1h2.92c.49,0,.85.35,1.05,1l1.83,6.48Z"/><path class="cls-2" d="M161.2,274.7a.59.59,0,0,1-.45.23h-4.07a1.56,1.56,0,0,1-.68-.12,2,2,0,0,1-.56-.45l-.4-.48a3,3,0,0,0-1.07-.74,4.26,4.26,0,0,0-1.7-.32,5.12,5.12,0,0,0-2.19.41,1.47,1.47,0,0,0-.85,1.42,1.37,1.37,0,0,0,.53,1.13,4.91,4.91,0,0,0,1.63.73c.73.21,2,.54,3.83,1a10,10,0,0,1,5.16,2.57,8.05,8.05,0,0,1,.41,9.15,7.74,7.74,0,0,1-3.41,2.72,12.38,12.38,0,0,1-4.95.95,10.72,10.72,0,0,1-4.84-1.08,9,9,0,0,1-3.42-2.79,6.32,6.32,0,0,1-1.3-3.54.85.85,0,0,1,.2-.56.59.59,0,0,1,.45-.23h4.07a1.64,1.64,0,0,1,1.18.5l.49.63a3.67,3.67,0,0,0,1.23.93,4.34,4.34,0,0,0,1.94.41c2.56,0,3.85-.63,3.85-1.9a1.24,1.24,0,0,0-.55-1,5,5,0,0,0-1.53-.7c-.66-.19-1.72-.46-3.17-.82l-1.4-.32a8.35,8.35,0,0,1-4.65-2.63,7.62,7.62,0,0,1-1.49-4.92,7.17,7.17,0,0,1,1.09-3.85,7.82,7.82,0,0,1,3.08-2.83,10.44,10.44,0,0,1,9.21,0,9.27,9.27,0,0,1,3.27,2.74,5.85,5.85,0,0,1,1.26,3.22A.83.83,0,0,1,161.2,274.7Z"/><rect class="cls-3" width="256" height="256" rx="60"/><path class="cls-1" d="M84.74,112a20,20,0,0,0,.73,5.86,34.8,34.8,0,0,0,2.1,4.73,2.88,2.88,0,0,1,.46,1.52,2.6,2.6,0,0,1-1.25,2l-4.14,2.76a3.11,3.11,0,0,1-1.71.6,3,3,0,0,1-2-.93,19.13,19.13,0,0,1-2.37-3.09c-.66-1.12-1.32-2.37-2-3.88a24.31,24.31,0,0,1-19.34,9.08c-5.53,0-9.94-1.58-13.16-4.74s-4.87-7.37-4.87-12.63a16.91,16.91,0,0,1,6-13.55c4-3.42,9.34-5.13,16.11-5.13a52,52,0,0,1,7,.52c2.43.33,4.93.86,7.56,1.45V91.7c0-5-1-8.49-3.09-10.53s-5.66-3-10.72-3A30.14,30.14,0,0,0,52.9,79a52.28,52.28,0,0,0-7.1,2.24,18.29,18.29,0,0,1-2.31.85,4.06,4.06,0,0,1-1.05.2c-.92,0-1.38-.66-1.38-2V77a4.17,4.17,0,0,1,.46-2.31,4.93,4.93,0,0,1,1.84-1.38,38.34,38.34,0,0,1,8.29-3,40.2,40.2,0,0,1,10.27-1.25c7.82,0,13.55,1.78,17.23,5.33s5.46,9,5.46,16.18V112ZM58,122a21.28,21.28,0,0,0,6.78-1.18,14.71,14.71,0,0,0,6.25-4.21,10.6,10.6,0,0,0,2.24-4.21,23.89,23.89,0,0,0,.66-5.73v-2.76a54.35,54.35,0,0,0-6.06-1.12,50,50,0,0,0-6.18-.39c-4.41,0-7.63.85-9.8,2.63s-3.23,4.27-3.23,7.56c0,3.09.79,5.4,2.44,7S55,122,58,122Zm52.83,7.11a3.69,3.69,0,0,1-2.5-.66,5.51,5.51,0,0,1-1.38-2.57L91.52,75a11.8,11.8,0,0,1-.59-2.63,1.45,1.45,0,0,1,1.58-1.65H99a3.63,3.63,0,0,1,2.56.66,5.35,5.35,0,0,1,1.32,2.56l11,43.56,10.26-43.56a4.65,4.65,0,0,1,1.25-2.56,4.5,4.5,0,0,1,2.63-.66h5.27a4,4,0,0,1,2.63.66,4.36,4.36,0,0,1,1.25,2.56L147.57,118,159,73.93a5.58,5.58,0,0,1,1.31-2.56,4.26,4.26,0,0,1,2.57-.66H169a1.46,1.46,0,0,1,1.64,1.65,7.49,7.49,0,0,1-.13,1,10.05,10.05,0,0,1-.46,1.64l-15.86,50.86a5,5,0,0,1-1.38,2.56,4.18,4.18,0,0,1-2.5.66h-5.66a4,4,0,0,1-2.63-.66,4.66,4.66,0,0,1-1.25-2.63l-10.2-42.43L120.4,125.78a5.13,5.13,0,0,1-1.25,2.63,4.05,4.05,0,0,1-2.63.66Zm84.54,1.77a43.5,43.5,0,0,1-10.13-1.18,30.16,30.16,0,0,1-7.56-2.63,4.69,4.69,0,0,1-2-1.85,4.53,4.53,0,0,1-.4-1.84V120c0-1.38.53-2,1.51-2a3.79,3.79,0,0,1,1.19.19c.39.14,1,.4,1.64.66a35.84,35.84,0,0,0,7.24,2.31,40,40,0,0,0,7.83.78c4.14,0,7.37-.72,9.6-2.17a7.07,7.07,0,0,0,3.43-6.25,6.42,6.42,0,0,0-1.78-4.6c-1.19-1.25-3.42-2.37-6.65-3.42l-9.54-3c-4.8-1.52-8.35-3.75-10.52-6.71a15.7,15.7,0,0,1-3.29-9.54,14.61,14.61,0,0,1,1.78-7.31,17,17,0,0,1,4.73-5.39,21,21,0,0,1,6.84-3.42A28.72,28.72,0,0,1,197.57,69a34.33,34.33,0,0,1,4.41.26c1.51.2,2.9.46,4.28.73s2.56.65,3.75,1.05a14.52,14.52,0,0,1,2.76,1.18,5.71,5.71,0,0,1,2,1.65,3.5,3.5,0,0,1,.6,2.17v3.09c0,1.38-.53,2.11-1.52,2.11a7,7,0,0,1-2.5-.79,30.1,30.1,0,0,0-12.63-2.57c-3.75,0-6.71.59-8.75,1.84a6.36,6.36,0,0,0-3.09,5.86,6.23,6.23,0,0,0,2,4.67c1.32,1.25,3.75,2.5,7.24,3.62l9.34,3c4.74,1.51,8.16,3.62,10.2,6.31a14.9,14.9,0,0,1,3,9.22,17.05,17.05,0,0,1-1.71,7.63,17.86,17.86,0,0,1-4.81,5.79,21.35,21.35,0,0,1-7.3,3.68A31.31,31.31,0,0,1,195.4,130.84Z"/><path class="cls-4" d="M207.84,162.82c-21.65,16-53.1,24.47-80.13,24.47A145,145,0,0,1,29.88,150c-2-1.84-.2-4.34,2.23-2.9a197.28,197.28,0,0,0,97.9,26,195.43,195.43,0,0,0,74.67-15.26C208.3,156.17,211.39,160.18,207.84,162.82Z"/><path class="cls-4" d="M216.85,152.55c-2.76-3.55-18.29-1.71-25.33-.85-2.1.26-2.43-1.58-.53-3,12.37-8.69,32.7-6.19,35.07-3.29s-.66,23.29-12.24,33c-1.77,1.52-3.48.73-2.69-1.25C213.76,170.71,219.61,156,216.85,152.55Z"/></svg>