<svg id="Layer_1" data-name="Layer 1" xmlns="http://www.w3.org/2000/svg" viewBox="0 0 256 300"><defs><style>.cls-1{fill:#fff;}.cls-2{fill:#0d1117;}.cls-3{fill:#242938;}.cls-4{fill:#f58219;}</style></defs><rect class="cls-1" y="162.64" width="256" height="137.36"/><path class="cls-2" d="M99.24,288.55a8.11,8.11,0,0,1-3.35,3.22,10,10,0,0,1-4.66,1.09,10.53,10.53,0,0,1-4.73-1,8,8,0,0,1-3.29-3A8.45,8.45,0,0,1,82,284.42a.85.85,0,0,1,.2-.56.65.65,0,0,1,.49-.23h4a1.12,1.12,0,0,1,.76.2,2.18,2.18,0,0,1,.39.84A3.52,3.52,0,0,0,89,286.53a3.64,3.64,0,0,0,2.26.61,3.33,3.33,0,0,0,2.64-1,4.34,4.34,0,0,0,.9-2.95v-10H84.16a.72.72,0,0,1-.59-.29,1,1,0,0,1-.25-.68v-3.79a1,1,0,0,1,.25-.68.75.75,0,0,1,.59-.29H99.64a.75.75,0,0,1,.59.29,1,1,0,0,1,.25.68v15A10.07,10.07,0,0,1,99.24,288.55Z"/><path class="cls-2" d="M125.07,291.18a1.9,1.9,0,0,1,.12.54.83.83,0,0,1-.2.55.63.63,0,0,1-.48.24H120.6a1.2,1.2,0,0,1-.83-.27,1.29,1.29,0,0,1-.38-.63l-.87-3h-8.26l-.87,3a1.24,1.24,0,0,1-.39.63,1.16,1.16,0,0,1-.82.27h-3.91a.6.6,0,0,1-.48-.24.78.78,0,0,1-.2-.55,1.9,1.9,0,0,1,.12-.54l6.77-22.54a2,2,0,0,1,.49-.85,1.26,1.26,0,0,1,.91-.34h5a1.22,1.22,0,0,1,.9.34,2,2,0,0,1,.5.85Zm-8.17-8.09-2.51-8.59-2.51,8.59Z"/><path class="cls-2" d="M133.42,291.08l-6.33-22.37a1.7,1.7,0,0,1-.1-.47.83.83,0,0,1,.2-.55.63.63,0,0,1,.48-.24h3.92a1.18,1.18,0,0,1,.82.27,1.31,1.31,0,0,1,.39.63l4.31,15.75,4.32-15.75a1.29,1.29,0,0,1,.38-.63,1.2,1.2,0,0,1,.83-.27h3.91a.63.63,0,0,1,.48.24.83.83,0,0,1,.2.55,2,2,0,0,1-.09.47l-6.34,22.37a1.68,1.68,0,0,1-1.64,1.43h-4.1C134.26,292.51,133.71,292,133.42,291.08Z"/><path class="cls-2" d="M171.35,291.18a1.9,1.9,0,0,1,.12.54.78.78,0,0,1-.2.55.6.6,0,0,1-.48.24h-3.91a1.16,1.16,0,0,1-.82-.27,1.24,1.24,0,0,1-.39-.63l-.87-3h-8.26l-.87,3a1.29,1.29,0,0,1-.38.63,1.2,1.2,0,0,1-.83.27h-3.91a.63.63,0,0,1-.48-.24.83.83,0,0,1-.2-.55,1.9,1.9,0,0,1,.12-.54l6.77-22.54a2,2,0,0,1,.5-.85,1.22,1.22,0,0,1,.9-.34h5a1.25,1.25,0,0,1,.9.34,2,2,0,0,1,.49.85Zm-8.16-8.09-2.52-8.59-2.51,8.59Z"/><rect class="cls-3" width="256" height="256" rx="60"/><path class="cls-1" d="M101.63,182.62s-7.68,4.67,5.35,6c15.73,2,24,1.67,41.41-1.67a62.31,62.31,0,0,0,11,5.35C120.33,209,70.91,191.3,101.63,182.62Zm-5-21.71s-8.35,6.35,4.67,7.68c17,1.67,30.39,2,53.43-2.66a20.41,20.41,0,0,0,8,5c-47.09,14-99.85,1.33-66.12-10ZM188.79,199s5.68,4.68-6.34,8.35c-22.38,6.68-93.84,8.69-113.88,0-7-3,6.35-7.35,10.69-8a33.33,33.33,0,0,1,6.68-1c-7.68-5.35-51.1,11-22,15.73,79.81,13,145.6-5.68,124.89-15ZM105.31,138.2s-36.4,8.69-13,11.69c10,1.33,29.72,1,48.09-.34,15-1.33,30.09-4,30.09-4a81,81,0,0,0-9,4.67c-37.1,9.69-108.23,5.35-87.86-4.67,17.37-8.35,31.73-7.35,31.73-7.35Zm65.11,36.4c37.41-19.37,20-38.07,8-35.73a20.68,20.68,0,0,0-4.34,1.34,5.69,5.69,0,0,1,3.34-2.67c23.71-8.35,42.41,25.05-7.68,38.07a4.31,4.31,0,0,0,.66-1ZM109,227.36c36.07,2.34,91.17-1.33,92.5-18.37,0,0-2.66,6.68-29.72,11.69C141,226.36,103,225.69,80.6,222c0,0,4.67,4,28.38,5.34Z"/><path class="cls-4" d="M147.68,28S168.39,49,128,80.76c-32.39,25.71-7.35,40.41,0,57.1-19-17-32.72-32.06-23.37-46.08C118.33,71.08,156.06,61.06,147.68,28ZM137,123.84c9.68,11-2.67,21-2.67,21S159,132.2,147.69,116.49c-10.35-15-18.37-22.37,25.05-47.42,0,0-68.46,17-35.73,54.76Z"/></svg>