<svg id="Layer_1" data-name="Layer 1" xmlns="http://www.w3.org/2000/svg" xmlns:xlink="http://www.w3.org/1999/xlink" viewBox="0 0 256 300"><defs><style>.cls-1{fill:#fff;}.cls-2{fill:#0d1117;}.cls-3{fill:url(#linear-gradient);}.cls-4{fill:url(#linear-gradient-2);}.cls-5{fill:none;stroke:#fff;stroke-width:2px;}</style><linearGradient id="linear-gradient" y1="-401.49" x2="256" y2="-657.49" gradientTransform="matrix(1, 0, 0, -1, 0, -401.49)" gradientUnits="userSpaceOnUse"><stop offset="0" stop-color="#9013fe"/><stop offset="1" stop-color="#6b11f4"/></linearGradient><linearGradient id="linear-gradient-2" x1="83.06" y1="-472.07" x2="145.8" y2="-578.19" gradientTransform="matrix(1, 0, 0, -1, 0, -401.49)" gradientUnits="userSpaceOnUse"><stop offset="0" stop-color="#fff"/><stop offset="1" stop-color="#f1e5fc"/></linearGradient></defs><rect class="cls-1" y="162.64" width="256" height="137.36"/><path class="cls-2" d="M24.4,292.22a1,1,0,0,1-.24-.68V268.42a1,1,0,0,1,.24-.68.78.78,0,0,1,.59-.29H35a7.67,7.67,0,0,1,4.28,1.08,6.21,6.21,0,0,1,2.38,2.74,9.05,9.05,0,0,1,.73,3.63,6.54,6.54,0,0,1-.55,2.88,5.34,5.34,0,0,1-1.19,1.66,5.23,5.23,0,0,1,1.67,2.21,8.47,8.47,0,0,1,.5,3.09,8.72,8.72,0,0,1-1.74,5.55q-1.74,2.22-5.43,2.22H25A.78.78,0,0,1,24.4,292.22ZM29.9,273v4.08h4.81a1.82,1.82,0,0,0,1.41-.53,2.6,2.6,0,0,0,0-3,1.79,1.79,0,0,0-1.41-.54ZM35,287a1.91,1.91,0,0,0,1.49-.61,2.23,2.23,0,0,0,.56-1.57,2.26,2.26,0,0,0-.56-1.58,1.94,1.94,0,0,0-1.49-.61H29.9V287Z"/><path class="cls-2" d="M62.71,268.39a8.7,8.7,0,0,1,3.3,3.48,11.44,11.44,0,0,1,1.29,4.93c0,.66.06,1.74.06,3.22s0,2.5-.06,3.15A11.43,11.43,0,0,1,66,288.09a8.73,8.73,0,0,1-3.3,3.49,10.69,10.69,0,0,1-10.18,0,8.82,8.82,0,0,1-3.31-3.49,11.43,11.43,0,0,1-1.29-4.92q-.06-1.94-.06-3.15c0-.81,0-1.89.06-3.22a11.44,11.44,0,0,1,1.29-4.93,8.79,8.79,0,0,1,3.31-3.48,10.69,10.69,0,0,1,10.18,0ZM60.43,274a4.06,4.06,0,0,0-5.62,0,5.18,5.18,0,0,0-1.14,3q-.09,1.17-.09,3c0,1.16,0,2.18.09,3a5.18,5.18,0,0,0,1.14,3,4.06,4.06,0,0,0,5.62,0,5.17,5.17,0,0,0,1.13-3c.06-.86.09-1.88.09-3s0-2.19-.09-3A5.18,5.18,0,0,0,60.43,274Z"/><path class="cls-2" d="M87,268.39a8.79,8.79,0,0,1,3.31,3.48,11.73,11.73,0,0,1,1.29,4.93c0,.66.06,1.74.06,3.22s0,2.5-.06,3.15a11.72,11.72,0,0,1-1.29,4.92A8.82,8.82,0,0,1,87,291.58a10.69,10.69,0,0,1-10.18,0,8.82,8.82,0,0,1-3.31-3.49,11.57,11.57,0,0,1-1.28-4.92c0-1.29-.07-2.34-.07-3.15s0-1.89.07-3.22a11.58,11.58,0,0,1,1.28-4.93,8.79,8.79,0,0,1,3.31-3.48,10.69,10.69,0,0,1,10.18,0ZM84.73,274a4.06,4.06,0,0,0-5.62,0A5.11,5.11,0,0,0,78,277q-.09,1.17-.09,3c0,1.16,0,2.18.09,3a5.1,5.1,0,0,0,1.13,3,4.06,4.06,0,0,0,5.62,0,5.1,5.1,0,0,0,1.13-3c.07-.86.1-1.88.1-3s0-2.19-.1-3A5.11,5.11,0,0,0,84.73,274Z"/><path class="cls-2" d="M114.17,267.74a1,1,0,0,1,.25.68v3.8a1,1,0,0,1-.25.67.72.72,0,0,1-.59.29h-5.46v18.36a1,1,0,0,1-.25.68.77.77,0,0,1-.59.29h-4.07a.78.78,0,0,1-.59-.29,1,1,0,0,1-.24-.68V273.18H96.91a.74.74,0,0,1-.59-.29,1,1,0,0,1-.25-.67v-3.8a1,1,0,0,1,.25-.68.77.77,0,0,1,.59-.29h16.67A.75.75,0,0,1,114.17,267.74Z"/><path class="cls-2" d="M136.38,274.7a.57.57,0,0,1-.45.24h-4.06a1.63,1.63,0,0,1-.69-.13,2.19,2.19,0,0,1-.56-.45l-.4-.48a3,3,0,0,0-1.07-.74,4.24,4.24,0,0,0-1.69-.32,5.12,5.12,0,0,0-2.19.41,1.46,1.46,0,0,0-.86,1.42,1.37,1.37,0,0,0,.53,1.13,5,5,0,0,0,1.63.73c.74.21,2,.54,3.84,1a10,10,0,0,1,5.15,2.57,7,7,0,0,1,1.64,5A7.14,7.14,0,0,1,136,289.2a7.83,7.83,0,0,1-3.42,2.72,12.38,12.38,0,0,1-5,.95,10.72,10.72,0,0,1-4.84-1.08,8.88,8.88,0,0,1-3.41-2.79,6.34,6.34,0,0,1-1.31-3.54.85.85,0,0,1,.2-.56.62.62,0,0,1,.45-.23h4.07a1.63,1.63,0,0,1,1.18.5l.5.63a3.52,3.52,0,0,0,1.22.93,4.37,4.37,0,0,0,1.94.41c2.57,0,3.85-.63,3.85-1.9a1.25,1.25,0,0,0-.54-1,5.05,5.05,0,0,0-1.54-.7c-.66-.19-1.72-.46-3.16-.82l-1.4-.32a8.42,8.42,0,0,1-4.66-2.63,7.62,7.62,0,0,1-1.49-4.92,7.17,7.17,0,0,1,1.09-3.85,7.79,7.79,0,0,1,3.09-2.83,10.42,10.42,0,0,1,9.2,0,9.31,9.31,0,0,1,3.28,2.74,5.91,5.91,0,0,1,1.25,3.22A.78.78,0,0,1,136.38,274.7Z"/><path class="cls-2" d="M159.24,267.74a1,1,0,0,1,.25.68v3.8a1,1,0,0,1-.25.67.72.72,0,0,1-.59.29h-5.46v18.36a1,1,0,0,1-.25.68.75.75,0,0,1-.59.29h-4.06a.75.75,0,0,1-.59-.29,1,1,0,0,1-.25-.68V273.18H142a.75.75,0,0,1-.59-.29,1,1,0,0,1-.24-.67v-3.8a1,1,0,0,1,.24-.68.78.78,0,0,1,.59-.29h16.67A.75.75,0,0,1,159.24,267.74Z"/><path class="cls-2" d="M180.23,269.51c1.53,1.38,2.29,3.42,2.29,6.14q0,5.19-3.69,7.16l3.85,8.52a1,1,0,0,1,.09.39.85.85,0,0,1-.2.56.65.65,0,0,1-.48.23h-4.22a1.15,1.15,0,0,1-.84-.27,2.15,2.15,0,0,1-.47-.7l-3.44-7.66h-2.86v7.66a1,1,0,0,1-.25.68.75.75,0,0,1-.59.29h-4.06a.75.75,0,0,1-.59-.29,1,1,0,0,1-.25-.68V268.42a1,1,0,0,1,.25-.68.75.75,0,0,1,.59-.29h8.41A9.38,9.38,0,0,1,180.23,269.51Zm-6.46,8.79c2,0,3-.88,3-2.65s-1-2.65-3-2.65h-3.51v5.3Z"/><path class="cls-2" d="M208.13,291.18a1.9,1.9,0,0,1,.12.54.8.8,0,0,1-.2.56.62.62,0,0,1-.48.23h-3.91a1.18,1.18,0,0,1-.82-.27,1.24,1.24,0,0,1-.39-.63l-.87-3h-8.25l-.87,3a1.39,1.39,0,0,1-.39.63,1.18,1.18,0,0,1-.83.27h-3.91a.65.65,0,0,1-.48-.23.85.85,0,0,1-.2-.56,1.68,1.68,0,0,1,.13-.54l6.76-22.54a2.06,2.06,0,0,1,.5-.85,1.25,1.25,0,0,1,.9-.34h5a1.25,1.25,0,0,1,.9.34,2,2,0,0,1,.49.85ZM200,283.1l-2.52-8.59-2.51,8.59Z"/><path class="cls-2" d="M228.54,269.58c1.52,1.42,2.28,3.51,2.28,6.25a8.19,8.19,0,0,1-2.28,6.26,8.87,8.87,0,0,1-6.32,2.15h-4v7.3a1,1,0,0,1-.25.68.75.75,0,0,1-.59.29h-4.06a.75.75,0,0,1-.59-.29,1,1,0,0,1-.25-.68V268.42a1,1,0,0,1,.25-.68.75.75,0,0,1,.59-.29h8.87A8.9,8.9,0,0,1,228.54,269.58Zm-6.47,9.08a3.31,3.31,0,0,0,2.19-.7,3.18,3.18,0,0,0,0-4.26,3.25,3.25,0,0,0-2.19-.7h-3.82v5.66Z"/><rect class="cls-3" width="256" height="256" rx="60"/><path class="cls-4" d="M132,196.16c29.68,0,47.56-14.53,47.56-38.5,0-18.12-12.76-31.23-31.71-33.31v-.75c13.92-2.27,24.85-15.2,24.85-29.63,0-20.57-16.24-34-41-34H76V196.16ZM97.65,77.27h28.81c15.66,0,24.55,7,24.55,19.62,0,13.5-10.34,21-29.09,21H97.65V77.27Zm0,101.62V134.07h28.62c20.49,0,31.12,7.55,31.12,22.27s-10.34,22.55-29.87,22.55Z"/><path class="cls-5" d="M132,196.16c29.68,0,47.56-14.53,47.56-38.5,0-18.12-12.76-31.23-31.71-33.31v-.75c13.92-2.27,24.85-15.2,24.85-29.63,0-20.57-16.24-34-41-34H76V196.16ZM97.65,77.27h28.81c15.66,0,24.55,7,24.55,19.62,0,13.5-10.34,21-29.09,21H97.65V77.27Zm0,101.62V134.07h28.62c20.49,0,31.12,7.55,31.12,22.27s-10.34,22.55-29.87,22.55Z"/></svg>