<svg id="Layer_1" data-name="Layer 1" xmlns="http://www.w3.org/2000/svg" xmlns:xlink="http://www.w3.org/1999/xlink" viewBox="0 0 256 300"><defs><style>.cls-1{fill:none;}.cls-14,.cls-2{fill:#fff;}.cls-3{fill:#0d1117;}.cls-4{fill:#e43717;}.cls-5{clip-path:url(#clip-path);}.cls-10,.cls-11,.cls-12,.cls-13,.cls-14,.cls-15,.cls-16,.cls-17,.cls-18,.cls-19,.cls-20,.cls-21,.cls-22,.cls-23,.cls-6,.cls-7,.cls-8,.cls-9{fill-rule:evenodd;}.cls-6{fill:url(#linear-gradient);}.cls-7{fill:url(#linear-gradient-2);}.cls-8{fill:url(#linear-gradient-3);}.cls-9{fill:url(#linear-gradient-4);}.cls-10{fill:url(#linear-gradient-5);}.cls-11{fill:url(#linear-gradient-6);}.cls-12{fill:url(#linear-gradient-7);}.cls-13{fill:url(#linear-gradient-8);}.cls-15{fill:url(#linear-gradient-9);}.cls-16{fill:url(#linear-gradient-10);}.cls-17{fill:url(#linear-gradient-11);}.cls-18{fill:url(#linear-gradient-12);}.cls-19{fill:#9e1209;}.cls-20{fill:url(#radial-gradient);}.cls-21{fill:url(#radial-gradient-2);}.cls-22{fill:url(#linear-gradient-13);}.cls-23{fill:url(#linear-gradient-14);}</style><clipPath id="clip-path"><rect id="SVGID" class="cls-1" x="38" y="38" width="180" height="179.5"/></clipPath><linearGradient id="linear-gradient" x1="196.14" y1="-1949.7" x2="158.17" y2="-1882.65" gradientTransform="matrix(1, 0, 0, -1, 0, -1715.87)" gradientUnits="userSpaceOnUse"><stop offset="0" stop-color="#fb7655"/><stop offset="0.41" stop-color="#e42b1e"/><stop offset="0.99" stop-color="#900"/><stop offset="1" stop-color="#900"/></linearGradient><linearGradient id="linear-gradient-2" x1="215.06" y1="-1893.38" x2="166.12" y2="-1860.54" gradientTransform="matrix(1, 0, 0, -1, 0, -1715.87)" gradientUnits="userSpaceOnUse"><stop offset="0" stop-color="#871101"/><stop offset="0.99" stop-color="#911209"/><stop offset="1" stop-color="#911209"/></linearGradient><linearGradient id="linear-gradient-3" x1="175.9" y1="-1951.73" x2="126.97" y2="-1918.89" xlink:href="#linear-gradient-2"/><linearGradient id="linear-gradient-4" x1="73.16" y1="-1869.61" x2="80.74" y2="-1918.91" gradientTransform="matrix(1, 0, 0, -1, 0, -1715.87)" gradientUnits="userSpaceOnUse"><stop offset="0" stop-color="#fff"/><stop offset="0.23" stop-color="#e57252"/><stop offset="0.46" stop-color="#de3b20"/><stop offset="0.99" stop-color="#a60003"/><stop offset="1" stop-color="#a60003"/></linearGradient><linearGradient id="linear-gradient-5" x1="125.34" y1="-1823.57" x2="128.13" y2="-1873.89" gradientTransform="matrix(1, 0, 0, -1, 0, -1715.87)" gradientUnits="userSpaceOnUse"><stop offset="0" stop-color="#fff"/><stop offset="0.23" stop-color="#e4714e"/><stop offset="0.56" stop-color="#be1a0d"/><stop offset="0.99" stop-color="#a80d00"/><stop offset="1" stop-color="#a80d00"/></linearGradient><linearGradient id="linear-gradient-6" x1="171.64" y1="-1777.06" x2="180.01" y2="-1813.12" gradientTransform="matrix(1, 0, 0, -1, 0, -1715.87)" gradientUnits="userSpaceOnUse"><stop offset="0" stop-color="#fff"/><stop offset="0.18" stop-color="#e46342"/><stop offset="0.4" stop-color="#c82410"/><stop offset="0.99" stop-color="#a80d00"/><stop offset="1" stop-color="#a80d00"/></linearGradient><linearGradient id="linear-gradient-7" x1="146.09" y1="-1764.36" x2="182.15" y2="-1746.33" gradientTransform="matrix(1, 0, 0, -1, 0, -1715.87)" gradientUnits="userSpaceOnUse"><stop offset="0" stop-color="#fff"/><stop offset="0.54" stop-color="#c81f11"/><stop offset="0.99" stop-color="#bf0905"/><stop offset="1" stop-color="#bf0905"/></linearGradient><linearGradient id="linear-gradient-8" x1="41.55" y1="-1857.04" x2="44.51" y2="-1886.75" gradientTransform="matrix(1, 0, 0, -1, 0, -1715.87)" gradientUnits="userSpaceOnUse"><stop offset="0" stop-color="#fff"/><stop offset="0.31" stop-color="#de4024"/><stop offset="0.99" stop-color="#bf190b"/><stop offset="1" stop-color="#bf190b"/></linearGradient><linearGradient id="linear-gradient-9" x1="21.14" y1="-1894.78" x2="160.66" y2="-1751.32" gradientTransform="matrix(1, 0, 0, -1, 0, -1715.87)" gradientUnits="userSpaceOnUse"><stop offset="0" stop-color="#bd0012"/><stop offset="0.07" stop-color="#fff"/><stop offset="0.17" stop-color="#fff"/><stop offset="0.27" stop-color="#c82f1c"/><stop offset="0.33" stop-color="#820c01"/><stop offset="0.46" stop-color="#a31601"/><stop offset="0.72" stop-color="#b31301"/><stop offset="0.99" stop-color="#e82609"/><stop offset="1" stop-color="#e82609"/></linearGradient><linearGradient id="linear-gradient-10" x1="128.01" y1="-1909.25" x2="85.99" y2="-1898.88" gradientTransform="matrix(1, 0, 0, -1, 0, -1715.87)" gradientUnits="userSpaceOnUse"><stop offset="0" stop-color="#8c0c01"/><stop offset="0.54" stop-color="#990c00"/><stop offset="0.99" stop-color="#a80d0e"/><stop offset="1" stop-color="#a80d0e"/></linearGradient><linearGradient id="linear-gradient-11" x1="200.19" y1="-1858.82" x2="162.86" y2="-1825.36" gradientTransform="matrix(1, 0, 0, -1, 0, -1715.87)" gradientUnits="userSpaceOnUse"><stop offset="0" stop-color="#7e110b"/><stop offset="0.99" stop-color="#9e0c00"/><stop offset="1" stop-color="#9e0c00"/></linearGradient><linearGradient id="linear-gradient-12" x1="213.91" y1="-1797.42" x2="195.31" y2="-1777.54" gradientTransform="matrix(1, 0, 0, -1, 0, -1715.87)" gradientUnits="userSpaceOnUse"><stop offset="0" stop-color="#79130d"/><stop offset="0.99" stop-color="#9e120b"/><stop offset="1" stop-color="#9e120b"/></linearGradient><radialGradient id="radial-gradient" cx="-728.55" cy="-348.49" r="1" gradientTransform="matrix(45.75, 0, 0, -45.75, 33499.5, -15833.26)" gradientUnits="userSpaceOnUse"><stop offset="0" stop-color="#a80d00"/><stop offset="0.99" stop-color="#7e0e08"/><stop offset="1" stop-color="#7e0e08"/></radialGradient><radialGradient id="radial-gradient-2" cx="-732.58" cy="-340.92" r="1" gradientTransform="matrix(60.82, 0, 0, -60.82, 44659.54, -20563.76)" gradientUnits="userSpaceOnUse"><stop offset="0" stop-color="#a30c00"/><stop offset="0.99" stop-color="#800e08"/><stop offset="1" stop-color="#800e08"/></radialGradient><linearGradient id="linear-gradient-13" x1="62.23" y1="-1933.15" x2="47.08" y2="-1881.74" gradientTransform="matrix(1, 0, 0, -1, 0, -1715.87)" gradientUnits="userSpaceOnUse"><stop offset="0" stop-color="#8b2114"/><stop offset="0.43" stop-color="#9e100a"/><stop offset="0.99" stop-color="#b3100c"/><stop offset="1" stop-color="#b3100c"/></linearGradient><linearGradient id="linear-gradient-14" x1="178.49" y1="-1762.77" x2="212.47" y2="-1777.77" gradientTransform="matrix(1, 0, 0, -1, 0, -1715.87)" gradientUnits="userSpaceOnUse"><stop offset="0" stop-color="#b31000"/><stop offset="0.44" stop-color="#910f08"/><stop offset="0.99" stop-color="#791c12"/><stop offset="1" stop-color="#791c12"/></linearGradient></defs><rect class="cls-2" y="162.64" width="256" height="137.36"/><path class="cls-3" d="M98.09,269.51c1.53,1.38,2.3,3.42,2.3,6.14q0,5.19-3.69,7.16l3.85,8.52a1,1,0,0,1,.09.39.85.85,0,0,1-.2.56.65.65,0,0,1-.48.23H95.73a1.14,1.14,0,0,1-.83-.27,2,2,0,0,1-.47-.7L91,283.88H88.13v7.66a1,1,0,0,1-.25.68.77.77,0,0,1-.59.29H83.22a.75.75,0,0,1-.58-.29,1,1,0,0,1-.25-.68V268.42a1,1,0,0,1,.25-.68.75.75,0,0,1,.58-.29h8.42A9.34,9.34,0,0,1,98.09,269.51Zm-6.45,8.79c2,0,3-.88,3-2.65s-1-2.65-3-2.65H88.13v5.3Z"/><path class="cls-3" d="M124.76,267.74a1,1,0,0,1,.24.68V282.7a11.83,11.83,0,0,1-1.18,5.51,8,8,0,0,1-3.3,3.47,11,11,0,0,1-9.93,0,7.9,7.9,0,0,1-3.29-3.47,12,12,0,0,1-1.17-5.51V268.42a1,1,0,0,1,.25-.68.77.77,0,0,1,.59-.29H111a.78.78,0,0,1,.59.29,1,1,0,0,1,.24.68v14.14a5.35,5.35,0,0,0,.95,3.38,3.75,3.75,0,0,0,5.5,0,5.35,5.35,0,0,0,.94-3.38V268.42a1,1,0,0,1,.25-.68.77.77,0,0,1,.59-.29h4.07A.78.78,0,0,1,124.76,267.74Z"/><path class="cls-3" d="M130.87,292.22a1,1,0,0,1-.25-.68V268.42a1,1,0,0,1,.25-.68.77.77,0,0,1,.59-.29h10a7.69,7.69,0,0,1,4.28,1.08,6.21,6.21,0,0,1,2.38,2.74,9,9,0,0,1,.72,3.63,6.55,6.55,0,0,1-.54,2.88,5.34,5.34,0,0,1-1.19,1.66,5.23,5.23,0,0,1,1.67,2.21,8.47,8.47,0,0,1,.5,3.09,8.72,8.72,0,0,1-1.74,5.55q-1.74,2.22-5.43,2.22H131.46A.77.77,0,0,1,130.87,292.22Zm5.5-19.22v4.08h4.81a1.82,1.82,0,0,0,1.41-.53,2.6,2.6,0,0,0,0-3,1.79,1.79,0,0,0-1.41-.54Zm5.12,14a1.91,1.91,0,0,0,1.49-.61,2.23,2.23,0,0,0,.56-1.57,2.26,2.26,0,0,0-.56-1.58,1.94,1.94,0,0,0-1.49-.61h-5.12V287Z"/><path class="cls-3" d="M165.36,292.22a.78.78,0,0,1-.59.29H160.7a.77.77,0,0,1-.59-.29,1,1,0,0,1-.25-.68v-7.62l-7.17-15.21a1.09,1.09,0,0,1-.12-.47.83.83,0,0,1,.2-.55.63.63,0,0,1,.48-.24h4.25a1.22,1.22,0,0,1,.86.31,1.89,1.89,0,0,1,.45.59l3.91,8.8,3.94-8.8a1.75,1.75,0,0,1,.45-.59,1.22,1.22,0,0,1,.85-.31h4.26a.63.63,0,0,1,.48.24.83.83,0,0,1,.2.55,1.09,1.09,0,0,1-.12.47l-7.17,15.21v7.62A1,1,0,0,1,165.36,292.22Z"/><rect class="cls-4" width="256" height="256" rx="60"/><g class="cls-5"><path class="cls-6" d="M177.45,156.48l-102.76,61,133.06-9L218,74.29Z"/><path class="cls-7" d="M208,208.38l-11.44-78.94-31.15,41.14Z"/><path class="cls-8" d="M208.12,208.38l-83.79-6.58-49.2,15.53Z"/><path class="cls-9" d="M75.25,217.35l20.93-68.58-46.06,9.85Z"/><path class="cls-10" d="M165.37,170.8,146.11,95.36,91,147Z"/><path class="cls-11" d="M213.63,96.43l-52.1-42.56L147,100.78Z"/><path class="cls-12" d="M189.26,38.7,158.62,55.63,139.29,38.47Z"/><path class="cls-13" d="M38,181.62l12.84-23.41L40.45,130.32Z"/><path class="cls-14" d="M39.76,129.44l10.45,29.63,45.4-10.18,51.83-48.17,14.62-46.46L139,38,99.88,52.65C87.54,64.13,63.6,86.83,62.74,87.26S46.93,116,39.76,129.44Z"/><path class="cls-15" d="M76.45,76.2c26.73-26.51,61.2-42.17,74.43-28.82s-.8,45.77-27.54,72.27-60.77,43-74,29.69.36-46.64,27.1-73.14Z"/><path class="cls-16" d="M75.25,217.32,96,148.53l69,22.16C140.05,194.07,112.32,213.84,75.25,217.32Z"/><path class="cls-17" d="M147.53,100.59l17.71,70.13c20.83-21.9,39.52-45.45,48.68-74.58l-66.39,4.45Z"/><path class="cls-18" d="M213.74,96.5c7.08-21.39,8.72-52.07-24.7-57.76L161.63,53.88,213.74,96.5Z"/><path class="cls-19" d="M38,181.32c1,35.29,26.45,35.82,37.29,36.13L50.24,158.93Z"/><path class="cls-20" d="M147.63,100.69c16,9.84,48.27,29.6,48.92,30,1,.57,13.91-21.74,16.83-34.35l-65.75,4.38Z"/><path class="cls-21" d="M96,148.53l27.76,53.56c16.42-8.9,29.27-19.75,41.05-31.37Z"/><path class="cls-22" d="M50.13,159l-3.94,46.84c7.43,10.14,17.64,11,28.35,10.23C66.79,196.79,51.31,158.22,50.13,159Z"/><path class="cls-23" d="M161.46,54l55.16,7.74c-2.94-12.47-12-20.52-27.39-23Z"/></g></svg>