<svg id="Layer_1" data-name="Layer 1" xmlns="http://www.w3.org/2000/svg" viewBox="0 0 256 300"><defs><style>.cls-1{fill:#fff;}.cls-2{fill:#0d1117;}.cls-3{fill:#0277bd;}.cls-4{fill:#ebebeb;}</style></defs><rect class="cls-1" y="162.64" width="256" height="137.36"/><path class="cls-2" d="M89.12,286A3.44,3.44,0,0,0,92,287.14a3.73,3.73,0,0,0,2.7-.82,4.53,4.53,0,0,0,1.18-2,2.42,2.42,0,0,1,.38-.82.88.88,0,0,1,.68-.22H101a.63.63,0,0,1,.49.24.83.83,0,0,1,.2.55,8.26,8.26,0,0,1-1.32,4.42,9.13,9.13,0,0,1-3.49,3.2A10.16,10.16,0,0,1,92,292.87a9.5,9.5,0,0,1-5-1.31,9.11,9.11,0,0,1-3.32-3.51,11.34,11.34,0,0,1-1.3-4.88c0-1.15-.06-2.09-.06-2.83s0-2.06.06-3.54a11.09,11.09,0,0,1,1.27-4.89A9,9,0,0,1,87,268.4a9.55,9.55,0,0,1,5-1.3,10.15,10.15,0,0,1,4.88,1.18,9.13,9.13,0,0,1,3.49,3.2,8.26,8.26,0,0,1,1.32,4.42.85.85,0,0,1-.2.56.65.65,0,0,1-.49.23H96.93a.84.84,0,0,1-.68-.22,2.32,2.32,0,0,1-.38-.82,4.5,4.5,0,0,0-1.18-2,3.73,3.73,0,0,0-2.7-.83A3.47,3.47,0,0,0,89.12,274a5.21,5.21,0,0,0-1,3c0,.82-.06,1.82-.06,3s0,2.15.06,3A5.21,5.21,0,0,0,89.12,286Z"/><path class="cls-2" d="M124.26,274.7a.57.57,0,0,1-.45.23h-4.07a1.59,1.59,0,0,1-.68-.12,2,2,0,0,1-.56-.45l-.4-.48a3,3,0,0,0-1.07-.74,4.24,4.24,0,0,0-1.69-.32,5.12,5.12,0,0,0-2.19.41,1.46,1.46,0,0,0-.86,1.42,1.37,1.37,0,0,0,.53,1.13,5.23,5.23,0,0,0,1.63.73c.73.21,2,.54,3.83,1a10,10,0,0,1,5.16,2.57,8.08,8.08,0,0,1,.42,9.15,7.83,7.83,0,0,1-3.42,2.72,12.38,12.38,0,0,1-5,.95,10.72,10.72,0,0,1-4.84-1.08,9,9,0,0,1-3.42-2.79,6.4,6.4,0,0,1-1.3-3.54.85.85,0,0,1,.2-.56.62.62,0,0,1,.45-.23h4.07a1.63,1.63,0,0,1,1.18.5c.06.07.23.28.49.63a3.67,3.67,0,0,0,1.23.93,4.37,4.37,0,0,0,1.94.41c2.57,0,3.85-.63,3.85-1.9a1.25,1.25,0,0,0-.54-1,5.17,5.17,0,0,0-1.54-.7c-.66-.19-1.72-.46-3.17-.82l-1.39-.32a8.38,8.38,0,0,1-4.66-2.63,7.62,7.62,0,0,1-1.49-4.92,7.17,7.17,0,0,1,1.09-3.85,7.79,7.79,0,0,1,3.09-2.83,10.42,10.42,0,0,1,9.2,0,9.18,9.18,0,0,1,3.27,2.74,5.85,5.85,0,0,1,1.26,3.22A.83.83,0,0,1,124.26,274.7Z"/><path class="cls-2" d="M147.57,274.7a.57.57,0,0,1-.45.23h-4.07a1.63,1.63,0,0,1-.68-.12,2.19,2.19,0,0,1-.56-.45l-.4-.48a3,3,0,0,0-1.07-.74,4.24,4.24,0,0,0-1.69-.32,5.12,5.12,0,0,0-2.19.41,1.46,1.46,0,0,0-.86,1.42,1.37,1.37,0,0,0,.53,1.13,5.23,5.23,0,0,0,1.63.73c.74.21,2,.54,3.84,1a10,10,0,0,1,5.15,2.57,7,7,0,0,1,1.64,5,7.14,7.14,0,0,1-1.22,4.14,7.83,7.83,0,0,1-3.42,2.72,12.38,12.38,0,0,1-4.95.95,10.72,10.72,0,0,1-4.84-1.08,9,9,0,0,1-3.42-2.79,6.4,6.4,0,0,1-1.3-3.54.85.85,0,0,1,.2-.56.62.62,0,0,1,.45-.23H134a1.63,1.63,0,0,1,1.18.5l.5.63a3.52,3.52,0,0,0,1.22.93,4.37,4.37,0,0,0,1.94.41c2.57,0,3.85-.63,3.85-1.9a1.25,1.25,0,0,0-.54-1,5.05,5.05,0,0,0-1.54-.7c-.66-.19-1.72-.46-3.16-.82l-1.4-.32a8.42,8.42,0,0,1-4.66-2.63,7.62,7.62,0,0,1-1.49-4.92A7.17,7.17,0,0,1,131,271a7.79,7.79,0,0,1,3.09-2.83,10.42,10.42,0,0,1,9.2,0,9.31,9.31,0,0,1,3.28,2.74,5.91,5.91,0,0,1,1.25,3.22A.83.83,0,0,1,147.57,274.7Z"/><path class="cls-2" d="M170,267.74a1,1,0,0,1,.25.68v3.79a2.07,2.07,0,0,1-.63,1.26l-3.75,4.36a7.8,7.8,0,0,1,4,2.47,6.67,6.67,0,0,1,1.46,4.44,7.56,7.56,0,0,1-2.4,6.05,10.12,10.12,0,0,1-6.79,2.08,11.36,11.36,0,0,1-4.93-1,7.84,7.84,0,0,1-3.23-2.63,6.31,6.31,0,0,1-1.18-3.45.85.85,0,0,1,.2-.56.65.65,0,0,1,.48-.23h3.91a1.49,1.49,0,0,1,.81.2,4,4,0,0,1,.72.62,5,5,0,0,0,1.28,1,4.38,4.38,0,0,0,1.94.34,4.51,4.51,0,0,0,2.5-.61,2.16,2.16,0,0,0,0-3.58,4.6,4.6,0,0,0-2.5-.61h-2.57a.74.74,0,0,1-.59-.28,1,1,0,0,1-.25-.68V278.3a1.31,1.31,0,0,1,.17-.65,4.24,4.24,0,0,1,.48-.64l3.29-3.83h-8.1a.74.74,0,0,1-.59-.29,1,1,0,0,1-.25-.68v-3.79a1,1,0,0,1,.25-.68.77.77,0,0,1,.59-.29h14.84A.77.77,0,0,1,170,267.74Z"/><rect class="cls-3" width="256" height="256" rx="60"/><path class="cls-4" d="M53.75,102.65l2.87,31.94H128.1V102.65Z"/><path class="cls-4" d="M128.1,38H48l2.9,31.94h77.2Z"/><path class="cls-4" d="M128.1,218.84V185.61l-.14,0L92.38,176l-2.27-25.48H58l4.48,50.16L128,218.88Z"/><path class="cls-1" d="M167.32,134.59,163.61,176,128,185.63v33.24l65.48-18.15.48-5.4,7.5-84.09.78-8.58L208,38H128V69.94h45l-2.9,32.71H128v31.94Z"/></svg>