<svg id="Layer_1" data-name="Layer 1" xmlns="http://www.w3.org/2000/svg" viewBox="0 0 256 300"><defs><style>.cls-1{fill:#fff;}.cls-2{fill:#0d1117;}.cls-3{fill:#242938;}.cls-4{fill:#e23237;}.cls-5{fill:#b52e31;}</style></defs><rect class="cls-1" y="162.64" width="256" height="137.36"/><path class="cls-2" d="M65.33,291.18a1.9,1.9,0,0,1,.12.54.8.8,0,0,1-.2.56.62.62,0,0,1-.48.23H60.86a1.16,1.16,0,0,1-.82-.27,1.24,1.24,0,0,1-.39-.63l-.87-3H50.52l-.87,3a1.29,1.29,0,0,1-.38.63,1.18,1.18,0,0,1-.83.27H44.53a.65.65,0,0,1-.48-.23.85.85,0,0,1-.2-.56,1.9,1.9,0,0,1,.12-.54l6.77-22.54a2,2,0,0,1,.5-.85,1.25,1.25,0,0,1,.9-.34h5a1.25,1.25,0,0,1,.9.34,2,2,0,0,1,.49.85Zm-8.16-8.08-2.52-8.59-2.51,8.59Z"/><path class="cls-2" d="M83.67,292.24a1.46,1.46,0,0,1-.46-.56L76.1,279.44v12.1a1,1,0,0,1-.25.68.75.75,0,0,1-.59.29H71.2a.75.75,0,0,1-.59-.29,1,1,0,0,1-.25-.68V268.42a1,1,0,0,1,.25-.68.75.75,0,0,1,.59-.29h3.22a1.28,1.28,0,0,1,.81.27,1.58,1.58,0,0,1,.47.56l7.11,12.24v-12.1a1,1,0,0,1,.24-.68.78.78,0,0,1,.59-.29h4.07a.77.77,0,0,1,.59.29,1,1,0,0,1,.25.68v23.12a1,1,0,0,1-.25.68.77.77,0,0,1-.59.29H84.48A1.28,1.28,0,0,1,83.67,292.24Z"/><path class="cls-2" d="M100.19,279.73c0,1.48,0,2.57.09,3.26a5.25,5.25,0,0,0,1.06,3,3.44,3.44,0,0,0,2.85,1.16,4.13,4.13,0,0,0,2.84-.95,3.78,3.78,0,0,0,1.07-3h-2.6a.74.74,0,0,1-.59-.28,1,1,0,0,1-.25-.68v-3.8a1,1,0,0,1,.25-.68.74.74,0,0,1,.59-.28H113a.76.76,0,0,1,.59.28,1,1,0,0,1,.25.68V283a10.34,10.34,0,0,1-1.28,5.21,8.8,8.8,0,0,1-3.46,3.44,10.07,10.07,0,0,1-4.92,1.2,9.5,9.5,0,0,1-5-1.31,9.11,9.11,0,0,1-3.32-3.51,11.34,11.34,0,0,1-1.3-4.88c0-1.15-.06-2.09-.06-2.83s0-2.06.06-3.54a11,11,0,0,1,1.27-4.89,9,9,0,0,1,3.34-3.51,9.55,9.55,0,0,1,5-1.3,9.89,9.89,0,0,1,4.89,1.18,9.24,9.24,0,0,1,3.32,3,6.92,6.92,0,0,1,1.29,3.47.66.66,0,0,1-.19.55.64.64,0,0,1-.49.24h-4.13a.86.86,0,0,1-.64-.24,6.68,6.68,0,0,1-.6-.73,4.73,4.73,0,0,0-1.32-1.25,4.1,4.1,0,0,0-2.13-.47c-2.34,0-3.64,1.39-3.91,4.15Q100.19,277.84,100.19,279.73Z"/><path class="cls-2" d="M138.15,267.74a1,1,0,0,1,.25.68V282.7a11.83,11.83,0,0,1-1.18,5.51,8.05,8.05,0,0,1-3.31,3.47,10,10,0,0,1-4.95,1.19,10.08,10.08,0,0,1-5-1.19,8,8,0,0,1-3.29-3.47,12,12,0,0,1-1.16-5.51V268.42a1,1,0,0,1,.24-.68.78.78,0,0,1,.59-.29h4.07a.77.77,0,0,1,.59.29,1,1,0,0,1,.25.68v14.14a5.29,5.29,0,0,0,1,3.38,3.74,3.74,0,0,0,5.49,0,5.35,5.35,0,0,0,.95-3.38V268.42a1,1,0,0,1,.24-.68.78.78,0,0,1,.59-.29h4.07A.77.77,0,0,1,138.15,267.74Z"/><path class="cls-2" d="M160.72,287.07a1,1,0,0,1,.24.68v3.79a1,1,0,0,1-.24.68.78.78,0,0,1-.59.29H145.75a.78.78,0,0,1-.59-.29,1,1,0,0,1-.24-.68V268.42a1,1,0,0,1,.24-.68.78.78,0,0,1,.59-.29h4.07a.77.77,0,0,1,.59.29,1,1,0,0,1,.25.68v18.36h9.47A.78.78,0,0,1,160.72,287.07Z"/><path class="cls-2" d="M185.67,291.18a1.68,1.68,0,0,1,.13.54.85.85,0,0,1-.2.56.65.65,0,0,1-.49.23H181.2a1.18,1.18,0,0,1-.82-.27,1.24,1.24,0,0,1-.39-.63l-.87-3h-8.25l-.87,3a1.24,1.24,0,0,1-.39.63,1.18,1.18,0,0,1-.82.27h-3.91a.65.65,0,0,1-.49-.23.85.85,0,0,1-.2-.56,1.68,1.68,0,0,1,.13-.54l6.76-22.54a2.06,2.06,0,0,1,.5-.85,1.25,1.25,0,0,1,.9-.34h5a1.25,1.25,0,0,1,.9.34,2.06,2.06,0,0,1,.5.85Zm-8.16-8.08L175,274.51l-2.51,8.59Z"/><path class="cls-2" d="M206.41,269.51c1.53,1.38,2.29,3.42,2.29,6.14q0,5.19-3.69,7.16l3.85,8.52a1,1,0,0,1,.09.39.8.8,0,0,1-.2.56.62.62,0,0,1-.48.23h-4.22a1.18,1.18,0,0,1-.84-.27,2.15,2.15,0,0,1-.47-.7l-3.44-7.66h-2.86v7.66a1,1,0,0,1-.24.68.78.78,0,0,1-.59.29h-4.07a.75.75,0,0,1-.59-.29,1,1,0,0,1-.25-.68V268.42a1,1,0,0,1,.25-.68.75.75,0,0,1,.59-.29H200A9.37,9.37,0,0,1,206.41,269.51ZM200,278.3c2,0,3-.88,3-2.65s-1-2.65-3-2.65h-3.51v5.3Z"/><rect class="cls-3" width="256" height="256" rx="60"/><path class="cls-4" d="M34.25,61.12,127.32,28l95.53,32.61L207.41,183.7,127.32,228,48.54,184.27Z"/><path class="cls-5" d="M222.85,60.61,127.32,28V228l80.09-44.3Z"/><path class="cls-1" d="M127.47,51.38l-58,129,21.64-.44,11.69-29.15h51.88l12.7,29.37,20.63.44Zm.14,41.41,19.63,41H110.5l17.17-41Z"/></svg>