<svg id="Layer_1" data-name="Layer 1" xmlns="http://www.w3.org/2000/svg" viewBox="0 0 256 300"><defs><style>.cls-1{fill:#fff;}.cls-2{fill:#0d1117;}.cls-3{fill:#2396ed;}</style></defs><rect class="cls-1" y="162.64" width="256" height="137.36"/><path class="cls-2" d="M77.47,280c0,.38,0,1.21-.07,2.5a11.52,11.52,0,0,1-1.31,5.19,9,9,0,0,1-3.37,3.53,9.55,9.55,0,0,1-5,1.27H59.37a.77.77,0,0,1-.59-.29,1,1,0,0,1-.25-.68V268.42a1,1,0,0,1,.25-.68.77.77,0,0,1,.59-.29H67.6a9.78,9.78,0,0,1,5,1.28,9,9,0,0,1,3.44,3.54,11.21,11.21,0,0,1,1.35,5.17C77.45,278.78,77.47,279.64,77.47,280Zm-13.19-6.84v13.6H67.6c2.6,0,4-1.37,4.06-4.11,0-1.39.06-2.29.06-2.72s0-1.36-.06-2.65a4.4,4.4,0,0,0-1.16-3.08,4.23,4.23,0,0,0-3.06-1Z"/><path class="cls-2" d="M97.43,268.39a8.77,8.77,0,0,1,3.3,3.48A11.44,11.44,0,0,1,102,276.8c0,.66.06,1.74.06,3.22s0,2.5-.06,3.15a11.43,11.43,0,0,1-1.29,4.92,8.79,8.79,0,0,1-3.3,3.49,10.71,10.71,0,0,1-10.19,0,8.79,8.79,0,0,1-3.3-3.49,11.43,11.43,0,0,1-1.29-4.92q-.06-1.94-.06-3.15c0-.81,0-1.89.06-3.22a11.44,11.44,0,0,1,1.29-4.93,8.77,8.77,0,0,1,3.3-3.48,10.71,10.71,0,0,1,10.19,0ZM95.14,274a4,4,0,0,0-5.61,0,5.11,5.11,0,0,0-1.14,3q-.09,1.17-.09,3c0,1.16,0,2.18.09,3a5.11,5.11,0,0,0,1.14,3,4,4,0,0,0,5.61,0,5.11,5.11,0,0,0,1.14-3c.06-.86.09-1.88.09-3s0-2.19-.09-3A5.11,5.11,0,0,0,95.14,274Z"/><path class="cls-2" d="M114.08,286a3.44,3.44,0,0,0,2.87,1.15,3.74,3.74,0,0,0,2.7-.82,4.53,4.53,0,0,0,1.18-2,2.45,2.45,0,0,1,.37-.82.9.9,0,0,1,.69-.22H126a.6.6,0,0,1,.48.24.78.78,0,0,1,.2.55,8.34,8.34,0,0,1-1.31,4.42,9.16,9.16,0,0,1-3.5,3.2,10.12,10.12,0,0,1-4.87,1.19,9.5,9.5,0,0,1-5-1.31,9,9,0,0,1-3.32-3.51,11.2,11.2,0,0,1-1.3-4.88c0-1.15-.07-2.09-.07-2.83s0-2.06.07-3.54a11,11,0,0,1,1.27-4.89,9,9,0,0,1,3.34-3.51,9.53,9.53,0,0,1,5-1.3,10.11,10.11,0,0,1,4.87,1.18,9.16,9.16,0,0,1,3.5,3.2,8.34,8.34,0,0,1,1.31,4.42.8.8,0,0,1-.2.56.62.62,0,0,1-.48.23h-4.06a.86.86,0,0,1-.69-.22,2.35,2.35,0,0,1-.37-.82,4.5,4.5,0,0,0-1.18-2,3.74,3.74,0,0,0-2.7-.83,3.47,3.47,0,0,0-2.87,1.15,5.22,5.22,0,0,0-1,3q-.06,1.22-.06,3c0,1.15,0,2.15.06,3A5.21,5.21,0,0,0,114.08,286Z"/><path class="cls-2" d="M150.72,291.72a.85.85,0,0,1-.2.56.63.63,0,0,1-.48.23H145.1a1.16,1.16,0,0,1-.68-.2,2.6,2.6,0,0,1-.59-.63L138,283.17v8.37a1,1,0,0,1-.24.68.78.78,0,0,1-.59.29h-4.07a.77.77,0,0,1-.59-.29,1,1,0,0,1-.25-.68V268.42a1,1,0,0,1,.25-.68.77.77,0,0,1,.59-.29h4.07a.78.78,0,0,1,.59.29,1,1,0,0,1,.24.68V276l5.47-7.73a2.88,2.88,0,0,1,.49-.57,1.16,1.16,0,0,1,.75-.22h4.84a.6.6,0,0,1,.48.24.78.78,0,0,1,.2.55.87.87,0,0,1-.09.4l-7.67,10.8,8.2,11.89A.7.7,0,0,1,150.72,291.72Z"/><path class="cls-2" d="M161.24,286.78h9.81a.75.75,0,0,1,.59.29,1,1,0,0,1,.25.68v3.79a1,1,0,0,1-.25.68.75.75,0,0,1-.59.29H156.34a.77.77,0,0,1-.59-.29,1,1,0,0,1-.25-.68V268.42a1,1,0,0,1,.25-.68.77.77,0,0,1,.59-.29H170.8a.75.75,0,0,1,.59.29,1,1,0,0,1,.25.68v3.8a1,1,0,0,1-.25.67.72.72,0,0,1-.59.29h-9.56v3.87h8.88a.74.74,0,0,1,.59.28,1,1,0,0,1,.25.68v3.8a1,1,0,0,1-.25.68.74.74,0,0,1-.59.28h-8.88Z"/><path class="cls-2" d="M193.56,269.51c1.53,1.38,2.29,3.42,2.29,6.14q0,5.19-3.69,7.16l3.85,8.52a1,1,0,0,1,.09.39.85.85,0,0,1-.2.56.62.62,0,0,1-.48.23H191.2a1.16,1.16,0,0,1-.84-.27,2.15,2.15,0,0,1-.47-.7l-3.44-7.66h-2.86v7.66a1,1,0,0,1-.25.68.75.75,0,0,1-.59.29h-4.06a.75.75,0,0,1-.59-.29,1,1,0,0,1-.25-.68V268.42a1,1,0,0,1,.25-.68.75.75,0,0,1,.59-.29h8.41A9.37,9.37,0,0,1,193.56,269.51Zm-6.46,8.79c2,0,3-.88,3-2.65s-1-2.65-3-2.65h-3.51v5.3Z"/><rect class="cls-3" width="256" height="256" rx="60"/><path class="cls-1" d="M141.19,122.12H161.9V103.38H141.19Zm-24.66,0h20.71V103.38H116.53Zm-24.17,0h20.71V103.38H92.36Zm-24.17,0H88.41V103.38H68.19Zm-24.67,0H64.24V103.38H43.52ZM68.19,99.43H88.41V80.69H68.19Zm24.17,0h20.71V80.69H92.36Zm24.17,0h20.71V80.69H116.53Zm0-22.69h20.71V58H116.53Zm111.47,37s-8.88-8.39-27.13-5.43c-2-14.3-17.26-22.69-17.26-22.69s-14.31,17.27-4,36.5a33.05,33.05,0,0,1-15.29,3.46H28.73c-2.47,9.37-2.47,71.52,65.6,71.52,48.83,0,85.33-22.69,102.6-64.13C222.57,135,228,113.74,228,113.74Z"/></svg>