<svg id="Layer_1" data-name="Layer 1" xmlns="http://www.w3.org/2000/svg" viewBox="0 0 256 300"><defs><style>.cls-1{fill:#fff;}.cls-2{fill:#0d1117;}.cls-3{fill:#242938;}.cls-4{fill:#eceff1;}.cls-5{fill:#263238;}.cls-6{fill:#212121;}.cls-7{fill:#ffc107;}.cls-8{fill:#634703;}.cls-9{fill:#455a64;}</style></defs><rect class="cls-1" y="162.64" width="256" height="137.36"/><path class="cls-2" d="M91.9,287.07a1,1,0,0,1,.25.68v3.79a1,1,0,0,1-.25.68.77.77,0,0,1-.59.29H76.94a.75.75,0,0,1-.59-.29,1,1,0,0,1-.25-.68V268.42a1,1,0,0,1,.25-.68.75.75,0,0,1,.59-.29H81a.78.78,0,0,1,.59.29,1,1,0,0,1,.24.68v18.36h9.47A.77.77,0,0,1,91.9,287.07Z"/><path class="cls-2" d="M97.46,292.22a1,1,0,0,1-.25-.68V268.42a1,1,0,0,1,.25-.68.75.75,0,0,1,.59-.29h4.06a.75.75,0,0,1,.59.29,1,1,0,0,1,.25.68v23.12a1,1,0,0,1-.25.68.75.75,0,0,1-.59.29H98.05A.75.75,0,0,1,97.46,292.22Z"/><path class="cls-2" d="M123,292.24a1.38,1.38,0,0,1-.46-.56l-7.11-12.24v12.1a1,1,0,0,1-.25.68.77.77,0,0,1-.59.29h-4.07a.75.75,0,0,1-.58-.29,1,1,0,0,1-.25-.68V268.42a1,1,0,0,1,.25-.68.75.75,0,0,1,.58-.29h3.23a1.28,1.28,0,0,1,.81.27,1.58,1.58,0,0,1,.47.56l7.1,12.24v-12.1a1,1,0,0,1,.25-.68.77.77,0,0,1,.59-.29H127a.77.77,0,0,1,.59.29,1,1,0,0,1,.25.68v23.12a1,1,0,0,1-.25.68.77.77,0,0,1-.59.29h-3.23A1.28,1.28,0,0,1,123,292.24Z"/><path class="cls-2" d="M153,267.74a1,1,0,0,1,.25.68V282.7a12,12,0,0,1-1.18,5.51,8.05,8.05,0,0,1-3.31,3.47,11,11,0,0,1-9.93,0,8,8,0,0,1-3.29-3.47,12,12,0,0,1-1.17-5.51V268.42a1,1,0,0,1,.25-.68.77.77,0,0,1,.59-.29h4.07a.77.77,0,0,1,.59.29,1,1,0,0,1,.25.68v14.14a5.35,5.35,0,0,0,.94,3.38,3.75,3.75,0,0,0,5.5,0,5.35,5.35,0,0,0,.95-3.38V268.42a1,1,0,0,1,.24-.68.78.78,0,0,1,.59-.29h4.07A.77.77,0,0,1,153,267.74Z"/><path class="cls-2" d="M164.63,291.68a2.16,2.16,0,0,1-.5.63,1.22,1.22,0,0,1-.77.2h-4.72a.62.62,0,0,1-.48-.23.8.8,0,0,1-.2-.56.86.86,0,0,1,.09-.39l7.17-11.56-6.86-11.13a1.12,1.12,0,0,1-.1-.4.79.79,0,0,1,.21-.55.6.6,0,0,1,.48-.24h4.68a1.11,1.11,0,0,1,.8.26,3.58,3.58,0,0,1,.51.64l3.75,6,3.64-6a2.87,2.87,0,0,1,.51-.64,1.09,1.09,0,0,1,.79-.26h4.75a.6.6,0,0,1,.48.24.78.78,0,0,1,.2.55,1.08,1.08,0,0,1-.09.4l-6.89,11.27,7.11,11.42a.89.89,0,0,1-.11.95.65.65,0,0,1-.48.23h-4.72a1.28,1.28,0,0,1-.78-.2,2.15,2.15,0,0,1-.49-.63l-4-6.44Z"/><rect class="cls-3" width="256" height="256" rx="60"/><path class="cls-4" d="M86,199.93l24.53,13.62h37.1l34.7-26.06,15.55-40.86-35.9-43.23L151.76,79.13,102.1,80.9l.6,13.62-9.57,17.77-15,29-3,24.28Z"/><path class="cls-5" d="M187.06,114.66c-9.57-13.62-17.35-21.91-21.54-39.09s1.2-12.43-2.39-27.24a46.16,46.16,0,0,0-7.78-17.17c-3.59-4.14-7.77-6.51-10.17-7.1-5.38-3-18-7.7-33.5.59C95.52,32.94,97.32,50.7,100.31,86.82a18,18,0,0,1-1.8,7.7c-2.39,5.33-6.58,10.07-10.17,14.22C84.15,114.66,80,120.58,77,127.09c-7.18,13.62-13.76,30.79-12,37.31,3-.6,40.68,56.25,40.68,57.44,2.4-.6,12.57-.6,21.54-.6,12.57-.59,19.75-1.18,29.92,1.19,0-1.78-.6-3.55-.6-5.33a72.44,72.44,0,0,1,1.2-10.66c.6-3,1.19-5.92,1.79-9.47-6,5.32-16.75,11.25-26.92,13-9,1.78-23.94-1.18-31.12-10.06a3.61,3.61,0,0,0,2.4-.6c1.79-.59,3.59-1.18,4.19-2.36,1.79-3,.59-5.93-.6-7.7S97.32,181,93.13,177.43s-6.58-5.33-9-7.7L79.37,165c-1.2-1.19-1.8-2.37-2.4-3a21.84,21.84,0,0,1-1.19-11.25c.6-6.52,3-11.85,6-17.77,1.2-2.37,4.19-7.1,4.19-7.1s-10.17,24.87-4.79,32.57a79.88,79.88,0,0,1,3-15.4c1.8-5.33,4.79-13,8.38-17.17s12.57-19.54,13.16-29c0-4.14.6-8.29.6-11.25-2.39-2.37,39.49-8.29,41.88-1.78.6,2.37,9,23.69,13.76,34.94,2.4,5.33,5.39,10.07,7.19,16a96.46,96.46,0,0,1,3,24.28,38.9,38.9,0,0,1-.6,7.7c1.2,0,24.53-24.87-3-45.6,0,0,16.75,7.7,17.35,23.09a45.11,45.11,0,0,1-6,24.28c.6,0,12.57,5.33,13.17,5.33,2.39,0,7.18-1.77,7.18-1.77.6-1.78,2.39-6.52,2.39-8.3,4.19-13.62-6-35.52-15.56-49.14Z"/><path class="cls-4" d="M111.08,75.57c4.29,0,7.78-5.3,7.78-11.84s-3.49-11.84-7.78-11.84-7.78,5.3-7.78,11.84S106.78,75.57,111.08,75.57Z"/><path class="cls-4" d="M138,76.76c5.62,0,10.17-6.1,10.17-13.62S143.62,49.52,138,49.52s-10.17,6.1-10.17,13.62S132.38,76.76,138,76.76Z"/><path class="cls-6" d="M115.42,64.54c-.49-3.89-2.76-6.82-5-6.53s-3.75,3.68-3.26,7.57,2.76,6.82,5.06,6.53S115.92,68.43,115.42,64.54Z"/><path class="cls-6" d="M137.4,73.21c3.31,0,6-3.45,6-7.7s-2.68-7.7-6-7.7-6,3.45-6,7.7S134.1,73.21,137.4,73.21Z"/><path class="cls-7" d="M217,195.78a22.88,22.88,0,0,1-10.17-8.29c-1.8-3-1.2-11.25-4.19-14.8-1.8-2.37-4.19-1.19-4.79-1.19-5.38,1.19-18,9.48-26.32,0-1.2-1.18-3-3-6-3s-4.18,1.19-5.38,3.56-1.2,4.14-1.2,10.06a109.76,109.76,0,0,1-.59,14.21c-1.2,10.07-3,16-3,21.91,0,6.52,1.8,10.66,4.19,12.44,1.8,1.77,4.79,3,11.37,3s10.77-2.37,15-6.52c3-2.95,5.38-4.14,13.76-10.06,6.58-4.15,16.75-9.48,18.55-11.25,1.19-1.19,3-1.78,3-5.33,0-3-2.4-4.15-4.19-4.74Z"/><path class="cls-7" d="M96.72,197.56c-6-9.48-6.58-11.25-10.77-17.18-3.59-5.92-11.37-17.17-16.16-17.17-3.59,0-5.38,1.78-7.77,4.15s-4.79,7.7-9,10.66c-3.59,3-13.76,2.36-16.15,5.92s2.39,8.88,2.39,17.76c0,3.56-3,5.92-3.59,8.29-.6,3-1.2,4.74,0,7.11,2.39,3.55,5.39,4.74,25.73,8.88,10.77,2.37,20.94,8.29,27.52,8.88s18,0,18-16C107.49,209.4,102.1,207,96.72,197.56Z"/><path class="cls-7" d="M108.09,90.38c-3.59-2.37-6.59-4.74-6.59-8.29s2.4-4.74,6-7.7c.6-.59,7.18-6.51,13.76-6.51S135.61,72,138.6,73.21c5.39,1.18,10.77,2.36,10.17,6.51-.6,5.92-1.19,7.1-7.18,10.07-4.19,1.18-12,7.69-17.35,7.69a40.13,40.13,0,0,1-8.38-.59c-1.79-.59-4.78-3.55-7.77-6.51Z"/><path class="cls-8" d="M106.89,85.64a13.08,13.08,0,0,0,4.79,3,28.91,28.91,0,0,0,3,1.19h5.38c3,0,7.18-1.19,11.37-3.56,4.19-1.77,4.79-3,7.78-4.14,3-1.78,6-3.56,4.79-4.15s-2.4,0-6.59,2.37c-3.59,2.37-6.58,3.55-10.17,5.33-1.79.59-4.19,1.78-6,1.78h-5.39c-1.79,0-3-.6-4.78-1.19-1.2-.59-1.8-1.18-2.4-1.18-1.19-.59-3.58-3-4.78-3.55,0,0-1.2,0-.6.59Z"/><path class="cls-8" d="M124.84,72.61c.6,1.19,1.8,1.19,2.39,1.78a1.87,1.87,0,0,0,1.2.59,1.12,1.12,0,0,0-.6-1.77c0-1.19-3-1.19-3-.6Z"/><path class="cls-8" d="M115.27,73.8c0,.59,1.19,1.18,1.19.59.6-.59,1.2-1.18,1.8-1.18,1.2-.6.6-1.19-1.2-1.19-1.2.59-1.2,1.19-1.79,1.78Z"/><path class="cls-9" d="M173.3,178.61v1.77c1.2,2.37,4.19,3,6.58,3,3.59,0,7.18-2.37,9-4.74,0-.59.6-1.19,1.2-1.78a34.14,34.14,0,0,1,2.39-3.55,2.05,2.05,0,0,1-.6-1.18c-.6-1.19-2.39-2.37-4.79-3a26.55,26.55,0,0,0-6-1.18c-5.38-.59-8.37,1.18-10.17,3a.58.58,0,0,1,.6.59,5.35,5.35,0,0,1,1.79,4.15c.6,1.18,0,1.77,0,3Z"/></svg>