<svg id="Layer_1" data-name="Layer 1" xmlns="http://www.w3.org/2000/svg" viewBox="0 0 256 300"><defs><style>.cls-1{fill:#fff;}.cls-2{fill:#0d1117;}.cls-3{fill:#242938;}.cls-4{fill:#2f406a;}.cls-5{fill:#2379bd;}.cls-6{fill:#03afef;}</style></defs><rect class="cls-1" y="162.64" width="256" height="137.36"/><path class="cls-2" d="M48.82,274.7a.59.59,0,0,1-.45.23H44.3a1.56,1.56,0,0,1-.68-.12,2,2,0,0,1-.56-.45l-.4-.48a2.91,2.91,0,0,0-1.08-.74,4.21,4.21,0,0,0-1.69-.32,5.12,5.12,0,0,0-2.19.41,1.45,1.45,0,0,0-.85,1.42,1.34,1.34,0,0,0,.53,1.12,4.9,4.9,0,0,0,1.63.74c.73.21,2,.54,3.83,1A9.94,9.94,0,0,1,48,280.05a8,8,0,0,1,.42,9.15A7.81,7.81,0,0,1,45,291.92a12.38,12.38,0,0,1-5,.94,10.69,10.69,0,0,1-4.84-1.07A9,9,0,0,1,31.79,289a6.35,6.35,0,0,1-1.3-3.54.8.8,0,0,1,.2-.56.59.59,0,0,1,.45-.23h4.07a1.6,1.6,0,0,1,1.17.5c.07.07.23.28.5.63a3.67,3.67,0,0,0,1.23.93,4.34,4.34,0,0,0,1.94.41c2.56,0,3.85-.63,3.85-1.9a1.24,1.24,0,0,0-.55-1,5,5,0,0,0-1.53-.7c-.67-.19-1.72-.46-3.17-.82l-1.4-.32a8.35,8.35,0,0,1-4.65-2.63,7.56,7.56,0,0,1-1.49-4.92A7.25,7.25,0,0,1,32.19,271a7.92,7.92,0,0,1,3.09-2.83,10.44,10.44,0,0,1,9.21,0,9.27,9.27,0,0,1,3.27,2.74A5.85,5.85,0,0,1,49,274.15.83.83,0,0,1,48.82,274.7Z"/><path class="cls-2" d="M60.66,286.78h9.81a.77.77,0,0,1,.59.29,1,1,0,0,1,.25.68v3.79a1,1,0,0,1-.25.68.77.77,0,0,1-.59.29H55.75a.75.75,0,0,1-.58-.29,1,1,0,0,1-.25-.68V268.42a1,1,0,0,1,.25-.68.75.75,0,0,1,.58-.29H70.22a.77.77,0,0,1,.59.29,1,1,0,0,1,.25.68v3.79a1,1,0,0,1-.25.68.74.74,0,0,1-.59.29H60.66v3.87h8.88a.77.77,0,0,1,.59.28,1,1,0,0,1,.24.68v3.8a1,1,0,0,1-.24.68.77.77,0,0,1-.59.28H60.66Z"/><path class="cls-2" d="M91.33,268.38a8.79,8.79,0,0,1,3.3,3.49,11.44,11.44,0,0,1,1.29,4.93c0,.66.06,1.74.06,3.22s0,2.5-.06,3.15a10.65,10.65,0,0,1-2.3,6.47l2.46,4.08a1,1,0,0,1,.09.33v.1a.66.66,0,0,1-.19.49.57.57,0,0,1-.43.19H91.17a1.22,1.22,0,0,1-.79-.23,2,2,0,0,1-.51-.59l-.87-1.5a11.47,11.47,0,0,1-2.76.35,9.65,9.65,0,0,1-5.09-1.28,8.88,8.88,0,0,1-3.31-3.49,11.43,11.43,0,0,1-1.29-4.92q-.06-1.94-.06-3.15c0-.81,0-1.89.06-3.22a11.44,11.44,0,0,1,1.29-4.93,8.88,8.88,0,0,1,3.31-3.49,10.76,10.76,0,0,1,10.18,0ZM89.05,274a4.06,4.06,0,0,0-5.62,0,5.18,5.18,0,0,0-1.14,3q-.09,1.18-.09,3c0,1.17,0,2.19.09,3.05a5.18,5.18,0,0,0,1.14,3,4.06,4.06,0,0,0,5.62,0,5.17,5.17,0,0,0,1.13-3c.06-.86.09-1.88.09-3.05s0-2.18-.09-3A5.17,5.17,0,0,0,89.05,274Z"/><path class="cls-2" d="M120.35,267.74a1,1,0,0,1,.25.68V282.7a12,12,0,0,1-1.18,5.51,8.05,8.05,0,0,1-3.31,3.47,11,11,0,0,1-9.93,0,8,8,0,0,1-3.29-3.47,12,12,0,0,1-1.17-5.51V268.42a1,1,0,0,1,.25-.68.78.78,0,0,1,.59-.29h4.07a.77.77,0,0,1,.59.29,1,1,0,0,1,.25.68v14.14a5.35,5.35,0,0,0,.94,3.38,3.75,3.75,0,0,0,5.5,0,5.35,5.35,0,0,0,.94-3.38V268.42a1,1,0,0,1,.25-.68.78.78,0,0,1,.59-.29h4.07A.77.77,0,0,1,120.35,267.74Z"/><path class="cls-2" d="M132.86,286.78h9.81a.78.78,0,0,1,.59.29,1,1,0,0,1,.25.68v3.79a1,1,0,0,1-.25.68.78.78,0,0,1-.59.29H128a.78.78,0,0,1-.59-.29,1,1,0,0,1-.24-.68V268.42a1,1,0,0,1,.24-.68.78.78,0,0,1,.59-.29h14.47a.77.77,0,0,1,.59.29,1,1,0,0,1,.25.68v3.79a1,1,0,0,1-.25.68.74.74,0,0,1-.59.29h-9.56v3.87h8.88a.77.77,0,0,1,.59.28,1,1,0,0,1,.24.68v3.8a1,1,0,0,1-.24.68.77.77,0,0,1-.59.28h-8.88Z"/><path class="cls-2" d="M165.26,287.07a1,1,0,0,1,.25.68v3.79a1,1,0,0,1-.25.68.75.75,0,0,1-.59.29H150.3a.78.78,0,0,1-.59-.29,1,1,0,0,1-.24-.68V268.42a1,1,0,0,1,.24-.68.78.78,0,0,1,.59-.29h4.07a.77.77,0,0,1,.59.29,1,1,0,0,1,.25.68v18.36h9.46A.75.75,0,0,1,165.26,287.07Z"/><path class="cls-2" d="M170.82,292.22a1,1,0,0,1-.25-.68V268.42a1,1,0,0,1,.25-.68.77.77,0,0,1,.59-.29h4.07a.78.78,0,0,1,.59.29,1,1,0,0,1,.24.68v23.12a1,1,0,0,1-.24.68.78.78,0,0,1-.59.29h-4.07A.77.77,0,0,1,170.82,292.22Z"/><path class="cls-2" d="M200.15,287.07a1,1,0,0,1,.25.68v3.79a1,1,0,0,1-.25.68.75.75,0,0,1-.59.29H182.93a.75.75,0,0,1-.59-.29,1,1,0,0,1-.25-.68v-3.61a1.56,1.56,0,0,1,.12-.68,5.66,5.66,0,0,1,.34-.58l9.94-13.49h-9.25a.72.72,0,0,1-.59-.29,1,1,0,0,1-.25-.68v-3.79a1,1,0,0,1,.25-.68.75.75,0,0,1,.59-.29h16a.75.75,0,0,1,.59.29,1,1,0,0,1,.25.68V272a1.84,1.84,0,0,1-.4,1.19l-9.93,13.56h9.8A.75.75,0,0,1,200.15,287.07Z"/><path class="cls-2" d="M211.92,286.78h9.81a.78.78,0,0,1,.59.29,1,1,0,0,1,.25.68v3.79a1,1,0,0,1-.25.68.78.78,0,0,1-.59.29H207a.78.78,0,0,1-.59-.29,1,1,0,0,1-.24-.68V268.42a1,1,0,0,1,.24-.68.78.78,0,0,1,.59-.29h14.47a.77.77,0,0,1,.59.29,1,1,0,0,1,.25.68v3.79a1,1,0,0,1-.25.68.74.74,0,0,1-.59.29h-9.56v3.87h8.88a.77.77,0,0,1,.59.28,1,1,0,0,1,.24.68v3.8a1,1,0,0,1-.24.68.77.77,0,0,1-.59.28h-8.88Z"/><rect class="cls-3" width="256" height="256" rx="60"/><path class="cls-4" d="M192,92v72l-63.87,35.84-.58.52v27.14l.58.51L218,178.27V78h-.86L191.8,91.58v.56"/><path class="cls-5" d="M63.62,164.41l64.52,35.64V228L37,178V78h.92L63.35,92.1l.27.82v71.8"/><path class="cls-6" d="M63.78,92.56,37,77.84,127.75,28,218,77.63l-26.09,14L127.64,56.67l-64,35.78"/><path class="cls-4" d="M126.94,155.85l-.7-.66V128.47l.7-.35v-.66l24.49-13.38h.76v27.57l-25.41,14.1"/><path class="cls-5" d="M101.14,143.09v-29h.71l25,13.75v28.65l-25.95-13.4"/><path class="cls-6" d="M126.66,99.68l-25.1,14.55,25.53,14.4,25.1-14.34L126.66,99.52"/><path class="cls-4" d="M95.9,174.2l-.67-.66V146.39l.67-.36v-.66l23.29-13.57h.72v28L95.74,174.05"/><path class="cls-5" d="M69.91,160.8v-29h.71l25.24,13.76V174.2L69.91,160.8"/><path class="cls-6" d="M95.07,117.29,69.91,131.8l25.53,14.55L120.54,132,95,117.24"/><path class="cls-4" d="M159.85,174.84l-.7-.66V147.44l.7-.35v-.66l24.49-13.37h.76v27.55l-25.41,14.07"/><path class="cls-5" d="M134.58,161.43v-29h.81l25,13.76v28.65l-25.95-13.41"/><path class="cls-6" d="M159.89,117.87,135.1,132.11l25.21,14.24,24.79-14Z"/><path class="cls-4" d="M128.84,192.56l-.7-.67V164.75l.7-.36v-.67l24.49-13.57h.76v28L128.68,192.4"/><path class="cls-5" d="M102.82,179.11v-29h.72l25.23,13.76v28.65L102.83,179.1"/><path class="cls-6" d="M128.27,135.6l-25.45,14.34,25.88,14.14,25.39-14.14L128.26,135.6"/><path class="cls-4" d="M126.94,117.87l-.7-.66V90.1l.7-.36v-.67l24.49-13.6h.76v28Z"/><path class="cls-5" d="M101.14,104.55V75.47h.71l25,13.79v28.61l-25.95-13.43"/><path class="cls-6" d="M126.66,61.54l-25.1,14.24L127.09,90l25.1-14Z"/><path class="cls-4" d="M95.9,135.6l-.67-.68V107.3l.67-.36v-.68l23.29-13.7h.72V120.8L95.74,135.23"/><path class="cls-5" d="M69.91,122.2v-29h.71L95.86,107V135.6L69.91,122.2"/><path class="cls-6" d="M95.07,78.63,69.91,92.8l25.53,14.31,25.1-14L95,78.69"/><path class="cls-4" d="M159.85,136.86l-.7-.68V108.65l.7-.36v-.68l24.49-13.79h.76v28.41l-25.41,14.52"/><path class="cls-5" d="M135.1,123.4V93.82h.78l23.91,13.93v29.11Z"/><path class="cls-6" d="M159.89,79.27,135.1,93.51l25.21,14.24,24.79-14L159.89,79.27"/><path class="cls-4" d="M128.84,154l-.7-.68V125.78l.7-.37v-.68l24.49-13.82h.76v28.48L128.84,154"/><path class="cls-5" d="M102.82,140.45V110.91h.72l25.23,14v29Z"/><path class="cls-6" d="M128.29,97,102.82,111.2l25.85,14.27,25.42-14.06L128.3,97"/></svg>