<svg id="Layer_1" data-name="Layer 1" xmlns="http://www.w3.org/2000/svg" viewBox="0 0 256 300"><defs><style>.cls-1{fill:#fff;}.cls-2{fill:#0d1117;}.cls-3{fill:#001e36;}.cls-4{fill:#31a8ff;}</style></defs><rect class="cls-1" y="162.64" width="256" height="137.36"/><path class="cls-2" d="M38.45,269.58c1.52,1.42,2.28,3.51,2.28,6.25a8.19,8.19,0,0,1-2.28,6.26,8.87,8.87,0,0,1-6.32,2.15h-4v7.3a1,1,0,0,1-.25.68.75.75,0,0,1-.59.29H23.25a.75.75,0,0,1-.58-.29,1,1,0,0,1-.25-.68V268.42a1,1,0,0,1,.25-.68.75.75,0,0,1,.58-.29h8.88A8.9,8.9,0,0,1,38.45,269.58ZM32,278.66a3.31,3.31,0,0,0,2.19-.7,3.18,3.18,0,0,0,0-4.26A3.25,3.25,0,0,0,32,273H28.16v5.66Z"/><path class="cls-2" d="M64.23,267.74a1,1,0,0,1,.25.68v23.12a1,1,0,0,1-.25.68.77.77,0,0,1-.59.29H59.57a.77.77,0,0,1-.59-.29,1,1,0,0,1-.25-.68v-8.77H51.84v8.77a1,1,0,0,1-.25.68.75.75,0,0,1-.59.29H46.94a.76.76,0,0,1-.59-.27,1,1,0,0,1-.25-.7V268.42a1,1,0,0,1,.25-.68.75.75,0,0,1,.59-.29H51a.75.75,0,0,1,.59.29,1,1,0,0,1,.25.68v8.63h6.89v-8.63a1,1,0,0,1,.25-.68.77.77,0,0,1,.59-.29h4.07A.77.77,0,0,1,64.23,267.74Z"/><path class="cls-2" d="M84.9,268.38a8.88,8.88,0,0,1,3.31,3.49,11.73,11.73,0,0,1,1.29,4.93c0,.66.06,1.74.06,3.22s0,2.5-.06,3.15a11.72,11.72,0,0,1-1.29,4.92,8.88,8.88,0,0,1-3.31,3.49,10.69,10.69,0,0,1-10.18,0,8.88,8.88,0,0,1-3.31-3.49,11.57,11.57,0,0,1-1.28-4.92c0-1.29-.07-2.34-.07-3.15s0-1.89.07-3.22a11.58,11.58,0,0,1,1.28-4.93,8.88,8.88,0,0,1,3.31-3.49,10.76,10.76,0,0,1,10.18,0ZM82.62,274A4.06,4.06,0,0,0,77,274a5.1,5.1,0,0,0-1.13,3c-.06.79-.09,1.78-.09,3s0,2.18.09,3A5.1,5.1,0,0,0,77,286a4.06,4.06,0,0,0,5.62,0,5.1,5.1,0,0,0,1.13-3c.07-.86.1-1.88.1-3s0-2.19-.1-3A5.1,5.1,0,0,0,82.62,274Z"/><path class="cls-2" d="M111.69,267.74a1,1,0,0,1,.25.68v3.79a1,1,0,0,1-.25.68.74.74,0,0,1-.59.29h-5.46v18.36a1,1,0,0,1-.25.68.77.77,0,0,1-.59.29h-4.07a.77.77,0,0,1-.59-.29,1,1,0,0,1-.25-.68V273.18H94.43a.74.74,0,0,1-.59-.29,1,1,0,0,1-.25-.68v-3.79a1,1,0,0,1,.25-.68.77.77,0,0,1,.59-.29H111.1A.77.77,0,0,1,111.69,267.74Z"/><path class="cls-2" d="M131.18,268.38a8.88,8.88,0,0,1,3.31,3.49,11.73,11.73,0,0,1,1.29,4.93c0,.66.06,1.74.06,3.22s0,2.5-.06,3.15a11.72,11.72,0,0,1-1.29,4.92,8.88,8.88,0,0,1-3.31,3.49,10.69,10.69,0,0,1-10.18,0,8.79,8.79,0,0,1-3.3-3.49,11.43,11.43,0,0,1-1.29-4.92q-.06-1.94-.06-3.15c0-.81,0-1.89.06-3.22a11.44,11.44,0,0,1,1.29-4.93,8.79,8.79,0,0,1,3.3-3.49,10.76,10.76,0,0,1,10.18,0ZM128.9,274a4.06,4.06,0,0,0-5.62,0,5.1,5.1,0,0,0-1.13,3c-.06.79-.09,1.78-.09,3s0,2.18.09,3a5.1,5.1,0,0,0,1.13,3,4.06,4.06,0,0,0,5.62,0,5.1,5.1,0,0,0,1.13-3c.07-.86.1-1.88.1-3s0-2.19-.1-3A5.1,5.1,0,0,0,128.9,274Z"/><path class="cls-2" d="M158.79,274.7a.56.56,0,0,1-.45.23h-4.06a1.64,1.64,0,0,1-.69-.12,2.19,2.19,0,0,1-.56-.45l-.4-.48a2.87,2.87,0,0,0-1.07-.74,4.24,4.24,0,0,0-1.69-.32,5.12,5.12,0,0,0-2.19.41,1.45,1.45,0,0,0-.85,1.42,1.36,1.36,0,0,0,.52,1.13,5.34,5.34,0,0,0,1.63.73c.74.21,2,.54,3.84,1a10,10,0,0,1,5.15,2.57,8,8,0,0,1,.42,9.15,7.83,7.83,0,0,1-3.42,2.72,12.31,12.31,0,0,1-4.95.95,10.72,10.72,0,0,1-4.84-1.08,8.88,8.88,0,0,1-3.41-2.79,6.34,6.34,0,0,1-1.31-3.54.81.81,0,0,1,.21-.56.59.59,0,0,1,.45-.23h4.06a1.61,1.61,0,0,1,1.18.5l.5.63a3.72,3.72,0,0,0,1.22.93,4.37,4.37,0,0,0,1.94.41c2.57,0,3.85-.63,3.85-1.9a1.25,1.25,0,0,0-.54-1,4.94,4.94,0,0,0-1.54-.7c-.66-.19-1.71-.46-3.16-.82l-1.4-.32a8.42,8.42,0,0,1-4.66-2.63,7.62,7.62,0,0,1-1.49-4.92,7.26,7.26,0,0,1,1.09-3.85,7.79,7.79,0,0,1,3.09-2.83,10.42,10.42,0,0,1,9.2,0,9.31,9.31,0,0,1,3.28,2.74,5.91,5.91,0,0,1,1.25,3.22A.78.78,0,0,1,158.79,274.7Z"/><path class="cls-2" d="M183.24,267.74a1,1,0,0,1,.25.68v23.12a1,1,0,0,1-.25.68.77.77,0,0,1-.59.29h-4.07a.77.77,0,0,1-.59-.29,1,1,0,0,1-.25-.68v-8.77h-6.89v8.77a1,1,0,0,1-.25.68.75.75,0,0,1-.59.29H166a.76.76,0,0,1-.59-.27,1,1,0,0,1-.25-.7V268.42a1,1,0,0,1,.25-.68.75.75,0,0,1,.59-.29H170a.75.75,0,0,1,.59.29,1,1,0,0,1,.25.68v8.63h6.89v-8.63a1,1,0,0,1,.25-.68.77.77,0,0,1,.59-.29h4.07A.77.77,0,0,1,183.24,267.74Z"/><path class="cls-2" d="M204.28,268.38a8.88,8.88,0,0,1,3.31,3.49,11.73,11.73,0,0,1,1.29,4.93c0,.66.06,1.74.06,3.22s0,2.5-.06,3.15a11.72,11.72,0,0,1-1.29,4.92,8.88,8.88,0,0,1-3.31,3.49,10.69,10.69,0,0,1-10.18,0,8.88,8.88,0,0,1-3.31-3.49,11.57,11.57,0,0,1-1.28-4.92c0-1.29-.07-2.34-.07-3.15s0-1.89.07-3.22a11.58,11.58,0,0,1,1.28-4.93,8.88,8.88,0,0,1,3.31-3.49,10.76,10.76,0,0,1,10.18,0ZM202,274a4.06,4.06,0,0,0-5.62,0,5.1,5.1,0,0,0-1.13,3c-.06.79-.09,1.78-.09,3s0,2.18.09,3a5.1,5.1,0,0,0,1.13,3,4.06,4.06,0,0,0,5.62,0,5.1,5.1,0,0,0,1.13-3c.07-.86.1-1.88.1-3s0-2.19-.1-3A5.1,5.1,0,0,0,202,274Z"/><path class="cls-2" d="M230.28,269.58c1.52,1.42,2.28,3.51,2.28,6.25a8.19,8.19,0,0,1-2.28,6.26,8.87,8.87,0,0,1-6.32,2.15h-4v7.3a1,1,0,0,1-.25.68.77.77,0,0,1-.59.29h-4.07a.78.78,0,0,1-.59-.29,1,1,0,0,1-.24-.68V268.42a1,1,0,0,1,.24-.68.78.78,0,0,1,.59-.29H224A8.9,8.9,0,0,1,230.28,269.58Zm-6.47,9.08A3.26,3.26,0,0,0,226,278a3.15,3.15,0,0,0,0-4.26,3.21,3.21,0,0,0-2.18-.7H220v5.66Z"/><rect class="cls-3" width="256" height="256" rx="60"/><path class="cls-4" d="M57.6,178V68.28c0-.75.32-1.17,1.07-1.17,1.81,0,3.52,0,6-.11s5.23-.11,8.11-.21,6-.11,9.28-.22,6.5-.1,9.7-.1c8.75,0,16,1.06,22,3.3A38.13,38.13,0,0,1,128,78.52a34,34,0,0,1,7.79,12.16,40.84,40.84,0,0,1,2.45,13.87q0,13.76-6.4,22.72a36.58,36.58,0,0,1-17.17,13c-7.26,2.67-15.26,3.63-24,3.63-2.56,0-4.27,0-5.34-.11s-2.56-.11-4.58-.11v34.24a1.34,1.34,0,0,1-1.18,1.5H58.88C58,179.43,57.6,179,57.6,178ZM80.85,87.69v35.84c1.5.11,2.88.22,4.16.22h5.66a39.77,39.77,0,0,0,12.26-1.92,18.33,18.33,0,0,0,8.75-5.66c2.24-2.66,3.31-6.29,3.31-11a17.61,17.61,0,0,0-2.46-9.5,15.51,15.51,0,0,0-7.46-6.08,31.28,31.28,0,0,0-12.59-2.13c-2.77,0-5.23,0-7.25.11A25,25,0,0,0,80.85,87.69Z"/><path class="cls-4" d="M204.8,117a37.72,37.72,0,0,0-10.24-3.63A56.45,56.45,0,0,0,182.61,112a21.84,21.84,0,0,0-6.4.75,5.49,5.49,0,0,0-3.3,2.13,5.62,5.62,0,0,0-.86,2.88,4.78,4.78,0,0,0,1.07,2.78,12.11,12.11,0,0,0,3.63,2.88c2.45,1.28,5,2.45,7.57,3.52a77.26,77.26,0,0,1,16.43,7.78,24.74,24.74,0,0,1,8.42,8.86,23,23,0,0,1,2.46,11,24.89,24.89,0,0,1-4.16,14.19,26.73,26.73,0,0,1-11.95,9.49c-5.23,2.24-11.63,3.42-19.31,3.42a73.46,73.46,0,0,1-14.5-1.39,42.89,42.89,0,0,1-10.88-3.41,2.12,2.12,0,0,1-1.18-2V156.28a1.16,1.16,0,0,1,.43-1,.81.81,0,0,1,1,.11,45.5,45.5,0,0,0,13.23,5.22,49.48,49.48,0,0,0,12.58,1.6c4.06,0,6.94-.53,8.86-1.49a5,5,0,0,0,2.88-4.48c0-1.49-.86-2.88-2.56-4.27s-5.23-3-10.46-5a65.15,65.15,0,0,1-15.14-7.68,27.64,27.64,0,0,1-8.11-9.07,22.78,22.78,0,0,1-2.45-10.88,25.12,25.12,0,0,1,3.62-12.9,26.39,26.39,0,0,1,11.2-9.82c5-2.56,11.31-3.73,18.88-3.73a91.9,91.9,0,0,1,13.23,1A37.8,37.8,0,0,1,206,96.33a1.89,1.89,0,0,1,1.07,1,5.26,5.26,0,0,1,.21,1.28V116a1.32,1.32,0,0,1-.53,1.07A2.89,2.89,0,0,1,204.8,117Z"/></svg>