<svg id="Layer_1" data-name="Layer 1" xmlns="http://www.w3.org/2000/svg" viewBox="0 0 256 300"><defs><style>.cls-1{fill:#fff;}.cls-2{fill:#0d1117;}.cls-3{fill:#242938;}.cls-4{fill:#81cd39;}</style></defs><rect class="cls-1" y="162.64" width="256" height="137.36"/><path class="cls-2" d="M66,292.24a1.46,1.46,0,0,1-.47-.55l-7.11-12.25v12.1a1,1,0,0,1-.25.68.75.75,0,0,1-.59.29H53.49a.75.75,0,0,1-.59-.29,1,1,0,0,1-.25-.68V268.42a1,1,0,0,1,.25-.68.75.75,0,0,1,.59-.29h3.23a1.23,1.23,0,0,1,.8.27,1.48,1.48,0,0,1,.47.56l7.11,12.24v-12.1a1,1,0,0,1,.25-.68.75.75,0,0,1,.59-.29H70a.75.75,0,0,1,.59.29,1,1,0,0,1,.25.68v23.12a1,1,0,0,1-.25.68.75.75,0,0,1-.59.29H66.77A1.23,1.23,0,0,1,66,292.24Z"/><path class="cls-2" d="M91.64,268.39a8.77,8.77,0,0,1,3.3,3.48,11.44,11.44,0,0,1,1.29,4.93c0,.66.06,1.74.06,3.22s0,2.5-.06,3.15a11.43,11.43,0,0,1-1.29,4.92,8.79,8.79,0,0,1-3.3,3.49,10.69,10.69,0,0,1-10.18,0,8.82,8.82,0,0,1-3.31-3.49,11.43,11.43,0,0,1-1.29-4.92q-.06-1.94-.06-3.15c0-.81,0-1.89.06-3.22a11.44,11.44,0,0,1,1.29-4.93,8.79,8.79,0,0,1,3.31-3.48,10.69,10.69,0,0,1,10.18,0ZM89.36,274a4.06,4.06,0,0,0-5.62,0,5.18,5.18,0,0,0-1.14,3q-.09,1.17-.09,3c0,1.16,0,2.18.09,3a5.18,5.18,0,0,0,1.14,3,4.06,4.06,0,0,0,5.62,0,5.17,5.17,0,0,0,1.13-3c.06-.86.09-1.88.09-3s0-2.19-.09-3A5.18,5.18,0,0,0,89.36,274Z"/><path class="cls-2" d="M121.19,280c0,.38,0,1.21-.06,2.5a11.65,11.65,0,0,1-1.32,5.19,9,9,0,0,1-3.37,3.53,9.55,9.55,0,0,1-5,1.27h-8.38a.77.77,0,0,1-.59-.29,1,1,0,0,1-.25-.68V268.42a1,1,0,0,1,.25-.68.77.77,0,0,1,.59-.29h8.23a9.78,9.78,0,0,1,5,1.28,9,9,0,0,1,3.44,3.54,11.34,11.34,0,0,1,1.36,5.17Q121.19,279.45,121.19,280ZM108,273.18v13.6h3.32c2.6,0,4-1.37,4.06-4.11,0-1.39.06-2.29.06-2.72s0-1.36-.06-2.65a4.4,4.4,0,0,0-1.16-3.08,4.23,4.23,0,0,0-3.06-1Z"/><path class="cls-2" d="M132.83,286.78h9.8a.75.75,0,0,1,.59.29,1,1,0,0,1,.25.68v3.79a1,1,0,0,1-.25.68.75.75,0,0,1-.59.29H127.92a.77.77,0,0,1-.59-.29,1,1,0,0,1-.25-.68V268.42a1,1,0,0,1,.25-.68.77.77,0,0,1,.59-.29h14.47a.77.77,0,0,1,.59.29,1,1,0,0,1,.24.68v3.8a1,1,0,0,1-.24.67.74.74,0,0,1-.59.29h-9.56v3.87h8.88a.77.77,0,0,1,.59.28,1,1,0,0,1,.24.68v3.8a1,1,0,0,1-.24.68.77.77,0,0,1-.59.28h-8.88Z"/><path class="cls-2" d="M154.34,292.22a.77.77,0,0,1-.59.29h-4.07a.77.77,0,0,1-.59-.29,1,1,0,0,1-.25-.68v-4.69a1,1,0,0,1,.25-.68.76.76,0,0,1,.59-.28h4.07a.76.76,0,0,1,.59.28,1,1,0,0,1,.25.68v4.69A1,1,0,0,1,154.34,292.22Z"/><path class="cls-2" d="M176.59,288.55a8,8,0,0,1-3.35,3.22,10,10,0,0,1-4.65,1.1,10.58,10.58,0,0,1-4.74-1,7.89,7.89,0,0,1-3.29-3,8.35,8.35,0,0,1-1.22-4.44.8.8,0,0,1,.2-.56.62.62,0,0,1,.48-.23h4a1.1,1.1,0,0,1,.76.2,2,2,0,0,1,.39.84,3.44,3.44,0,0,0,1.18,1.86,3.67,3.67,0,0,0,2.27.61,3.33,3.33,0,0,0,2.63-1,4.32,4.32,0,0,0,.9-2.95v-10H161.51a.72.72,0,0,1-.59-.29,1,1,0,0,1-.25-.67v-3.8a1,1,0,0,1,.25-.68.75.75,0,0,1,.59-.29H177a.78.78,0,0,1,.59.29,1,1,0,0,1,.25.68v15A10.07,10.07,0,0,1,176.59,288.55Z"/><path class="cls-2" d="M201.38,274.7a.6.6,0,0,1-.45.24h-4.07a1.58,1.58,0,0,1-.68-.13,2,2,0,0,1-.56-.45l-.4-.48a3,3,0,0,0-1.07-.74,4.24,4.24,0,0,0-1.69-.32,5.12,5.12,0,0,0-2.19.41,1.46,1.46,0,0,0-.86,1.42,1.37,1.37,0,0,0,.53,1.13,5,5,0,0,0,1.63.73c.73.21,2,.54,3.83,1a10,10,0,0,1,5.16,2.57,8.08,8.08,0,0,1,.42,9.15,7.83,7.83,0,0,1-3.42,2.72,12.38,12.38,0,0,1-4.95.95,10.72,10.72,0,0,1-4.84-1.08,9,9,0,0,1-3.42-2.79,6.4,6.4,0,0,1-1.3-3.54.85.85,0,0,1,.2-.56.62.62,0,0,1,.45-.23h4.07a1.63,1.63,0,0,1,1.18.5l.49.63a3.67,3.67,0,0,0,1.23.93,4.37,4.37,0,0,0,1.94.41c2.57,0,3.85-.63,3.85-1.9a1.25,1.25,0,0,0-.54-1,5.17,5.17,0,0,0-1.54-.7c-.66-.19-1.72-.46-3.17-.82l-1.39-.32a8.38,8.38,0,0,1-4.66-2.63,7.62,7.62,0,0,1-1.49-4.92,7.17,7.17,0,0,1,1.09-3.85,7.79,7.79,0,0,1,3.09-2.83,10.42,10.42,0,0,1,9.2,0,9.18,9.18,0,0,1,3.27,2.74,5.85,5.85,0,0,1,1.26,3.22A.83.83,0,0,1,201.38,274.7Z"/><rect class="cls-3" width="256" height="256" rx="60"/><path class="cls-4" d="M119.88,31.12a16.62,16.62,0,0,1,16.24,0q37.08,21,74.17,41.89A15.26,15.26,0,0,1,218,86.16v84.05a15.43,15.43,0,0,1-8.29,13.43l-73.91,41.7a16.14,16.14,0,0,1-16.41-.46L97.21,212.06c-1.51-.9-3.21-1.62-4.28-3.08.95-1.27,2.63-1.43,4-2a51.54,51.54,0,0,0,8.75-4.08,2,2,0,0,1,2.28.14c6.31,3.62,12.58,7.35,18.91,10.94,1.36.78,2.73-.26,3.88-.9q36.27-20.51,72.57-41a2.41,2.41,0,0,0,1.32-2.36q0-41.58,0-83.18A2.62,2.62,0,0,0,203.1,84q-36.84-20.74-73.65-41.51a2.58,2.58,0,0,0-2.9,0Q89.73,63.24,52.91,84a2.57,2.57,0,0,0-1.55,2.58v83.18a2.34,2.34,0,0,0,1.33,2.34q9.83,5.56,19.67,11.11c3.69,2,8.23,3.16,12.3,1.64a9.32,9.32,0,0,0,6-8.76c0-27.57,0-55.13,0-82.69A2.07,2.07,0,0,1,93,91.29c3.15,0,6.3,0,9.45,0a2.18,2.18,0,0,1,2.06,2.52c0,27.74,0,55.47,0,83.21,0,7.39-3,15.44-9.86,19.05-8.43,4.37-18.84,3.44-27.16-.74-7.2-3.6-14.08-7.84-21.16-11.69A15.43,15.43,0,0,1,38,170.21V86.16a15.29,15.29,0,0,1,8-13.32Z"/><path class="cls-4" d="M141.37,89.34c10.75-.7,22.25-.41,31.92,4.88,7.49,4.06,11.64,12.57,11.77,20.89a2.26,2.26,0,0,1-2.46,1.66c-3.11,0-6.23,0-9.35,0-1.32,0-2.09-1.17-2.26-2.34-.89-4-3.06-7.92-6.81-9.84-5.75-2.88-12.41-2.73-18.68-2.67-4.58.24-9.5.64-13.38,3.33-3,2-3.88,6.15-2.82,9.47,1,2.38,3.75,3.15,6,3.85,12.95,3.39,26.67,3,39.37,7.51,5.26,1.82,10.4,5.35,12.21,10.85,2.35,7.38,1.32,16.21-3.93,22.13-4.26,4.87-10.46,7.53-16.65,9a80.22,80.22,0,0,1-25.12,1.07c-7.86-.9-16-3-22.1-8.32-5.19-4.5-7.72-11.52-7.47-18.29a2.1,2.1,0,0,1,2.3-1.85c3.14,0,6.28,0,9.41,0a2.19,2.19,0,0,1,2.25,2.17c.58,3.79,2,7.77,5.31,10,6.38,4.12,14.39,3.83,21.7,4,6-.27,12.85-.35,17.78-4.35,2.61-2.28,3.38-6.1,2.68-9.38-.77-2.78-3.67-4.07-6.16-4.91-12.78-4-26.66-2.58-39.31-7.15-5.14-1.82-10.11-5.25-12.09-10.53C112.73,113,114,103.73,119.79,98c5.65-5.7,13.82-7.89,21.58-8.68h0"/></svg>