<svg id="Layer_1" data-name="Layer 1" xmlns="http://www.w3.org/2000/svg" xmlns:xlink="http://www.w3.org/1999/xlink" viewBox="0 0 256 300"><defs><style>.cls-1{fill:#fff;}.cls-2{fill:#0d1117;}.cls-3{fill:#242938;}.cls-4{fill:url(#linear-gradient);}.cls-5{fill:url(#linear-gradient-2);}</style><linearGradient id="linear-gradient" x1="46.62" y1="-1106.19" x2="145.73" y2="-1204.31" gradientTransform="matrix(1, 0, 0, -1, 0, -1058.68)" gradientUnits="userSpaceOnUse"><stop offset="0" stop-color="#387eb8"/><stop offset="1" stop-color="#366994"/></linearGradient><linearGradient id="linear-gradient-2" x1="107.49" y1="-1169.18" x2="213.93" y2="-1269.8" gradientTransform="matrix(1, 0, 0, -1, 0, -1058.68)" gradientUnits="userSpaceOnUse"><stop offset="0" stop-color="#ffe052"/><stop offset="1" stop-color="#ffc331"/></linearGradient></defs><rect class="cls-1" y="162.64" width="256" height="137.36"/><path class="cls-2" d="M74,269.58c1.53,1.42,2.29,3.51,2.29,6.25s-.76,4.83-2.29,6.26a8.84,8.84,0,0,1-6.31,2.15h-4v7.3a1,1,0,0,1-.24.68.78.78,0,0,1-.59.29H58.78a.77.77,0,0,1-.59-.29,1,1,0,0,1-.25-.68V268.42a1,1,0,0,1,.25-.68.77.77,0,0,1,.59-.29h8.88A8.88,8.88,0,0,1,74,269.58Zm-6.47,9.08a3.31,3.31,0,0,0,2.19-.7,2.65,2.65,0,0,0,.82-2.13,2.62,2.62,0,0,0-.82-2.13,3.25,3.25,0,0,0-2.19-.7H63.68v5.66Z"/><path class="cls-2" d="M92.74,292.22a.77.77,0,0,1-.59.29H88.08a.77.77,0,0,1-.59-.29,1,1,0,0,1-.25-.68v-7.62l-7.17-15.21a1.13,1.13,0,0,1-.12-.47.83.83,0,0,1,.2-.55.63.63,0,0,1,.48-.24h4.26a1.22,1.22,0,0,1,.85.31,1.75,1.75,0,0,1,.45.59l3.91,8.8,3.94-8.8a1.75,1.75,0,0,1,.45-.59,1.22,1.22,0,0,1,.86-.31H99.6a.63.63,0,0,1,.48.24.83.83,0,0,1,.2.55,1.13,1.13,0,0,1-.12.47L93,283.92v7.62A1,1,0,0,1,92.74,292.22Z"/><path class="cls-2" d="M123.47,267.74a1,1,0,0,1,.25.68v23.12a1,1,0,0,1-.25.68.77.77,0,0,1-.59.29h-4.07a.77.77,0,0,1-.59-.29,1,1,0,0,1-.25-.68v-8.77h-6.89v8.77a1,1,0,0,1-.25.68.75.75,0,0,1-.59.29h-4.06a.76.76,0,0,1-.59-.27,1,1,0,0,1-.25-.7V268.42a1,1,0,0,1,.25-.68.75.75,0,0,1,.59-.29h4.06a.75.75,0,0,1,.59.29,1,1,0,0,1,.25.68v8.63H118v-8.63a1,1,0,0,1,.25-.68.77.77,0,0,1,.59-.29h4.07A.77.77,0,0,1,123.47,267.74Z"/><path class="cls-2" d="M146.63,267.74a1,1,0,0,1,.24.68v3.79a1,1,0,0,1-.24.68.75.75,0,0,1-.59.29h-5.47v18.36a1,1,0,0,1-.25.68.75.75,0,0,1-.59.29h-4.06a.75.75,0,0,1-.59-.29,1,1,0,0,1-.25-.68V273.18h-5.46a.72.72,0,0,1-.59-.29,1,1,0,0,1-.25-.68v-3.79a1,1,0,0,1,.25-.68.75.75,0,0,1,.59-.29H146A.78.78,0,0,1,146.63,267.74Z"/><path class="cls-2" d="M166.12,268.38a8.79,8.79,0,0,1,3.3,3.49,11.44,11.44,0,0,1,1.29,4.93c0,.66.06,1.74.06,3.22s0,2.5-.06,3.15a11.43,11.43,0,0,1-1.29,4.92,8.79,8.79,0,0,1-3.3,3.49,10.76,10.76,0,0,1-10.18,0,8.88,8.88,0,0,1-3.31-3.49,11.43,11.43,0,0,1-1.29-4.92q-.06-1.94-.06-3.15c0-.81,0-1.89.06-3.22a11.44,11.44,0,0,1,1.29-4.93,8.88,8.88,0,0,1,3.31-3.49,10.76,10.76,0,0,1,10.18,0ZM163.84,274a4.06,4.06,0,0,0-5.62,0,5.18,5.18,0,0,0-1.14,3q-.09,1.18-.09,3c0,1.17,0,2.19.09,3.05a5.18,5.18,0,0,0,1.14,3,4.06,4.06,0,0,0,5.62,0,5.1,5.1,0,0,0,1.13-3c.06-.86.09-1.88.09-3.05s0-2.18-.09-3A5.1,5.1,0,0,0,163.84,274Z"/><path class="cls-2" d="M190.05,292.24a1.5,1.5,0,0,1-.47-.56l-7.11-12.24v12.1a1,1,0,0,1-.24.68.77.77,0,0,1-.59.29h-4.07a.77.77,0,0,1-.59-.29,1,1,0,0,1-.25-.68V268.42a1,1,0,0,1,.25-.68.77.77,0,0,1,.59-.29h3.23a1.28,1.28,0,0,1,.81.27,1.54,1.54,0,0,1,.46.56l7.11,12.24v-12.1a1,1,0,0,1,.25-.68.75.75,0,0,1,.59-.29h4.06a.75.75,0,0,1,.59.29,1,1,0,0,1,.25.68v23.12a1,1,0,0,1-.25.68.75.75,0,0,1-.59.29h-3.22A1.28,1.28,0,0,1,190.05,292.24Z"/><rect class="cls-3" width="256" height="256" rx="60"/><path class="cls-4" d="M127.28,29c-50.77,0-47.6,22-47.6,22l0,22.81h48.45v6.85H60.49S28,77,28,128.22s28.36,49.42,28.36,49.42H73.28V153.86s-.91-28.35,27.91-28.35h48.05s27,.43,27-26.1V55.55S180.34,29,127.28,29ZM100.56,44.34a8.72,8.72,0,1,1-8.71,8.72A8.71,8.71,0,0,1,100.56,44.34Z"/><path class="cls-5" d="M128.72,228c50.77,0,47.6-22,47.6-22l0-22.81H127.82v-6.85h67.69S228,180,228,128.74s-28.36-49.42-28.36-49.42H182.72V103.1s.91,28.35-27.91,28.35h-48s-27-.43-27,26.1v43.86S75.66,228,128.72,228Zm26.72-15.34a8.72,8.72,0,1,1,8.71-8.72A8.71,8.71,0,0,1,155.44,212.62Z"/></svg>