<svg id="Layer_1" data-name="Layer 1" xmlns="http://www.w3.org/2000/svg" viewBox="0 0 256 300"><defs><style>.cls-1{fill:#fff;}.cls-2{fill:#0d1117;}.cls-3{fill:#242938;}.cls-4{fill:#2489ca;}.cls-5{fill:#1070b3;}.cls-6{fill:#0877b9;}.cls-7{fill:#3c99d4;}</style></defs><rect class="cls-1" y="162.64" width="256" height="137.36"/><path class="cls-2" d="M58.56,291.08l-6.33-22.37a2,2,0,0,1-.09-.47.83.83,0,0,1,.2-.55.6.6,0,0,1,.48-.24h3.91a1.16,1.16,0,0,1,.82.27,1.24,1.24,0,0,1,.39.63l4.32,15.75,4.31-15.75a1.24,1.24,0,0,1,.39-.63,1.18,1.18,0,0,1,.82-.27h3.91a.6.6,0,0,1,.48.24.79.79,0,0,1,.21.55,1.7,1.7,0,0,1-.1.47L66,291.08c-.29.95-.84,1.43-1.64,1.43h-4.1C59.4,292.51,58.85,292,58.56,291.08Z"/><path class="cls-2" d="M94.62,274.7a.6.6,0,0,1-.45.24H90.1a1.55,1.55,0,0,1-.68-.13,2,2,0,0,1-.56-.45l-.4-.48a2.91,2.91,0,0,0-1.08-.74,4.21,4.21,0,0,0-1.69-.32,5.12,5.12,0,0,0-2.19.41,1.47,1.47,0,0,0-.85,1.42,1.37,1.37,0,0,0,.53,1.13,4.91,4.91,0,0,0,1.63.73c.73.21,2,.54,3.83,1a9.94,9.94,0,0,1,5.15,2.57,8,8,0,0,1,.42,9.15,7.74,7.74,0,0,1-3.41,2.72,12.38,12.38,0,0,1-5,.95A10.69,10.69,0,0,1,81,291.79,9,9,0,0,1,77.59,289a6.32,6.32,0,0,1-1.3-3.54.8.8,0,0,1,.2-.56.59.59,0,0,1,.45-.23H81a1.64,1.64,0,0,1,1.18.5l.49.63a3.67,3.67,0,0,0,1.23.93,4.34,4.34,0,0,0,1.94.41c2.56,0,3.85-.63,3.85-1.9a1.24,1.24,0,0,0-.55-1,5,5,0,0,0-1.53-.7c-.67-.19-1.72-.46-3.17-.82l-1.4-.32a8.35,8.35,0,0,1-4.65-2.63,7.56,7.56,0,0,1-1.49-4.92A7.25,7.25,0,0,1,78,271a7.92,7.92,0,0,1,3.09-2.83,10.44,10.44,0,0,1,9.21,0,9.36,9.36,0,0,1,3.27,2.74,5.85,5.85,0,0,1,1.26,3.22A.83.83,0,0,1,94.62,274.7Z"/><path class="cls-2" d="M115.94,286a3.44,3.44,0,0,0,2.87,1.15,3.74,3.74,0,0,0,2.7-.82,4.53,4.53,0,0,0,1.18-2,2.42,2.42,0,0,1,.38-.82.88.88,0,0,1,.68-.22h4.06a.63.63,0,0,1,.49.24.83.83,0,0,1,.2.55,8.26,8.26,0,0,1-1.32,4.42,9.31,9.31,0,0,1-3.49,3.21,10.26,10.26,0,0,1-4.88,1.18,9.5,9.5,0,0,1-5-1.31,9.11,9.11,0,0,1-3.32-3.51,11.34,11.34,0,0,1-1.3-4.88c0-1.15-.06-2.09-.06-2.83s0-2.06.06-3.54a11.09,11.09,0,0,1,1.27-4.89,9,9,0,0,1,3.34-3.51,9.55,9.55,0,0,1,5-1.3,10.15,10.15,0,0,1,4.88,1.18,9.21,9.21,0,0,1,3.49,3.2,8.26,8.26,0,0,1,1.32,4.42.85.85,0,0,1-.2.56.65.65,0,0,1-.49.23h-4.06a.84.84,0,0,1-.68-.22,2.32,2.32,0,0,1-.38-.82,4.5,4.5,0,0,0-1.18-2,3.74,3.74,0,0,0-2.7-.83,3.47,3.47,0,0,0-2.87,1.15,5.22,5.22,0,0,0-1,3q-.06,1.22-.06,3c0,1.15,0,2.15.06,3A5.21,5.21,0,0,0,115.94,286Z"/><path class="cls-2" d="M148.15,268.39a8.84,8.84,0,0,1,3.3,3.48,11.44,11.44,0,0,1,1.29,4.93c0,.66.06,1.74.06,3.22s0,2.5-.06,3.15a11.43,11.43,0,0,1-1.29,4.92,8.86,8.86,0,0,1-3.3,3.49,10.71,10.71,0,0,1-10.19,0,8.79,8.79,0,0,1-3.3-3.49,11.43,11.43,0,0,1-1.29-4.92q-.06-1.94-.06-3.15c0-.81,0-1.89.06-3.22a11.44,11.44,0,0,1,1.29-4.93,8.77,8.77,0,0,1,3.3-3.48,10.71,10.71,0,0,1,10.19,0ZM145.86,274a4,4,0,0,0-5.61,0,5.11,5.11,0,0,0-1.14,3q-.09,1.17-.09,3c0,1.16,0,2.18.09,3a5.11,5.11,0,0,0,1.14,3,4,4,0,0,0,5.61,0,5.11,5.11,0,0,0,1.14-3c.06-.86.09-1.88.09-3s0-2.19-.09-3A5.11,5.11,0,0,0,145.86,274Z"/><path class="cls-2" d="M177.7,280c0,.38,0,1.21-.07,2.5a11.39,11.39,0,0,1-1.32,5.19,9,9,0,0,1-3.36,3.53,9.55,9.55,0,0,1-5,1.27H159.6a.75.75,0,0,1-.59-.29,1,1,0,0,1-.25-.68V268.42a1,1,0,0,1,.25-.68.75.75,0,0,1,.59-.29h8.22a9.79,9.79,0,0,1,5,1.28,9,9,0,0,1,3.44,3.54,11.21,11.21,0,0,1,1.35,5.17C177.67,278.78,177.7,279.64,177.7,280Zm-13.2-6.84v13.6h3.32q3.92,0,4.07-4.11c0-1.39.06-2.29.06-2.72s0-1.36-.06-2.65a4.4,4.4,0,0,0-1.16-3.08,4.25,4.25,0,0,0-3.06-1Z"/><path class="cls-2" d="M189.34,286.78h9.8a.75.75,0,0,1,.59.29,1,1,0,0,1,.25.68v3.79a1,1,0,0,1-.25.68.75.75,0,0,1-.59.29H184.43a.77.77,0,0,1-.59-.29,1,1,0,0,1-.25-.68V268.42a1,1,0,0,1,.25-.68.77.77,0,0,1,.59-.29H198.9a.78.78,0,0,1,.59.29,1,1,0,0,1,.24.68v3.8a1,1,0,0,1-.24.67.75.75,0,0,1-.59.29h-9.56v3.87h8.87a.74.74,0,0,1,.59.28,1,1,0,0,1,.25.68v3.8a1,1,0,0,1-.25.68.74.74,0,0,1-.59.28h-8.87Z"/><rect class="cls-3" width="256" height="256" rx="60"/><path class="cls-4" d="M33.72,100.21s-4.74-3.42.94-8L47.9,80.4s3.79-4,7.79-.51l122.15,92.48v44.34s-.06,7-9,6.2Z"/><path class="cls-5" d="M65.2,128.79,33.72,157.41s-3.24,2.41,0,6.71l14.61,13.3s3.48,3.73,8.6-.52l33.38-25.3Z"/><path class="cls-6" d="M120.47,129l57.74-44.09-.37-44.11s-2.47-9.63-10.69-4.62L90.31,106.14Z"/><path class="cls-7" d="M168.84,223a8,8,0,0,0,7.42,2.31l45-22.18c5.76-3.92,5-8.8,5-8.8V61.9c0-5.82-6-7.83-6-7.83l-39-18.8c-8.52-5.27-14.1.94-14.1.94s7.18-5.16,10.69,4.62V215.9a8,8,0,0,1-.77,3.46c-1,2.07-3.25,4-8.6,3.19Z"/><rect class="cls-3" y="0.5" width="256" height="256" rx="60"/><path class="cls-4" d="M33.72,100.71s-4.74-3.42.94-8L47.9,80.9s3.79-4,7.79-.51l122.15,92.48v44.34s-.06,7-9,6.2Z"/><path class="cls-5" d="M65.2,129.29,33.72,157.91s-3.24,2.41,0,6.71l14.61,13.3s3.48,3.73,8.6-.52l33.38-25.3Z"/><path class="cls-6" d="M120.47,129.53l57.74-44.09-.37-44.11s-2.47-9.63-10.69-4.62L90.31,106.64Z"/><path class="cls-7" d="M168.84,223.47a8,8,0,0,0,7.42,2.31l45-22.18c5.76-3.92,5-8.8,5-8.8V62.4c0-5.82-6-7.83-6-7.83l-39-18.8c-8.52-5.27-14.1.94-14.1.94s7.18-5.16,10.69,4.62V216.4a8,8,0,0,1-.77,3.46c-1,2.07-3.25,4-8.6,3.19Z"/></svg>