<svg id="Layer_1" data-name="Layer 1" xmlns="http://www.w3.org/2000/svg" viewBox="0 0 256 300"><defs><style>.cls-1{fill:#fff;}.cls-2{fill:#0d1117;}.cls-3{fill:#953cad;}</style></defs><rect class="cls-1" y="162.64" width="256" height="137.36"/><path class="cls-2" d="M112.23,286a3.44,3.44,0,0,0,2.87,1.15,3.79,3.79,0,0,0,2.7-.82,4.53,4.53,0,0,0,1.18-2,2.42,2.42,0,0,1,.38-.82.88.88,0,0,1,.68-.22h4.06a.63.63,0,0,1,.49.24.83.83,0,0,1,.2.55,8.26,8.26,0,0,1-1.32,4.42,9.13,9.13,0,0,1-3.49,3.2,10.15,10.15,0,0,1-4.88,1.18,9.49,9.49,0,0,1-5-1.3,9.11,9.11,0,0,1-3.32-3.51,11.34,11.34,0,0,1-1.3-4.88c0-1.15-.06-2.09-.06-2.83s0-2.07.06-3.54a11.09,11.09,0,0,1,1.27-4.89,9,9,0,0,1,3.34-3.51,9.55,9.55,0,0,1,5-1.3,10.15,10.15,0,0,1,4.88,1.18,9.13,9.13,0,0,1,3.49,3.2,8.26,8.26,0,0,1,1.32,4.42.87.87,0,0,1-.2.56.65.65,0,0,1-.49.23H120a.84.84,0,0,1-.68-.22,2.32,2.32,0,0,1-.38-.82,4.45,4.45,0,0,0-1.18-2,3.74,3.74,0,0,0-2.7-.83,3.44,3.44,0,0,0-2.87,1.15,5.21,5.21,0,0,0-1,3c0,.82-.06,1.82-.06,3s0,2.15.06,3A5.21,5.21,0,0,0,112.23,286Z"/><path class="cls-2" d="M147.32,272.86a.74.74,0,0,1,.59.28,1,1,0,0,1,.25.69v3.43a1,1,0,0,1-.25.68.75.75,0,0,1-.59.29H145l-.5,3.72h2a.75.75,0,0,1,.59.29,1,1,0,0,1,.24.68v3.43a1,1,0,0,1-.24.68.78.78,0,0,1-.59.29h-2.67l-.41,3a1.09,1.09,0,0,1-.26.54.69.69,0,0,1-.51.21h-3.26a.62.62,0,0,1-.48-.23.81.81,0,0,1-.21-.56v-.07l.38-2.93h-2.3l-.4,3a1,1,0,0,1-.27.54.66.66,0,0,1-.51.21h-3.26a.63.63,0,0,1-.48-.23.85.85,0,0,1-.2-.56v-.07l.37-2.93h-1.58a.75.75,0,0,1-.59-.29,1,1,0,0,1-.25-.68v-3.43a1,1,0,0,1,.25-.68.72.72,0,0,1,.59-.29h2.29l.47-3.72h-1.95a.75.75,0,0,1-.59-.29,1,1,0,0,1-.25-.68v-3.43a1,1,0,0,1,.25-.69.74.74,0,0,1,.59-.28h2.66l.41-3a1.05,1.05,0,0,1,.26-.54.67.67,0,0,1,.48-.22h3.29a.6.6,0,0,1,.48.24.79.79,0,0,1,.21.55V270l-.41,2.9H141l.4-3a1.07,1.07,0,0,1,.27-.54.64.64,0,0,1,.48-.22h3.29a.6.6,0,0,1,.48.24.83.83,0,0,1,.2.55V270l-.4,2.9ZM139.81,282l.47-3.72H138l-.5,3.72Z"/><rect class="cls-3" width="256" height="256" rx="60"/><path class="cls-1" d="M195.44,100.67v13.47h13.47V100.67h6.74v13.47h13.47v6.74H215.65v13.47h13.47v6.74H215.65v13.47h-6.74V141.09H195.44v13.47H188.7V141.09H175.23v-6.74H188.7V120.88H175.23v-6.74H188.7V100.67Zm13.47,20.21H195.44v13.47h13.47Z"/><path class="cls-1" d="M122,33a95,95,0,0,1,82.26,47.46l-.16-.28L162.75,104A47.27,47.27,0,0,0,122.54,80.7H122a47.31,47.31,0,1,0,41.22,70.51l-.2.34,41.29,23.92A94.94,94.94,0,0,1,123.06,223H122a95,95,0,0,1,0-190Z"/></svg>