<svg id="Layer_1" data-name="Layer 1" xmlns="http://www.w3.org/2000/svg" xmlns:xlink="http://www.w3.org/1999/xlink" viewBox="0 0 256 300"><defs><style>.cls-1{fill:none;}.cls-2,.cls-6{fill:#fff;}.cls-3{fill:#0d1117;}.cls-4{fill:#242938;}.cls-5{clip-path:url(#clip-path);}.cls-6{fill-rule:evenodd;}</style><clipPath id="clip-path"><rect id="SVGID" class="cls-1" x="38" y="38" width="180" height="180"/></clipPath></defs><rect class="cls-2" y="162.64" width="256" height="137.36"/><path class="cls-3" d="M76.13,279.69v11.85a1,1,0,0,1-.25.68.75.75,0,0,1-.59.29H71.23a.75.75,0,0,1-.59-.29,1,1,0,0,1-.25-.68V268.42a1,1,0,0,1,.25-.68.75.75,0,0,1,.59-.29h3.6a1.46,1.46,0,0,1,1.33,1l5,9.91,5-9.91a1.47,1.47,0,0,1,1.33-1h3.61a.78.78,0,0,1,.59.29,1,1,0,0,1,.24.68v23.12a1,1,0,0,1-.24.68.78.78,0,0,1-.59.29H87.09a.75.75,0,0,1-.59-.29,1,1,0,0,1-.25-.68V279.69l-2.92,5.91a2.33,2.33,0,0,1-.48.64.91.91,0,0,1-.67.25h-2a.93.93,0,0,1-.67-.25,2.33,2.33,0,0,1-.48-.64Z"/><path class="cls-3" d="M109,292.22a.75.75,0,0,1-.59.29h-4.06a.75.75,0,0,1-.59-.29,1,1,0,0,1-.25-.68v-7.62l-7.17-15.21a1.15,1.15,0,0,1-.13-.47.79.79,0,0,1,.21-.55.6.6,0,0,1,.48-.24h4.25a1.2,1.2,0,0,1,.85.31,1.75,1.75,0,0,1,.45.59l3.92,8.8,3.94-8.8a1.75,1.75,0,0,1,.45-.59,1.2,1.2,0,0,1,.85-.31h4.25a.6.6,0,0,1,.48.24.79.79,0,0,1,.21.55,1.15,1.15,0,0,1-.13.47l-7.17,15.21v7.62A1,1,0,0,1,109,292.22Z"/><path class="cls-3" d="M138.6,274.7a.57.57,0,0,1-.45.23h-4.07a1.59,1.59,0,0,1-.68-.12,2.19,2.19,0,0,1-.56-.45l-.4-.48a3,3,0,0,0-1.07-.74,4.24,4.24,0,0,0-1.69-.32,5.12,5.12,0,0,0-2.19.41,1.46,1.46,0,0,0-.86,1.42,1.34,1.34,0,0,0,.53,1.12,5,5,0,0,0,1.63.74c.74.21,2,.54,3.84,1a10,10,0,0,1,5.15,2.57,7,7,0,0,1,1.64,5,7.14,7.14,0,0,1-1.22,4.14,7.9,7.9,0,0,1-3.42,2.72,12.38,12.38,0,0,1-4.95.94,10.72,10.72,0,0,1-4.84-1.07,9.08,9.08,0,0,1-3.42-2.79,6.43,6.43,0,0,1-1.3-3.54.85.85,0,0,1,.2-.56.62.62,0,0,1,.45-.23H125a1.63,1.63,0,0,1,1.18.5l.5.63a3.52,3.52,0,0,0,1.22.93,4.37,4.37,0,0,0,1.94.41c2.57,0,3.85-.63,3.85-1.9a1.25,1.25,0,0,0-.54-1,5.05,5.05,0,0,0-1.54-.7c-.66-.19-1.72-.46-3.16-.82l-1.4-.32a8.42,8.42,0,0,1-4.66-2.63,7.62,7.62,0,0,1-1.49-4.92A7.17,7.17,0,0,1,122,271a7.79,7.79,0,0,1,3.09-2.83,10.42,10.42,0,0,1,9.2,0,9.18,9.18,0,0,1,3.27,2.74,5.85,5.85,0,0,1,1.26,3.22A.83.83,0,0,1,138.6,274.7Z"/><path class="cls-3" d="M159,268.38a8.79,8.79,0,0,1,3.3,3.49,11.44,11.44,0,0,1,1.29,4.93c0,.66.06,1.74.06,3.22s0,2.5-.06,3.15a10.7,10.7,0,0,1-2.29,6.47l2.45,4.08a1,1,0,0,1,.09.33v.1a.67.67,0,0,1-.19.49.56.56,0,0,1-.43.19h-4.38a1.22,1.22,0,0,1-.79-.23,2,2,0,0,1-.51-.59l-.87-1.5a11.47,11.47,0,0,1-2.76.35,9.65,9.65,0,0,1-5.09-1.28,8.88,8.88,0,0,1-3.31-3.49,11.58,11.58,0,0,1-1.29-4.92q-.06-1.94-.06-3.15c0-.81,0-1.89.06-3.22a11.58,11.58,0,0,1,1.29-4.93,8.88,8.88,0,0,1,3.31-3.49,10.76,10.76,0,0,1,10.18,0ZM156.7,274a4.06,4.06,0,0,0-5.62,0,5.1,5.1,0,0,0-1.13,3c-.07.79-.1,1.78-.1,3s0,2.19.1,3.05a5.1,5.1,0,0,0,1.13,3,4.06,4.06,0,0,0,5.62,0,5.1,5.1,0,0,0,1.13-3c.06-.86.09-1.88.09-3.05s0-2.18-.09-3A5.1,5.1,0,0,0,156.7,274Z"/><path class="cls-3" d="M184.65,287.07a1,1,0,0,1,.25.68v3.79a1,1,0,0,1-.25.68.77.77,0,0,1-.59.29H169.69a.75.75,0,0,1-.59-.29,1,1,0,0,1-.25-.68V268.42a1,1,0,0,1,.25-.68.75.75,0,0,1,.59-.29h4.06a.75.75,0,0,1,.59.29,1,1,0,0,1,.25.68v18.36h9.47A.77.77,0,0,1,184.65,287.07Z"/><rect class="cls-4" width="256" height="256" rx="60"/><g class="cls-5"><path class="cls-6" d="M203.8,178.21c-9.79-.27-17.38.73-23.75,3.41-1.83.73-4.77.73-5,3,1,1,1.09,2.55,2,3.9a28.43,28.43,0,0,0,6.37,7.41l7.83,5.6c4.77,2.92,10.16,4.62,14.81,7.54,2.7,1.71,5.39,3.9,8.08,5.72,1.37,1,2.21,2.56,3.92,3.17v-.37c-.86-1.09-1.1-2.67-2-3.89l-3.67-3.53a57.73,57.73,0,0,0-12.73-12.29c-3.92-2.68-12.49-6.32-14.08-10.82l-.24-.28a53.8,53.8,0,0,0,8.44-1.94c4.17-1.1,8-.86,12.24-1.95l5.88-1.7v-1.1c-2.2-2.18-3.79-5.11-6.12-7.17a163.41,163.41,0,0,0-20.2-15c-3.79-2.43-8.69-4-12.73-6.08-1.47-.73-3.92-1.09-4.78-2.31-2.2-2.67-3.43-6.2-5-9.37l-10-21.17c-2.21-4.74-3.56-9.49-6.24-13.87C134.14,84.51,120.43,72,99.38,59.69c-4.53-2.55-9.92-3.65-15.64-5l-9.19-.49c-2-.85-3.91-3.16-5.63-4.26-7-4.38-25-13.87-30.12-1.36-3.3,7.91,4.9,15.69,7.69,19.71,2.08,2.8,4.77,6,6.24,9.12.83,2.07,1.1,4.26,2,6.45,2,5.35,3.79,11.32,6.37,16.31a62.15,62.15,0,0,0,4.52,7.54c1,1.37,2.7,2,3.06,4.14-1.71,2.43-1.83,6.08-2.81,9.13-4.41,13.74-2.7,30.78,3.55,40.9,2,3,6.58,9.73,12.85,7.18,5.51-2.19,4.28-9.13,5.88-15.21.37-1.46.12-2.43.85-3.41v.27l5,10.1c3.8,6,10.41,12.17,15.92,16.3,2.93,2.2,5.26,6,8.93,7.31v-.37h-.24c-.74-1.09-1.84-1.58-2.82-2.44a58.64,58.64,0,0,1-6.36-7.3A156,156,0,0,1,95.7,152.18c-2-3.77-3.68-7.91-5.26-11.68-.75-1.46-.75-3.65-2-4.38-1.83,2.68-4.52,5-5.88,8.28-2.32,5.23-2.56,11.68-3.42,18.37-.49.12-.27,0-.49.27-3.92-1-5.27-5-6.73-8.39-3.68-8.64-4.29-22.51-1.11-32.49.86-2.55,4.54-10.58,3.07-13-.74-2.32-3.19-3.65-4.54-5.48A49,49,0,0,1,65,95.89c-2.94-6.82-4.4-14.36-7.59-21.17-1.47-3.17-4-6.45-6.12-9.37-2.33-3.29-4.9-5.6-6.73-9.49-.62-1.36-1.47-3.53-.49-5a1.91,1.91,0,0,1,1.71-1.58c1.59-1.37,6.12.36,7.71,1.09a63.29,63.29,0,0,1,12.12,6.08c1.71,1.22,3.55,3.53,5.76,4.14h2.57c3.92.85,8.32.27,12,1.36a78.44,78.44,0,0,1,17.63,8.4A108.18,108.18,0,0,1,141.73,112c1.46,2.8,2.07,5.35,3.42,8.27,2.58,6,5.76,12,8.33,17.89s5,11.56,8.69,16.31c1.84,2.55,9.18,3.89,12.48,5.23,2.45,1.09,6.25,2.07,8.45,3.41,4.16,2.55,8.33,5.47,12.24,8.27,2,1.46,8.08,4.5,8.45,6.93ZM79,72.49a19.33,19.33,0,0,0-5,.61v.27h.24c1,1.95,2.7,3.28,3.92,5l2.82,5.84.24-.27c1.72-1.22,2.58-3.17,2.58-6.08a27,27,0,0,1-1.47-2.56c-.74-1.22-2.33-1.83-3.31-2.8Z"/></g></svg>