<svg id="Layer_1" data-name="Layer 1" xmlns="http://www.w3.org/2000/svg" viewBox="0 0 256 300"><defs><style>.cls-1{fill:#fff;}.cls-2{fill:#0d1117;}.cls-3{fill:#007acc;}</style></defs><rect class="cls-1" y="162.64" width="256" height="137.36"/><path class="cls-2" d="M36.43,267.74a1,1,0,0,1,.25.68v3.79a1,1,0,0,1-.25.68.72.72,0,0,1-.59.29H30.38v18.36a1,1,0,0,1-.25.68.75.75,0,0,1-.59.29H25.48a.75.75,0,0,1-.59-.29,1,1,0,0,1-.25-.68V273.18H19.17a.75.75,0,0,1-.59-.29,1,1,0,0,1-.24-.68v-3.79a1,1,0,0,1,.24-.68.78.78,0,0,1,.59-.29H35.84A.75.75,0,0,1,36.43,267.74Z"/><path class="cls-2" d="M53,292.22a.78.78,0,0,1-.59.29H48.32a.77.77,0,0,1-.59-.29,1,1,0,0,1-.25-.68v-7.62l-7.17-15.21a1.13,1.13,0,0,1-.12-.47.78.78,0,0,1,.2-.55.6.6,0,0,1,.48-.24h4.25a1.22,1.22,0,0,1,.86.31,2.06,2.06,0,0,1,.45.59l3.91,8.8,3.94-8.8a1.75,1.75,0,0,1,.45-.59,1.22,1.22,0,0,1,.85-.31h4.26a.63.63,0,0,1,.48.24.83.83,0,0,1,.2.55,1.13,1.13,0,0,1-.12.47l-7.17,15.21v7.62A1,1,0,0,1,53,292.22Z"/><path class="cls-2" d="M81.61,269.58c1.52,1.42,2.28,3.51,2.28,6.25a8.19,8.19,0,0,1-2.28,6.26,8.87,8.87,0,0,1-6.32,2.15h-4v7.3a1,1,0,0,1-.25.68.75.75,0,0,1-.59.29H66.42a.75.75,0,0,1-.59-.29,1,1,0,0,1-.25-.68V268.42a1,1,0,0,1,.25-.68.75.75,0,0,1,.59-.29h8.87A8.9,8.9,0,0,1,81.61,269.58Zm-6.47,9.08a3.31,3.31,0,0,0,2.19-.7,2.65,2.65,0,0,0,.82-2.13,2.62,2.62,0,0,0-.82-2.13,3.25,3.25,0,0,0-2.19-.7H71.32v5.66Z"/><path class="cls-2" d="M95,286.78h9.8a.75.75,0,0,1,.59.29,1,1,0,0,1,.25.68v3.79a1,1,0,0,1-.25.68.75.75,0,0,1-.59.29H90.1a.77.77,0,0,1-.59-.29,1,1,0,0,1-.25-.68V268.42a1,1,0,0,1,.25-.68.77.77,0,0,1,.59-.29h14.47a.75.75,0,0,1,.58.29,1,1,0,0,1,.25.68v3.79a1,1,0,0,1-.25.68.72.72,0,0,1-.58.29H95v3.87h8.87a.74.74,0,0,1,.59.28,1,1,0,0,1,.25.68v3.8a1,1,0,0,1-.25.68.74.74,0,0,1-.59.28H95Z"/><path class="cls-2" d="M128.61,274.7a.59.59,0,0,1-.45.23h-4.07a1.56,1.56,0,0,1-.68-.12,1.9,1.9,0,0,1-.56-.45l-.41-.48a2.79,2.79,0,0,0-1.07-.74,4.21,4.21,0,0,0-1.69-.32,5.12,5.12,0,0,0-2.19.41,1.45,1.45,0,0,0-.85,1.42,1.34,1.34,0,0,0,.53,1.12,4.9,4.9,0,0,0,1.63.74c.73.21,2,.54,3.83,1a9.94,9.94,0,0,1,5.15,2.57,8,8,0,0,1,.42,9.15,7.87,7.87,0,0,1-3.41,2.72,12.38,12.38,0,0,1-5,.94,10.76,10.76,0,0,1-4.85-1.07,9.12,9.12,0,0,1-3.41-2.79,6.35,6.35,0,0,1-1.3-3.54.8.8,0,0,1,.2-.56.59.59,0,0,1,.45-.23H115a1.61,1.61,0,0,1,1.18.5c.07.07.23.28.5.63a3.67,3.67,0,0,0,1.23.93,4.31,4.31,0,0,0,1.94.41c2.56,0,3.85-.63,3.85-1.9a1.27,1.27,0,0,0-.55-1,5,5,0,0,0-1.53-.7c-.67-.19-1.72-.46-3.17-.82l-1.4-.32a8.35,8.35,0,0,1-4.65-2.63,7.56,7.56,0,0,1-1.49-4.92A7.25,7.25,0,0,1,112,271a7.92,7.92,0,0,1,3.09-2.83,10.44,10.44,0,0,1,9.21,0,9.36,9.36,0,0,1,3.27,2.74,5.85,5.85,0,0,1,1.26,3.22A.83.83,0,0,1,128.61,274.7Z"/><path class="cls-2" d="M141,286a3.44,3.44,0,0,0,2.87,1.15,3.79,3.79,0,0,0,2.7-.82,4.53,4.53,0,0,0,1.18-2,2.67,2.67,0,0,1,.37-.82.92.92,0,0,1,.69-.22h4.06a.6.6,0,0,1,.48.24.79.79,0,0,1,.21.55,8.35,8.35,0,0,1-1.32,4.42,9.16,9.16,0,0,1-3.5,3.2,10.11,10.11,0,0,1-4.87,1.18,9.49,9.49,0,0,1-5-1.3,9,9,0,0,1-3.32-3.51,11.2,11.2,0,0,1-1.3-4.88c0-1.15-.06-2.09-.06-2.83s0-2.07.06-3.54a11,11,0,0,1,1.27-4.89,9,9,0,0,1,3.34-3.51,9.55,9.55,0,0,1,5-1.3,10.11,10.11,0,0,1,4.87,1.18,9.16,9.16,0,0,1,3.5,3.2,8.35,8.35,0,0,1,1.32,4.42.83.83,0,0,1-.21.56.62.62,0,0,1-.48.23h-4.06a.88.88,0,0,1-.69-.22,2.55,2.55,0,0,1-.37-.82,4.45,4.45,0,0,0-1.18-2,3.74,3.74,0,0,0-2.7-.83A3.44,3.44,0,0,0,141,274a5.21,5.21,0,0,0-1,3c0,.82-.06,1.82-.06,3s0,2.15.06,3A5.21,5.21,0,0,0,141,286Z"/><path class="cls-2" d="M174.81,269.51q2.3,2.06,2.3,6.14,0,5.19-3.7,7.16l3.85,8.52a1,1,0,0,1,.1.39.79.79,0,0,1-.21.55.6.6,0,0,1-.48.24h-4.22a1.18,1.18,0,0,1-.84-.27,2.13,2.13,0,0,1-.46-.7l-3.45-7.66h-2.85v7.66a1,1,0,0,1-.25.68.78.78,0,0,1-.59.29h-4.07a.77.77,0,0,1-.59-.29,1,1,0,0,1-.25-.68V268.42a1,1,0,0,1,.25-.68.77.77,0,0,1,.59-.29h8.41A9.35,9.35,0,0,1,174.81,269.51Zm-6.46,8.79c2,0,3-.88,3-2.65s-1-2.65-3-2.65h-3.5v5.3Z"/><path class="cls-2" d="M183.31,292.22a1,1,0,0,1-.24-.68V268.42a1,1,0,0,1,.24-.68.78.78,0,0,1,.59-.29H188a.77.77,0,0,1,.59.29,1,1,0,0,1,.25.68v23.12a1,1,0,0,1-.25.68.77.77,0,0,1-.59.29H183.9A.78.78,0,0,1,183.31,292.22Z"/><path class="cls-2" d="M211.58,269.58c1.52,1.42,2.28,3.51,2.28,6.25a8.19,8.19,0,0,1-2.28,6.26,8.87,8.87,0,0,1-6.32,2.15h-4v7.3a1,1,0,0,1-.25.68.77.77,0,0,1-.59.29h-4.07a.77.77,0,0,1-.59-.29,1,1,0,0,1-.25-.68V268.42a1,1,0,0,1,.25-.68.77.77,0,0,1,.59-.29h8.88A8.9,8.9,0,0,1,211.58,269.58Zm-6.47,9.08a3.28,3.28,0,0,0,2.18-.7,2.65,2.65,0,0,0,.83-2.13,2.62,2.62,0,0,0-.83-2.13,3.23,3.23,0,0,0-2.18-.7h-3.82v5.66Z"/><path class="cls-2" d="M235,267.74a1,1,0,0,1,.25.68v3.79a1,1,0,0,1-.25.68.74.74,0,0,1-.59.29H229v18.36a1,1,0,0,1-.24.68.78.78,0,0,1-.59.29h-4.07a.77.77,0,0,1-.59-.29,1,1,0,0,1-.25-.68V273.18h-5.46a.72.72,0,0,1-.59-.29,1,1,0,0,1-.25-.68v-3.79a1,1,0,0,1,.25-.68.75.75,0,0,1,.59-.29h16.67A.77.77,0,0,1,235,267.74Z"/><rect class="cls-3" width="256" height="256" rx="60"/><path class="cls-1" d="M56.61,128.85l-.08,10.48H89.85V234h23.57V139.33h33.32V129.05a102.14,102.14,0,0,0-.28-10.56c-.13-.17-20.4-.25-45-.21l-44.74.13Z"/><path class="cls-1" d="M206.57,118.11a31.85,31.85,0,0,1,16,9.22c2.35,2.52,5.85,7.11,6.13,8.21.08.33-11.05,7.8-17.8,12-.24.16-1.21-.9-2.31-2.52-3.29-4.8-6.75-6.87-12-7.23-7.76-.53-12.76,3.53-12.72,10.32a9.39,9.39,0,0,0,1.1,4.79c1.7,3.54,4.87,5.65,14.83,10,18.33,7.88,26.17,13.08,31.05,20.48,5.44,8.25,6.66,21.41,3,31.21-4.06,10.64-14.14,17.87-28.32,20.27-4.39.77-14.79.65-19.51-.2-10.28-1.83-20-6.91-26-13.57-2.36-2.6-6.95-9.39-6.67-9.88a20.29,20.29,0,0,1,2.36-1.5c1.14-.65,5.45-3.13,9.51-5.49l7.35-4.26,1.55,2.27c2.15,3.29,6.86,7.8,9.71,9.31,8.17,4.3,19.38,3.69,24.91-1.26a11.13,11.13,0,0,0,1.42-14.18c-2-2.85-6.05-5.25-17.59-10.24-13.21-5.69-18.9-9.23-24.1-14.84a33.72,33.72,0,0,1-7-12.8c-1-3.61-1.22-12.67-.45-16.33,2.73-12.76,12.36-21.66,26.25-24.3C191.65,116.69,202.14,117,206.57,118.11Z"/></svg>