<svg id="Layer_1" data-name="Layer 1" xmlns="http://www.w3.org/2000/svg" viewBox="0 0 256 300"><defs><style>.cls-1{fill:#fff;}.cls-2{fill:#0d1117;}.cls-3{fill:#e43717;}</style></defs><rect class="cls-1" y="162.64" width="256" height="137.36"/><path class="cls-2" d="M99.15,269.51q2.3,2.06,2.29,6.14,0,5.19-3.69,7.16l3.85,8.52a1,1,0,0,1,.09.39.78.78,0,0,1-.2.55.6.6,0,0,1-.48.24H96.79a1.18,1.18,0,0,1-.84-.27,2.32,2.32,0,0,1-.47-.7L92,283.88H89.18v7.66a1,1,0,0,1-.24.68.78.78,0,0,1-.59.29H84.28a.77.77,0,0,1-.59-.29,1,1,0,0,1-.25-.68V268.42a1,1,0,0,1,.25-.68.77.77,0,0,1,.59-.29h8.41A9.37,9.37,0,0,1,99.15,269.51Zm-6.46,8.79c2,0,3-.88,3-2.65s-1-2.65-3-2.65H89.18v5.3Z"/><path class="cls-2" d="M125.81,267.74a1,1,0,0,1,.25.68V282.7a11.83,11.83,0,0,1-1.18,5.51,8.05,8.05,0,0,1-3.31,3.47,10,10,0,0,1-4.95,1.18,10.08,10.08,0,0,1-5-1.18,8,8,0,0,1-3.29-3.47,12.09,12.09,0,0,1-1.16-5.51V268.42a1,1,0,0,1,.25-.68.75.75,0,0,1,.59-.29h4.06a.75.75,0,0,1,.59.29,1,1,0,0,1,.25.68v14.14a5.29,5.29,0,0,0,.95,3.38,3.74,3.74,0,0,0,5.49,0,5.35,5.35,0,0,0,.95-3.38V268.42a1,1,0,0,1,.25-.68.75.75,0,0,1,.59-.29h4.06A.75.75,0,0,1,125.81,267.74Z"/><path class="cls-2" d="M149.36,274.7a.59.59,0,0,1-.45.23h-4.07a1.56,1.56,0,0,1-.68-.12,2,2,0,0,1-.56-.45l-.41-.48a2.79,2.79,0,0,0-1.07-.74,4.21,4.21,0,0,0-1.69-.32,5.12,5.12,0,0,0-2.19.41,1.45,1.45,0,0,0-.85,1.42,1.34,1.34,0,0,0,.53,1.12,4.9,4.9,0,0,0,1.63.74c.73.21,2,.54,3.83,1a9.94,9.94,0,0,1,5.15,2.57,8,8,0,0,1,.42,9.15,7.81,7.81,0,0,1-3.41,2.72,12.38,12.38,0,0,1-4.95.94,10.69,10.69,0,0,1-4.84-1.07,9,9,0,0,1-3.42-2.79,6.35,6.35,0,0,1-1.3-3.54.8.8,0,0,1,.2-.56.59.59,0,0,1,.45-.23h4.07a1.6,1.6,0,0,1,1.17.5c.07.07.23.28.5.63a3.67,3.67,0,0,0,1.23.93,4.34,4.34,0,0,0,1.94.41c2.56,0,3.85-.63,3.85-1.9a1.24,1.24,0,0,0-.55-1,5,5,0,0,0-1.53-.7c-.67-.19-1.72-.46-3.17-.82l-1.4-.32a8.35,8.35,0,0,1-4.65-2.63,7.56,7.56,0,0,1-1.49-4.92,7.25,7.25,0,0,1,1.08-3.85,7.92,7.92,0,0,1,3.09-2.83,10.44,10.44,0,0,1,9.21,0,9.36,9.36,0,0,1,3.27,2.74,5.85,5.85,0,0,1,1.26,3.22A.83.83,0,0,1,149.36,274.7Z"/><path class="cls-2" d="M171.47,267.74a1,1,0,0,1,.25.68v3.79a1,1,0,0,1-.25.68.72.72,0,0,1-.59.29h-5.46v18.36a1,1,0,0,1-.25.68.75.75,0,0,1-.59.29h-4.06a.75.75,0,0,1-.59-.29,1,1,0,0,1-.25-.68V273.18h-5.47a.75.75,0,0,1-.59-.29,1,1,0,0,1-.24-.68v-3.79a1,1,0,0,1,.24-.68.78.78,0,0,1,.59-.29h16.67A.75.75,0,0,1,171.47,267.74Z"/><rect class="cls-3" width="256" height="256" rx="60"/><path class="cls-1" d="M226.57,125.55l-8.39-5.2c-.07-.81-.15-1.63-.23-2.44l7.22-6.73a2.89,2.89,0,0,0-1-4.82L215,102.92c-.23-.8-.47-1.59-.72-2.38l5.75-8A2.89,2.89,0,0,0,218.14,88l-9.73-1.58c-.38-.74-.77-1.47-1.17-2.18l4.09-9a2.88,2.88,0,0,0-.23-2.81,2.83,2.83,0,0,0-2.5-1.28l-9.88.34q-.76-1-1.56-1.89L199.43,60A2.89,2.89,0,0,0,196,56.53l-9.61,2.27c-.63-.52-1.26-1-1.9-1.55l.35-9.88a2.9,2.9,0,0,0-4.1-2.74l-9,4.09c-.72-.39-1.45-.79-2.18-1.17L168,37.82A2.89,2.89,0,0,0,163.43,36l-8,5.75q-1.19-.37-2.37-.72l-3.44-9.23a2.87,2.87,0,0,0-2.14-1.82,2.91,2.91,0,0,0-2.68.86L138.08,38c-.81-.09-1.63-.18-2.44-.24l-5.2-8.41A2.91,2.91,0,0,0,128,28a2.83,2.83,0,0,0-2.44,1.37l-5.2,8.41c-.82.06-1.64.15-2.45.24l-6.73-7.23a2.89,2.89,0,0,0-2.67-.86,2.86,2.86,0,0,0-2.14,1.82L102.9,41c-.8.23-1.59.48-2.37.72l-8-5.75A2.9,2.9,0,0,0,88,37.82l-1.59,9.73c-.73.38-1.46.77-2.18,1.17l-9-4.09a2.89,2.89,0,0,0-4.09,2.74l.34,9.88c-.64.51-1.27,1-1.89,1.55L60,56.53A2.89,2.89,0,0,0,56.53,60l2.25,9.62c-.52.62-1,1.25-1.55,1.89l-9.88-.34a2.89,2.89,0,0,0-2.74,4.09l4.1,9c-.4.72-.8,1.45-1.18,2.18L37.81,88a2.9,2.9,0,0,0-1.88,4.54l5.75,8c-.25.78-.49,1.58-.72,2.38l-9.23,3.44a2.89,2.89,0,0,0-1,4.82L38,117.91c-.09.81-.17,1.63-.24,2.44l-8.39,5.2A2.89,2.89,0,0,0,28,128a2.83,2.83,0,0,0,1.37,2.44l8.39,5.2c.07.82.15,1.63.24,2.45l-7.23,6.72a2.89,2.89,0,0,0,1,4.82L41,153.09c.23.8.47,1.59.72,2.39l-5.75,8A2.88,2.88,0,0,0,37.82,168l9.73,1.59c.38.73.77,1.46,1.17,2.17l-4.09,9a2.89,2.89,0,0,0,2.74,4.09l9.86-.35c.51.65,1,1.27,1.56,1.9L56.53,196a2.87,2.87,0,0,0,.77,2.7,2.93,2.93,0,0,0,2.72.77l9.61-2.26c.62.53,1.26,1.05,1.9,1.56l-.35,9.88a2.88,2.88,0,0,0,4.09,2.72l9-4.09c.72.4,1.45.79,2.18,1.17L88,218.16a2.93,2.93,0,0,0,1.75,2.22,2.9,2.9,0,0,0,2.79-.32l8-5.76c.79.25,1.58.5,2.39.73l3.44,9.23a2.89,2.89,0,0,0,4.82,1L117.9,218c.82.1,1.63.17,2.45.25l5.2,8.39a2.9,2.9,0,0,0,4.91,0l5.2-8.39c.82-.08,1.63-.15,2.45-.25l6.72,7.23a2.89,2.89,0,0,0,4.82-1l3.44-9.23c.8-.23,1.59-.48,2.39-.73l8,5.76a2.89,2.89,0,0,0,4.54-1.9l1.58-9.73c.74-.38,1.46-.77,2.18-1.17l9,4.09a2.89,2.89,0,0,0,4.09-2.72l-.35-9.88c.64-.51,1.28-1,1.9-1.56l9.61,2.26a2.93,2.93,0,0,0,2.72-.77,2.88,2.88,0,0,0,.77-2.7l-2.26-9.61c.53-.63,1.05-1.25,1.56-1.9l9.88.35a2.89,2.89,0,0,0,2.73-4.09l-4.09-9c.4-.72.79-1.45,1.17-2.17L218.2,168a2.84,2.84,0,0,0,2.19-1.74,2.9,2.9,0,0,0-.32-2.79l-5.75-8c.24-.79.49-1.58.72-2.39l9.23-3.44a2.89,2.89,0,0,0,1-4.82L218,138.11c.09-.82.17-1.63.24-2.45l8.39-5.2A2.87,2.87,0,0,0,228,128a3,3,0,0,0-1.37-2.47Zm-56.19,69.76a6,6,0,1,1,7.07-4.57,6,6,0,0,1-7.07,4.57ZM167.53,176a5.41,5.41,0,0,0-6.42,4.17l-3,13.91a73.31,73.31,0,0,1-61-.28l-3-13.92a5.41,5.41,0,0,0-6.42-4.16l-12.29,2.63a73.25,73.25,0,0,1-6.35-7.49H129c.67,0,1.12-.12,1.12-.74V148.91c0-.61-.45-.73-1.12-.73H111.46v-13.4h18.9c1.73,0,9.23.49,11.62,10.09.75,2.94,2.41,12.53,3.54,15.61,1.12,3.44,5.69,10.32,10.57,10.32H185.9a7,7,0,0,0,1.08-.1,76.5,76.5,0,0,1-6.76,8L167.64,176ZM84.78,195A6,6,0,1,1,89.34,188,5.94,5.94,0,0,1,84.78,195ZM62,103.1a5.94,5.94,0,1,1-7.84-3A6,6,0,0,1,62,103.1Zm-7,16.51,12.81-5.7a5.4,5.4,0,0,0,2.75-7.15l-2.64-6H78.33v46.63H57.5a73.58,73.58,0,0,1-2.37-27.92Zm56.2-4.53V101.32H135.9c1.28,0,9,1.47,9,7.24,0,4.8-5.92,6.52-10.79,6.52H111.25Zm89.64,12.38c0,1.83-.07,3.63-.2,5.43h-7.52c-.75,0-1,.49-1,1.23v3.44c0,8.1-4.57,9.88-8.58,10.32-3.82.43-8-1.6-8.56-3.94-2.26-12.67-6-15.36-11.93-20.06,7.36-4.67,15-11.57,15-20.84,0-10-6.82-16.22-11.46-19.3a32.65,32.65,0,0,0-15.71-5.16H73.28a73.57,73.57,0,0,1,40.9-23.12l9.15,9.59a5.42,5.42,0,0,0,7.67.18l10.24-9.79a73.28,73.28,0,0,1,50.08,35.74l-7,15.82a5.42,5.42,0,0,0,2.76,7.15l13.49,6c.23,2.39.35,4.82.35,7.26Zm-77.6-80.07a5.94,5.94,0,1,1-.2,8.4,5.92,5.92,0,0,1,.2-8.4Zm69.57,56a5.94,5.94,0,1,1,3,7.86A5.94,5.94,0,0,1,192.86,103.38Z"/></svg>