<svg id="Layer_1" data-name="Layer 1" xmlns="http://www.w3.org/2000/svg" viewBox="0 0 256 300"><defs><style>.cls-1{fill:#fff;}.cls-2{fill:#0d1117;}.cls-3{fill:#023430;}.cls-4{fill:#10aa50;}.cls-5{fill:#b8c4c2;}.cls-6{fill:#12924f;}</style></defs><rect class="cls-1" y="162.64" width="256" height="137.36"/><path class="cls-2" d="M47.71,279.69v11.85a1,1,0,0,1-.24.68.78.78,0,0,1-.59.29H42.81a.77.77,0,0,1-.59-.29,1,1,0,0,1-.25-.68V268.42a1,1,0,0,1,.25-.68.77.77,0,0,1,.59-.29h3.6a1.48,1.48,0,0,1,1.34,1l5,9.92,5-9.92a1.47,1.47,0,0,1,1.34-1h3.6a.77.77,0,0,1,.59.29,1,1,0,0,1,.25.68v23.12a1,1,0,0,1-.25.68.77.77,0,0,1-.59.29H58.67a.77.77,0,0,1-.59-.29,1,1,0,0,1-.25-.68V279.69l-2.91,5.91a2.57,2.57,0,0,1-.49.64.9.9,0,0,1-.66.26h-2a.94.94,0,0,1-.67-.26,2.81,2.81,0,0,1-.48-.64Z"/><path class="cls-2" d="M84.37,268.38a8.88,8.88,0,0,1,3.31,3.49A11.58,11.58,0,0,1,89,276.8c0,.66.06,1.74.06,3.22s0,2.5-.06,3.15a11.58,11.58,0,0,1-1.29,4.92,8.88,8.88,0,0,1-3.31,3.49,10.76,10.76,0,0,1-10.18,0,8.79,8.79,0,0,1-3.3-3.49,11.43,11.43,0,0,1-1.29-4.92q-.06-1.94-.06-3.15c0-.81,0-1.89.06-3.22a11.44,11.44,0,0,1,1.29-4.93,8.79,8.79,0,0,1,3.3-3.49,10.76,10.76,0,0,1,10.18,0ZM82.09,274a4.06,4.06,0,0,0-5.62,0,5.1,5.1,0,0,0-1.13,3q-.09,1.18-.09,3c0,1.17,0,2.19.09,3.05a5.1,5.1,0,0,0,1.13,3,4.06,4.06,0,0,0,5.62,0,5.1,5.1,0,0,0,1.13-3c.07-.86.1-1.88.1-3.05s0-2.18-.1-3A5.1,5.1,0,0,0,82.09,274Z"/><path class="cls-2" d="M108.3,292.24a1.46,1.46,0,0,1-.46-.56l-7.11-12.24v12.1a1,1,0,0,1-.25.68.75.75,0,0,1-.59.29H95.83a.75.75,0,0,1-.59-.29,1,1,0,0,1-.25-.68V268.42a1,1,0,0,1,.25-.68.75.75,0,0,1,.59-.29h3.22a1.26,1.26,0,0,1,.81.27,1.58,1.58,0,0,1,.47.56l7.11,12.24v-12.1a1,1,0,0,1,.24-.68.78.78,0,0,1,.59-.29h4.07a.77.77,0,0,1,.59.29,1,1,0,0,1,.25.68v23.12a1,1,0,0,1-.25.68.77.77,0,0,1-.59.29h-3.23A1.28,1.28,0,0,1,108.3,292.24Z"/><path class="cls-2" d="M124.82,279.73c0,1.48,0,2.57.09,3.26a5.25,5.25,0,0,0,1.06,3,3.44,3.44,0,0,0,2.85,1.16,4.13,4.13,0,0,0,2.84-.95,3.78,3.78,0,0,0,1.07-3h-2.6a.74.74,0,0,1-.59-.28,1,1,0,0,1-.25-.68v-3.8a1,1,0,0,1,.25-.68.74.74,0,0,1,.59-.28h7.51a.76.76,0,0,1,.59.28,1,1,0,0,1,.25.68V283a10.34,10.34,0,0,1-1.28,5.21,8.8,8.8,0,0,1-3.46,3.44,10.06,10.06,0,0,1-4.92,1.19,9.49,9.49,0,0,1-5-1.3,9.11,9.11,0,0,1-3.32-3.51,11.34,11.34,0,0,1-1.3-4.88c0-1.15-.06-2.09-.06-2.83s0-2.07.06-3.54a11.09,11.09,0,0,1,1.27-4.89,9,9,0,0,1,3.34-3.51,9.55,9.55,0,0,1,5-1.3,9.89,9.89,0,0,1,4.89,1.18,9.15,9.15,0,0,1,3.32,3,6.92,6.92,0,0,1,1.29,3.47.66.66,0,0,1-.19.55.64.64,0,0,1-.49.24h-4.13a.86.86,0,0,1-.64-.24,7.84,7.84,0,0,1-.6-.73,4.47,4.47,0,0,0-1.32-1.25,4.1,4.1,0,0,0-2.13-.47c-2.34,0-3.64,1.39-3.91,4.15Q124.82,277.84,124.82,279.73Z"/><path class="cls-2" d="M158.44,268.38a8.93,8.93,0,0,1,3.3,3.49A11.44,11.44,0,0,1,163,276.8c0,.66.06,1.74.06,3.22s0,2.5-.06,3.15a11.43,11.43,0,0,1-1.29,4.92,8.93,8.93,0,0,1-3.3,3.49,10.78,10.78,0,0,1-10.19,0,8.86,8.86,0,0,1-3.3-3.49,11.43,11.43,0,0,1-1.29-4.92q-.06-1.94-.06-3.15c0-.81,0-1.89.06-3.22a11.44,11.44,0,0,1,1.29-4.93,8.86,8.86,0,0,1,3.3-3.49,10.78,10.78,0,0,1,10.19,0ZM156.15,274a4,4,0,0,0-5.61,0,5.11,5.11,0,0,0-1.14,3q-.09,1.18-.09,3c0,1.17,0,2.19.09,3.05a5.11,5.11,0,0,0,1.14,3,4,4,0,0,0,5.61,0,5.11,5.11,0,0,0,1.14-3c.06-.86.09-1.88.09-3.05s0-2.18-.09-3A5.11,5.11,0,0,0,156.15,274Z"/><path class="cls-2" d="M188,280c0,.38,0,1.21-.07,2.5a11.39,11.39,0,0,1-1.32,5.19,9.06,9.06,0,0,1-3.36,3.53,9.55,9.55,0,0,1-5,1.27h-8.38a.75.75,0,0,1-.59-.29,1,1,0,0,1-.25-.68V268.42a1,1,0,0,1,.25-.68.75.75,0,0,1,.59-.29h8.22a9.88,9.88,0,0,1,5,1.27,9,9,0,0,1,3.44,3.55,11.21,11.21,0,0,1,1.35,5.17C188,278.78,188,279.64,188,280Zm-13.2-6.84v13.6h3.32q3.91,0,4.07-4.11.06-2.09.06-2.73t-.06-2.64a4.4,4.4,0,0,0-1.16-3.08,4.25,4.25,0,0,0-3.06-1Z"/><path class="cls-2" d="M194.13,292.22a1,1,0,0,1-.25-.68V268.42a1,1,0,0,1,.25-.68.77.77,0,0,1,.59-.29h10a7.69,7.69,0,0,1,4.28,1.08,6.12,6.12,0,0,1,2.37,2.74,8.85,8.85,0,0,1,.73,3.63,6.55,6.55,0,0,1-.54,2.88,5.34,5.34,0,0,1-1.19,1.66,5.23,5.23,0,0,1,1.67,2.21,8.47,8.47,0,0,1,.5,3.09,8.72,8.72,0,0,1-1.74,5.55q-1.74,2.22-5.43,2.22H194.72A.77.77,0,0,1,194.13,292.22Zm5.5-19.22v4.08h4.81a1.79,1.79,0,0,0,1.41-.54,2.15,2.15,0,0,0,.48-1.5,2.18,2.18,0,0,0-.48-1.5,1.79,1.79,0,0,0-1.41-.54Zm5.12,14a1.92,1.92,0,0,0,1.49-.61,2.23,2.23,0,0,0,.56-1.57,2.26,2.26,0,0,0-.56-1.58,2,2,0,0,0-1.49-.61h-5.12V287Z"/><rect class="cls-3" width="256" height="256" rx="60"/><path class="cls-4" d="M171.17,107.59c-10.53-46.48-32.49-58.85-38.1-67.6A99.42,99.42,0,0,1,127,28c-.3,4.13-.84,6.73-4.35,9.86-7,6.29-37,30.68-39.5,83.49-2.34,49.24,36.2,79.6,41.29,82.74,3.92,1.93,8.69,0,11-1.73,18.58-12.75,44-46.75,35.78-94.77"/><path class="cls-5" d="M128.54,177.87c-1,12.19-1.66,19.27-4.12,26.24,0,0,1.61,11.6,2.75,23.89h4a224.05,224.05,0,0,1,4.38-25.73C130.37,199.71,128.74,188.57,128.54,177.87Z"/><path class="cls-6" d="M135.57,202.27c-5.26-2.42-6.78-13.8-7-24.4a500.54,500.54,0,0,0,1.14-52.54c-.28-9.2.13-85.16-2.27-96.28A93.34,93.34,0,0,0,133.07,40c5.61,8.76,27.57,21.13,38.1,67.61C179.38,155.53,154.13,189.44,135.57,202.27Z"/></svg>