<svg id="Layer_1" data-name="Layer 1" xmlns="http://www.w3.org/2000/svg" viewBox="0 0 256 300"><defs><style>.cls-1{fill:#fff;}.cls-2{fill:#0d1117;}.cls-3{fill:#092e20;}</style></defs><rect class="cls-1" y="162.64" width="256" height="137.36"/><path class="cls-2" d="M75.79,280c0,.38,0,1.21-.06,2.5a11.39,11.39,0,0,1-1.32,5.19A9.09,9.09,0,0,1,71,291.24a9.52,9.52,0,0,1-5,1.27H57.69a.78.78,0,0,1-.59-.29,1,1,0,0,1-.24-.68V268.42a1,1,0,0,1,.24-.68.78.78,0,0,1,.59-.29h8.23a9.87,9.87,0,0,1,5,1.27,9.13,9.13,0,0,1,3.45,3.55,11.21,11.21,0,0,1,1.35,5.17Q75.79,279.45,75.79,280ZM62.6,273.18v13.6h3.32c2.61,0,4-1.37,4.07-4.11q.06-2.09.06-2.73T70,277.3a4.41,4.41,0,0,0-1.17-3.08,4.22,4.22,0,0,0-3.06-1Z"/><path class="cls-2" d="M97,288.55a8.17,8.17,0,0,1-3.35,3.22A10,10,0,0,1,89,292.86a10.53,10.53,0,0,1-4.73-1,7.83,7.83,0,0,1-3.29-3,8.45,8.45,0,0,1-1.23-4.44.85.85,0,0,1,.2-.56.65.65,0,0,1,.49-.23h4a1.12,1.12,0,0,1,.76.2,2.18,2.18,0,0,1,.39.84,3.42,3.42,0,0,0,1.18,1.86,3.64,3.64,0,0,0,2.26.61,3.33,3.33,0,0,0,2.64-1,4.34,4.34,0,0,0,.9-2.95v-10H81.87a.75.75,0,0,1-.59-.29,1,1,0,0,1-.24-.68v-3.79a1,1,0,0,1,.24-.68.78.78,0,0,1,.59-.29H97.36a.75.75,0,0,1,.59.29,1,1,0,0,1,.25.68v15A10.07,10.07,0,0,1,97,288.55Z"/><path class="cls-2" d="M124.4,291.18a1.9,1.9,0,0,1,.12.54.78.78,0,0,1-.2.55.6.6,0,0,1-.48.24h-3.91a1.16,1.16,0,0,1-.82-.27,1.24,1.24,0,0,1-.39-.63l-.87-3h-8.26l-.87,3a1.29,1.29,0,0,1-.38.63,1.18,1.18,0,0,1-.83.27H103.6a.63.63,0,0,1-.48-.24.83.83,0,0,1-.2-.55,1.9,1.9,0,0,1,.12-.54l6.77-22.54a2,2,0,0,1,.5-.85,1.22,1.22,0,0,1,.9-.34h5a1.25,1.25,0,0,1,.9.34,2,2,0,0,1,.49.85Zm-8.16-8.08-2.52-8.59-2.51,8.59Z"/><path class="cls-2" d="M142.74,292.24a1.46,1.46,0,0,1-.46-.56l-7.11-12.24v12.1a1,1,0,0,1-.25.68.75.75,0,0,1-.59.29h-4.06a.75.75,0,0,1-.59-.29,1,1,0,0,1-.25-.68V268.42a1,1,0,0,1,.25-.68.75.75,0,0,1,.59-.29h3.22a1.26,1.26,0,0,1,.81.27,1.58,1.58,0,0,1,.47.56l7.11,12.24v-12.1a1,1,0,0,1,.24-.68.77.77,0,0,1,.59-.29h4.07a.77.77,0,0,1,.59.29,1,1,0,0,1,.25.68v23.12a1,1,0,0,1-.25.68.77.77,0,0,1-.59.29h-3.23A1.28,1.28,0,0,1,142.74,292.24Z"/><path class="cls-2" d="M159.26,279.73c0,1.48,0,2.57.09,3.26a5.25,5.25,0,0,0,1.06,3,3.44,3.44,0,0,0,2.85,1.16,4.13,4.13,0,0,0,2.84-.95,3.78,3.78,0,0,0,1.07-3h-2.61a.77.77,0,0,1-.59-.28,1,1,0,0,1-.24-.68v-3.8a1,1,0,0,1,.24-.68.77.77,0,0,1,.59-.28h7.52a.76.76,0,0,1,.59.28,1,1,0,0,1,.25.68V283a10.34,10.34,0,0,1-1.28,5.21,8.8,8.8,0,0,1-3.46,3.44,10.06,10.06,0,0,1-4.92,1.19,9.49,9.49,0,0,1-5-1.3,9.11,9.11,0,0,1-3.32-3.51,11.34,11.34,0,0,1-1.3-4.88c0-1.15-.06-2.09-.06-2.83s0-2.07.06-3.54a11,11,0,0,1,1.27-4.89,9,9,0,0,1,3.34-3.51,9.55,9.55,0,0,1,5-1.3,9.89,9.89,0,0,1,4.89,1.18,9.15,9.15,0,0,1,3.32,3,6.92,6.92,0,0,1,1.29,3.47.66.66,0,0,1-.19.55.64.64,0,0,1-.49.24H168a.86.86,0,0,1-.64-.24,7.84,7.84,0,0,1-.6-.73,4.73,4.73,0,0,0-1.32-1.25,4.1,4.1,0,0,0-2.13-.47c-2.34,0-3.64,1.39-3.91,4.15Q159.26,277.84,159.26,279.73Z"/><path class="cls-2" d="M192.88,268.38a8.93,8.93,0,0,1,3.3,3.49,11.44,11.44,0,0,1,1.29,4.93c0,.66.06,1.74.06,3.22s0,2.5-.06,3.15a11.43,11.43,0,0,1-1.29,4.92,8.93,8.93,0,0,1-3.3,3.49,10.78,10.78,0,0,1-10.19,0,8.86,8.86,0,0,1-3.3-3.49,11.43,11.43,0,0,1-1.29-4.92Q178,281.24,178,280c0-.81,0-1.89.06-3.22a11.44,11.44,0,0,1,1.29-4.93,8.86,8.86,0,0,1,3.3-3.49,10.78,10.78,0,0,1,10.19,0ZM190.59,274a4.06,4.06,0,0,0-5.62,0,5.17,5.17,0,0,0-1.13,3q-.09,1.18-.09,3c0,1.17,0,2.19.09,3.05a5.17,5.17,0,0,0,1.13,3,4.06,4.06,0,0,0,5.62,0,5.18,5.18,0,0,0,1.14-3c.06-.86.09-1.88.09-3.05s0-2.18-.09-3A5.18,5.18,0,0,0,190.59,274Z"/><rect class="cls-3" width="256" height="256" rx="60"/><path class="cls-1" d="M112.69,51H141.3V183.45c-14.68,2.79-25.45,3.9-37.16,3.9C69.21,187.35,51,171.56,51,141.27c0-29.17,19.33-48.12,49.24-48.12a45.88,45.88,0,0,1,12.45,1.48Zm0,66.67a28.48,28.48,0,0,0-9.66-1.48c-14.5,0-22.86,8.92-22.86,24.52,0,15.24,8,23.6,22.67,23.6a67.65,67.65,0,0,0,9.85-.74Z"/><path class="cls-1" d="M186.83,95.19v66.33c0,22.86-1.68,33.82-6.69,43.3-4.65,9.1-10.78,14.86-23.42,21.18l-26.57-12.64c12.64-5.94,18.77-11.14,22.67-19.13,4.09-8.18,5.39-17.66,5.39-42.55V95.19Zm-28.62-44h28.62V80.51H158.21Z"/></svg>