<svg id="Layer_1" data-name="Layer 1" xmlns="http://www.w3.org/2000/svg" viewBox="0 0 256 300"><defs><style>.cls-1{fill:#fff;}.cls-2{fill:#0d1117;}.cls-3{fill:#99424f;}</style></defs><rect class="cls-1" y="162.64" width="256" height="137.36"/><path class="cls-2" d="M100.87,288.55a8.11,8.11,0,0,1-3.35,3.22,10,10,0,0,1-4.66,1.1,10.54,10.54,0,0,1-4.73-1,7.83,7.83,0,0,1-3.29-3,8.45,8.45,0,0,1-1.23-4.44.85.85,0,0,1,.2-.56.65.65,0,0,1,.49-.23h4a1.12,1.12,0,0,1,.76.2,2.18,2.18,0,0,1,.39.84,3.44,3.44,0,0,0,1.18,1.86,3.64,3.64,0,0,0,2.26.61,3.33,3.33,0,0,0,2.64-1,4.32,4.32,0,0,0,.9-2.95v-10H85.78a.72.72,0,0,1-.58-.29,1,1,0,0,1-.25-.67v-3.8a1,1,0,0,1,.25-.68.75.75,0,0,1,.58-.29h15.49a.75.75,0,0,1,.59.29,1,1,0,0,1,.25.68v15A10.07,10.07,0,0,1,100.87,288.55Z"/><path class="cls-2" d="M114.4,286.78h9.81a.75.75,0,0,1,.59.29,1,1,0,0,1,.25.68v3.79a1,1,0,0,1-.25.68.75.75,0,0,1-.59.29H109.5a.77.77,0,0,1-.59-.29,1,1,0,0,1-.25-.68V268.42a1,1,0,0,1,.25-.68.77.77,0,0,1,.59-.29H124a.75.75,0,0,1,.59.29,1,1,0,0,1,.25.68v3.8a1,1,0,0,1-.25.67.72.72,0,0,1-.59.29H114.4v3.87h8.88a.74.74,0,0,1,.59.28,1,1,0,0,1,.25.68v3.8a1,1,0,0,1-.25.68.74.74,0,0,1-.59.28H114.4Z"/><path class="cls-2" d="M147.79,274.7a.6.6,0,0,1-.45.24h-4.07a1.55,1.55,0,0,1-.68-.13,2,2,0,0,1-.56-.45l-.4-.48a3,3,0,0,0-1.07-.74,4.26,4.26,0,0,0-1.7-.32,5,5,0,0,0-2.18.41,1.46,1.46,0,0,0-.86,1.42,1.37,1.37,0,0,0,.53,1.13,4.91,4.91,0,0,0,1.63.73c.73.21,2,.54,3.83,1a10,10,0,0,1,5.16,2.57,8.05,8.05,0,0,1,.41,9.15,7.74,7.74,0,0,1-3.41,2.72,12.38,12.38,0,0,1-4.95.95,10.72,10.72,0,0,1-4.84-1.08,9,9,0,0,1-3.42-2.79,6.32,6.32,0,0,1-1.3-3.54.85.85,0,0,1,.2-.56.6.6,0,0,1,.45-.23h4.07a1.63,1.63,0,0,1,1.18.5l.49.63a3.67,3.67,0,0,0,1.23.93,4.34,4.34,0,0,0,1.94.41c2.56,0,3.85-.63,3.85-1.9a1.24,1.24,0,0,0-.55-1,5,5,0,0,0-1.53-.7c-.66-.19-1.72-.46-3.17-.82l-1.39-.32a8.35,8.35,0,0,1-4.66-2.63,7.62,7.62,0,0,1-1.49-4.92,7.17,7.17,0,0,1,1.09-3.85,7.82,7.82,0,0,1,3.08-2.83,10.44,10.44,0,0,1,9.21,0,9.27,9.27,0,0,1,3.27,2.74,5.85,5.85,0,0,1,1.26,3.22A.83.83,0,0,1,147.79,274.7Z"/><path class="cls-2" d="M169.9,267.74a1,1,0,0,1,.25.68v3.8a1,1,0,0,1-.25.67.72.72,0,0,1-.58.29h-5.47v18.36a1,1,0,0,1-.25.68.75.75,0,0,1-.59.29H159a.75.75,0,0,1-.59-.29,1,1,0,0,1-.25-.68V273.18h-5.46a.72.72,0,0,1-.59-.29,1,1,0,0,1-.25-.67v-3.8a1,1,0,0,1,.25-.68.75.75,0,0,1,.59-.29h16.67A.75.75,0,0,1,169.9,267.74Z"/><rect class="cls-3" width="256" height="256" rx="60"/><path class="cls-1" d="M213.35,126.5A26,26,0,0,0,194,101.42L218.85,28H95.46l25,73.65a25.91,25.91,0,0,0-7.76,46,69.2,69.2,0,0,1-9,10.36,67.51,67.51,0,0,1-21.25,13.72c-6.94-4.68-10-13-7.23-20.38a26,26,0,1,0-26-6.54c-.41.81-.81,1.62-1.22,2.49-3.88,8-8.28,17-10,27.16C34.6,194.76,40.1,211,53.36,220.24A42.49,42.49,0,0,0,77.92,228c15.22,0,30.69-7.64,45.62-15.05,10.66-5.27,21.66-10.77,32.49-13.44,4-1,8.16-1.56,12.56-2.2,8.92-1.27,18.13-2.6,26.41-7.41a37.36,37.36,0,0,0,18.18-25.77,38.15,38.15,0,0,0-3.71-23.91,25.82,25.82,0,0,0,3.88-13.72Zm-11.29,0a14.59,14.59,0,1,1-27.27-7.24,16.57,16.57,0,0,1,1.62-2.32,12.76,12.76,0,0,1,2-1.91l.05-.06c.47-.35,1-.69,1.51-1a.06.06,0,0,0,.06-.06c.23-.11.46-.29.69-.4.06,0,.12-.06.18-.06.23-.12.52-.23.81-.35s.58-.23.81-.35c.06,0,.11-.06.17-.06.23-.05.46-.17.7-.23.06,0,.17,0,.23,0l.81-.18h.06l.87-.17a.35.35,0,0,0,.23-.06c.23,0,.46-.06.69-.06h.29c.29,0,.58-.05.93-.05h.75a2.76,2.76,0,0,1,.64.05H189a13,13,0,0,1,1.39.23,14.73,14.73,0,0,1,11.64,14.37ZM111.62,39.58H202.7l-20.9,61.67a21.33,21.33,0,0,0-2.61.75l-22-44.87-22.07,44.58a21.16,21.16,0,0,0-2.72-.64ZM153,121.46a25.66,25.66,0,0,0-7.82-13.9l12-24.2,12.1,24.72a26.16,26.16,0,0,0-7.24,13.38Zm-29-9.15.81-.18H125c.23,0,.47,0,.7-.11h.23c.23,0,.4-.06.64-.06h2.25c.23,0,.41.06.58.06a.49.49,0,0,1,.29.06c.23,0,.41,0,.64.11a.42.42,0,0,1,.23.06l.81.17h.06a3.73,3.73,0,0,1,.69.23c.06,0,.12.06.24.06a3,3,0,0,1,.58.23s.11.06.17.06c.23.12.46.18.69.29h.06a3,3,0,0,1,.75.41h.06c.23.11.46.29.7.4,0,0,0,.06.11.06.23.12.41.29.64.41l.06.05c.69.52,1.33,1.1,2,1.68l.05.06a14.62,14.62,0,1,1-14.18-4Zm-57-.41a14.6,14.6,0,1,1-14.59,14.6A14.61,14.61,0,0,1,67,111.9Zm134.68,50.2a25.54,25.54,0,0,1-12.56,17.78c-6.31,3.65-14.07,4.81-22.24,6-4.45.63-9.14,1.33-13.66,2.43-12,2.95-23.63,8.74-34.86,14.3C104,209.7,90.48,216.42,77.92,216.42a30.33,30.33,0,0,1-18-5.73c-12.74-8.81-12.11-25.31-10.6-34.34,1.39-8.45,5.27-16.39,9-24,.24-.47.41-.87.64-1.33a22.8,22.8,0,0,0,4,1C60.78,164.36,67,177,79.19,183.3l2.2,1.16,2.37-.87a78.86,78.86,0,0,0,27.8-17.26,77.9,77.9,0,0,0,12-14.3,23.41,23.41,0,0,0,4,.29,26,26,0,0,0,25.07-19.4h9.73a25.9,25.9,0,0,0,25.07,19.4,25.6,25.6,0,0,0,13.09-3.59,26.35,26.35,0,0,1,1.15,13.37Z"/></svg>