<svg id="Layer_1" data-name="Layer 1" xmlns="http://www.w3.org/2000/svg" xmlns:xlink="http://www.w3.org/1999/xlink" viewBox="0 0 256 300"><defs><style>.cls-1{fill:none;}.cls-2{fill:#fff;}.cls-3{fill:#0d1117;}.cls-4{fill:#f03c2e;}.cls-5{clip-path:url(#clip-path);}</style><clipPath id="clip-path"><rect id="SVGID" class="cls-1" x="28" y="28" width="200" height="200"/></clipPath></defs><rect class="cls-2" y="162.64" width="256" height="137.36"/><path class="cls-3" d="M106,279.73c0,1.48,0,2.57.1,3.26a5.24,5.24,0,0,0,1,3,3.45,3.45,0,0,0,2.86,1.16,4.15,4.15,0,0,0,2.84-.95,3.81,3.81,0,0,0,1.07-3H111.3a.76.76,0,0,1-.59-.28,1,1,0,0,1-.25-.68v-3.8a1,1,0,0,1,.25-.68.76.76,0,0,1,.59-.28h7.51a.74.74,0,0,1,.59.28,1,1,0,0,1,.25.68V283a10.34,10.34,0,0,1-1.27,5.21,8.8,8.8,0,0,1-3.46,3.44,10.07,10.07,0,0,1-4.92,1.2,9.47,9.47,0,0,1-5-1.31,9,9,0,0,1-3.32-3.51,11.35,11.35,0,0,1-1.31-4.88c0-1.15-.06-2.09-.06-2.83s0-2.06.06-3.54a11,11,0,0,1,1.28-4.89A8.92,8.92,0,0,1,105,268.4a9.56,9.56,0,0,1,5-1.3,9.89,9.89,0,0,1,4.89,1.18,9.32,9.32,0,0,1,3.32,3,7,7,0,0,1,1.28,3.47.65.65,0,0,1-.18.55.66.66,0,0,1-.5.24h-4.13a.82.82,0,0,1-.63-.24,5.58,5.58,0,0,1-.61-.73,4.47,4.47,0,0,0-1.32-1.25,4,4,0,0,0-2.12-.47c-2.34,0-3.65,1.39-3.91,4.15A26,26,0,0,0,106,279.73Z"/><path class="cls-3" d="M125.8,292.22a1,1,0,0,1-.25-.68V268.42a1,1,0,0,1,.25-.68.75.75,0,0,1,.59-.29h4.06a.75.75,0,0,1,.59.29,1,1,0,0,1,.25.68v23.12a1,1,0,0,1-.25.68.75.75,0,0,1-.59.29h-4.06A.75.75,0,0,1,125.8,292.22Z"/><path class="cls-3" d="M153.83,267.74a1,1,0,0,1,.24.68v3.79a1,1,0,0,1-.24.68.75.75,0,0,1-.59.29h-5.47v18.36a1,1,0,0,1-.25.68.75.75,0,0,1-.59.29h-4.06a.75.75,0,0,1-.59-.29,1,1,0,0,1-.25-.68V273.18h-5.46a.72.72,0,0,1-.59-.29,1,1,0,0,1-.25-.68v-3.79a1,1,0,0,1,.25-.68.75.75,0,0,1,.59-.29h16.67A.78.78,0,0,1,153.83,267.74Z"/><rect class="cls-4" width="256" height="256" rx="60"/><g class="cls-5"><path class="cls-2" d="M224.23,119.09,136.91,31.77A13.09,13.09,0,0,0,132.73,29a12.89,12.89,0,0,0-9.86,0,13.09,13.09,0,0,0-4.18,2.79L100.57,49.9l23,23a15.3,15.3,0,0,1,19.37,19.5l22.17,22.17a15.31,15.31,0,1,1-.88,28.64,15.51,15.51,0,0,1-5-3.33,15.34,15.34,0,0,1-3.34-16.67l-20.68-20.67v54.4a16,16,0,0,1,4.07,2.9,15.47,15.47,0,0,1,3.32,5,15.33,15.33,0,0,1-3.32,16.7,15.33,15.33,0,0,1-25-5,15.29,15.29,0,0,1,0-11.73,15.47,15.47,0,0,1,3.32-5,14.82,14.82,0,0,1,5-3.34V101.59a15.14,15.14,0,0,1-5-3.35,15.31,15.31,0,0,1-3.3-16.75L91.64,58.81,31.77,118.62a12.88,12.88,0,0,0-2.8,14,12.75,12.75,0,0,0,2.8,4.18l87.32,87.32a13.09,13.09,0,0,0,4.18,2.79,12.89,12.89,0,0,0,9.86,0,13.09,13.09,0,0,0,4.18-2.79l86.92-86.78A13.09,13.09,0,0,0,227,133.2a12.87,12.87,0,0,0-2.79-14"/></g></svg>