<svg id="Layer_1" data-name="Layer 1" xmlns="http://www.w3.org/2000/svg" viewBox="0 0 256 300"><defs><style>.cls-1{fill:#fff;}.cls-2{fill:#0d1117;}.cls-3{fill:#764abc;}</style></defs><rect class="cls-1" y="162.64" width="256" height="137.36"/><path class="cls-2" d="M85.49,269.51c1.53,1.38,2.3,3.42,2.3,6.14q0,5.19-3.7,7.16l3.85,8.52a.87.87,0,0,1,.1.39.81.81,0,0,1-.21.56.62.62,0,0,1-.48.23H83.13a1.18,1.18,0,0,1-.84-.27,2.13,2.13,0,0,1-.46-.7l-3.45-7.66H75.53v7.66a1,1,0,0,1-.25.68.77.77,0,0,1-.59.29H70.62a.77.77,0,0,1-.59-.29,1,1,0,0,1-.25-.68V268.42a1,1,0,0,1,.25-.68.77.77,0,0,1,.59-.29H79A9.35,9.35,0,0,1,85.49,269.51ZM79,278.3c2,0,3-.88,3-2.65S81,273,79,273h-3.5v5.3Z"/><path class="cls-2" d="M99.49,286.78h9.81a.77.77,0,0,1,.59.29,1,1,0,0,1,.25.68v3.79a1,1,0,0,1-.25.68.77.77,0,0,1-.59.29H94.59a.75.75,0,0,1-.59-.29,1,1,0,0,1-.25-.68V268.42a1,1,0,0,1,.25-.68.75.75,0,0,1,.59-.29h14.46a.77.77,0,0,1,.59.29,1,1,0,0,1,.25.68v3.8a1,1,0,0,1-.25.67.74.74,0,0,1-.59.29H99.49v3.87h8.88a.77.77,0,0,1,.59.28,1,1,0,0,1,.25.68v3.8a1,1,0,0,1-.25.68.77.77,0,0,1-.59.28H99.49Z"/><path class="cls-2" d="M135,280c0,.38,0,1.21-.06,2.5a11.39,11.39,0,0,1-1.32,5.19,9,9,0,0,1-3.37,3.53,9.51,9.51,0,0,1-5,1.27h-8.39a.78.78,0,0,1-.59-.29,1,1,0,0,1-.24-.68V268.42a1,1,0,0,1,.24-.68.78.78,0,0,1,.59-.29h8.23a9.78,9.78,0,0,1,5,1.28,9,9,0,0,1,3.45,3.54,11.21,11.21,0,0,1,1.35,5.17Q135,279.45,135,280Zm-13.19-6.84v13.6h3.32c2.61,0,4-1.37,4.07-4.11,0-1.39.06-2.29.06-2.72s0-1.36-.06-2.65a4.41,4.41,0,0,0-1.17-3.08,4.21,4.21,0,0,0-3-1Z"/><path class="cls-2" d="M159.34,267.74a1,1,0,0,1,.24.68V282.7a11.83,11.83,0,0,1-1.18,5.51,8.11,8.11,0,0,1-3.3,3.48,11,11,0,0,1-9.93,0,8.06,8.06,0,0,1-3.3-3.48,12.09,12.09,0,0,1-1.16-5.51V268.42a1,1,0,0,1,.25-.68.75.75,0,0,1,.59-.29h4.07a.78.78,0,0,1,.59.29,1,1,0,0,1,.24.68v14.14a5.35,5.35,0,0,0,1,3.38,3.74,3.74,0,0,0,5.49,0,5.35,5.35,0,0,0,1-3.38V268.42a1,1,0,0,1,.25-.68.75.75,0,0,1,.59-.29h4.07A.78.78,0,0,1,159.34,267.74Z"/><path class="cls-2" d="M170.94,291.69a2.23,2.23,0,0,1-.49.62,1.28,1.28,0,0,1-.78.2H165a.65.65,0,0,1-.48-.23.89.89,0,0,1-.11-.95l7.17-11.56-6.86-11.13a1.08,1.08,0,0,1-.09-.4.83.83,0,0,1,.2-.55.63.63,0,0,1,.48-.24H170a1.09,1.09,0,0,1,.79.26,2.87,2.87,0,0,1,.51.64l3.76,6,3.63-6a3.58,3.58,0,0,1,.51-.64,1.11,1.11,0,0,1,.8-.26h4.74a.63.63,0,0,1,.49.24.83.83,0,0,1,.2.55.94.94,0,0,1-.1.4l-6.89,11.27,7.11,11.42a.86.86,0,0,1,.09.39.8.8,0,0,1-.2.56.62.62,0,0,1-.48.23h-4.72a1.22,1.22,0,0,1-.77-.2,2.24,2.24,0,0,1-.5-.62l-4-6.45Z"/><rect class="cls-3" width="256" height="256" rx="60"/><path class="cls-1" d="M166.58,165.6a14.3,14.3,0,0,0-1.53-28.51h-.51a14.23,14.23,0,0,0-13.74,14.76,14.6,14.6,0,0,0,4.07,9.42c-8.65,17-21.89,29.52-41.74,40a68.79,68.79,0,0,1-41.48,7.89c-11.46-1.53-20.36-6.62-26-15-8.15-12.47-8.91-26-2-39.45A60,60,0,0,1,61,134.29c-1-3.3-2.55-8.9-3.31-13C20.75,148,24.56,184.18,35.76,201.23c8.4,12.73,25.45,20.62,44.29,20.62a62.21,62.21,0,0,0,15.27-1.79c32.57-6.36,57.26-25.7,71.26-54.46Z"/><path class="cls-1" d="M211.37,134C192,111.39,163.52,98.92,131,98.92h-4.07a14,14,0,0,0-12.48-7.64h-.5a14.26,14.26,0,0,0,.5,28.51h.51a14.36,14.36,0,0,0,12.48-8.66H132a97,97,0,0,1,54.21,16.55c12.72,8.4,21.88,19.34,27,32.57,4.33,10.69,4.08,21.13-.5,30-7.13,13.48-19.09,20.87-34.87,20.87a65.08,65.08,0,0,1-24.94-5.35c-2.8,2.55-7.89,6.62-11.46,9.16,11,5.09,22.14,7.89,32.83,7.89,24.44,0,42.51-13.49,49.38-27C231,181.12,230.46,155.67,211.37,134Z"/><path class="cls-1" d="M82.08,169.93a14.3,14.3,0,0,0,14.25,13.74h.51a14.26,14.26,0,0,0-.51-28.51h-.5a4.29,4.29,0,0,0-1.79.26,93.27,93.27,0,0,1-13.23-56.5c1-15.27,6.11-28.51,15-39.45,7.38-9.42,21.63-14,31.3-14.25,27-.51,38.43,33.08,39.19,46.57,3.31.77,8.91,2.55,12.73,3.82C176,54.38,150.54,33,126.11,33c-22.9,0-44,16.54-52.43,41-11.7,32.57-4.07,63.88,10.18,88.56a11.52,11.52,0,0,0-1.78,7.39Z"/></svg>