<svg id="Layer_1" data-name="Layer 1" xmlns="http://www.w3.org/2000/svg" viewBox="0 0 256 300"><defs><style>.cls-1,.cls-5{fill:#fff;}.cls-2{fill:#0d1117;}.cls-3,.cls-4{fill:#242938;}.cls-4,.cls-5,.cls-6{fill-rule:evenodd;}.cls-6{fill:#47b353;}</style></defs><rect class="cls-1" y="162.64" width="256" height="137.36"/><path class="cls-2" d="M81.61,292.22a1,1,0,0,1-.25-.68V268.42a1,1,0,0,1,.25-.68.77.77,0,0,1,.59-.29h10a7.69,7.69,0,0,1,4.28,1.08,6.12,6.12,0,0,1,2.37,2.74,8.89,8.89,0,0,1,.73,3.63,6.55,6.55,0,0,1-.54,2.88,5.19,5.19,0,0,1-1.2,1.66,5.17,5.17,0,0,1,1.68,2.21,8.47,8.47,0,0,1,.5,3.09,8.72,8.72,0,0,1-1.74,5.55q-1.74,2.22-5.43,2.22H82.2A.77.77,0,0,1,81.61,292.22ZM87.1,273v4.08h4.82a1.79,1.79,0,0,0,1.41-.54,2.15,2.15,0,0,0,.48-1.5,2.18,2.18,0,0,0-.48-1.5,1.79,1.79,0,0,0-1.41-.54Zm5.13,14a1.92,1.92,0,0,0,1.49-.61,2.23,2.23,0,0,0,.55-1.57,2.25,2.25,0,0,0-.55-1.58,2,2,0,0,0-1.49-.61H87.1V287Z"/><path class="cls-2" d="M125.1,291.18a1.9,1.9,0,0,1,.12.54.8.8,0,0,1-.2.56.62.62,0,0,1-.48.23h-3.91a1.16,1.16,0,0,1-.82-.27,1.24,1.24,0,0,1-.39-.63l-.87-3h-8.26l-.87,3a1.24,1.24,0,0,1-.39.63,1.16,1.16,0,0,1-.82.27H104.3a.62.62,0,0,1-.48-.23.85.85,0,0,1-.2-.56,1.9,1.9,0,0,1,.12-.54l6.77-22.54a2,2,0,0,1,.5-.85,1.22,1.22,0,0,1,.9-.34h5a1.26,1.26,0,0,1,.91.34,2,2,0,0,1,.49.85Zm-8.17-8.09-2.51-8.59-2.51,8.59Z"/><path class="cls-2" d="M147.12,274.7a.56.56,0,0,1-.45.23h-4.06a1.64,1.64,0,0,1-.69-.12,2.19,2.19,0,0,1-.56-.45l-.4-.48a3,3,0,0,0-1.07-.74,4.24,4.24,0,0,0-1.69-.32,5.12,5.12,0,0,0-2.19.41,1.45,1.45,0,0,0-.85,1.42,1.36,1.36,0,0,0,.52,1.13,5.23,5.23,0,0,0,1.63.73c.74.21,2,.54,3.84,1a10,10,0,0,1,5.15,2.57,7,7,0,0,1,1.64,5,7.14,7.14,0,0,1-1.22,4.14,7.83,7.83,0,0,1-3.42,2.72,12.38,12.38,0,0,1-5,.95,10.72,10.72,0,0,1-4.84-1.08A8.88,8.88,0,0,1,130.1,289a6.34,6.34,0,0,1-1.31-3.54.85.85,0,0,1,.2-.56.62.62,0,0,1,.45-.23h4.07a1.63,1.63,0,0,1,1.18.5l.5.63a3.52,3.52,0,0,0,1.22.93,4.37,4.37,0,0,0,1.94.41c2.57,0,3.85-.63,3.85-1.9a1.25,1.25,0,0,0-.54-1,5.05,5.05,0,0,0-1.54-.7c-.66-.19-1.72-.46-3.16-.82l-1.4-.32a8.42,8.42,0,0,1-4.66-2.63,7.62,7.62,0,0,1-1.49-4.92A7.26,7.26,0,0,1,130.5,271a7.79,7.79,0,0,1,3.09-2.83,10.42,10.42,0,0,1,9.2,0,9.31,9.31,0,0,1,3.28,2.74,5.91,5.91,0,0,1,1.25,3.22A.78.78,0,0,1,147.12,274.7Z"/><path class="cls-2" d="M171.57,267.74a1,1,0,0,1,.24.68v23.12a1,1,0,0,1-.24.68.78.78,0,0,1-.59.29h-4.07a.77.77,0,0,1-.59-.29,1,1,0,0,1-.25-.68v-8.77h-6.89v8.77a1,1,0,0,1-.25.68.75.75,0,0,1-.59.29h-4.06a.76.76,0,0,1-.59-.27,1,1,0,0,1-.25-.7V268.42a1,1,0,0,1,.25-.68.75.75,0,0,1,.59-.29h4.06a.75.75,0,0,1,.59.29,1,1,0,0,1,.25.68v8.63h6.89v-8.63a1,1,0,0,1,.25-.68.77.77,0,0,1,.59-.29H171A.78.78,0,0,1,171.57,267.74Z"/><rect class="cls-3" width="256" height="256" rx="60"/><path class="cls-4" d="M203.82,68.84,140.68,31.36a23.76,23.76,0,0,0-24.36,0L53.18,68.84A25.15,25.15,0,0,0,41,90.52v75a25.17,25.17,0,0,0,12.18,21.69l63.14,37.48a23.82,23.82,0,0,0,24.36,0l63.14-37.48A25.19,25.19,0,0,0,216,165.48v-75A25.17,25.17,0,0,0,203.82,68.84Z"/><path class="cls-5" d="M118.53,220.81,55.39,183.33a20.76,20.76,0,0,1-10-17.85v-75a20.8,20.8,0,0,1,10-17.85l63.15-37.48a19.51,19.51,0,0,1,19.94,0l63.14,37.48a20.61,20.61,0,0,1,9.7,14.44c-2.09-4.47-6.81-5.68-12.32-2.47l-59.73,36.9c-7.45,4.35-12.94,9.24-12.95,18.22v73.6c0,5.38,2.17,8.86,5.51,9.87a19,19,0,0,1-13.29-2.42Zm85.29-152L140.68,31.36a23.76,23.76,0,0,0-24.36,0L53.18,68.83A25.19,25.19,0,0,0,41,90.52v75a25.17,25.17,0,0,0,12.18,21.69l63.14,37.48a23.82,23.82,0,0,0,24.36,0l63.14-37.48A25.19,25.19,0,0,0,216,165.48v-75A25.22,25.22,0,0,0,203.82,68.83Z"/><path class="cls-6" d="M187.27,172.73l-15.73,9.41a1.15,1.15,0,0,0-.72,1v4.11c0,.5.34.71.75.47l16-9.71c.42-.24.48-.7.48-1.21V173.2C188,172.7,187.68,172.49,187.27,172.73Z"/><path class="cls-4" d="M153.79,138.1c.51-.26.93.06.93.72l.06,5.44a10,10,0,0,1,6-.73c.39.1.56.63.41,1.26l-1.2,4.82a2.13,2.13,0,0,1-.55,1,1.24,1.24,0,0,1-.31.23.67.67,0,0,1-.47.08,8.05,8.05,0,0,0-5.83.94,7.33,7.33,0,0,0-4.31,6.48c0,2.48,1.3,3.23,5.68,3.3,5.83.1,8.35,2.65,8.41,8.52a20.93,20.93,0,0,1-7.73,15.77l.1,5.38a2,2,0,0,1-.92,1.65l-3.19,1.84c-.51.25-.93-.06-.94-.71l-.05-5.3c-2.73,1.14-5.5,1.41-7.27.7-.33-.13-.47-.62-.34-1.18l1.15-4.87a2,2,0,0,1,.57-1,1.15,1.15,0,0,1,.3-.22.65.65,0,0,1,.52,0,8.87,8.87,0,0,0,6.68-.85,8.75,8.75,0,0,0,4.94-7.56c0-2.73-1.51-3.87-5.11-3.9-4.59,0-8.87-.89-8.94-7.64a19.65,19.65,0,0,1,7.41-15l-.06-5.43a2,2,0,0,1,.93-1.67Z"/></svg>