<svg id="Layer_1" data-name="Layer 1" xmlns="http://www.w3.org/2000/svg" viewBox="0 0 256 300"><defs><style>.cls-1{fill:#fff;}.cls-2{fill:#0d1117;}.cls-3{fill:#f0db4f;}.cls-4{fill:#323330;}</style></defs><rect class="cls-1" y="162.64" width="256" height="137.36"/><path class="cls-2" d="M34.63,288.55a8.11,8.11,0,0,1-3.35,3.22,10,10,0,0,1-4.66,1.1,10.54,10.54,0,0,1-4.73-1,7.83,7.83,0,0,1-3.29-3,8.45,8.45,0,0,1-1.23-4.44.85.85,0,0,1,.2-.56.65.65,0,0,1,.48-.23h4a1.12,1.12,0,0,1,.76.2,2.18,2.18,0,0,1,.39.84,3.44,3.44,0,0,0,1.18,1.86,3.64,3.64,0,0,0,2.26.61,3.33,3.33,0,0,0,2.64-1,4.32,4.32,0,0,0,.9-2.95v-10H19.54a.75.75,0,0,1-.59-.29,1,1,0,0,1-.24-.67v-3.8a1,1,0,0,1,.24-.68.78.78,0,0,1,.59-.29H35a.75.75,0,0,1,.59.29,1,1,0,0,1,.25.68v15A10.07,10.07,0,0,1,34.63,288.55Z"/><path class="cls-2" d="M60.46,291.18a1.9,1.9,0,0,1,.12.54.85.85,0,0,1-.2.56.65.65,0,0,1-.48.23H56a1.18,1.18,0,0,1-.83-.27,1.29,1.29,0,0,1-.38-.63l-.87-3H45.65l-.87,3a1.24,1.24,0,0,1-.39.63,1.16,1.16,0,0,1-.82.27H39.66a.62.62,0,0,1-.48-.23.8.8,0,0,1-.2-.56,1.9,1.9,0,0,1,.12-.54l6.77-22.54a2,2,0,0,1,.49-.85,1.25,1.25,0,0,1,.9-.34h5a1.22,1.22,0,0,1,.9.34,2,2,0,0,1,.5.85Zm-8.17-8.08-2.51-8.59-2.52,8.59Z"/><path class="cls-2" d="M68.81,291.08l-6.34-22.37a2,2,0,0,1-.09-.47.83.83,0,0,1,.2-.55.63.63,0,0,1,.48-.24H67a1.18,1.18,0,0,1,.82.27,1.39,1.39,0,0,1,.39.63L72.5,284.1l4.32-15.75a1.29,1.29,0,0,1,.38-.63,1.18,1.18,0,0,1,.83-.27h3.91a.63.63,0,0,1,.48.24.83.83,0,0,1,.2.55,2,2,0,0,1-.09.47l-6.34,22.37c-.29.95-.83,1.43-1.64,1.43h-4.1C69.64,292.51,69.1,292,68.81,291.08Z"/><path class="cls-2" d="M107.11,291.18a2,2,0,0,1,.13.54.81.81,0,0,1-.21.56.62.62,0,0,1-.48.23h-3.91a1.16,1.16,0,0,1-.82-.27,1.24,1.24,0,0,1-.39-.63l-.87-3H92.3l-.86,3a1.39,1.39,0,0,1-.39.63,1.18,1.18,0,0,1-.83.27H86.31a.65.65,0,0,1-.48-.23.85.85,0,0,1-.2-.56,1.68,1.68,0,0,1,.13-.54l6.76-22.54a2.06,2.06,0,0,1,.5-.85,1.25,1.25,0,0,1,.9-.34h5a1.25,1.25,0,0,1,.9.34,2,2,0,0,1,.49.85ZM99,283.1l-2.52-8.59-2.51,8.59Z"/><path class="cls-2" d="M129.13,274.7a.57.57,0,0,1-.45.24h-4.06a1.63,1.63,0,0,1-.69-.13,2,2,0,0,1-.55-.45l-.41-.48a2.87,2.87,0,0,0-1.07-.74,4.24,4.24,0,0,0-1.69-.32,5.12,5.12,0,0,0-2.19.41,1.45,1.45,0,0,0-.85,1.42,1.34,1.34,0,0,0,.53,1.13,4.94,4.94,0,0,0,1.62.73c.74.21,2,.54,3.84,1a10,10,0,0,1,5.15,2.57,8,8,0,0,1,.42,9.15,7.86,7.86,0,0,1-3.41,2.72,12.39,12.39,0,0,1-5,.95,10.72,10.72,0,0,1-4.84-1.08,9,9,0,0,1-3.41-2.79,6.42,6.42,0,0,1-1.31-3.54.81.81,0,0,1,.21-.56.59.59,0,0,1,.45-.23h4.06a1.61,1.61,0,0,1,1.18.5l.5.63a3.72,3.72,0,0,0,1.22.93,4.37,4.37,0,0,0,1.94.41c2.57,0,3.85-.63,3.85-1.9a1.25,1.25,0,0,0-.54-1,4.94,4.94,0,0,0-1.54-.7c-.66-.19-1.71-.46-3.16-.82l-1.4-.32a8.42,8.42,0,0,1-4.66-2.63,7.61,7.61,0,0,1-1.48-4.92,7.25,7.25,0,0,1,1.08-3.85,7.92,7.92,0,0,1,3.09-2.83,9.76,9.76,0,0,1,4.61-1,9.66,9.66,0,0,1,4.59,1.09,9.31,9.31,0,0,1,3.28,2.74,6,6,0,0,1,1.26,3.22A.79.79,0,0,1,129.13,274.7Z"/><path class="cls-2" d="M141.49,286a3.43,3.43,0,0,0,2.87,1.15,3.74,3.74,0,0,0,2.7-.82,4.53,4.53,0,0,0,1.18-2,2.45,2.45,0,0,1,.37-.82.89.89,0,0,1,.68-.22h4.07a.6.6,0,0,1,.48.24.78.78,0,0,1,.2.55,8.26,8.26,0,0,1-1.32,4.42,9.24,9.24,0,0,1-3.49,3.21,10.22,10.22,0,0,1-4.87,1.18,9.47,9.47,0,0,1-5-1.31,9,9,0,0,1-3.32-3.51,11.35,11.35,0,0,1-1.31-4.88c0-1.15-.06-2.09-.06-2.83s0-2.06.06-3.54a11.1,11.1,0,0,1,1.28-4.89,9,9,0,0,1,3.33-3.51,9.56,9.56,0,0,1,5.05-1.3,10.11,10.11,0,0,1,4.87,1.18,9.13,9.13,0,0,1,3.49,3.2A8.26,8.26,0,0,1,154,275.9a.8.8,0,0,1-.2.56.62.62,0,0,1-.48.23h-4.07a.85.85,0,0,1-.68-.22,2.35,2.35,0,0,1-.37-.82,4.5,4.5,0,0,0-1.18-2,3.74,3.74,0,0,0-2.7-.83,3.46,3.46,0,0,0-2.87,1.15,5.22,5.22,0,0,0-1,3q-.06,1.22-.06,3c0,1.15,0,2.15.06,3A5.21,5.21,0,0,0,141.49,286Z"/><path class="cls-2" d="M175.34,269.51c1.53,1.38,2.29,3.42,2.29,6.14q0,5.19-3.69,7.16l3.85,8.52a1,1,0,0,1,.09.39.8.8,0,0,1-.2.56.62.62,0,0,1-.48.23H173a1.18,1.18,0,0,1-.84-.27,2.15,2.15,0,0,1-.47-.7l-3.44-7.66h-2.86v7.66a1,1,0,0,1-.25.68.75.75,0,0,1-.59.29h-4.06a.75.75,0,0,1-.59-.29,1,1,0,0,1-.25-.68V268.42a1,1,0,0,1,.25-.68.75.75,0,0,1,.59-.29h8.41A9.37,9.37,0,0,1,175.34,269.51Zm-6.46,8.79c2,0,3-.88,3-2.65s-1-2.65-3-2.65h-3.51v5.3Z"/><path class="cls-2" d="M183.84,292.22a1,1,0,0,1-.25-.68V268.42a1,1,0,0,1,.25-.68.77.77,0,0,1,.59-.29h4.07a.77.77,0,0,1,.59.29,1,1,0,0,1,.25.68v23.12a1,1,0,0,1-.25.68.77.77,0,0,1-.59.29h-4.07A.77.77,0,0,1,183.84,292.22Z"/><path class="cls-2" d="M212.1,269.58c1.53,1.42,2.29,3.51,2.29,6.25s-.76,4.83-2.29,6.26a8.84,8.84,0,0,1-6.31,2.15h-4v7.3a1,1,0,0,1-.24.68.78.78,0,0,1-.59.29h-4.07a.77.77,0,0,1-.59-.29,1,1,0,0,1-.25-.68V268.42a1,1,0,0,1,.25-.68.77.77,0,0,1,.59-.29h8.88A8.88,8.88,0,0,1,212.1,269.58Zm-6.47,9.08a3.31,3.31,0,0,0,2.19-.7,3.18,3.18,0,0,0,0-4.26,3.25,3.25,0,0,0-2.19-.7h-3.82v5.66Z"/><path class="cls-2" d="M235.56,267.74a1,1,0,0,1,.24.68v3.8a1,1,0,0,1-.24.67.75.75,0,0,1-.59.29H229.5v18.36a1,1,0,0,1-.25.68.75.75,0,0,1-.59.29H224.6a.75.75,0,0,1-.59-.29,1,1,0,0,1-.25-.68V273.18H218.3a.72.72,0,0,1-.59-.29,1,1,0,0,1-.25-.67v-3.8a1,1,0,0,1,.25-.68.75.75,0,0,1,.59-.29H235A.78.78,0,0,1,235.56,267.74Z"/><rect class="cls-3" width="256" height="256" rx="60"/><path class="cls-4" d="M67.31,213.93,86.9,202.08c3.78,6.7,7.22,12.37,15.47,12.37,7.9,0,12.89-3.1,12.89-15.12v-81.8h24v82.14c0,24.91-14.6,36.26-35.91,36.26-19.25,0-30.42-10-36.09-22"/><path class="cls-4" d="M152.38,211.35,172,200c5.16,8.42,11.86,14.61,23.71,14.61,10,0,16.33-5,16.33-11.86,0-8.25-6.53-11.17-17.53-16l-6-2.58c-17.36-7.38-28.87-16.66-28.87-36.25,0-18,13.75-31.8,35.23-31.8,15.29,0,26.29,5.33,34.19,19.25l-18.73,12c-4.12-7.39-8.59-10.31-15.46-10.31-7.05,0-11.52,4.47-11.52,10.31,0,7.22,4.47,10.14,14.78,14.61l6,2.57c20.45,8.77,32,17.7,32,37.81,0,21.65-17,33.51-39.87,33.51-22.34,0-36.77-10.66-43.82-24.58"/></svg>