<svg id="Layer_1" data-name="Layer 1" xmlns="http://www.w3.org/2000/svg" viewBox="0 0 256 300"><defs><style>.cls-1{fill:#fff;}.cls-2{fill:#0d1117;}.cls-3{fill:#300;}.cls-4{fill:#ff9a00;}</style></defs><rect class="cls-1" y="162.64" width="256" height="137.36"/><path class="cls-2" d="M9.89,292.22a1,1,0,0,1-.25-.68V268.42a1,1,0,0,1,.25-.68.77.77,0,0,1,.59-.29h4.07a.77.77,0,0,1,.59.29,1,1,0,0,1,.25.68v23.12a1,1,0,0,1-.25.68.77.77,0,0,1-.59.29H10.48A.77.77,0,0,1,9.89,292.22Z"/><path class="cls-2" d="M37.92,287.07a1,1,0,0,1,.25.68v3.79a1,1,0,0,1-.25.68.75.75,0,0,1-.59.29H23a.75.75,0,0,1-.59-.29,1,1,0,0,1-.25-.68V268.42a1,1,0,0,1,.25-.68.75.75,0,0,1,.59-.29H27a.78.78,0,0,1,.59.29,1,1,0,0,1,.24.68v18.36h9.47A.75.75,0,0,1,37.92,287.07Z"/><path class="cls-2" d="M58.59,287.07a1,1,0,0,1,.25.68v3.79a1,1,0,0,1-.25.68.75.75,0,0,1-.59.29H43.63a.78.78,0,0,1-.59-.29,1,1,0,0,1-.25-.68V268.42a1,1,0,0,1,.25-.68.78.78,0,0,1,.59-.29H47.7a.77.77,0,0,1,.59.29,1,1,0,0,1,.25.68v18.36H58A.75.75,0,0,1,58.59,287.07Z"/><path class="cls-2" d="M82.31,267.74a1,1,0,0,1,.25.68V282.7a12,12,0,0,1-1.18,5.51,8.05,8.05,0,0,1-3.31,3.47,11,11,0,0,1-9.93,0,7.9,7.9,0,0,1-3.29-3.47,12,12,0,0,1-1.17-5.51V268.42a1,1,0,0,1,.25-.68.78.78,0,0,1,.59-.29h4.07a.77.77,0,0,1,.59.29,1,1,0,0,1,.25.68v14.14a5.35,5.35,0,0,0,.94,3.38,3.75,3.75,0,0,0,5.5,0,5.35,5.35,0,0,0,.94-3.38V268.42a1,1,0,0,1,.25-.68.78.78,0,0,1,.59-.29h4.07A.77.77,0,0,1,82.31,267.74Z"/><path class="cls-2" d="M105.85,274.7a.56.56,0,0,1-.45.23h-4.06a1.64,1.64,0,0,1-.69-.12,2,2,0,0,1-.55-.45l-.41-.48a2.87,2.87,0,0,0-1.07-.74,4.24,4.24,0,0,0-1.69-.32,5.12,5.12,0,0,0-2.19.41,1.45,1.45,0,0,0-.85,1.42,1.36,1.36,0,0,0,.52,1.13,5.34,5.34,0,0,0,1.63.73c.74.21,2,.54,3.84,1a10,10,0,0,1,5.15,2.57,8,8,0,0,1,.42,9.15,7.86,7.86,0,0,1-3.41,2.72,12.39,12.39,0,0,1-5,.95,10.72,10.72,0,0,1-4.84-1.08A9,9,0,0,1,88.83,289a6.42,6.42,0,0,1-1.31-3.54.81.81,0,0,1,.21-.56.59.59,0,0,1,.45-.23h4.06a1.61,1.61,0,0,1,1.18.5l.5.63a3.72,3.72,0,0,0,1.22.93,4.37,4.37,0,0,0,1.94.41c2.57,0,3.85-.63,3.85-1.9a1.25,1.25,0,0,0-.54-1,4.94,4.94,0,0,0-1.54-.7c-.66-.19-1.71-.46-3.16-.82l-1.4-.32a8.42,8.42,0,0,1-4.66-2.63,7.62,7.62,0,0,1-1.49-4.92A7.26,7.26,0,0,1,89.23,271a7.92,7.92,0,0,1,3.09-2.83,9.76,9.76,0,0,1,4.61-1,9.66,9.66,0,0,1,4.59,1.09,9.31,9.31,0,0,1,3.28,2.74,5.91,5.91,0,0,1,1.25,3.22A.78.78,0,0,1,105.85,274.7Z"/><path class="cls-2" d="M128.71,267.74a1,1,0,0,1,.25.68v3.79a1,1,0,0,1-.25.68.72.72,0,0,1-.59.29h-5.46v18.36a1,1,0,0,1-.25.68.75.75,0,0,1-.59.29h-4.06a.75.75,0,0,1-.59-.29,1,1,0,0,1-.25-.68V273.18h-5.46a.72.72,0,0,1-.59-.29,1,1,0,0,1-.25-.68v-3.79a1,1,0,0,1,.25-.68.75.75,0,0,1,.59-.29h16.66A.75.75,0,0,1,128.71,267.74Z"/><path class="cls-2" d="M149.7,269.51q2.3,2.06,2.3,6.14c0,3.46-1.24,5.85-3.7,7.16l3.85,8.52a1,1,0,0,1,.09.39.8.8,0,0,1-.2.56.62.62,0,0,1-.48.23h-4.22a1.18,1.18,0,0,1-.84-.27,2.13,2.13,0,0,1-.46-.7l-3.45-7.66h-2.86v7.66a1,1,0,0,1-.24.68.78.78,0,0,1-.59.29h-4.07a.77.77,0,0,1-.59-.29,1,1,0,0,1-.25-.68V268.42a1,1,0,0,1,.25-.68.77.77,0,0,1,.59-.29h8.41A9.37,9.37,0,0,1,149.7,269.51Zm-6.46,8.79c2,0,3-.88,3-2.65s-1-2.65-3-2.65h-3.51v5.3Z"/><path class="cls-2" d="M175.43,291.18a1.9,1.9,0,0,1,.12.54.8.8,0,0,1-.2.56.62.62,0,0,1-.48.23H171a1.16,1.16,0,0,1-.82-.27,1.24,1.24,0,0,1-.39-.63l-.87-3h-8.26l-.86,3a1.39,1.39,0,0,1-.39.63,1.18,1.18,0,0,1-.83.27h-3.91a.65.65,0,0,1-.48-.23.85.85,0,0,1-.2-.56,1.9,1.9,0,0,1,.12-.54l6.77-22.54a2.06,2.06,0,0,1,.5-.85,1.25,1.25,0,0,1,.9-.34h5a1.25,1.25,0,0,1,.9.34,2,2,0,0,1,.49.85Zm-8.16-8.09-2.52-8.59-2.51,8.59Z"/><path class="cls-2" d="M196.63,267.74a1,1,0,0,1,.25.68v3.79a1,1,0,0,1-.25.68.72.72,0,0,1-.59.29h-5.46v18.36a1,1,0,0,1-.25.68.77.77,0,0,1-.59.29h-4.07a.78.78,0,0,1-.59-.29,1,1,0,0,1-.24-.68V273.18h-5.47a.74.74,0,0,1-.59-.29,1,1,0,0,1-.25-.68v-3.79a1,1,0,0,1,.25-.68.77.77,0,0,1,.59-.29H196A.75.75,0,0,1,196.63,267.74Z"/><path class="cls-2" d="M216.12,268.38a8.88,8.88,0,0,1,3.31,3.49,11.44,11.44,0,0,1,1.29,4.93c0,.66.06,1.74.06,3.22s0,2.5-.06,3.15a11.43,11.43,0,0,1-1.29,4.92,8.88,8.88,0,0,1-3.31,3.49,10.69,10.69,0,0,1-10.18,0,8.86,8.86,0,0,1-3.3-3.49,11.43,11.43,0,0,1-1.29-4.92q-.06-1.94-.06-3.15c0-.81,0-1.89.06-3.22a11.44,11.44,0,0,1,1.29-4.93,8.86,8.86,0,0,1,3.3-3.49,10.76,10.76,0,0,1,10.18,0ZM213.84,274a4.06,4.06,0,0,0-5.62,0,5.17,5.17,0,0,0-1.13,3c-.06.79-.09,1.78-.09,3s0,2.18.09,3a5.17,5.17,0,0,0,1.13,3,4.06,4.06,0,0,0,5.62,0,5.18,5.18,0,0,0,1.14-3c.06-.86.09-1.88.09-3s0-2.19-.09-3A5.18,5.18,0,0,0,213.84,274Z"/><path class="cls-2" d="M242.45,269.51q2.3,2.06,2.29,6.14,0,5.19-3.69,7.16l3.85,8.52a1,1,0,0,1,.09.39.85.85,0,0,1-.2.56.63.63,0,0,1-.48.23h-4.22a1.16,1.16,0,0,1-.84-.27,2.15,2.15,0,0,1-.47-.7l-3.44-7.66h-2.86v7.66a1,1,0,0,1-.25.68.75.75,0,0,1-.59.29h-4.06a.75.75,0,0,1-.59-.29,1,1,0,0,1-.25-.68V268.42a1,1,0,0,1,.25-.68.75.75,0,0,1,.59-.29H236A9.38,9.38,0,0,1,242.45,269.51ZM236,278.3c2,0,3-.88,3-2.65s-1-2.65-3-2.65h-3.51v5.3Z"/><rect class="cls-3" width="256" height="256" rx="60"/><path class="cls-4" d="M123.73,152.33H84.05L76,177.4a1.87,1.87,0,0,1-2,1.49H53.87c-1.18,0-1.5-.64-1.18-1.92L87,78.09c.32-1.06.64-2.24,1.07-3.52a37.77,37.77,0,0,0,.64-6.93,1,1,0,0,1,.85-1.17h27.63c.85,0,1.28.32,1.38.85l38.94,109.87c.32,1.17,0,1.7-1.07,1.7H134.19a1.6,1.6,0,0,1-1.71-1.17l-8.75-25.39ZM90.24,130.68h27.09c-.64-2.24-1.49-4.91-2.45-7.68s-1.92-6-2.88-9.17-2-6.51-3.09-9.82-2-6.4-2.88-9.49-1.6-5.76-2.35-8.32h-.21A131.81,131.81,0,0,1,99.84,100c-1.6,5.12-3.2,10.45-4.91,15.79-1.49,5.44-3.09,10.45-4.69,14.93Z"/><path class="cls-4" d="M181.33,85.13a13.19,13.19,0,0,1-9.49-3.73,13.91,13.91,0,0,1-3.63-9.81,12.59,12.59,0,0,1,3.84-9.5,13.69,13.69,0,0,1,9.5-3.73c4.16,0,7.36,1.28,9.7,3.73a13.45,13.45,0,0,1,3.52,9.5A13.49,13.49,0,0,1,191,81.4,12.51,12.51,0,0,1,181.33,85.13Zm-11.94,92.59V95.59c0-1.07.42-1.5,1.38-1.5h21.12c1,0,1.39.54,1.39,1.5v82.13c0,1.17-.43,1.71-1.39,1.71H171a1.49,1.49,0,0,1-1.6-1.71Z"/></svg>