<svg id="Layer_1" data-name="Layer 1" xmlns="http://www.w3.org/2000/svg" viewBox="0 0 256 300"><defs><style>.cls-1{fill:#fff;}.cls-2{fill:#0d1117;}.cls-3{fill:#e14e1d;}.cls-4{fill:#ebebeb;}</style></defs><rect class="cls-1" y="162.64" width="256" height="137.36"/><path class="cls-2" d="M88.69,267.74a1,1,0,0,1,.25.68v23.12a1,1,0,0,1-.25.68.77.77,0,0,1-.59.29H84a.77.77,0,0,1-.59-.29,1,1,0,0,1-.25-.68v-8.77H76.3v8.77a1,1,0,0,1-.25.68.75.75,0,0,1-.59.29H71.4a.76.76,0,0,1-.59-.27,1,1,0,0,1-.25-.7V268.42a1,1,0,0,1,.25-.68.75.75,0,0,1,.59-.29h4.06a.75.75,0,0,1,.59.29,1,1,0,0,1,.25.68v8.63h6.89v-8.63a1,1,0,0,1,.25-.68.77.77,0,0,1,.59-.29H88.1A.77.77,0,0,1,88.69,267.74Z"/><path class="cls-2" d="M112.22,267.74a1,1,0,0,1,.24.68v3.79a1,1,0,0,1-.24.68.75.75,0,0,1-.59.29h-5.47v18.36a1,1,0,0,1-.25.68.75.75,0,0,1-.58.29h-4.07a.75.75,0,0,1-.59-.29,1,1,0,0,1-.25-.68V273.18H95a.72.72,0,0,1-.59-.29,1,1,0,0,1-.25-.68v-3.79a1,1,0,0,1,.25-.68.75.75,0,0,1,.59-.29h16.67A.78.78,0,0,1,112.22,267.74Z"/><path class="cls-2" d="M123.39,279.69v11.85a1,1,0,0,1-.25.68.75.75,0,0,1-.59.29h-4.06a.75.75,0,0,1-.59-.29,1,1,0,0,1-.25-.68V268.42a1,1,0,0,1,.25-.68.75.75,0,0,1,.59-.29h3.6a1.46,1.46,0,0,1,1.33,1l5,9.91,5-9.91a1.46,1.46,0,0,1,1.33-1h3.6a.75.75,0,0,1,.59.29,1,1,0,0,1,.25.68v23.12a1,1,0,0,1-.25.68.75.75,0,0,1-.59.29h-4.06a.75.75,0,0,1-.59-.29,1,1,0,0,1-.25-.68V279.69l-2.92,5.91a2.33,2.33,0,0,1-.48.64.92.92,0,0,1-.67.26h-2a.92.92,0,0,1-.67-.26,2.33,2.33,0,0,1-.48-.64Z"/><path class="cls-2" d="M161.79,287.07a1,1,0,0,1,.25.68v3.79a1,1,0,0,1-.25.68.77.77,0,0,1-.59.29H146.83a.75.75,0,0,1-.59-.29,1,1,0,0,1-.25-.68V268.42a1,1,0,0,1,.25-.68.75.75,0,0,1,.59-.29h4.06a.75.75,0,0,1,.59.29,1,1,0,0,1,.25.68v18.36h9.47A.77.77,0,0,1,161.79,287.07Z"/><path class="cls-2" d="M177.35,286.32a2.86,2.86,0,0,0,1-2.29,2.56,2.56,0,0,0-.84-2,3.18,3.18,0,0,0-2.23-.77,2.52,2.52,0,0,0-.85.14,9.81,9.81,0,0,0-.95.43,1.85,1.85,0,0,1-.81.32h-4.84a.77.77,0,0,1-.62-.28.88.88,0,0,1-.22-.68l.93-12.78a1.17,1.17,0,0,1,.27-.68.7.7,0,0,1,.57-.29H182a.78.78,0,0,1,.59.29,1,1,0,0,1,.24.68v3.79a1,1,0,0,1-.24.68.75.75,0,0,1-.59.29h-9l-.21,3.19a5.26,5.26,0,0,1,2.88-.83,9.25,9.25,0,0,1,4.33,1,7.39,7.39,0,0,1,3,2.92,10.22,10.22,0,0,1-.1,9.34,7.71,7.71,0,0,1-3.22,3,11,11,0,0,1-9.38,0,7.8,7.8,0,0,1-3.1-2.79,7.33,7.33,0,0,1-1.15-3.74.85.85,0,0,1,.2-.56.65.65,0,0,1,.48-.23h3.94a1.29,1.29,0,0,1,1.12.57,7.35,7.35,0,0,0,1.32,1.52,2.92,2.92,0,0,0,1.94.56A3.43,3.43,0,0,0,177.35,286.32Z"/><rect class="cls-3" width="256" height="256" rx="60"/><path class="cls-1" d="M48,38l8.61,96.59H167.32L163.6,176,128,185.66,92.38,176,90,149.43H57.94l4.58,51.29L128,218.89l65.51-18.17,8.78-98.07H85.82L82.9,69.94H205.14L208,38Z"/><path class="cls-4" d="M128,38H48l8.61,96.59H128V102.65H85.82L82.9,69.94H128Z"/><path class="cls-4" d="M128,185.65h0L92.38,176,90,149.43H57.94l4.58,51.29L128,218.89l0,0Z"/></svg>