<svg id="Layer_1" data-name="Layer 1" xmlns="http://www.w3.org/2000/svg" xmlns:xlink="http://www.w3.org/1999/xlink" viewBox="0 0 256 300"><defs><style>.cls-1{fill:none;}.cls-2{fill:#fff;}.cls-3{fill:#0d1117;}.cls-4{fill:#242938;}.cls-5{clip-path:url(#clip-path);}.cls-6{fill:#0acf83;}.cls-7{fill:#a259ff;}.cls-8{fill:#f24e1e;}.cls-9{fill:#ff7262;}.cls-10{fill:#1abcfe;}</style><clipPath id="clip-path"><rect id="SVGID" class="cls-1" x="61" y="28" width="133.36" height="200"/></clipPath></defs><rect class="cls-2" y="162.64" width="256" height="137.36"/><path class="cls-3" d="M90.43,267.74a1,1,0,0,1,.25.68v3.79a1,1,0,0,1-.25.68.75.75,0,0,1-.59.29H80.56v4.9h8.66a.78.78,0,0,1,.59.29,1,1,0,0,1,.24.68v3.79a1,1,0,0,1-.24.68.75.75,0,0,1-.59.29H80.56v7.73a1,1,0,0,1-.25.68.78.78,0,0,1-.59.29H75.65a.77.77,0,0,1-.59-.29,1,1,0,0,1-.25-.68V268.42a1,1,0,0,1,.25-.68.77.77,0,0,1,.59-.29H89.84A.78.78,0,0,1,90.43,267.74Z"/><path class="cls-3" d="M96.6,292.22a1,1,0,0,1-.25-.68V268.42a1,1,0,0,1,.25-.68.78.78,0,0,1,.59-.29h4.07a.77.77,0,0,1,.59.29,1,1,0,0,1,.25.68v23.12a1,1,0,0,1-.25.68.77.77,0,0,1-.59.29H97.19A.78.78,0,0,1,96.6,292.22Z"/><path class="cls-3" d="M113.74,279.73c0,1.48,0,2.57.09,3.26a5.18,5.18,0,0,0,1.06,3,3.44,3.44,0,0,0,2.85,1.16,4.13,4.13,0,0,0,2.84-.95,3.78,3.78,0,0,0,1.07-3h-2.6a.74.74,0,0,1-.59-.28,1,1,0,0,1-.25-.68v-3.8a1,1,0,0,1,.25-.68.74.74,0,0,1,.59-.28h7.51a.77.77,0,0,1,.59.28,1,1,0,0,1,.24.68V283a10.34,10.34,0,0,1-1.27,5.21,8.8,8.8,0,0,1-3.46,3.44,10.07,10.07,0,0,1-4.92,1.2,9.5,9.5,0,0,1-5-1.31,9.11,9.11,0,0,1-3.32-3.51,11.2,11.2,0,0,1-1.3-4.88c0-1.15-.06-2.09-.06-2.83s0-2.06.06-3.54a11,11,0,0,1,1.27-4.89,9,9,0,0,1,3.34-3.51,9.55,9.55,0,0,1,5-1.3,9.89,9.89,0,0,1,4.89,1.18,9.23,9.23,0,0,1,3.32,3,6.92,6.92,0,0,1,1.29,3.47.66.66,0,0,1-.19.55.64.64,0,0,1-.49.24h-4.13a.86.86,0,0,1-.64-.24,6.68,6.68,0,0,1-.6-.73,4.73,4.73,0,0,0-1.32-1.25,4.1,4.1,0,0,0-2.13-.47c-2.34,0-3.64,1.39-3.91,4.15Q113.74,277.84,113.74,279.73Z"/><path class="cls-3" d="M139,279.69v11.85a1,1,0,0,1-.25.68.77.77,0,0,1-.59.29h-4.07a.77.77,0,0,1-.59-.29,1,1,0,0,1-.25-.68V268.42a1,1,0,0,1,.25-.68.77.77,0,0,1,.59-.29h3.6a1.47,1.47,0,0,1,1.34,1l5,9.91,5-9.91a1.47,1.47,0,0,1,1.34-1h3.6a.77.77,0,0,1,.59.29,1,1,0,0,1,.25.68v23.12a1,1,0,0,1-.25.68.77.77,0,0,1-.59.29H150a.77.77,0,0,1-.59-.29,1,1,0,0,1-.25-.68V279.69l-2.91,5.91a2.81,2.81,0,0,1-.48.64.94.94,0,0,1-.67.26h-2a.94.94,0,0,1-.67-.26,2.81,2.81,0,0,1-.48-.64Z"/><path class="cls-3" d="M180.51,291.18a1.9,1.9,0,0,1,.12.54.85.85,0,0,1-.2.56.65.65,0,0,1-.48.23H176a1.18,1.18,0,0,1-.83-.27,1.39,1.39,0,0,1-.39-.63l-.86-3H165.7l-.87,3a1.24,1.24,0,0,1-.39.63,1.16,1.16,0,0,1-.82.27h-3.91a.62.62,0,0,1-.48-.23.8.8,0,0,1-.2-.56,1.9,1.9,0,0,1,.12-.54l6.77-22.54a2,2,0,0,1,.49-.85,1.25,1.25,0,0,1,.9-.34h5a1.25,1.25,0,0,1,.9.34,2.06,2.06,0,0,1,.5.85Zm-8.17-8.09-2.51-8.59-2.52,8.59Z"/><rect class="cls-4" width="256" height="256" rx="60"/><g class="cls-5"><path class="cls-6" d="M94.35,228a33.34,33.34,0,0,0,33.33-33.33V161.33H94.35a33.34,33.34,0,1,0,0,66.67Z"/><path class="cls-7" d="M61,128A33.35,33.35,0,0,1,94.35,94.67h33.33v66.66H94.35A33.35,33.35,0,0,1,61,128Z"/><path class="cls-8" d="M61,61.33A33.35,33.35,0,0,1,94.35,28h33.33V94.67H94.35A33.36,33.36,0,0,1,61,61.33Z"/><path class="cls-9" d="M127.68,28H161a33.34,33.34,0,1,1,0,66.67H127.68Z"/><path class="cls-10" d="M194.35,128A33.34,33.34,0,1,1,161,94.67,33.35,33.35,0,0,1,194.35,128Z"/></g></svg>