<svg id="Layer_1" data-name="Layer 1" xmlns="http://www.w3.org/2000/svg" viewBox="0 0 256 300"><defs><style>.cls-1{fill:#fff;}.cls-2{fill:#0d1117;}.cls-3{fill:#242938;}.cls-4{fill:#00d8ff;}.cls-5{fill:none;stroke:#00d8ff;stroke-width:8.91px;}</style></defs><rect class="cls-1" y="162.64" width="256" height="137.36"/><path class="cls-2" d="M87.94,269.51c1.53,1.38,2.3,3.42,2.3,6.14q0,5.19-3.69,7.16l3.84,8.52a.87.87,0,0,1,.1.39.85.85,0,0,1-.2.56.65.65,0,0,1-.48.23H85.58a1.14,1.14,0,0,1-.83-.27,2,2,0,0,1-.47-.7l-3.45-7.66H78v7.66a1,1,0,0,1-.25.68.77.77,0,0,1-.59.29H73.07a.78.78,0,0,1-.59-.29,1,1,0,0,1-.24-.68V268.42a1,1,0,0,1,.24-.68.78.78,0,0,1,.59-.29h8.42A9.34,9.34,0,0,1,87.94,269.51Zm-6.45,8.79c2,0,3-.88,3-2.65s-1-2.65-3-2.65H78v5.3Z"/><path class="cls-2" d="M101.94,286.78h9.81a.77.77,0,0,1,.59.29,1,1,0,0,1,.25.68v3.79a1,1,0,0,1-.25.68.77.77,0,0,1-.59.29H97a.75.75,0,0,1-.59-.29,1,1,0,0,1-.25-.68V268.42a1,1,0,0,1,.25-.68.75.75,0,0,1,.59-.29H111.5a.75.75,0,0,1,.59.29,1,1,0,0,1,.25.68v3.8a1,1,0,0,1-.25.67.72.72,0,0,1-.59.29h-9.56v3.87h8.88a.76.76,0,0,1,.59.28,1,1,0,0,1,.25.68v3.8a1,1,0,0,1-.25.68.76.76,0,0,1-.59.28h-8.88Z"/><path class="cls-2" d="M137.67,291.18a1.9,1.9,0,0,1,.12.54.8.8,0,0,1-.2.56.62.62,0,0,1-.48.23H133.2a1.16,1.16,0,0,1-.82-.27,1.24,1.24,0,0,1-.39-.63l-.87-3h-8.26l-.87,3a1.24,1.24,0,0,1-.39.63,1.16,1.16,0,0,1-.82.27h-3.91a.62.62,0,0,1-.48-.23.85.85,0,0,1-.2-.56,1.9,1.9,0,0,1,.12-.54l6.77-22.54a2,2,0,0,1,.5-.85,1.22,1.22,0,0,1,.9-.34h5a1.21,1.21,0,0,1,.89.34,2,2,0,0,1,.5.85Zm-8.16-8.08L127,274.51l-2.51,8.59Z"/><path class="cls-2" d="M148.73,286a3.44,3.44,0,0,0,2.87,1.15,3.76,3.76,0,0,0,2.71-.82,4.63,4.63,0,0,0,1.18-2,2.26,2.26,0,0,1,.37-.82.88.88,0,0,1,.68-.22h4.07a.63.63,0,0,1,.48.24.83.83,0,0,1,.2.55,8.26,8.26,0,0,1-1.32,4.42,9.24,9.24,0,0,1-3.49,3.21,10.24,10.24,0,0,1-4.88,1.18,9.44,9.44,0,0,1-5-1.31,9,9,0,0,1-3.32-3.51,11.21,11.21,0,0,1-1.31-4.88c0-1.15-.06-2.09-.06-2.83s0-2.06.06-3.54a11.09,11.09,0,0,1,1.27-4.89,9,9,0,0,1,3.34-3.51,9.55,9.55,0,0,1,5-1.3,10.12,10.12,0,0,1,4.88,1.18,9.13,9.13,0,0,1,3.49,3.2,8.26,8.26,0,0,1,1.32,4.42.85.85,0,0,1-.2.56.65.65,0,0,1-.48.23h-4.07a.84.84,0,0,1-.68-.22,2.18,2.18,0,0,1-.37-.82,4.59,4.59,0,0,0-1.18-2,3.76,3.76,0,0,0-2.71-.83,3.47,3.47,0,0,0-2.87,1.15,5.29,5.29,0,0,0-1,3q-.06,1.22-.06,3c0,1.15,0,2.15.06,3A5.28,5.28,0,0,0,148.73,286Z"/><path class="cls-2" d="M182.68,267.74a1,1,0,0,1,.25.68v3.8a1,1,0,0,1-.25.67.75.75,0,0,1-.59.29h-5.47v18.36a1,1,0,0,1-.24.68.78.78,0,0,1-.59.29h-4.07a.77.77,0,0,1-.59-.29,1,1,0,0,1-.25-.68V273.18h-5.46a.72.72,0,0,1-.59-.29,1,1,0,0,1-.25-.67v-3.8a1,1,0,0,1,.25-.68.75.75,0,0,1,.59-.29h16.67A.78.78,0,0,1,182.68,267.74Z"/><rect class="cls-3" width="256" height="256" rx="60"/><path class="cls-4" d="M128,147a18.66,18.66,0,1,0-18.65-18.66A18.66,18.66,0,0,0,128,147Z"/><path class="cls-5" d="M128,90.36c25.05,0,48.32,3.6,65.86,9.64C215,107.28,228,118.31,228,128.29c0,10.41-13.77,22.13-36.48,29.65-17.16,5.69-39.74,8.66-63.52,8.66-24.38,0-47.46-2.79-64.82-8.72-22-7.5-35.18-19.37-35.18-29.59,0-9.9,12.41-20.85,33.25-28.11C78.86,94,102.71,90.36,128,90.36Z"/><path class="cls-5" d="M95,109.44c12.52-21.7,27.25-40.06,41.25-52.24,16.86-14.68,32.91-20.43,41.57-15.44,9,5.2,12.28,23,7.46,46.41-3.65,17.71-12.36,38.76-24.24,59.35-12.18,21.12-26.12,39.73-39.93,51.8C103.62,214.59,86.73,220.11,77.88,215c-8.58-4.94-11.86-21.16-7.74-42.85,3.47-18.32,12.21-40.81,24.84-62.72Z"/><path class="cls-5" d="M95,147.58C82.46,125.9,73.92,104,70.35,85.75,66.06,63.81,69.1,47,77.74,42c9-5.21,26.05.84,43.93,16.71,13.52,12,27.41,30.07,39.32,50.64,12.21,21.1,21.37,42.48,24.93,60.46,4.51,22.77.86,40.16-8,45.28-8.57,5-24.26-.3-41-14.69C122.81,188.26,107.68,169.47,95,147.58Z"/></svg>