<?xml version="1.0" encoding="utf-8"?>
<!-- Generator: Adobe Illustrator 24.3.0, SVG Export Plug-In . SVG Version: 6.00 Build 0)  -->
<svg version="1.1" id="Layer_1" xmlns="http://www.w3.org/2000/svg" xmlns:xlink="http://www.w3.org/1999/xlink" x="0px" y="0px"
	 viewBox="0 0 256 300" style="enable-background:new 0 0 256 300;" xml:space="preserve">
<style type="text/css">
	.st0{fill:#FFFFFF;}
	.st1{fill:#242938;}
	.st2{fill:#E23237;}
	.st3{fill:#B52E31;}
	.st4{fill:#336791;}
	.st5{fill:none;stroke:#FFFFFF;stroke-width:5.034;stroke-linecap:round;stroke-linejoin:round;}
	.st6{fill:none;stroke:#FFFFFF;stroke-width:5.034;stroke-linecap:round;stroke-linejoin:bevel;}
	.st7{fill:none;stroke:#FFFFFF;stroke-width:5.034;stroke-linejoin:round;}
	.st8{fill:#FFFFFF;stroke:#FFFFFF;stroke-width:1.68;}
	.st9{fill:#FFFFFF;stroke:#FFFFFF;stroke-width:0.837;}
	.st10{fill:#0D1117;}
</style>
<path class="st0" d="M27.5,162.6h201c15.2,0,27.5,12.3,27.5,27.5v82.4c0,15.2-12.3,27.5-27.5,27.5h-201C12.3,300,0,287.7,0,272.5
	v-82.4C0,174.9,12.3,162.6,27.5,162.6z"/>
<path class="st1" d="M60,0h136c33.1,0,60,26.9,60,60v136c0,33.1-26.9,60-60,60H60c-33.1,0-60-26.9-60-60V60C0,26.9,26.8,0,60,0z"/>
<path class="st2" d="M34.2,61.1L127.3,28l95.5,32.6l-15.4,123.1L127.3,228l-78.8-43.7L34.2,61.1z"/>
<path class="st3" d="M222.8,60.6L127.3,28v200l80.1-44.3L222.8,60.6z"/>
<path class="st0" d="M127.4,51.4l-58,129L91,180l11.7-29.1h51.9l12.7,29.4l20.6,0.4L127.4,51.4z M127.6,92.8l19.6,41h-36.7
	L127.6,92.8L127.6,92.8z"/>
<path class="st1" d="M60,0h136c33.1,0,60,26.9,60,60v136c0,33.1-26.9,60-60,60H60c-33.1,0-60-26.9-60-60V60C0,26.9,26.9,0,60,0z"/>
<path class="st4" d="M203.5,148.7c-20.3,4.2-21.8-2.7-21.8-2.7c21.5-31.9,30.4-72.3,22.7-82.2c-21.1-27-57.7-14.2-58.3-13.9l-0.2,0
	c-4.5-0.9-9-1.4-13.6-1.4c-9.2-0.1-16.2,2.4-21.5,6.4c0,0-65.2-26.9-62.2,33.8c0.6,12.9,18.5,97.7,39.8,72.1
	c7.8-9.4,15.4-17.4,15.4-17.4c3.7,2.5,8.2,3.7,12.9,3.3l0.4-0.3c-0.1,1.2-0.1,2.4,0.1,3.6c-5.5,6.1-3.9,7.2-14.8,9.5
	c-11.1,2.3-4.6,6.4-0.3,7.4c5.2,1.3,17.1,3.1,25.2-8.2l-0.3,1.3c2.2,1.7,3.7,11.2,3.4,19.8c-0.3,8.6-0.4,14.5,1.3,19.1
	c1.7,4.6,3.4,15,17.8,12c12-2.6,18.3-9.3,19.2-20.4c0.6-7.9,2-6.8,2.1-13.9l1.1-3.4c1.3-10.8,0.2-14.2,7.6-12.6l1.8,0.2
	c5.5,0.2,12.6-0.9,16.8-2.8C207,153.8,212.4,146.8,203.5,148.7L203.5,148.7z"/>
<path class="st5" d="M146.1,48.6c-2.2,0.7,36.3-14.1,58.2,13.9c7.7,9.9-1.2,50.3-22.7,82.2 M128.1,153.8c-0.6,20,0.1,40.2,2.1,45
	c2,4.8,6.2,14.4,20.6,11.3c12-2.6,16.4-7.6,18.3-18.6l4.4-35.3c-0.4,2.7-1,6.9-1.7,12.1c-3,23.3-2.3,29.1-7.4,34.7
	c-5,5.4-11.7,6.6-13.5,6.9c-1.8,0.3-9,1.3-14.5-2.6c-1.9-1.4-6.1-5.1-7.9-28.6C128,172.7,127.7,164.1,128.1,153.8z M110.8,53.5
	c0,0-65.3-26.7-62.2,34c0.6,12.9,18.5,97.7,39.8,72.1c7.8-9.4,14.8-16.7,14.8-16.7c-1.6-1.7-3.9-4.3-5.8-7.9
	c-3.7-6.9-4-13.5-3.3-26.8c1.1-20.3,1.6-30.4,5.6-38.8C103.2,62,107.6,56.8,110.8,53.5z M151.7,157.4"/>
<path class="st6" d="M181.6,144.7c0,0,1.4,6.9,21.8,2.7c8.9-1.8,3.5,5.2-5.5,9.4c-7.4,3.4-24,4.3-24.3-0.4
	C172.9,144,182.4,147.7,181.6,144.7c-0.5-2.8-4.8-5.5-7.6-12.3c-2.4-5.9-33.5-51.3,8.6-44.5c1.5-0.3-11-40.1-50.3-40.7
	c-39.4-0.6-38.1,48.4-38.1,48.4"/>
<path class="st7" d="M117.1,148.9c-5.5,6.1-3.9,7.2-14.8,9.5c-11.1,2.3-4.6,6.4-0.3,7.4c5.2,1.3,17.1,3.1,25.2-8.2
	c2.5-3.4,0-8.9-3.4-10.3C122.1,146.6,119.9,145.7,117.1,148.9L117.1,148.9z"/>
<path class="st5" d="M116.7,148.8c-0.6-3.6,1.2-7.9,3-12.9c2.8-7.5,9.3-15,4.1-38.9c-3.8-17.8-29.7-3.7-29.7-1.3
	c0,2.4,1.2,12.2-0.4,23.7c-2.1,14.9,9.5,27.5,22.8,26.2"/>
<path class="st8" d="M110.6,95.3c-0.1,0.8,1.5,3,3.6,3.3c2.1,0.3,3.9-1.4,4-2.2c0.1-0.8-1.5-1.7-3.6-2
	C112.5,94,110.7,94.5,110.6,95.3L110.6,95.3z"/>
<path class="st9" d="M175,93.6c0.1,0.8-1.5,3-3.6,3.3c-2.1,0.3-3.9-1.4-4-2.2c-0.1-0.8,1.5-1.7,3.6-2
	C173.1,92.3,174.9,92.8,175,93.6z"/>
<path class="st5" d="M182.6,87.9c0.4,6.5-1.4,10.9-1.6,17.7c-0.3,10,4.8,21.4-2.9,32.9"/>
<g>
	<g>
		<path class="st10" d="M30.9,268.8c1.6,1.5,2.4,3.6,2.4,6.4c0,2.8-0.8,5-2.4,6.4c-1.6,1.5-3.8,2.2-6.6,2.2h-4.2v7.5
			c0,0.3-0.1,0.5-0.3,0.7c-0.2,0.2-0.4,0.3-0.6,0.3H15c-0.2,0-0.4-0.1-0.6-0.3c-0.2-0.2-0.3-0.4-0.3-0.7v-23.7
			c0-0.3,0.1-0.5,0.3-0.7c0.2-0.2,0.4-0.3,0.6-0.3h9.3C27.1,266.6,29.3,267.4,30.9,268.8z M24.2,278.1c1,0,1.7-0.2,2.3-0.7
			c0.6-0.5,0.9-1.2,0.9-2.2c0-1-0.3-1.7-0.9-2.2c-0.6-0.5-1.3-0.7-2.3-0.7h-4v5.8H24.2z"/>
		<path class="st10" d="M52.6,267.6c1.5,0.9,2.7,2.1,3.5,3.6c0.8,1.5,1.3,3.2,1.3,5.1c0,0.7,0.1,1.8,0.1,3.3c0,1.5,0,2.6-0.1,3.2
			c-0.1,1.9-0.5,3.5-1.3,5.1s-2,2.7-3.5,3.6c-1.5,0.9-3.3,1.3-5.3,1.3s-3.8-0.4-5.3-1.3c-1.5-0.9-2.7-2.1-3.5-3.6
			c-0.8-1.5-1.3-3.2-1.4-5.1c0-1.3-0.1-2.4-0.1-3.2s0-1.9,0.1-3.3c0.1-1.9,0.5-3.5,1.4-5.1c0.8-1.5,2-2.7,3.5-3.6
			c1.5-0.9,3.3-1.3,5.3-1.3S51.1,266.7,52.6,267.6z M50.2,273.3c-0.7-0.8-1.7-1.2-2.9-1.2s-2.3,0.4-2.9,1.2
			c-0.7,0.8-1.1,1.8-1.2,3.1c-0.1,0.8-0.1,1.8-0.1,3c0,1.2,0,2.2,0.1,3.1c0.1,1.3,0.5,2.3,1.2,3.1c0.7,0.8,1.7,1.2,2.9,1.2
			s2.3-0.4,2.9-1.2c0.7-0.8,1.1-1.8,1.2-3.1c0.1-0.9,0.1-1.9,0.1-3.1c0-1.2,0-2.2-0.1-3C51.3,275.1,50.9,274.1,50.2,273.3z"/>
		<path class="st10" d="M80.2,274.1c-0.1,0.2-0.3,0.2-0.5,0.2h-4.3c-0.3,0-0.5,0-0.7-0.1c-0.2-0.1-0.4-0.2-0.6-0.5
			c0,0-0.2-0.2-0.4-0.5c-0.2-0.3-0.6-0.5-1.1-0.8s-1.1-0.3-1.8-0.3c-0.9,0-1.7,0.1-2.3,0.4c-0.6,0.3-0.9,0.8-0.9,1.5
			c0,0.5,0.2,0.9,0.6,1.2s0.9,0.5,1.7,0.8s2.1,0.6,4,1c2.5,0.6,4.3,1.4,5.4,2.6c1.1,1.2,1.7,2.9,1.7,5.1c0,1.6-0.4,3-1.3,4.2
			c-0.9,1.2-2,2.1-3.6,2.8c-1.5,0.6-3.3,1-5.2,1c-1.9,0-3.6-0.4-5.1-1.1c-1.5-0.7-2.7-1.7-3.6-2.9c-0.9-1.2-1.3-2.4-1.4-3.6
			c0-0.2,0.1-0.4,0.2-0.6c0.1-0.2,0.3-0.2,0.5-0.2h4.3c0.5,0,0.9,0.2,1.2,0.5c0.1,0.1,0.2,0.3,0.5,0.6c0.3,0.4,0.7,0.7,1.3,1
			c0.6,0.3,1.3,0.4,2,0.4c2.7,0,4-0.6,4-1.9c0-0.4-0.2-0.8-0.6-1c-0.4-0.3-0.9-0.5-1.6-0.7c-0.7-0.2-1.8-0.5-3.3-0.8l-1.5-0.3
			c-2.2-0.5-3.8-1.4-4.9-2.7s-1.6-2.9-1.6-5.1c0-1.4,0.4-2.7,1.1-4c0.8-1.2,1.8-2.2,3.2-2.9c1.4-0.7,3-1.1,4.8-1.1
			c1.8,0,3.4,0.4,4.8,1.1s2.6,1.7,3.4,2.8c0.8,1.1,1.3,2.2,1.3,3.3C80.4,273.7,80.3,273.9,80.2,274.1z"/>
		<path class="st10" d="M102.7,266.9c0.2,0.2,0.3,0.4,0.3,0.7v3.9c0,0.3-0.1,0.5-0.3,0.7c-0.2,0.2-0.4,0.3-0.6,0.3h-5.7v18.9
			c0,0.3-0.1,0.5-0.3,0.7c-0.2,0.2-0.4,0.3-0.6,0.3h-4.3c-0.2,0-0.4-0.1-0.6-0.3c-0.2-0.2-0.3-0.4-0.3-0.7v-18.9h-5.7
			c-0.2,0-0.4-0.1-0.6-0.3c-0.2-0.2-0.3-0.4-0.3-0.7v-3.9c0-0.3,0.1-0.5,0.3-0.7c0.2-0.2,0.4-0.3,0.6-0.3H102
			C102.3,266.6,102.5,266.7,102.7,266.9z"/>
		<path class="st10" d="M112.4,279.2c0,1.5,0,2.6,0.1,3.3c0.1,1.2,0.5,2.3,1.1,3.1c0.7,0.8,1.6,1.2,3,1.2c1.2,0,2.2-0.3,3-1
			c0.7-0.6,1.1-1.7,1.1-3.1h-2.7c-0.2,0-0.4-0.1-0.6-0.3c-0.2-0.2-0.3-0.4-0.3-0.7v-3.9c0-0.3,0.1-0.5,0.3-0.7
			c0.2-0.2,0.4-0.3,0.6-0.3h7.9c0.2,0,0.4,0.1,0.6,0.3c0.2,0.2,0.3,0.4,0.3,0.7v4.7c0,2-0.4,3.8-1.3,5.3c-0.9,1.5-2.1,2.7-3.6,3.5
			s-3.2,1.2-5.2,1.2c-2,0-3.8-0.4-5.3-1.3c-1.5-0.9-2.7-2.1-3.5-3.6c-0.8-1.5-1.3-3.2-1.4-5c0-1.2-0.1-2.1-0.1-2.9
			c0-0.9,0-2.1,0.1-3.6c0.1-1.8,0.5-3.5,1.3-5s2-2.7,3.5-3.6c1.5-0.9,3.3-1.3,5.3-1.3c1.9,0,3.6,0.4,5.1,1.2s2.6,1.8,3.5,3
			s1.3,2.4,1.4,3.6c0,0.2,0,0.4-0.2,0.6c-0.2,0.2-0.3,0.2-0.5,0.2h-4.3c-0.3,0-0.5-0.1-0.7-0.2c-0.2-0.2-0.4-0.4-0.6-0.8
			c-0.4-0.5-0.9-1-1.4-1.3s-1.3-0.5-2.2-0.5c-2.5,0-3.8,1.4-4.1,4.3C112.4,277,112.4,277.9,112.4,279.2z"/>
		<path class="st10" d="M148.2,268.7c1.6,1.4,2.4,3.5,2.4,6.3c0,3.6-1.3,6-3.9,7.3l4,8.7c0.1,0.1,0.1,0.3,0.1,0.4
			c0,0.2-0.1,0.4-0.2,0.6c-0.1,0.2-0.3,0.2-0.5,0.2h-4.4c-0.4,0-0.7-0.1-0.9-0.3s-0.4-0.4-0.5-0.7l-3.6-7.9h-3v7.9
			c0,0.3-0.1,0.5-0.3,0.7c-0.2,0.2-0.4,0.3-0.6,0.3h-4.3c-0.2,0-0.4-0.1-0.6-0.3c-0.2-0.2-0.3-0.4-0.3-0.7v-23.7
			c0-0.3,0.1-0.5,0.3-0.7c0.2-0.2,0.4-0.3,0.6-0.3h8.8C144.4,266.6,146.6,267.3,148.2,268.7z M141.5,277.8c2.1,0,3.2-0.9,3.2-2.7
			c0-1.8-1.1-2.7-3.2-2.7h-3.7v5.4H141.5z"/>
		<path class="st10" d="M161.8,286.5h10.3c0.2,0,0.4,0.1,0.6,0.3c0.2,0.2,0.3,0.4,0.3,0.7v3.9c0,0.3-0.1,0.5-0.3,0.7
			c-0.2,0.2-0.4,0.3-0.6,0.3h-15.4c-0.2,0-0.4-0.1-0.6-0.3c-0.2-0.2-0.3-0.4-0.3-0.7v-23.7c0-0.3,0.1-0.5,0.3-0.7
			c0.2-0.2,0.4-0.3,0.6-0.3h15.2c0.2,0,0.4,0.1,0.6,0.3c0.2,0.2,0.3,0.4,0.3,0.7v3.9c0,0.3-0.1,0.5-0.3,0.7s-0.4,0.3-0.6,0.3h-10v4
			h9.3c0.2,0,0.4,0.1,0.6,0.3s0.3,0.4,0.3,0.7v3.9c0,0.3-0.1,0.5-0.3,0.7c-0.2,0.2-0.4,0.3-0.6,0.3h-9.3V286.5z"/>
		<path class="st10" d="M195.9,274.1c-0.1,0.2-0.3,0.2-0.5,0.2h-4.3c-0.3,0-0.5,0-0.7-0.1c-0.2-0.1-0.4-0.2-0.6-0.5
			c0,0-0.2-0.2-0.4-0.5c-0.2-0.3-0.6-0.5-1.1-0.8c-0.5-0.2-1.1-0.3-1.8-0.3c-0.9,0-1.7,0.1-2.3,0.4c-0.6,0.3-0.9,0.8-0.9,1.5
			c0,0.5,0.2,0.9,0.6,1.2s0.9,0.5,1.7,0.8s2.1,0.6,4,1c2.5,0.6,4.3,1.4,5.4,2.6c1.1,1.2,1.7,2.9,1.7,5.1c0,1.6-0.4,3-1.3,4.2
			c-0.9,1.2-2,2.1-3.6,2.8c-1.5,0.6-3.3,1-5.2,1c-1.9,0-3.6-0.4-5.1-1.1c-1.5-0.7-2.7-1.7-3.6-2.9c-0.9-1.2-1.3-2.4-1.4-3.6
			c0-0.2,0.1-0.4,0.2-0.6c0.1-0.2,0.3-0.2,0.5-0.2h4.3c0.5,0,0.9,0.2,1.2,0.5c0.1,0.1,0.2,0.3,0.5,0.6s0.7,0.7,1.3,1
			c0.6,0.3,1.3,0.4,2,0.4c2.7,0,4-0.6,4-1.9c0-0.4-0.2-0.8-0.6-1c-0.4-0.3-0.9-0.5-1.6-0.7c-0.7-0.2-1.8-0.5-3.3-0.8l-1.5-0.3
			c-2.2-0.5-3.8-1.4-4.9-2.7s-1.6-2.9-1.6-5.1c0-1.4,0.4-2.7,1.1-4c0.8-1.2,1.8-2.2,3.2-2.9c1.4-0.7,3-1.1,4.8-1.1
			c1.8,0,3.4,0.4,4.8,1.1s2.6,1.7,3.4,2.8c0.8,1.1,1.3,2.2,1.3,3.3C196.1,273.7,196.1,273.9,195.9,274.1z"/>
		<path class="st10" d="M216.2,267.6c1.5,0.9,2.7,2.1,3.5,3.6c0.8,1.5,1.3,3.2,1.3,5.1c0,0.7,0.1,1.8,0.1,3.3c0,1.5,0,2.6-0.1,3.2
			c-0.1,2.7-0.9,4.9-2.4,6.7l2.6,4.2c0.1,0.1,0.1,0.3,0.1,0.3v0.1c0,0.2-0.1,0.4-0.2,0.5c-0.1,0.1-0.3,0.2-0.5,0.2H216
			c-0.3,0-0.6-0.1-0.8-0.2s-0.4-0.4-0.5-0.6l-0.9-1.5c-1,0.2-2,0.4-2.9,0.4c-2.1,0-3.8-0.4-5.3-1.3c-1.5-0.9-2.7-2.1-3.5-3.6
			s-1.3-3.2-1.3-5.1c0-1.3-0.1-2.4-0.1-3.2s0-1.9,0.1-3.3c0.1-1.9,0.5-3.5,1.3-5.1c0.8-1.5,2-2.7,3.5-3.6c1.5-0.9,3.3-1.3,5.3-1.3
			S214.7,266.7,216.2,267.6z M213.8,273.3c-0.7-0.8-1.7-1.2-2.9-1.2c-1.3,0-2.3,0.4-2.9,1.2s-1.1,1.8-1.2,3.1
			c-0.1,0.8-0.1,1.8-0.1,3c0,1.2,0,2.2,0.1,3.1c0.1,1.3,0.5,2.3,1.2,3.1c0.7,0.8,1.7,1.2,2.9,1.2c1.3,0,2.3-0.4,2.9-1.2
			c0.7-0.8,1.1-1.8,1.2-3.1c0.1-0.9,0.1-1.9,0.1-3.1c0-1.2,0-2.2-0.1-3C214.9,275.1,214.5,274.1,213.8,273.3z"/>
		<path class="st10" d="M242,286.8c0.2,0.2,0.3,0.4,0.3,0.7v3.9c0,0.3-0.1,0.5-0.3,0.7s-0.4,0.3-0.6,0.3h-15.1
			c-0.2,0-0.4-0.1-0.6-0.3c-0.2-0.2-0.3-0.4-0.3-0.7v-23.7c0-0.3,0.1-0.5,0.3-0.7c0.2-0.2,0.4-0.3,0.6-0.3h4.3
			c0.2,0,0.4,0.1,0.6,0.3c0.2,0.2,0.3,0.4,0.3,0.7v18.9h9.9C241.6,286.5,241.8,286.6,242,286.8z"/>
	</g>
</g>
</svg>
